<?xml version="1.0" encoding="utf-8"?>
<!-- Generator: Adobe Illustrator 19.0.0, SVG Export Plug-In . SVG Version: 6.00 Build 0)  -->
<svg version="1.1" id="Layer_1" xmlns="http://www.w3.org/2000/svg" xmlns:xlink="http://www.w3.org/1999/xlink" x="0px" y="0px"
	 viewBox="0 0 48 48" style="enable-background:new 0 0 48 48;" xml:space="preserve">
<style type="text/css">
	.st0{fill:#9C27B0;}
	.st1{fill:#03A9F4;}
	.st2{fill:#4CAF50;}
	.st3{fill:#FFC107;}
	.st4{fill:#F44336;}
</style>
<circle id="XMLID_1_" class="st0" cx="24" cy="24" r="24"/>
<g id="XMLID_4_">
	<path id="XMLID_6_" class="st1" d="M11.4,19.2L11.4,19.2c0.2-1,1.3-1.9,2.5-1.9l22.7,0c1.2,0,2,0.8,1.8,1.9l0,0
		c-0.2,1-1.3,1.9-2.5,1.9l-22.7,0C12,21,11.2,20.2,11.4,19.2z"/>
	<path id="XMLID_3_" class="st2" d="M13.6,39.4L13.6,39.4c-1.2,0-1.9-0.9-1.6-1.9l7.7-27c0.3-1.1,1.5-1.9,2.7-1.9h0
		c1.2,0,1.9,0.9,1.6,1.9l-7.7,27C16,38.6,14.8,39.4,13.6,39.4z"/>
	<path id="XMLID_2_" class="st3" d="M24.5,39.4L24.5,39.4c-1.2,0-1.9-0.9-1.6-1.9l7.7-27c0.3-1.1,1.5-1.9,2.7-1.9h0
		c1.2,0,1.9,0.9,1.6,1.9l-7.7,27C26.9,38.6,25.7,39.4,24.5,39.4z"/>
	<path id="XMLID_7_" class="st4" d="M9.7,28.6L9.7,28.6c0.2-1,1.3-1.9,2.5-1.9l22.7,0c1.2,0,2,0.8,1.8,1.9v0c-0.2,1-1.3,1.9-2.5,1.9
		l-22.7,0C10.3,30.5,9.5,29.7,9.7,28.6z"/>
</g>
</svg>
