<?xml version="1.0" encoding="utf-8"?>
<!-- Generator: Adobe Illustrator 19.0.0, SVG Export Plug-In . SVG Version: 6.00 Build 0)  -->
<svg version="1.1" id="Layer_1" xmlns="http://www.w3.org/2000/svg" xmlns:xlink="http://www.w3.org/1999/xlink" x="0px" y="0px"
	 viewBox="-11 13 24 24" style="enable-background:new -11 13 24 24;" xml:space="preserve">
<style type="text/css">
	.st0{fill:#9C27B0;}
	.st1{fill:none;}
</style>
<path class="st0" d="M4.5,27H3.7l-0.3-0.3c1-1.1,1.6-2.6,1.6-4.2C5,18.9,2.1,16-1.5,16S-8,18.9-8,22.5S-5.1,29-1.5,29
	c1.6,0,3.1-0.6,4.2-1.6L3,27.7v0.8l5,5L9.5,32L4.5,27z M-1.5,27C-4,27-6,25-6,22.5S-4,18-1.5,18S3,20,3,22.5S1,27-1.5,27z"/>
<path class="st1" d="M-11,13h24v24h-24V13z"/>
</svg>
