<?xml version="1.0" encoding="utf-8"?>
<!-- Generator: Adobe Illustrator 19.2.0, SVG Export Plug-In . SVG Version: 6.00 Build 0)  -->
<svg version="1.1" id="Layer_1" xmlns="http://www.w3.org/2000/svg" xmlns:xlink="http://www.w3.org/1999/xlink" x="0px" y="0px"
	 viewBox="0 0 56 56" style="enable-background:new 0 0 56 56;" xml:space="preserve">
<style type="text/css">
	.st0{fill:#FDC414;}
</style>
<polygon id="Afghanistan" class="st0" points="48.1,11 49.9,10 51.2,9.7 51.5,10.5 52.8,10.2 53.3,9.7 55.1,9.7 55.4,10.2 
	54.1,11.3 54.9,11.5 53.8,12.9 52,13.6 48.1,14.7 47,14.2 45.7,14.7 44.7,15.7 43.6,15.7 42.9,16.8 42.1,17.3 43.9,19.9 44.2,21.7 
	42.1,24.3 43.1,25.4 43.1,26.4 42.1,28 40.5,28 38.9,27.5 38.2,28 38.4,29 39.5,29.6 39.7,30.6 39.7,31.4 38.7,31.9 37.9,32.2 
	37.4,32.7 37.4,34 37.1,35 37.1,35.6 36.6,35.8 37.1,37.7 36.1,39 35.3,38.2 34.8,38.2 34.8,38.7 33.7,38.7 33.5,38.2 32.4,38.4 
	32.2,39 30.6,40 31.4,40.3 30.8,40.8 29.3,41.6 28.8,41.3 27.7,41.3 27.5,42.1 27.5,42.6 26.7,42.9 26.1,43.7 26.1,44.7 26.4,46 
	26.4,47.1 26.7,47.8 26.4,48.6 24.8,49.1 23.5,49.1 22.2,49.4 19.9,49.4 18.6,49.9 18.1,50.2 16.7,50.2 15.4,50.5 10.5,50.7 5,49.1 
	8.1,45 8.4,44.4 7.9,42.9 8.1,41.6 7.3,40.3 3.7,40.3 3.7,38.7 3.2,37.9 3.7,37.4 2.9,35.6 1.9,33.2 2.1,32.2 3.4,30.6 2.9,30.6 
	1.6,30.3 1.6,29.6 1.3,28 1.1,28 1.9,26.7 1.3,26.2 0.8,25.6 1.9,25.4 2.9,24.9 2.9,24.3 2.9,24.1 2.4,23.3 2.6,22.8 2.6,22.3 
	2.6,20.9 2.6,20.9 3.2,20.7 4,20.9 4.7,21.5 5.3,21.5 5.8,20.9 6.6,20.9 7.6,21.7 7.6,22.3 8.1,22.5 8.4,22.3 9.7,22 10.2,21.2 
	10.5,20.7 11,20.2 10.7,19.6 12,19.1 13.6,18.6 13.6,18.3 14.4,17.8 14.9,17.6 15.2,16.5 15.2,15.5 16.2,14.4 16.2,13.6 16,13.4 
	16,12.9 16.2,12.6 16.7,12.3 17.8,12.1 18.1,12.1 19.4,11.3 20.4,11 21.2,11.3 22,11.3 22.5,11.5 23.8,11 24.6,11.5 25.1,12.3 
	25.6,12.3 26.4,11.8 26.9,11.8 28,12.9 28.5,13.1 29.8,12.9 30.8,12.3 31.1,11.8 31.6,11.5 32.2,11.3 32.7,11.5 32.9,12.1 
	34.5,12.3 34.5,11.5 34,11.3 34,10.5 35,10.2 35.3,10 35.8,10 35.8,10.2 36.6,10.2 37.4,9.5 37.1,8.2 37.4,7.6 37.9,7.4 38.2,6.1 
	38.4,5.3 39.5,5.3 40.2,5.8 41,6.3 41,6.8 40.8,7.9 41,8.7 41.6,8.7 41.8,9.5 41.8,10.2 42.1,11.3 42.1,12.9 42.6,13.6 42.6,14.2 
	43.4,14.4 44.4,14.4 45.2,13.9 45.2,13.6 46.8,12.9 47.3,12.3 47.6,11.5 "/>
</svg>
