<?xml version="1.0" encoding="utf-8"?>
<!-- Generator: Adobe Illustrator 19.2.0, SVG Export Plug-In . SVG Version: 6.00 Build 0)  -->
<svg version="1.1" id="Layer_1" xmlns="http://www.w3.org/2000/svg" xmlns:xlink="http://www.w3.org/1999/xlink" x="0px" y="0px"
	 viewBox="0 0 56 56" style="enable-background:new 0 0 56 56;" xml:space="preserve">
<style type="text/css">
	.st0{fill:#FDC414;}
</style>
<polygon id="Albania" class="st0" points="33.1,16 32.1,21.6 33.1,27.2 35.9,31 36.8,34.7 40.6,36.6 39.6,40.4 37.8,45 31.2,46.9 
	31.2,49.7 29.3,54.4 27.5,55.3 24.7,53.5 21.8,46.9 17.2,46.9 15.3,45 16.2,41.3 15.3,38.5 15.3,34.7 16.2,31.9 14.3,27.2 
	15.3,20.7 17.2,20.7 17.2,17.9 13.4,16 13.4,10.4 15.3,6.6 18.1,2.9 20,2.9 21.8,5.7 23.7,1.9 23.7,1.9 24.7,2.9 27.5,5.7 28.4,6.6 
	31.2,8.5 32.1,10.4 32.1,15.1 "/>
</svg>
