<?xml version="1.0" encoding="utf-8"?>
<!-- Generator: Adobe Illustrator 19.2.0, SVG Export Plug-In . SVG Version: 6.00 Build 0)  -->
<svg version="1.1" id="Layer_1" xmlns="http://www.w3.org/2000/svg" xmlns:xlink="http://www.w3.org/1999/xlink" x="0px" y="0px"
	 viewBox="0 0 56 56" style="enable-background:new 0 0 56 56;" xml:space="preserve">
<style type="text/css">
	.st0{fill:#FDC414;}
</style>
<polygon id="Armenia" class="st0" points="0.8,9.2 5.6,7.3 12.3,6.3 14.2,6.3 22.9,6.3 26.7,9.2 32.5,10.1 35.4,13 34.4,16.9 
	34.4,19.7 40.2,24.5 41.1,27.4 39.2,30.3 41.1,34.1 47.8,38 51.7,38.9 55.5,41.8 51.7,42.8 53.6,46.6 52.7,47.6 52.7,51.4 
	48.8,51.4 42.1,41.8 39.2,40.9 36.3,36.1 33.4,36.1 32.5,37 27.7,33.2 25.8,35.1 22.9,35.1 21.9,33.2 19,30.3 16.2,30.3 11.4,30.3 
	7.5,27.4 7.5,21.7 8.5,16.9 6.6,14 3.7,13 3.7,12.1 "/>
</svg>
