<?xml version="1.0" encoding="utf-8"?>
<!-- Generator: Adobe Illustrator 19.2.0, SVG Export Plug-In . SVG Version: 6.00 Build 0)  -->
<svg version="1.1" id="Layer_1" xmlns="http://www.w3.org/2000/svg" xmlns:xlink="http://www.w3.org/1999/xlink" x="0px" y="0px"
	 viewBox="0 0 56 56" style="enable-background:new 0 0 56 56;" xml:space="preserve">
<style type="text/css">
	.st0{fill:#FDC414;}
</style>
<polygon id="Angola" class="st0" points="51.2,52.7 50.9,52.2 50.4,51.9 49.8,51.4 49.6,50.9 49,50.6 48.5,50.1 47.7,49 47.1,48.7 
	46.6,48.5 46.1,47.9 45.5,47.1 45.5,46.6 45.8,32.6 54.7,32.6 54.4,32.1 54.7,31 54.9,30.7 54.9,29.9 54.4,29.1 54.4,28.3 
	54.7,26.7 54.4,25.1 54.4,24.6 54.7,24.3 54.7,24 53.8,24.3 53,24.6 52.2,24.8 52,24.8 51.4,25.1 51.2,25.1 50.1,24.8 49.6,24.8 
	49,24.3 48.5,24.3 48.5,24.6 47.9,24.6 47.7,24.8 47.1,25.1 47.1,24.8 47.1,23.8 47.4,23.5 47.4,23.5 47.7,22.7 47.1,22.4 
	46.9,21.6 47.1,21.4 47.1,20.8 46.6,20.3 46.6,19.7 46.9,19.2 46.9,18.7 46.3,18.7 46.1,18.1 45.8,18.1 45.8,17.6 45.5,17.1 
	45.5,16.5 45.3,16.3 45.5,15.5 45.5,13.8 45.3,13.3 45.5,13 45.5,12.8 45.5,12.2 45.3,11.4 45.3,10.9 45.8,10.1 45.8,9.6 45.8,8.7 
	45.5,8.2 40.7,7.9 40.7,7.7 41,7.1 41,6.6 39.6,6.6 39.6,6.9 35.6,6.9 35.3,8.2 35.1,8.7 34.8,9 34.8,9.8 34.8,10.9 31.6,11.2 
	31,11.4 29.7,11.4 29.2,11.2 28.4,11.4 27.3,11.4 26.7,11.2 26.5,9.8 25.9,9 25.7,8.5 25.4,8.2 25.4,7.7 25.1,7.1 24.9,6.3 
	24.3,5.5 24.3,5 24.6,4.5 24.6,3.9 24.3,3.4 24.1,3.1 24.3,2.8 24.3,2.3 19.8,2.3 16.8,2.3 15.5,2.3 14.1,2.3 13.3,2.3 12.3,2.3 
	11.2,2.3 10.4,2.3 9.8,2.3 9,2.3 8.5,2.3 7.7,2.6 7.4,2.6 7.2,2.6 6.9,2.8 6.9,2.8 6.9,2.8 5.5,3.6 6.1,4.2 6.1,4.7 8.5,7.4 
	8.5,10.6 9.8,12.5 9.6,14.1 8.2,15.7 9,16.3 9,17.6 9.6,18.7 9.6,19.7 11.2,22.4 11.2,23.2 11.7,23.8 11.7,27.5 10.1,30.5 9.6,30.5 
	7.7,32.1 7.4,32.9 5.3,35 5.3,36.4 4.7,36.7 4.7,40.1 3.7,41.5 3.7,43.1 2.3,44.4 2.3,46 2.3,47.4 2.3,49.3 2.1,50.6 2.1,51.1 
	2.1,51.1 2.9,51.4 2.9,51.4 3.4,51.4 3.4,50.9 3.7,50.6 4.7,50.9 5.3,51.1 5.8,50.9 5.8,50.3 7.2,49.5 7.7,49.5 8.2,49.8 8.5,49.8 
	8.8,49.5 9,49.5 9.6,49.8 9.6,50.1 10.1,50.3 10.1,50.6 10.4,50.9 11.2,51.7 12.3,51.9 12.8,51.7 13.1,51.7 13.6,51.1 14.1,51.1 
	14.4,51.4 30,51.4 30.2,51.4 30.8,52.2 31,52.5 31.8,53 32.9,53.3 33.5,53 34,53.3 34,53.6 34.5,53.8 35.3,53.3 35.9,53.3 
	36.9,53.6 37.5,53.3 37.7,53 38,53 38.3,53 39.4,53.8 39.9,54.4 41,54.4 41.2,54.1 41.2,53.8 41.8,53.8 42,53.8 42.6,54.1 
	42.8,53.8 43.1,54.1 43.4,54.1 43.6,54.4 43.9,54.4 44.2,54.4 44.5,54.4 "/>
</svg>
