<?xml version="1.0" encoding="utf-8"?>
<!-- Generator: Adobe Illustrator 19.2.0, SVG Export Plug-In . SVG Version: 6.00 Build 0)  -->
<svg version="1.1" id="Layer_1" xmlns="http://www.w3.org/2000/svg" xmlns:xlink="http://www.w3.org/1999/xlink" x="0px" y="0px"
	 viewBox="0 0 56 56" style="enable-background:new 0 0 56 56;" xml:space="preserve">
<style type="text/css">
	.st0{fill:#FDC414;}
</style>
<path id="Argentina" class="st0" d="M20,1.7l0.2-0.3l0.3-0.5l0.5-0.5l0.3-0.1l0.3,0.3H22l0.3-0.1l0.3,0.1L23,0.5h0.3l0.1,0.3
	l0.2,0.6l0.1,0.2l0.1-0.2V1.2l0.2-0.3V0.7L24,0.4h0.8h0.7l0.3,0.3l0.3,0.3L26.3,1l0.3,0.6l0.8,0.8h0.3l0.3,0.3l0.2,0.3l0.8,0.2
	l0.5,0.3L30,3.6l0.6,0.5l0.6,0.3l0.8,0.1l0.3,0.3l0.4,0.3l0.2,0.3l-0.1,0.3l-0.2,0.3l-0.3,0.2l-0.2,0.3l0.1,0.3l-0.2,0.5l-0.4,0.4
	l-0.1,0.3h0.3l0.9-0.2l0.8,0.3l0.6,0.3l0.3-0.2h0.2l0.2,0.2l0.3-0.3l0.1-0.1l0.3,0.1l0.3-0.3l0.1-0.3l0.6-0.4l0.1-0.3l0.2-0.3
	l0.3-0.2V5.8l-0.1-0.2V5.3l0.3-0.2l0.6,0.1v0.3L37.9,6v0.4L38,7l0.1,0.5L38,7.6h-0.3l-0.3,0.2l-0.1,0.1l-0.2,0.2L37.1,8l-0.5,0.3
	l-0.1,0.2l-0.2,0.1L35.8,9l-0.2,0.1v0.3l-0.2,0.1h-0.2L34.9,10l-0.1,0.2v0.3l-0.2,0.1l-0.1,0.2l-0.3,0.5l-0.2,0.2l-0.3,0.3v0.1
	l-0.3,0.2l-0.1,0.2l-0.1,0.3l-0.3,0.3l0.1,0.4l-0.1,0.2l0.1,0.3l-0.1,0.6l-0.1,0.2v0.3L32.9,15l0.2,0.4L33,15.6l0.1,0.6l0.1,0.4
	l-0.1,0.2L32.9,17l-0.1,0.1l0,0l0,0l-0.1,0.5l0.1,0.5l-0.1,0.2l0.2,0.2v0.3l-0.1,0.1L33,19l0.6,0.4l0.6,0.2l0.7,0.5l0.2,0.2v0.3
	l-0.3,0.7v0.2l0.2,0.4l0.3,0.3h0.3l0.2-0.2h0.1l0.1,0.3v0.6L35.7,23l-0.3,0.4l-0.1,0.4L35.3,24v-0.2l-0.1,0.1l-0.2,0.4l0.1,0.3
	L35.1,25l-0.8,0.4l-0.6,0.2l-0.1-0.2v0.2l-0.8,0.3l-0.9,0.3h-0.6l-0.4-0.1l-0.4,0.1h-0.3L29.8,26l-0.3-0.1h-0.2l-0.1-0.2l-0.1,0.1
	v0.3l0.1,0.2v0.5l0.1,0.2v0.2h0.3l0.1,0.3v0.2h-0.1v0.1l-0.3,0.3l0.1,0.1l-0.1,0.2v0.3l0.2,0.3l0.3,0.1l-0.1,0.3l-0.1,0.2l0.1,0.2
	l-0.1,0.3l-0.3,0.3v0.1l-0.4,0.3H28l-0.4-0.1l-0.5-0.4l-0.5-0.2h-0.3l-0.1-0.1l0.1-0.2h-0.2l-0.3,0.3V30l0.3,0.3l0.1,0.5v0.6
	l0.1,0.3l0.3,0.2H27l0.2,0.1L27,32l-0.1,0.1l0.2,0.1l0.4-0.2v-0.2l-0.3-0.1l-0.1-0.1l0.1-0.1h0.2l0.3-0.2h0.2l0.2,0.3L27.9,32
	l-0.1,0.1l0.2,0.2l0.1,0.3L28,32.8l-0.5,0.3L27.3,33l-0.1-0.3l0.1-0.1v-0.2L27,32.3l-0.3,0.2l-0.3,0.2l-0.1,0.2l0.1,0.2h0.3l0.4,0.1
	v0.2l-0.3,0.3l-0.4,0.2l-0.2,0.2l0.1,0.1l-0.1,0.3l-0.2,0.3l0.1,0.3l0.1,0.2v0.2l-0.1,0.2l0.3,0.3v0.1l-0.1,0.2l0.1,0.1l-0.3,0.3
	l-0.1,0.2v0.1l0.3,0.1l0.1,0.1v0.1L26,36.8h-0.3l-0.4,0.1l-0.3,0.3h-0.3l-0.3,0.3h-0.2l-0.1,0.3L24.1,38l-0.3,0.2v0.2l0.2,0.3v0.3
	l0.3,0.5l0.3,0.3l0.2,0.1l0.3,0.3l0.5,0.5h0.4h0.3l0.1-0.1l0.2,0.1l0.1,0.2l-0.1,0.1V41l0.2,0.3v0.2l-0.3,0.3h0.2l0.3,0.3l-0.2,0.1
	v0.2l0.1,0.1l-0.2,0.3l-0.2,0.1l-0.1,0.2l-0.2,0.1l-0.2,0.3l-0.1,0.3h-0.3l-0.3,0.3l-0.1,0.3l-0.1,0.3l-0.3,0.3l-0.1,0.2l0.1-0.1
	l0.2,0.1l0.1,0.4L25,45.5l-0.3,0.3v0.2l-0.3,0.3l-0.2-0.1l-0.2-0.2l-0.2-0.1L24,46v0.3l0.1,0.1L24,46.5l-0.3,0.3l-0.2,0.4l0.1,0.4
	l0.3,0.4l0.3,0.6v0.2h0.1L24.1,49L23.9,49l0.2,0.2l0.2-0.1l0.3,0.3l0.1,0.3l0.4,0.3l0.3,0.2v0.3h-0.1l-0.3-0.2l-0.3-0.3l-0.3-0.1
	l-0.1-0.1h-1.7l-0.9,0.2l-0.3-0.1l-0.7-0.1L20.5,49l-0.2-0.5L20,48.3L20,47.5v-0.3h-0.3l-0.4,0.2L19,47.6h-0.3l-0.6-1.2L18.1,46
	l0.2-1.2l0.3-0.4l0.4-0.5l0.2-0.7l-0.2-0.7L18.8,42l0.1-0.6l0.3-0.3l-0.3-0.6l0.1-0.3l0.3-0.3L19,39.3l-0.1-0.8l-0.2-0.3v-0.3
	l0.3-0.3v-0.3l-0.3-0.5l-0.4-0.3h-0.3l-0.1,0.1l-0.2-0.2l0.1-0.3h0.6l0.3-0.3v-0.3l-0.2-0.1l-0.2,0.2l-0.3-0.1l-0.1-0.6l-0.3-0.5
	v-0.4v-0.4l-0.4-0.2l-0.1-0.4l-0.1-1l0.3-0.2l0.1-0.3l-0.2-0.3L17.2,31l-0.1-0.6l-0.1-0.8l0.1-1l-0.3-0.4L16.8,28l0.5-0.7l0.1-0.8
	l0.3-0.2l0.2-0.3l-0.8-1.5l0.1-0.5v-0.3v-0.9l0.3-0.6l0.3-0.3l-0.1-0.5L17.5,21l-0.2-0.2l0.3-0.4l-0.1-0.5l0.3-0.5l0.3-0.1l0.1-0.6
	l-0.1-1l-0.2-0.2l-0.2-0.8l-0.2-0.4l-0.3-0.5l-0.1-0.3l-0.3-0.3l-0.2-0.7l0.1-0.5l0.3-0.2v-0.7l0.2-0.3v-0.6l-0.3-0.4V11l0.2-0.2
	l0.1-1l0.3-0.3l0.3-0.9l0.3-0.3l0.3-0.2l0.2-0.3l-0.1-0.2V7.3l-0.1-0.2L18.3,7l0.1-0.3l0.3-0.2V6.2l-0.3-0.3l-0.1-0.4l0.2-0.3
	l-0.1-0.3l-0.3-0.3l0.1-0.3l1.6-0.8L20.2,2L20,1.7L20,1.7z M30.9,54.9l0.2,0.2l0.3-0.2l0.3-0.1l0.3-0.3h-0.3l-0.2,0.2H31L30.9,54.9
	L30.9,54.9z M25,50.7L25,50.7l0.3,0.3l0.4,0.4l0.2,0.7l-0.2-0.2l-0.2,0.1l-0.1,0.2L25,50.7L25,50.7z M25.3,52.3l0.3,0.1l0.3-0.1
	l0.2,0.3l0.2,0.4l0.3,0.1l0.3,0.3v0.3l0.3,0.1l1,0.3l0.1,0.2l0.4,0.1l0.3,0.3h0.3l0.5-0.1l0.3,0.1l0.1,0.3l-0.3,0.2L29.7,55
	l-0.3,0.1l-0.1,0.3l-0.3,0.3l-0.3,0.1l-0.3-0.1l-0.3-0.2l-0.5-0.1h-0.4l-0.6-0.1l-0.4,0.2l0,0l-0.1-0.5h0.6l0.3-0.1l0.3-0.1l0.1-0.1
	L27,54.7h-0.3l-0.5,0.1h-0.1L25.3,52.3z"/>
</svg>
