<?xml version="1.0" encoding="utf-8"?>
<!-- Generator: Adobe Illustrator 19.2.0, SVG Export Plug-In . SVG Version: 6.00 Build 0)  -->
<svg version="1.1" id="Layer_1" xmlns="http://www.w3.org/2000/svg" xmlns:xlink="http://www.w3.org/1999/xlink" x="0px" y="0px"
	 viewBox="0 0 56 56" style="enable-background:new 0 0 56 56;" xml:space="preserve">
<style type="text/css">
	.st0{fill:#FDC414;}
</style>
<polygon id="Austria" class="st0" points="32.6,39.7 33.6,39.7 37.1,39.7 38,41.2 40,40.2 41.5,40.2 43.5,39.7 44.5,39.2 45.5,39.2 
	49,37.7 50.9,36.7 52.4,35.2 51.4,33.7 51.4,32.3 52.4,30.8 50.9,28.8 50.9,28.3 54.4,28.3 54.9,26.8 54.4,25.3 53.9,20.8 
	53.9,18.4 50.9,17.9 50,16.9 47.5,16.9 45.5,16.9 43.5,15.4 40.5,15.4 39,14.9 38.5,16.4 37.6,16.9 37.6,18.4 35.6,18.4 34.6,19.4 
	30.6,16.9 29.6,16.9 29.6,18.4 29.6,19.9 28.1,19.9 27.6,21.3 25.6,22.3 23.7,24.8 23.7,25.8 25.6,26.8 25.6,28.3 24.7,28.8 
	23.2,27.8 21.2,28.3 19.7,27.8 18.2,27.8 15.7,29.8 14.7,29.8 13.2,29.8 11.8,29.8 10.8,29.3 8.8,28.8 6.8,29.3 6.8,30.3 6.3,30.8 
	4.3,30.3 3.3,29.3 1.8,29.8 0.8,30.3 0.8,30.3 1.3,30.8 1.3,31.8 2.3,32.3 2.3,33.7 3.3,34.2 4.3,33.7 6.3,35.2 7.3,33.7 8.8,33.7 
	9.3,35.2 9.3,35.2 11.8,36.2 16.2,33.7 17.7,34.2 20.2,34.2 20.2,35.7 24.2,38.2 28.6,38.7 31.1,38.7 "/>
</svg>
