<?xml version="1.0" encoding="utf-8"?>
<!-- Generator: Adobe Illustrator 19.2.0, SVG Export Plug-In . SVG Version: 6.00 Build 0)  -->
<svg version="1.1" id="Layer_1" xmlns="http://www.w3.org/2000/svg" xmlns:xlink="http://www.w3.org/1999/xlink" x="0px" y="0px"
	 viewBox="0 0 56 56" style="enable-background:new 0 0 56 56;" xml:space="preserve">
<style type="text/css">
	.st0{fill:#FDC414;}
</style>
<path id="Australia" class="st0" d="M52.8,26.7l0.1-0.5l0.1,0.3L52.8,26.7L52.8,26.7z M53,23.6l-0.1-0.4l0.1-0.2v-0.2l0.2-0.2
	l0.2-0.2L53.3,22l0.1-0.2h0.1l0.1,0.3l-0.1,0.3l-0.3,0.4l-0.1,0.5l0.1,0.2L53,23.6L53,23.6z M50.9,19.8l0.2,0.3l0.2,0.2l0.1-0.2
	L51.3,20v-0.2h-0.2L50.9,19.8L50.9,19.8L50.9,19.8z M50.6,18v-0.2V18L50.6,18L50.6,18z M45.8,12.5l0.1-0.2L45.7,12L46,12l0.1-0.1
	v0.4L46,12.5H45.8L45.8,12.5z M41.6,0.6l0.1,0.2l0.1-0.2H41.6L41.6,0.6z M41.5,1.2v0.3l0.1-0.1h0.2l-0.1-0.2H41.5L41.5,1.2z
	 M37.5,10.3L37.5,10.3h0.2v-0.2L37.5,10.3L37.5,10.3z M37.2,9.7L37.2,9.7h0.2l0.2-0.2l0.2-0.1V9.4l-0.3-0.1l-0.3,0.2
	C37.2,9.6,37.2,9.7,37.2,9.7L37.2,9.7z M34.6,8.5l-0.1-0.2l0.1-0.2l0.2,0.2L34.6,8.5L34.6,8.5z M33.8,5.8V5.6V5.8l-0.1-0.2l0.2-0.2
	L34,5.6L33.8,5.8L33.8,5.8z M34.1,6.1L34,6.2L34.1,6.1L34.1,6.1l0.4,0.1L34.6,6L34.5,6h-0.1l-0.1-0.1l0.2-0.2V5.6l-0.2,0.1V5.6
	l-0.2,0.1l-0.1,0.1H34L34,5.8L34,5.9L34.1,6.1L34.1,6.1z M34.3,2.3l0.2,0.1l0.1-0.2L34.8,2L34.7,2l-0.2,0.2L34.3,2.3L34.3,2.3z
	 M34,2.4l0.2,0.1V2.4L34,2.4L34,2.4z M33.8,2.5L33.8,2.5H34H33.8L33.8,2.5z M33.3,2.8h0.2V2.6L33.3,2.8L33.3,2.8z M33,3.2V3l0.2-0.2
	h0.2L33.4,3h-0.2L33,3.2L33,3.2z M32.6,3.2L32.6,3.2h0.3V3.2L32.6,3.2L32.6,3.2z M29.4,2.2L29.2,2l0.1-0.2h0.2L29.4,2V2.2L29.4,2.2z
	 M26.7,2.1v0.3l0.2,0.2l0.2,0.2l0.3,0.2l0.4-0.5h0.1V2.4L28,2.4l-0.1-0.1l-0.1-0.2h-0.1l-0.2,0.1h-0.3l-0.2,0.2l-0.2-0.1V2.2
	L26.7,2.1L26.7,2.1L26.5,2L26.7,2.1L26.7,2.1z M26.6,2.2l0.1,0.5l0.2,0.1v0.1l-0.3-0.1h-0.1l-0.2-0.1V2.5h0.1h0.2V2.4h-0.1V2.3V2.2
	L26.6,2.2L26.6,2.2z M18.5,7.6l0.1,0.2l0.2-0.1l-0.2-0.2C18.7,7.5,18.5,7.6,18.5,7.6L18.5,7.6z M18.6,8.4V8.2L18.4,8v0.4H18.6
	L18.6,8.4z M19.6,6.6h-0.2l0.1-0.2h0.1V6.6L19.6,6.6z M6.4,15.2l-0.1-0.2l0.2-0.3v0.3L6.4,15.2L6.4,15.2z M2.6,21.7l0.1-0.6v0.3
	C2.8,21.6,2.6,21.7,2.6,21.7L2.6,21.7z M2.6,22.7l-0.2-0.5l0.1-0.3l0.2,0.4L2.6,22.7L2.6,22.7z M30.4,39l-0.1,0.2l0.1,0.2h0.2
	l-0.1,0.1h0.2l0.2-0.1l0.2,0.1l-0.2,0.2l-0.5-0.1l-0.1,0.1h-0.2v0.1H30l-0.1-0.2l-0.2,0.1h-0.2h-0.1h-0.3l-0.2-0.2v-0.2l0.3-0.2
	l0.6-0.2h0.2L30.4,39L30.4,39z M38.6,45l0.2-0.1l0.1,0.1l-0.1,0.1L38.6,45L38.6,45z M39.9,45.8l0.2,0.1l0.1-0.1H39.9L39.9,45.8z
	 M36.9,49.2l0.1,0.2l0.2,0.1l0.1-0.1l-0.2-0.2H36.9L36.9,49.2z M37,48.7v0.2h0.2v-0.2L37,48.7L37,48.7z M36.8,49l-0.2-0.1l0.1-0.2
	l0.2-0.1L36.8,49L36.8,49L36.8,49z M35.9,48v-0.2l-0.1-0.2l0.2-0.2v-0.2l0.2-0.2l0.2-0.1l0.2,0.2l-0.1,0.4l0.1,0.2l-0.2,0.2L36.2,48
	L35.9,48L35.9,48L35.9,48z M41,48.7l0.5-0.2v-0.2l-0.4-0.4L40.9,48l0.1,0.2l-0.1,0.2L41,48.7L41,48.7L41,48.7z M40.7,49l0.1,0.2h0.4
	l0.2,0.1v-0.2l-0.2-0.2h-0.3L40.7,49L40.7,49z M41,49.6l-0.2-0.2l0.2-0.1V49.6L41,49.6z M39.6,53.6v-0.2l0.2,0.2L39.6,53.6
	L39.6,53.6z M38.2,55.1L38,55l0.2-0.3v-0.2l0.2-0.1l0.1,0.2l-0.1,0.2L38.2,55.1L38.2,55.1z M36.5,55v-0.2l0.2-0.2l-0.2-0.1l-0.1-0.3
	l0.1-0.1L36.3,54v-0.7l0.1-0.2L36.2,53v-0.4l0.1-0.2l0.2,0.2h0.2l-0.2-0.2v-0.2l-0.1-0.1l0.1-0.3l-0.1-0.5v-0.6l0.1-0.3L36.4,50
	v-0.2l0.1-0.1v-0.3l0.1-0.1l0.2,0.2l0.2,0.1l0.2,0.2v-0.2l0.1-0.2v0.4l0.4,0.2l0.3,0.3l0.2,0.2l0.2-0.2h0.2l0.2,0.2v-0.2l0.2-0.1
	l0.7,0.1l0.2-0.1L40,50h0.2l0.1,0.1l0.2-0.2h0.1l0.3,0.2l-0.1,0.2l-0.1,0.6l-0.2,0.2v0.5l-0.2,0.2l0.1,0.3l-0.1,0.1v0.2l-0.2,0.2
	L40,52.6L40,52.2l-0.2,0.2l-0.2,0.1v0.6l-0.1,0.1h-0.2v0.3l-0.2,0.2l0.2,0.2V54l-0.3,0.4h-0.2l-0.2,0.1v-0.4l0.2,0.1V54l-0.2-0.2
	h-0.2L38.4,54L38.2,54v-0.2L38.1,54l-0.2,0.2l0.2,0.4l-0.2-0.2l-0.1,0.4V55l-0.2,0.4h-0.2l-0.2-0.2v-0.2l-0.2,0.2L36.9,55l-0.2,0.1
	C36.6,55,36.5,55,36.5,55L36.5,55z M3,35.3l0.2,0.2h0.2L3.9,36v0.2L4,36.3l0.2,0.1l0.2,0.2l0.4,0.1h0.2L5,36.7h0.2l0.3-0.1l0.1,0.2
	l0.2-0.1l0.1,0.1l0.4-0.1h0.3v-0.2h0.2L7,36.2l0.4,0.1V36l0.2-0.2h0.2L8,36l0.2-0.2l0.1,0.1l0.2-0.1l0.1-0.3l0.7-0.4h0.2l0.2,0.1
	L9.8,35l0.6-0.2l0.1,0.2l0.4-0.1l0.2,0.1h0.2l0.2-0.1l0.1,0.2h0.2l0.2-0.1l0.1,0.2l0.2-0.2h0.5v0.2h0.1l0.2-0.2l0.2,0.1l0.3-0.2
	l0.2-0.3h0.2l0.2-0.2l0.2-0.5l0.3-0.2l0.4-0.1l0.2,0.1l0.6-0.2l0.6-0.4l0.4-0.4l0.2-0.1H17h0.2l0.4,0.2H18l0.2-0.1h0.5l0.7-0.2
	l0.4-0.1l0.3-0.2h0.2l0.3-0.2h0.6l1.4-0.1L23,32h0.3l0.4-0.2H24l0.4,0.4l0.3,0.5l0.2,0.1l0.2-0.2l0.2-0.1l0.1,0.2l0.2-0.1l0.2,0.1
	L26,33l0.3,0.1l0.2-0.1l0.6,0.4L27,33.6h0.2l0.2,0.2L27.2,34H27l-0.1,0.2l0.2,0.5h0.2l0.2,0.2l0.1,0.3l-0.1,0.2l0.2,0.6l-0.1,0.2
	l0.1,0.2l-0.1,0.3l-0.1,0.2l-0.2-0.1l-0.1,0.1l0.2,0.2l0.2,0.1l0.1,0.2l0.2-0.1l0.2,0.2v-0.2l-0.2-0.2l0.2-0.2l0.2-0.2h0.2l0.1-0.2
	l0.2-0.1l0.1-0.2l0.2-0.3l0.6-0.2l0.1-0.2H30l0.4-0.2l0.1-0.3l0.3-0.5l0.4-0.1l0.2-0.2L31.3,34l0.1-0.3l0.2,0.3v0.3v0.3l-0.2,0.2
	l-0.1,0.6l-0.6,0.3L30.7,36l-0.2,0.2v0.3l-0.3,0.4l0.1,0.2L30,37.6l-0.6-0.1l-0.2,0.3l-0.2,0.2v0.1l0.4-0.1L30,38l0.4,0.2l0.4-0.7
	l0.1-0.6l0.3-0.4l0.1,0.1V37l0.2,0.3h-0.1v0.6l-0.2,0.5l-0.5,0.2l0.1,0.2H31h0.3l0.2-0.2l0.2-0.1l0.2-0.2l0.2,0.1h0.2l-0.2,0.2
	L32,38.8h-0.3l-0.1,0.2l0.2,0.3l0.1,0.2l0.2,0.4v0.5L32,40.9l-0.3,0.3l0.1,0.2l-0.1,0.4L32,42l0.2,0.3l0.1,0.4l0.5,0.6l0.3,0.1
	l0.2,0.2l0.1,0.3h0.2l0.1-0.1l0.2-0.1l0.3,0.1l0.2,0.3h0.3l0.3,0.3v0.2l0.2,0.1l0.2,0.3h0.2l0.1-0.2l0.5-0.2l0.2-0.2h0.3L37,44
	l0.2,0.1l0.1-0.2l-0.1-0.2L37,43.7l0.1-0.2l0.5-0.3l0.4,0.3v0.2L37.5,44l0.1,0.2h0.2l0.2-0.2l0.2-0.2l0.2,0.2v0.2h-0.2L38,44.5
	l0.3,0.4l0.1,0.4l0.2-0.1h0.2v0.2l0.2,0.2l0.2-0.3v-0.3l-0.2,0.2l-0.1-0.2l0.2-0.2h0.6l0.1,0.2l0.1-0.2l0.3-0.4l0.6-0.4l0.4-0.3
	h-0.2l-0.2,0.1l0.1-0.1l-0.2-0.1h0.2h0.3l0.5-0.2l1-0.2l0.8,0.2l0.3-0.2v-0.2H44l0.2-0.2l0.2-0.5L44.4,42v-0.2l0.4-0.4v-0.7l0.2-0.3
	l0.1-0.5l0.2-0.1v-0.2l0.8-1h0.2l0.2-0.5l0.3-0.4l0.2-0.6l0.3-0.3v-0.2l0.2-0.1l0.2-0.5l-0.2-0.2l0.4-0.2l0.2-0.4l0.2-0.2l0.2-0.4
	l0.4-0.1l0.2-0.1h-0.4l0.1-0.2h0.5l0.4-0.3l0.1-0.3l-0.1-0.2l0.1-0.2l0.4-0.3v-0.2l0.3-0.1l0.2-0.5V32l0.2-0.4l-0.1-0.2v-0.2
	l0.3-0.8l0.1-0.4l0.5-0.8V29l0.2-0.6l0.3-0.3l0.2-0.3l-0.1-0.4l0.2-0.2l-0.2-0.6v-0.3l-0.2-0.5l-0.1-0.2v-0.2l0.1-0.1V25l0.2-0.4
	v-0.1v-0.7l0.2-0.2l-0.1-0.2l-0.1-0.2v-0.5h-0.1l0.2-0.2l-0.2-0.1l-0.2-0.2v-0.3l-0.3-0.2l-0.2-0.4l-0.1-0.3l-0.2-0.3h-0.2l-0.2,0.1
	l-0.2-0.2v-0.3L50.8,20v-0.2l-0.3-0.2l-0.2-0.2l0.1-0.2L50.2,19l0.2-0.3l0.1-0.4l-0.1-0.2v-0.2l-0.2-0.1L50.2,18l0.1,0.1l-0.1,0.2
	l-0.6-0.5l-0.2-0.3l-0.1,0.1v0.2l-0.1,0.2l0.2,0.4l-0.2-0.3L49.1,18v-0.2L49,17.6l-0.1-0.7l0.1-0.1v0.1l-0.2-0.2l0.1-0.2l-0.2-0.2
	l0.1-0.2l-0.4-0.3l-0.1-0.2v-0.3l0.2,0.1v-0.2l-0.2-0.4l-0.1,0.1H48l-0.2-0.3h-0.1l-0.2-0.2l-0.2,0.2l-0.1-0.2L47,14.2l-0.2,0.2
	l0.2-0.2l0.2-0.1v-0.2l-0.1-0.2h-0.3h-0.2l-0.1-0.2h-0.2l-0.6-0.3l-0.2-0.5l-0.1-0.5L45.3,12v-0.2l0.2-0.1l0.1-0.5l-0.2-0.6
	l-0.2-0.3l0.2-0.1L45.2,10h0.1l-0.2-0.5V8.8l0.1-0.1V8.6l-0.1-0.2L45,7.6l0.1-0.2L45,7.2l0.1-0.1V6.9l-0.4-0.4l-0.2-0.2l0.1-0.1
	L44.2,6L44,6.1L43.8,6l-0.2,0.2h-0.2l-0.2-0.4V5.6L43,5.3l0.1-0.5L43,4.3l-0.1,0.1l-0.1-0.2l0.1-0.2l-0.2-0.2V3.4l-0.2-0.1V3
	l0.2-0.2l-0.2-0.1l-0.2,0.1l-0.2-0.2l0.1-0.6L42.2,2l-0.1-0.3l-0.2-0.1V1.4l-0.3,0.1l-0.2,0.2v0.5l-0.2,0.4v0.1l-0.1,0.2H41
	l-0.2,0.4l-0.2,0.3l0.2,0.2L41,3.9L40.8,4h-0.2l-0.1,0.2l-0.2,0.2l0.2,0.3V5l-0.2-0.1L40.3,5l-0.1,0.6L40.3,6l-0.1,0.5l0.2,0.3v0.4
	l-0.2,0.2v0.2l-0.2,0.5l-0.1,0.7l-0.2,0.2l0.1,0.2l-0.2,0.4L39.2,10v0.5l-0.4,0.3L38,11.2l-0.3-0.2h-0.4l-0.2-0.2l-0.3-0.2v-0.2
	l-0.1-0.1L36.7,10l-0.3-0.1l-0.2-0.1h-0.4l-0.4-0.2l-0.1-0.2L35,9h-0.3l-0.3-0.2V8.7h-0.2L34,8.6h-0.2l-0.2-0.1l0.1-0.1l-0.3-0.2
	l0-0.2L33,7.6h-0.2l-0.2-0.3V7l0.2-0.4l0.1-0.3l0.2-0.2l0.1-0.3l0.1-0.2L33,5.7l-0.2-0.3l0.2-0.2L33,5h0.2l0.2-0.1L33.4,5l0.2,0.1
	L34,4.9L34,4.6l-0.2-0.2L34,4.3l0.2,0.1L34.3,4l0.2-0.1l0.2-0.2V3.5l-0.2-0.2l-0.2,0.2L34,3.4V3l-0.2,0.1l-0.3,0.3l0.2,0.1v0.2
	l-0.2,0.1l-0.2-0.2l-0.1-0.2l-0.1-0.2L33,3.4l-0.2,0.1V3.3L33,3.2L33.1,3l-0.2,0.1l-0.2,0.2l-0.3,0.1v0.1h-0.2l-0.1-0.1H32V3.2
	L31.8,3h-0.1l-0.3,0.2l-0.2-0.1L31,3.2L30.9,3h-0.1l-0.2-0.2l-0.3,0.2L30,2.8l-0.2-0.2V2.5l-0.2-0.2h-0.1v0.1l-0.4,0.1l-0.1-0.2
	l-0.2-0.1L28.5,2L28.4,2l-0.2-0.2L28,2l0.2,0.2l-0.1,0.1l0.2,0.1l0.2-0.1l0.4,0.3v0.2l0.1,0.4h-0.2l-0.1,0.3l-0.1-0.2l-0.2-0.1
	l-0.2,0.2h-0.7l-0.2-0.2v0.1l-0.3,0.1v0.2l-0.2-0.1L27,3.8l-0.1-0.2l-0.3-0.1l-0.1,0.2l0.1,0.2V4l-0.3-0.1L26.1,4l0.2,0.2l-0.2,0.1
	l-0.2,0.1v0.2L26,4.7l0.1,0.2v0.1L26,5.1h-0.2l-0.2,0.3l-0.2,0.4l-0.2,0.1l-0.1,0.3l-0.2,0.2l0.2,0.2l0.4,0.1l-0.2,0.1l-0.1,0.2
	L25.7,7l-0.2,0.1h-0.3l-0.1-0.2v0.2l0.2,0.2v0.2l0.2,0.3l-0.3-0.2l-0.2-0.4h-0.2v0.2l-0.1,0.2V7.3L24.3,7l-0.4,0.1L24,7.2l-0.2,0.2
	l-0.2-0.1h-0.1l-0.1,0.2l0.2,0.2l-0.1,0.2V7.8h-0.2V8l-0.2,0.2l-0.4,0.1L23.2,8l0.2-0.2V7.4l0.2-0.2L23.3,7h-0.2l-0.4-0.6L22.5,6
	L22.2,6L22,5.8l-0.2,0.1L22,6l-0.2,0.1l-0.2,0.2h-0.2l0.1-0.2l-0.2,0.1l-0.1,0.2L21.1,6h-0.2v0.2l0.2,0.1l-0.2,0.2l-0.1,0.2l0.1,0.2
	l-0.2,0.2l-0.1-0.2h-0.2l-0.1-0.2l0.2-0.2h-0.2l-0.1,0.2L20,6.8L19.9,7l-0.1,0.2l0.4,0.1l-0.3,0.2l-0.2-0.2l-0.3,0.2l0.1,0.2
	l0.3,0.1L19.6,8h-0.2l-0.2-0.3l-0.2,0.2h-0.2L18.8,8l0.1,0.2v0.2L19,8.3l-0.2,0.2L19,8.7l-0.2,0.1l-0.2,0.2L19,9l-0.2,0.2l-0.1,0.1
	l-0.2-0.1L18.3,9l-0.2-0.2L18,9l-0.1-0.2l-0.2-0.2l-0.2,0.2l0.3,0.2l-0.1,0.1l-0.2,0.2l0.2,0.2H18L18,9.9v0.2L17.9,10h-0.2l0.1,0.2
	l-0.1,0.3v0.3L17.3,10l-0.2-0.6l-0.2-0.2L17,9l-0.1,0.2l-0.2,0.2l-0.1,0.3l-0.2,0.1v0.2h-0.2L16,10l-0.2,0.2l0.1,0.3v0.6l0.2,0.1
	v0.2l-0.2,0.2l-0.2,0.2L15.3,12v0.2L15,12.3v0.3l-0.2,0.2l-0.4,0.6l-0.7,0.5l-0.6,0.1L12.8,14h-0.4L12.1,14L11.8,14l-0.4,0.2
	l-0.1,0.2l-0.2,0.2h-0.8L10,14.7L10,14.9l-0.5,0.2H9.1l-0.2-0.1H8.7l-0.1-0.2L8.4,15l-0.2,0.3l-0.6,0.1l-0.1,0.1H7.4L7,15.9
	l-0.6,0.2l-0.7,0.2l-0.3,0.4v0.4l-0.3,0.2l-0.2-0.2L5,17.1v-0.2l0.2-0.3v-0.2l-0.4,0.3l-0.1,0.4l-0.3,0.6L4.5,18l-0.2,0.3v0.6
	l-0.5,0.6l-0.2,0.8l0.2,0.4l-0.1,0.6L4.2,22v0.3l0.2,0.2L4.2,23l0.1,0.3L4,23.4L4,23.2v-0.4l-0.2,0.2L3.7,23v-0.4L3.5,22l-0.2,0.2
	l0.1,0.6l0.3,0.3L4,23.6l-0.3,0.1l-0.3-0.4l-0.1-0.5L3.2,23L3,23.1l0.2,0.4L3.6,24l0.2,0.7L3.8,26L4,26.3L4.1,27l0.4,1l-0.2,0.3v1.4
	l-0.1,0.2l0.2,0.4v0.4l0.2,0.6v0.3l-0.2,0.2L4.6,32l-0.1,0.3l-0.1,0.6L4.2,33l0.1,0.2l-0.1,0.3L4,33.6L4,34l-0.4,0.3l-0.2-0.2
	l-0.3,0.5L3,35.3z"/>
</svg>
