<?xml version="1.0" encoding="utf-8"?>
<!-- Generator: Adobe Illustrator 19.2.0, SVG Export Plug-In . SVG Version: 6.00 Build 0)  -->
<svg version="1.1" id="Layer_1" xmlns="http://www.w3.org/2000/svg" xmlns:xlink="http://www.w3.org/1999/xlink" x="0px" y="0px"
	 viewBox="0 0 56 56" style="enable-background:new 0 0 56 56;" xml:space="preserve">
<style type="text/css">
	.st0{fill:#FDC414;}
</style>
<path id="Azerbaijan" class="st0" d="M1.7,15.2v-1.9L5.5,12l5.7,3.1h3.8l3.8,1.9l0.6-3.8L18,11.4l-2.5-1.3l1.3-3.8h3.1l4.4,3.8
	l1.3,2.5l4.4,0.6l0.6-1.9l3.1-1.3l3.1-4.4L38.7,7l3.1,3.8v1.9l1.3,2.5l3.1,2.5l0.6,1.3l1.9,1.9h2.5l2.5,1.3l1.3,1.9h-1.3l-1.3,1.3
	H50l-3.1,2.5v2.5l0.6,1.9l-0.6,1.3v1.9l0.6,1.3v1.3l-0.6,0.6v3.1l-0.6,1.3l-0.6-1.3l0.6-1.9L45,38.4L44.4,39l-0.6,1.3l0.6,2.5v1.3
	l0.6,0.6v3.8l-0.6,0.6l-1.9-0.6l-0.6-1.3L40,46.6l-3.1-3.8l3.1-1.9l-2.5-1.3l-0.6-1.3l1.3-1.3l-1.3-1.3l-0.6-1.3h-0.6V34h-1.3
	l-1.9,1.3h-1.3L30,37.2l-1.3,0.6l-1.9,2.5h-1.3l-0.6,1.3l-0.6,1.3l-1.9,0.6l-1.3-0.6l0,0v-1.3l0.6-0.6l-1.3-2.5l2.5-0.6l-2.5-1.9
	h-3.1L13,33.4l-1.3-3.1L13,29v-1.9L9.2,24v-1.9l0.6-2.5L8,17.7l-3.8-0.6L1.7,15.2L1.7,15.2z M18,44.1l-4.4-6.9l-2.5-0.6l-1.3-3.1H8
	l-1.3,1.3l-2.5-2.5L3,32.8H1.1l0.6,0.6h0.6l1.3,1.9h1.3l0.6,1.9v1.3l4.4,2.5l0.6,1.9l2.5,1.3h2.5l2.5,1.3V44.1z"/>
</svg>
