<?xml version="1.0" encoding="utf-8"?>
<!-- Generator: Adobe Illustrator 19.2.0, SVG Export Plug-In . SVG Version: 6.00 Build 0)  -->
<svg version="1.1" id="Layer_1" xmlns="http://www.w3.org/2000/svg" xmlns:xlink="http://www.w3.org/1999/xlink" x="0px" y="0px"
	 viewBox="0 0 56 56" style="enable-background:new 0 0 56 56;" xml:space="preserve">
<style type="text/css">
	.st0{fill:#FDC414;}
</style>
<polygon id="Bosnia_and_Herz." class="st0" points="28.6,49.3 29.5,46.6 19.5,35.7 7.6,24.8 7.6,23.9 8.5,22.1 6.7,20.3 5.8,17.6 
	3,14.8 1.2,14.8 1.2,13 2.1,11.2 2.1,7.6 3.9,6.6 6.6,9.4 8.5,11.2 10.3,10.3 10.3,8.4 12.1,8.4 13.9,8.4 15.7,6.6 17.6,8.4 
	19.4,6.6 21.2,7.5 23,9.3 24.8,8.4 27.6,9.3 30.3,8.4 31.2,9.3 33.9,9.3 37.6,10.2 39.4,10.2 42.1,12 45.8,12 46.7,13.8 48.5,12.9 
	50.3,12.9 49.4,16.5 46.7,21.1 46.7,22.9 51.3,26.5 53.1,26.5 54.9,28.3 54,30.1 51.3,28.3 50.4,29.2 50.4,32 53.1,36.5 52.2,37.4 
	49.5,36.5 46.8,34.7 45,35.6 45,38.4 47.7,39.3 48.6,42 46.8,42.9 44.1,42.9 43.2,45.6 43.2,49.3 41.4,52.9 40.5,53.8 36.8,49.3 
	35.9,50.2 30.4,49.3 "/>
</svg>
