<?xml version="1.0" encoding="utf-8"?>
<!-- Generator: Adobe Illustrator 19.2.0, SVG Export Plug-In . SVG Version: 6.00 Build 0)  -->
<svg version="1.1" id="Layer_1" xmlns="http://www.w3.org/2000/svg" xmlns:xlink="http://www.w3.org/1999/xlink" x="0px" y="0px"
	 viewBox="0 0 56 56" style="enable-background:new 0 0 56 56;" xml:space="preserve">
<style type="text/css">
	.st0{fill:#FDC414;}
</style>
<path id="Bangladesh" class="st0" d="M45.3,45.4v2l-1,2l-0.5-0.5l-1.5,2v1.5V53l0,0l0.5,2l0,0l-1-3l-1.5-2l-0.5-1l0.5-1v-1v0.5l-1,1
	l-0.5-0.5l0.5-2.5l-0.5-0.5l0.5-2v-1l-1-0.5l-2.5-5.6h-0.5v0.5h-0.5l-1.5,1l-3-1.5l-0.5-0.5h-1l-1.5-1.5l-0.5-2.5l0.5,2.5l1,1.5v1
	l-1.5,0.5l1,0.5l1,1.5v2l-1.5,0.5l-1.5,2.5l-1-1l0.5-1.5l0.5-0.5l0.5-0.5l-1,0.5l-1,1.5l-1-1.5l1-2.5v-0.5l-0.5-0.5l0.5,0.5l-0.5,1
	v1.5H23l1,2v1.5l-1,0.5l0,0l-1-0.5l-0.5,0.5l-0.5,1h-1l-0.5-0.5L19,43.4l-1,0.5v-2.5l-0.5-1.5v-2l-2.5-3l-0.5-2.5l0.5-1.5l-0.5-2
	v-2.5l-2-2.5l-2-1l-2-2v-3L9.8,17l0.5-2l1-0.5l1,0.5l1-1l-0.5-2l0.5-1h-2l-1.5,0.5L6.3,9.9v-2l1.5-2l0.5-2l-1-0.5v-1h0.5l0.5-1
	l0.5,1l1,1v1l1,1.5h1.5l1-0.5l-1-0.5l0.5-1h0.5l1,1l1,1l1.5,0.5V5.8h1l1,2l0.5,2v1l0.5,1.5v1l1.5,0.5H23l1.5,0.5h2h3l2.5,0.5h2.5
	h1.5l0.5,0.5h1l1.5,1.5l1,0.5l-1,1.5l-0.5,2l-1,2.5l-1,0.5v1l-0.5,1h-1l-0.5-0.5l-1.5,1l-0.5,1l-0.5,0.5v1l1,2l1,0.5l0.5,1l1,1
	l1,1.5h1v-1l-0.5-0.5l1-1v-1l0.5-0.5l-0.5-0.5l0.5-0.5l1,0.5h1.5l0.5,0.5l0.5,1l0.5,2v1.5l0.5,1l0.5,3l0.5,2l0.5,1l0.5,0.5v1
	L45.3,45.4L45.3,45.4L45.3,45.4z M34.7,38.8l-0.5-0.5l-0.5,0.5v1.5l0.5-0.5L34.7,38.8L34.7,38.8z M30.6,38.3l1,1.5v1.5l0.5,1l1-2
	l-0.5-1L30.6,38.3C30.6,37.8,30.6,38.3,30.6,38.3L30.6,38.3z M29.1,37.3l-1.5,0.5v0.5l1,2.5h1.5v-2.5L29.1,37.3z"/>
</svg>
