<?xml version="1.0" encoding="utf-8"?>
<!-- Generator: Adobe Illustrator 19.2.0, SVG Export Plug-In . SVG Version: 6.00 Build 0)  -->
<svg version="1.1" id="Layer_1" xmlns="http://www.w3.org/2000/svg" xmlns:xlink="http://www.w3.org/1999/xlink" x="0px" y="0px"
	 viewBox="0 0 56 56" style="enable-background:new 0 0 56 56;" xml:space="preserve">
<style type="text/css">
	.st0{fill:#FDC414;}
</style>
<polygon id="Belgium" class="st0" points="52.9,34.5 55.4,29.6 52.9,25.9 52.9,23.4 49.2,17.3 50.4,14.8 46.7,13.6 48,11.1 
	45.5,8.6 40.6,8.6 38.1,6.2 35.6,6.2 33.2,3.7 27,3.7 25.8,6.2 22.1,6.2 22.1,7.4 18.4,8.6 15.9,9.9 14.7,8.6 11,8.6 9.7,6.2 
	7.3,4.9 3.6,7.4 1.1,12.3 2.3,13.6 3.6,21 8.5,22.2 8.5,25.9 14.7,29.6 17.1,29.6 19.6,32.1 22.1,33.3 22.1,38.2 25.8,40.7 
	28.2,39.5 30.7,39.5 31.9,40.7 34.4,41.9 39.3,46.9 43,48.1 46.7,50.6 48,49.3 50.4,49.3 50.4,46.9 49.2,45.6 49.2,43.2 48,40.7 
	50.4,38.2 51.7,34.5 "/>
</svg>
