<?xml version="1.0" encoding="utf-8"?>
<!-- Generator: Adobe Illustrator 19.2.0, SVG Export Plug-In . SVG Version: 6.00 Build 0)  -->
<svg version="1.1" id="Layer_1" xmlns="http://www.w3.org/2000/svg" xmlns:xlink="http://www.w3.org/1999/xlink" x="0px" y="0px"
	 viewBox="0 0 56 56" style="enable-background:new 0 0 56 56;" xml:space="preserve">
<style type="text/css">
	.st0{fill:#FDC414;}
</style>
<polygon id="Burkina_Faso" class="st0" points="1.3,40.8 1.7,39 1.3,38.1 1.3,36.2 2.7,36.2 2.2,34 1.7,32.6 3.1,31.7 4.9,30.3 
	7.2,26.6 8.6,24.4 8.6,23.4 10.4,20.7 11.4,20.2 11.4,19.3 13.6,19.3 14.6,19.3 18.2,18.4 18.7,17 22.8,14.3 28.3,11.1 30.1,9.7 
	32.4,8.3 35.6,7.9 37.4,7.9 39.7,8.3 41.1,8.3 41.5,9.3 41.1,9.7 41.1,11.5 40.2,12.9 40.2,15.2 47,19.8 47,22.5 49.3,24.4 52.5,23 
	53.4,23.4 53.4,24.4 53.9,24.8 54.3,26.2 53.4,27.1 54.8,29.4 55.3,29.4 55.3,30.3 53.9,32.1 52.5,32.1 50.2,33.5 49.8,33 47.9,34 
	48.4,35.3 47,35.8 47.5,37.6 45.7,38.1 45.2,38.5 37.9,36.7 37.4,36.7 37.4,36.7 36.5,36.7 35.1,37.6 33.3,37.6 30.6,38.1 
	26.9,38.1 26.4,38.1 21,38.1 18.7,38.5 18.2,39.9 18.7,42.2 19.6,42.6 20.5,44.9 20.5,46.8 18.7,46.8 17.8,45.9 16.8,45.9 
	15.5,46.8 13.6,47.2 11.4,45.9 10.9,44.9 9.1,44 8.1,44 7.2,43.6 6.3,43.6 3.6,42.2 1.7,40.8 "/>
</svg>
