<?xml version="1.0" encoding="utf-8"?>
<!-- Generator: Adobe Illustrator 19.2.0, SVG Export Plug-In . SVG Version: 6.00 Build 0)  -->
<svg version="1.1" id="Layer_1" xmlns="http://www.w3.org/2000/svg" xmlns:xlink="http://www.w3.org/1999/xlink" x="0px" y="0px"
	 viewBox="0 0 56 56" style="enable-background:new 0 0 56 56;" xml:space="preserve">
<style type="text/css">
	.st0{fill:#FDC414;}
</style>
<polygon id="Bulgaria" class="st0" points="2.8,11.2 5.2,11.2 7,12.4 6.4,13.6 5.8,14.8 7,16.5 9.3,14.8 11.7,15.3 12.9,15.9 
	13.5,15.9 17,17.1 19.4,15.9 21.2,16.5 23,15.9 24.8,16.5 26.5,16.5 30.1,16.5 30.7,15.9 33.1,15.3 34.2,14.2 39.6,11.2 42,11.2 
	44.9,11.2 47.9,12.4 49.1,13.6 50.9,13 53.2,14.2 53.8,14.8 55.6,15.3 55.6,15.3 55.6,18.9 54.4,20.1 52.6,20.1 50.3,22.5 50.3,26 
	49.7,28.4 47.3,30.2 47.9,30.8 49.1,31.4 50.9,33.7 52.6,36.1 52.6,36.1 50.3,36.1 49.1,36.7 46.7,34.9 43.7,34.9 42.5,36.1 
	41.4,36.1 39.6,37.9 39.6,37.9 38.4,37.9 36.6,39.7 36,42 37.2,43.2 36,44.4 31.9,44.4 30.1,45 28.3,43.8 26.5,43.8 25.3,45 
	23.6,45 23.6,43.2 21.2,43.2 18.8,43.2 17,44.4 14.7,45 11.7,45 10.5,44.4 10.5,45 10.5,42.6 9.9,40.9 7.6,36.1 3.4,33.1 4,33.1 
	4.6,31.4 3.4,29.6 2.8,28.4 6.4,25.4 7,23.1 5.8,20.7 2.8,18.3 2.2,14.2 3.4,13 "/>
</svg>
