<?xml version="1.0" encoding="utf-8"?>
<!-- Generator: Adobe Illustrator 19.2.0, SVG Export Plug-In . SVG Version: 6.00 Build 0)  -->
<svg version="1.1" id="Layer_1" xmlns="http://www.w3.org/2000/svg" xmlns:xlink="http://www.w3.org/1999/xlink" x="0px" y="0px"
	 viewBox="0 0 56 56" style="enable-background:new 0 0 56 56;" xml:space="preserve">
<style type="text/css">
	.st0{fill:#FDC414;}
</style>
<polygon id="Burundi" class="st0" points="12.2,55.6 24,55.6 31.4,54.1 35.9,48.2 41.8,42.3 43.3,39.3 47.7,36.3 50.7,31.9 
	50.7,28.9 50.7,21.5 47.7,21.5 46.2,18.6 43.3,17.1 43.3,14.1 41.8,11.2 41.8,8.2 38.8,6.7 37.3,3.8 34.4,2.3 32.9,0.8 31.4,0.8 
	31.4,5.2 28.5,12.6 28.5,14.1 24,15.6 21.1,14.1 19.6,14.1 18.1,15.6 15.1,14.1 13.7,11.2 10.7,9.7 6.3,9.7 4.8,9.7 4.8,12.6 
	7.7,17.1 7.7,23 7.7,28.9 "/>
</svg>
