<?xml version="1.0" encoding="utf-8"?>
<!-- Generator: Adobe Illustrator 19.2.0, SVG Export Plug-In . SVG Version: 6.00 Build 0)  -->
<svg version="1.1" id="Layer_1" xmlns="http://www.w3.org/2000/svg" xmlns:xlink="http://www.w3.org/1999/xlink" x="0px" y="0px"
	 viewBox="0 0 56 56" style="enable-background:new 0 0 56 56;" xml:space="preserve">
<style type="text/css">
	.st0{fill:#FDC414;}
</style>
<polygon id="Benin" class="st0" points="26.8,4.5 26.8,5.5 25.3,7.6 23.7,7.6 21.1,9.2 20.6,8.7 18.5,9.7 19,11.3 17.4,11.8 
	17.9,13.9 15.8,14.4 14.8,16 15.3,18.6 17.4,19.7 18.5,20.7 19.5,21.2 21.1,25.4 21.6,29.1 21.6,31.2 22.1,32.8 22.1,34.3 
	21.6,35.4 21.1,36.9 21.1,46.9 21.6,49 21.6,51.1 22.7,53.2 22.7,54.8 25.3,55.3 31,53.2 31.6,53.2 31,51.6 31.6,47.4 31,46.4 
	31.6,44.8 31,41.7 31,40.1 31,39 31,38.5 31,38 31,36.9 30.5,35.9 31,34.3 31,33.3 31,31.7 31.6,30.7 32.6,30.1 33.7,30.1 
	34.7,29.6 35.2,28 36.3,25.9 36.8,24.9 37.8,23.9 38.9,23.9 39.4,22.8 37.8,21.2 37.8,20.2 38.4,19.1 40.5,19.1 40.5,18.1 
	39.9,15.5 39.9,13.4 37.3,11.3 37.3,10.2 37.3,8.7 37.8,8.1 35.8,6 34.2,5.5 32.6,3.4 30,1.3 28.9,2.9 29.5,4 27.9,4 "/>
</svg>
