<?xml version="1.0" encoding="utf-8"?>
<!-- Generator: Adobe Illustrator 19.2.0, SVG Export Plug-In . SVG Version: 6.00 Build 0)  -->
<svg version="1.1" id="Layer_1" xmlns="http://www.w3.org/2000/svg" xmlns:xlink="http://www.w3.org/1999/xlink" x="0px" y="0px"
	 viewBox="0 0 56 56" style="enable-background:new 0 0 56 56;" xml:space="preserve">
<style type="text/css">
	.st0{fill:#FDC414;}
</style>
<polygon id="Bolivia" class="st0" points="50.3,42.3 50.8,41.5 50.8,41 52.6,37.2 52.6,35.2 50.6,31.4 48.3,31.2 48.6,29.4 
	48.3,26.9 41.3,26.9 41.3,25.1 40,22.6 40.2,21.6 40,20.1 40.2,18.3 40,17.5 38.2,16.5 36,16.8 34.9,16.3 34.2,16 33.9,15 
	32.9,14.5 31.2,14 30.4,14 29.1,12.5 28.1,12.7 26.6,11.5 25.1,11.7 24.6,12.2 23.8,11.5 22.6,10.5 21.6,10.2 21.3,9 20.3,8.5 
	19.8,6.9 20.1,6.2 19.6,4.4 20.3,3.2 19.8,1.9 19.8,0.9 19.3,0.6 18.6,1.1 17.8,0.6 16.8,0.6 15.5,1.1 14.3,1.4 12.5,2.7 11.7,4.4 
	10.5,4.7 9.5,4.7 8.7,5.4 8.2,5.4 6.9,5.9 5.7,5.9 3.4,5.9 6.9,11.2 6.9,11.7 6.4,12.7 6.4,15.5 5.9,16.8 6.2,18 6.4,20.6 5.9,21.8 
	5.7,22.3 5.7,23.3 5.9,23.8 6.2,24.8 5.7,25.4 6.9,27.9 6.7,28.9 5.9,29.9 5.2,30.6 4.4,31.9 4.9,32.2 5.2,32.4 5.4,32.9 5.7,32.9 
	5.7,33.9 6.4,34.7 6.9,34.9 6.9,35.7 6.9,36.4 6.9,37 7.2,38.2 7.7,39.2 9.7,40.5 9.7,41.2 9.2,42.3 9.5,43.3 8.7,45.3 9.2,46 
	11.2,47.8 14,55.6 15,55.6 15.5,55.1 16,55.1 16,55.1 16.5,54.4 17.3,53.1 18.8,51.3 19.8,51.1 20.8,51.8 21.8,51.8 22.6,51.6 
	23.3,51.8 24.9,51.6 25.6,51.8 25.9,52.8 26.4,54.4 26.6,54.9 27.1,54.4 26.9,53.6 27.4,52.8 27.4,52.1 28.1,51.3 30.4,51.3 
	32.4,51.3 33.2,52.1 33.4,50.6 34.4,48.6 34.4,47.5 34.4,46.3 33.9,45.8 35.2,44 35.7,42.5 35.7,41.7 36.7,41.2 42,39.7 46.5,39.7 
	49.3,41.7 49.8,41.7 "/>
</svg>
