<?xml version="1.0" encoding="utf-8"?>
<!-- Generator: Adobe Illustrator 19.2.0, SVG Export Plug-In . SVG Version: 6.00 Build 0)  -->
<svg version="1.1" id="Layer_1" xmlns="http://www.w3.org/2000/svg" xmlns:xlink="http://www.w3.org/1999/xlink" x="0px" y="0px"
	 viewBox="0 0 56 56" style="enable-background:new 0 0 56 56;" xml:space="preserve">
<style type="text/css">
	.st0{fill:#FDC414;}
</style>
<path id="Brazil" class="st0" d="M33.1,8.3l0.1-0.2l0.2-0.1l0.1,0.1l-0.1,0.2H33.1L33.1,8.3L33.1,8.3z M32.9,8.3L32.9,8.3l0.2-0.1
	L33.3,8h0.2l0.3-0.3l-0.1-0.1h-0.1h-0.1l-0.1,0.1L33.1,8L32.9,8.3L32.9,8.3z M34.1,7.3L34.1,7.3l-0.2-0.2v0.2H34.1l0.1,0.2L34.1,7.3
	L34.1,7.3z M34.1,7L34,6.8l0.2-0.2l0.2-0.1l0.2-0.2h0.1l-0.1,0.2l-0.2,0.1l-0.2,0.2L34.1,7L34.1,7z M34.2,7.2L34.2,7.2l0.4,0.1
	l0.1,0.1l0.2-0.1l0.1-0.2L34.8,7l-0.3,0.1L34.2,7.2L34.2,7.2L34.2,7.2z M34.9,7.6L35,7.5l0.1-0.1h0.2l0.2,0.1l-0.1,0.2H35L34.9,7.6
	L34.9,7.6z M34.1,4.7l-0.2-0.2l-0.1-0.3V4.1L34,4.2l0.2,0.3L34.1,4.7C34.2,4.8,34.1,4.7,34.1,4.7L34.1,4.7z M32.9,2.1L32.9,2.1
	l-0.2-0.3l-0.2-0.3h-0.1v0.2l-0.1,0.2L32,1.9l0,0l0,0l-0.1,0.2l-0.3,0.4l-0.3,0.4v0.3L31,3.8l-0.3,0.3l-0.2,0.3h-0.3l-0.2,0.1
	l-0.1,0.3L29.8,5l-0.2-0.1V4.5l-0.1-0.1V4.4h-0.2l-0.2,0.1L29,4.6h-0.3l-0.2-0.2V4.3l-0.1-0.1l-0.1-0.3l-0.1-0.1h-0.2l-0.3-0.3h-0.3
	l-0.3,0.1h-0.6l-0.3-0.1l-0.3,0.2L26,4l0.3,0.3l0.1,0.2l0.1,0.3l-0.1,0.1h-0.3l-0.3-0.1l-0.1-0.1h-0.1l0,0l0,0h-0.4h-0.3l-0.1-0.1
	h-0.4l-0.3,0.1L24,5.1h-0.5l-0.3,0.1v0.1L23,5.5h-0.3V5.4l-0.2,0.1l-0.2,0.2l-0.2-0.1l-0.5-0.4l-0.2-0.3V4.7l-0.3-0.3L21,4.2V3.9
	l0.1-0.2L21,3.6V3.3l0.1-0.2V2.9l0.3-0.4l0.1-0.3l0.3-0.3V1.6h-0.3l-0.1-0.2l-0.1-0.2H21l-0.3-0.1L20.8,1L21,0.8V0.4l-0.3-0.3h-0.3
	l-0.2,0.1l-0.1-0.1h-0.2v0.3l-0.1,0.3l-0.7,0.5h-0.4l-0.6,0.3l-0.3-0.1h-0.3l-0.4,0.4l-0.4,0.2L16.5,2l-0.6,0.1h-0.4l-0.4-0.3
	l-0.4-0.1l-0.4-0.1L14.4,2l0.3,0.1l0.3,0.3L15,2.6l-0.3,0.6l0.2,0.3l-0.1,0.4L15.3,4l0.4-0.1L16.2,4v0.3l-0.3,0.2l-0.6,0.1L15,4.8
	l-0.1,0.3l-0.7,0.3l-0.3,0.3l-0.4,0.3l-0.3,0.3h-0.5l-0.3-0.1l-0.5-0.4l-0.5-0.3h-0.3V5.2L10.9,5l-0.3-0.3l-0.1-0.2l-0.3,0.1
	L9.9,4.9H9.7L9.6,4.7H9.3L9.1,4.9H7.6L7.5,5.3l0.1,0.3l0.5,0.2l0.2,0.3L8.1,6.3l0.2,0.2L8.2,6.8L7.9,6.6L6.9,6.9v0.8l0.3,0.3
	l0.5,0.4L8,9.1v0.4v0.2l-0.8,2.8L7,13.3v0.2l-0.1,0.2l-0.3-0.1v-0.1l-0.3-0.2H6.2H6l-0.1-0.1l-0.1,0.2l-0.9,0.3l-0.7,0.2L4,14.1
	l-0.2,0.1l-0.3,0.3l-0.3,0.2L3,14.8v0.3l-0.2,0.2l0.1,0.2l-0.3,0.3l0.1,0.4l0.1,0.3l-0.3,0.2H2.3l-0.3,0.3v0.3l-0.2,0.2l0.1,0.2
	l-0.1,0.3l-0.1,0.3l0.1,0.3l-0.1,0.2L2,18.9l0.7,1l-0.3,0.4l0.9-0.1l0.4,0.1l0.3,0.4L4,21.1h0.6l0.7,0.1l0.6-0.5l0.5-0.3l0.2,0.2
	l-0.1,0.3l-0.1,0.1v0.5l0.1,0.8v0.3l0.2,0.2l0.3-0.1l0.3-0.1h0.3h0.2l0.2,0.1l0,0l0,0h0.9h0.4l0.4-0.2h0.2l0.3-0.3h0.3l0.4-0.1
	l0.3-0.6l0.6-0.4L12,21l0.4-0.2h0.3l0.3,0.2l0.3-0.2l0.2,0.2v0.3l0.2,0.5l-0.2,0.4l0.2,0.6l-0.1,0.3l0.3,0.5l0.3,0.2l0.1,0.4
	l0.3,0.2l0.4,0.3l0.3,0.3l0.1-0.2l0.6-0.2l0.4,0.4l0.3-0.1l0.5,0.5h0.2l0.6,0.2l0.3,0.2l0.1,0.4l0.3,0.1l0.3,0.2l0.8-0.1l0.5,0.3
	l0.1,0.3l-0.1,0.6l0.1,0.5l-0.2,0.3l0.5,0.9v0.6h2.4l0.1,0.9v0.5l0.7,0.2l0.7,1.2v0.7l-0.7,1.3v0.2l-0.2,0.3l0.1,0.2l-0.1,0.3
	l0.3,0.3v0.4l0.3,0.4l-0.2,0.9l0.1,0.3l-0.1,0.3l0.1,0.3h0.5l0.2,0.1h0.6l0.4,0.2l0.6-0.3l0.3,0.3l0.3,0.1l0.1,0.3l0.3,1.5l0.3,0.5
	l0.3,0.1l0.5-0.3l0.3,0.1l0.2,0.2h0.2l-0.2,0.3v1.3L29,42.8v0.1V43v0.2v0.2l0.3-0.2l0.6,0.1v0.3l0.3,0.6v0.4l0.1,0.5l0.1,0.5
	l-0.1,0.2H30L29.6,46L29.5,46l-0.2,0.2l-0.1-0.1l-0.5,0.3l-0.1,0.2l-0.2,0.1L28,47.2l-0.2,0.1v0.3l-0.2,0.1h-0.2l-0.4,0.5L27,48.4
	v0.3l-0.2,0.1L26.7,49l-0.3,0.5l-0.2,0.2L26,50v0.1l-0.3,0.2v0.1h0.2l0.2,0.1l0.7-0.2l0.3,0.2l0.3,0.4l0.3,0.1l0.2,0.3l0.3,0.5h0.2
	l0.3-0.3h0.2l0.3,0.5l0.3,0.2l0.3,0.1l0.3,0.3V53l0.3-0.1l0.5,0.3l0.3,0.4l0.3,0.5l0.3,0.2l-0.1,0.3L31.6,55l0.1,0.4l0.1,0.1v0.1
	l0.2,0.2l0.1,0.1l0.5-0.4l0.2-0.4L33,54l0.2-0.6l0.1-0.1l-0.1-0.2L33,52.8l0.1-0.3l0.2-0.1v-0.2l0.3-0.3v-0.2l0.2,0.1h0.2l0.3-0.3
	v-0.3l0.1-0.1V51l0.1-0.1h0.2l0.1-0.3l-0.1-0.2l-0.2-0.2v-0.4l-0.1-0.1h0.2l0.2,0.3l0.3,0.3h0.1l0.2-0.1l0.1,0.1v0.3h-0.1L35,51.2
	l-0.3,0.5h-0.3v0.3l-0.1,0.2h-0.1L34,52.4l-0.2,0.2v0.2h-0.3l-0.1,0.1V53l0.3,0.1l0.9-0.7l0.4-0.5l0.6-1.1l0.3-0.5l0.3-0.7l0.6-1.2
	l0.6-0.7l0.1-0.2l-0.1-0.1v-0.2h0.1l0.1-0.3l0.2-0.1l-0.1-0.3l0.1-0.2l-0.1-0.1l-0.1-0.1V46l-0.3-0.3v-0.2l0.1-0.2l-0.1-0.2
	l-0.1-0.4L37,44.2l0.1-0.1l0.3-0.1l-0.1-0.3l-0.2-0.1l0.3-0.1v-0.3l-0.3-0.2l0.3-0.1l0.2-0.3l0.2,0.1l0.4-0.4l0.3-0.2v-0.2l0.3-0.3
	l0.4-0.3l0.5-0.6l0.5-0.1l0.3-0.3l0.3-0.3H41l0.2,0.2l0.2,0.1v-0.2l0.2-0.3l0.6-0.3l0.3-0.1v-0.1l-0.2-0.1h-0.2L42,39.4l0.2-0.1
	l0.3-0.2l0.2,0.1h0.3l0.2-0.2h0.3v0.1L43,39.3l-0.3,0.1l-0.1,0.1l0.1,0.1l0.5-0.2l0.6-0.3L43.7,39l0.2-0.2H44L43.9,39v0.3l0.4,0.1
	l0.3-0.1H45l0.4,0.1l0.3-0.2V39l-0.1-0.1v-0.2l0.6-0.4l0.5-0.2l0.3-0.2l0.1-0.2l-0.1-0.1l-0.3-0.5l0.2-0.3l0.2-0.3v-0.3l0.1-0.1
	l0.3-0.2l0.1-0.3h-0.1l0.3-0.6l0.5-0.6v-0.3l-0.1-0.9l-0.1-0.2l0.2-0.5l0.2-0.2v-0.2l0.4-0.3l0.1-0.2l-0.1-0.5l0.2-0.6l-0.1-0.4
	l0.1-0.3v-0.2l0.1-0.5l-0.2-1.8v-0.3L49,27v-0.3l-0.1,0.1l-0.2-0.2v-0.2l0.2-0.3l-0.1-0.3l0.1-0.2l0.2-0.1v-0.3l-0.2-0.3l-0.3-0.2
	h0.1l0.1-0.1l0.1,0.2l0.2,0.1l0.2,0.1l0.1-0.3h0.2l0.1,0.2l0.2,0.1l-0.2,0.2l-0.2,0.2l-0.1,0.2h0.2l0.3-0.3L50,25l0.4-0.7l0.2-0.5
	l0.1-0.3l0.2-0.2l0.2-0.4l0.2-0.4l0.7-0.5l0.1-0.3l0.2-0.1l0.2-0.3l0.6-0.5l0.5-0.7l0.2-0.2l0.3-0.7l0.1-0.3l0.2-0.3v-0.3l-0.2-0.3
	l0.1-0.3l0.2-0.2v-0.7L54.2,17l-0.1-0.3l-0.4-1v-0.3l-0.1-0.4l-0.9-0.4h-0.5l-0.3,0.2l-0.3-0.3l-0.3-0.1l-0.3-0.3l-0.4-0.2h-0.3
	L49.8,13l-0.5-0.7L49,12.3l-0.3-0.3h-0.3l-0.9-0.6h-0.3l-0.4-0.2l-0.3,0.2h-0.4l-0.3-0.1l-0.3,0.1l-0.1,0.2l-0.2-0.2L45,11.1
	l-0.1,0.1L44.7,11l-0.1,0.2v0.2l-0.2-0.2V11l-0.2-0.1l0.1,0.2l-0.1,0.1L43.9,11h-0.2l-0.3-0.1l-0.8-0.3h-0.3v0.1l0.1,0.2l-0.1,0.1
	l-0.2-0.1h-0.1L42,10.9L41.7,11l-0.1,0.2v0.3l-0.2-0.3l-0.1-0.2l-0.2,0.1v0.3l-0.3,0.4v0.3l-0.1-0.3l0.1-0.3l-0.1-0.3l0.2-0.4
	l0.1-0.1L41,10.6h-0.2l0.3-0.3l-0.3-0.4l-0.2-0.3h-0.2l-0.3-0.1l-0.2,0.3l-0.2,0.1l-0.1-0.2l-0.1-0.1l0.8-0.1l-0.2-0.1H40l-0.1-0.2
	L39.7,9l-0.1,0.2V9.1L39.5,9l-0.1-0.2l-0.2,0.1l-0.3-0.1l-0.4-0.3h-0.1l-0.1,0.1L38,8.5h-0.2v0.2h-0.1l-0.1-0.2h-0.3l-0.3,0.2
	l-0.2,0.3v0.2l-0.3,0.3l-0.3,0.3l-0.5,0.3l-0.3,0.3l-0.2,0.3l-0.1,0.3L35.2,11l-0.3,0.3v0.2l0.1,0.3l-0.1,0.5l-0.1-0.3l-0.2-0.3
	v-0.3l0.2-0.3l0.3-0.2v-0.3l0.1-0.3V10H35L34.7,10L34.3,10H34L33.7,10l-0.2-0.2h0.2L34,9.7l0.3-0.1l0.4,0.1l0.3-0.1l0.2-0.3h0.1
	l0.1,0.1l0.2-0.1l0.3-0.2L36.1,9V8.7l0.3-0.4V8l0.2-0.2V7.6l-0.3-0.1l-0.3-0.3h-0.3l-0.4,0.3H35l-0.4-0.2h-0.5l-0.3,0.4v0.2L33.8,8
	l0.1,0.2h-0.2l-0.1,0.1l-0.1,0.3l-0.1-0.2l-0.1-0.1l-0.3,0.1l-0.3,0.4l-0.4,0.5l0.3-0.4V8.6l0.1-0.2V8.2h-0.2l-0.3,0.3l-0.2,0.3
	L32,9.2l-0.3,0.2l0.2-0.4V8.6L32.5,8l0.1-0.4l0.2-0.3L33,7.1l0.3-0.2l0.2-0.1l0.3-0.3l0.6-0.6V5.7l0.1-0.1l-0.2-0.2l0.1-0.2l0.1-0.1
	V5l-0.3-0.2h-0.3l-0.1,0.1l-0.1-0.2l-0.2-0.5l-0.3-0.8L32.9,3l-0.2-0.5V2.2L32.9,2.1z"/>
</svg>
