<?xml version="1.0" encoding="utf-8"?>
<!-- Generator: Adobe Illustrator 19.2.0, SVG Export Plug-In . SVG Version: 6.00 Build 0)  -->
<svg version="1.1" id="Layer_1" xmlns="http://www.w3.org/2000/svg" xmlns:xlink="http://www.w3.org/1999/xlink" x="0px" y="0px"
	 viewBox="0 0 56 56" style="enable-background:new 0 0 56 56;" xml:space="preserve">
<style type="text/css">
	.st0{fill:#FDC414;}
</style>
<path id="The_Bahamas" class="st0" d="M47.5,49.8l1,0.5v-1.5L47.5,49.8L47.5,49.8z M42.3,55.5l4.1-0.5l1.5-2.1v-1.5l-0.5,0.5l-1,1
	l-1.5-1l-2.1,1L42.3,55.5L42.3,55.5z M47,42.1l1.5-0.5l2.6,1.5v0.5l-1.5-0.5H48L47,42.1L47,42.1z M42.3,37.9l-1.5,0.5V40l-1.5,2.1
	h-1v1h1l3.6-2.1V39L42.3,37.9L42.3,37.9z M37.7,36.4l2.1,1V39h-1l-1-1V36.4L37.7,36.4z M31.5,30.2l1.5,2.6l0.5,2.1l1.5,2.6h-1
	l-1.5-1.5L31,33.8l1-0.5l-1-2.1L31.5,30.2L31.5,30.2z M25.8,29.7l-0.5,1.5h1L25.8,29.7L25.8,29.7z M38.2,26l-1,1.5l1,0.5l0.5-1.5
	L38.2,26L38.2,26z M29.4,21.9l-0.5,1l1,1.5l0.5,2.1l-0.5,0.5l0.5,1h2.1v-1l-1-2.1L31,23.5L29.4,21.9L29.4,21.9z M22.7,14.7l2.1,1
	l1.5,2.1l-0.5,2.6l-1,0.5l-0.5-1l1-0.5l0.5-1l-1-1.5l-2.1-0.5V14.7L22.7,14.7z M14.4,0.7h2.1l2.6,1.5l0.5,1.5l1,0.5v2.1l-1.5,1V9
	l-1.5,1.5L18.1,8l-0.5-1.5l1-1l-2.1-2.6L16,1.2L14.4,0.7L14.4,0.7z M4.6,2.3h2.1l1,0.5l2.1-1.5h2.6l1.5,1.5h-1l-1.5-0.5L8.2,4.3
	L6.7,3.8L4.6,2.3L4.6,2.3z M14.4,17.8l2.1-1l2.1,0.5l-0.5,1H16L14.4,17.8L14.4,17.8z M12.4,25.5l-0.5-1l1.5-0.5L12.4,25.5L12.4,25.5
	z M10.8,26l0.5-0.5v1L10.8,26L10.8,26z M11.3,23.5l2.1-1l-1.5-2.6l-0.5-2.1l-1-0.5l-0.5,2.1l-1,2.1l1,1l1.5-0.5L11.3,23.5L11.3,23.5
	z M13.4,26l-2.1,1v1.5l1,2.1l1.5-0.5l0.5-1.5l-0.5-1v-1L13.4,26z"/>
</svg>
