<?xml version="1.0" encoding="utf-8"?>
<!-- Generator: Adobe Illustrator 19.2.0, SVG Export Plug-In . SVG Version: 6.00 Build 0)  -->
<svg version="1.1" id="Layer_1" xmlns="http://www.w3.org/2000/svg" xmlns:xlink="http://www.w3.org/1999/xlink" x="0px" y="0px"
	 viewBox="0 0 56 56" style="enable-background:new 0 0 56 56;" xml:space="preserve">
<style type="text/css">
	.st0{fill:#FDC414;}
</style>
<polygon id="Bhutan" class="st0" points="3.8,27 7.1,24.8 11.4,17.1 19.1,12.7 24.6,11.6 26.8,14.9 34.4,14.9 37.7,17.1 42.1,14.9 
	46.5,14.9 49.8,19.3 50.9,19.3 49.8,22.6 49.8,27 55.3,29.2 55.3,33.5 55.3,36.8 48.7,39 43.2,37.9 37.7,40.1 33.4,39 30.1,39 
	26.8,43.4 22.4,43.4 13.6,37.9 11.4,40.1 4.9,39 1.6,33.5 3.8,30.3 "/>
</svg>
