<?xml version="1.0" encoding="utf-8"?>
<!-- Generator: Adobe Illustrator 19.2.0, SVG Export Plug-In . SVG Version: 6.00 Build 0)  -->
<svg version="1.1" id="Layer_1" xmlns="http://www.w3.org/2000/svg" xmlns:xlink="http://www.w3.org/1999/xlink" x="0px" y="0px"
	 viewBox="0 0 56 56" style="enable-background:new 0 0 56 56;" xml:space="preserve">
<style type="text/css">
	.st0{fill:#FDC414;}
</style>
<polygon id="Botswana" class="st0" points="32.3,0.7 32.3,1.4 32.3,1.7 32.3,2.1 32.3,2.8 33,3.5 33.7,3.9 34.5,4.3 34.8,5 
	34.8,5.3 35.2,5.7 35.9,6.8 35.9,7.5 36.6,8.2 36.6,8.9 37.3,9.7 37.7,9.7 38.1,10.4 39.9,12.9 40.9,13.3 41.7,14 42.4,14.7 
	43.1,15.1 43.1,15.4 43.1,15.8 43.5,16.5 44.2,16.9 45.3,17.2 44.9,18 45.3,19.4 45.3,20.5 45.6,21.2 46.7,21.9 47.1,23 48.5,23.4 
	49.2,23 50.7,23.4 51.4,23.7 52.5,24.1 53.2,24.4 53.6,24.8 53.6,25.2 54.3,25.9 54.6,26.2 53.9,26.6 53.2,27 52.5,27 51.8,27.3 
	51.8,28.1 51.8,28.8 50.7,29.1 50,29.9 49.2,29.9 48.5,29.9 48.2,29.9 47.1,29.9 46,30.9 45.3,31.7 44.6,32 44.2,32.4 43.5,32.7 
	43.1,33.1 42.4,33.5 41.7,33.8 40.2,36 39.9,37.1 40.2,37.8 40.2,38.5 39.5,38.9 39.1,39.2 38.4,39.2 37.7,39.9 37.3,40.7 37,41 
	36.6,41.4 35.9,41.8 35.2,42.1 34.1,42.5 33.4,43.2 33.7,44.6 33,45.4 33,46.1 32.7,47.2 33,47.5 31.9,48.2 31.2,47.9 30.5,47.5 
	29.8,47.5 28.3,47.5 27.2,47.9 26.2,47.5 25.4,47.9 23.3,46.4 22.6,46.4 22.2,45.7 20,45.4 18.6,45.7 17.2,47.2 16.4,49.3 
	15.4,50.4 13.5,51.1 13.2,51.8 12.1,52.6 10.7,52.9 9.9,53.6 8.5,53.3 7.8,53.6 6,53.3 4.5,53.6 4.5,52.6 5.6,50.8 5.6,49.3 
	4.2,46.1 3.5,44.6 1.7,43.2 1.7,43.2 1.7,43.2 1.7,42.8 2.7,25.2 7.4,25.2 8.5,4.6 12.8,5 18.2,3.5 20,3.2 20.8,3.2 21.1,2.8 
	21.5,3.2 21.5,3.9 22.2,4.3 21.8,4.6 21.5,5.7 22.2,5.7 24,4.3 25.1,2.8 26.2,1.7 27.2,1.7 27.6,2.1 28.3,2.1 29.1,1.7 30.9,1 
	31.9,0.7 31.9,0.7 "/>
</svg>
