<?xml version="1.0" encoding="utf-8"?>
<!-- Generator: Adobe Illustrator 19.2.0, SVG Export Plug-In . SVG Version: 6.00 Build 0)  -->
<svg version="1.1" id="Layer_1" xmlns="http://www.w3.org/2000/svg" xmlns:xlink="http://www.w3.org/1999/xlink" x="0px" y="0px"
	 viewBox="0 0 56 56" style="enable-background:new 0 0 56 56;" xml:space="preserve">
<style type="text/css">
	.st0{fill:#FDC414;}
</style>
<polygon id="Belarus" class="st0" points="0.6,29.1 2.2,28.3 4.3,27.5 6,28.3 7.6,27.5 8.9,27.5 8,25.4 10.1,25.4 10.9,23.7 
	11.8,23.3 12.2,24.1 13.8,24.1 13.8,22.5 12.2,21.7 12.6,20 13.4,19.6 14.7,17.5 16.7,16.3 16.7,15 15.9,14.6 17.1,12.5 19.2,11.7 
	22.1,11.3 22.5,9.6 23.4,9.2 24.2,8 25.4,7.6 26.7,8 28.3,7.2 29.6,9.2 31.2,8.8 32.5,8.8 33.7,10.9 35.4,9.6 37,9.2 37.9,10.1 
	39.1,10.1 41.6,10.9 42,12.5 41.6,14.2 42.8,15.4 42.8,17.5 44.1,19.2 44.9,20.8 46.6,23.3 48.2,24.1 48.6,26.2 50.7,27 53.2,29.1 
	53.2,30.4 55.3,31.6 54.4,32 53.2,34.1 49.5,34.9 48.2,33.3 47.8,34.5 47.8,36.2 49,38.2 49,39.9 50.3,41.6 50.3,43.2 50.3,43.2 
	47.4,44 45.3,44 44.5,46.5 44.5,48.6 42.8,49 42,48.2 39.9,48.6 39.1,47.8 37.4,47.8 36.2,49.4 35.4,49 35,47.8 33.3,47.4 
	31.2,48.6 30.4,48.2 28.3,48.2 27.9,48.6 27.1,48.6 25.8,47.8 23.8,48.6 23.4,47.8 21.7,46.9 18,46.5 16.3,45.7 15.5,45.7 
	14.2,46.5 12.2,46.9 7.6,47.4 6.4,48.2 4.3,46.9 3.5,46.9 3.5,46.5 2.2,44.5 1.4,42.4 2.6,40.7 3.9,40.3 3.9,36.2 3.1,35.8 
	2.6,34.1 1.8,32.9 1,29.5 "/>
</svg>
