<?xml version="1.0" encoding="utf-8"?>
<!-- Generator: Adobe Illustrator 19.2.0, SVG Export Plug-In . SVG Version: 6.00 Build 0)  -->
<svg version="1.1" id="Layer_1" xmlns="http://www.w3.org/2000/svg" xmlns:xlink="http://www.w3.org/1999/xlink" x="0px" y="0px"
	 viewBox="0 0 56 56" style="enable-background:new 0 0 56 56;" xml:space="preserve">
<style type="text/css">
	.st0{fill:#FDC414;}
</style>
<polygon id="Belize" class="st0" points="16.4,14.7 16.4,14.7 16.4,12 19.1,10.7 21.8,10.7 21.8,12 23.2,12 23.2,12 25.9,10.7 
	25.9,10.7 28.6,6.6 28.6,3.9 30,1.2 32.7,1.2 34.1,1.2 35.4,2.5 36.8,1.2 40.9,1.2 40.9,2.5 39.5,5.2 39.5,16.1 36.8,20.2 
	36.8,25.6 38.1,28.3 38.1,35.1 36.8,40.5 30,50.1 27.3,47.3 24.6,51.4 21.8,55.5 21.8,55.5 20.5,55.5 19.1,54.1 15.1,54.1 "/>
</svg>
