<?xml version="1.0" encoding="utf-8"?>
<!-- Generator: Adobe Illustrator 19.2.0, SVG Export Plug-In . SVG Version: 6.00 Build 0)  -->
<svg version="1.1" id="Layer_1" xmlns="http://www.w3.org/2000/svg" xmlns:xlink="http://www.w3.org/1999/xlink" x="0px" y="0px"
	 viewBox="0 0 56 56" style="enable-background:new 0 0 56 56;" xml:space="preserve">
<style type="text/css">
	.st0{fill:#FDC414;}
</style>
<path id="Canada" class="st0" d="M40.4,11.7L40.4,11.7l0.2-0.2l0.2-0.2l0.1-0.3l0.1,0l0,0.1l0,0.2v0.1l0.1,0l0.1-0.1l0.1-0.1V11
	l-0.1,0v-0.1l0.1,0v-0.2l0-0.1v-0.1l0.2-0.1l0-0.2l0.1,0l0-0.1v0.1l0,0.1l-0.1,0l-0.1,0.2l-0.1,0.2l0,0.2l0,0.1l0,0.2l0.1-0.1
	l0.1-0.2l0.2-0.2l0.1-0.2v-0.2l0.1-0.1l0.1,0v0.1l0,0v0.2l0.1,0l0.1-0.2h0.1l0.2,0l0.2-0.1h0.1l0.1-0.1l0.1,0l0-0.1V9.8l0-0.1
	L43,9.6l0-0.2V9.2h0l-0.1,0.2l-0.2,0.2h-0.1V9.4l0.1-0.1l0.1-0.1V9.2L42.7,9l0-0.1h-0.1l-0.1,0l0,0.1l-0.1,0h-0.1l-0.1,0.1h-0.1l0,0
	L42.4,9l0.1,0l0.2-0.2l0.1,0l0.1-0.2L43,8.2l0,0l-0.1,0l-0.1,0l0-0.1l0-0.1l0.1,0H43L43,8V7.8l0.1-0.1V7.5l0,0V7.4l-0.1,0l-0.1,0
	l-0.1,0.3l0,0.1l0.1,0.1L42.7,8l-0.1,0l0,0V8l0,0V7.8l0.1-0.2l0-0.1l0-0.1l0,0l0.1,0l0-0.2l-0.1-0.1h-0.1l-0.1,0l-0.1,0.1l0-0.1l0,0
	V6.9l-0.1-0.2l0-0.3V6.3l0.1-0.2V5.9V5.8l0.1-0.2V5.4l-0.1-0.1l0-0.1L42,5l0-0.1l-0.2-0.1l0,0V5l0,0l-0.2-0.2l-0.1,0V5l-0.1,0.2
	l0.1,0.1h0.1l0.1,0l0.2,0.1l0,0.1H42v0.1l-0.2,0.2h-0.1l-0.1-0.1h-0.1l-0.1,0l0.1,0.1h0.1l-0.1,0.1l-0.1,0l-0.2-0.2L41,5.6l0,0.2
	l-0.1,0.1V6L41,6l0,0.2l0.2,0.1v0.1h-0.1l0,0.1l0.1,0.1v0.1h-0.1L41,6.5h-0.1l-0.1-0.1h-0.1l-0.1,0.1v0.1l0.1,0.1l0,0.1l0,0V6.7
	l-0.1-0.1l-0.1,0h0l-0.1-0.1h-0.1l0,0.1l0.1,0.2l0,0.1l0,0.2l0.1,0.1l0.2,0l0,0.1h0h-0.2l0.2,0.1l0,0.1l0.1,0.1h0.2l0.1-0.1h0.1v0.1
	l-0.1,0.1l0,0.2h-0.1l-0.2-0.1l-0.4-0.1L40,7.4l-0.1,0l0-0.1h0l0,0.1v0l0,0.1l0,0.2l-0.1,0l-0.1,0v0.2l-0.1,0v0.3l0.1,0.1h0.2l0.1,0
	l0.1,0v0l-0.1,0l-0.1,0h-0.2l-0.1,0h-0.1l-0.2,0.2v0.1l0.1,0.1v0.1l-0.1,0v0.1L39.4,9l0.1,0h0.2l0.1-0.1l0,0.1V9h-0.1l-0.1,0.1l0,0
	h0.1l0.1-0.1h0.1L40,9v0.1L40,9.2l0.1,0h0.2l0,0.1h-0.1v0.1h0.1l0.1,0l0.2,0.1l0.3,0.1l0,0h-0.2h-0.1l-0.2-0.1l-0.2,0v0.1l0.2,0.1
	l0.2,0h0.2l0.1,0l-0.3,0l-0.1-0.2l-0.2,0h-0.2L40,9.5l-0.1,0l-0.2-0.2l-0.1,0l-0.1,0.1h-0.2l-0.1,0.1l0,0.2l0.2,0.1V10l0,0l-0.1-0.2
	h-0.1l-0.1,0.3v0.2l0.1,0l0,0h0.1l0.1,0.2l0.1,0l-0.1,0l-0.1,0l-0.1-0.1l-0.2,0v0.2l0,0.1l0.1,0l0,0.1v0.3l0.1-0.1l0.1,0v0.2l0.2,0
	l0.2,0.2l0.1,0l0-0.1l0-0.1H40l0,0.1l0,0.1l0,0.1l0,0l0.1-0.3V11l0-0.2l0.2-0.2l0-0.1v0.2L40.3,11l0,0.2l0,0.1l0,0.2l0,0.1v0.1
	L40.4,11.7L40.4,11.7z M40.7,6.1L40.7,6.1l0.1,0l0,0h0.1v0.1h-0.1l0,0L40.7,6.1L40.7,6.1L40.7,6.1z M40.7,11.6l0-0.1l0.1-0.1v-0.1
	l0.1,0l0,0l0,0.1v0.1L40.7,11.6L40.7,11.6L40.7,11.6z M42.1,10.4l0.2-0.2h0.1l0.1-0.1l0.1,0l0.1,0.1l0,0.1h-0.2l-0.1,0.1l-0.2,0
	L42.1,10.4L42.1,10.4L42.1,10.4z M51.6,2.9l0-0.1h0.1l0.1,0.1H51.6L51.6,2.9L51.6,2.9z M47,11.9L47,11.9V12h0.1v-0.1L47,11.9
	L47,11.9L47,11.9z M44.7,13.3L44.7,13.3l0.2,0.1L44.7,13.3L44.7,13.3L44.7,13.3z M41.5,13.2l0-0.2V13h0.1l0,0.1L41.5,13.2L41.5,13.2
	L41.5,13.2L41.5,13.2z M40.6,15.2L40.6,15.2l0-0.2l0-0.2l0,0l0,0l0,0.2l0,0.2l0.1,0.2l0,0.1h0l-0.1,0h-0.2v-0.1h0l-0.2-0.1h-0.1l0,0
	l0,0h-0.1V15l0.1-0.1h0l0.1-0.1v-0.1l-0.1-0.2l-0.1-0.1v0.1l0,0v0.1l0,0.1h-0.1l0,0v0v0.1L39.5,15h-0.1l-0.1-0.1v-0.1l0-0.1l0.1-0.2
	l0,0v-0.1l0,0l0,0.1l0,0.1v0v0.1h-0.1L39,14.7h-0.1l0,0l0-0.1v-0.2l0,0v-0.1l0.1-0.2l-0.1,0l-0.1,0l0,0.2v0.2l-0.1,0.1l0,0l0.1-0.1
	v0h0l-0.1,0.2h-0.2l0-0.1v-0.2l0-0.1l0-0.1l0.1-0.1l0-0.1v-0.1l0-0.1l0.1-0.1l0.1,0l0.1,0h0.2l0.1-0.1l0.1,0l0.1,0v-0.1l0,0h0.1
	l0.2,0.1h0.2l0.1,0l0.1,0l0,0.1h0.1v-0.1h0.1l0.1,0.1l0,0h0.1l0,0l0,0l-0.1,0l-0.1-0.1h-0.1v0l0.1,0v-0.1l0.1,0l0,0h0.1l0,0l-0.1,0
	l0,0h-0.1L40.4,13l0-0.1l0.1-0.1v-0.1h0l0-0.1v-0.2l0,0l0-0.1v-0.1h0.1l0.1,0h0.1h0.1l0.1,0h0.1l0.1,0.2l0,0.2V13l0,0.2l0,0l0.1,0
	l0.2,0.1l0.1,0.2l0.1,0v-0.1H42l0.2,0.2l0,0l-0.1-0.1l0.1-0.1l0.2-0.1l0.1-0.2l0.2-0.2l0.2-0.2v-0.1l0.1-0.1H43l-0.1,0.1v0.1
	l-0.2,0.2l-0.1,0.1v0l-0.2,0.2l-0.2,0.1l0,0H42v0h-0.2l-0.2-0.1v-0.1l0.1-0.1l0.1-0.1v-0.1L41.8,13l0,0.1h-0.1l-0.1-0.2v0h0.1l0.1,0
	v0h-0.1v0l0.1,0l0.1,0h0.1v-0.1h-0.1l-0.1,0l0,0.1h-0.1l0-0.1l0-0.1l0.1,0l0.1,0h0.1l0.1,0l0.1,0h-0.2l0-0.1l0.1-0.1h0.1l0,0h0v-0.1
	l0.1-0.1h0.1l0-0.1l0.2-0.2l0.1-0.1l0-0.1h-0.1l-0.2,0.2L42.2,12L42,12.1l-0.2,0.2l-0.1,0h-0.2v-0.1l0.1-0.1l0.1,0v-0.1L41.5,12
	h-0.2v0.1l-0.1,0.1h-0.2L40.9,12l0.1-0.1h0.1l0-0.1H41l0-0.1l0.2-0.1v-0.1l0.1,0l0.1-0.1h0.1v-0.2l0.1-0.2l0.2-0.2l0.1,0l0.2,0
	l0.2,0l0.1,0h0.1l0.1-0.1h0.1v0l0.2,0.2H43l0.3,0.2l0,0.1l0.1,0.1h0.1l0.2,0.2v-0.2h0.1l0-0.1h-0.2l0,0v-0.1l0.1,0h0.3l0.1,0.1l0,0
	V11l0.1-0.1v-0.1l-0.1,0v0.1L43.9,11l-0.1,0.1L43.6,11h-0.2l-0.1-0.1l-0.1,0l-0.2,0l-0.2-0.3v-0.2l0.1-0.1l0.1,0.1l0,0.1l0,0.1
	l0.1-0.2l0-0.2l-0.1,0l0,0v-0.1l0.1-0.2V9.9l0.1-0.2l0-0.3l0-0.2l-0.1,0l0-0.1l0-0.1l0.1,0l0.1,0l0.1,0.1l0.1,0l0.1,0.1h0V9
	l-0.1-0.2l-0.1,0l-0.1-0.1V8.6l0-0.2L43.8,8L44,8l0.1,0l0,0.1l0.2,0.1h0.1l0.3,0.2v0.1l0.2,0.2L44.9,9v0.2l0,0.2l0.1,0.1l0-0.1h0
	l0.1,0.1l0,0.1l0-0.1l0.1,0h0.1l-0.1-0.1l-0.2,0l-0.1-0.1l-0.1,0V9.3l0.1-0.1V9.1V8.6l0-0.1l0-0.2h0.2l0.1,0l0.2,0h0.2l0.2,0.1h0.2
	l0.2-0.1h0.1l0.1,0.1l0.2,0l0.1,0.1l0.1,0V8.5l-0.1-0.1H47l-0.2,0l0-0.1v0h0.1L47,8.2l0.4,0l0.3,0L48,8.2l0.2,0.1l0.1,0l0.2,0
	l-0.1-0.1h-0.1l-0.1,0V8L48.1,8h-0.2l-0.1,0l-0.3,0v0l0.1,0l0.1-0.2h0.2l0.1-0.1L48,7.4l0.3-0.2h0.2l0.3-0.2V7l-0.4,0.2l-0.2,0
	l-0.3,0.2v0.1h-0.1l0-0.1h0l-0.1,0.1h-0.1l-0.2,0.2h0.1l0,0L47.2,8l-0.1,0l-0.4,0.2l-0.1,0l-0.1,0h-0.4L45.9,8l-0.2,0h-0.1V8
	l0.2-0.2H46l0.1,0l0.2,0l0.1-0.1h-0.1l-0.2,0h-0.2l-0.2,0.1l-0.1,0V7.5L46,7.5h-0.1l-0.2,0v0.2l-0.2,0.2h-0.2l-0.3-0.1h-0.2
	l-0.1-0.1V7.6h-0.2l-0.1-0.1V7.4l0.1-0.1l0.1-0.2l0.2-0.1l0.1-0.2L45,6.8l0.1-0.1l0.1,0h0.2l0.1,0h0.1l0.2,0.1h0.2l0.1,0l0.2,0l0,0
	l-0.1,0h-0.2l-0.3,0l-0.2-0.1h-0.2l-0.2,0l-0.3,0h-0.1l-0.1,0.1l-0.1,0.2L44.5,7l-0.2,0.1l-0.2,0.2l0,0l-0.1,0l-0.2-0.2l-0.1,0
	L43.6,7l0-0.2V6.7l-0.1-0.1V6.4l0,0l0.1,0l0.1,0l0.1,0h0.4l0.2,0.1h0.1l0.1,0h0.1l0.2-0.1l0.2,0l0,0l0.1,0l0.1,0l0.2,0l0.2,0l0-0.1
	V6.2l-0.1,0l-0.1,0l-0.1,0l-0.2,0h-0.2L45,6.5h-0.1l-0.2,0l-0.1,0h-0.1l-0.2-0.1h-0.1l0,0h-0.2l-0.2-0.1l-0.2,0.1l-0.1-0.1l0-0.1
	l0-0.1V5.8l0.1-0.1h0.1l0.1,0.1h0.2l0.1,0L44,5.8h-0.1l-0.1-0.1l0,0H44l0.2-0.1h0.2l0.1-0.1h0.1l0.1,0l0.1,0V5.3l-0.1,0l-0.3,0h-0.2
	l-0.2,0.1h-0.1l-0.1,0.1h-0.1V5.4l0-0.1l0.2-0.1L44.1,5h0.2l0.1,0h-0.1l0,0l0-0.2l0,0l0,0.1l-0.1,0l0-0.1h-0.1l0,0.1h-0.1v0.1l0,0.1
	l-0.2,0V5.1V5h0l0-0.1l0,0l0.1,0V4.7l0.1,0h0.2l0-0.1l0.2-0.1h0.1l0.2-0.1h0.3l0.1,0l0.1,0v0.1l0,0.1v0.3l0.1,0L45,4.6l0.1-0.1l0,0
	l0,0v0.1l0.1,0V4.5l0,0V4.4l0-0.2h0.1l0.2-0.2h0.1v0.1v0.2l0.1,0.1l0,0.2l0,0.1l0,0.1v0.1l0.1,0.1l0,0l0-0.1V4.6l0.1,0L46,4.4h0.1
	l0.1,0.2v0.2l0,0.1l0.1,0.1l0,0.1l0-0.1V4.8h0.1l0.1,0l0,0.1l0,0V5l0,0.1l0.1-0.1h0V5L46.7,5V4.8l-0.1-0.2h0l-0.1-0.1V4.4l-0.1-0.1
	l0-0.1l-0.1-0.1l0-0.2h0.1l0.1,0.1l0.1,0l0.1,0l0-0.1V3.7l-0.1-0.1l0-0.1l0.2,0l0,0l0.2,0l0.1,0.1v0.1l-0.1,0.1l0,0.1L47.5,4v0.1
	l0,0.2l0,0.3l0.1,0l0.1-0.2h0v0.1l0,0.1l0.1,0l0-0.1l0.1,0l0-0.1L48,4l0.1-0.1h0.1l0,0l0.2,0V3.9l-0.2-0.2l0-0.2l0-0.1l0-0.1h0.1
	l0.2,0.1l0,0.2l0,0.1V4l0,0.1l0,0.2l0,0.1l0,0V4.2l0-0.1V3.9l-0.1-0.2l0-0.2V3.3l0-0.1h0.1l0.1,0.1H49l0,0v0.2l0.1,0.1l0,0.2l0,0.2
	l0,0V3.9l0-0.1h0l0.2,0.2l0,0l0.1,0v0l-0.1,0l-0.1-0.1l0,0V3.7l-0.2-0.1l0-0.1l0,0h0.2l-0.1,0h-0.1l-0.1-0.1l0.1,0h0.1l0.1-0.1
	l0.3,0l0,0.1v0.1l-0.1,0.1l0,0h0.1L50,3.4l0,0l0,0.1l0,0.2l0.1,0h0.1l0,0l0.2-0.2l0,0v0.2l0,0.1l0,0.2l-0.1,0.1l0,0l0.1,0l0.1,0l0,0
	V3.9l0.1-0.2l-0.1-0.3l0-0.2l0.1,0l0.1,0.1h0.1l0.1,0l0.2-0.1l0.2,0l0,0.1l0.2,0l0.2,0l0.2,0.1l0,0.1l0,0.1v0.2L51.9,4l0,0.1l0.1,0
	l0.1-0.2l0.2-0.1l0.1-0.1h0.1l0.2,0.1h0.2v0.1l-0.1,0.1l0.1,0.1l0,0l0-0.1L53,3.8l0.1,0l0.2,0.1l0.2,0l0.1,0.1L53.6,4h-0.1l0,0.1
	l-0.1,0.1l0.1,0.1l0.1-0.1l0.1,0l0,0.1l0.1,0l0.1-0.1l0.2,0v0.1L54,4.3l0,0.1l0.1,0l0,0l0.1-0.1h0l0,0.1l0.2,0.1h0.1l0,0l-0.1,0.1
	l-0.2,0.1l-0.1,0.2l-0.2,0L54,5h-0.1l-0.1,0l0,0.1l-0.2,0h0.3l0.2,0l0.1,0h0.1L54.4,5l0,0h0.1l0.1-0.1l0.2-0.1h0.2l0,0.1L54.9,5
	l0,0.1l0,0l0.1-0.1l0.1-0.1l0,0L55.1,5v0.1l-0.1,0.1l0,0.1l0.1,0l0.1-0.1V5l0.2,0l0.1,0l-0.1,0.3l-0.1,0l0,0l0,0.1l0,0.2l-0.1,0.1
	l0,0.1L55.1,6l0,0l0.1,0l0.1-0.1h0.1l0,0h0.1l0.2,0.1l0.1,0.2v0.2l0,0.3l-0.2,0.3L55.3,7l0,0l-0.1,0l-0.1,0v0.1L55,7.2l-0.4,0.2
	l-0.2,0.1l-0.1,0l-0.2,0.1H54l-0.1-0.1l0,0.1l-0.1,0l-0.2-0.1l-0.2-0.1l-0.2,0v0.1l0.2,0l0.1,0l-0.1,0l-0.2,0h-0.1l-0.1-0.1h-0.2
	l-0.1-0.1l-0.1,0h-0.1l-0.2-0.2l-0.1-0.1l0,0.2l0.1,0.1l0,0.1h-0.1l-0.2-0.1l0.1,0.1l0.4,0.1l0.2,0L53,7.7l-0.1,0.1l-0.6,0.2l-0.4,0
	h-0.2l-0.2,0l-0.2,0l0-0.1l-0.1,0l-0.1,0l-0.1,0L51,8.2h0.1l0,0.1l0.2-0.1h0.4l0.2,0l0.5,0l0.3,0L52.9,8H53l0.1,0l0.2,0h0.2
	l-0.1,0.2l-0.1,0.2l-0.2,0.1l-0.1,0l-0.2,0l-0.1,0.1h-0.1l-0.2,0.1l-0.2,0.1h-0.1l-0.1,0l-0.1,0L51.8,9l-0.2,0l-0.1,0.1l-0.2,0
	l-0.1,0.1l-0.1,0l-0.1,0.1h-0.1l0,0v0.1l-0.1,0.1l-0.1,0.1h-0.3l-0.1,0.1l-0.1,0l0-0.1l0-0.1V9.4L50,9.3l0,0.2L50,9.6l0,0.1l0.2,0.1
	l0,0.1L50,9.9h0l-0.1-0.1l-0.1,0l-0.2-0.1l-0.1,0h-0.1V9.7l0,0l0,0.1h-0.1l0,0.1l0.2,0h0.3l0.1,0.1l0,0.1l-0.1,0.1l-0.2,0l-0.2,0
	l0,0l0,0l0,0l0.1,0v0.1l-0.2,0.2h-0.2h-0.3l0-0.1h-0.1l0-0.1v-0.2l-0.2,0l0,0V10l-0.1-0.1l-0.1,0l-0.1,0l-0.2,0v0.1l0.1,0l0,0h0.1
	l0.3,0.3v0.4l0,0h-0.1l-0.1-0.1h-0.1v0.1l0,0l-0.1-0.1h-0.1l-0.1,0.1h0l0-0.1l-0.1,0l-0.1-0.1l-0.1,0l0-0.1l-0.1,0H47l-0.1-0.1l0,0
	v0.1l0.1,0.1l0.2,0l0.2,0.2l0,0.1L47,10.7l-0.1-0.1v-0.1l-0.1-0.1l0,0.1l0,0l0,0.1l-0.1,0l-0.1-0.1l-0.1,0v0.1l0.2,0.1v0.1h0.1l0,0
	h0.1l0.1,0.1l0.1,0l0.1,0.1h0.1l0.1,0l0.4,0.1l0.1,0.1l-0.1,0.1l0,0.1v0.1l0,0.1l-0.1,0.1h0l-0.1-0.1l-0.2,0l-0.2-0.1l0-0.1l0-0.2
	L47.1,11h-0.2l-0.3,0l-0.1-0.1h-0.1l0,0l0.2,0.1l0.2,0l0.3,0.1v0.1h0l-0.1-0.1h-0.2l-0.2,0v-0.1l-0.1-0.1l-0.2,0l-0.1,0l0,0.1
	l0.2,0.1l0,0v0.1h0.1h0l0,0l0.1,0l0,0l0.1,0h0.1l0.1,0l0.2,0.2v0.1H47l-0.1,0l0,0.1l0.1,0H47l0.1,0l0.1,0.1l0.1,0.1V12l-0.2,0.2
	l0,0.2h0L47,12.5l-0.1,0h-0.1l-0.1,0v-0.1l-0.1,0h-0.2v0l0.1,0v0.1l0.1,0l0.2,0.1l0,0.2l0,0.1l-0.1,0l-0.6-0.1h-0.1l-0.2-0.2l-0.1,0
	l-0.1-0.1h-0.1l-0.1,0l0,0.1l0.4,0.2H46V13l-0.1,0l-0.1,0.1l-0.1,0l-0.1-0.1h-0.1l-0.1,0.1h-0.2l-0.1-0.1l-0.2,0l-0.2,0l0,0.2
	l-0.1,0.1h0.1l0,0v0.1l-0.2,0.1v0.1l-0.2,0.1l0,0l0,0l0,0.1l-0.1,0l-0.1,0l0-0.1H44L43.9,14l-0.1,0.2l-0.1,0l-0.3-0.2h-0.2l0,0
	l-0.2,0l-0.3-0.3l0-0.3l0.1,0l0-0.1l0-0.1v-0.1l-0.1,0.1v0.1l0,0.2l0,0.1l0.1,0.1l0,0.1h-0.1l-0.2,0h0h-0.1l0.1,0.1l-0.1,0.2h0.1
	l0.2-0.2h0.1l0,0l0.1,0L43,14l0.1,0.2l0,0.1l0.2-0.1l0.2,0l0.2,0.1l0,0.1l-0.1,0.1l-0.1,0.2h-0.1l0,0.1l0,0h0.1v0.1l-0.1,0.1h0.1
	l0-0.1l0.2-0.1h0.1l0,0l0.1,0l0,0.1l0,0.1l0,0.2l-0.1,0.2h-0.1l-0.1,0.1l-0.1,0.1l-0.1,0.1l0,0l0-0.2v-0.2l0,0l-0.1,0l-0.1,0.2
	l-0.1,0l-0.2,0.2l0,0h-0.1l-0.2,0.2l0,0l-0.1,0h-0.1l0-0.1l0,0l0.1-0.1l0.1-0.1v-0.1l-0.1-0.2l-0.1,0.1l-0.2-0.1l0-0.1l0.1-0.2
	l0.1,0l-0.1,0l-0.1,0l-0.1-0.2l0-0.1v-0.1l0-0.1v0.1l-0.1,0.2l0.1,0.2v0.1L41.8,15v0.1l-0.1,0l-0.1,0l-0.1,0l-0.1-0.1V15l0.1-0.2
	l0-0.1l0-0.1l0.1-0.1l-0.1,0l-0.1,0.1l0,0.2l0,0.1L41.3,15l-0.1,0L41.1,15v-0.1l0,0v-0.1l0-0.1l0-0.1l0-0.1h0l0,0l0,0.1l-0.1,0.1
	v0.1l0,0h-0.1l0,0L40.6,15.2L40.6,15.2z M44.1,34l0,0.2l0,0.1l0,0.1l0,0v-0.1l0-0.2L44.1,34L44.1,34L44.1,34z M43.9,33.3L43.9,33.3
	L43.9,33.3L43.9,33.3L43.9,33.3L43.9,33.3L43.9,33.3z M43.7,32.9l0.1-0.1l0.1,0v0.1L43.7,32.9L43.7,32.9L43.7,32.9L43.7,32.9z
	 M42.8,23.4L42.8,23.4l0-0.1L42.8,23.4L42.8,23.4L42.8,23.4z M42.9,23.5L42.9,23.5l0-0.2l0.1,0l0,0.1L42.9,23.5L42.9,23.5L42.9,23.5
	z M42.7,23.8L42.7,23.8v-0.1v-0.1l0,0l0,0.1h0l0.1,0l-0.1,0.1L42.7,23.8L42.7,23.8L42.7,23.8z M44.6,26.7L44.6,26.7l0.2,0L44.6,26.7
	L44.6,26.7L44.6,26.7L44.6,26.7z M44.4,26.6L44.4,26.6l0.1-0.1l0,0l0,0l-0.1,0.1H44.4L44.4,26.6L44.4,26.6z M44,27.9L44,27.9h0.2
	l0,0L44,27.9L44,27.9z M44.5,28.5l0.1,0.1l0,0l0-0.1L44.5,28.5C44.6,28.5,44.5,28.5,44.5,28.5L44.5,28.5z M45.5,29.5l0-0.2l0.1-0.1
	l0.1,0.1v0.1L45.5,29.5L45.5,29.5L45.5,29.5z M46,30.1V30l0.1,0l0,0l0,0L46,30.1L46,30.1C46.1,30.1,46,30.1,46,30.1L46,30.1z
	 M42.5,16.5v-0.2l0.1,0l0.1-0.1L43,16l0.1,0L43,16.1l-0.2,0.2l0,0.1l0,0.1v0.1h-0.1l0-0.1l0,0l0,0.1L42.5,16.5L42.5,16.5z M41.9,16
	L41.9,16L42,16l0-0.1l0,0L41.9,16L41.9,16z M38.5,14.4l-0.2,0v-0.1V14l0-0.1v-0.1l0,0l0.1,0l0.2,0.1l0,0.2l-0.1,0.2l0,0.1V14.4
	L38.5,14.4L38.5,14.4L38.5,14.4z M38.4,7.4l0.1-0.1l0.1-0.2V7l0.2-0.1l0.1-0.2l0-0.1h-0.2l-0.1,0l0-0.1h0l-0.2,0.1l-0.2,0l0,0.1
	l-0.1,0.1v0.1l0.2,0l0.1,0V7l-0.1,0.1v0.1l0,0L38.4,7.4L38.4,7.4z M36.8,11.2v-0.1l0.1-0.1l-0.1-0.1v-0.2l-0.1-0.1l0-0.1l0-0.1h0.2
	l0.1,0.1h0v-0.1l-0.1-0.2l-0.1-0.1l0-0.1h0.1L36.8,10l0.1-0.1V9.7L37,9.5h0.1l0.1,0V9.3l0.1-0.1l0.2-0.1h0.1l0.2,0.2l0,0.2v0.1
	l0,0.1l0.1,0v0.1l0.1,0v0.1l0,0.2h0.1v0l0,0.1l0,0.2L38,10.5l-0.1,0.1h-0.1l-0.1,0l0,0h0.1l0,0.2l0,0.1l-0.2,0.2l-0.1,0.1h-0.1v-0.1
	l0,0l-0.2,0.1l-0.1,0l-0.2,0H37v-0.2h-0.1L36.8,11.2L36.8,11.2L36.8,11.2z M38.2,11L38.2,11L38.2,11l0-0.3h-0.1l0,0.1L38.2,11
	L38.2,11L38.2,11z M38.7,12.9V13l0.1,0.1h0.1l0.1,0l0.1-0.2v-0.1l0,0v0L39,12.6H39l-0.1-0.1h-0.1l-0.1,0.1v0.1L38.7,12.9L38.7,12.9
	L38.7,12.9z M38.6,13L38.6,13v0.2l0.1,0l0,0v-0.1L38.6,13L38.6,13L38.6,13L38.6,13z M36.7,12v-0.2l0.1-0.2l0.1-0.1H37h0.1l0.1,0h0.1
	h0.1v0.1h0.1l0,0l0.1,0h0.1l0.1,0.2l0.1,0l0,0l0,0h0.1l0.1,0l0.1,0.1l0.1,0.1v0.1l0,0l0,0l-0.1,0l-0.2,0.2l-0.1,0l-0.2-0.1h-0.2
	l-0.2-0.1h-0.2l-0.1-0.1L36.9,12L36.7,12L36.7,12L36.7,12z M35.1,9.9L35.1,9.9l0.1-0.1l0,0l0,0.1L35.1,9.9L35.1,9.9L35.1,9.9z
	 M35.2,10.6l0.1,0.2l0.1,0.1h0.1h0.1l0.1,0h0.1l0.2-0.1v-0.1l0.1-0.1l0.1-0.1v-0.2l0-0.2l0.1-0.2l-0.1,0V9.9l0.1-0.1l0.1-0.2h0.1
	l0.1-0.1l0.2-0.1l0-0.2V9.3l0.1-0.1V9.1l0-0.1l0-0.2h-0.1l-0.1,0h-0.1l0-0.1l0-0.1l0.2-0.1V8.4l-0.1-0.1V8.2l0-0.1L36.5,8h-0.1
	L36.2,8l-0.2,0l0,0.1l-0.1,0.1h-0.1l0-0.1L35.9,8L36,8V7.8l0-0.2l0-0.1l-0.1-0.1l0-0.1l-0.2-0.1l-0.1,0l-0.2,0l-0.2,0.1l-0.1,0V7.1
	l0,0L35,7.1l0,0.1l-0.1,0.1l0,0.1l-0.1,0.2v0.1l0.1,0.1l0,0l0.2,0l0,0l-0.2,0.1l-0.2,0.1l-0.1,0.2l0,0l0.2-0.1L35,7.9h0l0.1,0
	L35.2,8l0,0.1H35l-0.2,0.1l0,0.1l0,0.1l0.2,0l0.1,0L35,8.5l-0.2,0.1l-0.1,0v0.1l0.1,0v0.1l-0.2,0.2h0l-0.1-0.2l-0.1,0l-0.1-0.2
	l-0.2,0.1v0.1L34,8.9l0.1,0.2v0.1l0.1,0l0.1-0.1h0.1l0.2,0.1h0.2l0,0l0.2,0v0.1l-0.1,0l0,0.1v0.1l0.2,0l0.1,0.1l0.1,0.2h0.1l0,0
	l0,0.1v0.2L35.2,10.6L35.2,10.6z M34.5,9.7l0-0.1l0.2-0.1h0.1l-0.1,0l0,0.1L34.5,9.7L34.5,9.7L34.5,9.7z M34.3,10.4l0-0.1l0.2,0
	l0.2,0l0.2,0.2v0.1v0.2h-0.1l-0.1-0.1l-0.1,0h-0.1l-0.1-0.2l-0.2-0.1L34.3,10.4L34.3,10.4z M32.7,11.5L32.7,11.5l0.3-0.1l0,0.1H32.7
	L32.7,11.5L32.7,11.5z M32.6,11.3l-0.1-0.2l0-0.1l0-0.2v-0.1l0.1-0.1v-0.1l0,0v-0.1l0.1-0.2v-0.1l0.1,0l0.1,0.1l0,0.2l0,0.1L33,10.7
	v0.1l-0.1,0.1L33,11l-0.1,0.3l-0.2,0.1L32.6,11.3L32.6,11.3z M31.2,8.4l-0.1-0.1l0-0.1l0.1-0.1L31.1,8h-0.1l-0.1,0l-0.1,0h-0.1
	l-0.1,0V7.9l0.1-0.1l0-0.1h0.1h0.1l0.4-0.1l0.1,0l0.1,0.1h0.1h0.2L32,7.6h0.2h0.1l0.1,0l0.1,0v0.1l0.1,0.2v0.1l-0.1,0.2l0.1,0.2
	l-0.1,0.2l-0.2,0.1l-0.1,0.1l-0.1,0h-0.1l0-0.1l-0.1,0l-0.2-0.2V8.3l-0.1-0.2l0,0v0.1L31.2,8.4L31.2,8.4z M29.4,9.4l0.1-0.1V9.2
	L29.7,9V8.9l0.2,0l0.1-0.1H30l0.3-0.1l0.1,0h0.1l0.1,0h0.1l0.1,0l0.2,0v0h0.2l0.2,0l0,0l0.2,0l0,0l-0.1,0.2l-0.1,0l-0.3,0.1h-0.1
	l-0.2,0.2v0.1h0.1l0,0l0,0.1l-0.2,0.2l0,0.1l-0.1,0v0.1l-0.1,0.1h-0.1l-0.1,0.1h-0.2l-0.1-0.1l-0.1,0l-0.1,0h-0.1l0,0l0.1-0.1
	l-0.1-0.2l-0.1-0.1h-0.1l0-0.2L29.4,9.4L29.4,9.4z M29.2,8.9L29.2,8.9h0.2l0.1-0.1V8.6l0-0.1V8.5l0-0.2l-0.1,0h-0.1l-0.1,0l-0.1,0.1
	h-0.1l0,0.1v0.2l0,0.1L29.2,8.9L29.2,8.9z M40,18.3l0.1,0l0.1,0l0,0.1h0.1l0,0h0.1l0.2-0.2h0.1l0.2,0.1h0.1l0.1,0l0.1-0.1v-0.1
	l0.1-0.2h0.1V18l-0.1-0.1v-0.2l0.1,0.1v0.1l0.1,0.2l0-0.1h0.1h0.1l0,0l0-0.1l0-0.1v-0.1l-0.1,0l-0.1,0h-0.2l0-0.1l0,0l0.1,0l0.1,0
	l0.1-0.1l0.1,0.1h0.1l0.1-0.1v-0.1l0.1-0.1l0-0.1h0.1v0L42,17l-0.1,0l0-0.1l0.1,0v-0.1l-0.1-0.1h-0.2l0-0.1v-0.1l0.1,0l0-0.1
	l-0.2-0.2h-0.1l-0.1,0h-0.2l-0.2,0l-0.2-0.2l0-0.1h-0.2l-0.1,0.1h-0.1l-0.1,0H40l0,0.1l-0.1-0.1l-0.1-0.1l-0.1,0l-0.2,0v0.1l0,0
	v-0.1l0,0l-0.1,0l-0.3,0l0,0l0.1,0.1v0.1l0.1,0.1l-0.1,0l0-0.1l-0.1,0l-0.2,0l-0.1,0l0.1,0v-0.1l-0.1-0.2V16l0-0.1L38.5,16l0,0.1
	l0,0.1l-0.1,0l0-0.1V16l-0.1,0l-0.1,0h-0.1l0-0.1v0v-0.1l-0.1,0l-0.1,0.2V16h-0.1l0-0.1l0-0.1v-0.1l0.1-0.2l-0.1-0.1l-0.2,0v-0.1
	l0.1,0l0.1-0.2v-0.1l-0.1,0l-0.1,0l0,0h-0.1l0.1,0v0h-0.1l-0.1,0.1l-0.2,0v-0.1l0.1,0l0-0.1l0-0.1h0.1l0.1,0.1h0.2V15l-0.1-0.1h-0.1
	l0.1,0l-0.2-0.2l-0.1-0.1h0.1v-0.1h0.1l0,0.1l0.1,0.1l0.2,0l0.1,0.1l0.1-0.1l0.1,0.1l0.2,0h0.1l0-0.1l0-0.2l-0.2-0.2l-0.1-0.1H38
	l0-0.1l-0.1-0.1h0l0-0.1l0-0.1l0.1,0l0.1,0.1H38l0,0.1h0.1l0-0.1l0-0.2L38,13.7h-0.1l0,0h-0.1l-0.2,0.1h-0.1l-0.1-0.1h-0.1l-0.1-0.1
	L37,13.8l-0.2,0.1l0,0.1l-0.1,0v-0.1l0.1-0.1l0.1,0l0.2-0.2l0-0.1l0-0.1V13l0,0l-0.1-0.1l0,0.1h-0.1l-0.1-0.1v-0.1v-0.1l-0.2-0.1
	l-0.1-0.1h-0.1l-0.1-0.1l0,0l-0.2,0l0,0h-0.1l0,0.1l0.1,0.1l0,0.1h-0.1l-0.2-0.2l0,0.1l0,0.1l0.1,0l0.1,0.2h0.1L36,13.2h-0.1l0,0.1
	l0.2,0.2l0.1,0v0.1l0,0h-0.2v0.1l-0.1,0l0,0.1l0.2-0.1l0.1,0.1l0.2-0.1v0.1l0.1,0V14l0.2,0.1h0.1V14l0,0l0.1-0.1h0.1l0,0.1l0,0.1
	v0.2l0,0.2v0.1l0.1,0.1l0,0.2v0.1l0,0.2l-0.2,0.1l-0.2,0l0,0.1l-0.1,0.2v0.1l-0.1,0.1L36.1,16v0.1l0.1,0v0.1l-0.1,0l0,0.1l0,0
	L36,16.5l0,0.1l0,0.1l0.1,0v0.1l0.1,0.1h0.1v-0.1l0-0.1l0,0h0l0.1-0.2l0,0l-0.1,0.2l-0.1,0v0l0,0V17l0.1,0.2l0.1,0l0,0h0.2l0.1-0.1
	l0.2,0v-0.2h0.1l0,0l0,0.1l0,0v0.1l0.1,0l0.1-0.2l0.1,0l0,0l0,0.1l-0.2,0.2l-0.1,0.1v0.1l0.1,0l0.1,0.1h0.1l0,0h0.1l0-0.1h0.1l0,0
	v0.1l0.1,0l0.1,0.1l0.1,0l0-0.1v-0.1l0.1-0.1l0,0.1l0,0.1l0,0.1h0.1l0-0.1l0-0.1h0.1v0.1l0,0v0.1h0.2l0.1-0.1l0.1-0.2v0.1l0,0.1v0.1
	l0.2,0l0-0.2l0-0.1l0,0.2l0,0.1H39l0.2,0.1l0.1,0l0.1,0l0,0.1l0.2,0l0.1,0v-0.1l0.1-0.1l0-0.1l0-0.1l0-0.1h0v0.2h0.1v0.1l-0.1,0.1
	l-0.1,0.2L40,18.3L40,18.3z M35.6,12.5L35.6,12.5L35.6,12.5v-0.1V12.5L35.6,12.5L35.6,12.5z M35.4,13.3L35.4,13.3l0.1-0.2v0.1
	L35.4,13.3L35.4,13.3L35.4,13.3z M32.3,14.4L32.3,14.4L32.3,14.4L32.3,14.4L32.3,14.4L32.3,14.4z M34.3,12.5L34.3,12.5l0.1,0.2
	l0,0.1l0.1,0l0-0.1L34.3,12.5L34.3,12.5L34.3,12.5z M33.4,12.5L33.4,12.5l0,0.1l0.1,0l0.1,0l0.1,0l0.2-0.1H34l0.1,0l0,0l-0.2,0
	l-0.1,0c0,0-0.1,0.1-0.1,0.1l-0.1,0L33.4,12.5L33.4,12.5L33.4,12.5z M32.4,12.9L32.4,12.9l-0.2-0.1l-0.1,0l0-0.2l0.1-0.1v-0.1l0-0.1
	v-0.1l0.1,0h0.2l0,0l0,0l0,0l-0.1,0l0,0.1h0h0.1v0l0,0.1l0,0.1v0.1L32.4,12.9L32.4,12.9L32.4,12.9z M32.2,13.3l0.2,0l0.1-0.1
	l0.1-0.2L32.5,13h-0.1l-0.2-0.1h-0.2l-0.1,0h-0.1l-0.1,0l-0.1,0V13l0,0h0l0,0.1l0.1,0l0.1,0L32.2,13.3L32.2,13.3z M31.8,13.5
	l0.3,0.1l0.1,0h0.1l0,0l0.1,0h0.1v-0.1l-0.1,0l-0.3,0l-0.1,0l0,0L31.8,13.5L31.8,13.5L31.8,13.5L31.8,13.5z M31.7,13.8L31.7,13.8
	l0.2,0l0.2-0.1l0.2,0h0.1l0.1,0h0.1l0,0.1l-0.1,0.1h-0.1h-0.2l0,0.1l-0.1,0.1L32,13.9h-0.1L31.7,13.8L31.7,13.8L31.7,13.8L31.7,13.8
	z M28.7,10L28.7,10V9.9h0.2l0,0.1L28.7,10L28.7,10z M27.9,10.4L27.9,10.4l0.2-0.1l0.2,0.1h0.1l0.1,0v0.1l0,0.1l-0.1,0.1l-0.1,0
	l-0.1,0H28l0-0.1L27.9,10.4L27.9,10.4C27.9,10.4,27.9,10.4,27.9,10.4L27.9,10.4z M23.4,10.6l-0.1,0l0,0l0,0L23.4,10.6L23.4,10.6
	L23.4,10.6L23.4,10.6z M23.9,11.3l0.1-0.1v0L23.9,11.3C23.9,11.3,23.9,11.3,23.9,11.3L23.9,11.3z M24.1,11.1L24.1,11.1l0-0.2h0
	l0-0.2h0.1l0.2-0.1l0.1,0v0.1l-0.1,0.1L24.4,11l0,0.1l-0.1,0.1l0,0.1l0,0.1l0.1-0.1h0.1v0.1h0l0.2-0.1l0.1-0.1h0.1L25,11v-0.1H25
	l0.1-0.1v-0.2l0,0l0,0l0,0.1l0,0.1l0,0.2l0,0.1h0l0.1-0.1v-0.1l0-0.1l0.1,0l0.1-0.2l0-0.1l0-0.1l0-0.1l0.1,0.1l0.2-0.1l0.1-0.2V9.9
	h0.1l0.1,0l0.1,0.1l0.1-0.1l0,0l0,0.2l-0.2,0.2l0,0.1l-0.1,0.1v0.1l-0.1,0l-0.1,0.2v0.1l0,0.1l0,0.1l0.1,0l0.1,0l0.1-0.1l0.1-0.1
	l0-0.1v-0.1l0.1-0.1l0.1-0.1h0.1l0,0l0.1,0.1h0.1l0.1-0.1h0.2l0.1-0.1l0-0.2l0.1-0.2V9.9v0l0.1,0.2l0.1,0l0,0V10l-0.1-0.2V9.7
	l0.1-0.1h0.1l0.1-0.1l0.1,0H28l0.1-0.1l0-0.1l0-0.2l0-0.1l0,0l0-0.2l-0.1,0l-0.1,0l-0.2,0.1V9v0.1l0,0.1l-0.1,0l0-0.1h0v0.1l0,0
	l-0.1-0.1l0-0.2l-0.1-0.1h-0.1l0,0H27l-0.1,0h-0.1l-0.3,0l-0.2,0.1l0,0.1l-0.1,0.1l0,0h-0.1l-0.3,0.2l-0.1,0.1h-0.1l-0.2,0.1l-0.1,0
	l-0.1,0.1v0.1H25l0,0l-0.1,0l-0.1,0h-0.1l-0.2,0.2L24.4,10l-0.2,0l-0.1,0l-0.3,0l-0.1,0.2h-0.1l-0.2,0l-0.1,0.1h0.1l0,0h-0.1l0,0
	l0.1,0.1l0,0.1l-0.2,0.1v0l0.1,0l0.1,0l0-0.1l0.1,0l0.1,0.1l0.1,0.2v0.1L24.1,11.1L24.1,11.1z M36.2,18.2L36.2,18.2h0.2l0,0l-0.1,0
	L36.2,18.2L36.2,18.2L36.2,18.2z M34.8,15.4l-0.1-0.1h-0.1l0,0.1h0.1H34.8L34.8,15.4l-0.2,0.1l0,0l0,0.1h0v0l-0.2,0l-0.2,0l-0.1,0.1
	l0,0.1l0,0l0,0h0l0,0.1v0.1h0l0.1-0.1h0l0,0.1v0l0.1,0l0,0l0,0v0.1h0l0-0.1h0.1v0.2l0,0.1l0.1,0l0,0.1h0.1l0.2,0.1h0.1l0,0l0,0
	l0-0.1l0.1,0l0.1-0.2l0-0.1l0.1-0.2l0,0l0.1-0.2v-0.2l0,0l0-0.1l-0.1-0.1v-0.1l0-0.1l0-0.1l-0.2-0.1l-0.1,0l-0.1,0h-0.2l0,0l0.1,0.1
	L34.8,15.4L34.8,15.4L34.8,15.4z M35.6,14.4L35.6,14.4L35.6,14.4L35.6,14.4C35.7,14.3,35.6,14.4,35.6,14.4L35.6,14.4z M35.5,15.1
	L35.5,15.1l-0.1-0.1v0l0,0v-0.1l0,0h0.2L35.5,15.1L35.5,15.1C35.5,15,35.5,15.1,35.5,15.1L35.5,15.1z M34.6,14.8L34.6,14.8v-0.1
	l0.1,0v0L34.6,14.8L34.6,14.8L34.6,14.8L34.6,14.8z M34.4,14.9L34.4,14.9L34.4,14.9L34.4,14.9L34.4,14.9L34.4,14.9L34.4,14.9z
	 M34.5,15.2L34.5,15.2l0-0.1V15h0l0.1,0l0,0.1L34.5,15.2L34.5,15.2L34.5,15.2z M34.3,15.3L34.3,15.3l-0.1-0.2l0,0l0,0h0.1l0.1,0l0,0
	l0,0v0.1L34.3,15.3L34.3,15.3L34.3,15.3L34.3,15.3z M34,15.4L34,15.4l0-0.1L34,15.4L34,15.4L34,15.4L34,15.4z M32.6,15.6L32.6,15.6
	l-0.2-0.1l-0.1-0.1v-0.1l0,0v-0.1l0-0.1h0l0,0.1h0L32.5,15l0-0.1l-0.1,0l-0.1-0.1v-0.1v0h0l0.1,0.1l0,0v0l0.1,0l0.1,0l0.2,0l0,0
	l-0.1,0h-0.1h0.1l0.2,0l0.1-0.1h0.2h0.1l0.1-0.1l-0.1,0l-0.5-0.1h-0.1l-0.1,0l-0.2,0l-0.1-0.1h-0.1l-0.1,0h-0.1l0,0l-0.1,0H32l0,0
	V14H32l0.1-0.1l0.1,0l0.1,0l0-0.1l0-0.1l0.1,0h0.1l0,0v0.1l0.1,0V14l0,0l0-0.1v-0.1l-0.1-0.1l0-0.1l0.1,0v-0.1l-0.1,0l0-0.2l0.1,0
	l0-0.1l0.1,0l-0.1-0.1h-0.1l-0.1,0V13l0.1-0.1l0,0l0.1,0l0,0V13l0,0v0.1l0,0l0,0.1l0.1,0.1l0,0.4l0,0.1v0.1l0.1,0.1l0.1-0.1l0-0.1
	l0-0.2l0.1,0v-0.1l-0.2-0.1l0,0h0.1l0.1,0.1l0-0.1l-0.1-0.1l0-0.2l0-0.1v-0.2l0.1,0h0.1l0-0.1h0.1l0.1-0.1h0.1l0,0.1l0.1,0l0.1,0
	l0,0.1l0,0.2L34.1,13v0.1h0.1l0-0.1h0l0.1-0.1v-0.2l0.1-0.1l0.1,0.1l0.1,0v-0.1l0,0h0.1l0,0.1l0,0.1l0,0l0,0h-0.1l0,0.1l0.1,0l0,0.1
	l0,0.1l-0.1,0.1l-0.1,0.2v0.1l0,0.1l-0.1,0.1l-0.1,0.2l0,0.1L34,14.1v0.1l0,0.1h-0.1h-0.1l-0.1,0v0l0.2,0.1v0.1l-0.2,0.2l0,0.1v-0.1
	v-0.1l-0.1,0l-0.1,0v0.1l-0.1,0l-0.1,0.1l-0.1,0l0,0.1l0.1,0h0.1v0.1l0,0.1v0v0.1l0,0l-0.1-0.1v-0.1l0-0.1l0,0.1v0.1l0,0.1l-0.1,0.1
	h-0.3v-0.1l0,0L32.6,15.6L32.6,15.6l-0.1-0.2l0.1-0.1l-0.2,0.1l0,0.1L32.6,15.6L32.6,15.6z M24.4,12.1L24.4,12.1l0-0.2l0.2-0.2
	l0.2,0l0.1-0.1H25l0.2-0.1l0.2,0l0.1,0h0.1l0.2,0h0l0,0.1l-0.2,0.2l-0.2,0.1L25,12l-0.1,0.2l-0.1,0h-0.1l0,0.1h0l0-0.1l-0.1,0
	L24.4,12.1L24.4,12.1z M30.5,14.7L30.5,14.7L30.5,14.7l0.1-0.1l0-0.1v0l0.2-0.1l0,0h0.1v0.1l0,0.1v0.2l0,0.1l-0.1,0.1h-0.1l0,0h-0.1
	l0-0.1L30.5,14.7L30.5,14.7z M25.6,14.5l0-0.1v-0.1v-0.2l0.2,0l0.2,0l0.1-0.1l0.2,0h0.1l0.2-0.1h0.2l0.2,0.1h0.2l0.1,0l0.1-0.1h0.3
	l0-0.1l0.1-0.1l0-0.1l-0.1,0.1h-0.2v-0.1l-0.2,0.1h-0.2v-0.1L27,13.7l-0.1,0.1h-0.1l-0.1,0l-0.1,0l-0.1,0l-0.2,0v-0.1l0.1-0.1
	l0.2-0.1h-0.1l-0.1,0l-0.1,0.1l-0.1-0.1l0,0v0.1l-0.2,0.1l0,0.1l-0.1,0l-0.2-0.1v-0.1l0.1-0.1h-0.1l0,0v0.2l-0.1,0.1l-0.1,0v-0.2
	l-0.1-0.1l0-0.1l-0.1,0v0.1h-0.1l-0.1-0.2l-0.2-0.1v0H25V13l0-0.1l0.2-0.2l0.1,0l0.1,0h0.2l0.2,0.1H26l0.1-0.1h0.2l0.2-0.1l-0.1-0.1
	l-0.1,0h-0.3l-0.1,0l-0.2-0.1h-0.1l0,0l0.2-0.2l0.2-0.2h0.1l0.1,0l0.2,0l0.3,0l0.2,0l0.1,0l0-0.1h-0.1l-0.1-0.1h-0.2L26.1,12
	L26,11.9l0.2-0.1l0.1-0.1l0.1-0.1h0.1l0.2-0.1h0.1l0,0.1h0.1l0.1,0.1l0.1,0l0-0.1l-0.1-0.1v-0.1l0,0l0.1-0.1l0.3-0.1l0.1,0h0.2
	l0.1,0.1l0,0.2l-0.1,0l-0.1,0.2l0,0.1h0.2l0.1,0l0.1,0h0.1l0,0.1v0.1l0.1,0.1v0.1l-0.1,0l0,0.1l0.1,0.2v0.2l0,0.1l-0.1,0l-0.1,0
	l0,0.1l0.1,0l0.2,0h0.1l-0.1,0.2l-0.1,0.1v0.2l0.1,0l0.2,0l0.1-0.1l0,0l0,0.1h0.2h0.1l0.2,0l0.1,0.2l0.1,0v-0.1l0,0l0.2-0.1l0-0.2
	l-0.1-0.1v-0.1L29.2,13l0-0.1h0.1l0.2-0.1h0.1l0.1-0.2l-0.1-0.2l0-0.1v-0.2l0-0.2l0.1-0.2l0.1-0.1l0.1,0h0.1l-0.4-0.2l0-0.1l0.2,0
	l0.3-0.3h0.1l0.2,0.1l0,0.1l0,0.1l0,0.1h-0.1l-0.1,0.1v0.1l0,0.1V12l0,0v0.3l0,0h0l-0.2,0.2l-0.1,0.1v0h0.1l0.1,0h0.2l0,0.1
	l-0.1,0.2L29.9,13l-0.2,0.2l0,0.1l0,0.1l0-0.1l0.2-0.1l0.1-0.1l0.1,0l0.2,0.1v0.2l-0.1,0.2l0,0.1l0.1-0.1h0.1l0-0.1l0,0l0.1-0.1V13
	l0.2-0.2h0.1L31,13l0.1,0.2l0,0.1l0,0.2l-0.2,0.3l-0.2,0.1l-0.1,0h-0.1l0,0V14l-0.1,0.2h-0.1l-0.1,0.1v0.1l0,0.1h-0.1l0,0v0.1l0,0
	l-0.1-0.1l-0.1,0h-0.1l-0.2,0.1l-0.2,0l-0.2-0.1l0-0.1l0.1-0.1v-0.1h0L29,14.5l0,0.1l-0.1,0l-0.2,0v-0.1l0-0.1l0-0.1l-0.1,0v0.1
	l-0.1,0h-0.2l-0.2,0.1l0,0H28l0,0h-0.2l-0.1,0l0,0.1h-0.1l-0.1,0v0.1l-0.1,0h-0.2l0,0.1l-0.1,0l0,0l-0.1,0h-0.2l0-0.1h-0.2l-0.2,0
	h-0.2L26,14.7l-0.2,0l-0.1-0.1L25.6,14.5L25.6,14.5z M18.1,18.5v-0.2l0.1-0.2l0-0.2l0-0.2v-0.2l-0.1-0.1L18,17.1l0.2,0v-0.1H18
	L17.8,17v-0.1l0.1,0l0.1-0.1l0.2-0.1v-0.1h0.1l0.1-0.1h0.1l0.1-0.2l0.2,0v0l0.1,0L19,16v-0.2l0,0.1l0.4,0v-0.2l-0.1-0.2v-0.1l0.1,0
	l0.3-0.2l0.1-0.2l0.2-0.1l0-0.1l0.2-0.2h0.2l0.1-0.1l-0.1-0.1l0-0.2v-0.2l0.1-0.1l0-0.1l0-0.1l0.2,0l0.1,0l0.4,0l0.1,0h0.4l0.3-0.1
	l0.4,0.1l0,0.1l0.1,0.1l0.1,0.2l0.3,0.2v0.1l-0.1,0.1h0.1l0.1,0l0.1,0.1l0,0.2l-0.2,0.2V15l0.2-0.2v-0.2l0.1-0.1h0.2l0.2,0l0.1,0
	l0,0.1l0.2,0.2l0,0.3l0,0.1l0.1,0.2v0.2l0-0.1l0.1,0.1v0.1l0,0.1l-0.1,0.2l-0.2,0l-0.1,0.1l-0.3,0h-0.2l-0.4,0.2h-0.2l-0.3,0.1h-0.1
	L22,16.7h-0.2l-0.1,0l-0.1-0.1l-0.1,0l-0.2,0l0,0.2L21.2,17h-0.1l0,0.2l-0.2,0l-0.2,0.1h-0.2l-0.1-0.2l-0.1,0.2v0.1l-0.2,0L20,17.7
	l0,0.1l-0.2,0.2l0,0.1l-0.2,0.2l-0.1,0.1h-0.2l-0.2,0.1h-0.1L19,18.2l0.1-0.1V18L19,17.9L18.9,18v0l-0.1,0l-0.2,0.2l-0.2,0l-0.1,0
	l-0.1,0l-0.1,0.1l-0.1,0h-0.1L18.1,18.5L18.1,18.5z M34.2,16.6L34.2,16.6l0.1,0.1l0,0.1l0,0l0,0L34.2,16.6L34.2,16.6L34.2,16.6z
	 M33,16.6l0.1-0.1l0.2,0l0.1,0.1l0,0.1h-0.1l-0.1,0.1L33,16.6L33,16.6z M31.8,17.3L31.8,17.3l0.2,0.1l0.2,0.1l0-0.1l0.1,0l0.2-0.1
	l0.1,0l0.1,0l0.1-0.1h0.2v-0.1l-0.2-0.1l-0.1,0h-0.2l-0.1,0l-0.1,0.1L32,17.1l-0.1,0.1L31.8,17.3L31.8,17.3L31.8,17.3z M31.1,21.7
	L31.1,21.7v-0.1l0,0L31.1,21.7L31.1,21.7L31.1,21.7z M30.3,21.6L30.3,21.6l-0.1-0.2l0,0l-0.1,0.1l0-0.1l0-0.1l0-0.1L30,21l0.1-0.2
	l0-0.2l0-0.1H30l0-0.1v-0.1l-0.1-0.1V20l-0.1-0.2h-0.1l0,0v-0.2l-0.1,0l-0.1,0l0,0h-0.1l0,0v-0.1l0.1-0.1l0-0.2l-0.1-0.1l0-0.1v-0.2
	l0-0.1l0.2-0.2l0.1,0l0-0.1h0.1l0,0l0.2,0l0.1,0l0,0.1l0,0h0v0.1h0.1l0,0.1v0.1l0.2,0.2v0.1l0.1,0.1h0.1l0,0l0-0.1l0.1,0l0.1-0.1
	l0-0.1l0.1-0.1v-0.1l0-0.1l0,0l0.1,0l0.1,0l0,0.1h0.1v-0.1l-0.1-0.2l0-0.1h0l0,0.1h-0.2l-0.1-0.2v-0.1l-0.1-0.1v-0.2l0.1-0.1h0.1
	l0-0.1l0.1,0l0.1,0.1l0,0.2h0l0-0.1l0,0v-0.1l-0.1,0v-0.1l0-0.1l0,0l0-0.1l0.1,0l0,0h0l0.1,0.1l0.2,0l0-0.1h-0.1l0,0l0.1,0l0.1,0
	h0.2l0,0l0,0v0.1l0.1,0l0.1,0.1l0.1,0l0.1,0h0.2l0.1,0l0.1,0h0.3l0.1,0.1l0.1,0l0,0.1v0.1l0,0.1l0,0.1l-0.2,0.1l-0.1,0l0,0l-0.1,0.1
	l-0.1,0l0,0.1l0.1,0.1l0,0.1l0,0.2l-0.1,0l0,0h-0.1l-0.1,0l0,0.1l-0.2,0l-0.2,0.1h-0.1L31.6,19v0.1h0.1l0,0l0.2,0l0.1,0l0.2,0.1
	l0,0.1l0,0h-0.1l0.1,0l0,0.1v0.1l-0.1,0.1v0.1l0,0l0.1-0.2l0.1,0l0,0h0.1l-0.1,0.1v0.2L32.4,20v0.1l-0.2,0.1h-0.1l0,0l0,0.1l0,0.2
	H32l0,0l-0.1,0v0l0.2,0.1l0,0.1h-0.1l0.1,0.1L31.8,21l0,0L31.7,21h-0.1l-0.2,0.1v0.1l-0.2,0l-0.2-0.1l-0.1,0.1l-0.1,0l0-0.2l0.1-0.2
	v-0.1l-0.2,0.2V21l0.1,0.2l0.1,0.1l0,0.1l-0.2,0.1l0,0.1C30.5,21.5,30.3,21.6,30.3,21.6L30.3,21.6z M32.4,18.6L32.4,18.6L32.4,18.6
	l0.1,0L32.4,18.6L32.4,18.6z M32.3,19.2L32.3,19.2l0.2-0.1V19l0,0l0-0.1l-0.1,0l0,0.1l-0.1,0L32.3,19.2L32.3,19.2L32.3,19.2z
	 M32.3,19.4L32.3,19.4l0.1-0.2h-0.1l-0.1,0.1L32.3,19.4L32.3,19.4L32.3,19.4z M27.4,16.7L27.4,16.7l0,0.1l0.1,0l0.1,0l0,0l0-0.1
	H27.4L27.4,16.7L27.4,16.7z M28.2,18.3l-0.1-0.1v-0.2l-0.1-0.1v-0.1l0-0.1l0-0.2v-0.2L28,17.1l-0.1-0.1V17l0.2-0.2l0.1,0l0.1-0.1
	h0.2l0.1,0.1h0.1l0.1,0.1l0.1,0l0.1,0l0.1,0h0.1l0.1,0.2V17l0,0l0.1,0.1v0.1l0,0v0.1L29,17.5H29l-0.2,0.2l-0.2,0.1l-0.2,0.2h-0.1
	l-0.1,0v0.1L28.2,18.3L28.2,18.3z M32.8,20.9l-0.2-0.2l-0.1,0l-0.2,0l0.1-0.1l0.1,0l0.1,0l0,0v0h-0.1l0,0l0.2-0.2l0.1-0.2V20l0.1,0
	v-0.1l-0.1-0.1l0.1-0.1v-0.2l0.1-0.2l0.1,0v-0.1l0.1-0.1l0-0.1l0-0.1v-0.1l0.2-0.2l0-0.2h0.1v-0.1l0,0l0.1-0.2l0.1,0l0.1,0.2l0,0.1
	h0.1l0-0.1l-0.1-0.1v0l0.1,0L33.7,18l0.1-0.2l0.3-0.1h0.2l0.1,0l0,0h0.1l0,0.1l0.1-0.1h0.2l0.1,0.2l0.1,0l0,0h0l0.1,0.1v0.1l0,0
	l0.1,0h0.2l0.3,0l0.2,0.1v0.1l0.1,0l0,0.1l0,0h0l0,0.2l-0.2,0.2l-0.2,0.1l-0.1,0v0l-0.2,0.2l-0.1,0.2H35v0l0,0L35,19.6l-0.2,0.2
	l-0.2,0.2L34.3,20l-0.2,0.1l-0.1,0l0,0H34l-0.2-0.1v-0.1l-0.1,0l-0.1,0l-0.1,0h-0.1l-0.1,0h-0.1v0.1l0,0h0.2l0,0.1L33.4,20l0.1,0.1
	v0.1l0,0.1l-0.1,0l-0.1,0.1h-0.1l-0.1,0.1l0,0.1L33,20.7h-0.1L32.8,20.9C32.8,20.9,32.8,20.9,32.8,20.9L32.8,20.9z M40.6,21.4
	l-0.2-0.1l-0.1,0l0-0.2l-0.1,0l0-0.1l0-0.2l0.1-0.1v-0.1l0.1-0.1l0-0.1h-0.1l-0.1-0.1l0.1-0.2h0.1l0-0.1l0-0.1l0.1-0.1l0-0.2l0.1,0
	l0.1,0.1l0,0.1l0.2,0.1L41,20l0.2,0l0,0l0.2,0.1h0.2l0.1,0l0,0.1l0.2,0.1l0,0.1l0,0.1v0.1l0.1,0.1l0,0.1l0,0.1v0.1l0.1,0.2l0,0.1
	l0,0.1l0.2,0v0.1l-0.1,0l0,0.1l-0.2,0l0,0l-0.2,0l-0.1-0.1l-0.2,0h-0.1l-0.1-0.1l-0.2,0h-0.1l-0.1,0.1L40.6,21.4L40.6,21.4z
	 M39.9,21.6v-0.1l0-0.1l0,0L39.9,21.6L39.9,21.6L39.9,21.6z M40,21.7L40,21.7v-0.1h0L40,21.7L40,21.7L40,21.7z M40.4,21.7L40.4,21.7
	l-0.1-0.1h0L40.4,21.7L40.4,21.7L40.4,21.7z M32.5,24.4L32.5,24.4L32.5,24.4L32.5,24.4l0.1,0L32.5,24.4L32.5,24.4L32.5,24.4
	L32.5,24.4z M32.9,25.1v0.2V25.1l0.1,0.1V25L32.9,25.1L32.9,25.1L32.9,25.1z M32.8,25.1L32.8,25.1v0.2v0l0,0l0,0L32.8,25.1
	L32.8,25.1L32.8,25.1L32.8,25.1z M35.2,24.7L35.2,24.7l-0.1,0L35,24.5l0,0h-0.1v-0.1l0,0l0.1,0l0,0h0.1l0.1,0.1l0.1,0l0,0.1
	L35.2,24.7C35.3,24.6,35.2,24.7,35.2,24.7L35.2,24.7z M36.6,25.2L36.6,25.2l-0.1-0.1L36.6,25.2L36.6,25.2L36.6,25.2L36.6,25.2
	L36.6,25.2z M36.8,25.2L36.8,25.2L36.8,25.2L36.8,25.2L36.8,25.2z M37,25.3L37,25.3l0.1,0h0.1v0l-0.1,0v0L37,25.3L37,25.3L37,25.3
	L37,25.3z M38.4,27.2L38.4,27.2l0-0.1l0-0.1l0,0l0.1,0L38.4,27.2L38.4,27.2L38.4,27.2L38.4,27.2z M38.3,27.6l0-0.2l0-0.1l0,0h0.1
	v0.1h-0.1L38.3,27.6L38.3,27.6L38.3,27.6z M37.4,25.7L37.4,25.7L37.4,25.7L37.4,25.7L37.4,25.7z M37.3,25.7l0-0.1L37.3,25.7
	L37.3,25.7L37.3,25.7L37.3,25.7z M37.3,25.8L37.3,25.8l0.1,0l0.1,0v-0.1l-0.1,0L37.3,25.8L37.3,25.8L37.3,25.8z M38.1,25.5
	L38.1,25.5l0.1,0.1l0,0v0l0,0l0.1,0v-0.1l0.1,0l0.1,0h0l0.1-0.1l0-0.1l-0.2,0l-0.1-0.1h-0.1v0.1C38.2,25.4,38.1,25.5,38.1,25.5
	L38.1,25.5z M39.5,25.4L39.5,25.4l0.1-0.1L39.5,25.4L39.5,25.4L39.5,25.4z M39,26L39,26l0.2-0.2h0.1l0-0.1h0l0,0.1v0l-0.1,0
	l-0.1,0.1L39,26L39,26L39,26z M38.6,26.8l0.2-0.2l0-0.1H39l0.1-0.1l0.1-0.1v-0.1l0,0l-0.1,0l0,0.1h-0.2l-0.1,0.1l-0.1,0h-0.2l-0.1,0
	l0,0.1l-0.1,0.1l0,0.2l0,0L38.6,26.8L38.6,26.8L38.6,26.8z M39.6,26.6l0-0.2l0,0l0.1-0.1h0.1h0.2l0,0.2l0,0.1h-0.1l-0.1,0.1
	L39.6,26.6L39.6,26.6z M40.4,27.7l0-0.2l0-0.2l-0.1-0.1h-0.1v0.1l-0.1,0.1v0.1l0,0v0.1l0.1,0L40.4,27.7L40.4,27.7z M40.5,27.6
	L40.5,27.6v-0.2l0,0.1L40.5,27.6L40.5,27.6L40.5,27.6L40.5,27.6z M40.7,27.9L40.7,27.9v-0.2l0,0L40.7,27.9L40.7,27.9L40.7,27.9z
	 M40.3,28.1L40.3,28.1v0.2l0,0.2l0,0l0.1,0l0.1,0l0.1,0l0.1,0l0.1,0l0-0.1l0-0.1v-0.1h-0.1l0-0.1h-0.1l0,0v-0.1V28h0l0,0.1h-0.1
	L40.3,28.1L40.3,28.1z M36.9,32.7h0.1l0,0l0,0L36.9,32.7L36.9,32.7L36.9,32.7z M35.1,29.7L35.1,29.7l0.2,0.1v0L35.1,29.7L35.1,29.7
	L35.1,29.7L35.1,29.7z M34.7,30.4L34.7,30.4l-0.1-0.2l-0.1-0.1v-0.1l0-0.1l-0.1-0.1v-0.2l0,0l0,0.1l0.1,0l0,0.1l0.1,0v0.2l0.1,0.1
	h0.1v0.1l-0.1,0L34.7,30.4L34.7,30.4z M33.9,30.4v-0.1l0-0.1l0-0.1v-0.2l0-0.1h0.1l0,0.1l0,0v0.1l0,0.1L33.9,30.4L33.9,30.4
	L33.9,30.4z M33.9,27.3v0.1l0,0h0.1l0.1-0.1v0H34L33.9,27.3L33.9,27.3z M33.9,27.3l0-0.1V27l0.2-0.1l0.1-0.1v0V27l0,0.1v0.1l-0.1,0
	L33.9,27.3L33.9,27.3z M27.8,26L27.8,26l0.1-0.2h-0.1L27.8,26L27.8,26L27.8,26z M22.6,24.6L22.6,24.6l0.1,0L22.6,24.6L22.6,24.6
	L22.6,24.6z M22.2,24.8h0.1v0L22.2,24.8L22.2,24.8L22.2,24.8z M22.4,25.2L22.4,25.2l0-0.1L22.4,25.2L22.4,25.2L22.4,25.2z
	 M22.4,25.3l-0.1-0.2l0,0L22.4,25.3L22.4,25.3L22.4,25.3z M22.6,25.5l0,0.2h0l0.1-0.1l0,0l0-0.1L22.6,25.5L22.6,25.5L22.6,25.5
	L22.6,25.5L22.6,25.5z M22.4,26.3l0-0.2l0-0.1v-0.1l0.1-0.2l0,0.1l0,0.1l0,0l0,0.1l0,0.1l-0.1,0L22.4,26.3L22.4,26.3L22.4,26.3z
	 M27.1,23.4L27.1,23.4l0-0.1L27.1,23.4L27.1,23.4L27.1,23.4L27.1,23.4z M28.7,22.5l0-0.2l0,0l0-0.2l0.1,0l0,0v0l0.1,0.1l-0.1,0.1
	L28.7,22.5L28.7,22.5L28.7,22.5z M26.9,24.4L26.9,24.4l0-0.1l0.1-0.1v0l0-0.1V24h-0.1l0-0.1l0-0.1H27v-0.1l-0.1-0.1l-0.1,0v0.1l0,0
	l-0.1,0h-0.2l-0.2,0.2L26.3,24v0l0.1-0.1l0.1-0.1v-0.2l0,0.1l0,0v-0.1l0.1-0.1l-0.1-0.2l0.1-0.1h0.1v0.1l0,0.2l0.1,0.1l0,0h0.1
	l0-0.2l-0.1,0v0h0.1l0,0H27l0.1-0.1l0-0.1l0,0.1h0l0.1-0.1l-0.1,0.2v0.2l0,0l0,0l0,0.1h0.1l0-0.1l0.1,0l0.1-0.2l0.1,0l0,0.1
	l-0.1,0.1l0,0.2h0.1l0.1,0l0-0.1l0.2-0.1l0-0.2l0-0.1l0-0.1l0,0v-0.1H28l-0.1,0l-0.1,0v-0.1l0,0l0-0.1h-0.1v0l-0.1-0.1v-0.1
	l-0.1-0.2v-0.2l0-0.1l0-0.2l-0.1,0.2v0.1l-0.1-0.1l-0.1-0.1l0-0.2l-0.1,0l0-0.2l-0.1-0.1v-0.1l0-0.1V21H27l0-0.1h0.1l0,0l0.1,0v-0.1
	l0.1-0.2v-0.2l0-0.1L27.3,20l0-0.2h0.1v-0.2l0.1-0.2v-0.1l0.1-0.1v-0.2l0.1,0v-0.1l0.1-0.2v-0.1v-0.1l0.1,0v-0.1l-0.1-0.1v-0.1v-0.1
	l-0.1,0l0-0.2l0,0l-0.1-0.2l-0.1,0l0,0h0l0,0.2h0l-0.1-0.2h-0.1l-0.1-0.1l-0.1,0l0,0.2l0,0l-0.1,0l-0.1,0.2v0.1l-0.1,0l-0.1,0.3v0.1
	l-0.1,0.1v0.2l0,0v0.1l-0.1,0V19l-0.1,0.1l0,0l-0.1,0.2l0,0.1l0,0.1v0.1l-0.1,0.1l0.1,0.1v0.1h-0.1l0,0l0.1,0V20l-0.1,0h-0.1
	l-0.1,0.1L26,20l0,0v0.1l0,0l-0.1,0v-0.1l0-0.1l-0.1-0.1v-0.2l0.1-0.2l0-0.2l0.1-0.1v-0.1l0-0.1l0.1-0.3l0.2-0.1v-0.2h-0.1h0v-0.1
	l0.1-0.1v-0.2l-0.1,0l0-0.2l0,0v-0.2h-0.1L26,17.5l-0.2,0l0,0.1l0.1,0.1v0.1L26,18v0.1h-0.1l0-0.1h-0.1l0,0.1l0,0l0,0.1l0,0.2
	l-0.1,0v0l0,0l0,0.2l-0.1-0.1v-0.1h-0.1l-0.1,0.1l0,0v-0.1l0.1-0.1l0,0l-0.2,0.1l-0.2,0.1L25,18.2h-0.1l-0.1,0.1h-0.2l0-0.1l-0.2,0
	l0,0l0.1-0.1h0.2l0.1,0l0.2,0V18l0.1,0l0.1,0l0.1-0.1v-0.1l0-0.1l-0.1-0.1L25,17.4l-0.2,0v-0.1l-0.2-0.2l0-0.1h-0.1l-0.1,0.1h-0.1
	l-0.2,0.2l0,0v0.1l-0.1,0l-0.1,0v0h-0.1l-0.1-0.1h-0.1l0,0h-0.1l0,0l0,0l0.2,0l0-0.1l0.1,0H24l0.1-0.1v-0.2l0-0.1h0.1l0.1-0.2v-0.2
	l0-0.1l0-0.1h-0.1l-0.2,0l-0.2,0l-0.2,0.1L23,16.5l-0.6,0.2l-0.2,0.1l-0.4,0.1l-0.4,0.2l-0.2,0.2v0.1h0.1l0.1,0l-0.1,0.1h-0.1
	l-0.2,0.2h-0.2l-0.1,0.1l0,0.1L20.6,18l-0.1,0.1v0.2l0.1,0l0.1,0.1l0,0.1l0,0h0.1l0.1-0.1H21l0.1,0.1l0,0.1l-0.2,0l-0.1-0.1l-0.1,0
	l0,0.1l0.2,0.1l0.1,0l0-0.1h0.1l0,0.1l0,0.1h0.1l0.2,0l0.2,0h0.1l0.2,0.1l0.1,0l0.1,0l0.1,0.1h0.1l0,0.1h-0.1l-0.2-0.1h-0.2l0,0
	l0.2,0l0,0.1h-0.2L21.7,19l-0.3,0l-0.1,0.1l-0.1,0h-0.1l-0.1,0H21h-0.3l0,0l-0.2,0l0,0.1l0,0.4l0,0.1v0.1l0,0V20l0,0h0.1h0.1l0.1,0
	h0.1l0,0h0l0.1,0l0,0l0.1,0l0.1,0.1v0.1l0.1,0l0.1,0h0.1l0,0h0.1h0.1l0.1,0l0.1,0l0.1,0h0.2l0.1,0l0.1,0l0,0.1l0.1,0v0.1l0.1,0.1v0
	l0,0h0.1l0.1,0l0,0.1l0.1,0l0.1,0.1v0V21l0.1,0.1l0.2,0.1v0.1l0,0l0,0.1l0,0l-0.2,0l-0.2,0l-0.1,0l-0.1,0l0,0h-0.4l-0.1-0.1h-0.1
	l-0.1-0.1l0,0h-0.1l-0.1,0l0,0l-0.1,0l0-0.1h0l-0.1,0h-0.1l0,0H21h-0.2l-0.1,0h-0.5l-0.1,0l-0.2,0l-0.1,0.1v0.2l-0.1,0.2l0,0.2
	l0,0.1l0,0.1l0.1,0l0,0.1l0,0l0.1,0.2l0.1,0.1l0,0.1l0.2,0.1l0,0l0.1,0l0.1,0.1h0.1l0.1,0h0.1l0.1,0.1H21l0.1,0.2l0.1,0l0,0.1
	l-0.1,0v0.1l0,0.1V23l0,0.1l-0.2,0.1v0.1l0,0.1l0.1,0.1v0.2l0.1,0.2v0.1l-0.2,0l0,0l0.2,0l0.1,0h0l0,0l0-0.1h0.1l0,0h0.2l0.2,0.1
	l0.1-0.1H22l0,0h0l0,0l0.1,0l0,0V24h0.1l0,0l0,0l0,0.1h0.1l0,0h0.2l0.1-0.1l0.1,0H23l0.1-0.1l0.2-0.1l0.1,0l0,0h0.1l0.1,0h0.1l0.1,0
	H24l0.2-0.2l0-0.1h0l0,0l0-0.1l0.1,0v-0.1l0,0h0h0.1l0-0.1v-0.1l0,0h0l0,0.1v0.1l0,0.1l-0.1,0v0.1l0,0.1l0,0v0h0.1l0.1,0.1l0,0H25
	l0.1,0l0,0.1l0,0v0l0,0l0.1,0V24L25.2,24h-0.1L25,24.1v0h0.1h0.1l0.1,0.1l0.1,0l0.1-0.1h0v0.1l0.1,0.1l0.1,0l0.1,0l0.1,0l0,0.1h0.1
	l0,0.1h0v-0.1h0l0.1,0l0,0v0.1l0,0l0.1,0l0.1-0.1l0,0l0,0.1h0l0,0h0l0.1-0.1h0.1l0,0l0,0L26.9,24.4L26.9,24.4z M38.8,28.9l0-0.2l0,0
	v-0.2v-0.2l0.2-0.2L39,28l0.1-0.1l0.2-0.3l0.1-0.1h0l0,0l0.1,0l0.1-0.1l0.1,0l0,0.1H40l0.1,0.1l0,0.1v0.1L40,28l0,0.1v0.1l-0.2,0.2
	l0,0.1l-0.1,0l-0.2,0.1l0,0h-0.1l-0.1,0l-0.1,0l-0.2,0l-0.1,0h-0.1L38.8,28.9L38.8,28.9z M27.6,24L27.6,24v-0.1l0.1,0l-0.1-0.1
	l0-0.1h0v0.1l0.1,0v0.1l0,0.1L27.6,24L27.6,24L27.6,24L27.6,24z M26.5,25L26.5,25l0.1-0.1v-0.1l0-0.1l0,0l-0.1,0v0h-0.1l0,0L26.5,25
	L26.5,25L26.5,25z M27.7,24.7l-0.1,0.1v0.1l0,0.1l-0.1-0.1v-0.1l0.1-0.2v-0.1l0-0.1h0.1v0.1V24.7L27.7,24.7L27.7,24.7z M27.9,24.6
	L27.9,24.6l0-0.1l0.1-0.2h0l0.1,0.1L27.9,24.6L27.9,24.6L27.9,24.6L27.9,24.6z M30.2,24.6l0-0.2l0.1-0.1l0.2,0v0.1l-0.1,0.2l-0.1,0
	v-0.1v-0.1L30.2,24.6L30.2,24.6C30.3,24.6,30.2,24.6,30.2,24.6L30.2,24.6z M30.1,24.5L30.1,24.5l0.1-0.1l-0.1-0.2l0,0.1V24.5
	L30.1,24.5z M30,25.5L30,25.5l0.2-0.2v-0.1l-0.2,0L30,25.2l0.1-0.3l0-0.1L30,24.9l-0.1,0.2V25l0.1-0.3l-0.1-0.4l-0.2-0.1V24h-0.1
	l-0.1,0.1V24l0.1-0.1l0-0.1v-0.1v-0.1l-0.2,0l-0.2,0.2L29.1,24l0,0.2l-0.1,0l0-0.2h0l0,0.2h-0.1l0.1,0.1l-0.1,0.1h-0.1l-0.1,0.1
	h-0.2l-0.1,0h-0.1l-0.3,0.2l0,0.1l0.1,0.2l0.1-0.1l0-0.1l0-0.1l0.1,0.1l0,0.2l0.1,0.1l0.1-0.1l0,0.1l0,0.1l0.2,0.2l0.1,0l0.1,0.2
	l0.1,0.1l0.1-0.2v0.1l0.2,0.1h0.1h0.1l0.1-0.1h0.1l0.2-0.1H30L30,25.5z M43,24.7L43,24.7l0-0.2l0.1-0.1l0.1-0.1l0.1,0l0,0.1h0.1l0,0
	l-0.1,0.1l-0.1,0l0,0L43,24.7L43,24.7C43,24.7,43,24.7,43,24.7L43,24.7z M42.7,35.8h-0.1l-0.1-0.1l-0.2-0.1l-0.1-0.1h-0.1l-0.2-0.2
	l0-0.1l-0.1,0h-0.1l-0.1,0l0,0l-0.2-0.1l0-0.1L41.3,35h-0.1l-0.1-0.2v-0.1h0l-0.1,0l0-0.1l0,0l0.1,0l-0.1,0l0,0v0.1l-0.1,0v0h-0.1
	l-0.2-0.1h-0.1l-0.1,0l-0.1-0.1v-0.1h-0.1L40,34.2L40,34.1v-0.2l-0.1,0l0,0H40l0.2-0.2l0-0.1l-0.2,0L40,33.5l0-0.1l0,0l-0.1,0l0,0.1
	v0.1l-0.1-0.1l0.1-0.1l0-0.2l-0.1,0.1l0,0v-0.1h-0.1l0-0.1v-0.1l0-0.2l-0.1,0v-0.1l0.1-0.1l0,0l-0.2,0.2v0.1l0-0.1l0.1-0.2l-0.1,0
	l0,0l0,0l-0.1,0.2l-0.1,0.1v-0.1l0.1-0.1v-0.1l0-0.1l-0.1,0L39,32.5h0l-0.1,0.1l0,0.1l-0.2,0l-0.1-0.1h-0.1l-0.1-0.2h0l0,0.1v0.1
	l0,0l-0.1,0l-0.1,0H38l0,0.1h-0.1l0,0l-0.1,0h-0.2l0-0.1l-0.1-0.2l0,0l-0.1-0.1l-0.1-0.2l0-0.2l0.1-0.1v-0.1l0.1-0.1h0.1l0.1-0.1
	l0.1,0h0v-0.1l0-0.1v-0.1l0,0h0.1l0,0v-0.1l0,0l0.1,0.2l0.1,0l0.1,0.1l0.1,0.1h0.1l0.1,0.1l0.1-0.1h0.1l0,0.1h0.1l0.2,0l0.1-0.1
	l0-0.1h0.2v0l0,0l0.1,0l0.1-0.1l0-0.1l0.1-0.1l0,0.1v0.2l0,0.1l0-0.1l0.1,0l0,0l0,0l0-0.3L39.7,31v-0.1l-0.1-0.1l0-0.2l0,0h0.1
	l0.2-0.2l0.2-0.1l0.1,0l0.2-0.2h0.1l0.1,0l0.1,0h0L40.6,30v-0.1l0.2-0.2l0-0.1l0.1,0l0.2,0l0.2-0.1l0-0.1l-0.1-0.1l0.1-0.1l0-0.2v0
	l0,0v-0.1l0.1-0.1v-0.1l-0.1,0v0l0-0.2h0.1v-0.1l0-0.1V28h-0.1l-0.1,0.1v0.1h0v-0.1V28l0,0h-0.2L41,27.9l0,0l0.2-0.1l0,0l-0.1,0
	l0.1-0.1v-0.1L41,27.3l0,0v0.1l0,0.1l0,0.1l-0.2,0l0-0.1l0,0l0-0.2l0.1-0.1l0-0.1l-0.2,0v0l0.1,0v0l-0.1,0l0.1,0l0.1,0v-0.1l-0.1,0
	l-0.1,0.1L40.5,27l-0.1,0l0,0v-0.2l0,0L40.3,27h-0.1l-0.1,0H40l-0.1,0v0h-0.1v-0.1l0.1-0.1v0l0,0l0.1-0.1l0,0l0.1,0l0.1,0l0.1,0h0.1
	l0.1-0.1l0-0.1l0-0.1l-0.1-0.1l-0.1,0l0-0.1v-0.1l0,0v-0.1H40v0l-0.1,0l0-0.1l0.1,0l0,0l0,0v-0.1l0.1,0l-0.2,0l-0.1-0.1h-0.1v0
	l-0.1,0l0,0.1h0v-0.1l0.1-0.2l0.1-0.2v0l0.1-0.2v-0.1l0-0.1l0-0.1l-0.1,0.1l-0.1,0l0,0v0.1h-0.1l-0.2-0.2v-0.1l0-0.1l0,0l0-0.1
	l0.1,0l0,0l0-0.1v-0.1h-0.1l-0.1,0.1v0.2l-0.1,0.1l0-0.1l-0.1,0l0,0v0.1l0,0l0,0.1l0.1,0.1h0.1l0.1,0.2l0.1,0.1l0,0.1v0.1l-0.1,0.1
	l-0.1,0.1h-0.3l0,0h-0.1l-0.1-0.1l0,0v-0.1h-0.2l-0.2-0.1H38l0.1,0.2l0,0.1l0,0H38l0-0.1l-0.1-0.1h0l0-0.1l-0.1-0.1l-0.1-0.1v-0.1
	h-0.1l-0.1-0.1l-0.1,0l0,0l-0.1,0l0,0.1l0.2,0.2l0,0.1l0.1,0.1l0.1,0.1l0,0.1l-0.1,0.1l0,0l-0.1,0.1l-0.2-0.1h-0.1l0-0.1l-0.1,0
	l0-0.1l-0.2,0l-0.1,0L36.6,25l-0.1,0h-0.1l-0.1-0.1l-0.2-0.1v-0.1l0.2-0.2l0.1,0v0h-0.1l-0.1,0.1l-0.1,0.1l-0.1,0l-0.1-0.1l-0.1,0h0
	l0.1,0.1l0,0h-0.2l-0.2-0.1l0-0.2l-0.1-0.1v-0.1l0.2-0.1l0-0.1l0,0l-0.1,0.1h-0.2l0,0.1h-0.1l0-0.1l0-0.1l0,0h-0.1l0,0.1v0.1l0,0.1
	l-0.1,0l-0.1-0.1l-0.1,0l-0.1,0v0.1h-0.1l-0.1-0.1l0-0.1h0l0.1,0v0l-0.1-0.1l-0.2-0.1v-0.1l0-0.1v-0.2l0-0.2l0-0.1h0.1V23l0-0.2v0
	l0.1,0l0,0.1h0.2l0.1,0.1l0,0.1l0.2,0.1h0.2l0,0h0.2l-0.1-0.1V23L35.3,23v-0.2h-0.2L35,22.7h-0.1l-0.2-0.1h-0.1l-0.2-0.1l0-0.1
	l0-0.2l0.1-0.1V22l0-0.2h0.1l0.1-0.1v-0.2l0-0.1l0.1,0l0-0.1l0.2-0.1h0.1l0-0.1h0l0,0v-0.1l0.1-0.2l0.1-0.2l0,0l0.1-0.1h0.1h0l0-0.2
	h0l0,0.1l0.1-0.1l0-0.1l0.2-0.2h0.1v-0.1l0.1-0.2h0.1l0.1-0.1h0.1l0.1,0l0-0.1l0-0.1l0.2-0.1l0.2-0.2l0.3-0.1h0.2l0.1,0l0.2,0l0.1,0
	l0.1,0H38l0.1,0.1l0.3,0.1v0.1l0,0.1l-0.2,0.1L38,19.5h-0.1l0,0.1l-0.1,0.1l-0.1,0L37.3,20l-0.2,0.3l-0.2,0.1l-0.1,0l-0.1,0.2v0.2
	l0,0.1l0.1,0.1v0.1l-0.1,0l-0.1,0.1l-0.1,0.1v0.1l-0.1,0.2l-0.1,0v0.1l0,0.1l0,0.2l0,0.1v0.2l0.1,0.2l0,0.1l0.1,0.1v0.1l0,0.1l0-0.1
	h-0.1v0h-0.1l-0.1,0l0,0l0,0l0.1,0.1h0.1l0,0l0,0l-0.1,0.1l0,0.2v0.1l0,0.1l0.2-0.2v-0.1l0.1-0.2l0.1,0l0-0.2l0-0.1l0.1-0.1v-0.1
	l0-0.1l0-0.1l-0.1,0H37v-0.2l0,0v-0.2l-0.1-0.1v-0.1l0,0l0,0.1l0,0l0.1,0l0.1-0.1l0-0.1l0.1-0.1l0.1,0l0.1,0.2l0,0.1l0,0l0.1-0.1
	v-0.1l0.1-0.1h0.1v-0.1l0,0l0.1,0l0-0.1h-0.1l-0.2,0.2h-0.1l0-0.1l-0.1-0.1V21l0.1,0l-0.1-0.1l0-0.2l0.1-0.2v-0.1l0.1-0.1h0.2
	l0.1,0.1v0.1l0.2,0.1l0.1,0.1h0.1l-0.1-0.1l0-0.1l-0.2-0.1l0-0.1l0-0.1h-0.1l0,0h0h0.2l0,0h0l0.2,0.2l0.2,0.1h0l-0.2-0.1l-0.1-0.2
	L37.9,20V20l0-0.1l0.2,0l0.1,0V20V20l0,0v-0.1l0.1-0.1h0.2l0.1,0.1l0,0l0,0.2l0-0.1V20l-0.1-0.2l0-0.1l0.3-0.1l0.2-0.1h0.2l0.2-0.1
	l0.2,0.1h0.2l0.2,0v0.1l0,0l0,0.3l0,0.1l-0.1,0.1l-0.1,0.2l0,0.1l0.1,0l0,0.1l0,0.1l-0.2,0.2l0,0.1v0.1l0.1,0.1v0l-0.1,0.1h-0.1
	l-0.1,0.1l-0.1,0l-0.1,0.1l-0.1,0.1l0,0.1h0.1l0.1-0.1l0.2-0.1h0.1h0l-0.1,0.1l0,0.1l-0.2,0.2l-0.1,0v0v0V22l-0.1,0h-0.1v0.1h0l0,0
	v0.1l-0.1,0.1h0.1l0-0.1l0.1,0l0.1-0.1v-0.1l0.1,0l0-0.1l0,0V22l0.1,0v-0.2l0-0.1l0-0.1l0,0l0.1,0v0.2l0,0.1l0.1-0.1l0.1-0.1l0,0.1
	l0.1,0.1l0,0.1l-0.2,0.2L40,22.3l0,0.1l0.1,0l0.1,0l0.1,0l-0.1-0.1l0-0.1l0.1-0.1l0.1,0.2v0.1l0-0.1v-0.2L40.4,22v-0.2l0,0l0.1,0
	l0,0.1l0,0.1l0.1,0h0.1l0.2,0.2v0.1H41l0.1,0h0l0-0.1H41l0,0l-0.2-0.2l-0.1,0l0,0l0.1-0.2h0.2l0.1-0.1l0.2,0h0.2l0,0h0l0.2,0.1v0.1
	l0.1,0.1l0.1,0v0.1h0.1l0,0h0.1l0,0.1l0.1,0.1v0.1v0.1l0,0.1v0.1L42,22.4h-0.1l-0.1,0l-0.2,0l-0.2,0.2l0.2-0.1h0.2l0,0.1l-0.1,0.1
	l-0.1,0.1l-0.2,0.2L41.5,23h-0.1v0.1h0.1l0.2-0.2l0.1-0.2l0.2,0l0.1-0.1l0.1,0l0,0h0.1v0.1l0,0.1v0.1l-0.1,0L42.1,23h-0.1l0,0h-0.1
	L41.7,23h0.1l0,0.1l-0.2,0.1h0.1l0.1-0.1l0.1,0l0.1,0v0l0,0.1l-0.1,0l-0.1,0.1h0.1l0,0l-0.1,0.1l-0.1,0.1l-0.1,0.1h0.1l0.2-0.1
	l0.1-0.2l0.1-0.1l0.2-0.2l0,0v0.1l0.1,0v-0.1l0.2-0.1h0.1v0.1l-0.2,0.2l-0.2,0.2l-0.1,0v0l0,0l-0.1,0.1l0,0.1h0l0.1-0.1l0-0.1
	l0.2-0.2l0.1-0.1v0.1v0.1l0,0.2l-0.2,0.2V24l-0.1,0.2l-0.1,0v0l0.1,0l0-0.1l0.2-0.2l0.1,0l0,0.1l0,0v0.1l-0.1,0l-0.1,0.2l0,0.2l0,0
	l0-0.1l0-0.1l0.1-0.1l0.1,0V24l0-0.1l0.1,0v-0.1l0-0.1l0,0l0-0.1v-0.1l0,0l0.1,0.2l0.1,0l0.1,0.1l0,0.1l0,0.1l0.1,0.1v0l-0.1,0.1
	l-0.1,0.2h-0.1l-0.1-0.1L43,24.4h0l0,0l-0.1,0l0,0.1l-0.1,0h-0.1l-0.1,0.1h0.1h0.1l0,0.1l-0.1,0.1l-0.1,0l-0.1,0h0.2l0.1-0.1l0.1,0
	H43l0.1-0.1h0.1l0.1,0v0l0,0l0,0l0-0.1v-0.1l0.1-0.1l0.2-0.1l0,0v0.1l0,0.1l0,0.1L43.6,25l-0.1,0l-0.1,0.1l0,0h-0.1l-0.1,0H43
	L43,25.2v0.1l-0.1,0.1v0.1l0,0.1h0.1l0.2-0.2l0.1-0.2l0.1,0l0,0h0v0l0,0.1l-0.1,0.1L43,25.6l-0.1,0.1v0l0.2-0.1l0.2-0.2l0.1-0.2
	l0-0.1l0-0.1h0.1l0.2-0.1l0.2-0.1l0.1,0v0l0,0.1L43.8,25h-0.1l-0.1,0.1v0.1l0,0l0.1-0.1h0.1l0.1-0.1l0.1,0l0,0l0.1,0h0.1l0,0.1
	l0.1,0.2l0.1,0.1l0.1,0l0,0.1v0.1l-0.1,0.1l0,0v-0.1l-0.1,0l0,0l0,0.1l-0.1,0.1H44l-0.1,0h-0.1L43.6,26h-0.1l-0.2,0.1h0.1l0,0l0,0.1
	l-0.2,0l0,0l0.2,0l0.1-0.1l0.2-0.2h0.1l0.1,0l0.1,0h0.1v0v0.1l-0.1,0L44,26.2h-0.1l-0.1,0l-0.1,0.1l-0.1,0l-0.1,0l-0.1,0l-0.1,0.1
	h0.1l0.1,0l0.1,0l0,0l0.1-0.1l0.1-0.1l0.1,0l0.1,0l0.1,0l0.1-0.1l0.1,0l0,0v-0.1l0,0l0.1-0.1v-0.1l0.1,0l0,0h0l0,0.1l0.1,0.2l0,0.2
	l0.1,0.1l0,0.1l0,0.1h-0.1l-0.1,0h-0.2l-0.1,0l-0.1,0.1h-0.1l0,0h-0.1l-0.1,0.1l-0.2,0l0.1,0l0.2,0l0.1,0l0.2,0.2l0.1,0l0.1,0h0.1
	l0.1,0l0.1,0.1l0.1,0v0.1l0,0.1v0.1l0,0h-0.1l0-0.1h0l0,0.1l0,0l0-0.1l-0.1,0l-0.1,0l-0.2-0.2l0,0h-0.1h-0.1l-0.1,0l0,0l0.1,0l0.1,0
	l0,0h-0.2l-0.1,0h-0.1l-0.1,0.1v0.1h0l0,0H44l0.1,0h0.1l0.1,0.1v0l0.1,0v0h0h-0.1l0,0l0,0l0,0h-0.1l0,0l0.1,0.1l0.1,0l0,0v0.1l0,0
	h-0.1l-0.2-0.1h-0.2l-0.2-0.1h-0.1l0,0l0.1,0l0.3,0.2v0.1h0L43.6,28h0l-0.1,0.1h0.1l0,0l0.1,0l0,0l0,0v0.1l0,0.1l0,0v-0.1H44v0.1
	l0,0v0H44v-0.1h0.1l0.1,0.1l0.1,0h0.1l0,0.1v0l-0.1,0l-0.1,0l-0.2,0l-0.2,0.1v0.1l0.1-0.1h0.2l0.1,0h-0.1l0,0.1l0.1,0h0.2l0,0l0,0
	l0.1,0l0,0.1l0,0.1l0,0.2v0.1l0,0V29l0.1-0.1h0.1V29l0,0.1l-0.1,0.2l0,0.1v0.1l0,0l0.1-0.2v-0.1l0-0.1l0.1,0v0l0-0.1l0.1-0.1l0,0
	l0,0.1l-0.1,0.2l0,0.1v0.1v0.1l0,0v-0.1v-0.1l0.1-0.1l0.1-0.1l0.2-0.1l0.1-0.1l0,0V29l0,0l-0.1,0v0.1l0,0.1l0,0l0,0l0,0l0.1,0l0.2,0
	l0,0.1l0,0.2v0.1l-0.1,0v0h0.1l0,0.1l-0.1,0h-0.1l0.1,0l0.1,0l-0.2,0H45l0,0h0.1l0.2,0l0,0l0.1,0h0L45.5,30l0,0.1l0.1-0.1l0.1,0
	l0.1-0.1l0.1-0.1l0.1,0l0,0L45.8,30h0l0,0.1l0,0.1l-0.2,0l0,0.1v0.1h0.1l0.1-0.1v0l0.1-0.2l0.1,0v0.1l-0.1,0.1v0.1l0,0.1l0.1,0
	l0.1-0.2v-0.1l0,0l0,0v0.2l0.1,0h0v-0.1l0-0.1l0.2-0.1l0,0l0,0.1h0h0.1l0,0.1l0,0.1h0.1l0,0v0.1l0.1,0.1v0.1l0,0l0,0h-0.1v-0.1
	l0-0.1l-0.1,0l0,0l0,0l-0.1,0.1l0.1,0h0.1l0,0l0,0l0,0l0,0.1l0,0l-0.1,0l-0.1,0l0,0h0.2h0v0l0,0.1h-0.1l-0.1,0h-0.1l-0.1,0l0-0.1v0
	l-0.1,0l0,0h0V31l0,0l0,0.1v0H46l-0.1,0V31v0.1l0.1,0.1h0.1l0.1,0l0.1,0v0.1l0,0.1H46l0-0.1l-0.1-0.1l0,0h0l0,0l0.1,0.1l0,0.1v0.1
	l0,0.1h0l0-0.1l-0.1-0.1l-0.1,0v0l0,0v0.1v0.2l0,0h-0.1l0,0v-0.1l0,0v0.1h-0.1l0,0v-0.1l0-0.1v-0.1l0,0v0.1v0.2l0,0h-0.1l0,0h0.1v0
	l0,0.1h-0.1l0,0v0l0.1,0h0v0v0.1h0v0l0,0.1v0.1h0l0,0h0l0.1,0.1v0.1v0.1l-0.1,0l0,0l0,0v0l0,0v0l-0.1,0v0l0-0.1v0h0l-0.1,0l0,0.1h0
	l0-0.1l0,0l-0.2,0v0l0,0v0v0h0l-0.1,0.1l0,0.1l-0.1,0.1l0,0v-0.1l0-0.1l0-0.1l0,0l0.1,0v0l0.1,0l0,0h-0.1l-0.1,0l-0.1,0l0,0l0,0
	l0.1,0l0.1-0.1h0l-0.1,0l0,0v0l0.1,0l0.1,0l0.1,0l-0.1,0h-0.1l-0.1,0l0,0v0l0.1-0.1l0,0l0.1,0l0.1-0.1l0.1,0l0-0.1l0.1-0.1l0,0v0h0
	l-0.1,0.1l-0.1,0l0,0.1l-0.2,0.1h-0.1L44,31.2h-0.1l-0.1,0v0L44,31l0.1-0.1l0,0l0,0v-0.1l-0.1,0.1L43.9,31l-0.1,0l0,0l0,0v-0.1l0,0
	h-0.1l0,0l0,0l0.1,0v0l0,0h-0.1v0v-0.1l0,0v-0.1l-0.1,0l0-0.1h0v0.1l0,0.1l-0.1,0l0,0l-0.1-0.1h-0.1l0.1,0.1l0.1,0.1v0.1h-0.1l0,0v0
	h-0.1l0-0.1l0-0.1l0,0l0,0l0.1,0.1v0.1l0,0.1h0.1l0.1,0.1l0,0.1V31h0v0l-0.1,0H43l0-0.1l0,0.1h0L42.8,31V31l0-0.1l0-0.1l-0.1-0.1
	h-0.1v-0.1l0-0.1l-0.1,0l-0.1,0h-0.2l0,0.1h0.2l0.1,0l0.1,0v0.1L42.6,31v0.1h0.1l0,0l0,0.1l0,0h0.1v0l-0.1,0.1l-0.2,0.2l-0.1,0.1
	l0.2,0l0.1-0.1l0,0H43l0,0v0l-0.1,0l0,0.1l0,0H43l0.1,0.1l0,0h-0.1l0,0l0.1,0l0,0.1l0,0v0h0v0.1h0l0,0.1v0.2l0,0l0-0.1v-0.1l0,0
	l0.1,0.1v0.1l0,0l0,0l-0.1,0l0,0l0.2,0l0,0v0.1l0-0.1v-0.1h0.1l0,0.1l0,0.1l-0.1,0.1v0.1l0,0l0,0h0.2l0.1,0l0,0l-0.1,0.1l0,0l-0.1,0
	l0.1,0.1l0.1,0.1l0,0.1h0l0,0.2l0.1,0.2l0,0l-0.1,0v0.2l0,0.1l0,0.1l0,0L43.6,34l0-0.2v-0.1l0-0.2v0.2l0,0.2l0.1,0.2v0.2l0,0.1
	l0.1,0.1l0,0l-0.1,0l0-0.1h-0.1l0.1,0.2v0.2l0,0v0.1h-0.1l-0.1-0.1l0-0.2l0,0v0.1l0,0.1h-0.1l0-0.1v-0.2l-0.1,0v0.1l0,0v-0.1l0-0.1
	h-0.1v0l0,0l0,0.1l-0.1,0h0v-0.1v-0.1l-0.1-0.2V34l0,0.1v0.2l0,0.1l-0.1,0.1l-0.1-0.2l-0.1-0.1v0h-0.1l0-0.2l0,0v-0.1l0-0.1l-0.1,0
	v0l0,0.2v0.1l0,0V34l-0.1,0l-0.2-0.1l-0.1-0.2v-0.1l-0.1,0l0,0.1l-0.1,0v0.1l0,0.2l0.2,0.2v0v0.1v0.2h0l0.2,0l0.1,0.1l0,0.1h0h0.1
	l-0.1,0.1h0.1l0,0.1l0.1,0.1l0,0.1h0.1l0.1,0l0,0.2l-0.1,0.1h0.1l0,0.1v0.1l0.1-0.1l0,0v0.1l0,0l0,0l0,0.1l0,0.1l-0.1,0l0,0
	L42.7,35.8L42.7,35.8L42.7,35.8L42.7,35.8L42.7,35.8z M32.1,32.7L32.1,32.7l0.1-0.1l0,0l0,0l0.1,0h0.1l0,0h0l0.1,0v0.1l-0.1,0.1
	l0,0.1l-0.1,0.1v0.2l0,0l0.1,0l0,0h0.1l0.1,0h0.1l0,0l0.1,0h0.1l0.1-0.1l0-0.1l0.1-0.1l0.1-0.1h0l0,0l0.1-0.1l0.1,0h0.1l0-0.2v-0.2
	l0.1-0.1l0-0.1h0.1l0,0l0-0.1l0.1,0l0.1,0v0.1l-0.1,0.1l0,0.1l0.1,0.1h0.2l0.1,0l0,0.1l-0.1,0.1l-0.1,0v0.2l0.1,0l0,0h0.1l0,0h0.1
	l0,0.1h0.1L35,33H35l0.2,0.1l0,0l0.1-0.2l0.1,0l0.1-0.1h0.1l0,0l-0.1,0l0-0.1l0.1,0l0-0.1l-0.1,0l0-0.1l0,0v0.1l0,0l0,0l-0.1,0v-0.1
	l0,0l-0.1,0.1H35l-0.1-0.1l0.1-0.1h0.1l0.1-0.1v-0.1l0,0V32l0-0.1v-0.1l-0.1-0.1v-0.1l-0.2-0.2l-0.2-0.1v0l0-0.2h-0.1l0-0.1l0-0.2
	l0-0.1h-0.2l-0.2-0.1l0-0.1l0-0.1v-0.1l-0.1-0.1l0-0.1h0l-0.1,0.1l0,0.1l-0.1,0l0,0v-0.2l0-0.1v-0.1h0.1h0.1l0-0.1l0-0.1l0-0.1
	l-0.1,0v-0.1l0.1-0.1l0,0l-0.2,0.1l-0.1,0.1l-0.1,0.2l-0.1,0.2v0.1l-0.1,0.1v0.1L33,30.8l0,0.1l-0.1,0l0,0.1v0.1l-0.2,0.2l0,0.1v0.2
	l0,0.1v0.2l-0.1,0.1h-0.2L32.2,32v0.1l-0.1,0.2L32.1,32.7L32.1,32.7z M33.1,34.5C33.1,34.5,33.2,34.6,33.1,34.5L33.1,34.5l0.2-0.1
	h0.1h0v0.1h0.1l0.2-0.2l0.1,0l0.1-0.1L34,34h0.1l0.2-0.1v-0.1l0.1-0.1l0,0h-0.1l0,0h-0.1l-0.1,0l0,0l-0.1,0l-0.1,0.1l-0.1,0l0-0.1
	l0,0l-0.1,0l-0.1,0.2v0l0,0.1l-0.2,0l0,0.1l0,0l0,0.1l0,0.1L33.1,34.5L33.1,34.5L33.1,34.5z M43.4,35.3L43.4,35.3l0.1,0l0.1,0.1l0,0
	l0-0.1l0,0v-0.1l-0.1,0l-0.1,0L43.4,35.3L43.4,35.3L43.4,35.3z M40.2,34.5L40.2,34.5l0.2,0.1l0,0.1v0v0.1l0.1,0l0,0h0.1l0,0h0v-0.1
	l-0.1-0.1l-0.1,0l0,0l-0.1-0.1H40.2L40.2,34.5L40.2,34.5z M43.3,36.1l-0.1-0.1V36l0,0v0l0,0l0,0.1v0L43.3,36.1L43.3,36.1L43.3,36.1
	L43.3,36.1z M43.2,36.5L43.2,36.5l0-0.1l0,0H43l-0.1-0.1v-0.1h0l0,0l0.2,0l0.1,0.1v0l0,0v0.1L43.2,36.5L43.2,36.5L43.2,36.5
	L43.2,36.5z M40,38.4L40,38.4L40,38.4L40,38.4L40,38.4z M40,38.5L40,38.5L40,38.5L40,38.5L40,38.5z M40.1,38.4L40.1,38.4v0.2v0h0
	v-0.1L40.1,38.4L40.1,38.4z M41,37.5L41,37.5l0-0.2l0,0v0l0.1-0.1h0.2v0v0.1l0,0v0l-0.1,0.1l0,0.1h-0.1L41,37.5L41,37.5L41,37.5
	L41,37.5z M38.2,34.4L38.2,34.4l0.2,0.2h0.1l0.1,0l0,0l-0.1,0L38.2,34.4L38.2,34.4L38.2,34.4L38.2,34.4z M37.3,33.5L37.3,33.5
	L37.3,33.5l0.1,0.1l0,0v0h0v0l-0.1,0l0,0v0l-0.1-0.1h-0.1v0l0,0h0l0,0l-0.1,0l0,0l0,0.1h0l0,0l0,0.1L37.3,33.5L37.3,33.5L37.3,33.5z
	 M36.6,33.8L36.6,33.8l0.1,0h0.1l0,0v-0.1v0v-0.2l0,0h-0.1l-0.1,0l-0.1-0.1l0,0h-0.1l0,0l0,0.1l0,0.1l0.1,0.1l0,0.1l0,0v0.1
	L36.6,33.8L36.6,33.8z M36.5,34.4L36.5,34.4l-0.1-0.1h0l0,0L36.5,34.4L36.5,34.4z M35.1,35.4L35.1,35.4L35.1,35.4L35.1,35.4l0.1-0.1
	v0l0,0l0,0l0.1-0.1l0.1-0.1h0.1l0,0v0v-0.1l0-0.1l0-0.1l0-0.1v-0.1l0,0l-0.1,0h0l-0.1-0.1h0l0,0.1l-0.1,0.1h0L35,34.6l0,0.1l0,0.1
	l-0.1,0l0,0.1v0.1h0l0,0H35l0,0.1l0,0L35.1,35.4L35.1,35.4z M33.8,40.7L33.8,40.7L33.8,40.7L33.8,40.7L33.8,40.7L33.8,40.7z
	 M33.9,41.2l0.1-0.1l0-0.1h0v0.2L33.9,41.2C33.9,41.2,33.9,41.2,33.9,41.2L33.9,41.2z M33.1,41l0-0.1h0.1l0,0h0l0.1,0l0,0L33.4,41
	L33.1,41L33.1,41L33.1,41L33.1,41z M33.7,41.3l0.2-0.2l0-0.1h0v0.1L33.7,41.3L33.7,41.3l0.1,0l0.2-0.2l0,0l0-0.1l0,0h0v-0.1l-0.1,0
	l0,0.1l0,0.2l-0.1,0.1L33.7,41.3v-0.1l0.1-0.1l0-0.1l0,0l-0.1,0l-0.1,0.2l-0.1,0.1v0.1l-0.1,0.1l0,0.1h0L33.7,41.3L33.7,41.3l0,0.2
	l-0.1,0.1h0l0.1,0h0.1C33.5,41.4,33.7,41.3,33.7,41.3L33.7,41.3z M33.5,41.3L33.5,41.3l0.2-0.2L33.5,41.3L33.5,41.3L33.5,41.3
	L33.5,41.3z M42.1,50L42.1,50L42.1,50L42.1,50v-0.2l0.1-0.1l0,0v0h0L42,49.8l-0.1,0.1l0,0.1L42.1,50L42.1,50L42.1,50z M45.2,50.5
	L45.2,50.5v-0.2l0-0.1l0-0.1l0,0l0,0v0l0,0v0.1l0,0v0l0,0L45.2,50.5L45.2,50.5L45.2,50.5L45.2,50.5z M45.3,50.6L45.3,50.6L45.3,50.6
	L45.3,50.6L45.3,50.6L45.3,50.6L45.3,50.6z M46.6,46.1l0-0.1l0.1-0.1V46L46.6,46.1L46.6,46.1C46.6,46.2,46.6,46.1,46.6,46.1
	L46.6,46.1z M46.2,47.1L46.2,47.1L46.2,47.1L46.2,47.1l0.1,0V47L46.2,47.1L46.2,47.1L46.2,47.1z M46.8,48.2l0-0.1v0h0l0,0l0,0l0,0v0
	L46.8,48.2C46.9,48.2,46.8,48.1,46.8,48.2L46.8,48.2z M46.5,48.1L46.5,48.1l0.1,0l0-0.1v0h0v0.1l0,0.1l-0.1,0L46.5,48.1L46.5,48.1
	L46.5,48.1L46.5,48.1z M45.5,49.7L45.5,49.7L45.5,49.7L45.5,49.7L45.5,49.7L45.5,49.7z M46.8,49.4L46.8,49.4L46.8,49.4l0.2,0.1v0
	L46.8,49.4L46.8,49.4L46.8,49.4z M45.4,46.9L45.4,46.9l-0.2,0.2l-0.1,0v0l0,0h0v0.1l0,0l0,0H45l0,0.1v0h0l0,0l-0.1,0h-0.1l-0.1,0.1
	v0.1L44.7,48v0.1l0,0v0.1h0l0,0h0l-0.1,0l0,0.1v0h0.1l0,0l0,0v0.1l-0.1,0l-0.1,0l0,0v0l-0.1,0.1l-0.1,0.1l0,0.1h0v-0.1l0,0.1l0-0.1
	v0l0.1,0l0,0l0,0L44,48.8l-0.2,0.1L43.7,49h0l0.1,0l0.2,0h0.1L44.1,49l-0.1,0.2l-0.1,0.1l-0.2,0.1l-0.1,0.1h-0.1l0,0.1l0,0.1l0,0.1
	l0,0h0.1l0.1,0l0.1,0l0.1-0.1H44l0.1-0.1l0,0v0l0,0.1l0.1,0l0.1,0l0,0.1h0.2l0.1,0l0,0l0,0h0.1h0l0,0h0.1l0,0v0h0.1l0,0h0l0,0h0l0,0
	l0,0v0v-0.1l0,0l0-0.1h0l0,0l0,0.1l0,0l0-0.1l0.1-0.1h0v0.1l0,0.1v0h0.1h0v0L45.5,50l-0.1,0l0,0l0,0h0.1l0,0h0.1l0,0l0,0h0.1l0-0.1
	v-0.1l0,0H46l0,0h0.1l0.1,0h0.1l-0.1,0v0l-0.1,0H46l0,0.1v0h0v0h-0.1h0l0,0l0,0l-0.1,0l-0.1,0.1v0l0,0l0,0h0.1l0,0l0,0h0v0l0,0
	l0.1,0l0,0l0-0.1h0l0-0.1v-0.1h0l0.1-0.1l0,0l0,0h0.1l-0.1,0h0.1l0,0l0-0.2l0-0.1v-0.1l0,0h0l0,0h0l0,0v0.1l0,0.1V50l0,0l0,0.1
	l-0.1,0.1l-0.1,0.2v0.1l0,0v0.1l0,0l0.1,0l0.1-0.2h0l0.1-0.1l0-0.1v0h0.1v0h-0.1l-0.1,0.1v0.1l0,0.1l0,0v0.1l0.1,0v-0.1l0,0h0l0,0.1
	h0l0.1,0v-0.1h0l0-0.1v-0.1h0l0,0l0-0.1l0-0.1l0.1-0.2l0.1-0.1v-0.2v-0.1h0v0l0,0.1l-0.1,0L47.1,50h0l0-0.1v-0.1v-0.1l0.1-0.1l0,0
	l0.1-0.1h0l0,0l0-0.1l0,0h0l-0.1,0h-0.1L47,49.6v0.1l-0.1,0.1v0l-0.1,0l-0.1-0.1v-0.1l0-0.1v-0.1l0,0.1h0l0.1-0.1h0l-0.1,0h0.1h0.1
	l-0.1,0l0,0v-0.1l0,0h0.1l0,0l0.1-0.1l0-0.1h0.1l0,0l0.1-0.1l0-0.1v-0.1v0.1l-0.1,0.1l-0.1,0v0h-0.1v0V49l0,0h0l-0.1,0l0,0v0.1l0,0
	l0,0v-0.1l0,0h-0.1l0.1,0l0.1-0.1l0,0l0,0l0,0l0-0.1l0,0l0,0l0-0.1v-0.1h0l-0.1,0h-0.1h0.1l0,0l0.1,0l0.1,0l0,0h0l0.1,0v-0.1l0,0
	v-0.1l-0.1,0l-0.1-0.1H47l-0.1,0h0v0.1l0,0.1l0,0.1l-0.1,0l0,0v-0.1l0,0l0-0.1l0-0.1h0l-0.1,0.1l0,0.1l-0.1,0l0,0l0,0l-0.1,0l0,0
	l-0.1,0v0.1l-0.1,0l0.1-0.1l0-0.2l0.1-0.1h0l-0.1,0l0,0.1l-0.1,0.1l0,0l0,0v-0.1v0H46l-0.1,0.1h0l0-0.1h0l-0.1,0.1h0v0l0.1-0.1
	l0.1-0.1l0-0.1h0h0l-0.1,0.1l0-0.1l0.1-0.1H46l0,0l0.1,0l0-0.1v0h0l-0.1,0l-0.1,0l-0.1-0.1h0l0,0l0-0.1l0,0v0h-0.1l-0.1,0l0,0.1
	l-0.1,0.1l-0.1,0l0,0.1l-0.1,0l-0.1,0.1v-0.1v-0.1l0-0.1v0l0-0.1l0.1-0.1v0l0,0l0,0l0-0.1l0.1,0l0-0.1l0.1,0v0v0l0-0.1l0-0.1v0.1v0
	l0,0l0.1-0.1l0.1-0.1l0-0.1l0,0h0l0,0v-0.1l0,0l0,0h0.1l0.1,0l0.1,0l0,0l0-0.1v-0.2h-0.1l-0.1,0v0h0v-0.1v0l0,0L46,46.3h-0.1l0,0
	l-0.1,0h-0.1l-0.1,0.1l-0.1,0.1v0.1h-0.1h0v0l0,0L45.4,46.9L45.4,46.9z M41.3,48.1L41.3,48.1l0.3,0.2h0.2l0.1,0l0.1,0.1h0.1l0.1,0
	l0.2,0v-0.1l-0.1-0.1l0,0l-0.1,0l-0.1,0L42,48l-0.2-0.1h0l-0.1-0.1l-0.2,0h-0.2l-0.3-0.1l-0.1,0l-0.1,0l0,0.1l0.1,0l0.2,0.2
	L41.3,48.1L41.3,48.1L41.3,48.1z M41.4,51l-0.2-0.1l0-0.1l-0.3,0l-0.1,0v-0.1l0-0.1h0l0-0.1l-0.1,0v-0.1l0,0h-0.1l0,0l0-0.1l0.2-0.2
	l0,0.1l-0.1,0.1v0l0,0.1v0.1l0.1,0v-0.1h0.1l0.2,0.1h0.1l0,0h0.2l0,0l0.1,0h0.2l0,0l-0.1,0l0,0.1v0.1l0,0.1L41.4,51L41.4,51z
	 M42.3,51.4L42.3,51.4l-0.2-0.2v-0.2l0-0.1l0-0.1l0.2-0.1l0.1-0.2l0-0.1l0.1-0.1l0.2-0.1l0-0.1h0.1v0l0,0.1h0.1v0.1l-0.1,0.2
	l-0.1,0.1l0.1,0l0,0.1l0,0.1l0,0l0.1,0v-0.1l0.1,0l0.1,0l0,0.2l0,0l-0.1,0l-0.1,0l-0.2,0l-0.2,0.2h-0.1l0-0.1L42.3,51.4L42.3,51.4
	L42.3,51.4L42.3,51.4z M32.5,43.8v0.1l0,0l0,0L32.5,43.8L32.5,43.8L32.5,43.8L32.5,43.8z M32.4,45.2L32.4,45.2l0.1-0.1l0,0l0,0.1
	L32.4,45.2L32.4,45.2L32.4,45.2z M31.3,44.2l0.1-0.2h0.1v-0.1l0.1,0h0.1l0,0h0.1l0.2,0.1l0,0.1l0,0l0,0.1l-0.3,0l-0.1-0.1h-0.1v0.1
	v0l-0.1-0.1v0L31.3,44.2L31.3,44.2L31.3,44.2z M5.3,44.7l0.1,0.1L5.5,45l0,0.1l-0.2-0.2L5.3,44.7L5.3,44.7z M5.1,44.4l0-0.2l0.1,0
	L5.1,44.4L5.1,44.4z M4.4,43.8l0.2,0.1v-0.1H4.4L4.4,43.8z M3.3,43.3l0,0.2h0l0,0.2l0.3,0l-0.1,0.1H3.5l-0.1,0.1l0.1,0l-0.1,0.2l0,0
	l0.2,0v0.1h0.1v0.1l0.1,0.1L4,44.4l-0.2,0.2l0.1,0.2l0.1,0v-0.1l0.2,0l0,0.2L4,44.8v0.1l0.1,0l0,0.2l0.2,0v0.1h0.1l0,0.1l0,0.1
	l0.2,0.1l0.1-0.1l0,0.1h0.1l-0.2,0.2l0.2,0.2l0.1,0L5,46l0.4,0.2l0.1,0h0.1l-0.1-0.3l0-0.2l0-0.1l0-0.2l-0.1-0.2L5.1,45l0-0.4
	l-0.2-0.2v-0.2l-0.1-0.1H4.7L4.5,44H4.4l-0.2,0l0-0.1L4,43.7l-0.1-0.1l0-0.1H3.7l-0.1-0.1l-0.1,0l0,0L3.3,43.3L3.3,43.3z M4.5,43.6
	L4.5,43.6l0.1,0l0.1,0l-0.1,0.1L4.5,43.6L4.5,43.6L4.5,43.6z M4.3,43.5L4.3,43.5l0.1,0L4.3,43.5L4.3,43.5z M3.6,40.7v0.2l0.1,0
	L3.6,40.7L3.6,40.7z M4,42v-0.1l0,0l0,0L4,42L4,42L4,42z M3.9,42.5L3.9,42.5l-0.1,0.2l0.1,0.1l0-0.2L3.9,42.5L3.9,42.5z M4.1,42.3
	l0.1-0.2l0,0l-0.2,0.1l0,0.1h0C3.9,42.3,4,42.3,4.1,42.3L4.1,42.3z M4.2,42.2L4.3,42h0.1l0.1-0.1l0.2,0v0.1L4.5,42H4.4L4.2,42.2
	L4.2,42.2L4.2,42.2z M4.1,41.5v-0.2l0.1-0.1l0,0.1l-0.1,0L4.1,41.5L4.1,41.5L4.1,41.5z M3.8,41.4L4,41.5l0-0.1l0-0.1L3.8,41.4
	L3.8,41.4z M3.6,41.1v0.2l0.1,0v0.1l0.1-0.1l0-0.2L3.6,41.1L3.6,41.1z M3.7,41L3.7,41L3.7,41l0,0.2h0.1L4,41l-0.1,0.2v0.1L4,41.2
	l0-0.3l-0.2-0.1l-0.1,0L3.7,41L3.7,41z M3.7,40.7L3.7,40.7h0.1H3.7L3.7,40.7L3.7,40.7z M3.9,40.5l0-0.2l0.1-0.1h0.1l0,0.1L3.9,40.5
	L3.9,40.5L3.9,40.5z M3.2,40.1l0.2,0.3l0.1,0.2l0,0.1l-0.1,0v-0.2l-0.2-0.2l0-0.1C3.1,40.2,3.2,40.1,3.2,40.1L3.2,40.1z M3.4,40v0.2
	l0.1,0.2v0.2l0.1,0.1v-0.2l-0.1-0.2L3.4,40L3.4,40L3.4,40L3.4,40z M3.2,39.8h0.2v0.1h0.1l0-0.2l-0.1-0.1L3.2,39.8L3.2,39.8L3.2,39.8
	z M1.9,39.9l0-0.2L2,39.3l0.2,0l0,0.2l0.1,0l0.1-0.1l0.1,0v0.1v0.2l-0.1,0.1l-0.2,0.1l0.1,0V40l0.2,0l0.1-0.2l0.2-0.2l0.2-0.1h0
	l-0.2,0.2l0,0.2L2.4,40v0.2l-0.2,0.1H2.1L2,40.5h0.1l0.1,0h0.2v0.2H2.2l-0.1,0.2l0,0.1l0,0.2l0.1,0.2l0,0.2h0.1l0,0.1l-0.1,0.1
	l-0.2,0l-0.2-0.4V41l0-0.1l-0.2,0l0-0.1l0-0.1H2l-0.1-0.1l-0.1,0l0.1-0.1l-0.1-0.1v-0.1h0.1l0,0v-0.1L1.9,40l-0.1,0v-0.1H1.9
	L1.9,39.9z M3.4,39.2l0-0.1l0.1,0L3.4,39.2L3.4,39.2L3.4,39.2z M16.3,19.8L16.3,19.8l0.1,0v0l0,0L16.3,19.8L16.3,19.8L16.3,19.8z
	 M15.1,18.6L15.1,18.6l0.2,0v-0.1L15.1,18.6L15.1,18.6L15.1,18.6z M10.6,19L10.6,19l0.2,0h0C10.7,19,10.6,19,10.6,19L10.6,19z
	 M10.6,19.2L10.6,19.2l0-0.1L10.6,19.2L10.6,19.2L10.6,19.2z M10.4,19.6v0.2L10.3,20l0,0.1h0.1l0.1-0.1h0.1l0.4-0.4l0.2-0.1l0.1-0.2
	l-0.1,0l-0.1,0l0-0.2h-0.1L11,19.4l-0.1,0l0,0.1h-0.1l0,0l0,0.1l0-0.1l0-0.1l-0.1-0.1l-0.1,0.1l0,0l0,0.1L10.4,19.6L10.4,19.6z
	 M9.9,20l0-0.1v-0.2l-0.1,0.1l0,0.1l0,0l0,0C9.8,20,9.9,20,9.9,20L9.9,20z M10,20.1L10,20.1l0.1-0.1l0-0.1v-0.2l0.1-0.1l0.1,0v-0.1
	l0.1,0l0,0.1v0.3L10.2,20l0,0.1l-0.2,0.1L10,20.1L10,20.1z M10.2,20.7l0.1-0.1l-0.1-0.2v-0.2H10L9.9,20H9.8v0.1l0.2,0.2l-0.2,0v0.1
	l0.1,0.1L10.2,20.7L10.2,20.7z M8.7,18.4l0.1,0.2l0.1,0L9,18.6l0,0l-0.1-0.2L8.7,18.4L8.7,18.4L8.7,18.4z M6.1,45.6L6.1,45.6
	L6.1,45.6L6,45.3l0.1-0.2l0-0.2L6,45l-0.2,0l-0.2,0.1L5.6,45v-0.1h0.1l0,0.1h0v-0.1l0-0.1l0-0.1H5.6l-0.1,0l-0.1-0.1l-0.1-0.2v0
	l0.2-0.1l0.1-0.2L5.6,44l0,0l-0.1,0H5.3l0,0l0.1-0.1l0.1-0.2v-0.2l0-0.1v-0.1l-0.1,0l0,0.1v0.2L5.3,44H5.2l-0.1,0l-0.1,0v-0.1l0,0v0
	L5,43.8l0,0.1h0l0-0.1H4.8l-0.1,0l-0.1,0v0l0.1-0.1h0.1l0.2,0l0.2-0.1l0-0.1v-0.1v0.1l-0.1,0.1L5,43.6l-0.1,0l-0.2,0l0-0.1H4.6v0
	l0.1,0l0,0l-0.2,0l-0.1,0H4.3l0,0.1l-0.2-0.1l0-0.1l0,0l0.1,0l0.2,0l0.2,0v-0.1H4.4H4.3l0,0l0,0l0.1,0l0.1,0v0H4.3l-0.1,0l-0.1,0
	H4.1l0,0l0-0.1l0.1,0l0.1,0h0.1l0.1-0.1H4.3l-0.1,0H4.1v0l0.2,0l0.1,0l0.1,0l0,0v-0.1l0.1-0.1h0.2l0.1,0l0,0l-0.2,0l0-0.1h0
	l-0.1,0.1l-0.1,0l-0.1,0l0,0v-0.1v-0.1l0-0.1l0.2-0.1l0.1-0.1l0.3-0.2l0.1,0l0,0.1v0.2l0.1,0.1l0,0l0-0.2v-0.2l0.1,0h0.2l-0.1,0H4.9
	l-0.1,0l0-0.1l0-0.1l0.1,0l0.1-0.1l0.1-0.2l0-0.1l0,0l0,0.1l-0.1,0.1H4.8l-0.1,0.2l-0.2,0.1l-0.2,0.1l-0.1-0.1l0,0l0.1,0l-0.1,0
	l-0.2,0.1l-0.1,0l0,0l0.2-0.1l0.1,0h0.1l0,0v0l-0.1,0l0,0l0,0l0,0l-0.1,0h0l0-0.1v-0.3l-0.3-0.1v-0.1l0-0.1h0.2l0.1,0h0.2l0.1,0.1
	l0-0.1l-0.1,0H4.5l-0.1-0.1l-0.1-0.1v0l0.1-0.1l0.1,0l0-0.1V40h0l-0.1,0.1l-0.1,0.1l-0.2,0l-0.1,0.1l0,0.1H3.8l-0.1-0.2l0-0.2l0-0.3
	l0-0.2v-0.1H3.6v-0.2l0.1,0l0,0l0.1,0l0-0.1l0.1-0.1L4,38.9l0.1,0l0.1,0l0.1,0H4.2v0l0.2-0.2l0.1-0.1l0.2-0.1v0H4.5l0-0.1l-0.2,0.1
	l0,0.1l-0.2,0.2h0v-0.1l0.1-0.2l0-0.2L4.3,38l0-0.1h0v0v-0.1l0,0v0l0,0l0-0.1l-0.1,0v-0.1l-0.1-0.1l-0.1-0.1L4,37.1L4,37l-0.1-0.2
	l-0.1,0H3.6v0l0-0.1v-0.1l0,0l0-0.1l0.1-0.1h0v0l-0.1,0H3.6v-0.1l0.1-0.1l0-0.4v-0.4l0-0.4l0-0.1v-0.1l0-0.1v-0.1l0-0.1l0-0.2
	L3.4,34l0-0.2l0-0.1l-0.1-0.4l0-0.1L3.4,33l0-0.1v-0.1l-0.1-0.1H3.1l-0.2,0.1l0,0l-0.2,0.1L2.4,33l-0.2,0.3l-0.2,0.1l-0.2,0l-0.2,0
	h0v-0.1l0.1-0.2l-0.1-0.2l-0.2-0.7L1.3,32l0-0.2l0.1-0.3l-0.3,0l-0.2,0.1l-0.1-0.1H0.3l7.4-13.4l0,0.1h0.1l0.4,0.2h0.1l0.1,0.1
	l0,0.1h0l0.1,0.1v0.1L8.8,19l0,0.1v0l0,0.2l0,0.1l0,0l0,0l0,0v0.2l0,0.2L9.1,20l0.1,0.1l0,0l0.1,0v0.1l0.1,0h0l0.1,0.2v0.2l0.1,0
	l0,0.1h0.1L10,21v0.1l0.1,0l0,0.1l-0.1,0.2l-0.1,0.1l0.3-0.2l0.1,0l0,0l0-0.2l0-0.4v-0.2l0.1-0.1l0.2-0.1l0.2-0.1l0.1-0.1l0.1,0
	l0-0.1H11l0.1,0h0.2h0h0.1l0,0l0.2-0.2l0-0.1h0.1l0.1,0l0.1,0v0H12l0,0.1l0.4,0l0.3-0.1l0.1-0.1h0l0.1,0.1l0.1,0l0-0.1l0.2-0.1h0.1
	l0,0h0.1l0,0.1l0.1,0v-0.1l0-0.1l0.1,0v0.1l0.1,0l0,0h0l0,0.1l-0.3,0.1l-0.2,0.1L13.1,20L13,20h-0.1l-0.1,0.1h-0.1l0-0.1l-0.2,0.1
	h-0.2l0,0H12l-0.1,0l-0.1,0.2l-0.3,0.1v0l-0.2,0.1l0,0.1l-0.1,0l-0.1-0.1L11,20.7l-0.1,0.1h-0.1l-0.1,0.1l0.1,0.2l0.1,0.1L10.9,21v0
	l0.1,0l0.1,0l0.1,0l0.2-0.4l0.2-0.2l0.2,0h0.1l0.3-0.2l0-0.1l0.1,0l0.1,0.1l0.1-0.1h0.1v0l0.2-0.1l0,0.1l-0.2,0.2v0.1l0.1-0.2l0.2,0
	l0.4-0.3h0.2l0.2-0.1h0.2l0.1-0.1h0.1l0,0.1l-0.2,0v0.1l0.1,0.1l0.2-0.2l0.3-0.1h0.1v-0.1l0.1-0.1l0.1,0v-0.1l0-0.1l0.1,0.1l0.1,0
	l0-0.2l0-0.1l0.1-0.1L15,19l0.1-0.2l0.2-0.1v0.2l0,0.5l-0.1,0.1v0.4l-0.1,0.2v0.6l0,0.2l0.1,0l0.1,0.2l0.2-0.1l-0.1-0.1h-0.1l0-0.1
	l0.1-0.1l0.1,0l0-0.1l-0.1,0l0.1-0.1h0.2v0.1l0.1-0.1l-0.1-0.2h0.1l0.2-0.2V20l0.2,0l0,0.2v0.1l-0.1,0.1v0.1l-0.1,0.1v0.1l0,0l0.1,0
	l0,0.1l0,0l-0.1,0L16,20.9h-0.1l0,0.1l-0.1,0.1l0.1,0.1l0.2,0l0.1,0.1h0.1l0.1-0.1l0.1,0l0.1-0.2l0.2-0.2l0.1,0l0.1,0.1h0.1l0.1,0.1
	h0.1l0.2,0.1h0.1v0.1l0.1,0.3v0.2l0.2,0.2l0.5,0.3l0,0.1l0.2,0.1l0.2,0.2h0.1l0.1,0.1l0,0.1l0.1,0l0.1,0l0,0.1l0.2,0.1h0.1v0.1
	l0.1,0.1l0-0.1l0-0.1l0-0.1l-0.1-0.1v-0.1l0.2,0.1l0,0.1h0l0-0.1h0l0.2,0.2l0,0.1l0.1,0l0.1,0.2l0.1,0.1v0.2l0,0.2l0,0.1V24
	l-0.1,0.1L20,24h-0.2v0l0,0L19.7,24h-0.1l0,0.1l-0.1,0.1v0.1h-0.1l-0.1,0l0,0.1l0.1,0l0,0.2l0.1,0.1l0.1,0l0.2,0.1v0.1h0.2l0.2,0.1
	h0.2l0.3,0.1h0.2V25h0.1l0.1,0.1v0.1l0.2-0.2l0.1,0.1h0.1l0.1-0.1h0v0l0.1,0l0.2-0.1l0.4-0.1l0.1,0v0.1l0,0.1v0h0v0.1v0.1l0,0.1l0,0
	l0.1-0.1l0.1,0.1v0.1l-0.1,0.2l0,0.1l0,0l0.1-0.1v-0.2l0-0.1h0v0.2l-0.1,0.2L22.5,26v0.2l0.1,0.1v0.2l0,0.2l0.1,0.1v0.1l0,0.1l0,0.1
	l0.1,0.2l0,0.4v-0.4L22.7,27l0-0.3l0.2-0.3H23v0.1h0v0.1l0,0l0.1,0l0,0l0,0v-0.1l-0.1-0.1v-0.1l0.1,0l0-0.1l-0.1-0.1V26l0-0.2
	l0.1-0.3l0-0.1v-0.1l0.1-0.1h0.2v0l0-0.1h0.1l0,0.1l0.1,0l0.1-0.1h0V25l0.1,0l0.1,0l0.1-0.1h0.1l0,0.1h0l0,0.2v-0.2l0-0.1l0.1-0.2
	h0.1l0,0h0.1l0.1,0l0.1,0l0.2-0.2l0-0.1l0.1-0.1h-0.1v0h-0.1l-0.2,0.1h-0.1l0,0.1h-0.1v0.1l0,0.1l-0.1-0.1v-0.1l-0.1,0l0,0.1l-0.1,0
	l-0.1-0.1h-0.1v0l-0.1,0v0.1l0.1,0.1v0.1l-0.1,0l0,0l-0.2,0l0-0.1l0.1-0.1l0-0.1h0l-0.1,0l-0.1,0l0-0.1l0.1-0.1l0.2-0.2h0.1l0.1,0
	h0.4l0.3-0.1h0.1l0.2,0l0,0.1l0.1,0.1h0l0,0.1l0,0.2l0,0.1l0,0v0l-0.1,0.1v0l0,0l0,0.2h0.1l0.1,0v0.1l-0.1,0.1v0.1l0,0.1h0.1l0.1,0
	l0,0h0l0.1,0.1h0.1l0.1-0.1l0,0v0.1l0,0l0,0l0.1,0.1l0,0v0.1l0,0l0,0.1l0.2,0.2v0.1l0.1-0.1l0,0v0.1h0l0.1,0.1l0.2-0.1h0.2l0.1-0.1
	l0.2-0.1h0l0,0.1h0.2l0.2,0.2l0.1,0l0.1,0.1l0,0l0.2,0l0.1,0.1l0.1,0v-0.1L28,26.2l0-0.2l0,0H28l0.1,0.2l0,0.2l0.2,0.2l0.1,0.1
	l0,0.2v-0.2l-0.1-0.1l-0.2-0.1l0-0.2l-0.1-0.2l0-0.1h0v0.1l0,0l0.1,0v-0.1l0-0.1l0-0.1l0-0.1l0-0.1h0.1l0.1,0.1v0.1l0,0l0,0l0.1-0.1
	l0-0.1h0.1l0,0.1l0,0.1v0.1l0-0.1h0.1l0.1,0.1v0.2l0,0.1l0.1,0.1l0.1,0l0.1,0l0,0.1l-0.2,0l0,0l0.1,0l0.2-0.1l0.1-0.1l0.2,0h0.1v0
	l-0.1,0l-0.1,0.1v0.2l-0.2,0.1v0.1L29,26.7v0.1l0,0.1l0-0.1l-0.1,0.1l0,0.2v0.1l0.1,0H29v0.1l-0.1,0.1v0.1l0.2,0l0.1-0.1h0.1
	l-0.1,0.1L29,27.5l0.1,0l0.1,0l0,0.2v0.1L29,27.8l-0.1,0l0-0.1l-0.2,0.1l0-0.2h0l0,0.2l0.1,0.1l0,0.2l0,0.3l0.1-0.2l0-0.2l0.1-0.1
	l0.1,0.1H29l0.1,0.1l0.1-0.1v-0.2l0.2,0l0.1-0.1h0.1l0.1-0.1l-0.1,0.1h-0.1l0,0.1l-0.1,0h0l0-0.2l0.1-0.1l0-0.1v-0.1l0.1-0.2v-0.1
	l-0.1-0.1l0,0l0.1-0.2l0-0.2l0.1-0.1l0,0l0,0l0.1,0l0.1-0.1l0,0h0l0,0.1l0.1,0l0.1-0.1l0.3-0.1l0-0.1v-0.1l0.1,0l0.1-0.1h0.2
	l0.1-0.1v-0.1l0-0.2l0.1-0.2l0-0.1l0,0l-0.1,0h-0.1l0,0l0,0.1l-0.1,0l-0.1,0h-0.1l0,0l0.1-0.2h0.1l0.1-0.1L31,25v-0.1l-0.1,0
	l0.1-0.1l0.2,0l0.2,0l-0.1,0.1v0.1l0,0l0.1-0.1l0.1-0.2v-0.1l-0.1,0h-0.1l-0.1,0l-0.2,0L31,24.3l0-0.2l-0.1,0.1h-0.2l-0.1-0.1
	L30.6,24l0-0.2l0,0h-0.1l0-0.1l0,0l0-0.1v-0.1l0-0.1v-0.3l0.1-0.1l0.2-0.2l0.1,0h0.1v0l0.1-0.1v-0.1h-0.1l-0.1,0.1l-0.1,0v-0.1
	l0-0.1v-0.1l0.2-0.2l0.1-0.2l0.1,0l0.1-0.2h0.1l0.1-0.2l0.2-0.1l0.1,0.1l0,0.1l0.1,0.1l0,0.1l0.1-0.1v-0.1l0.2-0.2v0h-0.1l-0.1,0
	l-0.1-0.1l0.1-0.1h0.2l0-0.1l0.2-0.1v-0.1l0.1,0l0.2,0l0.2,0v0.1l0,0l0.1,0l0.1,0.1l0.1,0.1l0,0.1l0,0l0,0.1v0.1l0.1,0.1l0,0.1
	l0,0.2l0.1,0v0l-0.1,0.1v0.1l-0.1,0.2v0.2l-0.1,0l0,0.1l0,0.1l0.1,0.2V23l0,0l0,0.1l0,0.1v0.1l0.1,0l0.1,0.1v0.1l-0.1,0.1l-0.1,0
	l-0.1,0l-0.1-0.1l0-0.1l-0.2,0.1l0,0.1l-0.1,0v0l0.2,0l0.1,0.1v0.1L32,24.2H32v0.1l-0.1,0l0,0.1l0.1,0.1l0.1,0l0.1,0v0.1l0.1,0.1
	l0.2,0l0-0.1l0.1,0l0,0l0,0v0l0.1,0l0.1,0.1l0.1-0.1l0.1,0l-0.1,0.1h-0.1L32.6,25l0,0l0-0.2h0l0,0v0.1l0.1,0.1v0.1l0.1,0.2v0.2l0,0
	v0.1l-0.1,0v0.1v0.1l-0.2,0.2l0,0.1v0.1l-0.1,0v0.1h0.1l0.1-0.1l0-0.1l0.2-0.1l0,0l0,0l0.1-0.1l0.1,0l0,0v-0.2l0-0.1l0.2-0.1
	l0.2-0.2l0-0.1h0l0,0l0,0.1l0.1,0.2l0,0.2l0.1,0.2v0.1l0,0.1l0,0.2l-0.1,0.1l-0.1,0l-0.1-0.1l-0.1,0.1l0,0.1l0,0.1L33.3,27l0,0.2
	l0,0.1v0.2l0.1,0.4l0.1,0.2l0,0.1l0.1,0.1h0.1l0-0.2l0,0l0.1-0.1h0.1l0.1,0.2h0.1l0-0.2l0.1-0.1v-0.2l0.1,0l0.1-0.2h0l0.1-0.1
	l0.2-0.2l0.2-0.2l0.1-0.3l0.1-0.2l0.1-0.1l0.1,0.1l0.1-0.1l0.1,0h0.1v-0.1h-0.1l-0.1-0.1l0-0.1h0.1l0.1,0l0,0h0.1l0,0l0-0.1h0l0-0.1
	h-0.1v-0.2l0.1-0.1v-0.1h0.1l-0.1-0.1v-0.1l0.1-0.1l0,0v0h0.1l0-0.1l-0.1,0l0-0.1h0.1l0,0.1h0.1l0.1,0h0.2l0.2,0.1v0.1l0,0.1
	l0.2,0.1l0.1-0.1l0.1,0.1l0.2,0.1v0.1l-0.1,0l0.1,0.1l-0.1,0l-0.1-0.1h-0.1v0.1l0.3,0.2v0.1l-0.1,0l0.1,0l0.1,0l0.2,0l0,0.1l0.1,0
	l0,0l-0.1,0.1l-0.2,0.2l-0.1,0l-0.1,0h0.2l0.1,0v0.1h0l0,0l-0.1,0.1l0,0L37.1,27l-0.2,0h-0.1l0,0.1l-0.1,0l-0.1-0.1h-0.1l0-0.1h-0.1
	v0.1l0,0l0.1,0l0.1,0.1l0,0.1l-0.1,0.1h0.1l-0.1,0.1v0.1h0l0.1-0.1h0l0,0.1l-0.2,0.1l0,0.1l0,0.1l0.2,0.1l0,0.1l0.1,0.3v0.2l0,0v0.1
	l-0.2,0.2l0,0.1l0,0.1l-0.1,0h-0.2l-0.1,0l0,0.2l-0.1,0.1l0,0.1h-0.1l-0.2,0.2l-0.1,0h-0.1l-0.1,0.1L35,29.6l0,0l0-0.1l0-0.2
	l-0.1-0.1v-0.1l0.1,0V29l0.1-0.2L34.9,29h0v-0.3l0,0l-0.1-0.1l-0.1,0.1l0,0h-0.1l-0.1,0.2h0l0.2-0.1l0.1,0v0.1l0.1,0l0.1,0.2l0,0.2
	l0,0l0,0.2l0,0.1l0,0v0.1h-0.1l-0.2-0.2v-0.1l-0.1,0l0-0.1l-0.1,0.1l0.1,0.1l0,0.1l-0.2-0.1l-0.1,0l0,0l-0.1,0v-0.1l0-0.2l0,0
	l-0.1,0v0l-0.2,0.1h-0.2l-0.1-0.1h-0.1L33.4,29l0,0.1l0,0.1l0,0v0.1l0,0.1l0.2,0l0.1,0.1l-0.1,0.2l-0.1,0L33.2,30l-0.1,0.2l-0.2,0.2
	l-0.1,0l-0.1,0.1l0,0.2l-0.1,0l-0.4-0.1l-0.1-0.1L32,30.2l-0.2-0.1v0h0.1l0,0L31.8,30l-0.1,0l-0.1-0.2l-0.2-0.1h-0.2L31,29.5h-0.3
	l-0.1,0v0.1l0.1,0.1l0,0h0.1l0.3,0.1h0.2l0.1,0l0,0.1h0l0,0l0,0V30h0l0.1,0.3l0.1,0.2l0.2,0.1l0.2,0l0.4,0.1v0.1l0,0L32.3,31l-0.1,0
	L32,31.3l0,0l0,0v0.1l-0.4,0.4l-0.2,0.1l-0.1,0.2l-0.1,0l0,0h-0.1l0,0.1L30.7,32l-0.1,0L30.6,32l0-0.1l0,0l0.1-0.1l0,0l0-0.1
	l-0.1,0.1L30.3,32v-0.1l-0.1-0.2l0,0.2l0.1,0.1v0.2l-0.2,0.2l-0.1,0l0-0.1l-0.1-0.2l0,0.1l0.1,0.1l-0.1,0.1v0.1l0,0l-0.1,0v-0.1
	l-0.1-0.1l-0.1-0.2L29.2,32l-0.2-0.1l-0.1-0.2l-0.1,0l-0.2-0.1l0-0.1v0.2l-0.1,0l0.1,0.2l0.1,0.1l0,0l0-0.1l0,0h0L29,32l0.2,0.2l0,0
	l-0.2,0.1l-0.2,0l-0.1,0l0,0.1v0l0.1,0h0.2l0.1-0.1h0l0.1,0.1l0,0.2l0.2,0.3l0,0.3l-0.2,0.2h-0.1l-0.1,0h-0.2L29,33.1l-0.3,0
	l-0.2-0.2l0-0.2l-0.1-0.1l0,0v0.1v0.1l0.1,0.1l0.1,0.2l0.1,0.2v0l-0.1,0h-0.1l0-0.2l0,0.1l0,0l0,0.1l0.1,0l0,0.1l-0.2,0l0,0v0.1
	l0.1,0.1v0.1l-0.1,0.1l0-0.2h-0.1l0,0l0,0.1l0,0H28l0,0.1L27.8,34l0.1,0.1l0,0.1l0,0l0,0L27.7,34h-0.1v0.1l-0.1,0l0.2,0.1l0,0.1v0.1
	h-0.1l-0.1,0.2l-0.2,0.1l0.1,0.1l0,0.1h-0.1l-0.1,0.1l0,0.1l-0.1,0l-0.2,0.2l-0.1,0v0.1l-0.1,0.1l-0.1-0.1v0.1l0.1,0.2l-0.1,0.1
	l0,0.2l-0.1,0.1l0,0.2l-0.1,0l-0.1,0.2l0,0v0.2l-0.1,0.2l0,0.1l-0.1,0l0,0l0.1,0l0,0.1l0,0.1l0.1,0.1v0.2l0,0L26,38.1l-0.2,0.2
	l-0.3,0.1l0,0.1l0.2-0.2l0.3,0l0.2-0.3l0.2-0.3h0.4l0.1,0v0.1l0,0.1v0.2l0.1,0.2v0.2l-0.1,0.2l0.1,0.1l0,0.2l0,0.1l-0.4,0.4
	l-0.2,0.1l-0.1,0l0.2,0h0.2l0.4-0.2l0.4-0.2l0.2,0l0.3,0.2l0.2,0.2l0.3,0.1l0.1,0.1l0.1,0l0.2,0.2l0.1,0l0.1,0.2l0.1,0.1v0.1
	l0.1,0.1l0.1,0.2v0l0.1,0l0,0.1l0.2,0.2l0.1,0l0.2,0.1l0.1,0l0.2,0.2l0,0.1l0.2,0.2l0,0l0,0h0.2l0,0l0.2,0H31l0.1,0h0l0.2,0l0.2,0
	l0.2,0h0.1v0l0,0h0.1l0,0.2l-0.2,0.3v0.1l-0.1,0.1l-0.1,0.2l0,0.2l0,0v0.3l-0.2,0.2v0.1l0,0.2l-0.1,0.1l-0.1,0.2l0,0.1l0.1,0.1v0.2
	l0.1,0l0.1,0.1l0,0.1v0V45l0.1,0l0.2,0.1h0v0.1l0.1,0.1l0,0.2l0,0.1l0,0.2l-0.2,0.2l0.2-0.1l0.2-0.1l0.2,0l0.1,0.1h0.1l0-0.1v-0.1
	l0.2-0.3h0l0,0.1v0.1h0.1l0,0.2l0,0.2l0.2,0.1l0.2,0l-0.1,0L33,46l0-0.2l0-0.2l0.1-0.1L33,45.4v-0.1l0,0l0.1,0l0-0.2l0.2-0.2l0,0
	v-0.2l-0.1,0v-0.1l0.1-0.2l0-0.1v-0.1l-0.1,0v-0.1l0.1-0.3l0-0.1l0-0.2l0.1-0.1l0-0.1l0,0l0-0.1l0.1,0h-0.1l0-0.1l0.1,0l0-0.1v-0.1
	l0-0.1v-0.1l0-0.1l0.2-0.1l0.2,0l0.1-0.1h0.2l0.1,0l0.2-0.1l0.4-0.2v0l0.1-0.1l0.3-0.1v-0.1l0.2-0.1l0.2-0.3h0.1l0,0h0.1l0.1-0.1
	L35.5,41v-0.2l-0.1,0.1l-0.2,0.3h0l0-0.2l0.1-0.3l0,0v-0.2v-0.2l-0.1-0.2v-0.4l0-0.3l-0.2-0.3L35,39l0-0.1l-0.1,0l0-0.1l0.1-0.2
	l0.1,0l0.3-0.4h0.1l0.1-0.1v-0.1l0,0v0l0.1-0.2h0.1l0.1,0.2l0.1,0l0-0.1v-0.2l0.1,0l0.1-0.2l0-0.1h-0.2v0l0.1-0.2l-0.1,0l0-0.1
	l0.1-0.1l0.1,0l-0.1,0v-0.1l0-0.2l0.1,0h-0.1h-0.2l0,0v-0.1l0.3-0.2l0.2-0.2l0-0.2h0.1l0-0.1v-0.2l-0.1,0v0h-0.1L36,35.3v-0.2
	l0.1-0.2v-0.2l0.1,0l0,0h0.1v-0.1l0.1-0.1h0.1l0.1,0l0.1,0h0.2l0.2,0.1l0.3,0.2h0.2l0,0.1L37.3,35h0.2l0.2-0.1h0.1l0.1,0.1h0.1
	l0.1,0.1V35l0.2,0.1l0.1-0.1h0.1l0.2-0.1l0.2,0.2v0.1l0.2,0.1H39v0.2l-0.1,0.1v0.1l0.1,0l0.1,0.1l0.1,0.1l-0.1,0l0.1,0.1l0.1-0.1
	l0.1,0.2v0.1l-0.1-0.1l0,0.1h-0.1l0.2,0.2v0.1l0.1-0.1v0.1l0.1-0.1l0.2,0.2l0.1,0l0,0.1l0.1-0.1l0.2,0l0,0.2l0.1,0.1l0.2-0.1l0-0.2
	h0.1v0.2l0,0.2l-0.2,0l-0.1,0.2l0,0.3l0,0.1l0-0.2l0,0.1l0,0.2l-0.3,0l-0.3-0.1l0.3,0.2l0.2,0l0.2,0.2v0.2L40,38.4v0.1l-0.1,0.2h0
	l0.2,0.2l0.1,0l-0.1,0l-0.2-0.1l0.2,0.2l0.1,0.1h0l0-0.1h0.1l0.1,0.1l0.1,0.1l0,0.1v0.2l-0.1,0.2l0,0.1L40.2,40l0.1-0.1l0.2-0.3
	l0.2-0.2h0v0.1v0.2l0,0v0.1l0,0.1l0.2-0.2v-0.2l0.1-0.1H41l0.1-0.1h0.1v0l0-0.1l0.1,0v-0.1l0.1-0.1l0.2-0.1l0.1,0.1l0,0.2l0,0.2
	l0.1-0.2v-0.2h0v0l0.1-0.1H42l0-0.2l0.1-0.1l0.1-0.1l0-0.1h0.1l0.1,0.1v-0.1l0-0.1h-0.1v-0.1l0.1-0.2l0.1,0l0.1,0.1v-0.1l0.1,0V38
	l0.1-0.2l0-0.1l0-0.1l0.1-0.2l0.1,0l0,0L43,37.6l0.1,0l0,0l-0.1,0v0.1l0.1,0L43,37.8H43v0H43h0.1l0,0.1l0,0h0.1v0.1l-0.1,0l0,0.1
	l0.1,0.1v0.2l0,0l-0.1,0l-0.1,0l0.1,0.1l0,0.1h0l0.1-0.1v0.1l0.1,0L43.2,39l-0.1,0L43,39l-0.1,0.1l0.1,0l0.3-0.1l0.1,0l0,0.1
	l-0.1,0.1l0.1,0l0.1-0.1v0.2l-0.1,0.2h-0.2L43,39.5l0,0.1l0,0.1l0,0.1l0.2-0.1h0.2l0.1,0l0,0l-0.1,0.1v0l-0.1,0.1h-0.1L43,40.1
	l0.2-0.1h0.1l0.1,0l0.1,0v0.1h-0.1l-0.1,0.1l0,0.1l0.1-0.1l0.1,0l0.1-0.1l0.1,0.1l0,0.2l-0.1,0.1l-0.1,0l-0.1,0h-0.1l0.1,0.1h0.1
	l0,0h0.1l0,0l0,0.1l-0.1,0l0.1,0h0.1l0.1,0.1l0,0.1l-0.1,0l-0.2,0.1l-0.1,0l0,0l0.1,0v0.1h-0.1l-0.2-0.1h-0.2l0.2,0.1v0.1l0.1,0.1
	l0,0.1l0,0h-0.1l0,0.1h-0.2l0.2,0.1h0.1v0l0.2,0h0.1V42l0,0l0,0h0.1l0,0l0,0.1l0,0l0.1-0.1l0,0l0.1,0v0.2l0,0.1v0h0l0.1-0.2h0v0.1
	l0.1,0.1l-0.2,0.1l-0.2,0.2L43.8,43l-0.1,0l0.1,0.1l0.1,0l0.2-0.2h0.1v0.1l-0.1,0.1l0,0.1l0.1,0l0.1-0.2l0.1-0.1l0.1,0v0l-0.1,0l0,0
	l0,0l0.2-0.1l0,0L44.4,43l-0.1,0.1h0l0.1-0.1l0.2-0.2h0l-0.1,0v0.1l0.2-0.1v0.1v0.2l-0.1,0v0.1h0.1l0.2,0.1l0.1-0.1l0.2,0l0.1,0
	l0,0.1h-0.1l0,0l0.3,0.1l0.1,0.1l-0.2,0v0l-0.2,0l0,0l-0.2,0.1l-0.1,0.1h-0.2l-0.3,0v0.1l0.2,0l0.2-0.1l0.1,0v0l-0.2,0l-0.2,0
	l-0.2,0.1L44,44.2h-0.2v0.1l0,0.1l-0.2-0.2L43.4,44v0.1l0,0.1l0.1,0l0,0l0.2,0.2l0,0.1l-0.1,0l-0.1,0.1l0,0.1h0.1l0,0h0.1l0.1-0.2
	h0.2l0.1-0.1h0.1l0-0.1l0.1-0.1h0.2l0.2-0.1H45h0.1l0,0h-0.2l0,0l0.1,0l0.3,0l0.2,0l0.1,0.2v0.1l-0.2,0.1h-0.1l-0.1,0.1h0.2l0,0.1
	l0.1,0l0-0.1l0.2-0.1h0.1l0,0h0v0.1H46l0.2,0.1l0,0.1l-0.1,0h0l0,0.1l0.2,0.1l0,0.1l-0.1,0.1l-0.1,0l-0.1,0.1l0.2,0l0,0.1l-0.1,0
	l0,0.1l-0.1,0l-0.2-0.1l0.1,0.1l0.2,0.1h0.1l0.1,0.1l-0.1,0h-0.1H46l0.1,0.1l0.1,0l0.1,0l-0.1,0.1v0.1h-0.1l0,0.1L46,46h-0.2
	l-0.1,0.1h0l-0.1,0.1h-0.1l0,0.1h-0.1l-0.1-0.1l-0.1,0h-0.1l0,0l-0.1,0.1h-0.2l0-0.1l0,0v0.1l-0.1,0h-0.1l0,0h0v0.1l-0.1,0.1h-0.1
	v0.1l-0.1,0.2h-0.1l0,0l-0.1,0l-0.1,0.1h0l-0.1,0h-0.1l0,0.1l-0.1,0l-0.1,0h-0.2l0,0l-0.2,0h-0.1l-0.3,0.1l-0.1,0l0-0.1l-0.1,0
	l-0.1,0h-0.1L42,47.1h0h-0.2L41.7,47h-0.1l-0.1,0.1h-0.2l0,0.2l-0.1,0.1h-0.1L41,47.2l-0.2,0.1l-0.1,0h-0.1l-0.2-0.1l-0.2,0l-0.2,0
	L40,47.1l-0.1,0l-0.1,0.1l0,0l0,0l-0.1,0l-0.2,0.2l-0.2,0.1v0.1l0,0.1v0.2L39.2,48H39l-0.1,0h-0.2l-0.1,0.2h-0.1l0,0l-0.1,0.1l0,0.1
	l-0.1,0l-0.1,0.1l0,0.1l-0.1,0l-0.2,0.2L37.5,49l-0.1,0.2l-0.2,0.1l-0.2,0.2l-0.1,0l0,0.2l-0.1,0.1l-0.3,0.2V50l-0.3,0.2l-0.2,0h0.2
	l0.3-0.2l0.3-0.1l0.2-0.1l0.2-0.2l0.2-0.2l0.1,0l0.3-0.3l0.4-0.3l0.3-0.2l0.2,0l0.2-0.1l0.3,0l0.4-0.1h0.1l0.1-0.1h0.4l0.2,0.1
	l0.2,0.2v0l-0.2,0v0v0h0.1l0.1,0l0,0.1l-0.1,0l0,0L40.7,49l-0.1,0l-0.1,0.1h-0.1l-0.2,0.1h-0.1L40,49.2l-0.1,0l-0.1,0l-0.1,0l-0.1,0
	l-0.2,0.1l0.2,0h0.2l0.2,0.1l0,0.1l0,0.1l0.2-0.1l0.1-0.1h0.1l0,0h0.1l0,0.1l-0.1,0.1l-0.2,0.3h-0.1L40.2,50h0.2v0l-0.1,0.1l0.1,0.1
	v0.1v0.2l0,0l0.1,0.2h0.1l0,0h0.2l0,0.1l-0.2,0l0.2,0.1h0.2l0.1,0l0,0l0.2,0.1l0,0.1l0.2,0l0,0l0.2-0.1v0.1l0,0l0.2,0l0.2,0.1v0.1
	l-0.1,0h0l0.1,0.1h0.1l0,0.1l-0.1,0l-0.1,0h-0.1l-0.2,0l-0.3,0.2h-0.1l-0.2,0l-0.2,0L40.9,52h-0.1v0h-0.2l0-0.1h0l0,0.1h-0.1
	l-0.1,0.2l0,0.1l-0.2,0.2L40,52.7l-0.1,0l-0.2,0.1h-0.1l0,0V53l0,0l-0.1,0l-0.1,0L39.3,53v-0.2l-0.1,0l-0.1,0v-0.1l0-0.1v-0.2
	l0.1-0.2l0.2-0.1l0-0.1l0.2-0.1l0.3-0.1l0.2-0.2l0.2,0l0.1,0l0,0.1l0.1,0v0v-0.1l0.1,0l0.2,0l0.2-0.1h-0.2l-0.3,0l-0.1,0h-0.1
	l-0.1,0.1l-0.2,0l0.1-0.2l0.1,0l0.1-0.1v-0.1l-0.1,0v-0.1l-0.1,0.2l-0.1,0L40,51.4h-0.2l0,0.1l-0.3,0.1l0,0l0-0.1h0l0.1-0.1
	l-0.1,0.1l-0.1,0.1l-0.2,0l-0.1,0L39,51.7h-0.1l0-0.1h-0.2l-0.2,0l0,0l0,0l0,0v0v-0.1v-0.1l0-0.1l0-0.1h0l0-0.1l0.1-0.8V50l-0.2-0.2
	l0,0l-0.2,0l-0.1,0l-0.1-0.1l-0.1,0h0l-0.1,0.1l0,0.1l-0.4,0.2l-0.1,0.2v0.1L37,50.4l0,0.2l0,0.2l-0.2,0.2l-0.1,0l-0.2,0.2l0,0.1
	l-0.1,0l-0.1,0h-0.1l0,0h0l-0.2,0.1l-1.9,0l-0.2,0l-0.1,0.1l-0.2,0.1l-0.1,0.1L33.1,52l-0.2,0l-0.1,0.1l-0.5,0.4l-1.2,0.4l0,0.3
	l-0.3,0.1l-2.2,0.6l-0.1-0.2l0.1-0.2l0.2-0.1l0.1-0.1l0.1-0.1l0.1-0.2l0-0.8l-0.4-1.9l-0.4-0.3l-0.2-0.2l-2.5-1.2l-0.1-0.1l-0.2,0
	l-0.1-0.1H25l0-0.1l-0.1,0l-0.1,0.1h-0.2l-0.1,0l-0.1-0.1l-0.1,0L24.1,48L24,47.8H24l-0.2-0.1h-0.1l-0.1,0l-0.1,0h0l-0.1-0.1l-0.1,0
	l0,0l-0.1,0l0,0l-0.1-0.1v0l-0.2-0.1h-0.2h-0.1L6.1,45.6z"/>
</svg>
