<?xml version="1.0" encoding="utf-8"?>
<!-- Generator: Adobe Illustrator 19.2.0, SVG Export Plug-In . SVG Version: 6.00 Build 0)  -->
<svg version="1.1" id="Layer_1" xmlns="http://www.w3.org/2000/svg" xmlns:xlink="http://www.w3.org/1999/xlink" x="0px" y="0px"
	 viewBox="0 0 56 56" style="enable-background:new 0 0 56 56;" xml:space="preserve">
<style type="text/css">
	.st0{fill:#FDC414;}
</style>
<polygon id="Democratic_Republic_of_the_Congo" class="st0" points="0.6,33.6 1.1,33.3 1.6,33.1 2,32.9 2,31.8 2.2,31.4 2.7,31.1 
	3.5,30.3 3.8,30.3 4.2,30.2 4.4,30.5 4.4,30.7 4.9,30.7 5.3,30.3 5.3,29.8 5.7,29.8 6,29.8 6.6,29.4 7.5,29.1 7.5,29.3 7.1,30 
	7.3,30.2 7.5,30.5 8.2,30.9 8.8,30.7 9.3,30 10.4,28.9 10.6,28.5 11.1,28.2 11.5,28.2 12,27.2 12,26.9 12.2,26 12.2,24.5 12.2,24.1 
	12,23.4 12.4,22.9 13.1,22 13.1,21.2 13.7,20.5 14.4,20.1 14.8,20.3 15.3,19.8 15.9,19.8 16.8,18.1 16.8,17.2 17,16.3 17.5,16.1 
	17.5,15.2 17.3,15 17.5,14.3 17.5,13.9 17.5,13 18.1,12.5 18.1,11.9 18.2,11.2 17.9,10.3 19.2,8.6 19.3,8.1 19.9,7.9 19.9,6.6 
	19.5,6.1 19.5,5.5 19.7,5.2 19.9,4.8 19.5,4.3 19.5,3.9 19.9,3.9 20.1,3.7 20.1,3.4 20.4,3.2 20.4,2.6 20.6,2.4 21,2.4 21.3,2.1 
	21.9,2.1 21.9,1.9 22.3,1.9 22.6,2.3 23,2.3 23.9,3 24.3,3.2 25,3.7 25.2,3.9 25.9,3.9 26.4,4.3 27.2,4.3 27.5,4.3 27.9,4.1 
	28.3,4.3 28.8,4.4 29.4,4.4 29.7,4.6 30.5,4.4 30.5,4.3 30.3,4.1 30.1,3.7 30.6,3.2 31,2.8 31.6,2.8 32.1,2.8 32.5,3.2 32.8,3 
	34.1,3 34.3,2.6 34.7,2.4 35.9,1.9 36.3,2.1 36.3,2.3 36.5,2.3 36.7,2.6 36.8,2.6 37.2,2.3 37.9,2.3 38.3,2.3 38.7,2.3 39,1.7 
	38.9,1.5 39,1.2 39.4,1.2 39.6,1.5 40.3,1.5 40.7,1.5 40.9,1.7 41.2,1.7 41.8,2.1 42.9,2.1 42.9,2.1 43.8,1.7 44.5,1.7 45.1,2.1 
	45.2,2.3 45.2,2.6 45.6,3 46,3.2 46.3,3.4 46.9,3.9 47.4,4.1 47.8,4.1 48,3.7 48.3,3.5 49.1,3.5 49.4,3.5 49.4,3.7 49.6,3.7 
	50.3,3.5 50.5,3.2 50.9,2.8 51.4,2.8 51.6,3 52,3.7 52.3,4.1 52.5,4.4 53.3,4.6 53.6,4.8 53.8,5.4 54,5.5 54.2,6.1 54.2,6.3 
	54.4,6.3 55.1,6.3 55.3,6.5 55.1,7 54.7,7.4 54.7,8.1 54.7,9.2 54.5,9.9 54.9,10.1 55.1,10.5 55.4,11 55.3,11.2 53.8,13.2 
	52.9,14.3 52.7,14.7 51.6,16.7 51.4,17 51.4,17.8 51.3,18.9 50.9,19.8 51.1,20.5 50.2,21.2 49.6,21.8 49.2,23.6 49.2,24.3 
	49.6,24.9 49.6,25.6 49.6,26.3 50.5,32.2 51.3,35.5 53.3,38.2 53.8,40.6 53.4,40.4 48.9,41.5 47.6,43.7 47.8,44.4 48.2,44.6 
	48.3,44.8 48.3,45.1 48.2,45.3 48.2,45.7 48.2,46 48.2,46.6 48.2,47.1 48,47.3 48,47.5 47.8,47.7 47.2,48.2 47.2,48.6 47.2,50.2 
	47.2,51 47.6,51.3 48.5,52 48.5,52.6 48.9,52.8 50,53 50.2,52.8 50,52.6 50,52.2 50.5,52 50.9,52.2 51.1,55.3 50.9,55.5 50.5,55.5 
	50.5,55.3 50.2,55.1 49.8,55.3 49.2,55.5 49.1,55.5 48.3,55 47.8,54.2 47.2,53.9 46.7,53 46,52.6 45.1,52.2 44.3,51.9 44.3,51.5 
	43.8,51.1 43.8,50.2 43.6,50.2 43.2,50.2 42.9,50.4 42.7,51.1 42.7,51.5 41.8,51.7 41.2,51.7 41.2,51.5 40.7,51.3 39.9,51.3 
	39.4,51 39,50.8 38.5,50.6 38.3,50.6 38.3,50.4 38.3,50 38.1,49.7 38.1,49.1 37.9,49.1 37.2,49.3 37,49.5 36.5,49.5 36.1,49.7 
	35.9,50 35.8,49.9 35.6,49.7 35.6,49.1 35.4,48.9 35,48.9 34.7,48.9 34.5,48.8 34.5,48.6 33.9,48.8 33.4,48.9 32.8,49.1 32.7,49.1 
	32.3,49.3 32.1,49.3 31.4,49.1 31,49.1 30.6,48.8 30.3,48.8 30.3,48.9 29.9,48.9 29.7,49.1 29.4,49.3 29.4,49.1 29.4,48.4 
	29.6,48.2 29.6,48.2 29.7,47.7 29.4,47.5 29.2,46.9 29.4,46.8 29.4,46.4 29,46 29,45.7 29.2,45.3 29.2,44.9 28.8,44.9 28.6,44.6 
	28.5,44.6 28.5,44.2 28.3,43.8 28.3,43.5 28.1,43.3 28.3,42.7 28.3,41.7 28.1,41.3 28.3,41.1 28.3,40.9 28.3,40.6 28.1,40 
	28.1,39.6 28.5,39.1 28.5,38.7 28.5,38.2 28.3,37.8 25,37.6 25,37.5 25.2,37.1 25.2,36.7 24.3,36.7 24.3,36.9 21.5,36.9 21.3,37.8 
	21.2,38.2 21,38.4 21,38.9 21,39.6 18.8,39.8 18.4,40 17.5,40 17.1,39.8 16.6,40 15.9,40 15.5,39.8 15.3,38.9 15,38.4 14.8,38 
	14.6,37.8 14.6,37.5 14.4,37.1 14.2,36.5 13.9,36 13.9,35.6 14,35.3 14,34.9 13.9,34.5 13.7,34.4 13.9,34.2 13.9,33.8 10.8,33.8 
	8.8,33.8 7.8,33.8 6.9,33.8 6.4,33.8 5.7,33.8 4.9,33.8 4.4,33.8 4,33.8 3.5,33.8 3.1,33.8 2.6,34 2.4,34 2.2,34 2,34.2 2,34.2 
	2,34.2 2,34.2 1.6,34 0.7,34 "/>
</svg>
