<?xml version="1.0" encoding="utf-8"?>
<!-- Generator: Adobe Illustrator 19.2.0, SVG Export Plug-In . SVG Version: 6.00 Build 0)  -->
<svg version="1.1" id="Layer_1" xmlns="http://www.w3.org/2000/svg" xmlns:xlink="http://www.w3.org/1999/xlink" x="0px" y="0px"
	 viewBox="0 0 56 56" style="enable-background:new 0 0 56 56;" xml:space="preserve">
<style type="text/css">
	.st0{fill:#FDC414;}
</style>
<polygon id="Central_African_Republic" class="st0" points="35.2,9.4 35.5,10 35.5,10.5 35.5,10.8 36.3,11.6 36.6,12.1 37.6,13.4 
	38.2,15 38.7,15.9 38.4,16.7 38.2,16.9 37.9,17.7 37.9,19.1 38.4,19.6 39.5,19.6 39.8,19.3 41.1,19.3 41.4,19.6 41.1,20.1 
	41.4,20.9 41.9,21.5 43,22 43.8,22 44.3,22.3 44.6,22.8 45.4,23.4 46.2,23.4 46.5,23.9 46.2,24.4 45.7,25 45.7,25.2 45.4,25.5 
	46.2,26.3 46.7,26.6 47.3,26.3 47.8,26.8 48.1,26.6 49.4,27.4 50,27.9 50,29.3 50.2,29.8 51.3,29.8 51.6,30.3 51.3,31.1 51.8,31.4 
	53.2,31.9 53.7,32.2 53.7,32.7 54,34.1 54.2,34.3 55,34.9 55.3,35.4 55.3,35.4 55.3,35.4 54.5,34.9 53.4,34.9 52.1,35.4 52.1,35.4 
	50.5,35.4 49.7,34.9 49.1,34.9 48.9,34.6 48.3,34.6 47.3,34.6 47,34.1 46.5,34.1 46.2,34.6 46.5,34.9 45.9,35.7 45.4,35.7 
	44.9,35.7 43.8,35.7 43.3,36.2 43,36.2 42.7,35.7 42.4,35.7 42.4,35.4 41.9,35.2 40,36 39.5,36.2 39.2,36.8 37.4,36.8 36.8,37 
	36.3,36.5 35.5,36.5 34.7,36.5 34.1,37 33.3,37.8 33.6,38.4 33.9,38.6 33.9,38.9 32.8,39.2 32.3,38.9 31.5,38.9 30.7,38.6 
	30.1,38.4 29.6,38.6 29,38.6 28,38.6 27.2,38.1 26.1,38.1 25.8,37.8 24.8,37 24.2,36.8 22.9,35.7 22.3,35.7 21.8,35.2 21.3,35.2 
	21.3,35.4 20.5,35.4 19.9,36 19.4,36 19.1,36.2 19.1,37 18.6,37.3 18.6,37.8 18.3,38.1 17.8,38.1 17.8,38.6 18.3,39.4 18.1,40 
	17.8,40.5 17.8,41.3 17.3,41.3 17,41.6 16.2,41 15.9,40.8 15.4,40.8 14.6,40.8 14.3,41 13.5,41 11.6,41.6 11.4,42.1 10.6,42.4 
	9.5,43.2 7.6,46.4 7.6,46.4 7.3,46.1 7.3,45.3 7.3,44.5 6,43.5 5.5,42.9 4.9,41.9 3.8,40.2 3.6,39.4 2.8,38.6 1.7,37.8 1.2,37.6 
	1.2,36 1.2,34.9 0.9,33.8 0.9,33 0.6,31.7 0.6,30.9 0.9,30.3 1.4,30.1 2.2,29 2.8,27.9 3.6,26.6 3.8,25.8 4.4,25.5 5.2,24.4 
	5.2,24.2 5.7,24.4 5.7,25.5 6.5,25.5 7.3,25.2 8.4,25.2 8.9,24.2 8.9,23.4 9.5,22.8 10,23.4 10.3,24.4 10.6,24.7 11.4,24.4 
	12.4,23.6 13.5,23.4 14.6,22.6 17.3,22 18.3,22 18.9,21.2 19.9,20.4 19.9,19.9 19.4,19.9 18.6,19.1 18.9,18.3 19.4,18 19.9,18.3 
	21,18 21.5,18.3 22.6,18.5 24,18.3 25.6,18 26.4,17.5 26.9,17.2 27.2,16.7 27.2,15.9 27.2,15.3 27.7,14.8 27.7,14.2 28.5,13.4 
	28.8,13.7 29,13.7 29.9,12.4 30.4,12.1 30.4,11.6 30.7,11 31.7,10.5 32.3,10 33.3,10 33.9,10.2 34.9,9.7 "/>
</svg>
