<?xml version="1.0" encoding="utf-8"?>
<!-- Generator: Adobe Illustrator 19.2.0, SVG Export Plug-In . SVG Version: 6.00 Build 0)  -->
<svg version="1.1" id="Layer_1" xmlns="http://www.w3.org/2000/svg" xmlns:xlink="http://www.w3.org/1999/xlink" x="0px" y="0px"
	 viewBox="0 0 56 56" style="enable-background:new 0 0 56 56;" xml:space="preserve">
<style type="text/css">
	.st0{fill:#FDC414;}
</style>
<polygon id="Congo" class="st0" points="4.4,48.1 5.6,47 5.6,46.2 6,45.8 7.1,45.8 7.5,45.4 7.9,45.4 9.9,46.6 9.9,45.4 9.9,42.3 
	8.7,41.9 7.9,41.1 7.1,41.5 6,41.9 6.4,40.8 6,39.6 6.4,39.2 7.9,38.8 9.1,39.6 9.5,39.2 9.9,38.4 10.6,38.4 13,38.4 13.3,37.3 
	13,36.1 13.3,35.3 14.5,35.3 15.7,37.7 16.4,38.8 18,38.4 18.8,38.4 19.5,38.1 20.7,38.1 21.8,38.4 22.2,39.2 23,39.2 23,38.4 
	22.6,37.3 24.2,32.6 24.6,30.3 24.9,29.2 24.2,28.4 23.8,27.6 23,26.8 22.6,26.5 21.8,26.1 21.8,25.7 21.5,24.9 21.5,24.5 
	22.2,24.5 22.2,24.1 22.6,24.1 22.6,23 22.2,22.6 22.2,21.8 23.4,21 24.6,21 24.9,19.9 24.6,19.1 24.9,18.3 24.6,16.8 24.2,16 
	22.2,16 20.7,16.8 19.5,16.8 18.8,16.8 17.6,17.2 17.2,16.8 17.2,16 16.8,15.2 17.2,13.7 16.8,12.5 16.8,11.4 24.9,11.4 25.3,11.8 
	25.7,11.4 26.1,11.4 26.9,12.1 27.6,11.8 28,12.1 28.8,12.5 29.2,12.5 29.6,12.1 30,12.1 30.7,12.9 31.1,12.5 32.7,12.5 33.1,12.9 
	33.5,12.9 34.2,12.9 34.2,13.3 35,13.3 35,12.5 34.6,11.8 34.6,11.4 35.4,10.2 35.8,9.4 38.5,4.4 40,3.2 41.2,2.9 41.6,2.1 
	44.3,1.3 45.4,1.3 45.8,0.9 47,0.9 47.8,0.9 48.1,1.3 49.3,2.1 49.7,1.7 50.5,1.7 50.5,1.7 51.2,2.9 51.2,5.6 50.1,6 49.7,7.1 
	47,10.6 47.8,12.5 47.4,14.1 47.4,15.2 46.2,16.4 46.2,18.3 46.2,19.1 45.8,20.7 46.2,21 46.2,23 45.1,23.4 44.7,25.3 44.7,27.2 
	42.7,30.7 41.6,30.7 40.4,31.9 39.6,31.5 38.1,32.3 36.9,33.8 36.9,35.3 35.4,37.3 34.6,38.4 35,40 35,40.8 35,43.9 34.6,45.8 
	34.6,46.6 33.5,48.5 32.7,48.5 31.5,49.3 31.1,50 28.8,52.4 27.6,53.9 26.5,54.3 24.9,53.5 24.6,52.8 24.2,52.4 24.9,50.8 
	24.9,50.4 23,51.2 21.8,52 21.1,52 20.3,52 20.3,53.1 19.5,53.9 18.4,53.9 18.4,53.5 18,52.8 17.2,53.1 16.4,53.1 16,53.5 16,52.4 
	15.7,51.6 14.9,51.2 14.5,51.2 13.3,52 12.6,52 12.2,53.1 11.4,53.5 10.6,53.5 10.2,55.1 9.5,55.5 9.1,54.7 9.1,53.5 7.9,52.4 
	7.9,51.2 6,50 5.6,49.3 "/>
</svg>
