<?xml version="1.0" encoding="utf-8"?>
<!-- Generator: Adobe Illustrator 19.2.0, SVG Export Plug-In . SVG Version: 6.00 Build 0)  -->
<svg version="1.1" id="Layer_1" xmlns="http://www.w3.org/2000/svg" xmlns:xlink="http://www.w3.org/1999/xlink" x="0px" y="0px"
	 viewBox="0 0 56 56" style="enable-background:new 0 0 56 56;" xml:space="preserve">
<style type="text/css">
	.st0{fill:#FDC414;}
</style>
<polygon id="Switzerland" class="st0" points="22.3,16 23.9,16 26.2,15.2 29.2,16 30,14.5 30,12.9 32.3,12.2 33.1,14.5 34.6,15.2 
	35.4,13.7 37.7,13.7 40.7,16.8 43,18.3 43,19.8 42.2,22.1 43,22.9 46.1,23.6 47.6,22.9 50.7,25.2 52.2,22.9 54.5,22.9 55.3,25.2 
	53,28.2 54.5,32.1 49.1,32.8 49.1,37.4 46.8,35.9 44.5,35.9 39.9,34.4 39.9,37.4 36.9,42 36.1,39.7 32.3,37.4 32.3,35.1 30,33.6 
	25.4,40.5 22.3,39.7 17.7,42.8 14.7,42 14.7,39.7 13.2,39 12.4,35.9 10.9,33.6 7.8,33.6 6.3,35.1 7,37.4 4,39 1.7,39 0.9,36.7 
	2.4,35.9 4,35.9 4,33.6 4.7,30.5 7.8,25.2 9.3,24.4 11.6,21.4 13.9,20.6 13.9,18.3 10.9,16.8 12.4,15.2 15.5,15.2 16.2,16.8 
	18.5,16.8 "/>
</svg>
