<?xml version="1.0" encoding="utf-8"?>
<!-- Generator: Adobe Illustrator 19.2.0, SVG Export Plug-In . SVG Version: 6.00 Build 0)  -->
<svg version="1.1" id="Layer_1" xmlns="http://www.w3.org/2000/svg" xmlns:xlink="http://www.w3.org/1999/xlink" x="0px" y="0px"
	 viewBox="0 0 56 56" style="enable-background:new 0 0 56 56;" xml:space="preserve">
<style type="text/css">
	.st0{fill:#FDC414;}
</style>
<polygon id="Cote_D_x27_ivoire" class="st0" points="10.1,55.5 10.1,53.4 9.6,51.8 10.1,50.2 9.6,48.6 10.1,47.5 10.7,46.5 
	10.1,45.4 11.2,44.3 10.7,42.7 9.6,42.7 8.5,41.6 8,40 6.9,39.5 5.9,39.5 4.8,38.4 3.2,38.4 2.6,39 1.6,38.4 1,36.8 2.1,35.8 
	3.7,32.5 3.2,30.9 3.2,29.9 4.8,29.3 6.9,24.5 7.5,22.9 6.9,21.9 5.3,20.2 5.3,19.2 6.4,18.6 7.5,18.6 7.5,17.6 6.9,16 5.9,14.9 
	5.3,12.2 5.9,11.2 5.9,6.9 4.8,6.3 4.8,5.3 8,3.7 11.2,2.1 12.3,2.1 14.4,3.1 17.6,3.1 18.7,2.6 18.7,2.1 21.4,1.5 23.5,1.5 23,2.1 
	23.5,3.1 26.2,4.2 27.8,1.5 29.4,1 31.5,2.6 34.7,4.2 35.8,4.2 36.9,4.7 37.9,4.7 40.1,5.8 40.6,6.9 43.3,8.5 45.4,7.9 47,6.9 
	48.1,6.9 49.2,7.9 51.3,7.9 51.3,9 50.8,11.7 51.3,13.3 51.3,14.9 52.4,16 53.5,18.1 52.4,19.7 52.4,21.3 50.8,22.4 48.1,26.7 
	48.1,28.3 47.6,29.3 47.6,31.5 47,32.5 47,36.3 46,36.8 46,37.4 47,38.4 48.1,41.6 48.6,43.8 50.2,44.3 51.3,45.9 51.3,48.1 
	49.7,48.1 48.1,48.6 48.1,49.1 46.5,47 44.9,47 44.9,49.1 40.6,47.5 36.9,48.6 25.6,48.6 22.4,49.1 22.4,50.2 16.6,52.3 16,52.9 
	13.9,52.9 11.2,55.5 "/>
</svg>
