<?xml version="1.0" encoding="utf-8"?>
<!-- Generator: Adobe Illustrator 19.2.0, SVG Export Plug-In . SVG Version: 6.00 Build 0)  -->
<svg version="1.1" id="Layer_1" xmlns="http://www.w3.org/2000/svg" xmlns:xlink="http://www.w3.org/1999/xlink" x="0px" y="0px"
	 viewBox="0 0 56 56" style="enable-background:new 0 0 56 56;" xml:space="preserve">
<style type="text/css">
	.st0{fill:#FDC414;}
</style>
<path id="Chile" class="st0" d="M32.2,54l-0.1-0.4H32l-0.2-0.1l-0.4-0.1L30.7,53l-0.3-0.1V53l0.1,0.1l-0.1,0.1l-0.1-0.1L30,52.9
	l-0.2-0.1l-0.1,0.1l0.1,0.1l0.5,0.2v0.1h-0.1h-0.1v0.1H30l-0.1-0.1L29.7,53l-0.1,0.1v0.1h-0.1h-0.4L29,53.3l0.1,0.1v0.1l-0.2-0.1
	l-0.2,0.1l0.1,0.1l0.2,0.1h0.2l0.1-0.1l0.1-0.1l0.1,0.1l0.2,0.1l0.1-0.1l0.1,0.1v0.1l0.1,0.1L29.9,54l-0.1,0.2l0.1,0.1h0.1l0.1,0.1
	l0.2,0.2h0.1v-0.1l-0.1-0.1l-0.2-0.1v-0.1h0.1l0.1,0.1l0.1-0.1v-0.1h-0.1l-0.1-0.1l0.5-0.2l0.2-0.1L32,54L32.2,54l-0.1-0.1h0.1V54z
	 M32.1,53.4l-0.3-0.1l-0.5-0.4l-0.4-0.1h-0.2l-0.2-0.1l-0.2-0.2v-0.1v-0.1l0.4-0.1l0.1-0.1l0.2-0.1l0.1-0.3l-0.1-0.2h-0.2l-0.4,0.1
	l-0.1,0.2h-0.1l-0.2-0.3v-0.3L29.8,51l0.2-0.2v-0.1h-0.1l-0.1-0.1l0.1-0.2l0.1,0.1l0.2,0.1l0.1-0.1l0.2-0.2v-0.1L30.4,50l0.1-0.1
	l0.1,0.1l0.1,0.1l0.1-0.1l0.3-0.1l0.3,1.3v0.1l0,0L32.1,53.4L32.1,53.4z M31.1,49.5l-0.3-0.3l-0.2-0.1L30.5,49H29l-0.8,0.1L28,49.1
	L27.4,49l-0.1-0.5l-0.1-0.4l-0.2-0.2l-0.1-0.7v-0.3h-0.2L26.2,47L26,47.2h-0.2l-0.5-1l-0.1-0.4l0.1-1l0.2-0.4l0.4-0.4l0.1-0.6
	l-0.1-0.6l-0.1-0.4l0.1-0.5l0.2-0.3L25.8,41l0.1-0.3l0.2-0.2L26,40l-0.1-0.7L25.8,39v-0.2l0.3-0.3v-0.3l-0.2-0.4l-0.4-0.3h-0.2
	l-0.1,0.1L25,37.4l0.1-0.2h0.5l0.2-0.3v-0.3l-0.1-0.1l-0.1,0.1l-0.2-0.1l-0.1-0.5L25,35.6v-0.4v-0.4l-0.4-0.1l-0.1-0.4l-0.1-0.9
	l0.2-0.1l0.1-0.3l-0.1-0.2l-0.2-0.1l-0.1-0.5l-0.1-0.7l0.1-0.9l-0.2-0.4l-0.1-0.1l0.4-0.6l0.1-0.7l0.3-0.1l0.1-0.2l-0.7-1.3l0.1-0.4
	v-0.3v-0.8l0.2-0.5l0.3-0.3l-0.1-0.4l-0.2-0.4l-0.1-0.1l0.3-0.4L24.7,23l0.2-0.4l0.2-0.1l0.1-0.5l-0.1-0.9L25,20.9l-0.1-0.7
	l-0.1-0.4l-0.3-0.4l-0.1-0.2l-0.2-0.3L24,18.3l0.1-0.4l0.3-0.1v-0.6l0.1-0.2v-0.5L24.3,16v-0.7l0.1-0.1l0.1-0.9l0.2-0.3l0.3-0.8
	l0.3-0.3l0.2-0.1l0.1-0.2l-0.1-0.1V12l-0.1-0.1l-0.1-0.1l0.1-0.2l0.2-0.1v-0.3l-0.2-0.3l-0.1-0.4l0.1-0.2L25.5,10l-0.2-0.2l0.1-0.3
	l1.4-0.7L27,7.4l-0.1-0.3h-0.1l-0.1,0.1h-0.3l-0.9-2.3l-0.6-0.5l-0.1-0.2L25,3.6L25,3.4L25.1,3L25,2.9l-0.5-0.4l-0.1-0.3l-0.1-0.4
	l-0.1-0.1l0.1-0.2V1.2L24.1,1l-0.2-0.2V0.5l-0.2-0.1l-0.1,0.2l-0.1,0.2l0.2,0.2l-0.1,0.2l-0.2,0.1h-0.1L23,1.6l-0.3,0.1l0.1,0.1v0.3
	v0.2l0.1,0.3l0.2,0.9v0.3L23,4l-0.1,0.1L23,4.6l0.1,0.4l0.1,0.4V6l-0.1,0.1l-0.1,0.1l0.1,0.8v0.2L23,7.4l-0.1,0.1v0.4L23,8L23.1,8
	L23.2,8L23,8.2v1.2l0.1,0.4v0.4l-0.1,0.3l-0.2,0.3v0.3l0.2,0.4L23,11.7v0.6l-0.1,0.2v0.3l0.1,0.1v0.1l-0.2,0.3v0.3l-0.1,0.2l0.1,0.4
	l-0.1,0.1l-0.2,0.4V15l0.2,0.3l0.1,0.4l0.1,0.2L22.7,16l-0.1,0.3l0.1,0.2l-0.1,0.2l-0.1,0.1v0.3l0.1,0.3v0.2l0.3,0.7v0.4l-0.1,0.1
	v0.2l0.2,0.4v0.4l-0.1,0.3v0.1l0.1,0.2v0.1l-0.1,0.2l0.1,0.1l0.3,0.4v0.2l-0.1,0.2L23,21.9l-0.1,0.3v0.1l0.1,0.1l-0.1,0.3l-0.1,0.1
	v0.2v0.4l-0.1,0.2v0.2l-0.1,0.1v0.3l-0.1,0.1v0.1l0.1,0.1l-0.1,0.2v0.3v0.2l-0.1,0.1v0.2l-0.1,0.1V26l0.1,0.2v0.2L22,26.7h-0.1
	l-0.1-0.1l-0.1,0.1v0.1l0.1,0.2v0.4l0.1,0.2l0.2,0.2v0.2l-0.1,0.3l0.4,0.6l0.1,0.1l0.1,0.1v0.4l-0.1,0.5l-0.1,0.1l0.1,0.1l-0.1,0.1
	l-0.1-0.1h-0.1l-0.1,0.2l0.1,0.2l0.1,0.1l-0.1,0.4l0.1,0.2l-0.1,0.1l0.1,0.1l-0.1,0.1l-0.1,0.1l0.1,0.1l0.4,0.6l0.1,0.1l0.1,0.1
	l0.4,0.1l0.3-0.1v-0.3l0.1-0.1h0.2l0.1,0.2l0.1-0.1h0.1l-0.1,0.1l-0.2,0.2v0.1l0.2,0.1l0.1-0.1v0.1V34l0.1,0.1l-0.1,0.1L24,34.1
	l-0.1-0.2l-0.1-0.1l-0.1,0.1v0.1l0.2,0.1l0.1,0.1l-0.1,0.1l-0.1,0.1v0.3L24,35l-0.1,0.2v0.1l0.1,0.1l-0.2,0.2v0.1l0.2,0.1l-0.1,0.2
	l-0.1,0.3l-0.1,0.1v0.1l0.1,0.1H24l0.1,0.1v0.1h0.2l0.1,0.1v0.4l-0.1,0.2L24,38.1h-0.1v0.2l0.1,0.2l-0.1,0.1v0.1l0.1,0.1L23.8,39
	l-0.1,0.4v0.3l0.1,0.1l-0.1,0.1v0.4l-0.1,0.1l-0.1,0.2l-0.1-0.1l0.1-0.1l0.1-0.4v-0.2l0.1-0.1h-0.1l-0.3,0.1L23,39.9h-0.1v-0.1
	l0.2-0.1l0.1-0.1v-0.3l-0.1-0.1L23,39.4h-0.4l-0.1-0.1l-0.1,0.1v0.1l0.1,0.2h0.1l0.1,0.1h-0.1l-0.1,0.2l-0.1,0.1l-0.1,0.2l-0.3,0.1
	v0.1l0.3,0.4h0.1l0.1-0.1v-0.1l-0.2-0.1v-0.1l0.1-0.2h0.3l0.1-0.1l0.1,0.3l0.2,0.1h0.3l0.1-0.1l0.1,0.1l0.1,0.1l0.3,0.1l0.1,0.1
	h-0.1l-0.1,0.1l0.1,0.1l-0.1,0.1l-0.1,0.1l0.1,0.1l0.2,0.1v0.1L23.5,42l-0.1-0.1h-0.1v0.1l0.1,0.1l0.1,0.1l0.3,0.1l0.3-0.1l0.1,0.1
	h0.1l0.2-0.1l-0.1,0.1l0.1,0.1l-0.1,0.1h-0.2l-0.1,0.1l-0.1-0.1l-0.4,0.1l-0.1,0.1l0.1,0.1l0.2,0.1l0.1,0.2l0.2,0.1l0.1-0.1v0.1
	l-0.1,0.1v0.1v0.1L24.2,44h-0.1v0.1l0.1,0.6l0.1,0.1v0.3l0.1,0.2l0.1,0.1v-0.4l0.1-0.4l0.1-0.1l0.1,0.1H25l-0.1,0.5v0.1l0.1,0.1h0.1
	L25,45.5l-0.3,0.1l-0.2,0.1v0.1l-0.1,0.2v0.2l-0.1,0.1l-0.1,0.2v0.1l0.3,0.2l0.4,0.1l0.1,0.1v0.1H25l0.1,0.2l0.1,0.1l0.1-0.2v0.1
	l-0.1,0.1l-0.1,0.1L25,48l0.1,0.1h0.1v0.1l0.1,0.2h0.1l0.1-0.1v0.2l0.1,0.2h-0.1l-0.1-0.1h-0.1l-0.1,0.1l0.2,0.2h0.1l0.1,0.2
	l0.1,0.1l0.2,0.1h0.1l-0.1-0.3l0.1-0.1l-0.1-0.1l0.2,0.1v0.1l0.1,0.1l0.1-0.2l0.1-0.1v-0.1l-0.1-0.1l-0.3-0.1v-0.1h0.1l0.4,0.1
	l0.1,0.1h0.2L27,48.6l-0.2-0.1h-0.4v-0.1l0.1-0.1l0.4,0.1l0.4,0.2l0.1,0.3l-0.1,0.1v0.1l0.1,0.3v0.1l-0.1,0.1l0.1-0.3l-0.1-0.4
	L26.9,49l-0.1,0.1v0.1l0.1,0.1l-0.1,0.1l-0.1-0.1l-0.1-0.2h-0.1l-0.1,0.1h-0.3l-0.2,0.1l0.2,0.1V50l0.1,0.1l0.1,0.1l-0.1,0.1
	l0.1,0.1h0.1l0.1-0.1l0.1,0.1l0.1,0.1v0.1l-0.4,0.2l-0.1,0.1l0.1,0.1h0.3l0.3,0.1l0.1-0.1L27,51l-0.1-0.2l0.1-0.1l-0.1-0.1l-0.1,0.1
	h-0.1l0.1-0.1l0.1-0.1v-0.1l0.1-0.1l0.2,0.1l0.1-0.1l0.1,0.1l0.1,0.1l0.1-0.1l0.2-0.1l0.2,0.1h0.2h0.2v0.1l-0.1,0.1l-0.1,0.1h-0.1
	l-0.1-0.1l-0.1,0.1l-0.4,0.3h-0.1h-0.1l-0.1,0.1v0.1l-0.1,0.1l-0.1,0.1v0.1l0.1,0.1l-0.1,0.1v0.1l0.4,0.1l0.2,0.2h0.1l0.1-0.1
	l-0.1-0.1l0.1-0.1l0.1-0.1v-0.1l-0.1-0.2l0.3-0.1l0.2-0.1l0.2-0.3l0.1-0.1l0.1,0.1l0.1,0.1h0.1v0.1L29,50.9l-0.1,0.2l-0.1,0.1
	l-0.2,0.2v0.2l0.1,0.1L28.5,52l-0.1,0.1V52l0.1-0.1v-0.3l-0.1-0.1l-0.1,0.1v0.1h-0.1h-0.1L28,51.9l0.1,0.2l0.4,0.4l0.3,0.1l0.2,0.1
	h0.1l0.1,0.1l0.1-0.1l0.1-0.3L29.4,52v-0.1v-0.1l0.1-0.3v-0.4l-0.1-0.2v-0.1l0.3-0.1l0.3-0.3l0.1-0.1h0.2l0.1-0.1v-0.3l0.1-0.1
	l0.3-0.1l0.3,0.1L31.1,49.5L31.1,49.5L31.1,49.5z M33.5,55.6L33.5,55.6l0.2-0.1L33.5,55.6C33.6,55.5,33.5,55.7,33.5,55.6L33.5,55.6z
	 M23,34.5l-0.2-0.1h-0.1v0.1l0.3,0.3l-0.1,0.1l0.2,0.2L23,35.2l-0.2-0.1l-0.1,0.1v0.2v0.1l-0.4,0.1L22,35.5l0.1-0.2l-0.1-0.7
	L22,34.2l-0.1-0.1L21.8,34l0.1-0.1l0.1-0.1v-0.1L22,33.5v-0.1l0.1-0.1h0.2l0.2,0.1l0.2,0.3v0.3l0.1,0.1v0.2l-0.2-0.1l0.3,0.2
	L23,34.5L23,34.5L23,34.5z M23.1,34l0.1-0.1l0.1,0.1l-0.1,0.1L23.1,34L23.1,34z M21.7,36.1L21.7,36.1l0.2-0.1l0.1,0.1H21.7
	L21.7,36.1L21.7,36.1z M23.3,36.4l0.2-0.1v0.1l-0.1,0.1L23.3,36.4L23.3,36.4z M23,36.4l0.1,0.1v0.2L23,36.7v-0.1l-0.1-0.1L23,36.4
	L23,36.4z M22.4,36.4L22.4,36.4h0.4l-0.2,0.1L22.4,36.4L22.4,36.4z M22.5,36.7L22.5,36.7h0.1l-0.1,0.1L22.5,36.7L22.5,36.7z
	 M22.2,37l0.1-0.1h0.1l0.1,0.1v0.1l-0.1,0.1h-0.1L22.2,37L22.2,37z M22.1,37.4l0.1,0.1l-0.1,0.1L22,37.5L22.1,37.4L22.1,37.4z
	 M23.2,37.3l0.1,0.3h-0.1L23.2,37.3L23.2,37.3z M22.7,37.3l0.2-0.1v0.3L22.7,37.3L22.7,37.3z M22.3,39.1L22.3,39.1l0.1,0.2h-0.1
	L22.3,39.1L22.3,39.1z M22.3,37.5v-0.1l-0.1-0.1h0.2l0.1,0.2h-0.1L22.3,37.5L22.3,37.5z M21.8,38l-0.3-0.1v-0.1h0.2l0.1,0.1L21.8,38
	L21.8,38z M22.7,38.7h0.2V39L22.7,38.7L22.7,38.7z M23,39h0.2L23,39.2L23,39L23,39z M23.3,37L23.3,37l0.3,0.1L23.3,37L23.3,37
	L23.3,37z M23.8,37.2l0.2,0.1l0.1,0.1l0.1,0.2l-0.1,0.1L24,37.9h-0.1l-0.1-0.1h-0.1L23.5,38v-0.3l-0.1-0.1l0.1-0.4L23.8,37.2
	L23.8,37.2z M22.4,37.8l0.1-0.1H23L23,37.8l-0.3,0.1L22.6,38C22.5,37.9,22.4,37.8,22.4,37.8L22.4,37.8z M22.7,38.3l-0.1-0.1l0.3-0.1
	H23v0.2L22.7,38.3L22.7,38.3z M22.8,38.4l0.2-0.1h0.2v0.4l-0.1,0.1L23,38.7L22.8,38.4L22.8,38.4L22.8,38.4z M22.4,39.1l0.1-0.1
	l0.1,0.1l0.2,0.1l0.1,0.1l-0.2,0.1L22.4,39.1L22.4,39.1z M23.1,43.6l0.1-0.1l-0.1-0.1l-0.1,0.1L22.8,43l-0.2-0.1l0.1-0.1h0.2
	l0.1-0.1V43l0.2,0.1v0.2l0.1,0.1l0.1,0.4h-0.2h-0.2V43.6L23.1,43.6z M22.2,43.2V43l0.1-0.1l0.2,0.1l0.3,0.4l0.2,0.3V44L23,44.1
	L22.8,44l-0.1-0.4v-0.1l-0.1-0.1l-0.2-0.1L22.2,43.2L22.2,43.2z M22.3,43.5L22.3,43.5l0.2,0.1l0.1,0.2L22.5,44h-0.1v-0.1l-0.1-0.1
	L22.3,43.5L22.3,43.5z M22.7,44.9h-0.1v-0.1l-0.1-0.4l0.1-0.1l0.1,0.1l0.3,0.1l0.1,0.2l-0.1,0.1L22.7,44.9L22.7,44.9z M23,45.8
	l-0.1,0.1l-0.1-0.1l0.1-0.1l-0.1-0.1l0.2-0.1l0.1,0.2L23,45.8L23,45.8z M23.6,45.7l-0.1,0.2L23.5,46l-0.2-0.1l-0.1-0.3L23,45.1
	l0.2-0.1l0.1-0.1v-0.1l-0.1,0.1h-0.1v-0.1l0.1-0.2l-0.1-0.1v-0.3l0.1-0.1h0.3l0.1,0.1l0.1,0.5l0.1,0.2v0.4l-0.1,0.1l0.1,0.3V46
	l-0.1,0.1l-0.1-0.1l-0.1-0.2L23.6,45.7L23.6,45.7z M23.4,46.9l-0.1-0.1l-0.1-0.1l0.1-0.1v-0.1l0.1-0.1l0.1,0.1l0.3,0.1l-0.1,0.2v0.2
	L23.4,46.9L23.4,46.9L23.4,46.9z M23.3,47.2v-0.2h0.3L23.4,47L23.3,47.2L23.3,47.2z M23.7,47.1l0.1,0.1v0.2l-0.1,0.1l-0.1-0.2
	L23.7,47.1L23.7,47.1z M23.9,46.9L23.9,46.9L23.9,46.9l0.2,0.1h0.1l0.2,0.3l0.1,0.2l-0.3-0.2l-0.2-0.1L23.9,46.9L23.9,46.9z
	 M23.9,47.3h0.1l0.2,0.1l0.2,0.4L24.4,48h-0.2L24,47.7L23.9,47.3L23.9,47.3z M24.1,48.5l-0.3,0.1l-0.1-0.1l0.1-0.1l0.1-0.2L23.8,48
	l0.1-0.1l0.1,0.1h0.1l0.3,0.2v0.1h-0.1v0.1L24.1,48.5L24.1,48.5z M24.4,49.5h-0.1l-0.1-0.1l-0.1-0.1l0.1-0.1l0.1-0.1l-0.1-0.1
	l-0.1-0.1h0.1l0.1,0.1v0.2l-0.1,0.1L24.4,49.5L24.4,49.5z M24.4,49.1l0.1-0.1l0.1-0.1l0.1,0.1l0.1,0.1v0.2l-0.1,0.1h-0.1v-0.1
	l-0.1-0.1L24.4,49.1L24.4,49.1z M24.8,49.2l0.2,0.1l0.1,0.1H25l-0.1-0.1L24.8,49.2L24.8,49.2z M24.7,50L24.7,50L24.7,50L24.7,50
	v-0.3l0.1-0.1l0.1,0.1L24.7,50L24.7,50z M25.4,49.4l-0.3-0.1L25,49.1v-0.4H25l0.1,0.3l0.2,0.2L25.4,49.4L25.4,49.4L25.4,49.4z
	 M25.4,49.7l-0.1-0.1l0.1-0.1l0.1,0.1l0.1,0.1H25.4L25.4,49.7z M25.5,50.1l-0.2-0.3l-0.1-0.1l0.1-0.1l0.4,0.3v0.1L25.5,50.1
	L25.5,50.1z M25.8,50.7L25.8,50.7l-0.2-0.1l-0.1-0.1h-0.2l-0.1-0.1l0.1-0.1h0.1l0.3-0.1l0.1,0.2L25.8,50.7L25.8,50.7z M26.4,51.8
	l-0.3-0.1l-0.1,0.1h-0.1l-0.1-0.1l-0.3-0.1h-0.2l-0.1-0.3L25,50.9l0.1-0.1l0.1,0.1l0.2,0.3l0.1,0.1h0.2l0.2,0.1l0.1,0.1h0.3l0.1,0.1
	l0.2,0.1h0.1l0.1,0.1l-0.1,0.1h-0.2L26.4,51.8L26.4,51.8z M25.7,52l0.1,0.1L25.7,52L25.7,52L25.7,52z M27.2,53L27.2,53h0.1l-0.1-0.1
	L27.2,53L27.2,53L27.2,53z M27.8,53.1l-0.1,0.1L27.5,53v-0.1l-0.1-0.1l-0.2,0.1H27l-0.2-0.3l-0.2-0.1l-0.1-0.2l-0.2-0.1V52l0.1-0.1
	h0.1l0.1,0.1l0.1,0.1L27,52h0.2l0.3,0.2l0.1,0.1l0.1,0.1l0.2-0.1l0.1,0.1l0.1,0.1h-0.1l-0.1,0.1l0.1,0.1v0.1L27.8,53.1L27.8,53.1
	L27.8,53.1z M28.1,53L28,53.2v0.1l0.1-0.1V53h0.1H28.1L28.1,53L28.1,53z M29.5,52.9L29.4,53l0.1,0.1l-0.1,0.1l-0.2-0.1L29,53
	l-0.1,0.1l-0.1-0.1h-0.2L28.5,53l-0.1-0.1l-0.1-0.1v-0.1h0.3l0.1-0.1l0.4,0.1l0.1,0.1l0.1-0.1h0.1L29.5,52.9L29.5,52.9z M30.1,52.8
	l-0.2-0.2l0.1-0.1L30,52.3v-0.1L29.8,52l-0.1-0.2l-0.1-0.1v0.2l-0.1,0.2l0.1,0.2l-0.1,0.1v0.1l0.2,0.1l0.2,0.1l0.1,0.1L30.1,52.8
	L30.1,52.8z M29.2,54.5l0.2-0.1l0.1,0.1l-0.1,0.1L29.2,54.5L29.2,54.5z M29.3,54.3L29.3,54.3V54l0.1,0.1v0.1H29.3L29.3,54.3z
	 M33.8,55.5l-0.1-0.1l0.1-0.1l-0.1-0.1l0.1,0.1v0.1v0.2L33.8,55.5L33.8,55.5z M30.9,54.3l0.1-0.1h0.1h0.1l0.3,0.1l0.6-0.1l0.3-0.1
	h0.4h0.3h0.4l0.2,0.1l0.1,0.2l0.1,0.1l-0.1,0.1l-0.1,0.1l-0.1-0.1l-0.1-0.1l-0.2,0.1H33l-0.1-0.1l-0.1-0.2h-0.1l-0.1,0.1h-0.4
	l-0.3,0.1l0.2,0.1h0.1l0.3,0.1l0.1,0.1l-0.1,0.1l0.2,0.1l0.2,0.2v0.2h-0.1l-0.3-0.2l-0.1-0.1l-0.1,0.1l-0.1-0.1l-0.1-0.2h-0.2v0.1
	L32,55v0.1h-0.1L31.6,55l-0.1,0.1l-0.1-0.1l-0.1-0.1l0.1-0.1l-0.1,0.1L31,54.7v-0.1l0.1-0.1l0.4-0.1l-0.1-0.1l-0.1,0.1L30.9,54.3z"
	/>
</svg>
