<?xml version="1.0" encoding="utf-8"?>
<!-- Generator: Adobe Illustrator 19.2.0, SVG Export Plug-In . SVG Version: 6.00 Build 0)  -->
<svg version="1.1" id="Layer_1" xmlns="http://www.w3.org/2000/svg" xmlns:xlink="http://www.w3.org/1999/xlink" x="0px" y="0px"
	 viewBox="0 0 56 56" style="enable-background:new 0 0 56 56;" xml:space="preserve">
<style type="text/css">
	.st0{fill:#FDC414;}
</style>
<polygon id="Cameroon" class="st0" points="9.5,41.4 9.5,40.8 10.6,39.3 11.2,38.1 10.9,36.9 10.9,36 11.5,35.7 11.5,35.1 
	12.4,34.2 13,33.6 13.6,33.3 14.8,32.1 14.8,31.2 15.1,30.9 16,30.6 16.6,30 16.9,30.3 18.1,30.9 18.4,30.6 19.3,31.2 19.9,32.1 
	20.8,32.7 21.4,33 22.3,32.4 22.9,31.2 22.9,30.9 23.2,30.3 24.1,30 24.4,29.4 24.4,28.5 25,27.6 26.2,26.1 26.5,25.2 26.2,24.6 
	26.8,23.7 28,22.5 28.9,21.9 28.9,21 29.2,20.1 29.2,19 29.8,18.1 31,17.8 31.9,16.9 32.2,15.7 32.2,14.5 31.9,13.9 32.5,13 
	33.4,11.2 33.7,10.9 34,10.6 34.9,9.7 35.2,9.7 36.1,9.1 37,8.5 37.3,7.9 36.7,6.7 36.7,6.4 36.4,5.5 35.5,5.2 35.2,4.3 35.2,3.1 
	35.2,2.2 34.6,1 37,2.2 38.2,3.4 38.2,4.6 38.8,5.2 38.8,5.8 39.4,7.3 39.4,7.9 39.1,8.2 39.1,8.8 39.7,9.4 39.4,10.6 38.8,11.2 
	38.8,12.1 39.7,13.3 40.3,13.6 40.6,14.5 41.8,15.7 42.4,15.7 41.8,16.3 41.2,16 40.6,15.7 39.7,15.7 39.1,15.7 38.2,15.7 
	37.6,15.7 37,15.7 36.1,15.7 35.5,15.7 35.5,16.6 35.2,16.9 35.2,17.8 35.2,18.4 35.8,18.7 35.8,19.3 36.7,19.3 38.5,20.7 
	40.3,22.8 40.9,23.4 41.5,24.6 42.4,25.8 42.4,27 41.5,28.2 40.9,28.5 40.6,29.4 39.7,30.9 39.1,32.1 38.2,33.3 37.6,33.6 
	37.3,34.2 37.3,35.1 37.6,36.6 37.6,37.5 37.9,38.7 37.9,39.9 37.9,41.7 38.5,42 39.7,42.9 40.6,43.8 40.9,44.7 42.1,46.5 
	42.7,47.7 43.3,48.3 44.8,49.5 44.8,50.4 44.8,51.3 45.1,51.6 45.1,51.6 45.1,51.9 44.8,52.5 44.2,53.4 44.2,53.7 44.5,54.3 
	44.5,54.9 43.9,54.9 43.9,54.6 43.3,54.6 43,54.6 42.7,54.3 41.5,54.3 41.2,54.6 40.6,54 40.3,54 40,54.3 39.7,54.3 39.1,54 
	38.8,53.7 38.2,54 37.6,53.4 37.3,53.4 37,53.7 36.7,53.4 30.7,53.4 30.4,53.1 29.8,53.1 29.5,53.1 28.6,53.1 28.3,52.8 27.7,52.8 
	26.8,53.1 26.5,52.8 25,52.8 24.7,52.8 23.2,52.8 22.9,53.1 22.3,53.1 22,53.1 21.7,53.4 21.7,53.4 16.3,53.4 16,53.1 15.4,53.1 
	14.8,53.4 15.4,52.5 14.8,51.9 15.4,50.1 15.4,48.3 14.5,47.1 14.5,45.9 14.8,45.3 13.9,44.1 12.7,44.7 12.1,44.4 11.5,44.1 
	10.9,41.4 10.1,41.7 "/>
</svg>
