<?xml version="1.0" encoding="utf-8"?>
<!-- Generator: Adobe Illustrator 19.2.0, SVG Export Plug-In . SVG Version: 6.00 Build 0)  -->
<svg version="1.1" id="Layer_1" xmlns="http://www.w3.org/2000/svg" xmlns:xlink="http://www.w3.org/1999/xlink" x="0px" y="0px"
	 viewBox="0 0 56 56" style="enable-background:new 0 0 56 56;" xml:space="preserve">
<style type="text/css">
	.st0{fill:#9C6DAD;}
	.st1{fill:#FDC414;}
</style>
<polygon class="st0" points="71.2,71.7 71.2,71.9 71.4,71.9 71.4,71.8 71.3,71.7 "/>
<polygon class="st0" points="69.5,73.9 69.6,73.9 69.7,73.9 69.6,73.7 "/>
<polygon class="st0" points="64.7,76.3 64.5,76.2 64.4,76.2 64.4,76.3 64.5,76.3 64.7,76.3 "/>
<polygon class="st0" points="71.8,65.4 71.8,65.4 71.6,65.4 71.7,65.6 71.9,65.6 72,65.6 72,65.5 72,65.5 71.9,65.5 "/>
<polygon class="st0" points="72.7,67.2 72.8,67.3 72.8,67.1 72.7,67 72.5,67 72.5,67 72.5,67.1 "/>
<path class="st1" d="M55.2,14.8l-0.1-0.1v-0.1L55,14.4l-0.1-0.1l0.1-0.1L54.9,14l-0.1-0.1h-0.2l-0.1-0.1l-0.2-0.1l-0.1,0.1h-0.2
	L54,14v0.1l-0.1,0.1h-0.1l-0.1,0.2h-0.2h-0.1l-0.1,0.1v0.1l-0.1,0.1l-0.1,0.2v0.1L53.1,15L53,15.1l-0.2,0.1l-0.1,0.1l-0.1-0.1
	l-0.1,0.1l-0.1,0.1l-0.1-0.1L52.3,15h-0.1l-0.1,0.1L52,15.2l-0.1-0.1l-0.1-0.2l-0.1-0.1l-0.2-0.2v-0.1l0.1-0.1l0.1-0.2l-0.1-0.2
	L51.6,14h-0.2v-0.1v-0.1l0.1-0.1v-0.1l-0.1-0.1h-0.1l-0.1,0.1h-0.1L51,13.6h-0.1l-0.1-0.1h-0.1l-0.1-0.1l-0.2-0.1v-0.1l-0.1-0.1
	h-0.1l-0.1-0.1V13h-0.1L50,12.9l-0.1-0.1l-0.1-0.1h-0.1l-0.1,0.1h-0.1l-0.1,0.1V13l-0.1-0.1l-0.1-0.1l-0.1-0.1H49l-0.1-0.1l0.1-0.1
	v-0.1h-0.1l-0.1,0.1h-0.2l-0.1,0.1l-0.1-0.1l-0.1,0.1h-0.1l-0.1-0.1L48,12.6l-0.2-0.2l-0.1-0.2v-0.1l-0.1-0.2h-0.1l-0.1-0.1v-0.2
	l-0.1-0.1l-0.1-0.2l-0.1-0.2l-0.3-0.2l-0.2-0.2v-0.1l-0.1-0.1l-0.1,0.1l-0.1-0.1v-0.1v-0.1l-0.1-0.1l-0.1-0.2l-0.1-0.1l-0.1-0.1
	L46,9.9L46,9.8l-0.2-0.1V9.5l0.1-0.1V9.3h-0.2l-0.1-0.1V9.2L45.5,9V8.9l-0.1-0.1l-0.1-0.1V8.7l-0.1-0.1h-0.1L45,8.6l-0.1-0.1L45,8.4
	l-0.1-0.1h-0.1l-0.1,0.1l-0.1-0.1h-0.1l-0.1-0.1V8.1l-0.1-0.1L44.3,8h-0.1l-0.1-0.1L44,8h-0.1l-0.1-0.1L43.8,8v0.1l-0.1,0.1
	l-0.2-0.1L43.5,8l-0.1,0.1h-0.2L43.1,8L43,7.9h-0.3l-0.1-0.1h-0.1h-0.1h-0.1L42,7.9L42,8h-0.1L41.9,8h-0.2h-0.1L41.4,8l-0.1,0.1
	h-0.2l-0.1,0.1L41,8.3h-0.1l-0.1,0.1h-0.1l-0.1,0.1h-0.2l-0.1,0.1v0.1l-0.1,0.2l-0.1,0.2L40,9v0.1L40,9.2v0.2L40,9.4h0.1l0.2-0.1
	l0.1-0.1h0.1l0.1,0.2l0.1,0.2l0.1,0.1v0.1l0.1,0.1v0.2l-0.1,0.1l-0.1,0.2l-0.1,0.2l-0.1,0.1l-0.1,0.2v0.2l0.1,0.2l-0.1,0.1v0.2
	l0.1,0.1v0.2l-0.1,0.1L40.4,12l0.1,0.2v0.3l-0.1,0.1v0.2h0.1l0.1,0.1l0.1-0.1l0.1,0.1l0.1,0.2l-0.1,0.2l-0.1,0.1l-0.3,0.1L40,13.4
	l-0.4,0.4h-0.1l-0.1-0.1l-0.3-0.1L39,13.7l-0.1-0.1h-0.1l-0.1,0l0.1,0.1l-0.2,1.3l0.1,0.3l-0.1,0.3l0.1,0.2l-0.1,0.4l0.1,0.3
	l0.4,0.2l0.3-0.2h0.3l0.4,0.1l0.2,0.2l0.2-0.3v-0.2V16l0.2-0.1l0.1-0.1l0.4,0.1l0.2,0.3l0.3,0.3l0.3,0.3l0.3,0.2v0.2l0.1,0.1v0.2
	l-0.1,0.1v0.1l-0.1,0.1H42L42,17.7l-0.2,0.1l-0.1,0.1l-0.2-0.1l-0.2,0.1L41.1,18l-0.3,0.2l-0.1,0.1l-0.2-0.1h-0.1v0.2l-0.1,0.1h-0.1
	h-0.1l-0.1,0.1L40,18.8L40,19v0.2l-0.1,0.1l-0.2,0.1l-0.4,0.2h-0.2h-0.2l-0.1,0.1L38.6,20l-0.2,0.1l-0.2,0.2l-0.1,0.1l-0.1,0.2H38
	l-0.2-0.1h-0.2l-0.3-0.1l-0.2-0.2h-0.2l-0.3,0.1l-0.2,0.2l-0.1,0.2V21v0.2v0.1l0.4,0.2l0.4,0.2v0.1L36.9,22l-0.1,0.2l-0.4,0.4
	l-0.2,0.4L36,23.3h-0.2l-0.3,0.1l-0.2,0.1l-0.2,0.1l-0.2,0.2h-0.3h-0.3l-0.2,0.1L33.8,24l-0.7,0.2l-0.4,0.2l-0.3,0.3L32,25l-0.1,0.1
	h-0.2L31.4,25v-0.1v-0.1L31,24.9L30.7,25l-0.3-0.2l-0.3-0.1l-0.6-0.2L29,24.3L28.7,24h-0.2l-0.6-0.1L27.3,24l-0.1-0.1L27.1,24
	L27,24.1l-0.3,0.1l-0.4,0.1l-0.7-0.1l-0.6,0.1h-0.4h-0.3l-0.2,0.1L24,24.2l-0.2-0.4l-0.1-0.2l-0.2-0.3l-0.2-0.2l-0.1-0.2v-0.1
	l-0.1-0.2H23l-0.1-0.1l-0.1-0.1v-0.2l-0.1-0.1l-0.1,0.1h-0.2l-0.2-0.1l-0.3-0.3h-0.1h-0.1h-0.2l-0.1-0.1l-0.3-0.2l-0.6-0.2h-0.1
	l-0.1,0.1h-0.3h-0.3L19,21.4l-0.2-0.1L18.6,21v-0.2v-0.1l0.1-0.1l0.1-0.1l0.1-0.2l-0.1-0.1l-0.1-0.2l0.1-0.1v-0.2l-0.1-0.1l-0.1-0.2
	l-0.2-0.1l-0.1-0.1l-0.1-0.2L18.1,19l-0.1-0.2v-0.2l-0.1-0.1l-0.1-0.1l-0.2-0.1l-0.1-0.1l-0.2-0.1l-0.1,0.1l-0.1,0.1l-0.1,0.1
	l-0.1-0.1l-0.1-0.2l-0.1-0.1h-0.2l-0.2,0.1l-0.1,0.1l-0.1,0.1h-0.1l-0.2-0.1l-0.1-0.2v-0.1L16,18l-0.2-0.1l-0.1-0.2l-0.1-0.1
	l-0.1-0.1l-0.1-0.1v-0.1l-0.1-0.1h-0.1v0.1h-0.1l-0.1-0.1l-0.1-0.1v-0.2v-0.1h-0.1l-0.2-0.1h-0.1l0,0.1L14.7,17l-0.2,0.1l-0.2,0.3
	v0.1l0.1,0.1l-0.1,0.2L14,17.8L13.9,18l-0.1,0.2v0.4l0.2,0.3l0.2,0.2v0.1l-0.2,0.3l-0.2,0.1l-0.1,0.2l-0.2,0.1h-0.1l-0.1-0.1h-0.1
	l-0.4,0.1h-0.2l-0.3-0.1L12,19.5H12L11.8,20l-0.1,0.2v0.2l-0.1,0.5v0.4l-0.1,0.1l0.1,0.1l0.2,0.1l-0.1,0.2v0.2h-0.1L11.6,22h-0.1
	l-0.1-0.1l-0.1,0.1L11.1,22L10.7,22l-0.3,0.1h-0.1l-0.1-0.1L10,22.2l-0.2,0.2v0.1l0.1,0.1h0.3h0.2v0.1l-0.1,0.1l0.1,0.3v0.1l0.1,0.1
	l0.1,0.2l0.2,0.3v0.2l0.2,0.1l0.1,0.4l-0.1,0.1l-0.1,0.2l0.2,0.2l-0.1,0.1V25l-0.2,0.1v0.2l-0.2,0.1l-0.4-0.1l-0.4-0.4l-0.1,0.1
	l-0.4-0.2H8.7l-0.2,0.1L8,24.7l-0.4,0.1l-0.2,0.1l-0.2-0.1L7,24.9L6.9,25l-0.5-0.1L6,24.8l-0.2-0.1l-0.3,0.1H5.5H5.2H5.1L5,24.8V25
	l0.1,0.2v0.3H4.8l-0.6,0.1l-0.6-0.1l-0.2-0.1l-0.3-0.1L3,25.4L3,25.5l-0.2,0.1l-0.1,0.1h0.1v0.2l-0.3,0.4l-0.1,0.2l0.2,0.1l0.4,0.1
	L3.2,27L3.4,27l0.2-0.2v-0.3l0.1,0.1L4.1,27l0.1,0.2l-0.3,0.3H3.6l-0.4,0.1l-0.1-0.2l-0.2-0.2l-0.3,0.3H2.5l-0.3,0.2L2,27.6v0.2
	L2.3,28v0.2L2,28.3l-0.4,0.1l0.1,0.1l0.1,0.1l-0.3,0.1v0.2L1.2,29l-0.4-0.1L0.6,29v0.3l0.2,0.3L1,29.6l0.2-0.1l0.1,0.2l-0.1,0.2
	l0.1,0.3l0.2,0.1l0.1,0.2l-0.1,0.1l-0.2,0.4l-0.1,0.6l0.1,0.1l0.1,0.1l0.3-0.1l0.2-0.1L2,31.5l0.1-0.1l0.1-0.1l0.1,0.1l0.1,0.1
	l0.3,0.1v-0.2l-0.1-0.1v-0.2l0.2-0.1l0.1-0.1H3v0.1h0.2L3.3,31l-0.1-0.3l0.1-0.1l0.1-0.1l0.1-0.3l0.1-0.2h0.2l0.2,0.1l0.2,0.1v0.1
	l-0.1,0.2l0.1,0.2h0.1L4.3,31v0.2l0.1,0.2v0.3l0.1,0.2V32l0.2,0.1h0.2L5,32v-0.1l0.3-0.2l0.1-0.1l0.1-0.2l0.1-0.1L6,31.1l0.3-0.1
	l0.1,0.2l0.3-0.1l0.1-0.1h0.4l0.1,0.1l-0.3,0.2l0.2,0.1l-0.2,0.3l-0.4,0.2l-0.8,0.2l0.2-0.1l0.1,0.1l-0.4,0.3v0.4L5.7,33l0.1-0.1
	L6,32.9l0.2,0.2l0.3,0.2l0.2,0.2l0.1,0.2l0.2,0.1v0.2L6.7,34l-0.1,0.2l-0.1,0.1v0.3l0.2,0.3l0.1,0.6l0.1,0.3l0.3,0.3l0.3,0.1
	l0.3,0.1l0.1,0.2l0.3,0.1l0.2-0.1h0.1l0-0.1l0.3-0.4l0.3-0.2h0.2l0.1-0.2h0.2l0.5,0.3l0.3-0.1l0.2,0.1l0.1,0.2H11l0.4,0.4l0.1,0.1
	v0.2l0.2,0.1l-0.1,0.3l0.1,0.2l-0.1,0.1l0.1,0.1l0.1,0.2v0.1H12l0.1,0.2l0.2,0.1l0.1-0.2h0.2l0.1,0.1l0.2,0.1l0.2,0.2l0.1,0.1
	l0.1,0.2h0.2l0.1,0.2v0.3l-0.1,0.4v0.3l-0.2,0.3l0.1,0.2h0.2l0.2,0.1h0.2l0.2,0.1l0.3,0.1l0.4,0.3l0.3,0.3l0.2,0l0,0v-0.3l0.1-0.4
	v-0.3V40l0.3,0.2l0.1,0.1l0.2-0.1l0.1,0.1l0.1-0.2h0.2l0.3,0.1l0.1,0.1h0.2l0.1,0.1l0.3,0.3h0.2l0.2,0.1l0.1,0.1l0.2,0.2l0.1,0.2
	l0.1-0.1V41l0.1-0.1l0.1,0.1h0.2l0.2,0.1v0.3l0.2,0.2l0.3-0.1h0.2l-0.1,0.4l0.1,0.2h0.1l0.3,0.1l0.1-0.1l0.2-0.1l0.2-0.2l0.3,0.1
	l0-0.1l-0.2-0.3l0.1-0.4l-0.1-0.2l0.2-0.1h0.2l0.1,0.2v0.2l0.2,0.1v0.2l-0.1,0.2l0.2,0.3l0.3,0.1l0.1-0.1l0.4,0.2h0.2l0.2-0.2h0.2
	l0.2,0.1l0.3-0.1h0.2l0.3-0.1v-0.1v-0.2l-0.3-0.1v-0.2l0.1-0.2h0.1l0.3-0.1h0.2l0.1-0.2l0.1-0.1l0.1,0.1v-0.1l0.2-0.1l0.1-0.2
	l0.2-0.2l0.2-0.1l0.3-0.1l0.2-0.2v-0.2h0.1l0.2-0.1l0.2,0.2l0.2-0.1l0.3,0.1l0.1-0.1v-0.2l0.4-0.2l0.1,0.1l0.1,0.1l0.1-0.1l0.1,0.1
	l-0.1,0.2l0.1,0.1l0.1-0.1l0.1-0.1l0.1,0.1l0.1,0.2V40l-0.1,0.2l0.1,0.2l0.2,0.1l0.1-0.1l0.2,0.1l0.1,0.1l0.1,0l0.1,0.1l0.1,0.1
	l0.1-0.1h0.2l0.1,0.2l0.2,0.1l0.1,0.3h0.2l0.2,0.2v0.3l0.2,0.3v0.3l-0.1,0.4v0.2l-0.1,0.1l-0.2,0.1v0.2h-0.1l-0.1,0.1l0.1,0.2
	l-0.1,0.1l-0.1-0.1l-0.1,0.1L29,43.7l0.1,0.1L29,44v0.2l0.2,0.1l0.1,0.1l0.1,0.1v0.2l0.1,0.2l0.2-0.2l0.4-0.1l0.1,0.1l-0.1,0.1
	l0.1,0.1l0.2-0.1l0.1,0.2l-0.1,0.2l0.1,0.1l0.2,0.1l-0.1,0.1l0.1,0.1l0.1-0.1l0.2-0.1l0.2,0.1v0.1l-0.1,0.2V46l-0.2,0.3l-0.2,0.2
	l0.1,0.1l0.1-0.1l0.3,0.1l0.1,0.1l0.1-0.1l0.1,0.2l-0.1,0.2l0.1,0.2l0.2,0.1l0.1-0.1H32l0.4-0.2l0.2,0.1v0.2l-0.1,0.1l0,0.1l0.2-0.1
	h0.2L32.9,47v-0.2l-0.1-0.2l-0.1-0.3l0.2-0.1v-0.2h0.3l0,0l0,0l0.1-0.1h0.1l0.1-0.1l0.1-0.1l0.2-0.1h0.1V46l0.1,0.1H34l0.1-0.2
	l0.1-0.1l0.2,0.2l0.1-0.1h0.1l0.1,0.1l0.2-0.1l0.1-0.1l0.2-0.1l0.2,0.1l0.3-0.1v-0.3l0.2-0.1h0.2l0.1-0.1l0.2,0.2v0.1l0.2,0.1
	l0.1,0.1h0.4l0.1,0.1l0.2-0.1l0.2,0.1l-0.1,0.2h-0.1l-0.1,0.3l0.1,0.1l0.1,0.2l0.3,0.1l0.1,0.1l0.2,0.1l0.2,0.1l0.2-0.1l0.1,0.1
	l0.1-0.1l0.2,0.1l0.1,0.1L38.5,47L38.3,47h-0.1l-0.1,0.1h0.1h0.1h0.1l0.1-0.1l0.1,0.1l0.2-0.1v-0.1l0.1-0.2l0.1,0.2l0.2,0.2l0.1-0.1
	l0.2,0.2l0.1-0.1h0.1l0.1-0.2l0.1,0.1L40,47l0.1,0.1v0.1H40l-0.1,0.2l-0.1,0.2v0.1l0.2,0.3l0.1,0.1V48v0.2l0.1-0.1l0.1-0.1l0.2,0.1
	V48h0.1l0.2-0.2l-0.1-0.1h-0.1v-0.1l-0.1-0.2h-0.1l-0.1-0.2l0.1-0.1l0.1-0.1l0.1-0.1V47h0.1l0.1-0.1V47l0.1,0.1v0.1h0.1l-0.1,0.1
	h0.1l0.1-0.1H41l0.1-0.1l0.2,0.1l0.4,0.1l0.2-0.1l-0.1-0.1H42l0.2-0.1l0.2,0.1l0.1-0.1l0.2-0.1l0.2-0.2l0.1-0.2v-0.1l0.1,0.1
	l0.1,0.1l0.1-0.1l0.1-0.1l0.1-0.1L43.2,46l-0.1-0.2v-0.1l-0.1-0.1l0.1,0.1l0.2,0.1v0.1l0.2,0.2l0.1-0.1l-0.1,0.1l-0.1,0.1v0.1
	l0.3-0.2v-0.2l0.2-0.1l0.1-0.1l0.1,0.1l0.1-0.1v-0.1l0.1-0.1l0.1-0.1l0.1,0.1l0.1,0.2l0.1-0.1v-0.2h0.1v0.1H45v-0.1h0.2l0.1-0.1
	l0.1-0.1v0.1l0.1-0.1h0.1l0.2-0.1l-0.1-0.1l0.1-0.1l0.1-0.2l-0.1-0.2h0.1l0.1-0.1l0.2-0.1v0.1h0.2l0.1-0.2h0.2v-0.1h0.1v0.1l0.1-0.1
	l0.1-0.2l0.1,0.1v-0.2h0.1L47,44L46.8,44L46.7,44l-0.2-0.2h0.3l0.1-0.2l0.2,0.4l0.1-0.1l0.2,0.2l0.1-0.2l-0.2-0.1l-0.1-0.1v-0.1
	l0.2,0.1l0.1-0.1v-0.1h-0.1v-0.2l-0.1-0.1l0.1-0.1l0.1,0.1h0.1l0.1,0.1v-0.2l-0.1,0v-0.1l-0.1-0.1h-0.1L47.3,43l0.1-0.1v-0.1
	l-0.2-0.1l0.2-0.2l-0.1-0.1h-0.1l-0.1,0.1l0.1-0.1l0.2-0.1l0.3-0.1l-0.1-0.1l-0.1,0.1l-0.2-0.2h0.2l-0.1-0.2h-0.1l0.1-0.1l-0.1-0.1
	h0.1l0.1-0.2h0.1v0.2h0.1l0.2-0.2v-0.1h0.2L48,41.2h-0.1l0.1-0.2l0.1,0.1l0.2-0.1v-0.2l0.1-0.1l-0.1-0.1v-0.1l0.1-0.1l-0.1-0.1v-0.1
	l-0.2-0.1l0.2,0.1l0.1-0.1l0.1-0.3h0.2l0.1,0.2l0.1,0.1l0.1-0.2l0.1-0.1l-0.1-0.2h-0.2l-0.1-0.1l0.1-0.1h0.1l0.1-0.1l-0.1-0.1
	l-0.1-0.1l0.1-0.1H49v-0.1l-0.1-0.1h-0.3V39l0.2-0.2l0.2,0.1l0.1-0.1v-0.1l0.1,0.1v0.1l0.1-0.1l-0.1-0.1v-0.3l-0.1-0.1l-0.1,0.1
	l0.1,0.1v0.1l-0.2-0.1l-0.2,0.2h-0.1v-0.2l0.2-0.1l0.4-0.4V38h-0.2l-0.1-0.1l-0.1,0.1l-0.3-0.4l-0.2-0.1L48,37.7l-0.1-0.1l-0.2-0.3
	l-0.2,0.1l-0.2,0.2l-0.1,0.2v-0.2l0.2-0.2h0.1l0.1-0.1l0.2,0.1l0.2-0.1v-0.2l0.1-0.1h0.1l0.2-0.2h0.2v-0.1l-0.2-0.3l-0.4-0.3
	l-0.3-0.2l-0.3-0.3l0.1,0l0.2,0.1H48l0.2,0.2l0.3-0.2l0.2,0.1h0l0,0l0.2,0.1l0.1-0.1l-0.1-0.3l-0.1-0.1l-0.2-0.3v-0.1l-0.1-0.1h-0.2
	L48,35l-0.2-0.3v-0.3l-0.3-0.2v-0.3l-0.2-0.1l0.1-0.2h-0.1L47,33.1l-0.5-0.2l-0.1,0.1v-0.1L46,32.6h-0.1v-0.4l0.1-0.3l-0.1-0.2
	l0.1-0.3l0.1,0.1l0.1-0.1l0.2-0.3l0.1,0.1l0.2-0.2l-0.2-0.1l-0.1-0.1l0.1-0.2h0.3v-0.2l0.2-0.1v-0.1l-0.2-0.1H47l0.2,0.1l0.1-0.1
	h0.2l0.2-0.1h0.1l0.2-0.2l0.1,0.1l0.1-0.1v0.1l0.2,0.2l0.2-0.2v-0.1h-0.1v-0.2l0.1-0.1h0.1l-0.2-0.2v-0.1l0.2-0.1l-0.1-0.1l-0.2,0.1
	h-0.2v-0.1h-0.2l-0.1,0.1h-0.6L47,29.1L46.9,29l-0.1-0.2l-0.1-0.1l-0.1-0.1l-0.4,0.2H46l0.1,0.1v0.2L46,29.3l-0.2,0.1h0.1l0.1,0.1
	l-0.1,0.2l-0.1,0.1l-0.2-0.1l-0.2,0.1h-0.2l-0.2-0.4v-0.2l-0.1-0.2h-0.2L44.5,29v-0.1h-0.1L44.3,29l-0.1-0.1v0.1l-0.1-0.2l-0.1-0.1
	l-0.3-0.2l-0.2-0.1v-0.2l-0.1-0.2l0.1-0.1v-0.1v-0.1v-0.2l0.1-0.1v-0.1l0.3,0.1h0.3h0.2l0.1-0.2l-0.1-0.1h0.1l-0.1-0.2l-0.1-0.1
	l0.1-0.1l0.1-0.4l0.3-0.2h0.2l0.1-0.2h0.1v-0.3l0.2-0.2l0.1-0.2l0.1-0.1l0.1-0.2h0.2l0.1,0.1h0.2l0.1-0.2l0.3,0.3l0.4,0.2v0.2
	L47,25.5l-0.1,0.1l-0.2,0.2v0.2h-0.2v0.1l-0.1,0.2l0.2,0.2v0.1l-0.1,0.1v0.1l0.1,0.1l0.2-0.1l0.3-0.2l-0.1,0.2l-0.2,0.1V27H47v0.1
	L47,27.2h-0.2l-0.1,0.1h-0.2l-0.1,0.1l0.1,0.1v0.2h0.1l0.1-0.1h0.1l0.2-0.2l0.2-0.1v-0.1L47.2,27l0.2-0.2l0.2-0.2h0.1l0.1-0.2H48
	l0.2-0.2l0.1,0.1l0.1-0.1h0.2l0.3-0.3l0.1,0.2l0.4-0.2l2.6-1.8l0.2-1.3l0.8-0.6l0.1-0.1V22L53,22l-0.1-0.2v-0.1l0.1-0.1h0.2h0.1
	v-0.2v-0.1v-0.1l0.1-0.1v-0.2v-0.2l-0.1-0.1v-0.3v-0.2v-0.2V20l-0.1-0.2l-0.1-0.1L53,19.6l-0.2-0.3l-0.1-0.2l0.1-0.1l0.1-0.1H53
	l0.7-0.3l0.1-0.1l0.2-0.2H54l0.2,0.1l0.1,0.1l0.6,0.1h0.1H55l0.1-0.1v-0.1L55,18.2v-0.1l0.1-0.1L55,18v-0.1l0.1-0.2l0.1-0.1
	l-0.1-0.1L55,17.4v-0.1l0.1-0.1l-0.1-0.1v-0.1L55,17l0.1-0.1l0.1-0.1v-0.1l-0.1-0.1l-0.1-0.2v-0.2h0.1l0.1-0.1v-0.1l-0.1-0.1V16
	l-0.1-0.1L55,15.9l0.1-0.1v-0.2L55,15.5L55,15.4v-0.1l0.1-0.2h0.1l0.1-0.1V15l0.1-0.2L55.2,14.8z M47.3,43.2h-0.2l0.1-0.1L47.3,43.2
	z M46.1,35.4l0.2-0.1l0.1,0.1h0.1l0.1-0.1l0.1,0.1l0.2-0.1l0.2,0.4l0.1,0.1h0.1l-0.1,0.1L47,35.8l-0.2-0.2v-0.1l-0.1-0.1l-0.2,0.1
	h-0.2l-0.2,0.1l-0.2,0.3L46.1,35.4z"/>
</svg>
