<?xml version="1.0" encoding="utf-8"?>
<!-- Generator: Adobe Illustrator 19.2.0, SVG Export Plug-In . SVG Version: 6.00 Build 0)  -->
<svg version="1.1" id="Layer_1" xmlns="http://www.w3.org/2000/svg" xmlns:xlink="http://www.w3.org/1999/xlink" x="0px" y="0px"
	 viewBox="0 0 56 56" style="enable-background:new 0 0 56 56;" xml:space="preserve">
<style type="text/css">
	.st0{fill:#FDC414;}
</style>
<polygon id="Colombia" class="st0" points="36.8,55.7 37.4,54 39.1,47.2 39.3,46.8 39.3,45.6 38.4,44.3 37.2,43.3 36.6,42.7 
	36.6,40.8 38.6,40 39.5,40.6 39.7,40 39.3,39.6 39.7,39.2 39.3,38.4 38,38.1 37.6,37.3 37.8,36.3 41.5,36.3 41.9,35.9 42.6,35.9 
	43,36.1 43.4,36.1 44,35.3 44.8,35.1 45,35.7 45.5,36.3 45.7,36.9 45.7,37.9 46.5,37.7 46.5,37.1 45.9,35.5 45.5,34.6 45.7,34.2 
	45.2,33.6 45,33.4 44.8,33 44.6,32.8 44.4,33 44,33 44,32.4 45,30.5 44.2,28.9 44.2,28.4 44,28 43.8,27 44.2,26.2 44,25.8 
	43.8,24.5 44.2,24.1 45,23.9 45.2,23.5 45.2,22.9 45.5,22.3 45.2,21 44.8,20.8 44.2,20.8 44,21 43.2,21 42.6,21 41.9,21.2 41.5,21 
	40.9,20.8 40.5,21 40.3,20.8 39.5,21 37,18.5 36.4,18.3 35.3,18.1 34.5,18.3 34.1,18.5 33.5,18.1 32.7,18.1 32,18.5 31.4,18.1 
	30.8,18.1 30,17.7 29.1,17.1 29.1,16.7 29.4,16.3 29.4,15.9 29.6,15 29.6,14.4 28.9,13.6 27.7,11.3 27.1,11.3 26.7,11.3 26.7,10.9 
	27.3,9.9 27.3,8.8 27.1,8.2 27.3,7.6 28.3,6.2 28.7,5.7 29.4,4.9 30,4.7 30.2,4.5 31.2,2.9 32.9,2.2 32.9,2.2 33.3,2.2 33.5,2 
	33.7,1.8 33.9,1.4 33.5,1 32.4,0.4 31.8,0.4 31.8,0.6 31.6,0.8 31.2,1 31,1.2 30.4,1 30,1.2 29.8,1.6 30,1.8 29.8,2.2 28.9,2.7 
	27.9,3.3 27.1,3.9 26.3,4.1 25.2,4.1 24.2,3.9 23.6,4.3 23.6,4.7 23.8,5.1 23.8,5.7 23.2,6.2 23,6 23,5.5 23,5.3 23.4,5.1 22.8,5.1 
	21.9,4.7 21.5,4.7 20.5,5.5 20.3,6 19.4,6.8 18.6,8.4 18.4,8.8 18.8,8.6 19,9 19,9.5 18.8,10.1 18.4,10.3 17.8,10.3 17.4,10.7 
	16.6,11.5 16.1,11.7 15.5,12.6 15.1,12.6 14.7,12.6 14.7,13.2 15.3,13.8 15.3,14.6 15.1,15.4 14.7,15.4 14.1,14.8 14.1,14.6 
	14.3,14.2 13.9,14 13.7,13.4 13.1,12.8 12.8,13.4 12.8,13.8 13.3,14.6 12.8,15.4 12.4,16.3 12.2,16.5 11.8,16.5 11.4,17.5 
	11.6,17.7 11.6,18.3 11.8,19.2 12.4,20 12.6,20 12.8,19.8 13.1,20 13.3,20.8 12.8,21.2 12.8,21.4 13.3,21.8 13.3,22.9 12.6,23.1 
	12.4,23.5 12.6,23.7 13.1,24.3 12.8,25.4 13.1,26.8 12.4,27.4 12.4,27.8 12.8,28.4 13.5,28.2 13.3,28.4 13.7,29.1 14.1,29.1 
	14.1,29.3 13.7,29.7 13.5,30.5 12.2,31.5 11.8,32.4 11,33.2 9.7,33.4 8.7,34.2 7.9,35.5 7.7,36.5 7.7,37.1 8.5,37.5 9.7,38.4 
	11.2,39.2 11.6,39.2 12.4,40 12.2,40.4 12.4,40.8 13.5,41 14.5,41.7 14.9,41.9 15.9,42.1 16.4,41.7 16.4,41 16.8,40.6 17,40.6 
	18,41 18.6,41.2 18.6,41.7 19,41.9 19.2,42.1 19.4,42.1 19.9,42.3 20.9,42.7 21.7,42.9 21.9,43.1 22.5,44.1 22.8,44.8 23.2,45.6 
	23.6,45.6 25.2,46.2 25.8,47.2 25.8,47.8 26.1,48.1 26.7,48.3 26.9,49.1 26.7,49.3 26.9,49.9 27.5,50.1 28.1,49.9 28.7,50.1 
	29.6,50.1 29.8,49.7 30.8,49.3 31.8,49.5 32.4,49.9 33.7,49.3 34.3,49.3 34.5,49.7 34.9,49.7 35.5,50.1 36,50.5 36.6,50.3 
	36.6,50.7 34.5,54.2 34.5,54.7 35.3,54.7 36.2,54.5 36.6,55.1 "/>
</svg>
