<?xml version="1.0" encoding="utf-8"?>
<!-- Generator: Adobe Illustrator 19.2.0, SVG Export Plug-In . SVG Version: 6.00 Build 0)  -->
<svg version="1.1" id="Layer_1" xmlns="http://www.w3.org/2000/svg" xmlns:xlink="http://www.w3.org/1999/xlink" x="0px" y="0px"
	 viewBox="0 0 56 56" style="enable-background:new 0 0 56 56;" xml:space="preserve">
<style type="text/css">
	.st0{fill:#FDC414;}
</style>
<path id="Cuba" class="st0" d="M11.2,25.1l0.3-0.6l1,0.3l1,1v1l-1.3,0.3l-1-0.3v-0.6l0.3,0.3h0.6l0.3-0.3l-0.3-0.3L11.2,25.1
	L11.2,25.1z M4,22.6l0.6,0.6l-0.3,0.3l-1-0.3l-1.9,1l-0.6-0.3v0.6l1,0.3l1-1.3l0.3,0.3v0.6l1.3-0.6h1l1-1.6l1.3,0.3l0.6-0.3l0.6,0.6
	l1-0.3l1.6-1.9l1-0.3l0.6-0.6l1.3,0.3h1l2.3,0.3l0.6,0.6l-0.6,0.3h-1.3l-0.6,0.6l0.6,0.6l2.9,0.3l0.6-0.3h1l0.6,0.6l1.3,0.3h0.6
	l0.3-0.6l0.6,0.6v0.6l1.6,1.3l1.3,0.3l0.6-0.3l1,0.6h1l0.6,0.3l1.3-0.3l0.6,0.3l1,2.9l1.6,1.9h1l0.3-0.3l1.3,0.6h1.9l0.3,0.6l1,0.3
	v1l-1.3,0.3L38,35.5v1l1.6,0.3l1.3-0.6l1,0.3l2.6-0.6l1.3,0.3l1.6,0.6l2.6-0.6l0.3-0.6H51l0.6-0.6l1.6,0.3l1.3-0.3l0.6-1l-0.3-0.3
	h-1l-0.6-1.3l-2.3-1h-2.6L47.8,31l0.6-0.6l0.3-1.3l-0.6-0.3l-1,0.3h-1l-1.9-1.3l-0.6,0.3l-0.6-0.6l-1.3-1l-0.6,1l-0.3-0.3l0.3-0.6
	l-0.6-0.3L40,26.8l-0.6-0.6l-1.9-0.3l-1.3-1.3l-1.3-0.6l-1.3-1h-2.9l-1-0.3l-0.3-1L28,20.3l-1,0.3L26.7,20l-3.9-0.6l-1.3,0.3
	l-1.6-0.3l-1-1L16.7,18h-1.9l-1,1h-2.9l-2.3,0.6l-0.6,0.6l-2.3,0.6l-0.6,1L4,22.6L4,22.6z"/>
</svg>
