<?xml version="1.0" encoding="utf-8"?>
<!-- Generator: Adobe Illustrator 19.2.0, SVG Export Plug-In . SVG Version: 6.00 Build 0)  -->
<svg version="1.1" id="Layer_1" xmlns="http://www.w3.org/2000/svg" xmlns:xlink="http://www.w3.org/1999/xlink" x="0px" y="0px"
	 viewBox="0 0 56 56" style="enable-background:new 0 0 56 56;" xml:space="preserve">
<style type="text/css">
	.st0{fill:#FDC414;}
</style>
<polygon id="Czech_Republic" class="st0" points="20.4,15.3 20.9,16.3 21.4,15.8 22.8,15.8 23.8,15.8 26.6,16.3 26.6,16.8 
	28.1,18.2 29,18.2 30.4,19.2 29.5,20.6 30,21.5 30.4,22 30.4,23.4 31.4,23.9 32.4,23 33.3,23 31.4,20.6 32.4,20.1 35.7,22 38.1,22 
	37.6,23.4 39,24.4 41.9,23.9 44.3,24.4 48.6,27.7 50,30.1 51.4,30.1 51.9,29.6 54.3,29.6 55.2,31.1 55.7,33 52.4,32.5 50.5,33.9 
	48.6,33.9 46.7,36.3 43.8,36.8 40.9,37.7 40.5,37.3 38.6,37.3 36.6,38.2 33.3,37.7 32.4,36.8 30,36.8 28.1,36.8 26.2,35.4 
	23.3,35.4 21.9,34.9 21.4,36.3 20.4,36.8 20.4,38.2 18.5,38.2 17.6,39.2 13.8,36.8 12.8,36.8 12.8,36.8 10,33.5 8.5,32.5 6.1,30.6 
	4.7,29.6 4.2,28.7 4.2,26.8 2.8,24.4 0.4,23 0.4,22 1.4,21.5 1.9,22 3.3,23 5.7,20.1 7.1,20.1 8.5,18.7 10,18.7 10.9,17.3 
	13.3,17.3 14.7,17.3 15.7,16.8 15.7,15.3 18.1,15.8 19,15.3 20,15.8 "/>
</svg>
