<?xml version="1.0" encoding="utf-8"?>
<!-- Generator: Adobe Illustrator 19.2.0, SVG Export Plug-In . SVG Version: 6.00 Build 0)  -->
<svg version="1.1" id="Layer_1" xmlns="http://www.w3.org/2000/svg" xmlns:xlink="http://www.w3.org/1999/xlink" x="0px" y="0px"
	 viewBox="0 0 56 56" style="enable-background:new 0 0 56 56;" xml:space="preserve">
<style type="text/css">
	.st0{fill:#FDC414;}
</style>
<polygon id="Djibouti" class="st0" points="16.3,4.7 21.9,8.5 29.4,6.6 36.9,1 48.2,1 50.1,4.7 46.3,12.3 46.3,16 42.6,21.6 
	44.4,29.1 40.7,34.8 38.8,42.3 27.6,46 23.8,47.9 20,49.8 14.4,55.4 14.4,55.4 14.4,53.5 6.9,46 5,46 6.9,44.2 5,34.8 8.8,32.9 
	14.4,27.3 18.2,27.3 21.9,23.5 27.6,23.5 23.8,19.8 21.9,17.9 18.2,19.8 10.7,19.8 8.8,17.9 16.3,6.6 "/>
</svg>
