<?xml version="1.0" encoding="utf-8"?>
<!-- Generator: Adobe Illustrator 19.2.0, SVG Export Plug-In . SVG Version: 6.00 Build 0)  -->
<svg version="1.1" id="Layer_1" xmlns="http://www.w3.org/2000/svg" xmlns:xlink="http://www.w3.org/1999/xlink" x="0px" y="0px"
	 viewBox="0 0 56 56" style="enable-background:new 0 0 56 56;" xml:space="preserve">
<style type="text/css">
	.st0{fill:#FDC414;}
</style>
<path id="Denmark" class="st0" d="M39.8,47.3l0.5,0.5l1.6,0.5l1.1-1.6l1.1,0.5v-0.5l-0.5-1.1l0.5-1.6H43l-0.5,0.5L42,44.1l-1.1,0.5
	v1.1H42l-0.5,0.5L39.8,47.3L39.8,47.3L39.8,47.3z M52.2,35.5l-0.5,2.1l0.5,1.6l2.7,1.1l0.5-1.6l-1.6-2.1L52.2,35.5L52.2,35.5z
	 M35.5,31.8L35,33.4l1.1,0.5L35.5,31.8L35.5,31.8z M31.3,39.8h-1.1l-0.5-1.1l0.5-1.1l-0.5-0.5l-2.1-0.5h-1.1l-1.1-1.1v-1.6l-0.5-1.1
	v-1.1l1.1-0.5l0.5-1.1l0.5-0.5l0.5,1.1v0.5l1.6,1.1l0.5-0.5h1.1v-1.1l-1.1-1.1l-0.5-0.5l0.5-1.6l2.1-0.5h2.1l0.5,1.6v1.6l-0.5,2.1
	l-1.6,1.1v0.5l1.6,1.1l0.5,1.1l-1.1,0.5l-1.6,0.5v1.1L31.3,39.8L31.3,39.8z M32.3,40.4l0.5,0.5l0.5-1.1h1.1v-1.1l-1.1,0.5L32.3,40.4
	L32.3,40.4z M25.9,40.4l1.6,2.1l1.1-0.5h1.1l0.5-1.1h1.6h0.5l0.5,1.1l-0.5,1.6v1.1h-0.5l-0.5-1.1l-1.1,1.1H28l-2.1-1.1l-0.5-1.1
	l1.1-0.5l-0.5-0.5l0.5-1.1L25.9,40.4L25.9,40.4z M20,31.8l1.1-1.1v-2.1l0.5,2.1v1.1H20L20,31.8z M18.9,40.9L20,42l0.5-0.5L18.9,40.9
	L18.9,40.9z M23.2,38.2l-0.5,2.1l-0.5,1.1l0.5,0.5l1.1-1.1l1.1-2.1C24.3,39.3,22.7,38.2,23.2,38.2L23.2,38.2z M15.2,33.9l2.7-0.5
	l1.6,1.1h1.1l1.1,2.1l0.5,1.1l-1.1,2.1l-1.6,0.5l-1.1-0.5h-1.6l-1.6-1.6l-1.1-1.6L15.2,33.9L15.2,33.9z M22.1,13l0.5-1.1h1.6
	L22.7,13H22.1L22.1,13z M7.1,20.5v-1.6l1.1-1.1h1.1v1.1l-1.1,1.6H7.1L7.1,20.5z M6.6,21.6l-0.5-2.1l0.5-1.1l2.7-1.6l0.5,0.5h1.6
	l1.6,0.5l1.1-0.5h1.6l1.6,0.5l1.1-0.5l1.6-2.7L19.5,13l0.5-0.5l-0.5-1.6l1.1-2.1V8.2l-2.1,2.1l-2.1,1.1h-1.6L13.6,13l-1.1,2.1
	l-1.6,1.1H9.3l-2.1,1.6l-0.5-0.5H5.5L5,18.9L3.9,20l0.5,0.5L5,20L6.6,21.6L6.6,21.6z M13.6,41.4L13.6,41.4l0.5-1.1L13,39.3h-0.5
	v-1.1l1.1-1.1v-1.1l-1.1-0.5v-1.1l3.2-1.6l-0.5-0.5l1.1-1.1l0.5,0.5l1.6-0.5v-2.1l-0.5-1.6l1.1-1.1h1.6l1.1,1.1l0.5-0.5h0.5l0.5-1.1
	l0.5-1.6l-1.6-1.6l-1.1,0.5h-2.1l-1.1-1.1l-1.1-1.1h-1.1l0.5-1.1v-1.6l-1.6-1.1H12l-1.1,0.5H9.8l-0.5,0.5l1.6,2.1l-0.5,0.5l1.1,1.6
	v0.5l-1.1-0.5l-1.6,0.5v-0.5l1.1-1.1L8.7,20H8.2l-1.1,1.6l0.5,1.1l-1.6,1.1L5,22.7H3.4l-1.1-0.5l-1.1,1.1l1.6,1.1v1.6l-1.1-1.1H1.2
	L1.8,27l1.1,0.5v2.1l1.1,1.1l-2.1,1.1l-1.1,2.7L1.8,35l1.6-0.5l2.1,1.6l0.5,2.7l-0.5,0.5l0.5,1.1h2.1l3.2,1.1l1.1,0.5L13.6,41.4z"/>
</svg>
