<?xml version="1.0" encoding="utf-8"?>
<!-- Generator: Adobe Illustrator 19.2.0, SVG Export Plug-In . SVG Version: 6.00 Build 0)  -->
<svg version="1.1" id="Layer_1" xmlns="http://www.w3.org/2000/svg" xmlns:xlink="http://www.w3.org/1999/xlink" x="0px" y="0px"
	 viewBox="0 0 56 56" style="enable-background:new 0 0 56 56;" xml:space="preserve">
<style type="text/css">
	.st0{fill:#FDC414;}
</style>
<path id="Dominican_Republic" class="st0" d="M50.1,35.1l1.8,1.8h2.7l-1.8,0.9L51,36.9L50.1,35.1L50.1,35.1L50.1,35.1z M7.3,12.8
	v1.8l-1.8,2.7l0.9,1.8l-0.9,2.7l-1.8,0.9v0.9l0.9,2.7v2.7v1.8L1,34.2V36h1.8l1.8,3.6l-0.9,2.7l2.7,0.9l0.9,1.8l1.8,0.9l1.8-4.5
	l3.6-4.5v-1.8l0.9-1.8l1.8,1.8h1.8l1.8-3.6l1.8,0.9v2.7l1.8,0.9l3.6-0.9l3.6-3.6l4.5-0.9l4.5,0.9l2.7-0.9l1.8,1.8h3.6l3.6,0.9
	l0.9-1.8h1.8l0.9-1.8L54.6,28l-5.4-3.6h-1.8l-3.6-0.9h-2.7l-3.6-1.8l-3.6-2.7h-2.7l1.8-0.9l3.6,0.9L43,20l2.7-0.9l-1.8-1.8h-1.8
	l-4.5-0.9l-1.8-4.5h-2.7l-0.9,0.9l-1.8-0.9L18.9,9.3L18,10.1l-2.7-0.9l-4.5,0.9L7.3,12.8z"/>
</svg>
