<?xml version="1.0" encoding="utf-8"?>
<!-- Generator: Adobe Illustrator 19.2.0, SVG Export Plug-In . SVG Version: 6.00 Build 0)  -->
<svg version="1.1" id="Layer_1" xmlns="http://www.w3.org/2000/svg" xmlns:xlink="http://www.w3.org/1999/xlink" x="0px" y="0px"
	 viewBox="0 0 56 56" style="enable-background:new 0 0 56 56;" xml:space="preserve">
<style type="text/css">
	.st0{fill:#FDC414;}
</style>
<polygon id="Algeria" class="st0" points="55.8,41.9 55.4,41.6 55.1,41.1 54.7,40.9 54.2,39.8 53.9,39.1 53.3,38.8 52.5,38.8 
	51.2,38.8 51.1,38.4 50.9,37.9 50.5,37.6 50.5,36.9 50.5,36.5 50.4,35.8 50.2,35.6 49.7,34.6 49.1,33.7 48.6,33.2 49,33.2 
	49.1,32.8 49.7,32.3 50,32 49.8,31.1 49.7,30.4 49.7,30 50,28.6 49.7,27.8 49.5,26.4 49.5,26 49.5,25.1 49.5,23.2 49.1,22.7 
	48.8,22.5 48.8,21.5 49.1,21.3 47.4,15.9 46.7,15 46.3,15 46,14.6 45.3,14.5 45.1,13.8 44.4,13.1 44.1,12.9 43.7,12.4 43.9,12.2 
	43.5,11.3 43.4,11.3 43.7,9.9 44.2,9.2 44.8,9 44.9,8.7 45.3,8.5 45.5,7.6 45.6,7.3 45.3,6.9 45.6,6.4 45.8,6.2 45.8,6.1 45.5,5.7 
	45.3,5 45.8,3.6 45.6,2.9 45.8,2 45.6,1.7 45.8,1.3 45.6,1.2 44.9,1.3 44.4,1.2 43.4,1.5 42.7,1 42,0.8 42,1 41.4,1.5 40.6,1.3 
	40.4,1 40,0.6 39.5,0.8 39.3,1.2 38.8,1.3 38.6,1.7 38.3,1.5 37.8,1.5 37.2,2 36.5,2 36.2,1.3 35.5,1.3 35.1,1.3 34.4,1.3 33.9,1.3 
	33.6,1.3 33,1.2 32.7,1.3 32.5,1.9 31.8,1.9 31.3,1.7 30.6,2.4 30.2,2.4 29.5,2 29,2.2 28,2.2 27.4,2 26,3.1 25.3,3.3 24.8,3.3 
	24.3,3.6 24.1,4.1 23.8,4.5 23.6,4.5 23.4,4.3 23.1,4.3 22.7,4.7 22.5,4.8 21.8,4.8 21.1,5.2 20.8,5.5 20.6,5.9 20.1,6.4 19.4,6.6 
	18.5,6.8 18.7,6.9 18.9,7.3 19.2,7.6 19.2,8.2 19.4,8.3 19.4,9.4 19.4,10.4 19.6,10.8 19.7,12.9 20.1,13.6 20.3,14.1 20.6,14.3 
	21,14.6 21.3,14.6 21.5,14.8 21.1,15.5 21.3,15.7 21,16.2 17.6,16.2 16.9,16.4 16.2,17.4 15.7,18 15.5,18.5 15.5,19.4 15.2,19.9 
	13.4,21.3 10.5,22.9 8.2,24.3 7.2,24.4 6.1,24.6 5.6,24.6 4.7,24.6 3.3,25 2.6,25.5 1.9,26.2 0.7,27.1 0.7,29.5 0.7,29.5 0.7,30.2 
	0.7,30.2 0.7,30.2 10.7,36.9 10.7,36.9 28.7,48.9 28.8,50.1 29.5,50.7 30.6,50.7 31.3,50.8 31.8,51.5 32.5,51.7 33,52.2 33,52.6 
	32.7,53.5 32.9,53.8 33.6,54.2 34.8,54 35.8,53.6 35.8,53.6 35.8,53.6 40,52.6 43.4,49.4 "/>
</svg>
