<?xml version="1.0" encoding="utf-8"?>
<!-- Generator: Adobe Illustrator 19.2.0, SVG Export Plug-In . SVG Version: 6.00 Build 0)  -->
<svg version="1.1" id="Layer_1" xmlns="http://www.w3.org/2000/svg" xmlns:xlink="http://www.w3.org/1999/xlink" x="0px" y="0px"
	 viewBox="0 0 56 56" style="enable-background:new 0 0 56 56;" xml:space="preserve">
<style type="text/css">
	.st0{fill:#FDC414;}
</style>
<path id="Ecuador" class="st0" d="M53.2,13.6L53.2,13.6L52,13l-0.6-1.1l-1.1-0.6l-2.8-1.1h-0.6l-1.1,1.1V13l-1.1,1.1l-2.8-0.6
	L40.7,13l-2.8-1.7h-2.8l-0.6-1.1l0.6-1.1l-2.3-2.3h-1.7l-4-2.8l-2.8-2.3l-2.8-1.1l-0.6,2.3h-2.8l-4,2.8h-2.3L9.6,6.8l1.1,2.3v1.1
	l0.6,1.1l-0.6,2.3L7.4,17v1.7l0.6,1.1l-1.7,2.3H4.5l-1.7,2.3l0.6,1.1L4,27.2v1.1l0.6,2.8l-1.1,1.7l-1.1,0.6l1.1,1.1l1.7,0.6l1.7,1.7
	l1.7,1.1l0.6-0.6l0.6-2.3l0.6-1.1l1.1-1.1v1.7v1.1l0.6-0.6v-1.1h0.6l0.6,2.3l-0.6,2.3v1.1l-1.1,2.3l-2.3,1.7l0.6,0.6l0.6,2.3
	l-1.7,1.1l-1.7,1.7v1.7h1.7l2.3-1.1l0.6,1.1l2.8,0.6l1.7,0.6l2.8,3.4h1.1l1.7-1.7l6.8-14.1l1.1-1.1l9-2.8l4-2.8l6.2-5.7l2.3-5.7h1.7
	l0.6-0.6l0.6-2.3V17L52,13.6v-1.1L53.2,13.6L53.2,13.6L53.2,13.6z M9.1,41.8L9.1,41.8l1.1-2.3l1.7-1.7v0.6l-0.6,1.1v1.1l-0.6,1.1
	l-1.1,0.6L9.1,41.8z"/>
</svg>
