<?xml version="1.0" encoding="utf-8"?>
<!-- Generator: Adobe Illustrator 19.2.0, SVG Export Plug-In . SVG Version: 6.00 Build 0)  -->
<svg version="1.1" id="Layer_1" xmlns="http://www.w3.org/2000/svg" xmlns:xlink="http://www.w3.org/1999/xlink" x="0px" y="0px"
	 viewBox="0 0 56 56" style="enable-background:new 0 0 56 56;" xml:space="preserve">
<style type="text/css">
	.st0{fill:#FDC414;}
</style>
<path id="Estonia" class="st0" d="M52.7,46.2l1.3-2.5v-1.9l1.3-1.3v-1.9l-4.4-8.2l0.6-7.6l1.3-0.6l0.6-2.5l1.3-1.9v-0.6v-0.6
	L54,14.5v0.6h-8.2L42,12.6h-3.8l-1.9-1.3L34.4,12l-1.9-1.9v1.3h-1.3V12l1.3,1.3l-1.9,1.3l-0.6-0.6h-3.8l-0.6-0.6l-0.6,1.9H23
	l-1.9,0.6v1.9h-1.3L16.7,19l-1.3,1.9v6.3h1.3l0.6-0.6h1.9l-0.6,1.3h-1.3v2.5l1.9,2.5l2.5,2.5H23v-1.9l1.9-1.3l0.6,1.3l-1.3,5.1v1.3
	l1.3-0.6l3.2-1.9l2.5-0.6l2.5,1.9H35l0.6-1.9l1.3,1.3l0,1.3h1.3l3.2,1.9l1.3,2.5l1.9,0.6l1.3,1.9l3.8-1.3L52.7,46.2L52.7,46.2z
	 M12.2,22.8h1.9l0.6,1.3h-1.9L12.2,22.8L12.2,22.8z M9.1,27.8l-1.3-1.9H5.9L4,26.6l-0.6-0.6l3.2-1.3l0.6-1.3v-0.6h1.3L9.7,24h1.9
	l0.6,1.9L11,25.3l-1.9,1.3V27.8L9.1,27.8z M12.9,29.1v-1.3h2.5l0.6,1.9l-1.3,0.6L12.9,29.1L12.9,29.1z M4,40.5h0.6l1.3-1.3v-1.3
	l1.3-2.5l2.5-0.6l1.3-1.3l1.3-1.9h1.3h0.6L13.5,31l-1.3-0.6L11,29.1H7.8l-0.6-0.6l-1.3,1.3H5.3L4,31l-0.6-1.3l-1.3-0.6v0.6l-1.3,0.6
	L2.1,31v1.3l-1.3,0.6v1.3l1.3,0.6L3.4,36l-0.6,1.3H2.1L4,40.5z"/>
</svg>
