<?xml version="1.0" encoding="utf-8"?>
<!-- Generator: Adobe Illustrator 19.2.0, SVG Export Plug-In . SVG Version: 6.00 Build 0)  -->
<svg version="1.1" id="Layer_1" xmlns="http://www.w3.org/2000/svg" xmlns:xlink="http://www.w3.org/1999/xlink" x="0px" y="0px"
	 viewBox="0 0 56 56" style="enable-background:new 0 0 56 56;" xml:space="preserve">
<style type="text/css">
	.st0{fill:#FDC414;}
</style>
<polygon id="Egypt" class="st0" points="44.2,16.1 43.6,14.7 43.9,13.6 43.1,11.4 41.7,9.4 41.4,8.1 40.6,6.7 40,6.4 39.5,7.2 
	38.3,7.8 35.6,7.2 33.4,7.8 31.7,6.7 31.4,7.5 32.2,8.3 32,8.9 31.4,8.1 30.6,7.5 30.3,6.7 30.9,6.7 30.6,6.1 29.8,6.4 28.9,5.8 
	27.5,5.6 27.3,5.8 27.8,5.8 27.8,6.4 27,6.4 26.1,6.4 25.3,6.7 25,6.4 25,6.1 25.9,6.1 26.7,5.8 25.6,5.8 24.5,5.8 23.9,6.4 22.8,7 
	22.3,7.2 21.2,7.5 20.3,8.6 20,8.9 18.7,8.9 17,7.8 15.9,7.8 14.5,7.8 13.1,7.2 12.8,7.2 12.3,7.5 10.9,6.7 9.5,6.4 6.2,6.1 
	4.5,5.6 2.3,5.6 2,5.6 2,5.6 1.7,6.4 1.2,8.3 1.7,9.4 1.7,10.3 1.2,11.9 0.6,13.3 1.2,14.4 1.7,16.7 3.1,51 55.3,50.8 55.3,50.8 
	54.4,50.5 53.3,49.4 53,48.8 52.2,48.5 51.7,47.4 51.1,47.7 50.3,47.7 48.9,46.6 48.3,44.4 48.3,43.8 48.3,42.7 48.1,42.2 
	48.3,41.9 48.6,42.2 49.7,42.2 49.4,41.6 48.9,41.6 48.3,40.5 48.1,40.2 47.8,40.5 47.5,39.9 46.9,38.8 45.3,36.3 44.4,35.8 
	44.4,34.7 41.7,30.5 41.7,29.7 41.1,28.9 41.1,27.2 40.6,26.6 40.6,26.1 39.2,24.7 38.9,23.9 39.2,23.3 38.9,22.5 36.4,20.5 
	36.1,19.7 34.5,17.8 34.5,16.9 33.6,15.5 33.6,15 33.6,14.4 33.9,14.2 33.9,14.4 34.5,14.4 34.7,15.5 35,16.1 35.3,16.7 37,18 
	37,18.9 37.2,19.7 38.3,20.3 38.6,21.1 40.8,23.3 42,23.9 42,24.1 42.2,23.6 42.8,23 43.1,21.4 42.8,21.1 43.3,19.7 43.3,18.9 
	43.9,16.4 "/>
</svg>
