<?xml version="1.0" encoding="utf-8"?>
<!-- Generator: Adobe Illustrator 19.2.0, SVG Export Plug-In . SVG Version: 6.00 Build 0)  -->
<svg version="1.1" id="Layer_1" xmlns="http://www.w3.org/2000/svg" xmlns:xlink="http://www.w3.org/1999/xlink" x="0px" y="0px"
	 viewBox="0 0 56 56" style="enable-background:new 0 0 56 56;" xml:space="preserve">
<style type="text/css">
	.st0{fill:#FDC414;}
</style>
<polygon id="Western_Sharah" class="st0" points="56,6.1 56,4.4 29,4 26.4,7.4 26.4,10.4 25.2,10.4 20.5,12.6 20,13.9 18.3,15.1 
	18.7,16.8 14.5,22.8 14.5,25 11,27.6 10.2,28.4 8.5,31.8 8.5,33.1 5.9,36.6 5.9,37 6.7,37.8 5.5,38.3 3.3,42.1 2.5,42.1 1.6,43.4 
	1.6,45.1 1.2,46.4 1.2,48.5 28.2,48.5 27.7,36.1 28.6,34.4 29.9,33.1 31.6,33.1 34.2,33.1 34.6,15.1 55.6,15.6 "/>
</svg>
