<?xml version="1.0" encoding="utf-8"?>
<!-- Generator: Adobe Illustrator 19.2.0, SVG Export Plug-In . SVG Version: 6.00 Build 0)  -->
<svg version="1.1" id="Layer_1" xmlns="http://www.w3.org/2000/svg" xmlns:xlink="http://www.w3.org/1999/xlink" x="0px" y="0px"
	 viewBox="0 0 56 56" style="enable-background:new 0 0 56 56;" xml:space="preserve">
<style type="text/css">
	.st0{fill:#FDC414;}
</style>
<polygon id="Eritrea" class="st0" points="49.7,51.3 47.2,48.8 46.2,48.8 45.7,47.8 45.7,46.3 44.1,43.7 42.6,43.7 40.1,41.2 
	38.5,40.2 38,39.2 36.5,39.2 36,38.6 34,38.1 33.5,37.1 30.4,34.6 28.9,34.6 27.9,33.1 25.9,32.6 24.9,33.1 24.3,33.6 21.8,31.5 
	20.8,31.5 20.3,32.1 18.8,31 17.2,31 16.2,32.6 14.7,32.6 11.2,31 10.6,30.5 10.1,30 7.6,34.6 6.6,34.6 6.1,35.6 4.6,35.6 3,34.6 
	2.5,33.1 1.5,30 1.5,28 2.5,27 2.5,25.5 4.1,23.9 4.6,19.9 5.6,17.3 6.1,16.3 5.6,15.8 5.1,15.3 5.6,13.3 5.6,11.8 6.6,11.3 
	8.6,11.3 9.1,10.2 8.6,9.7 8.6,8.7 10.1,8.2 11.2,7.7 13.2,7.7 13.7,6.7 14.7,6.7 16.2,5.7 17.2,4.1 17.2,4.1 19.3,6.2 22.3,14.8 
	23.8,20.4 24.3,20.9 24.9,22.9 24.9,23.4 25.9,23.9 26.4,25.5 26.9,28 28.4,28.5 27.9,26.5 27.9,26.5 27.9,24.4 28.4,24.4 
	29.9,26.5 29.4,27 30.4,29 31.4,30 32.5,29.5 33.5,29.5 34,29.5 35,29.5 36.5,31 37.5,32.1 39.6,32.6 40.1,33.1 42.6,36.1 
	43.6,38.1 45.7,39.2 46.7,40.2 47.2,40.2 47.2,39.7 47.7,40.7 49.2,43.7 50.2,44.2 51.2,45.7 51.2,46.3 51.7,47.8 52.8,47.8 
	53.3,48.3 54.3,47.8 54.3,47.8 54.8,48.3 53.3,49.8 52.2,50.3 51.2,50.8 "/>
</svg>
