<?xml version="1.0" encoding="utf-8"?>
<!-- Generator: Adobe Illustrator 19.2.0, SVG Export Plug-In . SVG Version: 6.00 Build 0)  -->
<svg version="1.1" id="Layer_1" xmlns="http://www.w3.org/2000/svg" xmlns:xlink="http://www.w3.org/1999/xlink" x="0px" y="0px"
	 viewBox="0 0 56 56" style="enable-background:new 0 0 56 56;" xml:space="preserve">
<style type="text/css">
	.st0{fill:#FDC414;}
</style>
<path id="Spain" class="st0" d="M31.7,10.1l0.9,0.3v0.3h0.6l0.3,0.9v0.6l1.4-0.3l1.7,0.6l0.9,0.9l0.9-0.3l1.1,1.1h1.1l0.6,0.3
	l0.9-0.9h2l0.9,0.3h1.1l1.4,0.6l2-0.3l1.4,0.9l0.6,0.3v0.6l-0.6,0.6l0.3,1.4v1.1l-0.6,0.9l-1.7,1.1c0,0-0.6,0.9-0.9,0.9l-1.4,0.6
	h-1.7l-1.1,0.9l-1.1,0.6l0.6,0.3l-0.3,1.1l-0.6,0.3l0,0h0.3l-0.6-0.3l-1.4,2.3L39.7,28l-1.7,2.8l-0.6,0.6l0.9,1.4l0.3,0.9l0.6,0.3
	l1.1,1.4l-0.9,0.9l-1.4,0.3v1.1l-1.4,2l-0.3,1.4l0.3,0.3L36.2,42h-1.4l-2.6,1.4v0.9L31.1,46l-0.9-0.6l-0.9-0.9l-0.6,0.9L28.3,46
	l-0.9-0.6h-0.9l-0.3,0.3h-1.1l-1.7-0.6l-0.9,0.3l-2.3,0.9l-1.4,1.4L17.2,48l-0.6,0.6v0.9L15.2,50l-1.4-0.3l-1.4-1.4l-0.9-2l0.3-0.3
	L10,44.3L8.6,44l-0.9-0.3v-1.1l-0.6-1.1l1.1-2l1.1-0.9v-0.9H8.6L8,36.3l1.4-1.4v-1.7l-1.1-0.6l-1.1-2.3L8.3,30h0.9l1.1-1.7l-0.9-0.9
	l0.9-0.9v-2.8L10,22.6l1.7-1.7h0.6l0.3-0.9l-0.9-1.4v-1.1l-2-0.3l-0.9,0.9l-2.6-0.6l-1.4,0.9l-0.3-0.6v-0.9l-0.9-0.3l-2,0.3v-0.3
	l1.1-0.9H2.1l0.6-0.6l-0.3-0.3l0.3-0.9l-0.6,0.6H1.8l0.3-1.1l-0.3-0.3v-0.6l-0.6,0.3l-0.9-0.9l0.6-0.9l1.7-0.6L3.2,11l1.4-0.3
	l0.6-0.6L4.6,9.8V9.2l1.7-0.9l0.3,0.3l0.6-0.6l1.1,0.3l0.9,1.1L10,9h0.9L12,9.5L13.2,9l1.4-0.3L14.9,9L16,9.5l3.1,0.6l1.4,0.3
	l2.3-0.9h1.7l0.3,0.6l1.7,0.3l0.9-0.9h0.9l2.3,1.4l0.6-0.6h0.6V10.1L31.7,10.1z M53.3,29.7h1.4l0.6,0.3l0.3-0.6l-0.9-0.9l-1.4,0.3
	L53.3,29.7L53.3,29.7z M50.5,32.6l0.3-1.1l1.1-0.9H51l-1.1-0.3L49,30.9l-0.3,0.9l0.9,0.3L50.5,32.6L50.5,32.6z M45.1,35.7l0.6-0.6
	l0.6-0.6L45.9,34l-1.1,0.3v0.9L45.1,35.7z"/>
</svg>
