<?xml version="1.0" encoding="utf-8"?>
<!-- Generator: Adobe Illustrator 19.2.0, SVG Export Plug-In . SVG Version: 6.00 Build 0)  -->
<svg version="1.1" id="Layer_1" xmlns="http://www.w3.org/2000/svg" xmlns:xlink="http://www.w3.org/1999/xlink" x="0px" y="0px"
	 viewBox="0 0 56 56" style="enable-background:new 0 0 56 56;" xml:space="preserve">
<style type="text/css">
	.st0{fill:#FDC414;}
</style>
<polygon id="Ethiopia" class="st0" points="8.6,42 8.3,40.9 8.1,40.4 7.9,39 7.2,38.3 7,37.9 6.5,37.4 5.8,37.4 5.6,36.9 5.6,36.7 
	4.9,36.5 4.2,35.1 4,35.1 3.7,34.4 3.3,33.9 2.8,33.5 1.4,33.5 0.7,33.3 0.5,32.8 1,31.9 1.4,31.6 1.4,30.9 2.1,31.2 2.8,30.9 
	3.3,31.2 3.7,31.2 4,30.9 4.4,30.5 4.4,28.9 4.4,27.5 4.7,26.3 5.3,25.4 5.3,24.7 5.1,24.3 5.3,23.6 6,22.6 6.3,22.2 6.5,21.9 
	7,22.2 7.7,19.4 8.1,18.3 9,17.6 9,17.1 10,15.5 10.2,15 10.9,14.8 11.1,14.8 11.6,13.6 12.5,12 12.5,10.9 13,9.7 13,9.5 13.7,9.7 
	14.3,9.7 14.6,9.2 15,9.2 16.2,7.2 16.4,7.4 16.7,7.6 18.3,8.3 19,8.3 19.4,7.6 20.1,7.6 20.8,8.1 21,7.9 21.5,7.9 22.7,8.8 
	22.9,8.6 23.3,8.3 24.3,8.6 24.7,9.2 25.4,9.2 26.8,10.4 27,10.9 28,11.1 28.2,11.3 28.9,11.3 29.1,11.8 29.8,12.2 31,13.4 
	31.7,13.4 32.4,14.6 32.4,15.2 32.6,15.7 33,15.7 34.2,16.9 33.5,17.1 33.3,18 32.8,18.7 33,19.6 32.6,20.3 32.6,20.8 32.1,21.7 
	32.4,22.2 33.7,22.2 34.7,21.5 35.6,21.3 36.3,21.7 36,22.2 36.3,23.6 37,25.4 37.9,25.9 37.7,27 38.1,28.2 39.5,28.4 40.4,29.1 
	51,32.3 55.7,32.3 44.4,43.6 42.3,43.4 40,43.6 39.3,44.1 38.6,44.1 37.7,44.6 37.4,45.3 36.7,45.7 35.8,46.2 34.7,46.4 33.5,46.9 
	33.3,47.6 33,47.6 32.1,47.6 30.7,47.8 30.3,47.3 29.8,46.6 29.4,46.4 27.5,46.6 27.3,46.9 26.6,46.9 25.9,47.1 25.4,47.6 24.5,49 
	23.8,49.2 23.3,49.2 22.7,49 21.7,49 20.8,48.7 19.7,48.7 19,48.5 18.5,47.8 17.6,47.1 16,45.7 15.3,45.3 13.7,45.5 12.7,45.3 
	11.8,45.5 11.1,45.3 10.4,44.6 10.4,42.5 10,42.3 9.3,42.5 8.8,41.8 "/>
</svg>
