<?xml version="1.0" encoding="utf-8"?>
<!-- Generator: Adobe Illustrator 19.2.0, SVG Export Plug-In . SVG Version: 6.00 Build 0)  -->
<svg version="1.1" id="Layer_1" xmlns="http://www.w3.org/2000/svg" xmlns:xlink="http://www.w3.org/1999/xlink" x="0px" y="0px"
	 viewBox="0 0 56 56" style="enable-background:new 0 0 56 56;" xml:space="preserve">
<style type="text/css">
	.st0{fill:#FDC414;}
</style>
<path id="Finland" class="st0" d="M36,52l-0.2-1l1.4-1.4l0.8-0.4l0.8-1.4l0.8-1.4l0.6-1.6l1.2-2.1l1-2.1l-0.2-1l-1.4-1.6l-0.8-0.2
	L38.6,36l0.2-1l0.6-0.8v-1l-1-0.6L38,31.9v-1.2l0.2-0.2L38,29.9l-0.8-0.2l-0.4-0.6v-1l0.4-0.6l-0.6-0.2v-0.6l0.2-1.9l0.6-0.2
	L36,21.6l-1.2-2.3l-0.2-0.8l-0.8-0.8l0.6-1.4l0.6-1l0.2-1L34.8,14l-1.4-1l-0.2-0.6l-0.4-0.8l-0.8-0.4h-0.4l-0.6-1.4l-0.4-0.6l0.2-1
	l0.2-0.8l-0.6-0.2l0.6-0.4l0.8-0.4l-0.2-1.4l0.6-0.8l0.2-0.6l-0.6-0.6l-0.2-0.6l-1-0.2l-0.6-0.2l-0.4-0.4l-0.8-1l-0.6-0.4h-1.4
	l-0.6,0.6v0.2l-0.4,0.2l-0.8-0.2l-0.6,0.2v0.4l-0.4,0.6l-0.4,0.2l0.2,0.4l-0.2,0.4L23.7,5l0.2,1l0.2,0.6l-0.2,0.4l-0.6,0.4h-0.6
	l-0.4,0.4L22,7.9l-0.4,0.6l-0.8-0.2l-1-0.8h-0.6l-0.4,0.4l-0.8,0.8h-1.4l-0.8-0.4l-0.4-0.6l-0.2-0.6l-1.4-1l-0.4-0.8H13l-0.4,0.4
	l-0.2,0.6l0.2,0.4l-0.2,0.2l-0.2-0.2L12,6.9l0.6,0.6l0.8,0.4l1.2,1.2l0.8,0.6h1.2l0.4,0.2l0.4,0.2l0.6,0.8l0.2,0.6h0.2h0.2l0.6,0.8
	h0.4l0.2,0.4l-0.2,0.6l0.2,1l-0.2,0.8v0.6h0.8l0.2,0.8l-0.2,0.4l0.2,0.8l0.4,0.6l0.2,1.2l-0.2,0.6l0.2,0.4v1.2l-0.2,0.4l0.4,1
	l0.6,0.2l0.6,1.2l0.4,0.4v0.6l0.2,0.2h0.6l0.6,0.6h1.2l0.8,0.8l-0.4,0.2l0.4,0.4v1l-0.2,0.2l1,0.8L26.3,29h-0.2l0.8,0.6v0.4l-1-0.6
	h-0.8l-0.8,0.6v0.4l-0.6,0.6v0.4l-0.2,0.2l-1,1l-0.2,1h-0.2L22,33.1h-0.2l0.2,0.6L21.8,34h-0.6l-0.4,0.6l0.2,0.8l0.4,0.4l-0.8-0.2
	l-0.2-0.2L20,35.6l-0.2,0.6v0.4l-0.4-0.2l-0.2,0.2l0.4,0.4v0.2l-0.4,0.4l-0.2,0.4l-0.6,0.4l-0.2-0.2v-0.2l-0.4-0.2l-0.4,0.2l0.2,0.6
	l-0.4,0.2l0.2,0.6l-0.2,0.6h-0.2l-0.4,0.6l0.2,0.6l0.2,0.2l-0.2,0.6l0.2,0.4l0.4-0.2l0.4,0.4L17.7,43l-0.2,0.4l0.2,0.6l-0.2,0.2
	l0.6,1l0.4,0.2l-0.2,0.4l0.4,0.8l-0.4,0.2v1l-0.2,0.4v1.2l0.4,0.4l-0.4,0.6v0.4l0.2,0.4l0.8-0.4l0.4,0.2l0.2-0.4l0.8,0.8h0.4
	l0.4,0.4h1l0.2,0.2l-0.2,0.4h0.4l0.8-0.6V52L23,52.6l0.8,1.2l0.2,0.4l-0.2,0.6l0.2,0.2l0.4-1l0.4-0.2v0.4l0.6-0.2h0.4l1-0.8h0.6
	l1.2-0.8V52l0.8,0.2h0.6l0.4-0.8l0.2,0.2l-0.2,0.6l0.4,0.2l0.4-0.8h0.2L31,51l0.2-0.2l0.4,0.6h0.4l0.2-0.4l0.4,0.6l0.2-0.2V51h0.4
	l0.2,0.4l0.4-0.4l0.8-0.2l0.4,0.4l1-0.2v-0.4l-0.2-0.2l0.2-0.2l0.4,0.2v0.4l0.6,0.2C35.8,52.6,36,52.2,36,52L36,52z M24.7,29.8
	l-0.2,0.2h-0.6l-0.4-0.6l0.6-0.4l1,0.2v0.2h-0.6L24.7,29.8L24.7,29.8z M15.9,38.3v-0.4l0.4,0.4H15.9L15.9,38.3L15.9,38.3z
	 M15.7,38.7l0.4,0.4l0.4-0.2v0.6l-0.6,0.4l-0.4-0.4L15.7,38.7L15.7,38.7z M22.2,54.9l0.2,0.4L22,55.5l-0.2-0.2L22.2,54.9L22.2,54.9
	L22.2,54.9z M21.2,54.1l0.2,0.4h-0.2V54.1L21.2,54.1z M20,53.5l1-0.2v0.4l-0.6,0.4L20,53.9V53.5L20,53.5z M18.9,52.6l0.6,0.6
	l-0.4,0.2l-0.2-0.2V52.6L18.9,52.6z M17.3,52.8h0.6l-0.4,0.2C17.7,52.9,17.3,52.8,17.3,52.8L17.3,52.8z M13.4,53.7l0.8,0.2l0.2-0.2
	L14,53.3v-0.4h0.4l1,0.6v0.4H15l-0.2,0.2l0.4,0.6h0.4l0.2,0.6l-0.4,0.2l-0.6-0.4l-0.6-0.2l-0.4-0.4l-0.4-0.2V53.7z"/>
</svg>
