<?xml version="1.0" encoding="utf-8"?>
<!-- Generator: Adobe Illustrator 19.2.0, SVG Export Plug-In . SVG Version: 6.00 Build 0)  -->
<svg version="1.1" id="Layer_1" xmlns="http://www.w3.org/2000/svg" xmlns:xlink="http://www.w3.org/1999/xlink" x="0px" y="0px"
	 viewBox="0 0 56 56" style="enable-background:new 0 0 56 56;" xml:space="preserve">
<style type="text/css">
	.st0{fill:#FDC414;}
</style>
<path id="Fiji" class="st0" d="M23.9,19.5l2.4-6.1h4.9l4.9-2.4l4.9,2.4l4.9-4.9h3.6l6.1-4.9v2.4l-3.6,3.6v3.6l-6.1,4.9h3.6l3.6-3.6
	l1.2,2.4l-2.4,3.6L42.1,22v-2.4h-3.6L37.2,22l-6.1-1.2l-1.2,3.6L23.9,19.5L23.9,19.5z M3.3,37.7l6.1-6.1l8.5-2.4l7.3,7.3l2.4,10.9
	l-4.9,2.4l-4.9-1.2l-2.4,2.4l-8.5-1.2l-6.1-3.6v-4.9l3.6-1.2L3.3,37.7z"/>
</svg>
