<?xml version="1.0" encoding="utf-8"?>
<!-- Generator: Adobe Illustrator 19.0.0, SVG Export Plug-In . SVG Version: 6.00 Build 0)  -->
<svg version="1.1" id="Layer_1" xmlns="http://www.w3.org/2000/svg" xmlns:xlink="http://www.w3.org/1999/xlink" x="0px" y="0px"
	 viewBox="0 0 56 56" style="enable-background:new 0 0 56 56;" xml:space="preserve">
<style type="text/css">
	.st0{fill:#FFC400;}
</style>
<polygon id="XMLID_3_" class="st0" points="51,31.9 51,30.9 50.4,30.6 50.1,29.4 49.5,28.5 48,28.5 47.3,29.1 47.6,30.3 46.4,30.9 
	45.5,30.9 45.5,30.3 46.1,30 46.7,30 46.7,29.1 47,27.5 48.3,25.7 48.9,25.4 49.8,24.1 50.7,23.8 50.4,22.9 49.5,22.3 50.1,21.7 
	51.4,21.7 51.7,22.3 52.6,22.3 54.1,21.7 53.8,20.7 52.9,20.1 52.9,18.6 53.5,17 54.1,16.4 54.1,15.8 54.8,14.2 56,13 55.1,12.4 
	54.1,12.4 52.9,11.8 52,12.1 51.4,11.8 50.4,11.8 49.5,12.1 48.6,11.4 48.6,10.8 47.6,10.2 47,10.5 45.8,10.2 45.2,9.3 44.6,9.3 
	44.2,9.6 43.3,9 42.4,9 41.1,7.4 40.5,7.4 40.2,6.8 39.6,6.8 39,7.1 38.1,6.5 38.1,5.3 37.4,5 36.8,4.3 36.2,4.3 35,3.1 34.7,2.2 
	33.4,1.9 33.1,0.3 32.5,0 32.5,0.3 30.6,0.9 30.3,0.6 28.8,1.5 28.5,2.5 28.8,3.7 28.5,5.6 26.9,6.8 26.9,7.4 25.4,7.7 24.4,7.7 
	23.5,7.4 21.7,8.4 21.3,9.3 21.7,9.9 22.6,10.2 21.3,11.1 19.8,11.4 17.9,11.1 17,10.8 16.4,11.1 16.1,10.5 15.5,9.9 15.8,9.3 
	15.2,9 14.2,9.3 13,9.3 12.4,9 12.7,10.2 12.4,10.8 13.9,12.4 13.6,13 13.9,13.6 13.6,14.2 14.2,14.9 14.2,15.8 12.7,15.5 
	12.1,15.8 11.4,15.5 10.5,15.8 10.5,14.5 9.6,15.5 8.4,13.6 7.7,13.3 6.5,13.6 5.6,14.5 5,14.2 4.3,14.9 3.7,14.5 2.8,14.5 
	2.2,15.2 0.6,15.2 0,15.8 0.3,16.4 1.2,16.1 2.2,16.4 2.5,16.7 1.5,16.4 0.9,16.4 1.2,17.3 1.5,16.7 2.2,17 2.2,17.6 1.5,17.9 
	0.6,18.3 0.6,18.6 1.5,18.6 1.9,19.5 1.9,20.1 2.8,19.5 3.4,19.8 4,19.8 5.6,20.4 5.9,21 6.5,21 7.4,21.7 8,21 8.7,21 8.4,21.7 
	8.7,22 9.6,21.3 10.2,22 9.9,22.9 10.2,23.5 10.8,23.5 11.8,22.9 12.7,22.9 13.3,23.8 12.7,23.5 11.8,23.5 11.1,24.1 11.8,24.4 
	12.1,25.4 11.8,26.3 12.1,26.9 13,26.9 14.2,28.5 15.5,28.8 16.7,29.4 16.7,30.3 17,30.9 16.7,31.9 16.4,31.9 16.1,32.8 17,33.1 
	18.6,34.3 19.8,37.1 18.6,35.9 18.3,34.7 17.3,34 16.7,34.3 16.1,36.8 16.1,38.7 16.7,39.3 16.1,39.9 15.8,43.3 14.9,46.1 
	13.6,46.7 14.5,47 14.5,47.3 15.2,47.3 15.5,48.3 15.5,48.9 17,48.6 18.9,49.2 19.8,50.1 20.7,49.8 22,51 23.2,51 23.8,51.4 
	24.8,50.4 26.9,50.4 27.8,50.7 29.1,50.7 30.6,51.4 32.8,51 34.3,52 35,52.3 35,51.7 34.7,50.1 35,48.6 35,47.6 36.2,46.7 
	37.7,44.9 38.4,44.9 39,45.2 40.2,45.2 41.5,45.8 42.4,45.8 43,45.2 43.6,45.2 46.4,47 47.3,47.6 49.5,47.6 50.4,47 50.1,46.4 
	51,45.5 54.1,43.3 54.5,43.3 54.1,42.4 54.8,40.8 53.2,40.8 51.7,39.9 51.4,37.4 50.1,36.2 50.7,35.6 52,35.6 52.3,34 51.4,33.1 
	51,31.9 51,31.9 51,31.9 "/>
</svg>
