<?xml version="1.0" encoding="utf-8"?>
<!-- Generator: Adobe Illustrator 19.2.0, SVG Export Plug-In . SVG Version: 6.00 Build 0)  -->
<svg version="1.1" id="Layer_1" xmlns="http://www.w3.org/2000/svg" xmlns:xlink="http://www.w3.org/1999/xlink" x="0px" y="0px"
	 viewBox="0 0 56 56" style="enable-background:new 0 0 56 56;" xml:space="preserve">
<style type="text/css">
	.st0{fill:#FDC414;}
</style>
<polygon id="Gabon" class="st0" points="25,2.3 25.5,1.8 26.1,1.8 27.2,1.8 27.8,1.2 30.6,1.2 31.1,1.2 33.9,1.2 34.5,1.8 36.1,1.2 
	37.3,1.2 37.8,1.8 39.5,1.8 40,1.8 41.2,1.8 41.7,2.3 41.2,2.3 41.2,4 41.7,5.7 41.2,7.9 41.7,9 41.7,10.1 42.3,10.7 43.9,10.1 
	45.1,10.1 46.7,10.1 49,9 51.8,9 52.3,10.1 52.9,12.4 52.3,13.5 52.9,14.6 52.3,16.3 50.6,16.3 49,17.4 49,18.5 49.5,19.1 
	49.5,20.8 49,20.8 49,21.3 47.9,21.3 47.9,21.9 48.4,23 48.4,23.5 49.5,24.1 50.1,24.7 51.2,25.8 51.8,26.9 52.9,28 52.3,29.7 
	51.8,33 49.5,39.7 50.1,41.4 50.1,42.5 49,42.5 48.4,41.4 46.7,40.8 45.1,40.8 43.9,41.4 42.8,41.4 40.6,42 39.5,40.3 37.8,36.9 
	36.1,36.9 35.6,38 36.1,39.7 35.6,41.4 32.2,41.4 31.1,41.4 30.6,42.5 30,43.1 28.3,42 26.1,42.5 25.5,43.1 26.1,44.7 25.5,46.4 
	27.2,45.9 28.3,45.3 29.4,46.4 31.1,47 31.1,51.4 31.1,53.1 28.3,51.4 27.8,51.4 27.2,52 25.5,52 25,52.6 25,53.7 23.3,55.3 
	23.3,55.3 21.6,54.8 21.1,53.1 18.3,51.4 17.2,49.8 13.3,46.4 11,44.2 11.6,43.6 9.4,42 8.2,39.7 7.1,38.6 7.1,35.8 5.4,33.6 
	5.4,32.5 4.3,31.4 2.7,27.4 2.7,26.9 4.9,27.4 6.6,25.8 7.1,21.3 7.1,18.5 8.2,19.6 12.1,18.5 9.4,18 7.7,15.2 9.4,15.2 9.4,12.9 
	10.5,13.5 11.6,12.4 12.7,12.4 13.3,12.4 25,12.9 "/>
</svg>
