<?xml version="1.0" encoding="utf-8"?>
<!-- Generator: Adobe Illustrator 19.2.0, SVG Export Plug-In . SVG Version: 6.00 Build 0)  -->
<svg version="1.1" id="Layer_1" xmlns="http://www.w3.org/2000/svg" xmlns:xlink="http://www.w3.org/1999/xlink" x="0px" y="0px"
	 viewBox="0 0 56 56" style="enable-background:new 0 0 56 56;" xml:space="preserve">
<style type="text/css">
	.st0{fill:#FDC414;}
</style>
<path id="United_Kingdom" class="st0" d="M19.1,31.3l-0.8-0.5h-0.5l-0.8-1.6l-1.4-0.5L15,28.9L14.7,30h-0.5l-1.9-1.6l0.8-1.9h0.8
	l0.3-0.8l0.5-0.3l0.5-0.5l0.8-0.3l0.3-0.3h0.5l0.8-0.5h1.4l0.5,0.3v0.8l1.4,1.6L20.4,27h1.1l0.3,1.9l-0.5-1.4h-0.5l0.3,0.5l-0.3,0.5
	h0.5L21,29.4h-1.1V30l-0.5,0.5h-0.3V31.3L19.1,31.3L19.1,31.3z M45.4,46.3l0.5,0.3h0.5l-0.3-0.3h-0.3H45.4L45.4,46.3z M36.7,51.1
	l1.1-0.5l0.5,0.3h0.5l-0.3,0.5v0.3h-0.5l-0.5-0.5L36.7,51.1L36.7,51.1z M22.9,20.2v0.5l0.5,0.3v-0.5L22.9,20.2L22.9,20.2z
	 M19.1,19.4l0.3-0.8v0.5L19.1,19.4L19.1,19.4z M16.6,17v-0.5h0.5L16.6,17L16.6,17z M17.7,16.1l0.8-0.8l-0.3,0.5L17.7,16.1L17.7,16.1
	z M19.3,14.2l0.3-0.3h-0.3V14.2L19.3,14.2z M18.5,13.2l0.3,0.5l0.3-0.3l-0.3-0.5L18.5,13.2L18.5,13.2z M29.6,0.7l0.3,0.3V0.4
	L29.6,0.7L29.6,0.7z M28.8,0.9h0.5l0.5,0.5l-0.3,0.3h0.8v0.5L29.9,2h-0.8V1.5L28.8,2l-0.3-0.3V0.9L28.8,0.9L28.8,0.9z M28.8,2.3
	l0.5,0.8l0.3-0.3l-0.3-0.5H28.8L28.8,2.3z M16.6,7.5l0.3-0.3l-0.5-0.5l0.5-0.5l0.8,0.3l-0.3-0.5l1.9-1.4v1.1l-0.8,0.5l-0.3,0.5
	l0.3,0.3L18,7.7l-0.8-0.3H16.6L16.6,7.5L16.6,7.5z M16.3,8.5l0.5,0.3L17.7,8l-0.5-0.3L16.9,8L16.3,8.5L16.3,8.5L16.3,8.5z M16.3,9.9
	l-0.8,0.3L15,9.6l0.3-0.3h1.1V9.9L16.3,9.9z M15.8,11l-0.5-0.3v-0.3h0.8L15.8,11L15.8,11z M15,13.2l0.3,0.5L14.7,14v-0.5L15,13.2
	L15,13.2z M15.8,12.6l-0.3-0.8l0.3-0.3V11h-0.5v0.5L15,12.1l0.3,0.5L15.8,12.6L15.8,12.6z M20.1,13.2v-0.8h-1.1l-0.5-1.1V11
	l-0.3-0.3V11l-0.8-0.5l0.3-0.3l0.3,0.3V9.6l0.8,0.5V9.4l0.5-0.3l0.5,0.8v1.4l0.8,0.5h0.5l0.3,0.3L21,12.3l-0.3,0.8L20.1,13.2
	L20.1,13.2z M18.8,17.8l1.6-0.3v0.3l0.8-0.5L21,16.4h-0.5l-0.5-0.8l-0.8,0.5l1.1,0.5L19.6,17l0.3,0.3L18.8,17.8L18.8,17.8z
	 M19.9,20.8l-0.3-0.8l1.4-1.4l-0.5,1.4L19.9,20.8L19.9,20.8z M18.8,21.8l0.8-0.5l-0.3-1.4l-1.1,0.5v1.1l0.8-0.5L18.8,21.8L18.8,21.8
	z M22,21.6l0.3,1.4l0.8,0.3l0.3-0.8l-0.5-1.1L22,21.6L22,21.6z M24.8,35.7l1.1,0.5l1.1-0.8h-0.8l-0.3-0.8H25
	C25,34.9,24.8,35.7,24.8,35.7L24.8,35.7z M23.9,31.1l0.3-1.1l1.4-1.1l-0.3,0.8l0.3,0.5l-1.1,1.1L23.9,31.1L23.9,31.1z M22.3,55.5
	l0.5-0.5l-0.3-0.3l0.5-0.5l0.3,0.3l0.5-0.5h0.3l0.3-0.5l0.8,0.3l0.5-0.3h0.5l0.3-0.3l0.3,0.5h0.5l0.5,0.5h0.5v-0.5l0.5-0.3l0.3-0.5
	L29.1,52l0.5-0.5h0.3l0.3-0.3l1.6-0.3h0.8l0.8,0.5h0.3h1.1l0.5,0.3l0.3-0.5l0.8-0.5l0.5,0.3l0.8-0.5l0.5,0.3h0.3l0.5-0.3v0.3
	l0.5,0.3l0.5-0.5h1.4l0.8-0.3l0.8,0.3h0.5l0.5-0.5h0.8l0.5-0.5h0.5h0.5v-0.5l1.1-0.5h0.5v-0.5l-0.3-0.5l0.3-0.5h-1.1l-0.8,0.3h-0.5
	l-0.8-0.3h-0.3l0.3-0.3h0.3V46l-0.5-0.3L44.3,46l0.8-0.5h0.5l0.5-0.3l-0.3-0.5h-0.5l0.5-0.5l0.3-0.3l0.3,0.3l0.5-0.5l0.3-0.3H47
	l0.3-0.3h-0.8l0.3-0.5h0.5v0.3l0.5-0.5l0.5-0.3v-1.4l0.5-1.1l-0.3-0.5l-0.3-1.1L47,37h-1.9h-1.4v0.8l-0.3,0.5l-0.5-0.8l-0.8-0.3
	l1.4-1.1v-0.8l-1.1-1.6h-0.3l-0.8-0.5L41,32.7h-0.5h-0.3l-0.5-0.3h-0.3l0.5-0.3h0.3h0.5l0.3,0.3l0.3,0.3h0.5h0.5l-1.1-1.4l-0.5-0.8
	L41,30h0.3l-0.5-0.3l-0.3-0.5h-0.3l-0.5-1.4l-1.1-0.5L37.2,27v-0.5L37,26.2l-0.5-1.6l-0.5-0.8l-0.3-1.9l-0.5-0.5h-0.3l-1.1-1.9
	l-0.8-0.3l-0.5-0.5l-0.8-0.3l-0.3,0.3l-0.8,0.5l-1.1-0.3h-0.5L28,18.6L27.7,18l0.5,0.3h1.1l0.8-0.3l0.3-0.5h0.8l0.8-0.5l-0.8-0.3
	v-0.5L31,15.9l-1.1,0.5l-0.3-0.3l0.8-0.5h1.1l0.5-0.5v-0.5l0.3-0.3l0.5-1.1l0.3-0.5v-0.3l0.3-0.8v1.1l0.3-1.1l0.5-0.5v-0.5l-1.1-0.8
	l-0.3,0.3h-1.6l-1.1-0.3l-0.3,0.3h-0.5l-0.5-0.3h-0.5v0.3l-0.5,0.3l-0.8,0.3h-0.3l-0.5,0.3l-0.3-0.3l0.5-0.8l0.5-1.1l-0.5,0.3
	l-0.5-0.3l0.3-0.3V7.7l1.6-1.4l0.5-0.8l0.5-0.3l0.3-0.8l-0.3-0.3l0.3-0.5V3.4h-0.8L28,3.7l-0.5-0.3l-0.8,0.3h-0.8l-0.5,0.3H25
	l-0.3,0.3V3.9l-0.3-0.3l-0.8,0.5l0.3-0.5l-1.1-0.5l-0.3,0.5l-0.3,0.3v0.5H22V5l-0.8,0.3l0.3,0.5l-0.3,0.5H21l0.8,0.8L22,7.7
	l-0.8-0.5L21,7.5l-0.5-0.3v0.3l0.3,0.3L20.4,8l-0.3-0.5L19.9,8l0.3,0.3l-0.3,0.3l0.5,0.5H21l-0.5,0.3l-0.5-0.3v0.8v0.3L21,9.9
	l-0.8,0.3v0.3l0.3,0.3l0.5-0.3l-0.3,0.3L21,11l-0.5-0.3h-0.3l-0.3,0.5l0.3,0.3h-0.3l-0.3,0.3l0.5,0.3v0.3l-0.8-0.3l-0.3,0.5l0.3,0.3
	l-0.3,0.3l-0.3,0.3H18l-0.3,0.3L18,14h0.5h0.5v0.3h-0.5l0.5,0.5h0.3l0.3,0.3l1.6-1.6l1.4,1.9l0.3,0.3l-0.5,0.3L21.8,17v0.3l-0.5,1.1
	h0.3L21,19.4v0.8l-0.3,0.5L21,21l0.3-0.3l-0.5,0.8v1.1l-0.3,0.3v0.3h0.8v-0.5l0.3-0.8v-0.5l0.5-0.5l-0.3-1.6H22l1.1-1.4l-0.8,1.1
	v0.8l0.3,0.3v-0.5l0.5-0.5l0.3,0.8l0.5-1.1v-0.8l0.3-0.3l-0.3,0.8l0.8,0.8l-0.8-0.3l-0.3,1.1l0.3,0.8h0.5l0.3,0.8l-0.8,0.8l-0.8,1.9
	l0.3,0.8l-0.5-0.3v0.8l0.8,1.1l-0.3-1.1l0.5-0.3l1.4,1.1v-0.8l-0.5-0.5H25l1.1,0.8h0.8v0.3h0.8l0.3-0.8h2.2l-1.4,0.3L28,28.1
	l1.1,1.9l0.5-0.3v1.1l0.8-0.8h0.8L31,31.1l0.3,0.3l-0.8,0.5l0.3,1.1l-0.5,0.8l0.5,0.5l0.5,0.5h0.5l-0.3,0.3H31l-0.5-0.8l-0.5,0.3
	l0.3,0.5l0.5,0.3l-0.5-0.3l-0.5-0.5l-1.4,0.5h-0.5l-1.4,0.8L25.6,37l-1.1,0.5l-0.5,0.5h0.5h0.3v-0.3l1.4-0.3v0.8l0.5,0.5l-0.5,0.3
	l0.3,0.5h0.3l-0.8,1.9l-0.5,0.3l-0.5,0.5h-0.3L23.7,43h-0.5L22,43.5h0.8v0.5l-0.5,0.3l1.1,0.3l-0.3,0.3l0.3,0.3l0.5-0.3l0.5-0.5
	l1.1-0.3v0.5l0.8,0.3l-0.8,0.3v0.5h1.1v-0.3l0.5-0.3l0.5,0.8l0.5,0.5h1.4l0.3-0.5l0.5-0.3l0.8-0.3l0.3-0.5l0.8-0.3l-1.1,1.1
	l-1.1,1.1v1.1h-0.8l-0.5,0.3l-0.5-0.3l-1.9-0.3L25,47.9v0.5L24.5,49h-0.8v1.4l-0.8,0.5l-0.3,0.3l-0.8,0.3l-0.3,0.8h-0.3L21,52.8
	l-1.1,0.8l-0.5-0.3l-0.8,0.5v0.5h0.8v-0.5l0.8,0.3L22.3,55.5z"/>
</svg>
