<?xml version="1.0" encoding="utf-8"?>
<!-- Generator: Adobe Illustrator 19.2.0, SVG Export Plug-In . SVG Version: 6.00 Build 0)  -->
<svg version="1.1" id="Layer_1" xmlns="http://www.w3.org/2000/svg" xmlns:xlink="http://www.w3.org/1999/xlink" x="0px" y="0px"
	 viewBox="0 0 56 56" style="enable-background:new 0 0 56 56;" xml:space="preserve">
<style type="text/css">
	.st0{fill:#FDC414;}
</style>
<polygon id="Germany" class="st0" points="17.7,0.6 19.1,0.6 21.2,1.3 21.9,1.7 22.6,1.3 23.6,2.4 24.7,2.7 24.3,3.8 23.6,4.5 
	24,5.2 25,5.2 25.4,6.2 26.1,5.5 26.4,5.2 26.8,4.8 27.1,5.2 28.5,6.2 28.9,5.9 29.9,5.2 30.3,5.5 30.3,6.2 29.6,7.3 28.9,7.3 
	27.8,8 29.2,8.3 29.9,8 31,8 31.3,8.7 32.4,8.7 32.4,8 33.4,6.9 35.2,6.6 35.2,5.9 36.6,5.5 36.6,4.8 36.9,4.5 38.3,4.8 37.3,5.2 
	36.9,5.5 36.6,5.5 36.2,5.9 36.6,6.6 37.6,5.5 39,5.5 39.4,5.2 39.7,5.9 40.8,5.9 42.2,7.3 43.2,7.3 43.9,8.3 43.6,9.4 44.6,10.1 
	45.7,9.7 46.4,10.4 47.1,10.4 47.8,12.9 47.8,14.6 46,15.3 46,16.4 47.8,18.1 47.4,19.2 48.5,20.2 48.5,20.9 48.8,22.3 48.5,23 
	49.5,25.5 50.2,25.8 50.9,26.5 50.9,29.7 50.2,30.4 49.5,30 48.8,30.4 47.1,30 47.1,31.1 46.4,31.4 45.3,31.4 43.6,31.4 42.9,32.5 
	41.8,32.5 40.8,33.5 39.7,33.5 38,35.6 36.9,34.9 36.6,34.6 35.9,34.9 35.9,35.6 37.6,36.7 38.7,38.4 38.7,39.8 39,40.5 40.1,41.2 
	41.8,42.6 42.9,43.3 45,45.8 45,46.8 45,47.9 43.9,47.9 43.6,48.9 42.2,49.6 40.8,51.4 40.8,52.1 42.2,52.8 42.2,53.9 41.5,54.2 
	40.4,53.5 39,53.9 38,53.5 36.9,53.5 35.2,54.9 34.5,54.9 33.4,54.9 32.4,54.9 31.7,54.6 30.3,54.2 28.9,54.6 28.9,55.3 28.5,55.6 
	27.1,55.3 26.4,54.6 25.4,54.9 24.7,55.3 24.7,55.3 24,54.9 22.6,53.5 21.5,53.5 21.2,54.2 20.5,53.9 20.1,52.8 19.1,53.2 
	19.1,53.9 18.7,54.6 17.3,54.2 16.3,54.6 15.6,54.6 15.6,54.2 14.9,53.2 14.2,52.8 13.8,51.1 14.5,49.3 15.2,48.6 15.2,47.5 
	15.9,46.1 17,44.7 15.9,44 14.9,44 13.8,43.3 12.8,43.7 12.1,43.3 11,43.3 10,43.7 9.3,43 9.3,42.3 8.2,41.6 8.2,41.6 8.2,39.8 
	7.5,39.1 7.5,38.1 6.1,36.3 5.8,36.3 6.5,34.9 5.8,33.9 5.8,33.2 4.7,31.4 5.1,30.7 5.1,30.7 5.4,29.7 5.8,27.6 5.4,26.2 6.1,25.1 
	6.8,24.1 8.6,23.7 10,24.1 10.7,23.7 10,22.7 10.7,22 11,20.9 11.4,20.2 10.7,19.9 9.3,19.9 9.3,19.2 9.6,18.1 10.7,18.5 11.4,17.8 
	11.4,16.7 12.1,16 12.1,15.3 12.4,15 12.4,14.6 12.4,14.6 12.1,13.6 11,13.6 10.7,12.5 10.7,11.5 13.1,10.8 13.8,10.4 15.2,11.1 
	15.2,12.5 15.9,13.6 16.6,12.9 15.9,12.2 15.9,11.1 16.6,11.1 17.3,11.8 17.3,12.9 18.4,14.3 18,13.2 18,11.8 17.7,10.8 18.4,9.7 
	19.1,9.7 20.1,10.1 21.2,9.7 22.9,11.5 25.4,11.8 23.3,11.1 21.5,9.4 20.1,9 19.4,8.7 19.4,8 20.1,7.3 19.1,6.6 19.1,5.2 18.4,5.9 
	18,4.8 19.1,4.8 20.1,4.5 19.1,3.4 19.1,2.4 18.4,2.4 17.7,2 17.7,1 "/>
</svg>
