<?xml version="1.0" encoding="utf-8"?>
<!-- Generator: Adobe Illustrator 19.2.0, SVG Export Plug-In . SVG Version: 6.00 Build 0)  -->
<svg version="1.1" id="Layer_1" xmlns="http://www.w3.org/2000/svg" xmlns:xlink="http://www.w3.org/1999/xlink" x="0px" y="0px"
	 viewBox="0 0 56 56" style="enable-background:new 0 0 56 56;" xml:space="preserve">
<style type="text/css">
	.st0{fill:#FDC414;}
</style>
<polygon id="French_Guiana" class="st0" points="9.7,44.3 9.7,45.2 10.6,47.8 11.4,48.6 11.4,49.5 13.2,52 15.7,52 17.4,50.3 
	19.1,49.5 20.8,50.3 20.8,51.2 21.7,51.2 21.7,54.6 23.4,55.4 25.9,53.7 25.9,52 27.6,50.3 30.2,50.3 31.9,46.9 33.6,43.5 
	36.2,37.5 36.2,35.8 39.6,30.7 43,27.3 44.7,25.6 44.7,25.6 46.4,22.2 46.4,18.8 43.8,16.2 43,17.1 41.3,16.2 41.3,13.6 36.2,8.5 
	35.3,8.5 31.9,5.1 24.2,3.4 20.8,1.7 17.4,0.9 14.9,2.6 12.3,4.3 12.3,4.3 12.3,4.3 11.4,5.1 8.9,8.5 8.9,11.9 10.6,14.5 9.7,17.9 
	9.7,19.6 12.3,21.3 13.2,23 14.9,25.6 15.7,28.1 15.7,29.8 15.7,32.4 13.2,34.1 14,37.5 14.9,39.2 13.2,41.8 10.6,44.3 "/>
</svg>
