<?xml version="1.0" encoding="utf-8"?>
<!-- Generator: Adobe Illustrator 19.2.0, SVG Export Plug-In . SVG Version: 6.00 Build 0)  -->
<svg version="1.1" id="Layer_1" xmlns="http://www.w3.org/2000/svg" xmlns:xlink="http://www.w3.org/1999/xlink" x="0px" y="0px"
	 viewBox="0 0 56 56" style="enable-background:new 0 0 56 56;" xml:space="preserve">
<style type="text/css">
	.st0{fill:#FDC414;}
</style>
<polygon id="Ghana" class="st0" points="12.7,52 12.7,51.4 14.2,50.9 15.8,50.9 15.8,48.9 14.7,47.3 13.2,46.8 12.7,44.7 11.7,41.7 
	10.6,40.6 10.6,40.1 11.7,39.6 11.7,36 12.2,35 12.2,32.9 12.7,31.9 12.7,30.3 15.3,26.2 16.8,25.2 16.8,23.6 17.8,22.1 16.8,20 
	15.8,19 15.8,17.5 15.3,15.9 15.8,13.3 15.8,10.3 14.7,7.7 13.7,7.2 13.2,4.6 13.7,3.1 16.3,2.5 22.5,2.5 23,2.5 27.1,2.5 30.2,2 
	32.2,2 33.8,1 34.8,1 35.3,3.1 35.9,4.1 36.4,5.1 37.9,6.7 38.4,7.7 40.5,9.2 40,11.3 40,14.4 40.5,14.9 41.5,14.9 41.5,18 41,19 
	41,20 41.5,21.1 42,22.6 41,23.6 41.5,24.7 41.5,27.2 42,28.8 42.5,33.4 41.5,35 41.5,36 41,38.1 41.5,40.1 42,42.2 43.1,42.7 
	44.1,43.7 44.6,44.7 40.5,45.3 36.4,47.3 32.2,50.9 27.6,51.4 20.4,54.5 17.3,53 12.7,52.5 "/>
</svg>
