<?xml version="1.0" encoding="utf-8"?>
<!-- Generator: Adobe Illustrator 19.2.0, SVG Export Plug-In . SVG Version: 6.00 Build 0)  -->
<svg version="1.1" id="Layer_1" xmlns="http://www.w3.org/2000/svg" xmlns:xlink="http://www.w3.org/1999/xlink" x="0px" y="0px"
	 viewBox="0 0 56 56" style="enable-background:new 0 0 56 56;" xml:space="preserve">
<style type="text/css">
	.st0{fill:#FDC414;}
</style>
<g id="GRN">
	<path id="Greenland" class="st0" d="M21.6,54.7l-0.4-0.3h-0.3v-0.1v-0.1H21v-0.1h-0.1l-0.1,0.1h-0.1v0.3l-0.1-0.1h-0.1l-0.1,0.1
		v0.1l-0.1,0.1l-0.1-0.1l0.1-0.2l0.1-0.1v-0.1l0.2-0.3L20.6,54l-0.1,0.1l-0.1,0.3l-0.2,0.1l-0.1-0.1v-0.1l0.2-0.1l0.1-0.2l0.1-0.2
		l-0.1,0.1h-0.1L20.2,54l-0.1,0.1L20,54l0.1-0.1l0.1-0.1l-0.1-0.1h-0.1L20,53.8l-0.1,0.1L19.9,54l-0.1-0.2v-0.1h-0.1l-0.1,0.1h-0.1
		v-0.1l0.3-0.2v-0.2l0.1-0.1l0.2-0.2v-0.1l-0.2,0.1l-0.2,0.1l-0.1-0.1l0.1-0.1l0.2-0.1L20,53l0.1-0.1l0.1-0.1v-0.2l-0.1-0.1h-0.1
		l-0.2,0.3L19.6,53L19.4,53V53l0.1-0.1l0.1-0.1l0.1-0.1v-0.2l-0.1-0.1l-0.1-0.1l-0.1,0.1v0.1l0.1,0.1v0.1l-0.1,0.1l-0.1-0.1
		l-0.1,0.1h-0.1L19,52.8L19,52.9L18.8,53l-0.1-0.1l-0.1-0.1h-0.1L18.4,53l-0.1-0.1L18.2,53V53l0.1,0.1l-0.1,0.1l-0.3-0.1V53l0.1-0.1
		h0.1l0.1-0.1v-0.1l-0.1-0.1v-0.2L18,52.3l-0.1-0.1l-0.1,0.1l-0.3,0.2l-0.1-0.1l-0.1-0.1l0.1-0.1l-0.1-0.1h-0.1V52l0.2-0.1h0.1
		l0.1-0.1l-0.1-0.1h-0.1l-0.2,0.1L17.2,52L16.9,52L16.8,52v-0.1l0.1-0.1l0.1-0.1v-0.2l0.2-0.1l0.1-0.1l-0.1-0.1L17,51.3l-0.1,0.1
		l-0.1,0.1l-0.1-0.1l0.1-0.1h0.1H17l0.1-0.1l0.1-0.1v-0.1l0.1-0.1l-0.1-0.1l-0.3,0.1l-0.1,0.1L16.8,51h-0.2l0.1-0.1l0.1-0.1v-0.1
		l-0.1-0.1l0.1-0.1v-0.1l-0.1-0.1h-0.1v-0.1l0.1-0.1v-0.1l-0.1-0.1l-0.1,0.1h-0.1v-0.1l0.1-0.1l0.1-0.1h0.1l0.2-0.3l-0.1-0.1v-0.1
		l0.1-0.1l-0.1-0.1l-0.1,0.1l-0.1,0.1l-0.1-0.1h-0.1l-0.1,0.1h-0.1l-0.1-0.2l0.1-0.1l0.3-0.1v-0.1l-0.1-0.1h-0.1l-0.1,0.1h-0.1
		L16,48.8l0.1-0.1l0.1-0.1l0.1,0.1l0.3-0.1l0.1-0.1h-0.1l-0.1-0.1h-0.3l-0.1,0.1h-0.1L16,48.5l0.2-0.1h0.3l0.1-0.1l-0.1-0.1h-0.1
		l-0.1-0.1h0.1h0.1l0.1,0.1l0.2-0.1l0.1-0.1L16.6,48h-0.1l-0.1,0.1h-0.1L16.2,48H16L16,48.1l-0.1,0.1l-0.1-0.1v-0.1l0.1-0.1H16
		l0.1-0.1l-0.1-0.1l-0.2,0.1h-0.2l-0.1-0.1l0.1-0.1l0.2-0.1h0.4l0.2-0.1h0.3l0.1-0.1v-0.1h-0.1L16.6,47l-0.2,0.1l-0.3,0.1L16,47.3
		h-0.2l-0.1-0.1l0.1-0.1h0.3l0.1-0.1l0.2-0.3h0.1l0.1,0.1l0.1,0.1h0.1L17,47h-0.1l-0.1-0.2h-0.1l-0.1-0.1v-0.1h0.1l0.1-0.1h0.1
		l0.1,0.1l0.2,0.2l0.1,0.1h0.1l-0.1-0.1l-0.1-0.1v-0.3l0.1-0.1v-0.1h-0.1l-0.1,0.2H17l-0.1-0.1l-0.1,0.1l-0.3,0.3l-0.1,0.1l-0.1-0.1
		v-0.1l0.1-0.1l0,0l-0.1,0.1l-0.1,0.1h-0.1L16,46.9l-0.1,0.1l-0.1,0.3h-0.1l-0.1-0.3v-0.2l0.1-0.1l-0.1-0.1v-0.1v-0.1l0.1-0.1
		l0.3-0.1H16l0.1-0.1l0.1-0.1l-0.1-0.1H16l-0.1,0.1l-0.1-0.1L15.7,46L15.6,46h-0.1l-0.1-0.1v-0.3l0.1-0.1v-0.1l-0.1-0.2h-0.1
		l-0.1,0.1h-0.1v-0.1l0.1-0.1h0.2l0.1-0.1l0.3-0.1l0.1-0.1l0.1-0.1l0.1-0.2h0.1l0.1,0.1l0.1-0.1h0.3l0.1,0.1h0.1l-0.1-0.1l-0.2-0.1
		l-0.1-0.1h-0.1L16,44.6h-0.1l-0.1,0.1l-0.1,0.1l-0.1,0.1l-0.2,0.1L15.3,45h-0.1l-0.1-0.1l0.1-0.1h-0.1v-0.1l0.1-0.1L15,44.5h-0.1
		l-0.1-0.1v-0.1l0.3-0.1l0.1-0.1h0.1l0.1,0.1h0.2l0.1-0.1l0.1-0.1H16l0.1-0.1L16,43.8h-0.1l-0.2,0.1L15.5,44h-0.1l-0.1-0.1h-0.1
		L15.2,44L15,44.1V44h-0.1l-0.1,0.1h-0.1l0.1-0.1l0.1-0.1l0.3-0.1l0.3-0.2l0.1-0.1l0.3-0.1l0.1-0.2l0.3-0.3l0.3-0.1l0.3-0.1h0.1
		l0.1-0.1v-0.1l-0.1-0.1l-0.3,0.1L16.1,43l-0.3,0.3l-0.1,0.3l-0.2,0.1l-0.3,0.1l-0.1,0.1l-0.4,0.2h-0.1l-0.1-0.1l0.1-0.1v-0.3
		l0.1-0.1h0.1l0.1,0.1l0.1-0.1h0.3h0.2l-0.1-0.1l-0.1-0.1h-0.2L15,43.3h-0.1l-0.1-0.1v-0.1H15l0.2,0.1h0.1l0.2-0.1v-0.1l-0.1-0.1
		h-0.1L15.3,43V43l0.2-0.1l0.1,0.1l0.1-0.1l0.1,0.1l0.1-0.1l-0.1-0.1v-0.1l-0.1-0.1h-0.1l-0.1,0.1h-0.1l-0.4-0.1h-0.2l-0.1-0.1v-0.1
		h0.2l0.1,0.1l0.1-0.1l-0.1-0.1h-0.1l-0.1-0.1v-0.1h0.3l0.1-0.1h0.2l0.6,0.1l0.1-0.1l0.3,0.1l0.1-0.1v-0.1l-0.3-0.1h-0.3L15.5,42
		h-0.2l-0.1-0.1h-0.1L14.9,42l-0.1,0.1L14.7,42v-0.1l0.1-0.2l0.2-0.1l0.1-0.1l0.2-0.1l0.1-0.2l0.2-0.1h0.1l0.1,0.1H16l0.1-0.1h0.1
		l0.1,0.1l0.2,0.1l0.2,0.2h0.2l0.2,0.1l0.2,0.2l0.2,0.1l0.3,0.1l0.1-0.1h0.1l0.1-0.1l-0.1-0.1l-0.2,0.1l-0.1,0.1h-0.1l-0.2-0.1
		l-0.2-0.3v-0.1h0.1h0.3l0.3-0.1l0.1-0.1l-0.1-0.1L17.6,41h-0.1v0.1l0.1,0.1h-0.1h-0.3L17,41.1L17,41l0.1-0.1h0.1l0.1-0.1l-0.1-0.1
		H17L17,40.8h-0.1h-0.1v0.1l0.1,0.1v0.1l-0.1,0.1l-0.1,0.1l-0.1-0.1L16.3,41h-0.1L16,40.9v-0.1H16l-0.1,0.1l-0.3,0.1h-0.1L15.4,41
		l-0.2,0.2l-0.1,0.1L15,41.2v-0.1l0.2-0.3l0.1-0.1l0.1-0.1v-0.1h0.1l0.1-0.1v-0.1l0.1-0.1h0.1l0.1,0.1l0.2,0.1h0.3v-0.1l-0.1-0.1H16
		l-0.1-0.1l-0.3-0.3L15.6,40L15.5,40v-0.1l0.1-0.1l0.3,0.1l0.2,0.3l0.2,0.2v-0.1l-0.1-0.1L16,40h0.1l0.1,0.1l0.1,0.1l0.3,0.2h0.1
		l0.1-0.1H17l0.1,0.1l0.2,0.1l0.2,0.1l0.1,0.1h0.1v-0.1l-0.2-0.1l0.3-0.4L17.7,40V40l0.3-0.1v-0.1l0.1-0.1l0.1-0.1v-0.1h-0.1
		l-0.1,0.1h-0.3l-0.1,0.1l0.1,0.1l0.1,0.1l-0.1,0.1h-0.3L17.3,40l-0.1-0.1L17,40l-0.1-0.1l-0.1-0.1l-0.1-0.1l0.1-0.1l0.1-0.1h-0.1
		l-0.2,0.1l-0.1-0.1l0.3-0.1l0.3-0.1l0.1-0.1h0.3l0.1,0.1h0.2h0.2h0.2v-0.1l0.1-0.1l0.1-0.1l0.1-0.1l0.1-0.1h-0.1l-0.1,0.1h-0.1
		L18.1,39l0.1-0.1l0.1-0.4v-0.2l0.1-0.1l0.1,0.1l0.1,0.2l-0.1,0.1v0.1l0.2,0.1h0.1l0.1,0.1h0.1v-0.1l0.1,0.1h0.1v-0.1l-0.1-0.1h-0.3
		v-0.1H19l0.2-0.1v-0.1L19,38.2h-0.1l-0.1-0.1L18.8,38l-0.1,0.1h-0.1h-0.1V38l0.1-0.1h0.1l0.1-0.2l0.1-0.1H19h0.1h0.1v-0.1l-0.1-0.1
		h-0.2l-0.1-0.1l0.1-0.1l0.2-0.1l0.1-0.1l0.1-0.1v-0.1l0.1-0.1l-0.1-0.1h-0.1v-0.1l0.1-0.1h0.1v-0.1l-0.1-0.1h-0.2L19,36.7h-0.2
		l-0.1-0.1l-0.1,0.1h-0.1l-0.1-0.1l-0.1,0.1h-0.1l-0.1-0.1h-0.1l-0.2-0.2v-0.1L17.7,36l-0.2-0.1l-0.4-0.1l-0.3-0.1l-0.2-0.2v-0.1
		l-0.1-0.3L16.5,35l-0.1-0.1v-0.1l0.2-0.2h0.2l0.1-0.1l0.1,0.1h0.2l0.2,0.1l0.2,0.1h0.1l0.1,0.1h0.2l0.1,0.1l0.1,0.1h0.1l0.1,0.1
		l0.1,0.4l0.1,0.2l0.2,0.1l0.1,0.1l0.2,0.1l0.1-0.1l0.1-0.1l-0.1-0.1l-0.1,0.1h-0.1L19,35.7l-0.2-0.3v-0.1h0.1l0.2,0.2h0.1v-0.1h0.1
		v-0.1l-0.3-0.2l-0.2-0.2L18.8,35l0.1-0.1H19l0.1,0.2h0.1l-0.1-0.2L19,34.7l-0.2-0.1l-0.1-0.1l0.1-0.1l0.2,0.1l0.4,0.1l0.1-0.1v-0.1
		l-0.1-0.2h-0.1l-0.1,0.1H19h-0.2l-0.1-0.1l0.1-0.1l0.3-0.1h0.1l0.1,0.1V34v-0.1l-0.1-0.1h-0.1L19,33.8h-0.1l-0.1,0.1l-0.3,0.2h-0.2
		V34l0.1-0.1l0.1-0.1l0.1-0.1h0.1h0.1l0.1-0.1h0.1l0.1-0.1l-0.1-0.1h-0.3l-0.1,0.1h-0.1l-0.1-0.1h-0.2l-0.1-0.1v-0.1l0.1-0.1
		l0.1-0.1h0.3l0.3-0.1l0.2-0.1v-0.1l-0.1-0.1h-0.1L19,32.9l-0.2,0.1l-0.1-0.1l-0.1-0.1l-0.1-0.1h-0.1l-0.1-0.1v-0.1l0.1-0.1l0.1-0.2
		l0.1-0.1l0.1-0.1V32h-0.1l-0.2,0.1l-0.1,0.3v0.1l-0.1,0.1l-0.1,0.1h-0.1v-0.1l0.1-0.3V32l-0.1-0.2v-0.2l0.1-0.1v-0.1h-0.1l-0.1,0.1
		L18,31.8l0.1,0.1l0.1,0.2v0.2v0.3l-0.1,0.1H18l-0.1-0.1l-0.1-0.1v0.3v0.1h-0.1h-0.1l0.1,0.1l0.1,0.1l-0.1,0.2l-0.1,0.1h-0.1h-0.1
		l-0.1,0.1l-0.1,0.1H17l-0.1-0.1v-0.1l-0.1-0.1l-0.1-0.1h-0.3l-0.1,0.1h-0.1l-0.1-0.3l0.1-0.1l-0.1-0.1l-0.1-0.1v-0.1l0.2-0.1h0.2
		l0.1,0.1l0.1-0.1l0.1-0.1l0.3-0.1h0.1l0.3-0.3l0.1-0.3v-0.1h-0.1l-0.1,0.1l-0.1,0.2L17.2,32L17,32.1L16.7,32l-0.1-0.1v-0.1l0.2-0.1
		l0.2-0.2h0.1l0.1-0.1v-0.1l0.1-0.1h0.1l0.1-0.1l-0.1-0.1V31L17.3,31h-0.1L17.2,31L16.9,31h-0.1l-0.1-0.1l0.1-0.1l0.2-0.1h0.1
		l0.1,0.1h0.1l0.2-0.1l0.1-0.3l-0.1-0.1v-0.1l0.2-0.2l-0.1-0.1v-0.2l-0.1-0.1l-0.1-0.1h-0.1l-0.1-0.1h-0.1L17,29.4v-0.1l0.1-0.1h0.1
		l0.1-0.1l0.1-0.1v-0.1l0.1-0.1v-0.1l-0.1-0.1h-0.1l-0.1-0.1v-0.1l0.1-0.1h0.1v-0.1l-0.1-0.2l-0.1-0.2l0.1-0.1l0.1,0.1l0,0l-0.1-0.1
		v-0.1l0.1-0.2l-0.1-0.2l-0.1-0.1v-0.1L17.2,27l0.1-0.1l0.1-0.2h-0.1h-0.1L17,26.9h-0.1l-0.1,0.1L16.7,27l-0.1-0.1l0.1-0.1l0.2-0.1
		H17l0.1-0.1l0.1-0.1l0.1-0.1l0.1-0.1l0.1-0.1V26l-0.1-0.1l-0.1-0.1l-0.1-0.1l-0.1-0.1h-0.1L17,25.5v-0.1l0.1-0.1L17,25.2V25
		L17,24.9l-0.3-0.3v-0.1l-0.1-0.1l-0.1-0.1v-0.1l0.1-0.1l0.2-0.2l0.1-0.1l0.1-0.1l-0.1-0.1h-0.1v-0.1l0.1-0.1l0.1-0.2l0.1-0.1v-0.1
		L17,23.2l0.1-0.1L17,23L16.9,23l-0.1-0.2l-0.2-0.2l-0.1-0.1l-0.1-0.1h-0.1v0.1h-0.1l-0.1-0.1l-0.1-0.1L16,22.2l-0.1-0.1L15.8,22
		L15.8,22L15.7,22h-0.1V22l0.1-0.2l-0.3-0.2l-0.2-0.2h-0.1l-0.1,0.1l-0.1-0.1l-0.3-0.3l-0.3-0.1L14.3,21l-0.2-0.1h-0.2l-0.1,0.1
		l-0.1,0.2l-0.2,0.1l-0.1,0.1v-0.2l0.1-0.2v-0.2l-0.1-0.1h-0.2L13.1,21v0.1L13,21.2l-0.1-0.1l-0.1-0.3l-0.1-0.1v0.1l-0.1,0.3
		l-0.1,0.1l-0.1-0.1v-0.2l0.1-0.2l0.1-0.1l-0.1-0.1h-0.1l-0.1-0.1l-0.2,0.1h-0.1l-0.1,0.1l-0.1,0.1l-0.1-0.1v-0.1l-0.1-0.2l-0.1-0.2
		h-0.1l-0.1,0.1v0.1l-0.1,0.2l-0.1,0.1v0.1l0.1,0.3v0.1l-0.1,0.1l-0.1-0.1L11,21.1L10.9,21l-0.2-0.1l-0.1-0.2l-0.1-0.1v-0.1l0.1-0.1
		l-0.2-0.1l-0.1-0.3L10,20l-0.1-0.2v-0.2l0.1-0.1h0.3l0.1-0.1l0.1-0.1h0.3l0.1,0.1l0.1-0.1l0.1-0.1v-0.1h-0.2L10.5,19h-0.1L10.4,19
		l-0.3-0.3v-0.3l0.1-0.1l0.1-0.1l0.1-0.3l0.1-0.1h-0.1l-0.1,0.1l-0.1,0.3h-0.1L10,18.3l-0.1,0.1l-0.2-0.1l-0.1-0.2L9.7,18l0.1-0.1
		l-0.1-0.1H9.6l-0.1,0.1v-0.1v-0.1l0.1-0.1h0.1l0.1-0.1h0.1l0.1,0.1v-0.3l0.3-0.1l0.3,0.1l0.3,0.1h0.4l0.3,0.2h0.3l0.1,0.1l0.4,0.2
		h0.1h0.1l0.3-0.1l-0.1-0.1h-0.2l-0.3-0.1L12,17.4h-0.2l-0.3-0.1l-0.2-0.1v-0.1l0.4-0.1H12h0.4l0.3,0.1l0.1,0.1l0.1,0.1l0.1,0.1
		l0.1,0.1v-0.1l-0.1-0.1v-0.1l0.3-0.1h0.1v-0.3l-0.1-0.1h-0.1l-0.1-0.1v-0.1L13,16.5h-0.1l-0.2,0.1h-0.2l-0.3-0.1L12,16.4v-0.1
		l-0.1-0.1l-0.1-0.2h-0.1l-0.1,0.1l0.1,0.1l0.1,0.1l-0.1,0.2l-0.1,0.1h-0.3l-0.3-0.1l-0.3-0.3l0.1-0.1l0.2-0.1l0.3-0.1v-0.1
		l-0.1-0.1l-0.3,0.1L11,15.9l-0.2-0.1l-0.1-0.1l0.1-0.1l0.2-0.1l0.2-0.1l0.1-0.2l-0.1-0.1l-0.1-0.1L11,15.1L11,15.3l-0.2,0.1
		l-0.3,0.1h-0.2l-0.1-0.1l0.1-0.1l0.1-0.1l0.1-0.1L10.5,15l-0.1-0.1h-0.2l-0.1-0.1L10,14.5l-0.1-0.1l-0.2-0.1l-0.1-0.1l0.1-0.1
		L9.9,14l0.1-0.1l0.1-0.1l0.1,0.1h0.1v-0.1l-0.2,0.1H10l-0.1-0.1l0.1-0.1h0.2l0.3-0.1v-0.1v-0.1l0.1-0.1l0.1-0.1h0.1l0.1,0.1H11
		l0.1-0.1h0.1l0.1,0.1v0.1h0.1h0.1l0.1-0.1l0.1-0.1h0.1H12l0.1-0.1h0.1h0.1l0.8-0.2h0.1l0.1,0.1l0.1-0.1l-0.1-0.1l0.1-0.1l0.3-0.1
		h0.3l0.2-0.1l0.1,0.1l0.2,0.1l0.2-0.1l0.2-0.1l0.3,0.1l0.1,0.1h0.2l0.1,0.1l0.2,0.1h0.1l0.1-0.1v-0.1l0.2-0.2l0.1-0.2l0.2-0.3
		l0.3-0.1l0.1-0.1l0.2-0.3l0.1-0.1l0.1-0.2l-0.1-0.1V11l0.1-0.2h0.2h0.3l0.2-0.1l0.1-0.1l-0.1-0.1h-0.2l-0.2-0.1v-0.1l0.1-0.1
		l0.2-0.1l0.3,0.1L18,10l0.3-0.1V9.8l-0.1-0.1V9.5h-0.1L18,9.6v0.2l-0.1,0.1h-0.3l-0.2-0.1h-0.1L17.1,10H17l-0.1-0.1l-0.2-0.1h-0.1
		l-0.1,0.4h-0.1L16.3,10h-0.1h-0.1V9.9V9.8L16,9.7V9.6l0.1-0.1l0.1-0.1l0.1-0.1l0.1-0.1l0.1-0.1V8.9l-0.1-0.1V8.7l0.1-0.1h0.1
		l0.2-0.1L17,8.6V8.4l0.3-0.1l0.1-0.1l0.1-0.1h0.3L17.9,8L17.9,8l-0.1-0.1V7.8l0.1-0.1h0.2v0.1l0.1-0.1l0.3-0.3V7.3l0.1-0.1l0.2-0.1
		L18.8,7l0.1-0.2H19l0.1-0.1l0.1,0.1L19.2,7v0.3l0.1,0.1v0.3l-0.1,0.4h0.1L19.3,8l0.1-0.3l-0.1-0.3V7.2l0.1-0.1V6.8l0.1-0.1h0.1
		l0.1-0.1l0.1-0.1h0.1v0.1L20,6.8H20l0.1,0.1V7l0.1,0.1l0.1,0.1l0.3-0.1l0.1-0.1h0.1V7l-0.1-0.1l0.1-0.1l0.1-0.1l0.1-0.2L21,6.4h0.2
		l0.3-0.1l0.1-0.2V5.8l-0.1-0.1h-0.1V5.7l0.1-0.1l0.1-0.2V5.2L21.5,5l0.1-0.3l0.1-0.1l0.3-0.1l0.3-0.1l0.3-0.1l0.1,0.1v0.1v0.2
		L22.7,5v0.2l-0.1,0.4v0.4L22.7,6L23,6.3L23,6.4l0.1,0.1l0.1-0.1l-0.1-0.3V5.9l-0.3-0.3V5.4L23,5.1V5l-0.1-0.1l-0.1-0.2V4.6
		l-0.1-0.1l0.1-0.1L23,4.2h0.2l0.1,0.1l0.1-0.1h0.1l0.3,0.1h0.4l0.4-0.1H25l0.1,0.1l0.1,0.2v0.2v0.1h0.2l0.1-0.1l-0.1-0.1V4.3
		L25.6,4l0.1,0.1l0.1,0.1l0.1,0.3L26,4.5L26,4.4V4.1L25.9,4l-0.1-0.1l0.1-0.1H26l0.2,0.1l0.2-0.1l0.2-0.1l0.3,0.1L27,3.9v0.4
		l-0.1,0.3v0.2l-0.1,0.3l-0.1,0.2v0.1l-0.1,0.1l-0.1,0.1l-0.1,0.1l0.1,0.1v0.1L26.6,6l-0.1,0.1l-0.1,0.3l-0.2,0.1l-0.1,0.1L26,6.8
		L25.9,7l-0.1,0.2l0.1,0.1H26l0.1-0.2L26.3,7V6.9l0.1-0.1l0.2-0.3l0.1-0.2l0.1-0.1l0.1-0.1l0.1-0.1V5.9l0.1-0.1l0.1-0.2l0.1-0.1
		l0.1,0.1v0.1l0.1,0.1l0.1,0.2l0.1,0.3l0.1,0.2v0.3l0.1,0.1H28L28,7h0.1l0.1-0.1l0.1-0.1V6.8l-0.1-0.1L28,6.5l0.1-0.1h0.1l0.1,0.1
		h0.2l0.1,0.1v0.1l0.1,0.1l0.1-0.1h0.1l0.1,0.1L29,6.7V6.4l-0.1-0.2L29,5.9L29,5.7L29,5.6l-0.1-0.3V5.1L29,4.7V4.6L29,4.5L29,4.3
		V4.1L29.2,4h0.2L29.5,4h0.2l0.1,0.1l0.1,0.1L30,4.3l0.1,0.2l0.2,0.4V5l0.2,0.3l0.1,0.3l0.1,0.4v0.1l-0.1,0.1v0.1l0.1,0.2l0.1,0.1
		L30.8,7l-0.1,0.2v0.2l0.1,0.1H31l0.2,0.1h0.1l0.2-0.1l0.1-0.3l0.1-0.1l0.1,0.1v0.2l0.1,0.1h0.1L32,7.5l0.1,0.1l0.1,0.1v0.1l0.1,0.1
		h0.1L32.6,8h0.2l0.1-0.1l-0.1-0.1l-0.2-0.1l-0.1-0.1V7.5h-0.1l-0.1-0.1V7.3l-0.1-0.1L32,7V6.9L32,6.6l-0.1-0.2V6.3l0.1-0.3
		l-0.1-0.2l-0.1-0.3V5.4l0.1-0.1l-0.1-0.3L31.7,5V4.9l-0.1-0.3l-0.1-0.2l0.1-0.1l-0.1-0.2V3.9l0.1-0.1l0.3,0.1L31.9,4H32L32,3.9h0.1
		l0.3,0.4l0.3,0.1l0.1-0.1V4.1l-0.1-0.1l0.1-0.3h0.1l0.1,0.1l0.2-0.1l0.2-0.1l0.2,0.1l0.1,0.1l0.1,0.1L34,4l0.1,0.3v0.1l0.2,0.2v0.2
		l-0.1,0.1l0.1,0.4v0.2l0.1,0.1l0.1,0.1h0.3L35,5.9l0.3,0.2l-0.1-0.1V5.9L35,5.7l-0.1-0.1h-0.1l-0.2-0.1V5.4V5.1l-0.1-0.2V4.8
		l0.1-0.3V4.3V4.2l0.1-0.1L34.5,4L34.3,4l-0.2-0.3H34h-0.2l-0.1,0.1l-0.1,0.1l-0.2-0.1V3.4l0.1-0.2h0.1V3.1l-0.3-0.2l-0.1-0.2
		l0.1-0.1l0.1-0.1h0.1l0.1,0.1l0.1,0.2h0.1L34,2.5l0.1-0.1l0.2-0.1l0.1-0.1L34.5,2h0.2l-0.1,0.1l-0.1,0.1l0.1,0.1l0.1-0.1h0.2
		L35,2.4v0.1l0.1,0.1v0.1L35,2.9L35.1,3l0.1-0.1l0.1-0.3l0.2,0.1l0.1,0.2V3l0.1,0.3l0.1,0.3v0.3l0.1-0.1V3.4l-0.1-0.1l-0.1-0.1V2.9
		l-0.1-0.1l0.1-0.1l0.1,0.1l0.3,0.3l0.2,0.3l0.3,0.1L37,3.6V3.6l-0.1-0.1l-0.3-0.1l-0.1-0.3l-0.2-0.7l0.1-0.3h0.2h0.2L37,2.3h0.2
		l0.1-0.1l-0.1-0.1L37,2V1.9l0.2-0.2l0.1-0.1l-0.1-0.1l-0.1-0.1l0.1-0.2h0.1l0.1,0.1l0.1-0.1L37.7,1l0.1-0.1L37.9,1L37.9,1H38
		L38,1.1l0.1,0.3l0.1,0.1l0.1-0.1V1.3l-0.1-0.2V1l0.1-0.1h0.1L38.7,1h0.3L39.2,1l0.1,0.1h0.1L39.5,1l0.2,0.1H40l0.1,0.1h0.1l0.1-0.1
		l0.1,0.1l0.1,0.1l0.3,0.2l0.1-0.1V1.3H41l0.3,0.2h0.1l0.2,0.2H42l0.1,0.1l0.2-0.1l0.1,0.1l0.1,0.1l0.2-0.1l0.2,0.1L43,2l0.3,0.1
		l0.2,0.1l0.1,0.2l0.1,0.1l0.3,0.2v0.1l-0.1,0.1h-0.2l-0.2-0.1l-0.1,0.1l-0.1,0.1H43H43l-0.2,0.1h-0.1l-0.4-0.2l-0.2-0.1h-0.1
		l-0.2-0.1h-0.2l-0.1,0.1h-0.1l-0.1-0.1H41l-0.3,0.1L40.6,3l-0.2-0.1h-0.1l-0.2,0.1h-0.3l-0.1-0.1V2.7l0.1-0.1H40L40,2.6L40,2.5
		h-0.1l-0.1,0.1l-0.2,0.1v0.2L39.6,3h0.1l-0.1,0.1l-0.1,0.1h-0.1h-0.1h-0.2l-0.1,0.1h-0.2l-0.2-0.1h-0.3l-0.3,0.1l-0.4,0.3l-0.1,0.1
		V4l-0.1,0.1v0.1l0.1,0.1l0.1-0.1V4.1L37.9,4V3.9L38,3.8h0.2h0.1l0.1,0.1L38.4,4l-0.1,0.2v0.1h0.1l0.1-0.1l0.1-0.3l0.1-0.2l0.2-0.1
		H39h0.3h0.2l0.1-0.1h0.1l0.1,0.1l0.1,0.3L39.9,4H40V3.8l-0.1-0.3L40,3.5l0.2-0.1l0.2,0.1l0.3-0.1h0.3l0.3-0.1l0.2-0.1l0.4-0.1
		l0.3,0.1l0.2,0.1l0.2,0.1l0.1,0.1l0.2,0.1l0.1,0.1l0.1,0.1L43,3.7l0.1-0.1l0.1,0.1l0.1,0.1h0.1l0.2-0.1h0.1h0.2l0.3-0.1l0.1-0.1
		h0.1l0.1,0.1l0.1,0.2l0.2,0.1v0.1L44.8,4v0.1l0.1,0.1l0.1,0.1v0.1l-0.3,0.3l-0.3,0.1l-0.1-0.1L44,4.5l-0.1-0.1l-0.1,0.1v0.1L44,4.7
		v0.1v0.1l-0.2-0.1l-0.1-0.1h-0.1v0.1l0.1,0.1L43.7,5h0.2L44.1,5h0.1l0.3-0.1h0.1L44.8,5V4.9V4.8h0.1h0.3l0.1,0.1V5L45.4,5L45.5,5
		l0.1-0.1L45.6,5l0.1,0.1l0.1,0.1l0.3,0.1l0.1,0.1v0.1l0.2,0.2l0.3,0.1l0.2,0.1v0.1v0.2l-0.1,0.1v0.1v0.1l-0.1,0.1l-0.2,0.1
		l-0.1,0.1l-0.1-0.1l-0.1,0.1v0.1l-0.1,0.1L46,7l-0.3,0.1h-0.3l-0.1,0.1h-0.1l-0.1-0.1L45,7h-0.1v0.1l0.1,0.1v0.1h-0.2l-0.2-0.1
		l-0.1,0.1h-0.1l-0.1-0.1h-0.2L44,7.3l-0.3,0.1h-0.1l-0.1-0.1h-0.1l-0.1-0.1h-0.1l-0.1,0.1L43,7.5l-0.1-0.1l-0.3-0.2h-0.1l-0.1-0.1
		h-0.3l-0.1-0.1h-0.1l-0.2,0.1h-0.2l-0.2-0.1l-0.1,0.1l-0.1,0.1L41,7.3h-0.2l-0.2,0.1v0.1h-0.1l-0.1-0.2l-0.1-0.1h-0.1l-0.1-0.1H40
		v0.1h0.1h0.2l0.1,0.1l0.1,0.1l-0.1,0.1l-0.1,0.1h-0.1H40l-0.1,0.1l-0.2,0.1h-0.3l-0.1,0.1l-0.1,0.1L39.1,8h-0.2l-0.2,0.1h-0.1
		l-0.1,0.1v0.1l0.1,0.1v0.1v0.1l0.1,0.1h0.1l0.1-0.1V8.6l0.1-0.1l0.2-0.1l0.1-0.1h0.2h0.2l0.1-0.1L40,8.2l0.3-0.1L40.6,8h0.1V8v0.1
		h0.1L40.9,8V7.9L41,7.7h0.1l0.2,0.1l0.1,0.1l0.2-0.1h0.3l0.2,0.1l0.2,0.1l0.4-0.1l0.1,0.1L43.1,8L43.4,8h0.4H44v0.1L44,8.2v0.1
		l-0.1,0.1v0.1l-0.1,0.2l-0.1,0.1l-0.4,0.1L43,8.9h-0.1l-0.1-0.1h-0.1L42.7,9v0.1l-0.1,0.1v0.1h0.1l0.2-0.1l0.3-0.1l0.2-0.1h0.3
		L44,9.3h0.1l0.1,0.1l0.1-0.1l0.1-0.1h0.1l0.1,0.1l0.1,0.1l0.2-0.2l0.1-0.3V8.6L45,8.5l-0.1-0.1V8.3l0.1-0.1h0.2l0.3,0.1h0.3L46,8.2
		l0.1,0.1l0.1,0.2v0.3v0.3L46,9.3l-0.1,0.3l-0.1,0.3L45.7,10l-0.6,0.5H45l-0.1-0.1l-0.1,0.1l-0.1,0.1l-0.1-0.1h-0.1l-0.1,0.2v0.1
		L44.2,11L44,11.1h-0.1L43.9,11l-0.1,0.1v0.1l-0.1,0.1l-0.2,0.3l-0.2,0.1l-0.1,0.1L43,12.1l-0.2,0.2l-0.1,0.1l-0.3,0.2l-0.1,0.1
		h-0.1v0.2V13l-0.1,0.2l0.1,0.1l0.1-0.1l0.1-0.1l0.2-0.2l0.1-0.2l0.2-0.1H43l0.1,0.1l0.1-0.2l0.3-0.3h0.1v-0.2l0.3-0.3l0.3-0.3
		l0.1-0.1h0.1h0.2l0.1-0.1v-0.1h0.2h0.3l0.3-0.1l0.2-0.2h0.2l0.2-0.1l0.1-0.1h0.1l0.1-0.1l0.3-0.3l0.1-0.2V9.9l0.1-0.1l0.1-0.1
		L47,9.6v0.1l0.1,0.1V10L47,10.1l0.1,0.1l0.1,0.2l-0.1,0.1v0.1l0.1-0.1l0.1-0.2l0.1-0.1l-0.1-0.1V9.9l0.1-0.1l0.1,0.1V10l0.1,0.1
		h0.2l0.2-0.1l0.1-0.1l-0.1-0.1V9.8H48l0.1-0.1V9.4V9.3l0.1-0.1l0.1-0.1l0.1,0.1l0.2,0.1l0.2-0.1l0.1-0.1L49,9h0.3l0.1-0.1L49.7,9
		l0.3,0.1l0.3,0.1h0.2l0.2,0.1l0.1,0.1h0.1L51,9.4l0.1,0.1v0.1l0.3,0.3l0.1,0.1l0.1,0.1l0.1,0.3v0.2l-0.1,0.1l-0.2,0.1L51.2,11
		L51.1,11L51,11.1l-0.2,0.1l-0.2,0.3l-0.1,0.1l-0.1,0.1l-0.1-0.1L50,11.4h-0.1l-0.1,0.1l-0.1,0.2v0.1l0.1,0.1V12l0.1,0.1l0.1,0.1
		v0.1l-0.1,0.1h-0.1h-0.1l-0.3,0.1l-0.2,0.1h-0.2h-0.1l-0.1-0.1l-0.1-0.1h-0.2l-0.1-0.1h-0.1v-0.1h-0.1H48l-0.1,0.1h-0.1h-0.1
		l-0.1,0.1l-0.1,0.1h-0.1h-0.1l-0.1,0.1l-0.1,0.1h-0.2l-0.1-0.1l-0.2,0.1L46.5,13l-0.2-0.1h-0.2l0.2,0.1h0.1h0.4l0.1-0.1H47l0.2,0.1
		l0.2,0.1h0.4l0.1,0.1H48l0.1-0.1h0.1l0.1,0.1l0.1,0.1l0.2,0.1l0.1,0.1v0.1l-0.1,0.1h-0.1h-0.1l0.1,0.1v0.1L48.3,14L47.9,14L47.7,14
		L47.5,14h-0.4L47,13.9l-0.4-0.3h-0.3h-0.1L46,13.7L45.9,14l-0.2,0.1l-0.1,0.1h-0.1l0.1,0.1h0.1l0.1,0.1v0.2l-0.1,0.1h-0.1v0.1
		l0.1,0.1l0.2,0.1l0.1-0.1l0.1-0.1l0.2-0.1l0.1-0.2l0.3-0.1l0.3-0.1l0.3-0.1h0.1l0.1,0.1l0.1,0.1l0.2,0.1l0.1,0.1v0.1l-0.1,0.1
		l-0.2,0.2l-0.1,0.3l-0.1,0.1l-0.1,0.2l-0.3,0.2l-0.1,0.3l-0.3,0.4l-0.1,0.2l-0.1,0.1v0.3l-0.1,0.2v0.1L46,17.4v0.3L46,17.9
		l-0.1,0.3l0.1,0.1v0.2l-0.1,0.3l-0.1,0.1L45.6,19l0.1,0.3l-0.1,0.1l-0.1,0.1v0.3L45.5,20l-0.2,0.1h-0.1L45.1,20v-0.1l-0.1-0.1h-0.1
		l0.1-0.1l-0.1-0.1l-0.1-0.1l-0.1,0.1h-0.1l-0.1,0.1v0.1l0.1,0.1V20L44.6,20v0.1l0.1,0.1l0.1,0.1l0.1,0.1l0.1,0.1l0.1,0.3l0.2,0.1
		l0.1,0.1l0.2,0.2l0.1,0.3l-0.1,0.1h-0.1l-0.1-0.1l-0.2-0.2v-0.1l-0.1-0.1L45,21l-0.1,0.1l-0.1,0.1l0.1,0.1l0.1,0.1v0.1h-0.1h-0.1
		l-0.1,0.1l0.1,0.1l0.1,0.1v0.1l-0.1,0.1l0.1,0.1h0.1l0.2,0.1l0.1,0.1v0.1v0.1l0.1,0.1l0.1-0.1l0.2-0.2l0.1-0.1l0.1-0.1v0.1l0.1,0.1
		H46l0.1,0.1l0.1,0.1l0.1,0.1v0.1l-0.1,0.1v0.3l-0.1,0.3V23l-0.1,0.3L46,23.4v0.2L46,23.7l-0.1-0.1l-0.1-0.1l-0.2-0.1l-0.1-0.1
		l-0.1-0.1h-0.1l-0.1-0.1l-0.1-0.1l0.1-0.1l-0.1-0.1h-0.1l-0.1,0.1L45,22.9l-0.1-0.1h-0.2l-0.1,0.1l0.1,0.1V23h-0.1l-0.1-0.1h-0.2
		L44.1,23l0.1,0.1h0.1l0.2,0.1l0.1,0.1v0.1l-0.1,0.1l-0.3,0.2L44,23.6h-0.1l-0.1-0.1v-0.1l-0.1-0.1l-0.1,0.1v0.1l0.1,0.1l-0.1,0.1
		l0.1,0.1v0.1l-0.1,0.1l0.1,0.1v0.1h-0.4l-0.2-0.1H43l-0.1,0.1l0.1,0.1h0.1h0.3l0.1,0.1v0.1v0.2h0.1l0.1-0.1l0.2-0.1l0.2,0.1
		l0.1,0.1h0.2l0.1,0.1l0.1-0.1l0.1-0.1l0.1,0.1v0.1v0.2V25l-0.1,0.1l-0.1,0.1l-0.1-0.1L44.2,25l-0.1,0.1L44,25.2l-0.1-0.1l-0.3,0.1
		l-0.2,0.1h-0.1l-0.1-0.1l-0.1,0.1l0.1,0.1l0.1,0.1h0.1l0.1-0.1h0.3l0.1,0.1l0.1,0.1h0.1l0.1,0.1l0.1,0.1l0.1,0.2l0.1,0.1l0.1,0.1
		h-0.1L44.7,26l-0.1-0.1V26v0.1l0.1,0.1v0.3v0.1l0.1,0.2v0.1L44.7,27l-0.1,0.3l-0.1,0.1h-0.1l-0.1-0.1l-0.1-0.1l0.1-0.1l-0.1-0.1
		h-0.1L44,27.1h-0.1l-0.3-0.3l-0.2-0.1l-0.2-0.1v-0.1l-0.1-0.1L43,26.1L42.9,26h-0.1v0.1l0.1,0.1l0.2,0.2v0.1L43,26.6h-0.3l-0.1-0.1
		V26l-0.1-0.1V26v0.1l0.1,0.2l0.3,0.1h0.3l0.3,0.2l0.4,0.4l0.1,0.1l-0.1,0.1h-0.1l-0.1-0.1h-0.2l-0.1,0.1l-0.2,0.2h-0.1L43,27.4
		l-0.1-0.1l0.1-0.1l-0.1-0.1l-0.1-0.1v0.1l0.1,0.1l0.1,0.2l0.1,0.1l0.2,0.1l0.2-0.1l0.2-0.2h0.1l0.3,0.1v0.1l-0.1,0.1l-0.1,0.3
		l-0.1,0.1h-0.1v0.1l0.1,0.1l0.1-0.1l0.2,0.1l0.1,0.2l0.2,0.1l0.1-0.1l0.1-0.1h0.2v0.1l-0.1,0.1v0.1l0.1,0.1l-0.1,0.2l-0.2,0.3
		l-0.3,0.1L44,29.5v-0.1l-0.1-0.1l-0.1-0.1V29l-0.2-0.1l-0.2-0.1l-0.1-0.1h-0.1l-0.1,0.1H43l-0.1-0.1l-0.1-0.1l-0.1-0.1h-0.1v0.1
		l0.1,0.1v0.2L42.6,29L42.5,29h-0.1l-0.1,0.1l0.1,0.1l0.1,0.1v0.1l-0.1,0.2l-0.1,0.1v0.1l0.1,0.1l0.1,0.1l0.1,0.2l0.1,0.1l0.1,0.2
		l-0.1,0.3v0.1l0.1-0.2l0.1-0.1v-0.1l-0.1-0.1v-0.2l0.1-0.1h0.1l0.1,0.1l0.1,0.1l0.1,0.1l0.1,0.1l0.1-0.1h0.1l0.1,0.1l0.1-0.1
		l0.2-0.1h0.1l0.1,0.1v0.1l-0.1,0.3l-0.1,0.1v0.2v0.3l-0.1,0.1h-0.2l-0.2,0.1L43,31.2l-0.1-0.1h-0.1l-0.1,0.1v0.1l-0.1,0.1h-0.1
		h-0.1l-0.1,0.1v0.1l-0.1,0.1h-0.1l-0.2-0.1l-0.3-0.1l-0.2-0.2L41,30.8L41,30.6v-0.1l0.1-0.1h0.1l0.1,0.1l0.1,0.1l0.3,0.2l0.2,0.2
		h0.1l0.3-0.1v-0.1l-0.1-0.1h-0.1l-0.1,0.1l-0.1-0.1l-0.3-0.2l-0.3-0.1H41L41,30.4v-0.1l-0.1-0.1h-0.1l-0.1,0.1v0.2l-0.1,0.3v0.1
		L40.7,31l-0.1-0.1l-0.3-0.4l-0.2-0.4L40,30v-0.1L40,29.9h-0.1v0.1V30l0.1,0.1l0.2,0.4v0.1l0.1,0.1l0.1,0.1v0.1h-0.1L40.2,31
		L40,31.1L40,31.2l-0.1,0.1l-0.1,0.1l-0.2,0.1h-0.1l-0.1-0.1h-0.1l-0.1-0.1L39,31.2L38.8,31l-0.1-0.1v-0.1l-0.1-0.1h-0.1l-0.1,0.1
		v0.1l0.1,0.1l0.2,0.1l0.2,0.1l0.1,0.2v0.1l-0.1,0.1h-0.3l-0.2-0.1l-0.1,0.1l-0.1,0.1l0.1,0.1h0.1l0.1,0.1l0.1,0.1l0.1-0.1l0.1-0.1
		h0.2l0.1,0.1l0.1,0.1l0.1-0.1v-0.1l0.1-0.1h0.2h0.2l0.1,0.1l0.1,0.1l0.2,0.1l0.1,0.1l0.1,0.1L40.2,32h-0.1L40,32.2h-0.2h-0.1
		l-0.2,0.1l-0.1,0.1h-0.1l-0.2-0.2l-0.1-0.1h-0.1l-0.1,0.1h-0.1l-0.1-0.1h-0.1v0.1h0.1h0.2l0.1-0.1l0.1,0.1l0.1,0.1L39,32.3
		l-0.2,0.1l-0.2,0.1l-0.1,0.1h0.1l0.1-0.1l0.2-0.1h0.1l0.1,0.1v0.1h0.1l0.1-0.1h0.1h0.1l0.2-0.1h0.1l0.1,0.1l0.3,0.2H40l0.1,0.1v0.1
		L40,33.1l-0.1,0.1l-0.2,0.1h-0.2l-0.1-0.1h-0.3H39l-0.1,0.1l0.1,0.1l0.2-0.1h0.2l0.3,0.1l0.1,0.1v0.1l0.1-0.2l0.2-0.1h0.2l0.2,0.1
		l0.1,0.1l0.3,0.3l0.1,0.1v0.1h0.1l0.1,0.1H41l0.1,0.1l0.1,0.1l0.1,0.1l0.1,0.1h0.1l0.1,0.1l0.1,0.1v0.1l-0.1,0.2l-0.1,0.1l-0.1,0.1
		L41.3,35v0.1l0.1-0.1l0.1-0.1l0.1-0.1h0.1l-0.1,0.1l-0.1,0.2l0.1-0.1l0.1-0.1l0.1-0.1h0.1l0.1,0.1L41.9,35l-0.1,0.1l-0.1,0.1
		l-0.1,0.1v0.1l0.1,0.1v0.1l-0.1,0.2V36h0.1l0.1-0.3l0.1-0.2l0.1-0.1h0.1v0.1L42,35.6l-0.1,0.1v0.1l0.1-0.1l0.1,0.1V36l-0.1,0.1
		h-0.2l-0.1,0.1v0.1l0.2-0.1l0.1,0.1v0.1L42,36.4h0.1l0.1,0.1l-0.1,0.1v0.2L42,37v0.3v0.1v0.1l-0.1,0.1h-0.1h-0.1l-0.1-0.1l0.1-0.1
		l-0.1-0.1l-0.1-0.1l-0.1,0.1l-0.1,0.1l-0.1-0.1v-0.1l0.1-0.1l-0.1-0.2v-0.1l0.1-0.1l-0.1-0.1h-0.1l-0.1,0.1l-0.1,0.2v0.3v0.3v0.1
		l-0.1,0.1H41h-0.1l-0.1,0.1l-0.1-0.1l-0.3-0.2L40.2,37l-0.1-0.1L40,36.8L40,36.4l-0.1-0.2l-0.1-0.1l-0.1-0.3l0.1-0.2l0.1-0.1
		l-0.1-0.1h-0.1l-0.2,0.1l-0.1,0.1l-0.1-0.1L39,35v-0.1l-0.1-0.1l-0.1,0.1h-0.2l-0.1-0.1l-0.1,0.1L38.3,35l-0.1-0.1l-0.1-0.1v-0.1
		l-0.3-0.2v-0.1l-0.1-0.1l-0.1-0.2L37.7,34L37.6,34v0.2v0.1l-0.2,0.1l-0.1,0.1h0.2l0.1,0.1l0.1,0.2l0.1,0.1l-0.1,0.1h-0.2l-0.1,0.1
		L37.5,35l-0.1-0.1V35l0.1,0.1h0.1l0.2-0.1h0.1l0.2-0.1l0.1,0.1V35l0.1,0.1l0.2-0.1h0.1l0.4,0.1l0.2,0.1h0.1l0.1,0.1l0.1,0.2
		l-0.1,0.2l-0.1,0.1L39,35.9L38.9,36h-0.1l-0.5,0.3H38l-0.2,0.1l-0.1-0.1l-0.1-0.2v-0.1l-0.1-0.1l-0.1-0.1V36l0.1,0.1v0.1l-0.1,0.1
		l-0.1-0.1v-0.1h-0.1L37,36.2l0.1,0.1l0.1,0.1l0.1,0.1v0.1l-0.1,0.1l-0.1,0.1H37L37,36.8v0.1L36.8,37l-0.3,0.1h-0.2h-0.1l-0.1,0.1
		L36,37.3l0.1,0.1l0.3-0.2h0.3l0.1-0.1l0.1,0.1l0.1,0.1l0.2,0.1h0.2l0.2-0.1h0.3l0.1,0.1l0.2-0.1h0.1l0.1,0.1h0.1l0.1,0.1l-0.1,0.1
		l-0.2,0.1L38,37.5h-0.1l-0.1,0.1h-0.3l-0.1,0.1l-0.1-0.1l-0.1-0.1h-0.2l-0.1,0.1l0.1,0.1l0.1-0.1l0.1,0.1h0.3l0.1,0.1l0.1,0.1
		l0.1-0.1l0.3-0.2H38l0.1-0.1l0.1,0.1l0.1,0.1l0.1-0.1h0.3l0.1-0.1l0.3-0.2l0.1-0.1v0.1v0.1l0.1,0.1l0.1-0.1h0.1l0.1,0.1l0.3,0.2
		l0.3,0.1l0.2,0.1l0.3,0.1h0.1h0.3l0.1,0.1h0.3l0.3-0.1V38l-0.1,0.2l-0.2,0.1l-0.2,0.1l-0.1-0.1l-0.1,0.1v0.1l0.1,0.1v0.1l-0.1,0.1
		h-0.1l-0.1-0.1l-0.1-0.1l-0.1,0.1v0.1l-0.1-0.1h-0.2l-0.1,0.1v0.1l0.1,0.1V39l-0.1,0.1L40,39.1l-0.1-0.1L39.8,39l-0.1,0.1v0.1v0.1
		h-0.1l-0.1,0.1l-0.1,0.1l-0.1-0.1v-0.1h-0.1v0.1l0.1,0.1l-0.1,0.1l-0.1-0.1l-0.1-0.1l-0.1,0.1v0.1l0.1,0.1v0.1l-0.2,0.1h-0.1
		l-0.1-0.1l-0.1-0.1h-0.1v0.1l0.1,0.1v0.1l-0.1,0.1l-0.2,0.1l-0.1,0.1H38l-0.1,0.1l-0.1,0.1h-0.1l-0.1-0.1h-0.1l-0.2,0.1h-0.1
		l-0.1,0.1l-0.1,0.1H37l-0.1-0.1l-0.1-0.1h-0.1l-0.1,0.2l-0.1-0.1l-0.1-0.1h-0.1l-0.1,0.1l-0.1,0.1l-0.1-0.1v-0.1h-0.1v0.1L36,40.9
		h-0.1l-0.1,0.1V41V41h-0.1L35.6,41h-0.1v0.1h-0.1L35.4,41h-0.1v0.2l-0.1,0.1l-0.1,0.1H35L35,41.2L34.8,41l-0.1-0.1L34.6,41V41h-0.1
		l-0.1,0.1l-0.1,0.1h-0.1l-0.1-0.1l-0.1,0.1H34h-0.1l-0.1-0.1h-0.1l-0.1,0.1v0.1h-0.1l-0.1-0.1l-0.1-0.1l0.1-0.1L33.3,41l-0.1-0.1
		l-0.1-0.2v-0.1L33,40.5l-0.1-0.2l-0.1-0.1h-0.1v0.1l0.1,0.1l0.1,0.2l0.1,0.1l0.1,0.1V41L33,41.1l0.1,0.1h0.1l0.1,0.2l-0.1,0.3
		L33.1,42l-0.1,0.1L32.9,42h-0.1l-0.1,0.1l-0.1,0.2l-0.1,0.1h-0.1l-0.1,0.1v0.1v0.1l-0.1,0.1H32v0.1v0.1V43l-0.1-0.1h-0.1l0.1,0.1
		V43l-0.1,0.1h-0.1l-0.1-0.1L31.7,43v0.1l0.1,0.1l0.1,0.1l-0.1,0.1l-0.1,0.1l-0.2,0.3v0.1v0.1L31.3,44l-0.1,0.2l-0.1,0.1L31,44.2
		L31,44.2l0.1-0.1L31,44.2l-0.1,0.1v0.1v0.1v0.1l-0.3,0.3l-0.1,0.1l-0.1-0.1v-0.1l-0.1-0.1h-0.1v0.1h-0.1l-0.2-0.1L30,44.5h-0.1
		l-0.1,0.1l0.1,0.1l0.1,0.1l0.1,0.1V45L30,45.1h-0.1l-0.3,0.2l-0.1,0.2h-0.1l-0.1-0.1v-0.1l0.1-0.1l-0.1-0.1h-0.1l-0.1,0.1v0.1v0.1
		H29l-0.1,0.1l-0.1-0.1l-0.1-0.2v-0.1l0.1-0.1L28.7,45h-0.1l-0.1,0.2l-0.1,0.1v0.1l-0.1,0.1l-0.1-0.1l-0.2-0.3v-0.1l0.1-0.2l0.1-0.1
		l0.1-0.1l-0.1-0.1l-0.1-0.1l-0.1-0.1v-0.1h-0.1l-0.1,0.1L28,44.6v0.1l0.1,0.1l-0.1,0.1L28,45.1L28,45.2l-0.1,0.1h-0.1v-0.2
		l-0.1-0.1l-0.1,0.1v0.1l0.1,0.2l0.1,0.1v0.1h-0.1l-0.1,0.1l-0.1,0.1h-0.1l-0.1-0.1l-0.1,0.1L27.3,46l-0.1,0.1L27.1,46l-0.1-0.2
		L27,45.7h-0.1v0.1v0.1L26.9,46h-0.1l-0.1-0.1l-0.1-0.1h-0.1l-0.1,0.1h-0.1l-0.1,0.1v0.1l0.1,0.1v0.2l-0.1,0.3l-0.2,0.2H26l-0.1-0.1
		l-0.1-0.2l-0.1-0.1l-0.1,0.1v0.1l-0.1-0.1l-0.1-0.1l-0.1-0.1v0.1v0.1l0.1,0.2l-0.1,0.1v0.1l0.1,0.1l0.1,0.1l0.1,0.2l0.1,0.3
		l-0.1,0.2l-0.1-0.1h-0.1l-0.1,0.1h-0.1l-0.2-0.1h-0.2l-0.1,0.1l0.1,0.1l0.2,0.1h0.1l0.1,0.1l0.1,0.1l0.1-0.1h0.1v0.1l-0.1,0.1h-0.1
		h-0.1v0.1l0.1,0.1l0.1,0.1v0.2v0.1l-0.1,0.1h-0.1l-0.1-0.1L25,48.5h-0.1l-0.1-0.1l-0.1-0.1h-0.1l-0.1,0.1v0.1h0.1h0.1l0.2,0.1
		l0.1,0.1l0.1,0.1l0.1,0.1l-0.1,0.1L25,49h-0.1L24.8,49h-0.1l-0.2-0.2l-0.1-0.1h-0.1l-0.1,0.1l-0.1,0.1V49l0.1,0.1l0.2,0.1l0.1,0.1
		v0.1l-0.1,0.1l-0.1-0.1h-0.1l-0.2-0.1L24,49.1h-0.1l0.1,0.2l0.1,0.1l0.2,0.1l0.1,0.1v0.1l-0.1,0.1h-0.2L24,49.6v-0.1l-0.1-0.1h-0.1
		l-0.1,0.1v0.1l0.1,0.1v0.1v0.1l0.1,0.1h0.3l0.1,0.1l0.1,0.1l-0.1,0.1l-0.1,0.1l-0.1,0.1h-0.1h-0.6h-0.1l-0.2-0.1v-0.1v-0.1L23,50
		H23v0.1l-0.1,0.1l-0.1,0.1h-0.1l-0.1-0.1l-0.1-0.1h-0.1v0.1l0.1,0.1l0.3,0.1l0.3,0.1l0.1,0.2l0.1,0.3h-0.1H23L22.9,51l-0.3-0.2
		l-0.1-0.1h-0.1v0.1l0.1,0.1l0.2,0.1l0.2,0.2l0.1,0.1v0.1L23,51.6l0.1,0.1v0.1l-0.1,0.1v0.1L22.9,52h-0.1l-0.1-0.1h-0.1l-0.1-0.1
		h-0.1l0.1,0.1l0.1,0.1l0.2,0.1v0.1l-0.1,0.1h-0.1l-0.1-0.1h-0.1v0.1l0.1,0.1l0.1,0.1v0.1l-0.1,0.1l-0.1,0.1l-0.1-0.1l-0.1-0.1H22
		l0.1,0.1l0.1,0.1l0.1,0.1v0.1l-0.1,0.1H22l-0.1-0.1h-0.1v0.1l0.1,0.1l0.3,0.1l0.1,0.1l0.1,0.1v0.1l-0.1,0.1L22,53.3l-0.2-0.1
		l-0.1-0.1l-0.1,0.1l0.1,0.1l0.2,0.1l0.1,0.1v0.1h-0.1v0.1l0.1,0.1l0.1,0.1v0.1L22,53.9h-0.1h-0.1v0.1L22,54h0.2h0.1v0.1l-0.1,0.1
		L22,54.2h-0.1l-0.1-0.1L21.6,54l-0.1-0.1h-0.1L21.4,54l-0.1-0.1L21.2,54l0.1,0.1l0.3,0.1l0.2,0.1v0.1l-0.1,0.1v0.1l0.1-0.1h0.1
		l0.1,0.1l0.1,0.1v0.1H22L21.6,54.7L21.6,54.7L21.6,54.7L21.6,54.7z M21.4,54.8l-0.3-0.2h-0.1v0.1l0.2,0.2h0.1L21.4,54.8L21.4,54.8z
		 M37.1,37.2L37.1,37.2h0.3l0.4-0.1l0.4,0.1l0.1-0.1l0.2-0.1l0.2,0.1l0.3-0.1h0.1l0.3-0.2v-0.5l-0.1-0.1l-0.1-0.2h-0.1l-0.6,0.3
		L38,36.4l-0.1,0.2l-0.2,0.1l-0.1,0.2l-0.2,0.1V37L37.1,37.2L37.1,37.2z M22.1,53.4l0.1,0.1l0.1-0.1l-0.1-0.1L22.1,53.4L22.1,53.4
		L22.1,53.4z M23.1,51.5L23.1,51.5L23.1,51.5L23.1,51.5L23.1,51.5z M23.2,51.2v0.1V51.2L23.2,51.2L23.2,51.2L23.2,51.2z M23.3,50.9
		L23.3,50.9L23.3,50.9L23.3,50.9L23.3,50.9L23.3,50.9L23.3,50.9z M23.1,50.4l0.1,0.1h0.1l0.1,0.1h0.2v-0.1l-0.1-0.1h-0.2L23.1,50.4
		L23.1,50.4L23.1,50.4z M23.9,50.3L23.9,50.3l0.1-0.2l-0.1,0.1V50.3L23.9,50.3z M23.9,49.1L23.9,49.1l0.1,0.3l0.2,0.1l0.1,0.1
		l0.1-0.1l-0.1-0.1l-0.2-0.1L24,49.2L23.9,49.1L23.9,49.1z M25.2,46.8v0.1l0.1,0.1v0.3l0.1,0.1h0.1l-0.1-0.2V47L25.3,47L25.2,46.8
		L25.2,46.8L25.2,46.8L25.2,46.8z M26.1,46.2L26.1,46.2l0.2,0.1v-0.1l-0.1-0.1H26.1L26.1,46.2z M26.4,46L26.4,46L26.4,46L26.4,46
		L26.4,46L26.4,46z M28,45.8l0.1-0.1h0.1l0.1-0.1l-0.1-0.2l-0.1-0.1L28,45.1h-0.1l-0.1,0.1v0.1l-0.1,0.1l0.1,0.1L28,45.8L28,45.8
		L28,45.8z M28.6,45.7l-0.1-0.1l0.1-0.1l-0.1,0.1v0.1L28.6,45.7L28.6,45.7L28.6,45.7z M40.4,39.1L40.4,39.1l0.2-0.1v-0.1L40.4,39.1
		L40.4,39.1L40.4,39.1z M38.4,37.3L38.4,37.3l0.2,0.1v-0.1H38.4C38.4,37.3,38.3,37.3,38.4,37.3L38.4,37.3z M37.5,36.6L37.5,36.6h0.2
		l0.1-0.1h-0.1L37.5,36.6L37.5,36.6z M39.3,36.1v0.1l0.1,0.1l0.1-0.1v-0.1H39.3L39.3,36.1L39.3,36.1z M40.5,32.2v0.1l0.1,0.1v0.1
		l0.1,0.3l0.1,0.2l0.3,0.1l0.3,0.2l0.1,0.2l0.2,0.1h0.1l0.1,0.1l0.2,0.1l0.1-0.1v-0.1l0.1-0.1L42,33.3l-0.2-0.1h-0.1l-0.1-0.1
		l0.1-0.1l0.1-0.1l0.1,0.1l0.1,0.1h0.2l0.1,0.1l0.1-0.1l-0.1-0.2l-0.4-0.3l-0.1-0.3l-0.1-0.1h-0.2l-0.3-0.1H41l-0.1-0.1l-0.2-0.1
		L40.5,32.2L40.5,32.2z M40,32.4L40,32.4l0.1-0.2l0.1-0.1L40,32.2L40,32.4L40,32.4L40,32.4z M40.4,32l0.1,0.1h0.3l0.2,0.1l0.3,0.1
		l0.3,0.1h0.1l0.1,0.1v0.1l0.1,0.1h0.2l0.1,0.1l0.1-0.1v-0.1l-0.1-0.1l0.1-0.1l0.1-0.1l-0.3-0.2h-0.2L41.7,32h-0.3L41.1,32L40.9,32
		h-0.3H40.4C40.5,31.9,40.4,32,40.4,32L40.4,32z M39.6,31.3l0.1,0.1l0.3,0.1l0.2,0.3l0.3,0.1l0.4-0.1l0.6,0.1l0.3-0.1v-0.1l-0.3-0.1
		H41l-0.2-0.1l-0.3-0.1h-0.2l-0.1-0.1l0.1-0.1h0.1l0.3,0.3l0.4,0.1h0.1l-0.1-0.1l-0.4-0.3L40.2,31L40,31.1v0.1l-0.3,0.1L39.6,31.3
		L39.6,31.3z M42.7,31.8L42.7,31.8h0.2v-0.1L42.7,31.8L42.7,31.8L42.7,31.8z M42.9,28.8L42.8,29v0.2l0.1,0.1l0.1,0.1l0.2,0.2h0.1
		h0.3l0.2-0.1l0.1-0.2l0.1-0.1v-0.3l-0.4-0.3l-0.3,0.1L42.9,28.8L42.9,28.8z M44.8,28.7h0.1l0.1-0.1v-0.1h-0.1l-0.1,0.1V28.7
		L44.8,28.7z M43.9,27.5l-0.1,0.1v0.3l0.1,0.2l0.1,0.1l0.1-0.1V28l0.1-0.1v-0.2L43.9,27.5L43.9,27.5L43.9,27.5z M45.2,26.7v0.4
		l-0.1,0.2l0.1,0.2l0.2,0.1l0.2-0.1h0.2l0.1-0.1l0.1,0.1l0.1,0.1l0.1-0.2l0.1-0.1v-0.3L46,27.1L46,27.3v0.1l-0.1-0.1l-0.1-0.2V27
		l-0.1-0.1l0.1-0.1h0.1v-0.1l-0.1-0.1l-0.2,0.1L45.2,26.7L45.2,26.7L45.2,26.7L45.2,26.7z M45.5,23.6l-0.1,0.1v0.1l0.1,0.1V24
		l-0.1,0.1v0.3l0.1,0.2v0.3l-0.1,0.2v0.2l0.1,0.1l0.1-0.1l0.1-0.3l0.1-0.1v-0.3l-0.1-0.2l-0.1-0.4l0.1-0.2l-0.1-0.1L45.5,23.6
		L45.5,23.6z M43.9,24.1l-0.1,0.1l0.1,0.1h0.2l0.1-0.1L44.2,24L43.9,24.1L43.9,24.1L43.9,24.1z M43.7,23.7l0.1,0.1l0.1-0.1l-0.1-0.1
		L43.7,23.7L43.7,23.7L43.7,23.7z M45,20.4l0.1,0.3l0.1,0.1h0.1v-0.1l-0.1-0.1l-0.1-0.2L45,20.4L45,20.4L45,20.4z M46.2,21.2
		l0.1,0.1h0.1l0.1-0.1l-0.1-0.1v-0.2l0.1-0.1v-0.2l-0.2,0.3V21L46.2,21.2L46.2,21.2z M45.7,20L45.7,20h0.1l0.1-0.2v-0.1l-0.1,0.1
		L45.7,20L45.7,20z M45.8,19.3L45.8,19.3v0.1V19.3L45.8,19.3L45.8,19.3L45.8,19.3z M46.7,17.2l0.1,0.2v0.1l0.2-0.1L47,17v-0.2
		l0.1-0.1L47,16.7l-0.1,0.1l-0.1,0.2L46.7,17.2L46.7,17.2z M46.1,14.2L46.1,14.2l0.1-0.1h0.3l0.1-0.1v-0.3l-0.1-0.1l-0.3,0.1
		L46.1,14V14.2L46.1,14.2z M48.1,8.7l0.1-0.1l0.1-0.2l-0.1-0.3L48.3,8l-0.1-0.2l-0.1,0.1V8l0.1,0.1v0.2l-0.1,0.2V8.7L48.1,8.7z
		 M47.6,9.4L47.6,9.4l0.1-0.1V8.9l-0.1-0.1L47.5,9l-0.1,0.2L47.6,9.4L47.6,9.4z M47.2,8.8L47.2,8.8l0.2-0.1V8.5l0.1-0.1V8.2
		l-0.1-0.1l-0.1,0.1l-0.1,0.2l0.1,0.1L47.2,8.8L47.2,8.8z M36.6,1.4L36.6,1.4l0.1-0.1l0.1-0.2L36.8,1h-0.1l-0.1,0.2L36.6,1.4
		L36.6,1.4z M36.7,1.8L36.7,1.8l0.2,0.1L37,1.7V1.6h-0.1L36.7,1.8L36.7,1.8L36.7,1.8z M35.9,1.8L36,2l0.1,0.1h0.1L36.3,2l0.1-0.1
		l-0.3-0.3l-0.1-0.1L36,1.4l-0.1,0.1l-0.1,0.1l-0.1,0.1L35.9,1.8L35.9,1.8z M35.4,2v0.1l0.1,0.1l0.1-0.1V2L35.4,2L35.4,2L35.4,2z
		 M32.3,2.8L32.4,3l0.2,0.1l0.3,0.3l0.1,0.1L33,3.2V3l0.1-0.1V2.8h-0.1l-0.2-0.3h-0.1l-0.1,0.1v0.2L32.6,3l-0.1,0.1L32.4,3L32.3,2.8
		L32.3,2.8z M32.1,2.9l0.1,0.3h0.1V3L32.1,2.9L32.1,2.9L32.1,2.9z M31.2,2.9L31.2,3h0.3l0.1,0.1h0.1l0,0l-0.1-0.1l-0.1-0.1V2.7
		l-0.1-0.1l-0.1,0.1V2.9L31.2,2.9z M30.6,4.8L30.6,4.8h0.2l0.1-0.1l-0.1-0.2l-0.1-0.3l-0.1-0.1h-0.1v0.2l0.1,0.1v0.3L30.6,4.8
		L30.6,4.8z M30.8,6.7h0.3l0.1-0.1V6.4L31,6.3V6.2L31,6.1l-0.2,0.1l-0.1,0.2v0.1L30.8,6.7L30.8,6.7L30.8,6.7z M30.8,6.9v0.2l0.1,0.1
		v0.2l0.3,0.2l0.1-0.1V7l-0.1-0.2l-0.1-0.1L30.8,6.9L30.8,6.9z M28.1,5L28.1,5V4.9V4.7L28,4.7L28,4.7v0.1L28.1,5L28.1,5z M27.6,6.3
		L27.6,6.3l0.1-0.1V5.9l-0.3-0.3V5.3L27.6,5V4.7l-0.1-0.2V4.2l-0.1-0.1l-0.2,0.2v0.5L27.1,5v0.3l0.2,0.4L27.4,6L27.6,6.3L27.6,6.3z
		 M16.8,7.9L16.9,8v0.1L17,8.2V8l-0.1-0.1H16.8L16.8,7.9z M10,16.6l0.1,0.2h0.3l0.1,0.1h0.1l-0.1-0.2h-0.1l-0.1-0.2L10,16.6L10,16.5
		L10,16.6L10,16.6z M9,16.7l0.2,0.3h0.3L9.6,17l0.3-0.1l-0.3-0.2l-0.3-0.1H9.1L9,16.7L9,16.7z M16.7,25l-0.1,0.1l0.1,0.1V25L16.7,25
		L16.7,25L16.7,25z M16.7,25.9h0.1l0.1,0.1h0.3l0.1,0.1l0.1,0.1l0.1-0.1l-0.1-0.1l-0.3-0.1l-0.1,0.1l-0.2-0.1h-0.1l-0.1,0.1V25.9
		L16.7,25.9z M17,26.1L17,26.1l0.1,0.1v-0.1H17L17,26.1z M17,27.4l0.1,0.1h0.1l0.1,0.1l0.1-0.1l-0.1-0.1l-0.2-0.1L17,27.4L17,27.4
		L17,27.4z M16.9,27.9L16.9,27.9L17,28l0.1-0.1L17,27.8L16.9,27.9L16.9,27.9L16.9,27.9z M17.1,28.7L17.1,28.7l0.1-0.1l-0.1-0.1
		l-0.1-0.1v0.1V28.7L17.1,28.7z M17.4,28.9L17.4,28.9L17.4,28.9L17.4,28.9L17.4,28.9L17.4,28.9z M16.8,29L16.8,29v-0.1V29L16.8,29
		L16.8,29z M17,29L17,29h0.1H17L17,29L17,29z M17,29.2L17,29.2l0.1-0.1H17V29.2L17,29.2z M17.1,29.6L17.1,29.6L17.1,29.6L17,29.5
		L17.1,29.6L17.1,29.6L17.1,29.6z M17.2,29.7L17.2,29.7l0.1-0.1l-0.1-0.1l-0.1,0.1C17.2,29.7,17.2,29.7,17.2,29.7L17.2,29.7z
		 M16.7,30.2l0.1-0.1h0.1v-0.1h-0.2L16.7,30.2L16.7,30.2L16.7,30.2z M16.9,30.6l0.3-0.3l0.2-0.1v-0.1h-0.1l-0.2,0.1H17l-0.1,0.1
		l-0.1,0.1L16.9,30.6L16.9,30.6L16.9,30.6L16.9,30.6L16.9,30.6z M17.2,30.5L17.2,30.5l0.1-0.1v-0.1L17.2,30.5L17.2,30.5z M17.1,30.7
		h0.1v-0.1L17.1,30.7L17.1,30.7L17.1,30.7z M16.9,30.8l0.1-0.1l-0.1-0.1l-0.1,0.1V30.8L16.9,30.8L16.9,30.8z M16.5,31.5v0.1h0.1
		l0.1-0.2l0.2-0.1l0.1-0.1L17,31.2l-0.1,0.1h-0.2l-0.1,0.1C16.6,31.4,16.5,31.5,16.5,31.5L16.5,31.5z M16.4,32l0.1,0.2l0.1,0.1
		l0.1-0.1l-0.1-0.1L16.4,32L16.4,32z M20.7,55.2l0.1-0.2H21l0.1,0.1L21,55.2h-0.1H20.7L20.7,55.2L20.7,55.2z M19.7,54.6L19.7,54.6
		L19.7,54.6l0.2-0.2v-0.1h-0.1l-0.1,0.1l-0.1,0.1V54.6L19.7,54.6z M19,53.3L19,53.3l0.2,0.1l0.1-0.1v-0.1h-0.1L19,53.3L19,53.3z
		 M18.6,53.2v0.1h0.1v-0.1H18.6L18.6,53.2L18.6,53.2z M17.5,53.4L17.5,53.4L17.5,53.4l0.1,0.2l0.1-0.1l-0.1-0.1H17.5L17.5,53.4
		L17.5,53.4z M16.2,47.2L16.2,47.2l0.2-0.1l0.1-0.2L16.4,47l-0.1,0.1L16.2,47.2L16.2,47.2z M16.1,47C16.2,47,16.1,47,16.1,47
		L16.1,47l0.2-0.1l0.1-0.1h-0.1L16.1,47L16.1,47z M15.3,44.9l-0.1,0.1h0.1l0.2-0.1v-0.1L15.3,44.9L15.3,44.9L15.3,44.9z M15.2,44.7
		l0.1,0.1h0.1v-0.1l-0.1-0.1L15.2,44.7L15.2,44.7z M15.3,42.8l0.2,0.1l0.1-0.1l-0.1-0.1L15.3,42.8L15.3,42.8z M15.4,42.6L15.4,42.6
		l0.2,0.1l0.1-0.1l-0.2-0.1L15.4,42.6L15.4,42.6L15.4,42.6z M15,42.5l0.1,0.1l0.1-0.1v-0.1L15,42.5L15,42.5L15,42.5z M15.6,40.7
		L15.6,40.7v0.1h0.1l0.1-0.1v-0.1h-0.1L15.6,40.7L15.6,40.7z M17.2,40.1l0.1,0.1l0.3-0.1V40l-0.3-0.1L17.2,40V40.1L17.2,40.1z
		 M16.5,39.1L16.5,39.1l0.1,0.1l0.3-0.1l-0.1-0.1h-0.2L16.5,39.1L16.5,39.1z M17.3,39.1L17.3,39.1l0.3,0.1l0.1-0.1L17.5,39
		L17.3,39.1L17.3,39.1z M16.9,38.9l0.3,0.1h0.1l0.1-0.1l-0.1-0.1L17,38.8L16.9,38.9L16.9,38.9L16.9,38.9z M18.6,35l0.1,0.1l0.1,0.1
		l0.1-0.1L18.8,35L18.6,35L18.6,35z M18.5,34.6l-0.1,0.1l0.2,0.1h0.1l-0.1-0.2C18.6,34.6,18.5,34.6,18.5,34.6L18.5,34.6z M17.9,33.3
		h0.1l0.1-0.1l0.1-0.1V33h-0.2L18,32.9L17.9,33l-0.1,0.1L17.9,33.3L17.9,33.3z M17.9,34L17.9,34l0.3,0.1l0.1-0.2v-0.2l-0.2-0.1
		L18,33.6L17.9,34L17.9,34z M17.3,34l0.2,0.1l0.1-0.1v-0.1l0.1-0.3l-0.3,0.1l-0.1,0.1L17.3,34L17.3,34z M16.2,35l-0.1,0.1l0.1,0.2
		l0.1,0.1l0.1-0.1L16.2,35L16.2,35L16.2,35z M18.5,36.9L18.5,36.9l0.1,0.1v0.1l-0.1,0.2l0.1,0.1l0.1-0.1l0.1-0.3l0.1-0.1l-0.1-0.1
		h-0.1L18.5,36.9L18.5,36.9L18.5,36.9z M16.1,37.5l0.1,0.1l0.3,0.1l0.1,0.1l0.2,0.1l0.1-0.1l0.5-0.1h0.3l0.3-0.3L18,37.1l-0.1-0.3
		h-0.2l-0.2-0.1l-0.1-0.4L17.2,36l-0.3-0.1l-0.2-0.2h-0.3l-0.2-0.1v0.1L15.9,36v0.3l0.2,0.1l0.1,0.2L16,36.4l-0.2,0.1v0.1l-0.1,0.1
		l0.3,0.1L15.8,37L15.7,37l0.1,0.2l0.4,0.1l0.1,0.1l0.1,0.1l0.3-0.2l-0.3,0.3h-0.2L16,37.4h-0.1L16.1,37.5z"/>
</g>
</svg>
