<?xml version="1.0" encoding="utf-8"?>
<!-- Generator: Adobe Illustrator 19.2.0, SVG Export Plug-In . SVG Version: 6.00 Build 0)  -->
<svg version="1.1" id="Layer_1" xmlns="http://www.w3.org/2000/svg" xmlns:xlink="http://www.w3.org/1999/xlink" x="0px" y="0px"
	 viewBox="0 0 56 56" style="enable-background:new 0 0 56 56;" xml:space="preserve">
<style type="text/css">
	.st0{fill:#FDC414;}
</style>
<polygon id="The_Gambia" class="st0" points="2.8,36.4 5,35.3 14.8,35.3 18.1,30.9 21.4,30.9 24.7,27.7 27.9,28.7 29,29.8 
	31.2,27.7 33.4,26.6 36.7,29.8 41.1,29.8 45.4,30.9 50.9,33.1 54.2,33.1 55.3,30.9 54.2,28.7 53.1,28.7 45.4,24.4 42.1,24.4 
	36.7,21.1 32.3,21.1 29,20 24.7,22.2 18.1,26.6 15.9,26.6 13.7,27.7 6.1,27.7 6.1,30.9 10.5,33.1 14.8,32 12.7,34.2 7.2,34.2 
	3.9,29.8 0.6,33.1 2.8,35.3 "/>
</svg>
