<?xml version="1.0" encoding="utf-8"?>
<!-- Generator: Adobe Illustrator 19.2.0, SVG Export Plug-In . SVG Version: 6.00 Build 0)  -->
<svg version="1.1" id="Layer_1" xmlns="http://www.w3.org/2000/svg" xmlns:xlink="http://www.w3.org/1999/xlink" x="0px" y="0px"
	 viewBox="0 0 56 56" style="enable-background:new 0 0 56 56;" xml:space="preserve">
<style type="text/css">
	.st0{fill:#FDC414;}
</style>
<path id="Greece" class="st0" d="M41.5,2h-0.8l-1.6,1.2v1.6L39.5,6l-0.8,0.8H36l-1.2,0.4l-1.2-0.8h-1.2l-0.8,0.8h-1.2V6h-1.6
	l-1.6-0.4l-1.2,1.2l-1.6,0.4h-2l-0.8-0.4L21,7.6h-1.2l-1.6,0.8h-3.2l-1.2,0.8v0.4l-1.6,0.8L10,11.9l-0.4,1.6l-0.8,2l-2.4,0.8v1.6
	l-0.8,2l-0.8,0.4l0,0v2l2.4,1.6l1.2,2h0.8v0.4l1.6,2.4l0.4,1.6l0.8,0.4l1.2-1.2l0.8,1.2h1.6l0.8-0.8h1.2l1.6,0.8l0.8-0.4v0.8h0.8
	l0.8,0.4l1.2,0.4L21.8,32L21,32.8L20.2,32L19,31.6L16.7,30l-1.2,0.4l-1.2,0.8l-1.2-0.4L12.3,32h-0.8l-0.4,1.2l1.2,1.6l1.2,0.8
	l1.2,1.2v0.8l-0.4,0.8v1.2l1.2,1.6l0.8,0.8l0.4-0.8l-0.4-0.8l0.4-1.2l0.4,1.2l1.6,0.8l0.4,0.8L18.6,43l0.8,0.8v-1.6l0.8-1.6h1.2
	l0.4,1.2l2,1.2L23,41.9v-0.8l-0.8-1.2l-0.8-2l-0.8-1.2v-0.4h0.8l1.2,0.8l-0.4,0.4l0.4,0.4l0.8-0.8l1.6,0.4v-0.4l-0.4-0.4v-0.4h-0.4
	L23,35.6v-0.8L21.8,34l1.2-0.4h1.2l0.8-0.4l1.6,1.2v0.4h1.2l0.4-0.8l-1.2-1.6l0.4-1.6L26.9,30l-2.8-2l-0.8-0.4L23,26.9h-0.8
	l-0.4-0.8h-1.2l-1.2-1.2h1.2l0.8-0.8v-0.8l-1.2-0.4l0.8-0.8v-0.8l0.8,0.4l0.8,0.8l-0.4,0.8v0.8H23l0.4-1.6l-0.8-0.8l-2-2.4l-0.8-0.8
	v-0.8l-1.6-1.2l0.4-0.8l-0.4-2.4l0.8-1.2l1.6-0.4v1.2h-0.8v0.8l2,0.8v1.6L23,17h1.2l-0.8-0.8L23,15.4v-0.8l1.2,0.4l0.8,1.2l0.8,0.4
	l0.4-0.8L25.3,15l-0.8-0.4v-0.8h2.4l0.8,0.8l0.4-0.4v-0.8h-1.2l-1.2-1.2l0.8-0.8l1.2,0.4l0.8-0.4l0.4-1.6l0.8-0.4l1.2,1.2h1.2
	l1.2-1.2V8.7h0.4l0.8,0.8h2.4l2,0.4l1.2-0.4L40.7,8l-0.4-1.2L41.9,6V4.4L40.7,4L41.5,2L41.5,2z M27.7,50.1l-0.4-0.8v0.8l-0.4,0.8
	v0.8l0.8,0.4l2-0.4l0.8,0.4l0.8-0.4l1.2,0.4l1.2,0.8v0.8h1.6l1.2-0.8H38h2.4h1.6l0.8-0.4l0.4-0.8l-0.4-0.8v-0.4l-0.4,0.4v0.8
	l-0.8,0.8l-0.4-0.4l-0.8,0.4h-0.8v-0.4l-0.4-0.8h-0.8l-1.6-0.4l-1.2-0.4H34l-1.6,0.8l-1.2,0.4l-0.8-0.4l-0.4-0.4h-0.8l0.4-0.4
	l-0.4-0.8h-0.8v0.4h0.4l-0.4,0.4L27.7,50.1l-0.4-0.4h-0.4v0.4v0.8L27.7,50.1L27.7,50.1z M2.9,19v1.2L3.7,21l0.8,0.4v0.4l-0.4,0.4
	l-1.2-0.4l-1.2-1.2v-0.4l-0.8-0.4V19l1.2-0.4L2.9,19L2.9,19z M8,27.7L8,27.7l0.4-1.6h0.4v1.2l-0.4,0.4H8L8,27.7L8,27.7z M8,29.6
	v-1.6l0.8,0.4l0.4,0.8v0.4L9.6,30v0.4l0.4,0.4l-0.4,0.8l-0.8-0.4H8v-0.8L7.6,30v0.8l-0.4,0.4l-0.4-0.4v-1.2l0.8-0.4L8,29.6L8,29.6z
	 M10.4,34l0.4,0.4H10v0.4H9.2L8.4,34v-0.8l0.4-0.4l0.8,0.4L10.4,34L10.4,34z M48.6,47.8L48.6,47.8V47V47.8L48.6,47.8L48.6,47.8z
	 M48.2,50.9l-0.4-1.2V49l0.8-0.8V49l0.4,0.8L48.2,50.9L48.2,50.9L48.2,50.9z M51.8,47l-0.4-0.4l0.4-0.8l-0.4-0.4v-0.8l1.2-1.2
	l1.6-0.4l0.8-0.4v0.8l-0.4,0.4l-0.4,0.8L53.7,45v0.4h-0.4l-0.8,0.8L51.8,47L51.8,47L51.8,47z M43.5,43l-0.4-0.4l0.4-0.4l0.8-0.4
	l0.4,0.4L44.3,43C44.3,42.6,43.5,43,43.5,43L43.5,43z M43.1,34.4l1.2-0.8h0.8l0.8,0.8l0.4-0.4h0.4v0.4l-0.8,0.4l-0.4,0.4h-0.8
	l-0.4-0.4L43.1,34.4l-0.4,0.4L43.1,34.4L43.1,34.4z M41.1,27.7l0.4,1.6l-0.4,1.2l-0.8,0.4l-0.8-0.4V30l0.4-0.4v-0.8l-0.8-0.8v-0.4
	l0.8-0.4L41.1,27.7L41.1,27.7L41.1,27.7z M39.5,24.1l-0.8-0.8l0.4-0.8l1.6-0.4l0.8-0.4l1.2-0.4l0.4,0.4l-0.4,0.8h0.4l0.4,0.8v1.2
	h-1.2l-0.8-0.4l0.4-0.4l0.4-0.4v-0.8h-0.8l-0.4,0.8v0.8L39.5,24.1L39.5,24.1L39.5,24.1z M36.4,12.7l0.4-0.4h0.8l0.8,0.4v0.4
	l-0.8,0.4L36.4,12.7L36.4,12.7z M33.6,16.2h0.8l0.4,0.4l0.8-0.4l0.8,0.4l-0.8,0.8v1.2l-0.8-0.4h-0.4L34,17.8L33.6,17V16.2L33.6,16.2
	z M30.9,10.7h0.4l0.8,0.4v0.8l-0.8,0.4l-0.4-0.4h-0.8L30.9,10.7L30.9,10.7z M25,23.3L25,23.3h1.2l0.4,0.8l-0.4,0.4L25,23.3L25,23.3z
	 M23.8,23.3l0.4-0.4l0.4,0.4l-0.4,0.8L23.8,23.3L23.8,23.3z M30.9,24.5h0.4l0.4,0.4l0.8,0.4v1.2h-0.4l-0.4-0.8h-0.4L30.9,24.5
	L30.9,24.5z M41.1,36.3l-0.4-0.4v-0.8l1.2-0.4l-0.4,0.8L41.1,36.3L41.1,36.3z M30.9,42.6l0.4-0.8h0.8v0.8L31.3,43L30.9,42.6
	L30.9,42.6z M31.3,38.7l0.4-0.4v0.8L31.3,38.7L31.3,38.7z M31.3,37.5v-1.2h0.4v0.4C31.7,37.5,31.3,37.5,31.3,37.5L31.3,37.5z
	 M30.5,36.3l-0.4-0.4l0.4-0.4l0.4,0.8H30.5L30.5,36.3z M36,39.9l-0.4-0.4l0.4-0.8h0.8l0.4,0.8L36,39.9L36,39.9z M37.6,39.5l-0.4-0.8
	l0.8-0.8h0.4v0.8L37.6,39.5L37.6,39.5L37.6,39.5z M37.2,37.1v-0.4h0.4L37.2,37.1L37.2,37.1z M35.6,35.6l0.4-0.4l0.4,0.4v0.4
	L35.6,35.6L35.6,35.6L35.6,35.6z M32.8,32.8h0.4l0.4,0.8l1.2,0.8v0.8h-0.4L33.2,34l-0.4-0.4V32.8L32.8,32.8z M21.4,25.3l0.8-0.8
	l1.6-0.4l0.8,1.2l1.2,0.4l1.2,0.4v0.4h0.8v-0.4l1.6,1.6l0.4,0.8v0.4v0.8v0.8l0.8,0.8l0.4-0.4h1.2L31.7,32l-0.4-0.4L30.9,32l-0.8-0.8
	l-0.4-0.8v-0.8l-0.4-0.4h-1.2l-0.4-0.4h-0.8l-1.2-0.8l-0.4-0.8h-0.8l-0.4-0.8l-0.4-0.4l-0.4-0.4L23,25.3L21.4,25.3L21.4,25.3
	L21.4,25.3z M23,43.8L23,43.8l0.4,0.4l0.8,0.8l-0.4,0.8L23,45.4v-0.8l-0.4-0.4L23,43.8L23,43.8z M23,42.6l0.4,0.4H23V42.6z"/>
</svg>
