<?xml version="1.0" encoding="utf-8"?>
<!-- Generator: Adobe Illustrator 19.2.0, SVG Export Plug-In . SVG Version: 6.00 Build 0)  -->
<svg version="1.1" id="Layer_1" xmlns="http://www.w3.org/2000/svg" xmlns:xlink="http://www.w3.org/1999/xlink" x="0px" y="0px"
	 viewBox="0 0 56 56" style="enable-background:new 0 0 56 56;" xml:space="preserve">
<style type="text/css">
	.st0{fill:#FDC414;}
</style>
<polygon id="Guinea-Bissau" class="st0" points="0.8,17.9 5.3,20.1 11,16.7 22.3,17.9 25.7,13.3 32.5,11.1 48.4,11.1 52.9,12.2 
	54.1,17.9 52.9,20.1 52.9,26.9 55.2,29.2 54.1,31.5 51.8,33.7 45,34.9 40.5,38.3 37.1,39.4 34.8,42.8 30.3,43.9 30.3,43.9 
	30.3,40.5 22.3,41.7 26.9,37.1 24.6,36 25.7,34.9 24.6,32.6 21.2,32.6 20.1,31.5 29.1,31.5 30.3,30.3 25.7,26.9 21.2,28.1 
	16.7,30.3 14.4,29.2 14.4,28.1 9.9,26.9 7.6,24.7 9.9,21.3 7.6,21.3 1.9,21.3 0.8,19 "/>
</svg>
