<?xml version="1.0" encoding="utf-8"?>
<!-- Generator: Adobe Illustrator 19.2.0, SVG Export Plug-In . SVG Version: 6.00 Build 0)  -->
<svg version="1.1" id="Layer_1" xmlns="http://www.w3.org/2000/svg" xmlns:xlink="http://www.w3.org/1999/xlink" x="0px" y="0px"
	 viewBox="0 0 56 56" style="enable-background:new 0 0 56 56;" xml:space="preserve">
<style type="text/css">
	.st0{fill:#FDC414;}
</style>
<polygon id="Honduras" class="st0" points="19.6,40.7 20.6,40.1 22.7,40.1 23.3,39.1 23.8,37 23.8,35.4 23.8,33.8 25.9,33.8 
	29.1,32.2 30.7,32.7 31.7,33.3 32.8,33.3 33.8,33.8 34.4,32.7 35.9,32.2 37.5,30.6 38.6,30.1 38.6,29 39.6,26.9 41.2,26.9 
	41.7,25.3 42.3,25.3 43.3,26.4 43.9,26.9 45.4,26.9 46.5,26.9 47,25.9 48.1,25.9 49.7,24.8 50.7,24.3 51.2,23.2 51.8,23.2 
	52.8,23.2 52.8,23.8 54.4,23.8 54.9,23.2 55.5,22.7 54.9,22.2 53.4,20.6 51.2,19.5 51.2,20.1 52.3,21.1 50.2,21.1 48.1,21.1 
	47.5,20.6 46,20.1 44.4,20.1 44.9,19.5 46,19 45.4,18.5 46.5,18.5 47.5,18.5 49.7,19 50.2,19 48.6,18 46.5,16.9 45.4,16.4 
	43.9,16.9 42.8,16.4 42.8,17.4 41.7,16.9 38,16.4 34.4,16.4 32.2,14.3 30.7,13.7 30.1,14.8 31.2,15.3 29.6,15.8 29.1,16.4 
	27.5,15.8 24.9,16.4 21.2,16.4 16.4,16.4 14.3,17.4 13.2,16.9 12.7,17.4 11.7,18 11.1,19.5 9,21.1 8,21.1 5.3,23.2 4.3,24.3 
	4.8,25.9 3.7,28 1.6,29.6 1.6,30.1 1.6,30.6 1.1,30.6 0.6,35.4 1.6,37 2.2,37 5.3,38 8,39.6 8,39.1 6.9,38 7.4,38 9,38 10.1,39.6 
	11.1,40.7 14.8,40.7 15.9,39.1 15.4,38 15.9,37.5 16.9,38 17.5,38.5 18,38.5 18.5,38 19,38.5 19,39.6 "/>
</svg>
