<?xml version="1.0" encoding="utf-8"?>
<!-- Generator: Adobe Illustrator 19.2.0, SVG Export Plug-In . SVG Version: 6.00 Build 0)  -->
<svg version="1.1" id="Layer_1" xmlns="http://www.w3.org/2000/svg" xmlns:xlink="http://www.w3.org/1999/xlink" x="0px" y="0px"
	 viewBox="0 0 56 56" style="enable-background:new 0 0 56 56;" xml:space="preserve">
<style type="text/css">
	.st0{fill:#FDC414;}
</style>
<path id="Croatia" class="st0" d="M53,23.5v-1.9l1.9-0.6h0.6v-0.6l-1.9-0.6l-1.2-0.6l-0.6-2.5l-1.2-3.1l-1.2-0.6L48,14.8l-3.7-1.2
	l-5-0.6L38,11.7l-1.9-0.6l-3.7-3.7l-1.9-0.6v0.6h-4.4l-6.2,3.1l-0.6,2.5l-3.1,1.2l-0.6,3.1h-1.9L10,15.4L8.1,16l-2.5,1.9H1.9l0,0
	l0.6,3.7L5,23.5v0.6l0.6,0.6L8.1,21l0.6-1.9l1.2-1.9h2.5l0.6,1.9l1.9,1.2l0.6,3.1l1.2,2.5l3.1,2.5h0.6l1.9,1.9l-1.2-0.6h-1.9
	l-0.6,1.9l0.6,1.9h1.9l1.9,1.9l1.9,0.6l0.6,1.9l1.2,1.2l2.5-0.6l4.4,0.6l2.5,1.2l5,5h-1.2l-2.5-1.2l1.2,1.2l1.9,0.6l0,0l0.6-1.9
	l-6.9-7.5l-8.1-6.9v-1.2l0.6-0.6L25.5,26l-0.6-1.9l-1.9-2.5h-1.2v-1.2l0.6-0.6v-2.5l0.6-0.6l2.5,1.9l0.6,1.2h1.2v-1.2h1.9h1.2
	l1.2-1.2l1.2,0.6l0.6-0.6l1.2,0.6l0.6,1.9l1.2-0.6l2.5,0.6l1.2-0.6l0.6,0.6h2.5l1.9,0.6h1.2l1.9,1.9L53,23.5L53,23.5L53,23.5z
	 M32.4,46.6h3.1l1.2,1.2h-3.1L32.4,46.6L32.4,46.6z M29.9,44.7h5L33,46L29.9,44.7L29.9,44.7z M29.9,42.2h3.7l0.6,0.6l-1.9,0.6h-1.9
	L29.9,42.2L29.9,42.2z M16.2,29.7h1.2l1.2,1.9l-0.6,0.6L16.2,29.7L16.2,29.7z M14.9,27.3l1.9,1.9l-1.9-0.6V27.3L14.9,27.3z
	 M14.9,32.9l1.9,1.9l0.6,1.9L14.9,32.9L14.9,32.9z M12.5,29.7l1.2,0.6v1.2L12.5,29.7L12.5,29.7z M9.3,24.8l2.5,1.9l0.6,2.5h-0.6
	L10,27.3l0.6-0.6L9.3,24.8L9.3,24.8z M10.6,20.4l3.1,4.4l-1.2,0.6l-0.6-1.2l-1.2-0.6V21C10,21.6,10.6,20.4,10.6,20.4z"/>
</svg>
