<?xml version="1.0" encoding="utf-8"?>
<!-- Generator: Adobe Illustrator 19.2.0, SVG Export Plug-In . SVG Version: 6.00 Build 0)  -->
<svg version="1.1" id="Layer_1" xmlns="http://www.w3.org/2000/svg" xmlns:xlink="http://www.w3.org/1999/xlink" x="0px" y="0px"
	 viewBox="0 0 56 56" style="enable-background:new 0 0 56 56;" xml:space="preserve">
<style type="text/css">
	.st0{fill:#FDC414;}
</style>
<path id="Haiti" class="st0" d="M47,46v-2.3l4.6-4.6v-2.3v-3.5l-1.2-3.5v-1.2l2.3-1.2L54,24l-1.2-2.3l2.3-3.5v-2.3l0,0l-3.5-1.2
	l-3.5,1.2l-3.5-3.5l-8.1-1.2l-2.3,1.2l-3.5-1.2h-7l-1.2,2.3l3.5,2.3l9.3,3.5l-1.2,2.3l1.2,2.3l-1.2,4.6l1.2,3.5l3.5,1.2l3.5,3.5
	l-1.2,2.3h-7l-1.2,1.2l-3.5-1.2h-4.6l-3.5-1.2l-4.6,2.3v-2.3l-1.2-1.2l-5.8,1.2l-3.5-2.3l-3.5,2.3l-1.2,2.3l1.2,3.5h4.6l4.6,4.6
	l2.3,1.2V46l2.3-1.2h8.1l3.5,2.3h10.4l2.3-1.2l3.5,1.2L47,46L47,46z M33.1,7.7l3.5-2.3l5.8,3.5h-7L33.1,7.7L33.1,7.7z M26.1,29.8
	l3.5-1.2l3.5,2.3l1.2,2.3l-4.6-2.3L26.1,29.8z"/>
</svg>
