<?xml version="1.0" encoding="utf-8"?>
<!-- Generator: Adobe Illustrator 19.2.0, SVG Export Plug-In . SVG Version: 6.00 Build 0)  -->
<svg version="1.1" id="Layer_1" xmlns="http://www.w3.org/2000/svg" xmlns:xlink="http://www.w3.org/1999/xlink" x="0px" y="0px"
	 viewBox="0 0 56 56" style="enable-background:new 0 0 56 56;" xml:space="preserve">
<style type="text/css">
	.st0{fill:#FDC414;}
</style>
<path id="Indonesia" class="st0" d="M55.1,26.6L55,31.1l-0.1,0.3v0.2l0.1,0.1l-0.1,2.9h-0.1l-0.3-0.1l-0.3-0.4l-0.1-0.2v-0.1
	l-0.2-0.2l-0.1-0.1l-0.1-0.2l0.1-0.2v-0.3l-0.1,0.2l-0.2,0.1h-0.4L53,33.3h-0.2l-0.1-0.1l-0.3,0.2l-0.2-0.2l0.1-0.1l0.1-0.2v-0.2
	l0.1-0.1l0.1-0.3l-0.2-0.1l-0.2-0.2h0.2h0.1l0.2-0.1h0.2l-0.2-0.1l-0.2,0.1l-0.2-0.1L52.1,32l0.1-0.2h0.1h0.2l-0.1-0.2L52,31.4
	l-0.2-0.2l-0.1-0.2l0.1-0.2l-0.3-0.3v-0.1l0.2-0.2h-0.2l-0.2-0.1l0.1-0.1l-0.1-0.1l0.2-0.2L51.2,30l-0.1-0.1L51,30l-0.1-0.1l0.2-0.2
	L51,29.8h-0.2l-0.3-0.2l-0.1-0.2l-0.3-0.1h-0.2l-0.7-0.2l-0.8-0.2h-0.4l-0.3-0.2l-0.1-0.1v-0.1l-0.2-0.1v-0.2h0.2h0.1v-0.1h-0.2
	l-0.2,0.1l-0.2-0.1l-0.1-0.1H47l-0.1,0.2l-0.1-0.2l-0.1-0.1l-0.1,0.1l-0.1,0.1l-0.2-0.2l-0.1-0.3l-0.1-0.2l0.2-0.2v-0.3l-0.2,0.2
	l-0.1,0.2v0.2l-0.2,0.1L46,28.1v0.2l-0.2,0.3l-0.2,0.1l-0.2-0.1l-0.2-0.4v-0.2l0.1-0.1v-0.2v-0.2L45,27.8L45,27.7l-0.2-0.3l-0.2-0.1
	l-0.3-0.1l-0.1-0.2l0.2-0.2h0.3l0.1,0.1H45l0.2,0.1l0.2-0.2l0.1-0.3l0.2-0.1l0.4,0.2l0.2,0.2l0.1-0.2l0.2-0.2l0.2,0.1v-0.2l-0.1-0.2
	l-0.6-0.1l0.1,0.2h-0.2h-0.2l-0.4,0.1L45,26.3l-0.2,0.1l-0.2-0.1l-0.2,0.1h-0.2l-0.2-0.2L44,25.9l0.1-0.1l-0.2-0.2l-0.3-0.2
	l-0.2-0.2l-0.1,0.1l-0.2,0.1l-0.3-0.1l0.1-0.2l0.3-0.2v-0.2l-0.1-0.2l0.2-0.2h0.3l0.2-0.2l0.2-0.1l0.3-0.2l0.1-0.1l0.4-0.1l0.6,0.2
	l0.4,0.2h0.4h0.4l0.1,0.1l-0.1,0.2V25l0.2,0.2l0.1,0.2l-0.2,0.2l-0.2,0.2l0.1,0.3v0.5l0.2,0.3l0.2,0.2h0.1v-0.3l0.1-0.2l0.2,0.1v0.2
	l0.1,0.2l0.1-0.1l0.1,0.2l0.3,0.2l0.2,0.2h0.2l0.2-0.1l0.1-0.2l0.2-0.1l0.2-0.1v-0.3l0.2-0.2H49l0.2-0.2v-0.2l0.1-0.2l0.1,0.1h0.2
	l0.2-0.1l0.4-0.1l0.1-0.2l-0.1-0.2l0.1-0.2l0.6-0.4h0.3l0.2,0.2l0.4,0.2l0.5,0.1l0.2,0.2h0.2l0.3,0.1l0.7,0.3h0.2h0.2l0.3,0.1h0.2
	l0.2,0.2v0.1v0.2l0.2,0.1L55.1,26.6L55.1,26.6L55.1,26.6z M41,23.3l0.5,0.2v0.2l-0.3-0.2L41,23.3L41,23.3z M43.5,23.8l0.2,0.1
	l0.2-0.1l-0.1-0.2l-0.3-0.2h-0.4l-0.2,0.2h-0.2l-0.1,0.1l0.1,0.1l-0.2,0.1l0.4,0.1l0.2,0.1h0.2V24l-0.2-0.1v-0.1l0.1-0.1L43.5,23.8
	L43.5,23.8z M43.1,24.5l-0.2-0.1l-0.2,0.1l0.2,0.1L43.1,24.5L43.1,24.5z M43.2,24.4l-0.1,0.2l-0.1-0.1L43.2,24.4L43.2,24.4z
	 M43.2,24.5l-0.2,0.2V25l0.2,0.1l0.1-0.1l0.1-0.4L43.2,24.5L43.2,24.5z M36.6,18.8l0.2,0.3l0.1,0.2l-0.1,0.2l-0.2-0.2L36.6,19
	L36.6,18.8L36.6,18.8z M38,17.9l0.1,0.3v0.2l0.2-0.1l0.1-0.2l-0.1-0.2H38L38,17.9L38,17.9z M38,18.5h0.2l0.1,0.2h-0.1
	C38.1,18.7,38,18.5,38,18.5L38,18.5z M39.9,20.7l0.1,0.4l0.2-0.2h0.2l0.2-0.2l-0.1-0.2l-0.2-0.1l-0.2,0.1L39.9,20.7L39.9,20.7z
	 M39.7,23.8l0.1,0.3l0.3,0.3l0.1,0.1h-0.1v0.2L40,24.5l-0.2-0.1l-0.2-0.4l-0.2-0.2l-0.2-0.3l0.1-0.2l-0.1-0.2v-0.2L39,22.9l0.1-0.2
	l0.1-0.2L39,22.3l-0.2-0.2l0.1-0.3l0.2-0.1v-0.3l0.1-0.4l0.4-0.4h0.2v0.2l-0.2,0.2l0.1,0.2l0.2,0.1v0.4L39.8,22h-0.2l-0.2,0.2
	l0.1,0.2h0.2l0.1-0.2l0.2-0.1l0.1-0.2h-0.2v-0.2l0.4-0.2l0.4-0.2l0.2,0.2v0.2l-0.2,0.5l-0.5,0.2l-0.2,0.2l0.1,0.2h0.2l0.3,0.2
	l0.1,0.2l0.1,0.1h-0.2l-0.2-0.2h-0.3L39.8,23l-0.2,0.1v0.5L39.7,23.8L39.7,23.8z M38.7,24.4l0.1,0.2l-0.2-0.1L38.7,24.4L38.7,24.4
	L38.7,24.4z M38.7,23.9h-0.2v0.2l0.2,0.1l0.1-0.2L38.7,23.9L38.7,23.9z M39,24L39,24l-0.1,0.2l0.2,0.2h0.2l0.2,0.2l0.1-0.1l-0.1-0.1
	l-0.2-0.1v-0.2l-0.2-0.1L39,24L39,24z M38.9,25.4l0.3-0.2h0.3l0.3,0.3l-0.1,0.2h-0.2h-0.2h-0.2L39,25.6L38.9,25.4L38.9,25.4z
	 M42.3,25.5l-0.5,0.1l-0.2,0.1l0.1,0.1l0.4,0.2l0.3-0.1l-0.1-0.1L42.3,25.5L42.3,25.5L42.3,25.5z M40.2,27.8h0.2v0.1L40.2,27.8
	L40.2,27.8L40.2,27.8z M40.1,27.8h0.2v0.1L40.1,27.8L40.1,27.8L40.1,27.8z M39.5,28l0.3-0.1l0.2-0.1l0.2,0.1l-0.2,0.2l-0.1-0.1
	l-0.2,0.1L39.5,28L39.5,28z M39.4,27.2l-0.2,0.2h0.2V27.2L39.4,27.2z M39.6,27h-0.2l0.1,0.1L39.6,27L39.6,27L39.6,27z M39.7,27.7
	l0.2-0.4l0.2,0.2l0.1,0.2h0.2l0.2-0.2h0.2l0.2,0.2l0.5,0.1l0.1-0.2h0.2l0.5,0.3l0.2,0.1l0.2,0.3h0.2l0.1-0.2l-0.1-0.5l-0.5-0.5
	l-0.5-0.1l-0.2-0.2h-0.2L41.2,27H41l-0.2-0.1h-0.4H40l-0.1,0.2v0.2l-0.2,0.1l-0.1,0.2L39.7,27.7L39.7,27.7L39.7,27.7z M37.4,27.3
	l0.2,0.1l0.2-0.2h0.5l0.3,0.2v0.2l0.2,0.2v0.2h-0.2l-0.2,0.2H38h-0.3l-0.1-0.1L37.2,28l-0.2-0.2v-0.3L37.4,27.3L37.4,27.3z
	 M30.8,32.1L30.7,32l-0.1,0.1H30.8L30.8,32.1L30.8,32.1z M30.6,30.5l0.2,0.4l-0.1,0.2l-0.1,0.2l-0.1-0.2L30.5,31l0.1-0.2v-0.2
	L30.6,30.5L30.6,30.5z M37.2,26v0.2l0.2,0.3v0.1l-0.1-0.1l-0.1-0.3V26L37.2,26L37.2,26z M36.5,25.7l0.2-0.1l0.2,0.1l0.2-0.1l0.5,0.1
	l0.2,0.1l-0.3,0.1L36.8,26l-0.2-0.1v-0.1L36.5,25.7L36.5,25.7z M35.4,25.7l0.2-0.2h0.2l0.2-0.1l0.2,0.1l0.2,0.1l0.2-0.1l0.2,0.1v0.2
	h-0.2l-0.2,0.1L36,25.8L35.7,26l-0.2-0.1L35.4,25.7L35.4,25.7L35.4,25.7z M33.2,30l0.2-0.4l0.1-0.4v-0.4l0.1-0.1h0.2V29l0.1,0.2v0.1
	l-0.1-0.1l-0.1,0.1l-0.2,0.1l-0.1,0.1l0.1,0.2l0.2,0.1l0.1,0.1l-0.1,0.1l-0.2,0.1L33.4,30L33.2,30l-0.2,0L33.2,30L33.2,30z
	 M32.7,29.8L32.7,29.8l0.1,0.2H33v-0.1h0.1v-0.2l0.2-0.2v-0.2l-0.1-0.2l-0.2,0.1l-0.2,0.2l0.1,0.2L32.7,29.8L32.7,29.8z M32.2,29.6
	v0.2l-0.1,0.1l0.1,0.2l0.1,0.1l0.2-0.2l-0.1-0.2L32.2,29.6C32.3,29.6,32.2,29.6,32.2,29.6L32.2,29.6z M33.9,25.8l-0.2,0.1l0.2,0.1
	C33.8,25.9,33.9,25.8,33.9,25.8L33.9,25.8z M34.1,25.7L34.1,25.7L34.1,25.7L34.1,25.7L34.1,25.7z M34.4,25.4l-0.2,0.1l0.2,0.1V25.4
	L34.4,25.4z M33.5,25.1l0.3-0.2h0.3V25L34,25.2l0.2-0.1l0.1-0.2l0.2,0.2l-0.1,0.2l-0.2,0.1L34,25.3l-0.1,0.2l-0.2-0.2l-0.2,0.2
	l-0.2-0.2L33.5,25.1L33.5,25.1z M32.3,23.9l0.2,0.1v-0.2C32.4,23.9,32.3,23.9,32.3,23.9L32.3,23.9z M32,24L32,24l0.2,0.1l-0.2,0.1
	L32,24L32,24z M30.6,22.9l0.3-0.1l0.3,0.2h0.4l0.5-0.2h0.3l0.1,0.2h0.2l0.2-0.1l0.5,0.1h0.3l0.1-0.1H34l0.2,0.1l0.1,0.2l0.2,0.1
	l0.9-0.2l0.4-0.2l0.1-0.2H36l0.2-0.2l0.2-0.1l0.1-0.2l0.1-0.2l0.1-0.1l-0.1-0.2v-0.2l-0.3-0.1l-0.2,0.1l-0.1,0.2l-0.2,0.2V22
	l-0.2,0.2h-0.2l-0.2,0.2l-0.3,0.1l-0.5-0.1l-0.5-0.1l-0.1,0.2h-0.1l-0.2-0.2h-0.2h-0.2l-0.2-0.1L32.6,22l-0.2,0.1L32.3,22L32,21.8
	l-0.4-0.1h-0.2V22l-0.2,0.2l-0.1,0.2l-0.2,0.2l-0.3-0.1l-0.3,0.1l-0.1,0.2v0.1L30.1,23v0.4l0.1,0.2V24l-0.1,0.2l0.2,0.3v0.2
	l-0.1-0.2l-0.1-0.2l-0.2,0.1l-0.2,0.2l-0.2,0.1l-0.1,0.2v0.3l-0.1,0.2l0.1,0.5L29.5,26v0.2l-0.2,0.1v0.3L29,26.8L29,27.1l0.1,0.1
	L29,27.3l0.2,0.4l0.2,0.2l0.1-0.1h0.2l0.2-0.1l0.2,0.1l0.1,0.3l0.2,0.5L30,28.7L29.9,29l-0.2,0.2v0.5v0.4h0.2l0.2,0.1h0.2l0.1-0.2
	l0.2,0.1h0.2l0.2,0.1l0.1-0.2v-0.2l-0.2-0.1v-0.3l0.2-0.2l0.1-0.4l-0.1-0.4L31,28.4l0.2-0.4l0.1-0.3l-0.1-0.4l-0.2-0.2v-0.1l0.2-0.2
	l0.1-0.2l0.2-0.1l0.2,0.1V27l0.1,0.2v0.2l-0.2,0.2l-0.1,0.2l0.2,0.2H32l0.2,0.2l0.3,0.2l0.1,0.2h-0.1l-0.1,0.5l0.1,0.2l0.2,0.1
	l0.2-0.1l0.3,0.1h0.2v-0.1l-0.1-0.2l0.2-0.2l0.2-0.1l0.3-0.2h0.4l0.2-0.2l0.1,0.1h0.2l0.1-0.2v-0.1h-0.3l-0.1,0.1h-0.1h-0.2v-0.2H34
	v-0.1h-0.1l-0.1,0.1v-0.2l-0.2-0.1l-0.1-0.2l0.2-0.2l0.1-0.1h0.1l-0.1-0.2h0.1l0.1-0.2l-0.1-0.1l-0.2-0.1l0.1-0.1v-0.2L33.5,27h-0.2
	l-0.1-0.2L33,26.4l-0.2-0.2L32.6,26V26h0.1l0.1,0.2H33l0.2-0.2l0.1-0.2l0.5-0.2l0.4-0.3l0.2-0.3l0.2-0.1v-0.2l0.2-0.1l0.2,0.2H35
	l0.2-0.3v-0.2L35,24.4l-0.5,0.1l-0.2,0.2h-0.4l-0.2,0.1l-0.2,0.2h-0.2L33.2,25l-0.2-0.2l-0.2-0.1L32.5,25l-0.2,0.4l-0.2,0.2h-0.2
	l-0.1-0.1l-0.3-0.4l-0.3-0.3l-0.2-0.5v-0.5l0.2-0.5L30.6,22.9L30.6,22.9z M30.8,15.4l-0.2,0.2l0.2,0.1V15.4L30.8,15.4L30.8,15.4z
	 M31.1,16.1h0.2l0.1-0.1l0.1,0.1l0.2-0.1V16l-0.3-0.1L31.1,16L31,16L31.1,16.1L31.1,16.1z M29.3,17.3l-0.1,0.2l0.1,0.2v-0.2V17.3
	L29.3,17.3z M29.7,17.1l0.4-0.3h0.2v0.2l-0.3,0.2L29.7,17.1L29.7,17.1L29.7,17.1z M27.3,18.4l0.1,0.2L27.3,18.4L27.3,18.4L27.3,18.4
	z M27.3,18.3L27.3,18.3l0.1,0.2h0.2v-0.1L27.3,18.3L27.3,18.3z M27.5,18.9L27.2,19l0.2,0.1L27.5,18.9L27.5,18.9z M27.2,19.2l0.2,0.1
	v0.2h-0.1L27.2,19.2L27.2,19.2z M25.7,27.7L25.7,27.7v0.4h-0.1L25.7,27.7L25.7,27.7L25.7,27.7z M25.6,27.7v0.4l-0.1,0.2l-0.2,0.2
	l-0.1-0.2v-0.4l0.2-0.4l0.1-0.1L25.6,27.7L25.6,27.7z M17.5,23.9l0.3,0.1l0.1,0.1l-0.2,0.1l-0.2-0.1V23.9L17.5,23.9L17.5,23.9z
	 M17.5,24.4l0.3,0.1l0.2,0.2h0.1v0.1h-0.3h-0.2L17.5,24.4L17.5,24.4L17.5,24.4z M17.8,24.8h0.3l0.2,0.2l-0.2,0.2l-0.2,0.1l-0.1-0.2
	V25C17.8,25,17.8,24.8,17.8,24.8L17.8,24.8z M17.2,22l0.2-0.3l0.3-0.4l0.2-0.2l0.2-0.1l0.2,0.5l0.4,0.3l0.1,0.1l0.3,0.2l0.1,0.2h0.2
	l0.4-0.1l0.1-0.2h0.3l0.2-0.1h0.7l0.7-0.3l0.2-0.2h0.6l0.3,0.2l0.1,0.2h0.3l0.5-0.3l0.5-0.1v-0.2l0.5-0.7l0.2-0.5l0.4-0.5l0.2-0.9
	v-0.2l0.2-0.2v-0.2l0.2-0.3l0.2,0.1H26h0.5l0.2,0.1H27l0.2,0.1v0.1h-0.2v0.1L27,18.5l0.2,0.1l0.2,0.3L27.2,19l-0.3-0.1L26.8,19
	l0.2,0.2l0.1,0.1v0.2h-0.1l-0.1,0.2l0.2,0.2l0.1,0.2l0.4,0.4l0.2,0.2l-0.2,0.2l-0.3,0.1l-0.1,0.2l0.1,0.1l0.1,0.2l0.2,0.1l0.5,0.5
	h0.2l0.2,0.2l0.1,0.2l0.2,0.1l-0.1,0.2l-0.2,0.1l-0.2-0.1l-0.2,0.2h-0.3l-0.4-0.4l0.1,0.3l-0.1,0.2l-0.1-0.2l-0.2,0.2v0.2L27,23
	l-0.1,0.5l-0.1,0.2L26.8,24l-0.3,0.2l0.2,0.3l-0.2,0.2L26.3,25l-0.1-0.2L26,24.7l0.1,0.2V25l-0.2,0.2l-0.1,0.2v0.2h-0.2l0.1,0.1
	l-0.1,0.2H26L26,26v0.2l-0.2,0.1l0.1,0.1h0.2v0.2L26,26.6l-0.2-0.1v-0.1v0.1l0.1,0.1l0.1,0.1l-0.2,0.4h-0.2L25.7,27l-0.1,0.3v0.2
	l-0.2,0.5L25,28.2l-0.4,0.1l-0.5,0.2h-0.2l-0.1-0.3l0.1-0.2l-0.2-0.2l-0.1-0.1l-0.1,0.1l-0.2-0.2l-0.1,0.1l-0.2-0.1l-0.1-0.2
	l-0.1,0.2l0.1,0.2l-0.2-0.1l-0.1-0.2v-0.2l-0.2-0.1l-0.2,0.1l-0.2-0.2h-0.2L22,27.6l-0.3,0.1l-0.1,0.2h-0.2l-0.2-0.1l-0.2,0.1
	l-0.3,0.3h-0.3v-0.2v-0.4l-0.1-0.3l0.1-0.2l-0.1-0.2V27l-0.1,0.2l-0.2,0.1l-0.2-0.1l-0.2,0.2h-0.3l-0.2-0.1h-0.2l-0.1-0.2L19,27.3
	h-0.2L18.7,27v-0.3l-0.1-0.5L18.4,26l-0.1-0.2l0.2-0.2l0.2-0.2v-0.2L18.4,25l-0.3-0.3l-0.3-0.2l-0.3-0.1v-0.1h0.2l0.2-0.2l0.5-0.1
	l0.3-0.2h0.2l-0.2-0.1l-0.3,0.2L18,24.2h-0.2l-0.2-0.1l-0.2-0.3l0.1-0.1l0.2,0.1l-0.1-0.2l-0.4-0.5v-0.5l0.2-0.1v-0.2l-0.1-0.2
	L17.2,22L17.2,22z M47.8,24.5l-0.2,0.1l0.2,0.2h0.2L47.8,24.5L47.8,24.5z M48.4,25.3h-0.3l0.2,0.1L48.4,25.3L48.4,25.3z M48.5,25.4
	L48.5,25.4l0.5,0.2l0.5,0.1l0.5-0.1l0.2-0.1l-0.4-0.1l-0.2,0.1l-0.4-0.1L49,25.6L48.5,25.4L48.5,25.4z M48.5,24.2l0.2,0.2v-0.2h0.2
	l0.2,0.3v0.2h0.2h0.1l0.1,0.1l0.3-0.1l-0.1-0.1l-0.2-0.1l-0.2-0.2l-0.2-0.2H49l-0.3-0.1L48.5,24.2L48.5,24.2z M45,30.2l0.1,0.2v0.2
	l0.1,0.1v-0.3L45,30.2L45,30.2z M45.7,29.9l-0.2,0.2l-0.1,0.5l-0.1,0.2l0.2-0.1l0.2-0.5L45.7,29.9L45.7,29.9z M47.5,31.5L47.5,31.5
	v0.2V31.5L47.5,31.5L47.5,31.5z M46.9,31.1L46.9,31.1L46.9,31.1l-0.1,0.3l0.1,0.1l0.1,0.2l-0.1-0.1h-0.1v0.2l0.1,0.1H47l0.2-0.2
	l0.1-0.1l-0.1-0.1l-0.1-0.2L46.9,31.1L46.9,31.1z M47.3,31.1C47.3,31.1,47.2,31.2,47.3,31.1l-0.1,0.2l0.1,0.1h0.2L47.3,31.1
	L47.3,31.1L47.3,31.1z M47,30.8h-0.2V31l0.2,0.2l0.2,0.1l0.1-0.1L47,31.1L47,30.8L47,30.8z M47.4,30.6l-0.2,0.1L47,30.8l0.1,0.1
	l0.2,0.2l0.1,0.1l0.2-0.2v-0.2h-0.1v-0.1L47.4,30.6L47.4,30.6L47.4,30.6z M46.9,30.4L46.9,30.4L46.9,30.4L46.9,30.4L46.9,30.4
	L46.9,30.4z M47.3,30l0.1,0.2h0.1L47.3,30L47.3,30L47.3,30z M47.3,30.1L47.3,30.1l-0.2,0.2h-0.1h0.2v0.1h0.1l-0.2,0.2v0.2h0.1
	l0.2-0.2h0.2l0.1-0.1v-0.2h-0.1L47.3,30.1L47.3,30.1z M44.1,32l0.2-0.1l-0.1-0.1L44.1,32L44.1,32z M44,32l0.3,0.2L44.2,32H44L44,32z
	 M42.9,32.6l-0.2,0.1L42.9,32.6C42.9,32.6,42.9,32.6,42.9,32.6L42.9,32.6z M43.2,32.4h-0.3l0.2,0.1L43.2,32.4L43.2,32.4L43.2,32.4z
	 M43.2,33.3h-0.2l-0.2,0.2v0.1H43L43.2,33.3L43.2,33.3L43.2,33.3z M43.7,32.3l-0.3,0.3v0.1l0.1,0.1l-0.2,0.1V33l0.2,0.2l0.2-0.1
	l0.3-0.3l0.1-0.3l-0.2-0.1l0.1-0.2v-0.1h-0.2L43.7,32.3L43.7,32.3L43.7,32.3z M41.9,31.1l0.2-0.1L41.9,31V31.1L41.9,31.1z
	 M41.4,31.5l-0.2,0.1L41.4,31.5L41.4,31.5L41.4,31.5z M41.7,33.3l-0.2,0.2h0.2L41.7,33.3L41.7,33.3z M41.4,32.9l0.2-0.1l0.2,0.1
	l0.1,0.2l-0.2,0.1L41.4,32.9L41.4,32.9L41.4,32.9z M40.1,32.1L40.1,32.1h0.2l-0.1,0.1L40.1,32.1L40.1,32.1L40.1,32.1z M40.4,33.5
	h0.2l0.1,0.1L40.4,33.5L40.4,33.5L40.4,33.5z M38.6,32.7l0.2-0.2l-0.2-0.1l-0.1,0.1L38.6,32.7L38.6,32.7z M39.2,33.4h0.4l0.2-0.1
	v0.2l-0.3,0.1L39.2,33.4L39.2,33.4L39.2,33.4z M38.9,33.5l0.2-0.1v0.2L38.9,33.5L38.9,33.5z M38.3,33.4l0.2-0.1l0.2,0.1l-0.2,0.1
	L38.3,33.4L38.3,33.4z M33.9,35.9l-0.1,0.2l0.2,0.1h0.4l0.3-0.2l0.2-0.1h0.2l0.2-0.2l0.2-0.2l0.5-0.3L36,35l0.2-0.1l-0.3-0.3
	l-0.2-0.3l-0.1,0.1l-0.2,0.1v0.3h-0.2L34.9,35l-0.2-0.2l-0.1,0.1L34.4,35l-0.1,0.2l-0.2,0.4v0.1l0.1,0.1l0.1,0.1h-0.2L33.9,35.9
	L33.9,35.9z M33.7,36.2l0.1-0.2h-0.1l-0.2,0.2H33.7L33.7,36.2z M33.7,36.3l-0.2,0.1l0.1,0.1l-0.4,0.2L33,36.8l0.2,0.1l0.5-0.2
	l0.1-0.2L33.7,36.3L33.7,36.3z M32,36.3l0.2,0.1v0.2L32,36.6h-0.2L32,36.3L32,36.3L32,36.3z M28.5,35l0.5-0.3l0.3,0.2h0.2l0.2-0.2
	l0.3,0.2l0.1,0.2h0.2l0.2,0.3l0.2,0.2v0.2l-0.3,0.2h-0.3l-0.3-0.2l-0.2-0.3l-0.2-0.1l-0.2-0.2L29,35.2l-0.3-0.1L28.5,35L28.5,35
	L28.5,35z M24.9,32.3h0.2h0.1v0.1L24.9,32.3L24.9,32.3L24.9,32.3z M24.2,32l0.2,0.2l0.2-0.2h0.2h0.1l-0.1-0.1l-0.2-0.1h-0.2L24.2,32
	L24.2,32L24.2,32z M36.9,33.2l0.2-0.2l0.4,0.1l0.2,0.1l0.1-0.1l0.2-0.2l0.2-0.1l-0.1-0.2l-0.2-0.1l-0.2,0.2h-0.4L37,32.7l-0.2,0.1
	L36.8,33L36.9,33.2L36.9,33.2z M36.5,33.5L36.5,33.5v0.2V33.5L36.5,33.5L36.5,33.5z M35.4,33.5l-0.2,0.1l0.1,0.1l-0.1,0.1v0.1
	l0.2,0.1l0.4-0.2l0.2-0.2l-0.2-0.1H35.4L35.4,33.5L35.4,33.5z M34.6,33.9h0.2l0.2,0.1l0.2-0.2v-0.1l-0.2,0.1h-0.2L34.6,33.9
	L34.6,33.9z M33.8,33.9l0.2-0.2L34,33.7l0.1-0.1h0.2l0.2-0.1l0.1,0.1l-0.2,0.2L34.1,34l-0.2,0.1L33.8,33.9L33.8,33.9z M33.6,33.8
	l-0.2,0.1l-0.1,0.2l0.2-0.2L33.6,33.8L33.6,33.8z M33.8,33.5l-0.2,0.2l0.2,0.1l0.1-0.1L33.8,33.5L33.8,33.5z M29.6,34l0.1-0.2
	l0.4-0.2l0.6-0.2l0.3,0.2l0.2-0.1l0.3,0.1l0.3,0.2l0.2-0.1h0.4l0.2,0.2h0.3l0.2-0.2l0.2-0.1l0.2-0.2l-0.1-0.1l0.2-0.2l0.2,0.1v0.2
	l-0.1,0.2l-0.2,0.1L33.2,34h-0.2l-0.1,0.1L32.7,34h-0.4L32,34.1l-0.4-0.1l-0.2,0.1l-0.1,0.1h-0.2l-0.2-0.1l-0.2,0.1l-0.2-0.2h-0.2
	h-0.2L30.2,34h-0.2l-0.2-0.1L29.6,34L29.6,34z M29.4,34l-0.1,0.2h0.2L29.4,34L29.4,34L29.4,34z M29.3,33.8l-0.2-0.1L29,34.1l0.2,0.2
	L29.3,33.8L29.3,33.8L29.3,33.8z M26,34v0.2l0.1,0.1L26,34.3l0.1,0.2l0.2,0.1l0.3-0.1l0.2,0.1l0.2-0.1l0.1-0.2l0.2,0.1l0.2-0.1
	l0.2,0.1l0.2-0.2l0.1,0.2h0.2l0.3,0.1l-0.2-0.2h0.3V34l-0.1,0.1l-0.1-0.2v-0.2l-0.2-0.1v0.2l-0.2,0.1v-0.2l-0.2-0.2l-0.2,0.1
	l-0.2-0.2l-0.2-0.1l-0.3,0.2v0.2l0.5,0.2l0.2,0.2L27.2,34l-0.2,0.1l-0.3-0.2l-0.1-0.2h-0.2l-0.2,0.1l-0.2-0.1l-0.4,0.2
	C26.1,33.8,26,34,26,34L26,34z M25.3,33.8l0.2-0.2l0.4,0.2l-0.1,0.3l-0.1,0.2v0.2l-0.2-0.1l-0.2,0.1L25,34.3l-0.1-0.1l0.1-0.1h0.2
	L25.3,33.8L25.3,33.8z M24.4,34.1l0.2-0.2l0.1,0.2H24.4L24.4,34.1L24.4,34.1z M23.3,33.4v0.2l0.1,0.2l0.3,0.1L24,34l0.1,0.2l0.1-0.2
	l0.2-0.1l0.1-0.1l0.2-0.1l0.1-0.2l-0.2-0.3l-0.3-0.1l-0.3,0.1l-0.3-0.1L23.3,33.4L23.3,33.4z M52,33.5L52,33.5l0.3,0.1l0.1-0.1
	l-0.1-0.3h-0.1l-0.2,0.1L52,33.5L52,33.5z M50.8,33.6h0.4h0.2l0.3,0.1l0.2-0.1l0.2-0.2l0.2-0.1l0.1-0.2V33l0.1-0.1l0.1-0.2l0.1-0.1
	l-0.2-0.2l-0.1-0.1h-0.5l-0.2,0.2l-0.2,0.3l-0.2,0.2L50.8,33.6L50.8,33.6z M21.6,31.8L21.4,32l0.2,0.2h0.2l0.2-0.1h0.4l0.2-0.1h0.2
	l0.1-0.2l-0.2-0.1L22.4,32l-0.2-0.1L21.6,31.8L21.6,31.8L21.6,31.8z M12.6,31.4v0.2h0.1L12.6,31.4L12.6,31.4L12.6,31.4z M12.9,31.6
	L12.9,31.6h0.2v-0.2h0.2l0.1-0.2v-0.2l0.2-0.3l0.1,0.1H14l0.4,0.1l0.2,0.2l0.1-0.1l0.1-0.2h0.4l0.2,0.2l0.5,0.1l0.5,0.1l0.2,0.2
	l-0.1,0.2l0.1,0.1l0.4,0.2h0.7l0.6,0.1l0.5-0.1l0.2-0.2l0.1-0.5H19l0.3,0.3h0.2l0.2-0.1l0.2,0.1l0.2,0.2h0.2l0.2,0.2l0.2-0.1h0.3
	v0.3l0.2,0.3v0.2l0.2,0.2l0.3,0.2l0.2-0.1l0.2,0.1h0.2l0.2-0.1h0.2l0.1,0.1h0.2l0.2,0.2l-0.1,0.5l-0.2,0.2l0.2,0.1l0.1,0.4L22.9,34
	l-0.2-0.2h-0.3l-0.3-0.2l-0.2-0.1l-0.2-0.2h-0.2l-0.3,0.2h-0.4l-0.3-0.2l-0.3-0.1l-0.3,0.2l-0.3-0.2h-0.4L19,33.4l-0.6-0.2l-0.6-0.4
	h-0.4l-0.3-0.2H17l-0.2,0.2l-0.2-0.1l-0.2-0.2h-0.2l-0.2,0.2l-0.5-0.2l-0.4-0.3h-0.4l-0.2-0.1l-0.2,0.2l-0.3-0.1l-0.3-0.1l-0.1-0.1
	l0.2-0.3l0.1-0.1h-0.2l-0.2,0.1l-0.2-0.1l-0.1-0.2l-0.2,0.1L12.9,31.6l-0.2-0.1v-0.2L12.9,31.6L12.9,31.6z M15.9,18.3l0.2,0.2h0.2
	l-0.1,0.2h0.2l0.1-0.3L16.1,18L16,18.1L15.9,18.3L15.9,18.3z M13.9,19.8V20l0.2-0.1L13.9,19.8L13.9,19.8z M13.9,19.3l0.2-0.2
	L13.9,19V19.3L13.9,19.3z M14,19.3l-0.1,0.2h0.2L14,19.3L14,19.3z M13.2,19.6v0.2l0.2,0.1l0.2-0.2l-0.2-0.1H13.2L13.2,19.6z
	 M11.2,22.2l0.2,0.1l0.2-0.2l-0.1-0.2L11.2,22.2L11.2,22.2z M11.8,22l-0.1,0.2l0.2,0.1l0.1,0.3l0.2-0.1l0.1-0.4L12.1,22l0.1-0.2H12
	L12,21.9L11.8,22L11.8,22z M17,25.5v0.2l0.2,0.1l0.1-0.1l-0.1-0.1L17,25.5L17,25.5z M15.5,26.6l0.1,0.2V27l-0.2,0.1l-0.1,0.2h0.2
	v-0.1l0.2-0.1v0.3l0.2,0.2l0.2-0.3l0.2,0.2h0.2l0.1-0.2l0.2-0.1l-0.1-0.2L16,26.7l-0.4-0.1L15.5,26.6L15.5,26.6z M14.7,27.1v0.2
	l0.2-0.2L14.7,27.1L14.7,27.1z M13,25.5v0.2l-0.2,0.2l0.2,0.2h0.5l0.2,0.2v0.2l0.2,0.1l0.1,0.3l0.3,0.2h0.2l0.1,0.2l0.1,0.1l0.2-0.2
	l-0.1-0.2l0.2-0.3l-0.4-0.1l-0.2-0.3L14,25.7l-0.1-0.1v-0.2l-0.2-0.1h-0.2v0.2l0.1,0.2l-0.2-0.1l-0.2-0.2L13,25.5L13,25.5z
	 M11.9,24.1l-0.2,0.2l0.2,0.2l0.2-0.2L12.1,24L11.9,24.1L11.9,24.1z M12,23.5l-0.2,0.2l0.2,0.2l0.2-0.1l0.3,0.2l0.1-0.1l-0.4-0.3
	L12,23.5L12,23.5z M9.7,22l-0.2,0.3l0.1,0.2l0.4,0.1l0.3,0.2l0.1-0.1l-0.1-0.4L10.1,22L9.7,22L9.7,22z M9,21.7h0.2l0.3,0.1l0.2,0.2
	l-0.2,0.2L9.3,22L9,21.7L9,21.7z M8.2,21.1l0.2,0.4h0.2l0.2-0.2L8.6,21l-0.2,0.2L8.2,21.1L8.2,21.1z M9,29.9l0.3,0.2v-0.2l-0.2-0.1
	L9,29.9L9,29.9z M6.9,26.9l-0.2,0.2l0.5,0.4l-0.1-0.2v-0.2L6.9,26.9L6.9,26.9z M6.5,26.7l0.2,0.1l-0.2,0.2L6.5,26.7L6.5,26.7z
	 M6.1,26L6,26.1l0.2,0.2l0.3,0.1L6.1,26L6.1,26z M4.8,24.9V25l0.2,0.1l0.3,0.5l0.3,0.1v-0.5l-0.4-0.5L5,24.6L4.8,24.9L4.8,24.9z
	 M4.6,24l-0.2,0.2l0.2,0.2l0.2-0.2v-0.2L4.6,24L4.6,24z M4.8,23.4h0.3l0.1,0.1v-0.2l-0.3-0.1L4.8,23.4L4.8,23.4z M3.1,21.7h0.2
	l0.2-0.2l0.2,0.1L3.8,22l0.3,0.2L4,22.3l-0.1,0.3l-0.1,0.1l-0.2-0.5l-0.2-0.1L3.4,22L3.1,21.7L3.1,21.7z M3.1,20.8l0.3,0.1l-0.1-0.2
	L3.1,20.8L3.1,20.8z M1.5,19.9L1.5,19.9l-0.2,0.2l0.2,0.2l0.3-0.1l-0.2-0.2L1.5,19.9L1.5,19.9z M0.8,16.6l-0.1,0.2l0.1,0.4l0.3,0.7
	l0.2,0.1l0.5,0.5H2l0.3,0.4l0.2,0.1l0.2-0.1L2.9,19l0.5,0.7l0.5,0.4H4v0.3l0.1,0.1l0.1,0.3l0.2,0.2h0.2l0.3,0.4L5,21.4h0.2l0.1,0.2
	l-0.1,0.2l0.2,0.2l0.2,0.3v0.1l0.2,0.6l0.1,0.4L6,23.2l0.4,0.2v0.2l0.3,0.5L7,24.4L7.1,25l0.5,0.8v0.3l0.1,0.3l0.5,0.3l0.5,0.5
	l0.2,0.3L9,27.7l0.2,0.2L9.4,28l0.1,0.4l0.2,0.2l0.3,0.4l0.5,0.3l0.2,0.2l0.4,0.1l0.7,0.6l0.1,0.2l0.2,0.1l0.2,0.3l0.1-0.1v-0.2
	l-0.1-0.2v-0.1l0.2,0.1l0.5,0.5l0.1-0.1v-0.3l0.1-0.2l0.2,0.1l0.2,0.3l0.2,0.1l0.2-0.2v-0.5l0.2-0.7l-0.2-0.5l0.2-0.5l-0.1-0.2v-0.4
	l0.2-0.1l0.1-0.2v-0.2L14,27.3l-0.2-0.2l-0.1-0.3l-0.2-0.1l-0.1-0.2l-0.2-0.1l-0.4,0.1h-0.2v-0.4L12.5,26l-0.2,0.1l0.1-0.2l-0.1-0.2
	V25L12,25.1L11.9,25h-0.5l-0.4-0.3v-0.2l0.2-0.1l0.3-0.2l-0.2-0.1l-0.2,0.1l-0.2-0.1l-0.2,0.1l0.2-0.2l0.3-0.2l0.4-0.1l-0.1-0.2
	l-0.4-0.4H11l-0.3,0.2l-0.2,0.2h-0.3h0.2l0.1-0.1h0.1l0.2-0.2l-0.1-0.2L10.2,23H9.9l-0.3-0.2v-0.2l-0.1-0.3L9,21.9H8.8L8.7,22
	l-0.2-0.2l-0.1-0.5L8,21l-0.5-0.2H7.2l-0.1,0.1L7,20.8l-0.1-0.3l-0.2,0.2l-0.2-0.2v-0.4l-0.2-0.3l-0.2-0.1l-0.1-0.2l-0.7-0.5H5.2
	l-0.3-0.3l-0.3-0.1l-0.1-0.2l-0.1-0.4l-0.2-0.2l-0.2-0.3H4l-0.2-0.3l-0.3-0.1H3.3l-0.2,0.1L3,17.4H2.7l-0.4,0.1l-0.2-0.1L1.7,17
	l-0.5-0.1L0.8,16.6z"/>
</svg>
