<?xml version="1.0" encoding="utf-8"?>
<!-- Generator: Adobe Illustrator 19.2.0, SVG Export Plug-In . SVG Version: 6.00 Build 0)  -->
<svg version="1.1" id="Layer_1" xmlns="http://www.w3.org/2000/svg" xmlns:xlink="http://www.w3.org/1999/xlink" x="0px" y="0px"
	 viewBox="0 0 56 56" style="enable-background:new 0 0 56 56;" xml:space="preserve">
<style type="text/css">
	.st0{fill:#FDC414;}
</style>
<polygon id="Ireland" class="st0" points="17.7,55.7 21,55.7 24.3,54.4 27,53 26.3,51 28.3,51 27.7,52.4 29.7,52.4 31.7,50.4 
	33,50.4 33.7,48.4 39.7,47.7 39.7,46.4 41,47.7 42.4,46.4 43,47 46.4,47 44.4,44.4 45.7,43.7 47,41.7 47,40.4 48.4,38.4 49,36.4 
	48.4,31.7 47,31 48.4,29.7 48.4,27.7 47,25.7 47.7,23.7 46.4,22.3 47,21 48.4,21 45.7,19.7 44.4,19.7 42.4,15.7 39.7,14.3 38.4,15 
	37.7,17.7 36.4,18.3 31.7,14.3 33.7,9.7 36.4,9 37,7 38.4,6.3 39,5.7 38.4,5.7 40.4,3.7 42.4,3 39.7,1.6 38.4,0.3 39,1.6 37,1.6 
	37,4.3 35.7,6.3 35.7,5 37,3.7 35.7,2.3 34.4,2.3 35,3.7 33.7,3.7 33,3 29.7,3.7 29.7,5 29,5 28.3,6.3 29.7,7 29,7.7 27.7,8.3 
	27.7,9 25.7,9.7 26.3,11 29,11 28.3,11.7 30.3,11 31.7,11 29,13.7 26.3,14.3 27,15.7 24.3,16.3 22.3,15.7 21,17 20.3,15 15.7,14.3 
	15.7,15 13,14.3 13,17.7 14.3,16.3 14.3,17.7 15,18.3 15.7,19.7 14.3,19.7 14.3,19 11.7,19 14.3,21 16.3,20.3 17,22.3 15,23 
	14.3,23.7 15,25 12.3,25 13,27 11.7,27 13.7,28.3 14.3,27.7 13.7,28.3 16.3,28.3 17,31 22.3,31 21,32.4 19.7,31.7 17,35 18.3,35 
	16.3,37.7 13,40.4 14.3,40.4 16.3,39 17.7,39.7 19.7,39.7 21.7,37.7 21.7,39 23.7,39 19,40.4 15.7,40.4 15,41.7 12.3,42.4 
	13.7,43.7 13,44.4 13.7,45 12.3,45 11,43.7 10.3,44.4 9.7,44.4 7,45.7 7,46.4 13.7,45.7 11.7,47.7 9,48.4 7.7,50.4 9.7,50.4 
	10.3,51.7 15,50.4 11,52.4 9.7,53.7 12.3,53.7 15.7,52.4 15.7,53.7 12.3,55 14.3,55 13.7,55.7 16.3,55 "/>
</svg>
