<?xml version="1.0" encoding="utf-8"?>
<!-- Generator: Adobe Illustrator 19.2.0, SVG Export Plug-In . SVG Version: 6.00 Build 0)  -->
<svg version="1.1" id="Layer_1" xmlns="http://www.w3.org/2000/svg" xmlns:xlink="http://www.w3.org/1999/xlink" x="0px" y="0px"
	 viewBox="0 0 56 56" style="enable-background:new 0 0 56 56;" xml:space="preserve">
<style type="text/css">
	.st0{fill:#FDC414;}
</style>
<polygon id="Israel" class="st0" points="30,55.2 31.6,52.8 31.6,52.8 31.6,51.3 32.4,49.7 32.4,47.3 34,44.1 33.2,40.2 34,40.2 
	34,37 34.8,34.7 34.8,32.3 35.6,27.5 34,27.5 33.2,27.5 30.8,28.3 29.2,27.5 30,23.6 30,18 29.2,16.5 30,13.3 33.2,13.3 33.2,14.9 
	34.8,14.9 36.4,14.1 36.4,12.5 36.4,12.5 35.6,11.7 35.6,9.4 35.6,5.4 36.4,2.2 37.2,0.7 36.4,0.7 34.8,3.8 30.8,3.8 29.2,3 
	26.9,6.2 25.3,15.7 22.1,22.8 18.2,27.5 19.8,28.3 22.1,32.3 22.9,36.2 26.9,41.8 29.2,48.1 28.5,51.3 "/>
</svg>
