<?xml version="1.0" encoding="utf-8"?>
<!-- Generator: Adobe Illustrator 19.2.0, SVG Export Plug-In . SVG Version: 6.00 Build 0)  -->
<svg version="1.1" id="Layer_1" xmlns="http://www.w3.org/2000/svg" xmlns:xlink="http://www.w3.org/1999/xlink" x="0px" y="0px"
	 viewBox="0 0 56 56" style="enable-background:new 0 0 56 56;" xml:space="preserve">
<style type="text/css">
	.st0{fill:#FDC414;}
</style>
<path id="India" class="st0" d="M18.3,3.2l0.1,0.2v0.4l0.5,0.2l-0.1,0.7l0.2,0.4l-0.1,0.2l0.2,0.1l0.2,0.4v0.2h0.1l0.1,0.4l0.5,0.2
	l0.2-0.4h0.5l0.1,0.2l0.5,0.1l0.4,0.4l0.2,0.1l0.2,0.5h0.4l0.1,0.4l0,0v0.6l-0.2,1v0.6L22.2,11l0.1,0.5h0.4l0.4,0.2h0.4l0.4,0.2
	l0.7,0.2l0.9,0.6l0.6,0.7l0.7,0.1l0.4,0.2h0.5l0.6,0.4l1-0.1l0.4,0.2l1-0.2l0.9,0.2l0.1,0.5l0.5,0.5l1,0.2l0.4-0.2h0.6l1.7,0.6
	l0.4-0.2l0.7,0.4l1.2-0.2l0.1-0.9L38,14.4l0.1-0.9L38,13.2l0,0l0.4-0.2h0.5l0.2,0.4v0.5l0.4,0.2l0,0v0.5l-0.1,0.4l0.4,0.6l0.6,0.1
	l0.2-0.1l1,0.5h0.5l0.4-0.5H43l0.4,0.1l0.7-0.2h0.5l0.7-0.2v-0.2v-0.5l-0.6-0.2v-0.4l0.1-0.5h0.2l0.7-0.1h0.4l0.2-0.5l0.2-0.2
	l0.2,0.1v-0.2l0.4-0.1l0.1-0.4l0.4-0.4l0.4-0.1l0.7-0.1l0.5-0.5v-0.4h0.2l0.5-0.2l0.4,0.5l0.5-0.1l0.7,0.2l0.2-0.2v-0.4l0.9-0.5
	l0.2,0.1l0.2,0.2l0.2-0.1l0.1,0.1l-0.2,0.5l0.1,0.2l0.2-0.1l0.2-0.1l0.1,0.2l0.2,0.4v0.2l-0.2,0.4l0.1,0.4l0.4,0.1l0.2-0.1l0.4,0.1
	l0.4,0.4v0.2l-0.4,0.4v0.5l0.1,0.4l-0.4-0.1l-0.4-0.2L54.3,14l-0.6,0.2l-0.2,0.5l-0.5,0.6l-0.5,0.1l-0.6,1L51.7,17l0.2,0.2L51.7,18
	l-0.5,0.9v0.2l0.5,0.2l-0.4,1l-0.1,0.9L50.9,22h-0.5l-0.4-0.1h-0.4l0.2,1v0.5v0.7h-0.4l0.1,0.5l-0.1,0.5l0.1,0.4l-0.2,0.6l-0.2,0.1
	l-0.1-0.1L49,26.5v0.2l-0.1-0.1l-0.1-0.1v-0.2l-0.1-0.1l-0.1-0.2l-0.1-0.5l-0.1-0.7l-0.1-0.2V24L48,23.5l-0.1-0.2l-0.1-0.1h-0.4
	L47.1,23L47,23.1l0.1,0.1L47,23.4v0.2l-0.2,0.2l0.1,0.1v0.2h-0.2l-0.2-0.4l-0.2-0.2L46,23.4l-0.2-0.1l-0.2-0.5v-0.2l0.1-0.1l0.1-0.2
	l0.4-0.2l0.1,0.1h0.2l0.1-0.2v-0.2l0.2-0.1l0.2-0.6l0.1-0.5l0.2-0.4l-0.2-0.1l-0.4-0.4h-0.2l-0.1-0.1h-0.4h-0.6l-0.6-0.1h-0.7h-0.5
	L43.2,19h-0.4l-0.4-0.1v-0.2l-0.1-0.4V18l-0.1-0.5L42,17h-0.2v0.1L41.4,17l-0.2-0.2l-0.2-0.2h-0.1l-0.1,0.2l0.2,0.1L40.6,17h-0.4
	L40,16.6v-0.2l-0.2-0.2l-0.1-0.2l-0.1,0.2h-0.1v0.2l0.2,0.1L39.5,17l-0.4,0.5V18l0.9,0.4l0.4-0.1h0.5l-0.1,0.2l0.1,0.5l-0.2,0.2
	l-0.2-0.1l-0.2,0.1L40,19.8l-0.4,0.1v0.7l0.5,0.5l0.5,0.2l0.5,0.6v0.6l0.1,0.5l-0.1,0.4l0.1,0.6l0.6,0.7v0.5l0.1,0.4v0.6h-0.1
	l0.2,0.5l-0.2,0.4l-0.2-0.4v0.2L41.4,27l-0.1-0.5l-0.1-0.2v0.1v0.2v-0.1L41,26.6h-0.2v0.1l-0.4-0.1l-0.1-0.5l0.1-0.2l-0.2-0.2h-0.4
	v0.1H40l0.1,0.1L40,26l-0.1,0.2v0.2l-0.2,0.4l-1.2,0.5l-0.2,0.1L38,27.7l-0.2,0.4l0.1,0.2l0.2,0.4v0.1h0.1l-0.5,0.4l-0.1,0.4h-0.2
	l0.1,0.2l-1.4,0.7v0.2L35,31.3l-0.1-0.1V31l-0.1-0.1h-0.1l-0.4,0.2H34l-0.1,0.5l0.4-0.1l0.1-0.1l0.1,0.1l-1.4,1.1l-0.4,0.9L31,34.8
	l-0.2,0.5l-0.4,0.4l-0.7,0.2l-0.5,0.5v0.4l0.1,0.5l-0.4,0.5l-0.5,0.2l-0.9-0.1l-0.4,0.4v0.4l-0.5,0.6h-0.2l-0.2-0.2H26l-0.6,0.6
	l-0.2,0.4v0.7l0.4,1l-0.2,0.4v0.5v1.5l0.5,0.1l0.1,1l-0.5,1.2l-0.5,0.9v0.7l0.2,0.2l0.1,1.6v0.5l-0.4,0.1l-0.2-0.1l-0.5,0.1L23.9,51
	l0.1,0.1l-0.5,0.6L23.4,52v0.2l0.6,0.4l0.1,0.1v0.1l-0.1-0.1l-0.2-0.1l-0.9,0.2h-0.1l-0.6,0.2l-0.2,0.4v0.2l-0.1,0.1l0.1,0.1
	l-0.1,0.5L21.1,55h-0.6l-0.6-0.4L19.2,54l-0.7-1.5v-0.9l-0.2-0.7L17.7,50v-0.4h-0.2l-0.2-0.5l-0.1-0.6l-0.6-0.6l-0.4-0.5H16
	l-0.5-0.6l-0.2-0.5l-0.1-0.1v-0.9l-0.2-0.4L14.5,44l-0.1-0.6L14.1,43l-0.2-0.2v-0.7h-0.1l-0.5-0.6v-0.2h-0.1l-0.5-0.9v-0.2l-0.2-0.1
	l-0.1-0.6l-0.4-0.2l-0.2-0.9v-1.1l-0.9-1.6V35l-0.4-0.6h0.4l-0.6-0.7v-0.4h0.2L10.1,33v-0.4l-0.6-1.1l-0.1-0.6l0.4-0.1l-0.2-0.1
	v-0.4l0.2-0.5v-0.6l-0.1-0.6l-0.2-0.1l-0.1-0.9l0.4-0.2L9.7,27h0.4l-0.4-0.1L9.2,27H9v-0.4l-0.1-0.4L9,25.9l0.1-0.1h0.2l0.4-0.4
	l0.1-0.2l-0.4,0.2l-0.2-0.1H8.7l-0.1-0.4v0.2v0.4l-0.2,0.7l0.2,0.4l-0.1,0.7l-0.2,0.2v0.2l-0.6,0.4l-1,0.6L6.1,29l-0.7-0.1l-1.5-1.2
	l-0.6-0.9v-0.1H3.1l-0.2-0.1L2,25.6l-0.1-0.2L2,25.1h0.2l0.1,0.1l0.2-0.1v0.4H3l0.2-0.1h0.1l0.2,0.1v-0.1l0.7-0.6h0.2L5,24.1h0.1
	l0.1-0.4H5l-0.1-0.1v0.1v0.1L4,24.2H3.5l-0.4,0.1l-1.2-0.5l-0.6-0.6L1,23.1v-0.4l0.4-0.5L1.8,22l-0.5,0.1l-0.5,0.4V22l0.4-0.2
	l0.2-0.1l0.1-0.5l0.2,0.1l0.4-0.1l1.4,0.1L4.3,21l0.1-0.1l0.5-0.1L4.8,21l0.1,0.2L5.4,21l0.4-0.1l-0.1-0.1v-0.2l-0.5-1.2l-0.4-0.5
	l0.1-0.2l-0.2-0.2H4.3l-0.6-0.4l-0.1-0.7v-0.5L3.3,16H2.9l-0.2,0.1L2.1,16H1.8v-0.5L2,14.8l0.2-0.1l0.5-0.7l0.1-0.4l0.4-0.1l0.2-0.1
	l0.4,0.1L4,13.8h0.2L5,13.4h1l0.6-0.7L7,11.5l0.9-0.6l0.2-0.4l0.1-0.6l0.5-0.6l0.6-0.2l0.2-0.5V8.2L9.4,7.9L10,7.3l0.2-0.2V6.6
	l0.1-1l-0.2-0.7L10,4.7l0.6-0.6L11,3.9l0.4-0.2h0.2l0.5-0.6l0.6-1l0.6-0.5h0.5l0.2-0.5h0.4l1.1,0.7l0.6-0.2l0.5,0.2L17,2.3h0.5
	L18.3,3.2L18.3,3.2L18.3,3.2z M40.5,27v0.4l0.1-0.1L40.5,27L40.5,27z M40.2,26.9L40,27l0.1,0.2l0.1,0.1v-0.2L40.2,26.9L40.2,26.9z
	 M39.7,26.9v0.4l0.2,0.1V27L39.7,26.9L39.7,26.9z M39.2,27v0.2l0.1-0.1l0.1-0.5l-0.1-0.2L39.2,27z"/>
</svg>
