<?xml version="1.0" encoding="utf-8"?>
<!-- Generator: Adobe Illustrator 19.2.0, SVG Export Plug-In . SVG Version: 6.00 Build 0)  -->
<svg version="1.1" id="Layer_1" xmlns="http://www.w3.org/2000/svg" xmlns:xlink="http://www.w3.org/1999/xlink" x="0px" y="0px"
	 viewBox="0 0 56 56" style="enable-background:new 0 0 56 56;" xml:space="preserve">
<style type="text/css">
	.st0{fill:#FDC414;}
</style>
<polygon id="Iraq" class="st0" points="55.1,46.6 54.4,46.3 53.3,45.9 52.3,45.2 51.9,41.7 50.2,41.7 49.8,40.3 49.8,38.6 
	51.2,37.5 49.8,35.1 48.8,34.7 47.7,32.6 47.4,32.3 46.7,32.3 42.5,29.8 41.4,29.8 41.1,30.2 40,29.5 40,28.8 39.7,28.4 40.4,27 
	39,26 39,25.3 37.6,24.9 36.9,24.2 36.2,24.2 36.2,23.5 36.9,22.8 36.5,22.5 36.5,21.4 36.9,19.7 37.2,19 37.6,17.2 38.3,17.6 
	39,17.2 39,15.1 38.6,14.8 38.3,13.4 39,13.4 40,13 40.4,12.7 40,12.3 39.3,12 37.9,12 37.2,12 35.5,10.9 34.4,10.6 33.4,10.2 
	33,8.8 32.3,8.1 31.6,7.8 31.3,6.7 31.3,5.7 30.6,4.3 29.5,4.3 28.1,4.6 27.4,4.3 27.4,3.2 26.7,2.5 25.3,3.2 23.2,2.5 21.1,2.5 
	20.4,2.9 19,2.9 17.6,4.3 18,4.6 17.3,5.7 16.6,5.7 15.5,6.7 13.4,7.1 12.4,8.8 12.4,10.6 13.4,12.7 13.4,14.4 12.4,16.5 12.7,17.2 
	12.7,18.6 11.7,20 11.3,20.7 1.5,27.7 1.5,28.1 1.5,28.1 4.3,35.1 9.2,35.8 34.8,53.6 45.3,53.6 46.3,51.5 47.7,48.7 50.2,47.7 
	51.9,48.4 53.3,48 53.7,48 54.4,47 "/>
</svg>
