<?xml version="1.0" encoding="utf-8"?>
<!-- Generator: Adobe Illustrator 19.2.0, SVG Export Plug-In . SVG Version: 6.00 Build 0)  -->
<svg version="1.1" id="Layer_1" xmlns="http://www.w3.org/2000/svg" xmlns:xlink="http://www.w3.org/1999/xlink" x="0px" y="0px"
	 viewBox="0 0 56 56" style="enable-background:new 0 0 56 56;" xml:space="preserve">
<style type="text/css">
	.st0{fill:#FDC414;}
</style>
<polygon id="Iran" class="st0" points="2,6.2 2.2,6.2 2.5,6.6 2.8,6.6 3,7.1 3,7.4 4,8.1 4.2,8.6 4.9,9 5.6,9 6.4,9.5 6.4,9 6.4,9 
	7.1,9 7.5,9 8,8.8 8,8.5 8.1,8.3 8.5,8.3 9,7.6 9.3,7.4 9.7,7.1 10,6.9 10.5,6.6 10.7,6.6 10.9,6.7 11,6.7 11.4,7.3 11.7,7.6 
	11.4,7.8 11.5,8.1 12.1,8.5 11.2,9.1 12.1,10 12.6,10.3 12.7,10.5 13.2,10.7 13.4,10.5 13.4,10.7 13.8,11.2 13.9,11.9 13.8,12.5 
	13.9,12.7 14.3,12.9 14.8,13.4 15.5,13.4 16,13.6 16.5,13.2 17.2,13.7 17.5,13.7 17.7,14.3 18.2,14.8 19.6,15.3 20.1,15.4 
	21.8,15.8 22.5,15.8 24.3,15.3 25.7,15.1 27.2,15.3 27.7,15.4 27.9,14.8 27.6,14.1 27.2,13.4 27.9,13.1 29.1,13.1 29.4,12.4 
	29.8,11.9 30.1,11.9 31.3,10.8 32.3,10.7 33.4,10.8 33.5,10.3 34.2,10.2 34.7,10.3 35.2,10.3 36.3,11 37.1,11.4 38.7,12.4 39,12.2 
	39.5,12 40.5,12.4 41,12.5 41.2,13.4 41.6,13.6 42.1,13.4 43.1,13.6 44.1,15.1 45.3,15.3 46,15.4 46.5,16.3 46.3,16.6 46.5,17.3 
	46.5,17.7 46.7,18.2 46.7,19 46.7,19.4 46.5,19.7 46.8,20.2 46.8,20.4 46.8,20.7 46.2,21.1 45.5,21.2 45.8,21.6 46.2,21.9 
	45.6,22.8 45.8,22.8 46,23.8 46,24.3 46.8,24.5 47.2,24.5 46.3,25.5 46.2,26.2 46.8,27.7 47.3,28.9 47,29.3 47.3,29.8 47.3,30.8 
	49.7,30.8 50.2,31.6 50.1,32.5 50.4,33.5 50.2,33.9 48.2,36.6 49.6,38.5 49.9,39 50.6,39.8 51.3,40.2 51.4,40.3 52.3,40.5 
	52.8,40.7 53,41 53.7,41 53.7,41.9 53.8,42.6 54,43.2 54,43.7 54.7,43.7 55.4,44.3 55.5,45.3 55,45.6 54.3,45.3 53.1,45.6 52.8,46 
	52.1,46.3 51.8,46.8 52,47.3 51.4,47.8 51.8,48.5 51.6,49.5 51.6,49.9 51.4,49.9 51.4,50.1 50.9,50.4 50.1,50.1 49.4,49.7 
	49.2,49.4 48.9,49.4 48.7,49.9 48.5,49.9 48.2,49.5 47.9,49.5 47.3,49.4 46.3,49.4 45.5,49 43.9,49.2 43.3,48.5 43.1,48.5 42.4,49 
	41.9,48.5 41.2,48.7 39.8,48.7 39.8,48.3 39.5,48.2 39.5,47.5 38.8,46.5 38.7,45.4 38.1,44.8 38.1,44.4 37.8,44.6 37.8,44.3 
	36.9,44.3 36.4,44.4 35.6,44.9 35.1,44.9 35.1,44.6 35.1,44.9 33.9,45.6 33,46.5 32,45.8 31,45.4 30.5,45.6 30.1,45.8 29.3,44.9 
	28.8,44.9 28.3,44.6 27.7,44.4 26.9,43.6 27.2,43.4 27.2,43.1 26.7,43.1 26.5,42.9 25.7,42.9 25.4,42.6 24.7,42.2 23.8,42.4 
	23.1,42 22.5,40.3 22.3,39.8 22.1,40 21.6,39.5 21.6,39.3 21.8,39.5 22.1,39.5 21.8,39 21.4,39.1 21.1,39 21.1,38.1 20.1,36.9 
	19.9,36.4 19.4,35.6 19,35.6 18.4,36.2 18,36.1 17.9,35.7 17.5,35.7 17,35.6 17,35.2 17.2,34.9 17,35.1 16.7,35.1 16.3,35.1 
	16.7,35.4 16.7,35.9 16.3,36.1 16,36.1 15.6,35.6 15.6,35.4 15.5,35.6 15.1,35.4 14.6,35.2 14.1,34.9 13.9,33.2 13.1,33.2 
	12.9,32.5 12.9,31.6 13.6,31.1 12.9,29.9 12.4,29.8 11.9,28.7 11.7,28.6 11.4,28.6 9.3,27.4 8.8,27.4 8.6,27.5 8.1,27.2 8.1,26.9 
	8,26.7 8.3,26 7.6,25.5 7.6,25.2 6.9,25 6.6,24.7 6.3,24.7 6.3,24.3 6.6,24 6.4,23.8 6.4,23.3 6.6,22.4 6.8,22.1 6.9,21.2 7.3,21.4 
	7.6,21.2 7.6,20.2 7.5,20 7.3,19.4 7.6,19.4 8.1,19.2 8.3,19 8.1,18.9 7.8,18.7 7.1,18.7 6.8,18.7 5.9,18.2 5.4,18 4.9,17.8 
	4.7,17.1 4.4,16.8 4,16.6 3.9,16.1 3.9,15.6 3.5,14.9 3,14.9 3,14.9 3.2,14.4 2.8,13.9 2.3,12.9 1.7,12.5 1.7,12.2 1.7,11.5 2,10.7 
	1.8,10.3 1.1,10.3 1.1,9.5 1.1,9 1,7.9 0.6,7.4 0.6,7.3 1.5,7.3 1.7,6.4 "/>
</svg>
