<?xml version="1.0" encoding="utf-8"?>
<!-- Generator: Adobe Illustrator 19.2.0, SVG Export Plug-In . SVG Version: 6.00 Build 0)  -->
<svg version="1.1" id="Layer_1" xmlns="http://www.w3.org/2000/svg" xmlns:xlink="http://www.w3.org/1999/xlink" x="0px" y="0px"
	 viewBox="0 0 56 56" style="enable-background:new 0 0 56 56;" xml:space="preserve">
<style type="text/css">
	.st0{fill:#FDC414;}
</style>
<path id="Iceland" class="st0" d="M20.1,44.3l-0.4-0.8l0.4-0.8h0.8l0.4,1.2L20.1,44.3L20.1,44.3z M17.4,38.9l1.2-0.4v1.2l1.6,1.6
	l0.8,0.4l0.8-0.8h1.2l1.9,1.9h2.7l1.2,0.4l1.6-0.4l-0.4-1.6l0.4-0.4l0.4,0.8l1.6,0.4l1.2-1.2v-1.6h1.6L34.5,40l0.4,0.4l0.4-0.4h0.8
	l1.2-1.6l0.8,0.4h0.4h1.2v0.4l0.4-0.4l2.7-2.3l0.8-1.2l3.1-0.8l0.8-0.8L47,33.4v-0.8h0.4l0.4,0.8l1.6,0.4l0.8-0.8v-0.8l-0.4-0.4
	v-0.8l0.8-0.4l-0.4-1.6l0.4-0.4l1.2,0.8l0.4,0.8h1.2l0.8-1.2L53.6,28l-1.2-1.2v-1.2l0.8-0.4v-1.2l1.2-0.4h0.8l0.4-0.8l-1.2-1.2
	L52,21.4l-0.8,0.8L52,21v-0.8h-1.6l-0.4,0.4l-0.4-1.2l0.8-1.2l0.8-0.4l-0.4-1.6l-0.8-0.4l-0.8,0.8l-0.8-1.6L48.1,14l1.2-0.4v-0.8
	l0.4-0.4l1.2-0.4l-1.2-0.4L48.9,12L47,14l-0.4,1.2h-0.8L45,14l0.4-0.8L45,12.4l-0.4-1.2l-1.2-0.4l-0.8,0.8l-0.8-0.4l-0.4,1.2
	l0.4,1.2l-0.4,0.8h-1.2l-1.2,0.4v-1.2l-0.8-0.4l-0.8,1.2l-0.8,1.6h-1.2L34.5,14l-0.8,0.4L33.3,14h-0.8l-0.4,1.9l1.2,2.3l-1.2,3.1
	l0.4-2.7l-1.2-1.9v-0.8L31,15.5v-1.2l-1.2-0.8l-2.3,1.6l-0.4,1.2l0.4,1.2L26.3,19h-1.2v-1.9l-0.8-0.4v-2.3l-0.8-0.8l-1.6,1.2
	l0.4,2.7l0.8,0.8v1.9L22.5,21h-1.2v-1.6l-1.2,0.8l-0.4,1.6L19,22.1v1.9l-0.8-1.9h-0.8v-0.8l0.8-1.2v-0.8h-1.6l0.4-0.8l-0.8-1.6
	l0.8,0.4l0.8-1.2l-0.4-0.8l-1.2-0.4l1.2-0.8l-0.8-1.2l-0.8,0.4l-0.4-0.8L13.9,12v-1.2l-0.8-1.2l-1.2,0.4l-1.2-0.4H8.8v0.4l0.4,0.8
	H10v-0.4h0.8l0.8,0.4l0.8,0.4l-0.4,0.4l-1.2-0.4H9.6v0.4l1.6,1.2l1.2,1.2l-0.4,0.8h-0.4v0.4l-1.2-0.8l-0.8,0.8l-0.8-0.4L9.2,14
	l-1.2-1.2l-1.2-0.4l-0.8,0.4L6.9,14l-0.4,0.8l-0.8-1.2l-1.2-0.4L4.2,14l0.8,0.8l0.8,0.4l0.4,0.8l-1.2-0.4l-1.2,0.4l0.8,0.8l1.6,0.4
	H5.3l-0.4,0.4l0.4,0.8H4.9l-1.6-1.6H3l-0.4,0.8L3.4,19l0.4,0.8l-0.4,0.4l-1.2-1.6l-1.2-0.4l-0.8,1.2l1.2,0.4L2.6,21l1.6,0.4l0.8-1.2
	l1.2-0.4l0.4-1.2l0.4,0.8v0.8h0.8l0.8-0.4L8.8,21h0.4l0.8-0.8l0.4-0.8v1.2h0.4l1.2-1.2v0.4l-0.4,0.8l0.4,0.4l0.8-0.8l1.2,0.8
	l-0.8,0.4h-0.8l-0.8,0.8h-1.2l-1.6,0.8v0.4l1.9,0.4h1.2l0.4-0.8l0.8-0.4v0.8l-0.8,0.8l-1.9,0.4l-0.8-0.4l-0.8,0.8l-0.4-0.8l-0.4-0.4
	v-0.4H7.3v0.4l0.4,0.4l-0.8,0.8l-0.8-0.4H4.9l-1.2,0.4l-1.2-0.4l-0.8,0.4H1.4L2.2,26l0.4,1.2h1.6v-0.4l1.9,0.4h2.3h1.2v0.4L8.8,28
	v0.8l1.2,0.8l0.4,0.8h0.8l1.6-1.2l-0.4,0.8l-1.2,0.8l-0.8,0.8l0.8,0.8l1.6-1.2l1.2,0.4l0.4,0.8l-0.8-0.4l-1.2,0.4L11.6,33h-1.2v0.8
	L10,34.6H9.2L8.4,35l-0.4-0.8l-1.2-0.8v0.4H6.5l0.4,1.6l0.4,0.4l-0.4,0.4v1.9h1.6l0.4-0.4l0.8,0.4l1.9,0.4l1.6-1.2l1.2,0.8l0.8-0.4
	l0.4,0.8L17.4,38.9z"/>
</svg>
