<?xml version="1.0" encoding="utf-8"?>
<!-- Generator: Adobe Illustrator 19.2.0, SVG Export Plug-In . SVG Version: 6.00 Build 0)  -->
<svg version="1.1" id="Layer_1" xmlns="http://www.w3.org/2000/svg" xmlns:xlink="http://www.w3.org/1999/xlink" x="0px" y="0px"
	 viewBox="0 0 56 56" style="enable-background:new 0 0 56 56;" xml:space="preserve">
<style type="text/css">
	.st0{fill:#FDC414;}
</style>
<path id="Italy" class="st0" d="M7.9,18.7l-0.3-0.8l0.5-1.4H6.8l-1.4-0.8l-0.3-2.2l-1.1-1.1l0.5-0.5h1.1L6,10.6L5.2,9.8V8.7l0.3-0.5
	l1.1,0.3l1.6-1.4l1.1,0.5l1.6-2.7l1.1,0.5v1.1l1.4,0.5l0.5,0.8l0.8-1.6V5.2l1.9,0.5h0.8l0.8,0.5l0.3-1.6l1.6-0.3L19.5,3l0.8-1.1
	l1.4,0.5l2.2-1.4l0.8,0.3H26v0.8l2.2,1.4l2.7,0.5h1.4l0.5,0.5L31.7,6L32,6.5l-0.5,0.8l0.3,1.4l-1.1-0.3l-0.5,0.3l-0.5,0.5h-0.8
	L27.9,10h-0.8l-0.3,0.5l0.5,0.8l0.5,0.8l-0.5,1.1l-0.3,0.3l0.5,1.1V16l0.5,0.5l1.9,1.1l1.1,0.5l0.5,0.8l2.7,2.7v0.8l0.3,0.3v0.8
	l0.5,0.8l0.8,0.8l0.5,1.1l1.4,1.1l0.5,0.5l0.8,0.3l0.5,0.3h1.6l0.5,0.3l1.1-0.3l0.8,0.3l-0.3,0.5l-1.1,0.8v0.3l0.5,0.5h0.8l1.6,0.3
	l3.2,1.9l1.4,1.1l0.8,0.8l1.4,0.3l0.8,0.5l0.3,0.5v1.1l-0.3,0.5v0.8L52.8,39v0.3L52,39l-0.5-0.8l-0.3-0.8v-0.5l-0.5-0.3h-1.4
	L49,36.3l-0.8-0.5h-0.5L47.4,36l-0.3,1.1l-0.5,0.5v0.5l-0.3,0.5l-0.5,0.5v0.5l0.3,0.5h0.5l1.1,1.1l0.3,0.5L47.6,43l0.3,0.3l-0.3,0.5
	l-0.8,0.3L46,44.9v1.9l-1.1,0.8l-0.3,0.8l-0.5,0.8h-1.4L42,48.4v-0.5l0.3-0.3l0.5-0.3l0.5-0.5V46v-0.8l0.3-0.3h0.3l0.5-0.5v-0.8
	l-0.5-0.8l-0.3-1.6L43,40.6l-0.3-1.4l-0.3-1.4L42,37.6l-0.5,0.3l-1.1-0.3l-0.3-0.8h-0.8l-0.5-0.5L39,36v-0.8l-0.5-0.8h-0.8h-0.8
	v-0.5L36,33.6l-0.5,0.3l-0.5-0.3l-0.8-1.6h-0.8l-0.8-0.3L32,32.2h-0.8l-0.3-0.8l-0.8-0.5h-0.8l-1.6-1.4L26,27.4l-0.5-0.3l-0.3-0.5
	l-0.8-1.1H23v-0.8L22,23.6l-0.5-0.8l-1.1-0.5v-1.1l-0.5-0.5v-0.8L19,18.4l-0.3-0.5l-0.3-0.5l-0.3-0.8l-1.4-0.3L16,15.7l-2.7-0.8
	l-2.2,1.4v0.8l-0.8,0.8L7.9,18.7L7.9,18.7z M10.9,33h0.3v-0.3l0.3-0.3l-0.3-0.3l-0.3,0.5L10.6,33L10.9,33L10.9,33z M21.7,26l0.5,0.3
	L21.7,26L21.7,26L21.7,26z M18.4,23.6l-0.3,0.3l0.5,0.3l0.8-0.3h0.5v-0.5l-0.3-0.5L19.5,23L18.4,23.6L18.4,23.6z M13,44.4l0.3-0.3
	l0.5,0.3l0.5-0.3V43l0.3-0.5h0.8L16,43h0.5l0.3-0.5v-1.6l0.3-0.5l-0.3-1.6l0.3-1.6L16,36l0.8-0.5v-0.5l-0.3-1.1L16,33.3l-0.5-1.1
	l-0.3,0.3l-0.8-0.5h-0.5l-1.6,1.9h-0.5l-1.1-0.5v0.8l-0.3,0.5l0.5,0.5l0.3,0.5l0.5,0.5v1.1l-0.5,0.5l0.3,0.5h0.8v0.3l-0.5,0.5
	l-0.3,1.4l0.3,0.5l0.5,1.6L13,44.4L13,44.4z M40.1,55.5v-1.1l0.5-0.5V53L39.8,52l0.8-2.2l0.8-0.8l0.3-1.1l-0.5-0.8l-1.1,1.1h-0.5
	l-0.8-0.5l-0.8,1.1H36l-1.6,0.5L33.3,49l-0.8-0.5h-0.8L31.1,49l-0.3-0.3l-1.1,0.5v1.4l0.8,0.8l0.8-0.3l1.6,1.1l0.8,0.3l0.8,0.8
	l1.9,0.8l0.3-0.3l0.8,0.5l0.3,0.5L40.1,55.5L40.1,55.5z"/>
</svg>
