<?xml version="1.0" encoding="utf-8"?>
<!-- Generator: Adobe Illustrator 19.2.0, SVG Export Plug-In . SVG Version: 6.00 Build 0)  -->
<svg version="1.1" id="Layer_1" xmlns="http://www.w3.org/2000/svg" xmlns:xlink="http://www.w3.org/1999/xlink" x="0px" y="0px"
	 viewBox="0 0 56 56" style="enable-background:new 0 0 56 56;" xml:space="preserve">
<style type="text/css">
	.st0{fill:#FDC414;}
</style>
<polygon id="Jordan" class="st0" points="5.8,47.8 5.8,47.8 5.8,46.4 6.5,45 6.5,42.9 7.9,40.1 7.2,36.6 7.9,36.6 7.9,33.8 
	8.6,31.7 8.6,29.6 9.3,21.2 9.3,19.1 9.3,16.3 10,15.6 10,14.2 10,12.1 10.7,12.1 11.4,10.7 12.8,10 13.5,10 17,11.4 19.8,13.5 
	20.5,13.5 21.9,14.2 43.5,0.9 49.1,14.9 48.4,14.9 44.2,19.1 28.2,24 40.7,37.3 35.8,42.9 35.8,46.4 27.5,47.8 19.1,55.5 8.6,52 
	5.1,52 5.1,52 5.8,49.2 "/>
</svg>
