<?xml version="1.0" encoding="utf-8"?>
<!-- Generator: Adobe Illustrator 19.2.0, SVG Export Plug-In . SVG Version: 6.00 Build 0)  -->
<svg version="1.1" id="Layer_1" xmlns="http://www.w3.org/2000/svg" xmlns:xlink="http://www.w3.org/1999/xlink" x="0px" y="0px"
	 viewBox="0 0 56 56" style="enable-background:new 0 0 56 56;" xml:space="preserve">
<style type="text/css">
	.st0{fill:#FDC414;}
</style>
<path id="Japan" class="st0" d="M24.7,26.9l0.1,0.2l-0.1,0.1h-0.1L24.7,26.9L24.7,26.9z M24.9,26.9L24.9,26.9v-0.3h0.2l0.1,0.2
	l-0.1,0.1H24.9L24.9,26.9z M13.6,55.4l-0.1-0.2h-0.2l-0.1,0.3h0.2L13.6,55.4L13.6,55.4z M13.8,55.2L14,55l0.1,0.1L14,55.4h-0.2V55.2
	L13.8,55.2z M15.5,53.9v0.3l0.1,0.1h0.2L16,54L15.5,53.9L15.5,53.9z M19.5,50.7l-0.1-0.5l0.3-0.2v-0.1l-0.1-0.1l0.3-0.2l0.2-0.3
	l0.1,0.3l-0.1,0.2v0.3l-0.5,0.2v0.3L19.5,50.7L19.5,50.7z M21.1,47.1l0.2,0.2l0.1,0.3l-0.1,0.1l-0.2-0.2v-0.2V47.1L21.1,47.1z
	 M21.8,46.4l-0.1-0.1h-0.3l-0.1-0.1l0.1-0.2l0.3-0.1h0.1l0.1-0.1h0.2l0.1-0.1l0.2-0.1l-0.2,0.3l-0.3,0.2L21.8,46.4L21.8,46.4
	L21.8,46.4z M31.2,10.4l-0.1-0.2V9.9l0.2-0.2l0.2-0.1l-0.1,0.3v0.3L31.2,10.4L31.2,10.4z M33.4,12.1l-0.3-0.2L33,11.5l0.1-0.1
	L33,10.7l-0.2-0.6l-0.2-0.2l-0.3-0.2h-0.2V9.5V9l-0.1-0.3l0.1-0.3l0.2-0.1l0.1-0.1h0.2l0.1-0.3l0.1-0.2V7.4l-0.3-0.2h-0.1L32.2,7
	l0.1-0.2l0.2-0.1L33.1,7l0.6,0.1L33.9,7V6.8L34,6.7l-0.1-0.5l-0.1-0.1l-0.1-0.2l-0.2-0.3l-0.1-0.3l0.2-0.3h0.1V4.7l-0.1-0.3
	l-0.2-0.6l0.1-0.2V2.9l-0.1-0.5l-0.6-0.8l-0.1-0.5l-0.1-0.2l0.1-0.1h0.1L33,0.6V0.4h0.5l0.1,0.2l0.6,0.5l0.5,0.1l0.2,0.5l0.8,0.8
	l0.5,0.3l0.1,0.2l0.3,0.1l0.3,0.3l0.6,0.2h0.5l0.3,0.3h0.2l0.1,0.1l0.5-0.1l0.6-0.3L40,3.5l0.1-0.3L40.2,3l0.1,0.1v0.3L40.1,4v0.5
	l0.1,0.1l0.5,0.2L41,5.2v0.2v0.2h0.2l0.1-0.2l0.2-0.2h0.2l-0.1,0.2l-0.1,0.1v0.3L41.4,6L41,6.1l-0.1,0.2l-0.1,0.2h-0.2l-0.1-0.1
	l-0.2,0.2v0.2h-0.6l-0.3-0.1L39,6.9l-0.5,0.7l-0.2,0.7l-0.1,0.6l0.1,0.5l-0.1,0.3v0.2l-0.3-0.1l-0.2-0.2L37,9.5l-0.6-0.2L36,8.8
	l-0.3-0.3h-0.3L35,8.3l-0.1-0.1h-0.3l-0.5,0.3l-0.5,0.6L33.4,9L33,8.8h-0.2L32.5,9v0.3l0.1,0.2L33,9.8l0.3-0.1l0.5,0.5l0.3,0.1h0.5
	l0.1,0.2l-0.2,0.3l-0.1,0.2l-0.2-0.2h-0.5L33.4,11v0.2l-0.1,0.3L33.4,12.1L33.4,12.1z M32.9,22.2v-0.3l0.1-0.2h-0.1l-0.2,0.1v-0.2
	l0.1-0.6l0.1-0.1L33,21v0.2l0.2,0.1l0.1,0.2l-0.1,0.3L32.9,22.2L32.9,22.2L32.9,22.2z M19.5,34.5l0.2,0.1l0.1-0.1H19.5L19.5,34.5
	L19.5,34.5L19.5,34.5z M19.3,34.7L19.3,34.7L19.3,34.7L19.3,34.7L19.3,34.7z M19.1,35l0.1,0.1l0.1-0.1H19.1L19.1,35z M18.9,35.1
	L18.9,35.1h0.2H18.9L18.9,35.1z M18.6,36l-0.1-0.3v-0.2l0.2-0.1v0.2l0.2,0.1l0.1,0.2L18.9,36H18.6L18.6,36z M21.4,36.2V36l0.1-0.1
	l0.1,0.1v0.2H21.4L21.4,36.2z M21.1,36.8l0.1-0.1h0.1L21.1,36.8L21.1,36.8L21.1,36.8z M21,35.9L21,35.9l-0.1,0.5l0.1,0.2h0.1
	l0.1-0.3L21,35.9L21,35.9L21,35.9L21,35.9z M28.8,31.5l-0.1-0.3v-0.2l0.1-0.2H29l0.1,0.2v0.2l0.1,0.1v0.2L28.8,31.5L28.8,31.5z
	 M27.4,31.2l0.2-0.2h0.2v0.2l-0.2,0.1L27.4,31.2L27.4,31.2z M25.8,35l0.1,0.1L26,35l0.2,0.1h0.1v-0.2L26,34.5l0.1-0.3l0.1-0.6
	l0.5-0.2l0.1-0.2h0.5l0.5,0.3l0.1,0.2l0.2-0.1l0.1-0.7l0.5-0.3v-0.2l-0.1-0.1L28.5,32l-0.3-0.3h-0.2l-0.2-0.2h-0.5l-0.5,0.3V32
	l-0.1,0.2l-0.3,0.1L26,32.6h-0.2l-0.2-0.5h-0.1L25,32.7V33l-0.3,0.2l-0.1,0.3l0.5,0.1l0.1,0.3L25,34.2v0.2l0.2,0.5L25.8,35L25.8,35
	L25.8,35z M23.5,41.1l-0.2-0.2H23l-0.1,0.2l0.2,0.3l0.3,0.1l0.1-0.1L23.5,41.1L23.5,41.1z M23.7,40.8l-0.1-0.6v-0.2l0.2,0.2v0.3
	L23.7,40.8L23.7,40.8L23.7,40.8z M23.1,39.7l0.3-0.2l0.3-0.5l-0.3-0.3v-0.2l0.1-0.1l0.2,0.1l0.1,0.1l0.1-0.3v-0.6L24,37.4v-1v-0.6
	l0.2-0.3l0.3-0.3l-0.1-0.2h-0.2v-0.3H24l0.1-0.2h-0.6l-0.1-0.1l0.2-0.2l0.1-0.2l-0.1-0.5l-0.2-0.1h-0.2v0.1l-0.2,0.2h-0.2L22.3,33
	l0.1-0.2l0.6-0.2l0.5-0.1l0.6,0.2l0.2,0.1v-0.1v-0.2v-0.3v-0.2l0.1-0.2h0.2l0.1,0.2H25l0.3-0.1l0.6-0.1l0.6-0.2h0.3l0.1,0.1l0.2-0.1
	v-0.1l0.3-0.2l0.1-0.2l0.5-0.3l0.5-0.1l0.6,0.1l0.3-0.1l0.1,0.1v0.3l-0.2,0.3l-0.1,0.3l0.1,0.1V32v0.3v0.1l0.1,0.3l0.3,0.1l0.5,0.5
	l0.3,0.1l0.2-0.1l0.3-0.6v-0.3l0.2-0.1v-0.2l-0.1-0.2l0.2-0.5h0.3h0.2l0.1-0.2l-0.1-0.1L32,30.7l-0.7-0.2l-0.1-0.2l0.1-0.5l0.2-0.2
	h0.1l-0.1,0.1V30l0.1,0.1l0.1-0.1l0.1-0.1l0.2,0.1l0.2,0.1l0.2-0.1h0.1l-0.1,0.1l-0.3,0.1v0.1l0.1,0.1l0.2-0.1l0.5-0.2l0.9,0.1h0.5
	l-0.1-0.1l-0.1-0.3l0.1-0.5l0.3-0.2H35l0.1,0.3L35,29.8l0.1,0.2h0.2l0.2-0.3l-0.2-0.6l0.1-0.3l0.5-0.3h0.2l0.1-0.1L36.2,28l0.1-0.5
	l0.2-0.1l0.3,0.1l0.1,0.2L36.9,28l-0.1,0.5l0.1,1l0.1,0.1l0.2-0.1l0.1-0.3h0.3l0.3-0.3l0.1-0.5L38,28l0.3-0.3v-0.2l-0.2-0.2
	l-0.5-0.6l-0.1-0.5l-0.1-0.9l0.1-1v-0.7l-0.3-1.3l-0.5-0.6v-0.5l0.1-0.6l0.6-0.2h0.2l0.1,0.2l0.1-0.1l-0.1-0.5l-0.1-0.2l-0.1-0.1
	l-0.1-0.3v-0.2v-0.2l0.1-0.2v-0.1v-0.2l-0.1-0.1v-0.5l0.1-0.2l-0.1-0.2l-0.1-0.7L37,16h0.3l-0.2-0.1v-0.8l-0.3-0.3L36.1,14l-0.2-0.3
	L35.7,13v-0.6v-0.2l-0.2,0.1h-0.1l-0.1-0.1l-0.3-0.1h-0.2v0.1l-0.2,0.5V13l0.1,0.1l0.1-0.1l0.5-0.3l0.2,0.5l-0.1,0.3L35,13.6
	l-0.2-0.2h-0.1l0.1,0.5L34.7,14l-0.2-0.1l-0.1-0.3l-0.1-0.3l-0.1-0.2L33.9,13l-0.2-0.1l-0.1,0.2l0.1,0.6v0.3l-0.2,0.1l-0.2,0.3v0.2
	l0.5,0.5l0.1,0.2l-0.1,0.5L33.4,16l-0.2-0.1l-0.1,0.2l0.2,0.3l0.2-0.1l0.2-0.2l0.3,0.8l0.1,0.9l-0.1,0.5v0.8l-0.3,1.3l0.1,0.5
	l-0.1,0.6l-0.5,0.2l-0.2,0.6v0.6l-0.2,0.3l-0.1,0.3L32.3,24l-0.8,0.5l-0.3,0.1L31,24.9l-0.5-0.2l-0.5-0.6v-0.2l0.2-0.1l0.2-0.3v-0.2
	l0.2-0.2v-0.1L30.3,23L30,23.3l-0.3,0.1l-0.1,0.3l0.2,0.5V25v0.5L29.3,26v0.2l-0.1,0.1L29,27l0.1,0.2v0.2L29,27.6l0.1,0.1L29,27.9
	h-0.2l0.1,0.1l-0.2,0.1L28.5,28l-0.2,0.2l-0.1-0.1L28,27.8h-0.1l-0.2,0.1h-0.2l-0.1-0.1L26.5,28L26,28.2l-0.5,0.1h-0.5l-0.5,0.1
	l-0.1-0.1h-0.3l-0.7,0.5l-0.1,0.5l-0.2,0.1L23,29.6l-0.5,0.6l-0.3,0.1L22,30.6l-0.1,0.2l-0.2,0.2l-0.5,0.1l-0.1,0.2l0.1,0.6l0.2,0.1
	l0.1,0.2l-0.1,0.2h-0.3l-0.3,0.3l-0.1,0.2l-0.2,0.2L20,33.7l-0.1,0.2h-0.3l-0.3,0.2h0.1h0.1l0.1,0.3l0.1,0.5l-0.1,0.1l-0.1-0.2
	l-0.1-0.2l-0.1,0.2l0.1,0.3l0.2,0.1v0.2l-0.1,0.2l0.2-0.1l0.1-0.2l0.2-0.1l0.2,0.1l-0.1,0.1l0.1,0.1l0.2-0.1v-0.3l0.7-0.1l-0.3,0.1
	v-0.1L21,35l-0.1-0.2l0.1-0.2l0.3,0.1l0.3,0.6v0.3l0.1,0.2v0.6l-0.2,0.6h-0.3l0.1,0.2l0.2,0.5l0.1,0.6l0.3,0.3v0.3l-0.1,0.2l0.2,0.2
	h0.2l0.2,0.1l0.1-0.1v-0.2l-0.2-0.5v-0.6l0.1-0.2l0.2,0.1l-0.1,0.1v0.1l0.2,0.2l0.1,0.5l-0.1,0.2L23.1,39.7z"/>
</svg>
