<?xml version="1.0" encoding="utf-8"?>
<!-- Generator: Adobe Illustrator 19.2.0, SVG Export Plug-In . SVG Version: 6.00 Build 0)  -->
<svg version="1.1" id="Layer_1" xmlns="http://www.w3.org/2000/svg" xmlns:xlink="http://www.w3.org/1999/xlink" x="0px" y="0px"
	 viewBox="0 0 56 56" style="enable-background:new 0 0 56 56;" xml:space="preserve">
<style type="text/css">
	.st0{fill:#FDC414;}
</style>
<path id="Kenya" class="st0" d="M14.3,8.4l0.6-0.6h0.3l0.6-0.6l1-1l0.6,0.3l1.3-1.9l1.9-2.3l0.6,1l1-0.3H23v2.9l1,1l1,0.3l1.3-0.3
	l1.3,0.3h2.6l1,0.6l2.3,1.9l1.3,1l1,1l0.6,0.3h1.9l1,0.6l1.3-0.3l1,0.3h0.6h1l1.3-1.9l0.6-0.6l1-0.3h0.6l0.6-0.3l2.3-0.3l0.6,0.3
	l0.6,1l1,0.6l1.9-0.3h1.3l-4.9,4.5v20.1l3.6,3.2v0.3l-1.6,1.9h-0.3l-0.6,0.6l0.3,0.6l-1.6,0.6l-1,1.3h-1.6l-0.6,0.3v0.3l-0.6,1v0.6
	l0.3,0.3l-1,1.3l-1,1v1.3l-0.6,1.6l-1.9,2.6l-1,0.3h-0.3L34,50.3l-0.3-0.6L33.4,49l0.3-0.6l-1-1.6l-18.8-11h-1.3l1.3-4.9l0.3-1.3
	l1-1l0.6-1.3l1-0.6l0.3-1l0.6-0.6v-0.3h1.6l0.3-1.3V22l1.3-1.3v-1l-0.3-1l-0.6-0.6l0.3-0.6l-0.6-0.3l-0.6-0.3l-0.6-1.6l-1.3-1v-1
	l-0.3-1h-0.6v-1L15.6,11l-0.3-1.3L14.3,8.4L14.3,8.4L14.3,8.4L14.3,8.4z M1,35.7h1.9h1.9H1L1,35.7z"/>
</svg>
