<?xml version="1.0" encoding="utf-8"?>
<!-- Generator: Adobe Illustrator 19.2.0, SVG Export Plug-In . SVG Version: 6.00 Build 0)  -->
<svg version="1.1" id="Layer_1" xmlns="http://www.w3.org/2000/svg" xmlns:xlink="http://www.w3.org/1999/xlink" x="0px" y="0px"
	 viewBox="0 0 56 56" style="enable-background:new 0 0 56 56;" xml:space="preserve">
<style type="text/css">
	.st0{fill:#FDC414;}
</style>
<polygon id="Cambodia" class="st0" points="24.8,50.3 26.7,48.3 28.7,47.7 30.1,45 32.1,45 33.4,45.7 38,44.3 40,45.7 40.7,47 
	44,46.3 43.4,44.3 43.4,43 41.4,41 39.4,40.3 38.7,37 40.7,35 44.7,35 46,33 48.7,31.7 51.3,30.4 52,29.1 54,28.4 55.3,25.7 
	54.7,23.1 55.3,20.4 54.7,18.4 55.3,15.1 53.3,11.1 51.3,9.8 50,6.5 48.7,6.5 46.7,5.1 45.4,5.1 44,3.1 40.7,3.8 38.7,5.8 41.4,7.8 
	40.7,9.8 41.4,11.8 41.4,13.1 38,11.8 36.1,9.1 33.4,9.1 32.1,7.8 30.1,5.8 28.7,6.5 26.7,5.1 23.4,5.1 21.4,4.5 19.4,4.5 16.1,5.8 
	15.5,5.1 12.1,4.5 7.5,6.5 5.5,6.5 3.5,9.1 2.8,12.4 0.8,15.1 0.8,19.1 1.5,23.1 3.5,23.7 4.2,25.7 4.2,29.7 3.5,31.7 3.5,31.7 
	5.5,33 5.5,35 6.8,36.4 6.8,38.4 8.1,40.3 8.8,40.3 10.1,41.7 9.5,43 10.1,44.3 10.8,46.3 12.1,46.3 13.5,46.3 13.5,44.3 14.8,43 
	15.5,42.3 15.5,43.7 16.1,45.7 16.1,47 14.8,48.3 15.5,49 16.1,50.3 16.8,50.3 18.8,48.3 18.8,47.7 20.1,49 22.1,49.6 22.8,49 "/>
</svg>
