<?xml version="1.0" encoding="utf-8"?>
<!-- Generator: Adobe Illustrator 19.2.0, SVG Export Plug-In . SVG Version: 6.00 Build 0)  -->
<svg version="1.1" id="Layer_1" xmlns="http://www.w3.org/2000/svg" xmlns:xlink="http://www.w3.org/1999/xlink" x="0px" y="0px"
	 viewBox="0 0 56 56" style="enable-background:new 0 0 56 56;" xml:space="preserve">
<style type="text/css">
	.st0{fill:#FDC414;}
</style>
<polygon id="North_Korea" class="st0" points="11.8,35.3 11.8,31.5 13.5,29.8 14.3,28.1 14.3,27.2 16,26 17.3,23.9 18.5,23 
	19.4,20.1 20.2,18.8 20.2,18 20.2,15.8 21.5,14.6 22.8,16.3 23.6,16.7 24.5,17.5 25.7,17.1 27.4,18 29.9,17.5 31.6,18 32.5,15.8 
	32.5,15 30.8,13.7 29.5,12.5 30.8,12 32.1,11.6 34.6,9.5 34.6,8.2 35.9,6.5 37.1,6.5 37.5,5.3 37.1,4.4 37.1,3.2 37.1,1.5 38,1.1 
	39.2,2.3 39.2,3.6 39.7,4 41.8,4.4 43.5,6.5 42.6,6.5 40.9,9.1 40.1,9.1 40.1,10.3 39.2,13.7 39.2,15.8 40.5,16.7 40.9,20.1 
	41.8,20.9 41.4,22.6 39.7,24.3 40.1,24.7 36.7,28.1 37.1,28.9 35.9,29.8 35.9,30.6 34.6,30.6 32.9,31.5 32.5,32.7 30.8,34 
	30.8,35.7 31.2,37 30.8,37.8 31.2,39.5 33.3,39.9 34.2,41.2 38.8,44.1 39.7,45.4 37.1,47.1 32.5,47.5 30.4,49.6 27.8,50.1 
	25.7,52.2 25.3,53.9 24,52.2 23.2,52.6 23.6,53.4 22.3,54.7 21.5,54.3 20.2,55.6 19.4,54.3 20.6,52.6 19.4,52.2 18.1,52.6 
	17.7,52.6 18.1,51.3 18.1,48.8 19,46.7 20.6,46.7 21.9,45.4 20.6,45.8 18.5,45.8 17.7,45.4 17.7,42 19.4,39.5 18.5,38.2 19.4,37.8 
	19.8,36.5 19,36.5 18.1,37.4 16,37.8 15.6,37 13.9,36.1 13.9,37.4 13,37.8 12.2,35.7 12.2,35.7 "/>
</svg>
