<?xml version="1.0" encoding="utf-8"?>
<!-- Generator: Adobe Illustrator 19.2.0, SVG Export Plug-In . SVG Version: 6.00 Build 0)  -->
<svg version="1.1" id="Layer_1" xmlns="http://www.w3.org/2000/svg" xmlns:xlink="http://www.w3.org/1999/xlink" x="0px" y="0px"
	 viewBox="0 0 56 56" style="enable-background:new 0 0 56 56;" xml:space="preserve">
<style type="text/css">
	.st0{fill:#FDC414;}
</style>
<path id="South_Korea" class="st0" d="M31.5,39.3l0.5-0.5l0.9,0.9l-0.9,0.5L31.5,39.3L31.5,39.3z M20.7,44.9l-0.5-0.9l0.5-0.5h0.5
	l0.5-0.9l0.5,0.9v1.4h-0.5L20.7,44.9L20.7,44.9z M37.5,36.9l-0.9,0.9v0.9l0.5,0.9l0.9-0.5l0.5-0.9v-1.4L37.5,36.9L37.5,36.9z
	 M42.7,46.7v-0.9l0.5-0.9h0.9l-0.5,0.9l-0.5,0.5L42.7,46.7L42.7,46.7z M43.6,43.5l-0.5,0.5L42.7,43v-1.4l0.5-0.9l0.5-0.5l0.5,0.5
	l0.5,0.9L43.6,43.5L43.6,43.5z M22.6,54.7l-0.5-0.9l0.9-0.9l3.3-0.9l1.4,0.5v0.9l-0.9,1.9L24,55.6L22.6,54.7L22.6,54.7z M10.9,10.8
	L10.9,10.8l1.4-0.5h2.3l-0.9,0.5l2.8,2.3l1.9,2.8h0.9l-0.5,0.9l0.9,1.4l0.5,1.4l-2.3-0.9l-0.5-0.9L17,19.2l-0.9-0.5l-1.4,2.3
	l3.3,1.4l0.9-0.5l0.9,1.4v3.3l0.9,0.5l0.5-0.5l1.4,2.3l-2.3,1.4v0.9l0.9,0.9v1.4l-0.9,0.5v1.4l0.9,1.4h-0.9l1.9,3.3h0.9l0.5,1.9
	l0.5,0.5v1.4l0.9-0.9v-1.9l0.5,0.9l0.9-1.4l3.3-2.8l1.4-0.5v0.9l0.9-1.4h0.9l0.9,1.4l1.4-0.5l0.5,0.5l0.9-0.5l-0.5-0.9L38,36h1.9
	l1.9-2.3l-0.5-0.9l0.9-0.9l-0.5-5.6h-0.5l-0.5,0.5v-1.9l-0.9-5.1l-0.9-0.9v-3.3l-4.2-5.6L31,5.7l-2.8-5.1l-2.8,1.9l-5.1,0.5
	l-2.8,2.3l-2.3,0.5L12.8,8L10.9,10.8z"/>
</svg>
