<?xml version="1.0" encoding="utf-8"?>
<!-- Generator: Adobe Illustrator 19.2.0, SVG Export Plug-In . SVG Version: 6.00 Build 0)  -->
<svg version="1.1" id="Layer_1" xmlns="http://www.w3.org/2000/svg" xmlns:xlink="http://www.w3.org/1999/xlink" x="0px" y="0px"
	 viewBox="0 0 56 56" style="enable-background:new 0 0 56 56;" xml:space="preserve">
<style type="text/css">
	.st0{fill:#FDC414;}
</style>
<polygon id="Kashmir" class="st0" points="27.4,49.8 27.8,49.4 30.2,45.6 32.1,43.7 34,43.7 35,41.8 36.4,41.8 40.7,44.6 43,43.2 
	44.9,44.1 45.4,46 47.3,46 50.6,47.9 52.5,45.6 54,46 54.4,47 55.4,45.6 54.9,42.7 54,39.4 52.1,38.9 50.6,35.6 50.6,32.3 
	49.7,30.4 46.8,28.9 44.9,27 44,23.2 41.1,21.8 38.3,20.9 38.3,19 36.9,19 34,19 30.7,18.5 30.2,17.5 28.8,16.6 28.8,14.7 
	26.9,13.3 23.1,8.5 22.6,6.1 21.2,5.2 20.2,4.7 19.8,5.7 18.8,6.1 17.9,6.1 16.9,6.6 15.5,5.7 14.5,5.7 14.1,6.1 14.1,6.1 12.1,8.5 
	8.8,9.9 3.6,11.4 4.1,12.3 0.7,14.7 0.7,18 2.2,19 3.1,18.5 4.5,18 6,19.9 8.3,21.3 10.2,22.8 10.7,24.2 12.6,24.7 12.6,26.6 
	10.7,28 10.2,29.4 9.3,29.9 9.3,32.3 10.7,34.6 11.7,39.4 12.1,41.8 15,44.1 17.9,45.1 20.2,46 21.2,47.9 23.6,48.4 25.5,47.9 
	27.4,47.9 "/>
</svg>
