<?xml version="1.0" encoding="utf-8"?>
<!-- Generator: Adobe Illustrator 19.2.0, SVG Export Plug-In . SVG Version: 6.00 Build 0)  -->
<svg version="1.1" id="Layer_1" xmlns="http://www.w3.org/2000/svg" xmlns:xlink="http://www.w3.org/1999/xlink" x="0px" y="0px"
	 viewBox="0 0 56 56" style="enable-background:new 0 0 56 56;" xml:space="preserve">
<style type="text/css">
	.st0{fill:#FDC414;}
</style>
<polygon id="Kazakhstan" class="st0" points="4.5,31.5 4.1,31.3 3.8,31.4 3.2,31.1 3.2,30.9 3.8,30.9 3.2,29.9 2.6,29.2 1.5,29 
	1.5,29.2 1,28.8 1.1,28.6 0.8,28.2 0.2,27.9 0.4,27.4 0.6,26.5 0.3,26.3 0.3,25.6 0.6,25.5 1,24.9 1,24.6 1.2,24.4 1.9,25 2,25.3 
	2.5,25.6 2.9,25.5 2.8,25.1 3,24.9 2.8,23.8 3.2,23.7 3.7,23.7 3.7,23.3 3.4,23.1 3.5,22.8 4,22.5 4.1,22.5 4.3,22.1 4.5,21.9 
	4.8,22 4.9,21.8 4.8,21.5 4.9,21.3 5.3,21.6 5.6,21.7 5.6,21.9 5.5,22.1 5.5,22.3 5.8,22.1 5.9,21.9 6.1,21.8 6.1,22 6.3,21.9 
	6.4,21.7 6.7,21.6 6.9,21.4 7.2,21.4 7.4,21.8 7.7,22 8.2,21.9 8.4,21.9 8.6,22 8.8,22 9.1,22.4 9.4,22.4 9.6,22.8 10,23.1 
	10.3,23.1 10.4,23.3 10.4,23.6 10.6,23.7 10.8,23.4 10.8,23.1 11,22.9 11.2,23.2 11.8,23.3 12,23.5 12.1,23.6 12.5,23.3 12.5,22.8 
	12.9,22.8 12.9,22.5 13.1,22.4 13.3,22.6 13.4,22.4 13.7,22.3 14.2,22.7 14.3,22.9 14.7,22.8 14.6,22.5 14.8,22.4 15.1,22.4 
	15.3,22.2 15.7,22.4 15.9,22.5 15.8,22.7 15.6,22.9 15.9,23.2 16.1,23.3 16.2,23.2 16.4,23.3 16.9,23.3 17.4,23.5 17.7,23.5 
	17.8,23.2 17.9,22.9 18,22.8 18.5,23.1 18.8,23.1 19.4,22.9 19.5,22.7 19.4,21.5 19.3,21.4 18.8,21.4 18.6,21.2 18.6,21 18.2,20.9 
	18,20.7 17.6,20.7 17.6,20.6 17.5,20.4 17.6,20.3 17.9,20.2 17.9,19.9 18.1,19.6 18.1,19.3 17.8,19.3 17.8,19 18.2,18.5 18.5,18.2 
	19.1,18.1 19.3,18.2 19.5,18.1 19.5,17.8 19.2,17.7 19,17.5 18.7,17.5 18.6,17.7 18.3,17.5 17.9,17.5 17.9,17.3 18,17.2 18.4,17.2 
	18.3,16.8 17.9,16.9 17.6,16.8 17.8,16.6 17.6,16.4 17.7,16.3 18.1,16.2 18.2,16.1 18.5,16.1 18.6,16.2 18.8,16.2 19.1,16.4 
	19.2,16.2 19.2,16 19.5,15.9 19.8,15.9 20,16.2 20,16 20,15.7 20.6,15.6 20.9,15.5 21.3,15.3 21.7,15.3 21.7,15.3 22.2,15 22.5,15 
	22.7,14.8 22.9,14.8 23.1,14.9 23.3,14.8 23.2,14.5 23.4,14.3 23.8,14.3 23.8,14.1 24,14 24.1,14.1 24.3,14.1 24.6,14 25,13.9 
	25.5,13.5 25.7,13.5 25.8,13.4 26.2,13.3 26.4,13 26.6,13.1 26.9,13 26.9,12.8 26.8,12.6 26.9,12.6 27.4,12.5 27.4,12.2 27.7,12.1 
	27.9,12.1 28.1,12 28.4,12.2 28.9,12.1 29.2,12.4 29.5,12.4 29.9,12.2 30.2,12.3 30.3,12.7 30.4,12.7 30.6,13 30.7,13.2 30.9,13.4 
	30.9,13.5 30.8,13.8 30.9,14 30.9,14.1 30.7,14.2 30.8,14.5 31,14.6 31.3,14.4 31.6,14.6 31.7,14.5 31.8,14.2 32,14.2 32,14.5 
	32.2,14.5 32.2,14.2 32.1,14 32.2,13.9 32.7,14.2 32.8,14.7 33,15.1 33.2,15.1 33.3,14.9 33.2,14.8 33.2,14.6 33.4,14.5 34,14.8 
	34.2,14.8 34.4,14.6 34.6,14.7 34.5,15 34.3,15.2 34.3,15.5 34.5,15.8 34.6,15.8 34.8,15.6 35.1,15.5 35.8,15.6 35.9,15.7 36,15.6 
	36,15.3 36.3,15.2 36.7,15.2 37,15 37.1,14.7 37.3,14.5 37.3,14.3 37.7,14 37.9,13.9 38.1,13.7 38.5,13.6 38.8,13.5 39,13.6 
	38.9,13.8 38.7,14 38.5,14.1 38.6,14.3 41.3,16.4 44.8,20.8 45.2,20.7 45.4,20.6 45.4,20.5 45.4,20.4 45.4,20 45.6,19.9 46.1,20.1 
	46,20.4 46,20.6 46.4,20.6 46.6,20.8 46.8,20.8 47,20.7 47.3,20.6 47.7,20.8 47.9,20.7 48.2,20.7 48.5,20.6 48.6,20.6 48.5,20.4 
	48.5,20.3 49,20.2 49.5,20.2 50,20.3 50.4,20.6 50.6,21 50.8,21.4 50.9,21.4 51.2,21.5 51.6,21.7 51.7,21.7 51.9,21.8 51.9,21.9 
	51.9,22 51.9,22.3 51.9,22.5 52.1,22.6 52.1,22.7 52.3,22.7 52.6,22.9 52.8,23 52.9,22.8 53.1,22.7 53.8,22.6 54.1,22.5 54.3,22.3 
	54.5,22.1 54.7,22.2 54.5,22.6 54.6,22.8 54.8,22.9 55.2,23.2 55.7,23.3 55.8,23.4 55.5,23.7 55.2,23.8 54.8,24.3 54.8,24.5 
	54.9,24.6 54.7,24.9 54.3,25.1 54.1,25.3 54,25.6 54,26.2 54.3,26.8 54.5,27.2 54.5,27.3 54.2,27.8 53.8,27.9 53.6,28.2 53.3,28.3 
	53.2,28.3 53.2,28.1 53,28.1 52.3,28.2 51.9,28.2 51.4,28 51,27.9 50.9,27.9 50.7,28.6 50.6,29 50.6,29.4 50.5,30.2 50.5,30.9 
	50.4,31.1 50.5,31.2 50.9,31.3 50.7,31.6 50.7,31.9 50.5,31.9 50.4,32 50.2,32 50,31.8 49.8,31.9 49.4,32 48.8,32.1 48.3,32.3 
	48.1,32.3 47.9,32.2 47.8,32.3 47.5,32.5 47.5,32.7 47.7,32.9 48.1,32.9 48.4,32.9 48.4,33.1 48.2,33.3 48.4,33.8 48.4,33.9 
	48.5,34.1 48.6,34.4 48.9,34.9 48.9,35.2 49.2,35.3 49.3,36 49.2,36.1 49.1,36.4 49.3,36.6 49.2,36.7 49.2,36.9 48.9,37.1 
	48.9,37.5 48.6,37.7 47.9,37.5 47.3,36.7 47.1,36.8 46.5,36.5 45.5,36.5 45.2,36.6 44.4,36.5 43.7,36.6 43.3,36.7 43,36.5 
	42.7,36.8 42.5,36.9 41.6,36.8 41.1,36.6 40.8,36.5 40.3,36.5 40.1,36.5 39.8,36.5 39.5,36.5 39.4,36.6 39.4,36.9 39.5,37.2 
	39.5,37.7 39,37.7 38.1,37.8 37.1,37.7 36.8,37.5 36.3,37.4 36,37.7 36.1,37.8 35.9,38 35.8,38.2 35.7,38.2 35.4,38.6 35.1,38.7 
	34.6,39.3 34.4,39.8 34.2,40 33.9,40.5 33.3,41.1 33.2,40.9 32.5,40.6 32,40.5 31.6,40.6 30.9,41 30.7,41 30,39.2 29,39.2 29,37.1 
	28.4,37.2 28,36.4 27.3,35.8 24.9,35.8 22.7,36.1 21.5,35.3 20.6,35 18.3,33.3 14.5,34 15.6,41 15.4,41 14.8,41.2 13.9,40.1 
	12.8,39.4 11.9,39.3 11.2,39.6 10.3,40.4 10.3,40 10.2,39.7 10.4,39.2 10.4,38.9 10.4,38.7 10.4,38.6 10.3,38.5 10,38.6 9.7,38.4 
	9.5,38.4 9.3,38.5 9.2,38.4 9.1,38.2 8.9,38 8.8,37.8 8.7,37.8 8.6,37.8 8.3,37.8 8.1,37.8 8.2,37.5 8.1,37.2 7.8,36.7 7.7,36.5 
	7.6,36.5 7.5,36.3 7.3,36.1 7.2,35.9 6.9,35.8 6.8,35.8 6.6,35.6 6.6,35.4 6.7,35.2 6.8,35.3 7.2,35.3 7.4,35.3 7.5,35.3 7.7,35.4 
	7.9,35.3 8,35.2 8.2,35.3 8.2,35.2 8.2,35.2 7.9,35.2 7.9,35.1 7.9,34.9 7.6,34.5 7.5,34.4 7.7,34.3 7.7,34 7.6,33.9 7.8,33.8 
	8.1,33.7 8.3,33.6 8.6,33.7 8.9,33.6 9.1,33.6 9.3,33.7 9.4,33.6 9.5,33.6 9.8,33.9 10,33.9 10.4,33.7 10.4,33.6 10.2,33.5 
	9.9,33.4 9.7,33 9.7,32.7 9.9,32.6 10.1,32.5 10,32.4 9.9,32.3 9.8,32.2 10,31.8 10,31.6 9.8,31.4 9.7,31.2 9.8,31.1 9.8,31 9.6,31 
	9.5,30.7 9.4,30.6 9,30.6 8.8,30.5 8.6,30.6 8.6,30.7 8.4,30.8 8.4,30.9 8.2,31 8.1,30.9 8.1,30.8 7.9,30.8 7.8,30.9 7.6,30.7 
	7.7,30.5 7.6,30.4 7.5,30.5 7.3,30.5 7.1,30.4 6.8,30.4 6.6,30.7 6.5,30.9 6.4,30.9 6.3,30.8 6.2,30.8 6,31.1 5.8,31.1 5.7,31.2 
	5.5,31.4 5.4,31.4 5.3,31.5 5.2,31.7 5.1,31.5 5,31.5 4.9,31.7 4.7,31.7 4.6,31.5 "/>
</svg>
