<?xml version="1.0" encoding="utf-8"?>
<!-- Generator: Adobe Illustrator 19.2.0, SVG Export Plug-In . SVG Version: 6.00 Build 0)  -->
<svg version="1.1" id="Layer_1" xmlns="http://www.w3.org/2000/svg" xmlns:xlink="http://www.w3.org/1999/xlink" x="0px" y="0px"
	 viewBox="0 0 56 56" style="enable-background:new 0 0 56 56;" xml:space="preserve">
<style type="text/css">
	.st0{fill:#FDC414;}
</style>
<polygon id="Laos" class="st0" points="9.7,7.6 10.4,7.9 10.7,9 12.2,8.7 13.3,8.7 12.9,7.2 12.9,6.1 12.6,4.7 12.2,2.9 13.3,2.5 
	13.3,1.4 15.1,1.4 15.8,2.1 17.6,3.2 18.7,4.7 19.5,5.4 19.8,6.5 19.5,7.6 21.3,9.4 22.7,11.2 24.9,11.6 26.4,11.9 27.4,11.2 
	29.3,11.2 30,11.9 31.4,12.3 31.8,13.4 31.8,14.5 33.3,14.8 33.3,15.6 32.5,15.9 31.8,18.1 31.1,18.8 30,18.8 28.5,19.6 27.4,19.6 
	27.8,20.6 28.9,22.1 28.2,22.8 28.5,23.6 29.3,23.6 30,25 31.8,25 33.6,26.1 34.7,26.1 36.2,28.3 37.6,29 39.1,30.5 38.7,31.5 
	40.5,33.4 41.2,34.8 42,35.2 43.4,35.2 43.8,36.3 44.2,37 44.9,38.1 45.2,37.7 46,38.1 46,39.2 46.3,39.5 47.8,39.5 48.5,40.6 
	48.9,41 50,40.3 50.3,41.3 49.6,42.1 49.2,43.5 50,44.2 50.7,44.2 50.7,45.7 49.2,47.2 49.2,48.6 49.6,49.3 50,50.8 48.9,51.5 
	47.8,51.5 46.7,50.8 46,50.8 45.2,49.7 43.4,50.1 42.3,51.1 43.8,52.2 43.4,53.3 43.8,54.4 43.8,55.1 42,54.4 40.9,53 39.4,53 
	38.7,52.2 37.6,51.1 38,50.8 38.7,50.1 39.1,47.9 38.3,47.2 39.1,46.1 38.7,45.3 39.1,43.9 39.1,43.2 37.6,42.1 38,41.7 36.9,41.3 
	35.8,41 34.7,39.9 33.6,39.2 34,38.1 34,36.6 33.3,35.2 33.6,34.4 34,33.7 33.3,32.3 32.2,31.2 29.6,29.4 28.5,27.9 26,27.2 
	24.2,27.5 23.1,30.1 20.5,30.5 19.8,29.4 18.4,29.4 16.6,28.3 14.7,29 14.7,30.1 13.3,30.5 11.8,31.5 11.5,28.3 11.5,26.5 11.1,25 
	11.8,24.3 11.8,23.2 11.1,22.1 11.8,21 11.8,19.9 9.7,19.9 8.6,20.6 7.8,20.3 7.1,18.8 7.8,18.1 7.5,16.3 6.4,14.8 4.9,15.2 
	4.2,14.1 4.9,12.7 5.7,12.7 6.8,11.6 6,10.8 6.8,9.8 6.8,9 8.6,8.7 "/>
</svg>
