<?xml version="1.0" encoding="utf-8"?>
<!-- Generator: Adobe Illustrator 19.2.0, SVG Export Plug-In . SVG Version: 6.00 Build 0)  -->
<svg version="1.1" id="Layer_1" xmlns="http://www.w3.org/2000/svg" xmlns:xlink="http://www.w3.org/1999/xlink" x="0px" y="0px"
	 viewBox="0 0 56 56" style="enable-background:new 0 0 56 56;" xml:space="preserve">
<style type="text/css">
	.st0{fill:#FDC414;}
</style>
<path id="Sri_Lanka" class="st0" d="M15.3,27.6l0.8-3.4v-2.5l1.7-0.8v0.8H17l0.8,1.7L15.3,27.6L15.3,27.6z M20.4,4.8L17,2.3V0.6h4.2
	l0.8,0.8L21.3,4L20.4,4.8L20.4,4.8L20.4,4.8z M23.8,2.3l1.7,0.8l0.8,1.7l3.4,1.7l0.8,0.8l-1.7-0.8h-2.5l-0.8-0.8l-2.5-0.8V4h1.7
	l-0.8-0.8L23.8,2.3L23.8,2.3z M21.3,5.6L21.3,5.6v1.7v0.8h-0.8V9v1.7l-1.7,2.5h-0.8l-1.7-1.7h-1.7v0.8l1.7,0.8l0.8,0.8l-0.8,0.8
	l0.8,2.5v3.4l-0.8,1.7l-0.8,5.9v1.7L14.5,31l0.8,5.1l-0.8,1.7l1.7,5.9l1.7,6.7l1.7,3.4l3.4,1.7l2.5-0.8l4.2-0.8l4.2-1.7l4.2-4.2
	l1.7-4.2l0.8-2.5v-2.5l0.8-0.8v-3.4l-0.8-1.7l0.8-1.7l-1.7-1.7l-2.5-5.9l-1.7-4.2h-2.5v-0.8h-1.7l2.5-1.7v-0.8l-0.8-0.8l-1.7-3.4
	h-1.7L28.8,9L28,8.2V6.5l-4.2-1.7l-0.8,0.8l-1.7-0.8V4L21.3,5.6z"/>
</svg>
