<?xml version="1.0" encoding="utf-8"?>
<!-- Generator: Adobe Illustrator 19.2.0, SVG Export Plug-In . SVG Version: 6.00 Build 0)  -->
<svg version="1.1" id="Layer_1" xmlns="http://www.w3.org/2000/svg" xmlns:xlink="http://www.w3.org/1999/xlink" x="0px" y="0px"
	 viewBox="0 0 56 56" style="enable-background:new 0 0 56 56;" xml:space="preserve">
<style type="text/css">
	.st0{fill:#FDC414;}
</style>
<polygon id="Lesotho" class="st0" points="8.4,44 8.4,39.5 5.4,36.5 5.4,35 2.4,32.1 0.9,27.6 3.9,24.6 9.9,20.1 11.3,14.2 
	17.3,9.7 26.3,8.2 27.7,5.2 30.7,3.7 32.2,2.2 35.2,2.2 36.7,3.7 38.2,2.2 42.7,5.2 45.6,3.7 50.1,8.2 54.6,17.1 54.6,23.1 
	50.1,26.1 45.6,29.1 47.1,32.1 48.6,33.5 47.1,36.5 42.7,39.5 41.2,39.5 36.7,39.5 33.7,41 29.2,42.5 27.7,48.5 26.3,49.9 
	24.8,52.9 20.3,52.9 14.3,51.4 12.8,47 "/>
</svg>
