<?xml version="1.0" encoding="utf-8"?>
<!-- Generator: Adobe Illustrator 19.2.0, SVG Export Plug-In . SVG Version: 6.00 Build 0)  -->
<svg version="1.1" id="Layer_1" xmlns="http://www.w3.org/2000/svg" xmlns:xlink="http://www.w3.org/1999/xlink" x="0px" y="0px"
	 viewBox="0 0 56 56" style="enable-background:new 0 0 56 56;" xml:space="preserve">
<style type="text/css">
	.st0{fill:#FDC414;}
</style>
<polygon id="Lithuania" class="st0" points="18.9,37 18.2,32.8 19.5,31.4 18.9,30.1 17.5,29.4 16.8,27.3 15.4,26.6 11.2,28 
	8.5,26.6 5.7,22.4 1.5,23.1 1.5,22.4 2.2,21 1.5,18.3 1.5,15.5 2.9,14.8 4.3,12.7 7.1,9.9 11.9,8.6 15.4,8.6 18.2,8.6 19.5,9.9 
	21.6,8.6 23.7,7.9 24.4,9.3 26.5,9.3 27.9,11.3 31.3,11.3 32.7,12 36.2,9.3 39.7,11.3 43.1,12 45.9,14.8 48.7,15.5 50.8,19 54.2,19 
	54.9,19.7 52.8,23.1 54.2,23.8 54.2,25.9 50.8,28 48.7,31.4 47.3,32.1 46.6,34.9 49.4,36.3 49.4,39.1 46.6,39.1 45.9,37.7 
	44.5,38.4 43.1,41.2 39.7,41.2 41,44.6 39,44.6 36.2,46 33.4,44.6 30,46 27.2,47.4 25.8,45.3 25.8,42.5 25.1,38.4 23,38.4 
	20.9,36.3 "/>
</svg>
