<?xml version="1.0" encoding="utf-8"?>
<!-- Generator: Adobe Illustrator 19.2.0, SVG Export Plug-In . SVG Version: 6.00 Build 0)  -->
<svg version="1.1" id="Layer_1" xmlns="http://www.w3.org/2000/svg" xmlns:xlink="http://www.w3.org/1999/xlink" x="0px" y="0px"
	 viewBox="0 0 56 56" style="enable-background:new 0 0 56 56;" xml:space="preserve">
<style type="text/css">
	.st0{fill:#FDC414;}
</style>
<polygon id="Latvia" class="st0" points="55.3,35.7 55.3,33.5 53.6,31.9 53.1,29.2 52.5,28.6 51.5,26.4 51.5,25.4 50.9,23.7 
	50.4,23.2 50.9,22.1 50.4,21 46,20.5 43.3,21.6 41.7,19.4 40,18.8 39.5,16.7 36.8,15 35.7,15 35.1,13.9 34.1,12.9 33.5,14.5 
	32.4,14.5 30.3,12.9 28.1,13.4 25.4,15 24.8,15.6 24.8,17.2 25.4,21 24.3,24.3 21.6,27 19.9,27 17.8,25.4 17.2,23.7 13.4,19.4 
	13.4,16.7 12.9,17.2 11.2,18.3 8.5,18.8 8,19.9 6.3,19.9 4.7,22.1 5.3,23.7 4.2,23.2 4.2,26.4 2,29.2 2,30.8 2,32.4 0.9,33.5 
	2,37.3 3.1,38.4 3.1,38.9 4.2,38.4 5.3,36.8 7.4,34.6 11.2,33.5 13.9,33.5 16.1,33.5 17.2,34.6 18.8,33.5 20.5,33 21,34.1 
	22.6,34.1 23.7,35.7 26.5,35.7 27.5,36.2 30.3,34.1 33,35.7 35.7,36.2 37.9,38.4 40,38.9 41.7,41.7 44.4,41.7 44.9,42.2 44.9,42.2 
	47.6,41.1 51.5,40.6 52,38.4 53.1,37.9 54.2,36.2 "/>
</svg>
