<?xml version="1.0" encoding="utf-8"?>
<!-- Generator: Adobe Illustrator 19.2.0, SVG Export Plug-In . SVG Version: 6.00 Build 0)  -->
<svg version="1.1" id="Layer_1" xmlns="http://www.w3.org/2000/svg" xmlns:xlink="http://www.w3.org/1999/xlink" x="0px" y="0px"
	 viewBox="0 0 56 56" style="enable-background:new 0 0 56 56;" xml:space="preserve">
<style type="text/css">
	.st0{fill:#FDC414;}
</style>
<polygon id="Libya" class="st0" points="51.8,52.2 51.8,51.1 55.1,50.7 53.8,16.2 53.3,14.5 52.9,13.6 53.3,12.5 53.8,11.1 
	53.8,10.5 53.3,9.6 53.8,8 54,7.3 53.5,6.5 53.1,6 52.4,5.8 51.8,6 49.5,5.6 49.1,5.1 48,5.1 46.9,4.7 46.7,4.5 46.9,4.2 46.9,3.8 
	45.3,3.1 44.7,3.1 43.3,2.7 43.1,2.5 42.7,2.9 42,2.5 41.8,2.5 40.7,3.1 38.9,3.1 37.3,4 36.7,4.7 36.4,5.8 36,6 35.8,7.8 36.4,8.9 
	36.9,10.2 36.7,10.9 35.8,12 35.6,12.2 34.4,13.3 33.6,13.6 32.2,12.9 30.9,11.8 29.8,10.9 28.2,10.2 25.6,9.1 24.4,8.9 24,9.1 
	22.7,9.1 21.6,8.5 20.4,6.5 20.4,5.3 19.6,4.2 17.3,4 16.2,3.1 14.2,3.1 13.1,2.7 10.7,3.1 8.9,2.7 8.2,2 7.6,2 7.3,2.2 7.6,3.6 
	8,3.8 7.1,5.1 5.1,6.2 5.1,6.7 4.5,7.6 3.8,7.6 3.1,8 3.1,8.2 3.1,8.7 3.3,9.8 3.6,10.7 3.3,10.9 3.3,11.1 3.1,11.6 2.7,12.2 
	2.2,12.5 2,12.7 1.6,12.7 1.6,12.7 1.1,12.9 1.1,14.2 1.6,14.5 2,15.1 2,17.6 2,18.7 2,19.1 2.2,20.9 2.7,22 2.2,23.8 2.2,24.2 
	2.5,25.1 2.7,26.2 2.2,26.7 1.6,27.3 1.3,27.8 0.9,27.8 1.6,28.4 2.2,29.6 2.9,30.9 3.1,31.1 3.3,32 3.3,32.4 3.3,33.3 3.8,33.8 
	4,34.4 4.2,34.9 5.8,34.9 6.9,34.9 7.6,35.3 8,36.2 8.7,37.6 9.1,37.8 9.6,38.4 10,38.9 16,40.4 16.7,40.9 23.8,38 "/>
</svg>
