<?xml version="1.0" encoding="utf-8"?>
<!-- Generator: Adobe Illustrator 19.2.0, SVG Export Plug-In . SVG Version: 6.00 Build 0)  -->
<svg version="1.1" id="Layer_1" xmlns="http://www.w3.org/2000/svg" xmlns:xlink="http://www.w3.org/1999/xlink" x="0px" y="0px"
	 viewBox="0 0 56 56" style="enable-background:new 0 0 56 56;" xml:space="preserve">
<style type="text/css">
	.st0{fill:#FDC414;}
</style>
<polygon id="Moldova" class="st0" points="4,11 4,7.5 4,6.6 3.1,2.2 5.8,3.1 6.7,2.2 9.3,4 10.2,3.1 12.9,3.1 13.7,1.3 16.4,4.9 
	19.9,4.9 23.5,8.4 28.8,9.3 28.8,7.5 30.5,7.5 34.9,11.9 38.5,13.7 39.4,19 38.5,21.6 42,23.4 42,25.2 45.5,27.8 49.9,30.5 
	49.9,33.1 49.9,35.8 51.7,37.5 50.8,39.3 46.4,39.3 44.6,37.5 41.1,38.4 38.5,38.4 37.6,43.7 37.6,47.2 36.7,47.2 34.1,51.6 
	34.1,54.3 31.4,53.4 29.6,55.2 29.6,55.2 27.9,50.8 27.9,37.5 26.1,34 25.2,30.5 17.3,24.3 16.4,21.6 11.1,16.3 9.3,10.2 "/>
</svg>
