<?xml version="1.0" encoding="utf-8"?>
<!-- Generator: Adobe Illustrator 19.2.0, SVG Export Plug-In . SVG Version: 6.00 Build 0)  -->
<svg version="1.1" id="Layer_1" xmlns="http://www.w3.org/2000/svg" xmlns:xlink="http://www.w3.org/1999/xlink" x="0px" y="0px"
	 viewBox="0 0 56 56" style="enable-background:new 0 0 56 56;" xml:space="preserve">
<style type="text/css">
	.st0{fill:#FDC414;}
</style>
<polygon id="Montenegro" class="st0" points="27.4,55.8 27.4,46.4 30.5,40.2 35.2,33.9 38.3,33.9 41.5,38.6 44.6,32.4 46.2,30.8 
	49.3,27.7 49.3,21.4 43,19.9 38.3,16.8 33.7,16.8 30.5,13.6 30.5,10.5 25.8,5.8 25.8,5.8 21.2,4.3 16.5,1.1 13.3,2.7 13.3,7.4 
	18,8.9 19.6,13.6 16.5,15.2 11.8,15.2 10.2,19.9 10.2,26.1 7.1,32.4 5.5,33.9 7.1,35.5 11.8,37.1 21.2,49.6 21.2,52.7 "/>
</svg>
