<?xml version="1.0" encoding="utf-8"?>
<!-- Generator: Adobe Illustrator 19.2.0, SVG Export Plug-In . SVG Version: 6.00 Build 0)  -->
<svg version="1.1" id="Layer_1" xmlns="http://www.w3.org/2000/svg" xmlns:xlink="http://www.w3.org/1999/xlink" x="0px" y="0px"
	 viewBox="0 0 56 56" style="enable-background:new 0 0 56 56;" xml:space="preserve">
<style type="text/css">
	.st0{fill:#FDC414;}
</style>
<path id="Madagascar" class="st0" d="M19.5,56l0.5-0.2h0.7l1-0.5l0.7-0.7l2.5-0.2l0.7,0.2l1.2-0.5l0.2-0.7h0.5l0.5-1.2l0.5-1v-0.7
	l0.7-0.5v-1.2l-0.2-0.2l0.5-0.5l0.2-1.2v-0.2h0.2l0.7-1.2l0.5-2.7l0.5-1.5l0.5-0.5l0.2-1.5l1-2l1-3.2l0.7-1v-1.5l0.7-1.5v-0.5l1-1.5
	l0.5-2.2l0.2-1.5l0.2-0.5l0.2-1.2l-0.2-0.5l0.2-1l0.7-1v-0.5l0.5-0.7l-0.2-1l-0.2-0.2l0.2-0.7v-1l-0.2-0.2v-1l0.5-0.2l0.5,0.2
	l0.2,0.7l0.7,1h0.5l0.2-0.5v-0.7l0.2-0.2v-0.7l0.2-0.2v-0.7l-0.7-1l-0.2-0.7l0.2-0.2v-0.7l-0.2-1l0.2-0.5v-2l-0.5-0.7V4.1l-0.2-0.5
	h-0.2l-0.7-0.7V2.1l-0.7-0.2l0.5-0.7l-0.2-0.7l-1,1l0.2,0.5l-0.7,0.5l-0.7-0.5h-0.5l0.7,0.7v0.5l0.5,0.5v0.2l-0.7,0.7v1.2l-0.5,0.7
	l-0.5-0.2l-0.7,0.7v0.7l-0.5,0.2l-0.5-0.2V7.1l-0.2-0.2l-0.5,0.5v1l0.7,0.7l0.2,0.2l-0.2,0.2h-0.5l-0.7,0.2l0.2,0.7l0.7,0.2v0.5
	l-0.2,0.5l-0.2-0.5l-0.5,0.2l-0.2,0.5l-1,1v-0.7l0.2-0.2l-0.2-0.5l-0.7,0.7l0.5,0.2l-0.2,0.2l-1,0.5l0.2,0.7l0.5,0.2v0.5L30.6,15
	l-0.7,0.5V15h-0.2l0.2-0.5l-0.2-0.2l-1.5,1.2l-0.2,1.2l0.2,0.5l-0.2,0.5l-0.5-0.2l-0.2-0.2v-1h-0.2l-1,1l-1-0.7l-0.2,0.2h-0.2l0.2,1
	h-0.2h-0.2v-0.5L23.7,17l-0.5,0.7L22.7,17l-1.5,1.5h-0.5l-0.2-0.2h-0.7l-0.2,0.5l0.2,1.2l-1.2,1.7V22l-1,1.2v0.5l0.5,0.5L17.5,25
	l0.2,1v1l1,2v0.5l0.7,0.7v0.2L19,30.9l0.2,0.5L19,33.2l-0.7,0.5l-0.2,1h-0.5l-0.2,0.7l-0.7,0.5v1.5L16,37.9l-1.2,0.2l-0.2,0.2v1.2
	l-0.7,1v1l-0.2,0.5l0.2,0.5v1.2l1,1.2l-0.2,1l0.2,0.5l0.5,0.2h0.2l-0.2,0.2l-0.7,0.2v0.7v1.2V51l0.2,0.2v0.5l0.5,0.2l0.5,0.7
	l0.5,0.2l0.2,0.5L17,54l0.5-0.2l0.2,0.2l0.5,0.2L19,55h0.5L19.5,56L19.5,56L19.5,56z M36.3,4.6l-0.2-0.2l0.7-0.7v0.2L36.3,4.6
	L36.3,4.6z M36.1,5.8L36.1,5.8h0.2H36.1L36.1,5.8L36.1,5.8z M34.9,5.6L34.9,5.6h0.2l0.5,0.2l-0.2,0.7l-0.5-0.2h-0.5L34.9,5.6
	L34.9,5.6z M40.1,21.2v-0.5v-0.5l0.2-0.2h0.2l0.2-0.5l-0.2,0.7l-0.2,0.5L40.1,21.2z"/>
</svg>
