<?xml version="1.0" encoding="utf-8"?>
<!-- Generator: Adobe Illustrator 19.2.0, SVG Export Plug-In . SVG Version: 6.00 Build 0)  -->
<svg version="1.1" id="Layer_1" xmlns="http://www.w3.org/2000/svg" xmlns:xlink="http://www.w3.org/1999/xlink" x="0px" y="0px"
	 viewBox="0 0 56 56" style="enable-background:new 0 0 56 56;" xml:space="preserve">
<style type="text/css">
	.st0{fill:#FDC414;}
</style>
<polygon id="Mali" class="st0" points="0.8,37.4 1.5,36.8 2.6,36.5 3,35.7 3,35.3 3,34 3.8,33.6 4.7,33.8 4.9,34.4 5.3,35.7 
	5.7,35.9 6.6,34.2 8.3,33.6 8.9,33.8 9.2,34.8 9.4,35.3 10,34.4 10.4,34.4 10.9,35 11.3,35.3 23,35 24.3,32.1 23.2,31.4 20.7,2 
	24.7,1.8 46.7,16.5 46.9,18 47.7,18.6 49,18.6 49.9,18.9 50.5,19.7 51.3,19.9 52,20.6 52,21 51.6,22.1 51.8,22.5 52.6,22.9 
	54.1,22.7 55.4,22.3 55.4,22.3 55.2,28.7 55,31.6 54.5,32.1 54.3,33.1 54.1,34 52.4,34.8 51.6,35.5 50.5,35.5 49.4,36.1 48.8,36.1 
	47.3,36.1 46.4,36.5 45.8,36.5 43.5,36.8 42.6,36.5 42.6,36.8 42.4,36.3 41.8,36.3 40.7,36.1 39.8,36.1 38.3,36.3 37.3,37 
	36.4,37.6 33.9,39.1 32,40.4 31.7,41 30,41.4 29.6,41.4 28.5,41.4 28.5,41.9 28.1,42.1 27.3,43.4 27.3,43.8 26.6,44.9 25.6,46.6 
	24.7,47.2 24.1,47.6 24.3,48.3 24.5,49.3 23.9,49.3 23.9,50.2 24.1,50.6 23.9,51.5 23.4,51.7 22.8,52.7 21.7,52.3 21.5,51.9 
	21.7,51.7 20.9,51.7 19.8,51.9 19.8,52.1 19.4,52.3 18.1,52.3 17.3,51.9 16.8,51.9 16,52.5 15.8,52.1 15.5,51.7 14.7,51.7 
	14.7,51.2 14.5,50.8 14.5,50.2 14.1,50.2 13.6,50.6 13,50.6 13.4,49.8 14.1,48.9 14.1,48.7 13.2,48.5 12.8,48.3 13,47.2 12.8,46.6 
	11.9,45.9 11.9,45.5 11.3,45.7 11.1,45.9 10.2,45.7 9.6,45.7 8.9,46.6 8.3,46.6 7.7,47.2 6.8,47.2 6.2,46.6 5.7,46.3 4.9,46.8 
	4.7,46.6 4.5,46.6 4.7,46.1 4.7,45.5 3.8,45.1 3.8,44.4 4,44.2 4,43.8 3.6,43.1 3.4,42.7 3.2,42.5 2.8,42.5 2.3,42.1 1.9,41.2 
	1.3,40.6 1.1,40.2 1.5,38.9 1.3,38.2 1.3,37.6 "/>
</svg>
