<?xml version="1.0" encoding="utf-8"?>
<!-- Generator: Adobe Illustrator 19.2.0, SVG Export Plug-In . SVG Version: 6.00 Build 0)  -->
<svg version="1.1" id="Layer_1" xmlns="http://www.w3.org/2000/svg" xmlns:xlink="http://www.w3.org/1999/xlink" x="0px" y="0px"
	 viewBox="0 0 56 56" style="enable-background:new 0 0 56 56;" xml:space="preserve">
<style type="text/css">
	.st0{fill:#FDC414;}
</style>
<path id="Myanmar" class="st0" d="M25.6,0.6l0.5-0.2l0.7,0.4l0.4-0.2h0.7l0.4,0.7l0.5,0.4L29,2.5h0.5L30.1,3v0.9l0.5,0.9v0.9
	l-0.2,1.2v0.5l-0.2,0.4L29.7,8v0.5h-0.2l-0.2,0.4l0.2,0.5l-0.2,0.4L29,9.6l-0.4,0.4l-0.2,0.5l0.2,0.4l-0.2,0.4v0.5l0.5,0.2l0.2,0.4
	l0.4,0.4v0.7l0.2,0.7l0.7-0.5l1.2-0.2l0.2,0.4L31.7,14l0.4,0.4l0.7-0.2l0.2,0.5l-0.2,0.5l0.4,0.4l0.7,0.2l-0.2,0.2l0.2,0.4l0.2-0.2
	l0.7-0.2l0.5,0.4v0.4L35,17.2v0.4l-0.7,0.9l-0.5,0.5l0.2,0.4l0.4-0.2l0.9,0.2l0.2,0.2l0.4-0.4l0.4,0.5l-0.2,0.7l0.2,0.5l0.7,0.4
	l0.4-0.4h0.7l1.2-0.5l0.5,0.2v0.5l-0.7,0.7L38.2,22v0.5l-0.4,0.4l0.2,0.4l-0.5,0.5h-0.4l-0.4,0.7h-0.9l-0.7,0.2V25l0.4,0.4l-0.2,0.4
	l-0.7-0.2l-0.4,0.4v0.7l-0.2,0.4h-0.5l-0.7,0.5l-1.1-0.4l-0.4,0.5l0.2,0.9l-0.4,0.4v0.9l0.2,0.5L31,30.6L30.2,31v0.4l0.4,0.2
	l0.5,0.9l0.4,0.4l0.2,0.4l0.7,0.5l0.7,1.4l0.4,0.2l0.4,0.7l0.2,0.5l0.5,0.4v0.5L34,37.7L33.8,38l0.4,1.4v0.4l-0.5,0.4l0.4,0.9v0.5
	l0.7,0.9l0.9,0.7l0.7,0.7l0.4,1.2l-0.2,0.5l0.2,0.5v0.5l0.4,0.4l0.2,0.9l0.2,0.5v0.9l0.4,0.7V51l-0.4,0.2l-0.7,1.8l-0.5,0.4V54
	l-0.2,0.4l-0.2,0.4v-0.2L35.6,55v0.9L35.2,55v-0.9L35,53.8v-0.4h0.2l0.2-0.2l0.4-0.5v-0.5L35.6,52l0.2-0.7h0.2l0.2-0.4l-0.2-0.7
	l0.4-0.4l-0.4-0.5L35.6,49v-0.7l0.2-0.4l-0.2-0.5l-0.4-0.2L35,45.5l-0.4-0.4l-0.2-0.5l-0.4-0.7L34,44.8l-0.2,0.2v-0.5l-0.2-0.5v-1.2
	l-0.4-0.5v-0.5l0.2-0.2l-0.7-0.4v-0.9h-0.2L32.4,38L32,37.9l-0.2-0.5H32V37l-0.4-0.7l0.2-0.2v-0.4l-0.2,0.4l-0.4,0.2h-0.5l-0.2-0.7
	l-0.2-0.4l-0.5-1.1l-0.2-0.4h-0.4v-0.4l-0.5-0.4l0.4,0.4L29,33.6V34l0.4,0.2v0.5L29.2,35l0.2,0.4l-0.7,0.5h-0.5l-0.4-0.4h-0.2
	l0.2,0.4v0.2l0.4,0.2l-0.5,0.4h-0.4l-0.4-0.2L26.7,37l-1.1,0.7h-0.5v0.2h-0.4v-0.2V38h-0.4l-0.4-0.4L23.4,38v0.4h-0.5v-0.7l0.7-0.7
	v-0.9L23.2,37l-0.5,0.5l-0.4,0.7V38v-0.2l-0.2-0.5l0.5-2.8l0.7-0.4L23.2,34l-0.5-1.2v-1.1l-0.4-0.2l-0.2-0.4l0.2-0.2l-0.4-0.4
	l-0.2-0.9l-0.4-0.4L21.2,29v-0.5l-0.7-0.4l0.2,0.5l0.2,0.9l-1.1-0.4l-0.5-0.5v-0.4l-0.5-0.5v-0.4h0.5l0.2,0.4l0.4,0.2l0.2-0.2h-0.2
	l-0.4-0.4l0.4-0.2l0.4,0.4l0.4-0.2v-0.5L20,26l-0.9-0.2l-0.2-0.4h-0.5l-0.2-0.4v0.4h-0.5v-0.2l0.4-0.5h-0.5l-0.4-0.4v0.2l0.4,0.5
	l-1.2-1.1l-0.2-0.7l-0.4-0.5l0,0v-0.2v-0.5l0.5-0.7l0.2,0.2l0.4-0.7V20l0.2-0.5l0.2,0.2l0.4-0.2l0.4-0.9l-0.2-0.5l0.2-0.7l-0.2-0.7
	h0.5v-1.1v-0.7l-0.4-1.4h0.5l0.5,0.2h0.7l0.4-1.1l0.2-1.2l0.5-1.4L20,9.6V9.2L20.7,8l0.4-1.1l-0.4-0.4l0.2-0.7l0.9-1.4l0.7-0.2
	l0.7-0.9l0.4-0.7l0.9-0.4l0.7-0.5l0.5,0.4l0.5,0.2L26,1.8V1.1l0.5-0.5H25.6L25.6,0.6L25.6,0.6z M18,29.7l0.2,0.4l0.5,0.4l0.2-0.5
	l-0.4-0.4L18,29.7z"/>
</svg>
