<?xml version="1.0" encoding="utf-8"?>
<!-- Generator: Adobe Illustrator 19.2.0, SVG Export Plug-In . SVG Version: 6.00 Build 0)  -->
<svg version="1.1" id="Layer_1" xmlns="http://www.w3.org/2000/svg" xmlns:xlink="http://www.w3.org/1999/xlink" x="0px" y="0px"
	 viewBox="0 0 56 56" style="enable-background:new 0 0 56 56;" xml:space="preserve">
<style type="text/css">
	.st0{fill:#FDC414;}
</style>
<polygon id="Mongolia" class="st0" points="0.4,23.4 0.6,22.7 0.9,22.6 1.7,22.6 1.8,22.5 2.2,22.1 2.7,21.9 2.7,21.5 2.9,21.2 
	3.3,21 3.4,20.6 3.7,20.4 4,20.3 4.2,19.9 4.3,19.8 4.2,19.7 4.1,19.4 4.2,19.3 4.9,19.5 5.1,19.3 5.3,18.8 5.6,18.7 6.2,18.7 
	6.5,18.6 6.9,18.6 7.3,18.6 7.5,18.5 7.7,18.5 7.9,18.7 7.9,18.9 8.1,19.1 8.5,19.1 8.7,19 9,19 9.3,18.9 9.8,18.8 9.9,19.1 
	10.1,19.5 10.2,19.7 11,20.2 11.3,20.4 12,20.7 12.2,20.6 12.6,20.5 12.9,20.2 13.3,20.2 13.6,20.3 13.8,20.4 14.2,20.4 15,20.4 
	15.2,20.5 15.5,20.5 15.7,20.4 16,20.4 16.6,20.4 16.9,19.8 16.7,19.6 16.3,19.4 16.3,18.8 16.5,18.2 16.5,18 16.1,17.9 15.9,17.7 
	15.4,17.5 15.2,17.1 15.3,16.2 15.7,15.8 15.7,15.5 15.8,15.3 16.1,15.1 16.2,15.1 16.5,14.9 16.3,14.6 16.3,14.3 16.6,14.1 
	16.9,14.1 17.1,14.2 17.6,14.3 18.2,14.6 18.2,14.8 18.6,14.9 19.1,14.9 19.7,14.9 20,15 20.1,15.3 20.6,15.3 20.8,15.4 21.1,15.5 
	21.9,15.5 22.2,15.6 22.3,15.8 22.3,16.1 22.5,16.3 22.5,16.5 22.6,16.7 22.9,17.2 22.9,17.5 23.1,17.7 23.3,17.7 23.7,18 
	23.8,18.2 24.2,18.3 24.8,18.7 25,18.7 25.1,18.6 25.7,18.6 25.9,18.3 26.3,18.3 26.5,18.5 26.7,18.5 27,18.1 27.5,17.9 28.2,17.9 
	28.6,17.7 29,17.7 29.5,17.4 29.9,17.7 30.4,17.8 31.2,17.8 31.5,18.2 32.1,18.5 32.7,18.5 33,18.5 33.3,18.6 33.4,19.1 33.8,19.4 
	33.9,19.5 34.2,19.6 34.5,19.9 34.9,19.9 35.7,19.8 36.3,20.1 37.4,20.1 37.8,19.9 38.1,19.8 38.4,19.8 38.7,20.1 39,19.9 
	39.3,19.5 39.9,19.1 40.3,19.1 40.7,18.8 40.9,18.8 41.7,18.8 42.1,18.5 42.2,18.1 42.2,18 42.4,17.7 42.9,17.4 43.1,17.2 
	43.2,16.9 43.5,16.5 43.8,16.5 43.9,16.6 44.5,16.5 44.8,16.5 45.3,16.9 45.4,17.1 45.7,17.2 46.1,17.1 46.2,17.2 46.5,17.2 47,17 
	47,16.7 47.5,16.6 48.2,16.9 48.5,17.1 48,19.8 48.1,20.4 47.9,21 48,21.3 47.8,22.1 48,22.7 48.9,23.1 49.5,22.7 50.2,22.7 
	51,22.8 51.3,23.1 51.8,22.5 51.8,22.1 51.8,21.8 52.2,21.5 52.5,21.4 53.3,21.7 53.7,22.2 54.3,22.8 54.8,23.5 55.5,23.9 
	55.5,24.3 55.6,24.5 55.6,24.8 55.5,25 55.5,25.2 55.3,25.4 55.1,25.4 55,25.2 54.5,25.3 54.3,25.4 53.8,25.2 53.5,25.3 53.3,25.8 
	52.7,26.1 52.5,26.3 52.1,26.1 52,26.1 52,26.4 51.8,26.7 51.5,26.7 51.4,26.7 51.2,26.9 51,27.4 50.9,27.8 50.9,28.3 50.6,28.5 
	50.3,28.6 49.5,29.1 49,29.1 48.7,29.1 48.5,29.2 48.1,29.9 47.8,30.1 47.3,30.4 47.1,30.7 47,31 46.9,31 46.4,30.8 46.1,30.8 
	45.5,30.6 45,30.2 44.6,30.2 43.9,30.3 43.4,30.7 43.2,31 43.2,31.8 43.2,32.3 43.2,32.5 44,33 44.8,33.4 44.8,33.6 44.6,34 
	44.3,34.3 43.5,35.2 43.1,36 42.9,36.6 42.5,36.6 41.9,36.7 41.5,36.8 41,37.1 40.6,37.5 40,37.5 39.3,37.5 38.9,37.8 38.3,37.9 
	36.9,38.3 36,38.7 35.4,39.2 34.6,39.9 34.4,40.2 33.9,40.2 33.4,40 33.4,39.8 33.4,39.6 32.6,39.8 31.9,39.9 31.3,39.6 30.7,39.5 
	29.6,39 28.5,38.6 27.9,38 27.4,38 26.2,37.8 25,37.9 24.8,37.8 24.6,37.9 24.5,38.1 23.9,38.3 23.1,38.4 21.6,38.2 20.5,38.3 
	19.7,38.3 19,38.3 18.5,38.4 18.3,38.3 17.8,37.5 17.7,37.2 17.4,36.6 17,36.2 16.8,35.7 16.8,35.5 16.6,35.1 16.2,35.1 16.1,35 
	16,34.9 16,34.6 15.8,34.4 15.7,34.6 15.2,34.6 14.7,34.3 14.1,33.8 13.8,33.8 13.7,33.8 13.4,33.8 13.3,33.5 12.7,33.2 11.4,32.8 
	11.3,32.8 11.2,33.1 10.6,33.1 9.9,33.1 8.1,32.7 7.8,32.5 7.3,31.9 7.3,31.6 7.3,31.4 7.4,31.1 7.7,30.9 7.8,30.6 7.5,30.3 7.4,30 
	7.5,29.8 7.5,29.3 7.4,29.1 7.2,28.7 6.9,28.6 6.6,28.4 6.5,28 6.3,27.8 6.2,27.5 6.2,27.1 5.9,26.9 5.7,26.7 5.4,26.6 5.3,26.3 
	4.9,26.2 4.7,26.3 4.6,26.4 4.3,26.6 4.1,26.4 3.9,26.1 3.8,26 3.4,26 3.1,26.1 3,26.3 2.9,26.6 2.7,26.6 2.4,26.3 2.3,26 2.3,25.9 
	1.9,25.6 1.6,25.4 1.4,25.1 1.2,25 1,24.8 0.9,24.6 0.9,24.4 0.8,24.2 0.7,24.2 0.7,24.3 0.6,24.3 0.5,24 0.4,23.9 0.4,23.6 "/>
</svg>
