<?xml version="1.0" encoding="utf-8"?>
<!-- Generator: Adobe Illustrator 19.2.0, SVG Export Plug-In . SVG Version: 6.00 Build 0)  -->
<svg version="1.1" id="Layer_1" xmlns="http://www.w3.org/2000/svg" xmlns:xlink="http://www.w3.org/1999/xlink" x="0px" y="0px"
	 viewBox="0 0 56 56" style="enable-background:new 0 0 56 56;" xml:space="preserve">
<style type="text/css">
	.st0{fill:#FDC414;}
</style>
<polygon id="Mauritania" class="st0" points="2.6,27.2 19.5,27.2 19.2,19.4 19.8,18.4 20.6,17.6 21.7,17.6 23.3,17.6 23.5,6.3 
	36.7,6.5 37,0.6 52.3,10.8 52.3,10.8 52.3,10.8 47.2,11.1 50.4,48.2 51.7,49 50.1,52.7 35.4,53 34.8,52.7 34.3,51.9 33.7,51.9 
	32.9,53 32.7,52.5 32.4,51.1 31.6,50.8 29.4,51.7 28.4,53.8 27.8,53.5 27.3,51.9 27,51.1 26,50.8 24.9,51.4 24.9,53 24.9,53.5 
	24.3,54.6 23,54.9 22.2,55.7 22.2,55.7 21.9,54.9 20.9,54.3 20,54.1 19.8,53 18.7,53 18.7,51.9 17.9,51.1 17.9,50 17.4,49.8 
	16.8,49.8 16.6,49.8 15.8,50 15.2,49.8 15.2,49.2 14.1,48.2 13.1,47.9 11.2,47.4 10.4,47.4 8.2,48.2 6.1,48.4 5.3,49.2 4.5,49.2 
	3.9,49.8 3.9,48.2 4.7,45.5 5.8,44.1 6.1,40.9 5.3,36.6 3.9,34.7 4.5,34.5 5,34.5 5.3,33.1 5,32.1 5.6,31.5 4.5,29.6 3.9,30.2 
	3.4,29.9 3.1,28.8 2.3,29.9 2.1,28.3 2.6,27.5 "/>
</svg>
