<?xml version="1.0" encoding="utf-8"?>
<!-- Generator: Adobe Illustrator 19.2.0, SVG Export Plug-In . SVG Version: 6.00 Build 0)  -->
<svg version="1.1" id="Layer_1" xmlns="http://www.w3.org/2000/svg" xmlns:xlink="http://www.w3.org/1999/xlink" x="0px" y="0px"
	 viewBox="0 0 56 56" style="enable-background:new 0 0 56 56;" xml:space="preserve">
<style type="text/css">
	.st0{fill:#FDC414;}
</style>
<polygon id="Malawi" class="st0" points="18.9,1.4 18.9,0.9 19.7,1.4 20.2,1.8 21,2.2 21,2.6 21.4,2.2 22.3,2.2 22.7,2.6 23.2,2.6 
	23.6,3.1 24.5,3.5 25.3,4.4 27.5,6.9 27.9,9.5 27.5,20.7 27.5,22 28.3,28.4 30.5,29.3 31.3,30.1 32.2,31 32.6,31 34.8,33.6 
	35.2,34.4 36.9,36.6 37.3,38.3 37.8,39.2 38.2,40 36.9,40 36.9,40.9 36.1,40.9 36.1,41.3 36.1,41.7 36.1,42.6 36.9,43.5 36.5,46 
	36.1,46.9 35.2,47.8 33.9,48.2 33.5,49.9 33,51.2 32.6,52.5 33,53.8 32.6,55.1 31.3,55.5 30.9,54.6 31.3,53.8 30.5,52.5 29.6,52 
	28.7,51.2 27.9,50.3 26.6,49 26.6,47.8 25.7,46.5 25.7,45.2 26.6,43.9 27,42.6 28.3,40.9 28.3,39.2 28.3,37.4 27.9,36.6 26.2,36.2 
	24.5,36.2 24,36.6 23.2,36.6 22.7,37 21.4,36.2 21.4,35.3 21,34.9 20.6,34 20.2,33.6 18.4,34 18.4,33.1 17.6,31.9 16.7,31 
	16.7,30.1 17.2,29.7 18.4,28.4 18.4,27.6 18.4,27.1 18.4,26.3 18.4,25.4 18.4,25 20.2,23.7 21,23.3 21.4,22.8 21.9,22.4 21.9,22 
	21,21.5 21,20.7 20.6,19.8 21,19.8 21.4,19 20.6,18.1 21.4,17.2 21,16.4 21,15.1 20.6,14.2 20.6,13 22.3,11.2 22.3,10.8 22.7,10.4 
	22.3,9.1 22.3,8.2 21,7.4 21,6.5 21.4,4.8 21.4,4.4 20.6,4.4 19.7,3.5 19.7,2.6 18.9,2.2 "/>
</svg>
