<?xml version="1.0" encoding="utf-8"?>
<!-- Generator: Adobe Illustrator 19.2.0, SVG Export Plug-In . SVG Version: 6.00 Build 0)  -->
<svg version="1.1" id="Layer_1" xmlns="http://www.w3.org/2000/svg" xmlns:xlink="http://www.w3.org/1999/xlink" x="0px" y="0px"
	 viewBox="0 0 56 56" style="enable-background:new 0 0 56 56;" xml:space="preserve">
<style type="text/css">
	.st0{fill:#FDC414;}
</style>
<path id="Mexico" class="st0" d="M1.4,8.8L6,8.7l0.1,0.1L6,9l6.4,2.9l5.4,0.1v-0.7l3,0.1l0.4,0.2l0.2,0.5l0.1,0.2v0.1h0.2l0.1,0.2
	L21.9,13l0.2,0.1l0.2,0.2v0.1l-0.1,0.1l0.2,0.1l0.2,0.1l0.1,0.2v0.4l0.1,0.1h0.1l0.1,0.1l0.2,0.2v0.2l-0.1,0.1h-0.2v0.1l0.4,0.4
	l0.2,0.4l0.1,0.2v0.1H24l0.1,0.1h0.1l0.2,0.1l0.1,0.1V17l0.1,0.1h0.2l0.4,0.2v0.1l0.4,0.1l0.4,0.2l0.1,0.1h0.1l0.1-0.1v-0.1l0.2-0.2
	h0.2v-0.1v-0.1L27,17l0.2-0.5l0.2-0.2l0.2-0.1h0.1l0,0h0.1l0.1-0.2h0.4h0.4h0.4l0.1,0.1l0.1,0.1h0.2l0.2,0.1l0.1,0.2l0.4,0.4
	l0.2,0.5l0.1,0.4l0.1,0.1V18v0.5l0.2,0.1l0.1,0.2l0.2,0.7l0.1,0.1l0.1,0.2l0.2,0.1l0.1,0.4l0.1,0.4l0.4,0.4v0.4v0.4V22v0.1l0.4,1.1
	v0.5L33,24l0,0l0.2,0.1h0.2l0.2,0.1l0.4,0.4l0.6,0.2l0.4,0.1l0.4,0.1l0.1,0.2l0.1,0.1l-0.1,0.2l0.4-0.2l0.1-0.6l0.2-0.2v0.2v0.5
	l-0.1,0.1l-0.1,0.5l-0.2,0.4v0.4h-0.2l0.1-0.2V26h-0.4v0.5l-0.2,0.2l0.2,0.2l-0.1,0.1l-0.1,0.5l-0.2,0.2v0.5l0.1,0.1l-0.1,0.2v0.2
	l-0.2,1l0.1,0.6l-0.1,0.8l-0.2,0.4l0.1,0.2l0.1,0.7V33l0.5,0.7v0.6L35,34.5v-0.7l-0.5-0.6v0.4l0.2,0.2l0.2,0.7l0.1,0.2L35,35
	l0.2,0.4l0.1,0.4l1.1,1.1l0.1,0.5l0.4,0.5V38l0.1,0.4l0.8,1l0.2,0.2h0.1h0.5l0.1,0.1l0.6,0.2l0.5,0.6L40,41l0.5-0.2l0.6-0.1l0.1,0.2
	h0.2l0.8-0.5l0.1-0.1h0.7h0.5l0.4-0.2h0.5l0.4,0.1l0.1-0.2l0.5,0.1l-0.4,0.2L45,40.5l0.5,0.2l0.2,0.2l0.1-0.2h0.2l0.4-0.5v-0.6
	l0.1-0.4l-0.4,0.2l-0.1-0.1l0.8-0.5l0.2-0.1l0.4-0.5v-0.6l0.7-0.7v-0.1v-1.2l0.7-0.8h-0.2v-0.2l1.2-0.2h1.6l0.2-0.4h0.5l0.1,0.1
	l0.5-0.2v-0.2h0.7l0.8,0.2l0.2-0.1l-0.1-0.2h0.4l0.6,0.7v0.4l-0.2,0.5l-0.5,0.7L54,36.6l-0.1,0.2v0.5l-0.4,0.2l-0.1,0.1l0.2,0.2H54
	l-0.1,0.2l-0.5,0.5v0.1l0.1,0.1l0.2-0.2h0.1L53.6,39l-0.2,1.2L53,40.8l-0.1,0.1l-0.1-0.4l-0.5-0.2v-0.1l0.1-0.1v-0.4l-0.2,0.1
	l-0.4,0.5l-0.4,0.2l0,0h-0.1l-0.2,0.1l-0.1,0.1L50.8,41l-0.2,0.4v0.1h-0.1l-0.1,0.1h-0.1v-0.1H50l-0.2,0.1v0.2h-3.3l-0.1,1L45.5,43
	l0.2,0.2l0.1,0.2l0.2,0.4l0.2,0.2h0.2l0.1,0.2v0.2l0.1,0.1h0.4l0.2,0.1V45l-0.2,0.2h-2.4l-1.1,1.8v0.4v0.1v0.2l0.1,0.1l0,0V48
	l-0.1,0.1l-0.1,0.2h-0.1l0.6,0.2l-0.5-0.4V48l-0.4-0.1l-1.3-1.1l-0.1-0.2v-0.1l-0.4-0.4L41,45.9l-0.4-0.1l-0.1-0.1h-0.1v0.1L41,46
	l0.5,0.5v0.1l-0.2-0.2L40.6,46l-0.4-0.1H40l-0.1-0.1l0.1-0.1h0.2v-0.1H40l-0.2,0.1v-0.2l-0.1-0.1l-0.5,0.2v0.1h0.4h0.4v0.1h-0.2
	h-0.5l-0.4,0.1l-0.5,0.4H38l-1,0.4h-0.4l-1-0.4L35.2,46h-0.6l-0.7-0.2l-0.4-0.2h-0.1H33l-0.5-0.2l-0.2-0.5l-0.1-0.1l-0.2,0.1
	l-0.5-0.2H31l-0.2-0.4l-0.5-0.2l-1-0.1l-0.8-0.4l-0.6-0.6h-0.2l-1-0.8l-0.1-0.2h-0.2l-0.1,0.1h-0.2l-0.7-0.2h-0.2l-0.4-0.1h-0.1
	l-0.4-0.1l-0.2-0.5l-0.4-0.5L23,39.9l-0.5-0.1v-0.1l0.1-0.2h-0.2L22,39.6l-0.6-0.1l-0.1-0.2H21l-0.1-0.1l-0.1-0.5l-0.4-0.5v-0.2
	l-0.6-0.1L19.6,37v-0.1l0.2-0.1h0.5l0.1-0.2l-0.2-0.2H20v-0.2l0.5-0.4l0.2-0.4v-0.5l-0.4-1.1l-0.2-0.6L20,32.9l0.1-0.4L20,32.2
	l-0.7-0.8V31l-0.6-0.5l-0.5-0.7l-0.6-0.7l-0.5-0.5l-0.1-0.1v-0.2L16.3,28L16,27.8v-0.1l0.2-0.1l0.1-0.4L16.2,27l-0.1-0.4L16,26.4
	h-0.2l-0.5-0.1l-0.7-0.6l-0.2-0.2h-0.4l-0.4-0.2v-0.4l0.2-0.5l0.4-0.4l0.2-0.1l0.2,0.2l0.1-0.1v-0.2l-0.1-0.1l-0.1,0.1l-0.2-0.1
	v-0.2L13.9,23h-0.2l-0.4-0.1l-0.1-0.4l0.1-0.4L13.1,22h-0.2l-0.6-0.6l-0.1-0.5l0.1-0.2v-0.5L12,20.1l-0.2,0.1l-0.1-0.1h-0.2L11.2,20
	L11,19.7l-0.1-0.4l-0.2-0.5l-0.2-0.1l-0.1-0.1v-0.5l-0.1-0.2l-0.2-0.1l-0.2-0.6L9.6,17H9.4l-0.1-0.2l0.1-0.1v-0.2L9,15.7l-0.1-0.4
	L9,15.1v-0.5l-0.1-0.2l-0.1-0.6l-0.2-0.5V13l0.2-0.2v-0.2l-0.4-0.2H8L7.9,12l-0.4-0.2l-0.1,0.1H7l-0.2-0.2l-0.4-0.5l-0.5-0.2
	l-0.2-0.5l0.1,0.5l0.1,0.4l-0.1,0.6l-0.1,0.5l0.1,0.8v1.3l-0.1,0.4l0.2,0.2l0.2,0.6v0.4h0.2l0.1,0.2L7,16.7l0.1,0.5L7,17.4l0.1,0.4
	l0.4,0.1l0.2,0.2v0.4l0.1,0.1h0.2l0.4,0.5v0.4V20l0.4,0.4H9l0.4,0.5l0.1,0.7h0.1l0.1,0.2L9.6,22v0.2l0.4,0.5l0.1-0.1v-0.2v-0.1h0.1
	l0.1,0.2l0.2,0.4l0.1,0.7l-0.1,0.2v0.5l0.1,0.1v0.4l0.2,0.2v0.2l0.2,0.2v0.2L11,26l0.2,0.4v0.4L11,27.1v0.2l0.4,0.4l0.2,0.2v0.2
	l0.1-0.1v-0.2l0.1-0.1l0.1,0.1l0.2,0.2l0.1,0.2l0.2,0.1l0.1,0.4l0.1,0.1l0.1,0.4l0.2,0.1v0.5l-0.4,0.5l-0.6,0.2L12,30.5l-0.1-0.4
	v-0.2l-0.2-0.1v-0.5l-0.1-0.2h-0.4l-0.2-0.4l-0.1-0.2l-0.2-0.1l-0.8-0.8l-0.1-0.4L9.2,27l-0.1-0.2H9l-0.4-0.2v-0.2L9,25.8l0.1-0.6
	v-0.7l-0.2-0.7l-0.2-0.2H8.3l-0.2-0.1l-0.6-0.6l-0.1-0.6l0.1-0.4H7.4L7,22.2H6.8l-0.2,0.1L6.4,22v-0.1l-0.2-0.1H5.9V22l-0.5-0.2
	l-0.4-0.1l-0.2-0.4v-0.4l-0.4-0.1l-0.4-0.5l0.1-0.1h0.5L5,20.3l0.5,0.1l0.2,0.1l0.1-0.2v-0.2H5.4V20l0.2-0.2l0.2,0.1L6,19.6
	l-0.1-0.2v-0.2l0.2-0.2l-0.2-0.4l-0.1-0.1l-0.2-0.6l-0.5-0.5L5,17.1l-0.2-0.4l-0.5-0.5H4l-0.4-0.4l-0.1-0.5v-0.6l-0.1-0.2l-0.2-0.2
	v-0.4l0.1-0.1v-0.4l-0.4-0.4l-0.1-0.2l0.1-0.1v-0.2l-0.5-0.6l-0.1-0.4v-0.2l0.1-0.1l-0.2-0.2l-0.2-0.4l-0.2-1L1.4,8.8L1.4,8.8z
	 M11.2,27.1l0.2-0.1v-0.2l-0.2-0.2l-0.1,0.1l0.1,0.1V27.1L11.2,27.1z M11.6,28v0.2h0.1V28H11.6L11.6,28z M35.9,27.4L35.9,27.4
	l0.1-0.2h-0.1V27.4L35.9,27.4z M35.8,27.8L35.8,27.8l0.1-0.2h-0.1V27.8L35.8,27.8z M35.7,28.7l0.1-0.4v-0.2L35.7,28.7z"/>
</svg>
