<?xml version="1.0" encoding="utf-8"?>
<!-- Generator: Adobe Illustrator 19.2.0, SVG Export Plug-In . SVG Version: 6.00 Build 0)  -->
<svg version="1.1" id="Layer_1" xmlns="http://www.w3.org/2000/svg" xmlns:xlink="http://www.w3.org/1999/xlink" x="0px" y="0px"
	 viewBox="0 0 56 56" style="enable-background:new 0 0 56 56;" xml:space="preserve">
<style type="text/css">
	.st0{fill:#FDC414;}
</style>
<g id="Malaysia">
	<path class="st0" d="M33.9,31.8v0.4h-0.2V32L33.9,31.8L33.9,31.8L33.9,31.8z M1,22.9l0.2,0.5l0.4,0.4l0.2-0.2l-0.2-0.4l-0.4-0.4
		L1,22.9L1,22.9z M28.6,33.9l0.5,1.1l0.9,0.7l0.2,0.2l0.7,0.5l0.2,0.5h0.4l0.9-0.2l0.2-0.4h0.7l0.4-0.2h1.6l1.6-0.7l0.4-0.4h1.4
		l0.7,0.4l0.2,0.4h0.7l1.1-0.7l1.3-0.2v-0.4l1.1-1.6l0.4-1.3l0.9-1.3l0.5-2.2V28l0.4-0.5v-0.4l0.5-0.7l0.5,0.2h0.9h1.3l0.4,0.2h0.7
		l0.5,0.2v-0.2l0.7,0.4l0.5,0.2l0.5-0.4l0.7-0.2v-0.4l-0.7-0.7v-0.5l0.4-0.2l1.1,0.2l0.9-0.2l0.5-0.4l-0.2-0.4H55L54.3,24l-0.5-0.4
		h-0.5l-0.7-0.7h-0.4l-0.4,0.4l-0.2-0.2l0.5-0.5l-0.4-0.4h-0.2l-0.4,0.5L51,22.4l-0.2-0.2v-0.9l0.5-0.2v-0.4l-0.7-0.4l-0.2,0.2
		L49.9,20v-0.7L49.4,19l-0.2,0.2l0.2,0.5l-0.5,0.5h-0.2l0.2-0.5l-0.2-0.5h-0.4l-0.4,1.3l-0.4,0.2L47,22l-0.2,0.7l-1.1,1.1h-0.5
		l-0.9,0.4L44,24.6h0.4l-0.2,0.4l0.2,0.2l0.7-0.2l-0.2,0.4l-0.4,0.2v0.2v0.2l0.4,0.9l-0.2,0.5l-0.4-0.2v-0.7l-0.2-0.5h-0.4v-0.2l0,0
		l-0.4,0.5l0.2,1.3l-0.4,0.2l-0.5-0.4l-0.5-0.9h-0.4l-0.4-0.2l-0.4,0.5v0.7l-0.7,0.7l-0.2,0.5l-0.7,0.7L39.3,30l-0.7,0.9l-0.7,0.7
		l-2.3,0.5l-0.2,0.2l0.2,0.7l0.4,0.4l-0.4-0.2l-0.4,0.2h-0.7L34,33.8l-0.2,0.5v0.9l-0.5,0.7v0.2l-1.1-0.2l-1.1-0.4h-0.9l-0.4-0.4
		l-0.5-0.5L28.6,33.9L28.6,33.9z M48.8,17.7l-0.7,0.4h0.4l0.4-0.2V17.7L48.8,17.7z M49.6,17.7L49,18.2l0.2,0.2l0.5-0.2v-0.4
		L49.6,17.7L49.6,17.7z M33.9,32.7l-0.5,0.2l0.4-0.5L33.9,32.7L33.9,32.7z M34.2,32.5l-0.4,0.2l-0.2-0.2l0.2-0.2L34.2,32.5
		L34.2,32.5z M34.6,31.6l0.2,0.7l-0.4,0.2L34,32.1v-0.4h0.2l0,0L34.6,31.6L34.6,31.6z M1.2,20.6l0.2-0.7l0.4-0.5l0.5,0.5L3,20
		l0.2,0.4h0.5L4,20.8v0.9L3.7,22v0.4l0.7,0.2L5.1,22h0.5L6,22.4L6.4,22v-0.5l0.2-0.2l0,0h0.4l0.2-0.4h0.2l0.4,0.7l2,2.2l0.5,0.9
		l0.4,1.1l-0.2,0.4v1.4l-0.2,0.2v0.5l0.2,0.4v1.4l0.4,0.7l0.7,0.5h0.4l0.2,0.2v0.2l0.2,0.9l0.2,0.2l0.2,0.2v0.2h0.2l0.5,1.3v0.7
		h-0.4L12.7,35v-0.4l-0.4-0.2l0.2,0.2V35h-0.2h0.2v0.2L12,35.6l-0.2-0.4l-0.2,0.2l-0.5-0.2l-0.4-0.4l-0.9-0.2l-0.9-0.4l-0.4-0.5
		l-0.4-0.2l-0.4,0.2H7.5L6.8,33v-0.5l-0.9-0.7l-1.1-0.4l-0.4-0.4v-0.4l0.4-0.4l-0.4-0.5l-0.5-0.4l-0.5-0.7l-0.7-0.4l-0.4-0.5
		l0.2-0.2l-0.4-0.4v-0.5l0.2-0.2l0.2-0.9l-0.4-0.7l-0.4-0.7l-0.4-2.3L1.2,20.6z"/>
</g>
</svg>
