<?xml version="1.0" encoding="utf-8"?>
<!-- Generator: Adobe Illustrator 19.2.0, SVG Export Plug-In . SVG Version: 6.00 Build 0)  -->
<svg version="1.1" id="Layer_1" xmlns="http://www.w3.org/2000/svg" xmlns:xlink="http://www.w3.org/1999/xlink" x="0px" y="0px"
	 viewBox="0 0 56 56" style="enable-background:new 0 0 56 56;" xml:space="preserve">
<style type="text/css">
	.st0{fill:#FDC414;}
</style>
<polygon id="Mozambique" class="st0" points="13,40.5 16.5,37 16.7,36 16.7,35.6 16.9,34.5 17.1,34.1 16.9,33.7 16.9,33.3 
	17.3,33.1 17.5,32.9 18.1,32.3 18.7,31.6 18.5,31.2 18.1,31 18.1,30.4 18.5,30.2 18.3,29.6 17.7,29.2 17.7,28.8 18.1,28.6 
	18.3,27.9 18.3,27.3 18.7,26.9 18.9,26.5 18.5,26.7 18.1,26.3 18.5,25.7 18.5,24.8 18.9,24.2 18.9,23.8 18.7,23.6 18.9,23 
	18.7,22.6 19.2,22.2 19.2,21.5 18.3,21.5 17.9,21.1 17.5,20.5 16.5,20.5 15.9,20.3 15.2,19.7 14.4,19.1 13.4,18.9 13.2,19.3 
	13,19.3 12.8,19.1 12.3,18.9 11.1,18.9 11.1,17.4 10.7,16.4 11.1,15.8 12.3,15.2 13,15.2 16.3,13.9 16.9,13.7 18.7,12.9 19.8,12.7 
	20.6,12.5 20.8,12.7 21,13.1 21.2,13.3 21.2,13.7 21.8,14.1 22,13.9 22.4,13.9 22.7,13.7 23.5,13.7 24.3,13.9 24.5,14.3 24.5,15.2 
	24.5,16 23.9,16.8 23.7,17.4 23.3,18 23.3,18.7 23.7,19.3 23.7,19.9 24.3,20.5 24.7,20.9 25.1,21.3 25.5,21.5 26,22.2 25.7,22.6 
	26,23 26.6,22.8 26.8,22.2 26.6,21.5 26.8,20.9 27,20.3 27.2,19.5 27.8,19.3 28.2,18.9 28.4,18.4 28.6,17.2 28.2,16.8 28.2,16.4 
	28.2,16.2 28.2,16 28.6,16 28.6,15.6 29.3,15.6 29,15.2 28.8,14.7 28.6,13.9 27.8,12.9 27.6,12.5 26.6,11.2 26.4,11.2 26,10.8 
	25.5,10.4 24.5,10 24.1,6.9 24.7,4 27.8,4 28.4,3.8 28.6,3.6 29,3.6 29,3.8 29.5,4 29.9,4.2 30.3,4.2 30.7,4.6 30.5,4.8 31.5,4.6 
	32.1,4.2 32.5,4 32.8,3.8 33.2,4 33.2,4.2 33.6,4.2 34,4.4 34.6,4.2 35.6,4.2 35.8,3.6 35.6,3.2 35.8,3 36.5,3.2 36.9,3.2 37.3,3.4 
	37.9,3.4 38.3,3.2 39.6,2.8 40,3 40.4,2.8 40.8,2.6 41.4,2.4 41.8,2 42.7,2 43.1,1.5 43.5,0.9 44.1,1.1 44.3,0.7 44.5,0.7 44.7,0.9 
	44.5,1.8 44.3,2 44.5,2.2 43.9,3.2 43.9,3.6 43.9,3.8 43.9,4 43.7,4.2 43.9,5.3 44.3,6.1 44.1,6.3 44.1,7.1 44.3,7.3 44.3,8.1 
	43.9,8.3 44.1,9.2 43.9,10.8 43.7,10.8 43.9,11 43.9,12.7 43.5,12.7 43.3,12.9 43.5,13.1 44.1,13.1 44.3,13.3 44.5,14.5 44.1,14.9 
	43.9,15.2 44.1,15.4 43.9,15.8 43.5,15.8 43.1,16.2 43.1,16.4 43.3,16.2 43.7,16.4 43.5,16.8 43.3,17.4 42.9,17.4 42.2,18.4 
	42.2,18.7 41.6,19.7 41,19.7 41.2,20.3 38.9,21.5 38.7,21.5 38.5,22 36.5,23 35.6,23 35.6,23.2 34.6,23.6 33.4,24.4 33,24.2 
	33,24.6 32.1,25.7 31.7,25.9 31.5,25.3 31.5,26.1 31.1,26.3 30.9,26.7 29.7,27.5 29.7,27.7 29.3,28.1 29,28.1 29,28.6 28.2,28.6 
	26.6,29.8 26.6,30.6 26.2,31 25.3,31 24.9,31.4 24.3,31 24.1,31 24.1,31.2 24.3,31.6 24.3,32.3 24.1,32.5 24.1,33.1 23.9,33.5 
	24.7,34.7 24.7,35.1 24.3,35.6 24.7,35.8 24.9,36.2 25.1,37 25.3,37.6 25.3,39.7 25.3,40.5 25.7,40.5 25.7,39.9 26,39.1 26.2,39.7 
	26.2,39.7 26.2,40.7 26,40.9 26,41.7 26,41.9 25.5,43 25.5,43.6 25.3,43.8 25.3,44.6 25.1,44.6 25.3,45 25.7,44.8 25.7,45.2 
	25.5,45.9 25.3,46.7 24.1,47.9 22,48.8 19.2,49.4 18.1,50.4 17.3,50.6 16.9,51 16.5,51.4 16.3,52.3 16.1,52.1 15.6,52.3 15.9,52.5 
	16.1,53.1 16.1,53.7 16.5,53.3 16.9,53.5 17.1,52.9 17.3,52.9 17.3,53.1 17.1,54.1 16.9,54.7 16.7,55.1 16.1,55.1 15,54.9 
	14.6,54.9 14.6,54.7 14.8,54.1 14.8,53.7 15,53.5 14.6,53.1 14.2,52.7 14,52.5 14,52.5 14,51.4 14,50.4 14.2,49.4 14.2,46.9 
	14,46.1 13.8,45.5 13.8,44.8 13.8,44.6 13.8,43.2 13.4,42.4 13.2,41.5 13.2,40.7 "/>
</svg>
