<?xml version="1.0" encoding="utf-8"?>
<!-- Generator: Adobe Illustrator 19.2.0, SVG Export Plug-In . SVG Version: 6.00 Build 0)  -->
<svg version="1.1" id="Layer_1" xmlns="http://www.w3.org/2000/svg" xmlns:xlink="http://www.w3.org/1999/xlink" x="0px" y="0px"
	 viewBox="0 0 56 56" style="enable-background:new 0 0 56 56;" xml:space="preserve">
<style type="text/css">
	.st0{fill:#FDC414;}
</style>
<polygon id="Namibia" class="st0" points="33.6,35.6 33.6,35.4 34.4,22.6 37.7,22.6 38.5,7.8 41.6,8.1 45.5,7.1 46.8,6.8 47.3,6.8 
	47.6,6.5 47.9,6.8 47.9,7.3 48.4,7.6 48.1,7.8 47.9,8.6 48.4,8.6 49.7,7.6 50.5,6.5 51.2,5.8 52,5.8 52.3,6 52.8,6 53.3,5.8 
	54.6,5.2 55.4,5 54.9,4.2 54.6,4.2 54.6,4.2 54.1,4.2 53.8,3.9 53.6,3.9 53.3,3.7 52.5,3.9 52,3.9 41.6,6.3 41.4,6.3 41.1,6.3 
	40.9,6.3 40.6,6 40.3,6 40.1,5.8 39.8,6 39.3,5.8 39,5.8 38.5,5.8 38.5,6 38.3,6.3 37.2,6.3 36.7,5.8 35.7,5 35.4,5 35.1,5 
	34.9,5.2 34.4,5.5 33.3,5.2 32.8,5.2 32,5.8 31.5,5.5 31.5,5.2 31,5 30.5,5.2 29.4,5 28.6,4.5 28.4,4.2 27.9,3.4 27.6,3.4 12.6,3.4 
	12.3,3.2 11.8,3.2 11.3,3.7 11,3.7 10.5,3.9 9.4,3.7 8.7,2.9 8.4,2.6 8.4,2.4 7.9,2.1 7.9,1.9 7.4,1.6 7.1,1.6 6.8,1.9 6.6,1.9 
	6.1,1.6 5.5,1.6 4.2,2.4 4.2,2.9 3.7,3.2 3.2,2.9 2.2,2.6 1.9,2.9 1.9,3.4 1.4,3.4 1.4,3.4 0.6,3.2 0.6,3.2 0.9,6.5 3.2,9.1 
	4.5,11.5 6.6,15.9 6.8,17.7 8.9,20.6 8.9,21.9 11,25 11,26.5 10.5,26.8 11.3,28.9 11.3,32 12.6,35.1 12.3,36.9 12.8,38.2 12,38.5 
	12.6,39 12.8,41.3 13.6,41.6 13.9,42.4 13.3,42.6 13.3,43.4 14.1,44.2 14.1,45.7 14.9,46.8 15.9,48.6 17,49.6 17,50.2 18.5,51.2 
	19,50.9 19.8,50.7 19.8,50.2 19.6,49.9 20.1,49.1 21.1,48.9 21.6,49.6 22.4,49.6 21.9,50.7 22.4,51.7 24,52 24.8,52.5 25.5,52.5 
	25.8,52.5 26.6,52.7 26.8,52.5 27.6,52.5 27.9,53 28.4,52.7 28.9,53 28.9,52 29.2,51.7 29.7,51.4 30.2,50.7 31.2,50.2 32.5,50.4 
	33.1,50.4 "/>
</svg>
