<?xml version="1.0" encoding="utf-8"?>
<!-- Generator: Adobe Illustrator 19.2.0, SVG Export Plug-In . SVG Version: 6.00 Build 0)  -->
<svg version="1.1" id="Layer_1" xmlns="http://www.w3.org/2000/svg" xmlns:xlink="http://www.w3.org/1999/xlink" x="0px" y="0px"
	 viewBox="0 0 56 56" style="enable-background:new 0 0 56 56;" xml:space="preserve">
<style type="text/css">
	.st0{fill:#FDC414;}
</style>
<polygon id="Niger" class="st0" points="12.9,48.7 12,47.8 11.3,47.6 10.6,46.7 9.4,45.7 8.9,46.4 9.2,46.9 8.5,46.9 7.8,47.1 
	7.1,46 7.5,45.5 7.3,44.8 7.1,44.6 7.1,44.1 6.6,43.9 5,44.6 3.8,43.6 3.8,42.3 0.4,39.9 0.4,38.8 0.8,38.1 0.8,37.2 1.1,36.7 
	2,36.9 4.5,36.7 5.2,36.7 6.2,36.2 7.8,36.2 8.5,36.2 9.6,35.5 10.8,35.5 11.7,34.8 13.6,33.9 13.8,33 14,31.8 14.5,31.4 14.7,28.1 
	15,21.2 20.5,19.8 24.9,15.6 41.4,5.6 47.7,7.2 48.3,7.7 51.6,6.3 52.1,6.8 53.7,11.9 53.7,12.8 53.4,13.3 56,16.3 55.8,17.7 
	55.3,18.1 54.4,25.1 54.4,30.4 48.3,36.5 48.1,36.9 47.9,37.2 47.4,37.2 47.4,37.6 47.7,42 47,41.8 46.5,42.5 46.5,42.9 46,43.2 
	45.6,42.9 45.1,42.9 44.9,43.4 43.9,43.6 43.9,43.9 42.8,44.3 42.3,44.1 41.4,43.9 40.2,43.4 38.6,43.2 37.7,43.6 35.8,43.4 
	35.1,43.6 34.2,45 33.3,45.5 32.6,45.5 31.2,44.8 30.5,44.8 29.3,44.1 28.4,43.9 28.4,43.6 27.9,43.2 27.3,42.9 27,43.2 26.1,43.4 
	25.6,43.6 24.9,43.6 24.7,44.1 24.2,44.3 23.5,43.9 22.8,42.7 22.4,42.3 21.2,42 20.8,41.8 20.3,41.6 19.4,41.3 18.9,41.3 
	18.2,41.3 18,41.6 16.8,41.6 16.6,41.6 15.9,41.6 15.2,41.8 15,41.8 14.5,42 13.8,42.7 13.6,43.2 13.8,43.4 13.8,43.6 13.6,43.9 
	13.8,44.6 14,44.8 14,45.3 13.3,45.3 12.6,46.2 12.9,46.4 12.4,46.9 12.9,48 13.3,48 13.3,48.3 "/>
</svg>
