<?xml version="1.0" encoding="utf-8"?>
<!-- Generator: Adobe Illustrator 19.2.0, SVG Export Plug-In . SVG Version: 6.00 Build 0)  -->
<svg version="1.1" id="Layer_1" xmlns="http://www.w3.org/2000/svg" xmlns:xlink="http://www.w3.org/1999/xlink" x="0px" y="0px"
	 viewBox="0 0 56 56" style="enable-background:new 0 0 56 56;" xml:space="preserve">
<style type="text/css">
	.st0{fill:#FDC414;}
</style>
<polygon id="Nigeria" class="st0" points="52.5,9.4 52.5,9.4 51.9,8.2 50.8,6.8 49.3,6.2 48.7,7.1 48.7,7.6 48.1,7.9 47.5,7.6 
	46.9,7.6 46.6,8.2 45.4,8.5 45.1,9.4 44.5,9.7 43.4,9.1 42.2,8.8 40.7,8.2 38.6,7.9 37.4,8.5 35.1,8.2 34.2,8.5 33,10.3 31.8,10.9 
	30.9,10.9 29.2,10 28.3,10 26.8,9.1 25.6,8.8 25.6,8.5 25,7.9 24.1,7.6 23.8,7.9 22.7,8.2 22.1,8.5 21.2,8.5 20.9,9.1 20.3,9.4 
	19.4,8.8 18.5,7.4 17.9,6.8 16.4,6.5 15.9,6.2 15.3,5.9 14.1,5.6 13.5,5.6 12.6,5.6 12.3,5.9 10.8,5.9 10.5,5.9 9.6,5.9 8.8,6.2 
	8.5,6.2 7.9,6.5 7,7.4 6.7,7.9 7,8.2 7,8.5 6.7,8.8 7,9.7 7.3,10 7.3,10.6 6.4,10.6 5.5,11.8 5.8,12.1 5.2,12.7 5.8,14.2 6.4,14.2 
	6.4,14.5 5.5,15.3 5.5,16.2 5.5,16.8 7,18 7,19.2 7.3,20.7 7.3,21.3 6.1,21.3 5.8,21.8 5.8,22.4 6.7,23.3 6.4,23.9 5.8,23.9 
	5.2,24.5 4.9,25.1 4.3,26.3 4,27.2 3.4,27.5 2.8,27.5 2.2,27.8 1.9,28.4 1.9,29.2 1.9,29.8 1.7,30.7 1.9,31.3 1.9,31.9 1.9,32.2 
	1.9,32.5 1.9,33.1 1.9,34 2.2,35.7 1.9,36.6 2.2,37.2 1.9,39.6 2.2,40.5 4,40.8 5.5,40.2 8.8,42 10.8,44 12,46.1 12,47.6 12.6,47.9 
	13.2,49.6 14.4,50.8 15.9,51.1 20.3,50.8 21.5,50.2 22.1,50.5 24.1,49.9 24.7,50.2 25.9,49.9 26.5,48.8 27.4,49.6 27.7,49.4 
	27.7,49.4 27.7,48.8 28.9,47.3 29.5,46.1 29.2,44.9 29.2,44 29.8,43.7 29.8,43.1 30.6,42.3 31.2,41.7 31.8,41.4 33,40.2 33,39.3 
	33.3,39 34.2,38.7 34.8,38.1 35.1,38.4 36.3,39 36.6,38.7 37.4,39.3 38,40.2 38.9,40.8 39.5,41.1 40.4,40.5 41,39.3 41,39 
	41.3,38.4 42.2,38.1 42.5,37.5 42.5,36.6 43.1,35.7 44.2,34.3 44.5,33.4 44.2,32.8 44.8,31.9 46,30.7 46.9,30.1 46.9,29.2 
	47.2,28.4 47.2,27.2 47.8,26.3 49,26 49.9,25.1 50.2,23.9 50.2,22.7 49.9,22.1 50.5,21.3 51.3,19.5 51.6,19.2 51.9,18.9 52.8,18 
	53.1,18 54,17.4 54.9,16.8 55.2,16.2 54.6,15 54.6,14.7 54.3,13.9 53.4,13.6 53.1,12.7 53.1,11.5 53.1,10.6 "/>
</svg>
