<?xml version="1.0" encoding="utf-8"?>
<!-- Generator: Adobe Illustrator 19.2.0, SVG Export Plug-In . SVG Version: 6.00 Build 0)  -->
<svg version="1.1" id="Layer_1" xmlns="http://www.w3.org/2000/svg" xmlns:xlink="http://www.w3.org/1999/xlink" x="0px" y="0px"
	 viewBox="0 0 56 56" style="enable-background:new 0 0 56 56;" xml:space="preserve">
<style type="text/css">
	.st0{fill:#FDC414;}
</style>
<path id="Netherlands" class="st0" d="M38.6,50.2l0.9-2.7l0.9-4.6l-0.9-4.6l1.8-1.8l1.8-2.7l3.6-0.9l3.6,0.9l1.8-0.9l-1.8-2.7
	l1.8-0.9v-2.7l0.9-1.8l-1.8-0.9h-3.6V22l0.9-2.7l2.7,0.9l1.8-1.8v-2.7l0.9-2.7v-1.8l0.9-0.9V9.3l-2.7-0.9l-1.8-1.8l-3.6-1.8
	l-4.6,0.9l-2.7,1.8l-2.7-0.9l-1.8,0.9h-3.6l-3.6,3.6l-5.5,2.7l-0.9-0.9l-2.7,0.9v3.6l-2.7,1.8l0.9,3.6l-0.9,2.7l-0.9,2.7L14,30.2
	L12.2,32v1.8l3.6,2.7l2.7,0.9h-3.6l-1.8,0.9l-0.9,0.9l0.9,1.8h1.8V43h-2.7l-2.7-2.7l-2.7-0.9L4,40.2l0.9,0.9h1.8L8.5,43h0.9l2.7,1.8
	l-2.7-0.9H7.6L4,43H1.2l0,0l1.8,0.9L4,45.7h1.8l1.8,1.8l1.8-1.8l2.7-0.9l0.9-0.9h1.8l0.9-1.8h4.6l1.8,1.8h2.7l0.9,1.8h3.6l0.9,2.7
	v1.8L38.6,50.2L38.6,50.2z M11.3,37.5l2.7-0.9l0.9,1.8h-1.8L11.3,37.5L11.3,37.5L11.3,37.5z M12.2,34.8H14l2.7,0.9l-0.9,0.9H14v-0.9
	l-1.8,0.9C12.2,36.6,12.2,34.8,12.2,34.8z"/>
</svg>
