<?xml version="1.0" encoding="utf-8"?>
<!-- Generator: Adobe Illustrator 19.2.0, SVG Export Plug-In . SVG Version: 6.00 Build 0)  -->
<svg version="1.1" id="Layer_1" xmlns="http://www.w3.org/2000/svg" xmlns:xlink="http://www.w3.org/1999/xlink" x="0px" y="0px"
	 viewBox="0 0 56 56" style="enable-background:new 0 0 56 56;" xml:space="preserve">
<style type="text/css">
	.st0{fill:#FDC414;}
</style>
<path id="Norway" class="st0" d="M49.6,10.6h0.3V9.7l0.6-0.6L51,9l0.3-0.4V8h0.4l0.4,0.1l0.3-0.3V7.4h-0.1l-0.3-0.3h-0.1l-0.1,0.1
	v0.3l-0.1-0.1l-0.1-0.3h-0.3v0.3v0.4L51,7.7l-0.1-0.3l-0.3,0.1l-0.1,0.3l-0.1-0.3l-0.1-0.4H50l-0.1-0.4l-0.1-0.1h-0.4L48.7,6h-0.6
	l-0.3-0.3l0.1-0.1l0.7,0.1h0.6l0.4,0.1L50.6,6l0.6-0.1L51.6,5l0.9-0.3L53,4.4V4.2l-0.3-0.1l-0.1-0.1l-0.3-0.1h-0.4l-0.6-0.4h-0.3
	l-0.3,0.4h-0.3V3.6l0.3-0.3V3l-0.4-0.1L50,2.7h-0.3l-0.3,0.4h-0.1V2.9h-0.1L49,3.2h-0.1l-0.1-0.3L49,2.7V2.4l-0.4-0.3h-0.4l-0.3,0.1
	v0.6L47.5,3v0.1l0.3,0.6v0.3l-0.3,0.1l-0.1-0.4H47v0.1h-0.4L46,4.2l0.4-0.6l0.3-0.1L46.9,3V2.9h-0.1l-0.4,0.3L46,3V2.9l0.3-0.3V2.4
	l-0.4-0.1l-0.1-0.1L46,2l0.1,0.1h0.4l0.3-0.7l-0.1-0.3l-0.4,0.1l-0.1-0.1l0.1-0.3l-0.1-0.3l-0.3,0.3h-0.3l-0.3-0.3l-0.3,0.3v0.1
	l0.3,0.3l-0.1,0.3h-0.1l-0.3-0.4l-0.3,0.1l-0.1,0.4l0.1,0.1h0.3L44.8,2v0.1l-0.3,0.1v0.3l-0.3,0.1V3l0.1,0.1L44,3.3l0.1,0.4L44,3.9
	l-0.3-0.1l-0.3,0.1v0.1l-0.3,0.1V3.8l0.4-0.9l-0.3-0.1V2.6l0.3-0.3V1.5l-0.1-0.3h-0.1l-0.6,0.9v0.6l-0.6,0.7l-0.1,0.6l0.1,0.3v0.4
	l-0.6,0.6l-0.3,0.1V6L41,5.7l0.4-0.6l-0.1-0.4l0.1-0.3l-0.1-0.4l0.7-0.7l0.1-0.4l0.1-0.1V2.3h-0.3l-0.3-0.4h-0.1v0.4l-0.3,0.3V2.1
	L41,1.8l-0.4-0.1l-0.3,0.1v0.6l-0.1,0.3L40,2.4l-0.3-0.1l-0.1,0.1v0.1l0.6,0.3l0.1,0.4l-0.1,0.1l-0.3-0.3l-0.3,0.3v0.3l0.1,0.1
	l-0.1,0.1l-0.4-0.3h-0.1l-0.3,0.4l-0.3,0.1v0.1l0.1,0.1L38,5l-0.1,0.3l0.3,0.3l-0.3,0.3L38.2,6l0.1,0.1l-0.1,0.1h-0.6l-0.1-0.6
	l-0.3-0.1l0.3-0.3l-0.3-0.1h-0.4h-0.4l-0.7-0.6h-0.1L35,4.8l-0.1-0.3l-0.3,0.3L34.1,5v0.1l0.4,0.6h0.3L35,6h0.6l-0.3,0.4v0.4
	l0.3,0.4v0.3l-0.3-0.3l-0.1,0.1l-0.4-0.1l-0.3-0.3l-0.1,0.4L34,7.8l-0.1-0.6l-0.3,0.3v0.3l-0.4,0.3v0.3l0.4,0.1L33.7,9h-0.3
	l-0.1-0.1l-0.3,0.4l-0.1,0.3L32.3,10V9.7l0.3-0.3l-0.1-0.3l0.3-0.6l-0.3-1.3l-0.3,0.1l-0.6,0.9v0.6l0.1,0.3l-0.3,0.4V9.1l0.1-0.4
	l-0.1-0.6h-0.3l-0.4,0.3L30.4,9l0.1,0.4v0.4l0.6,0.4l0.1,0.3L31,11.1l-0.1-0.6l-0.4-0.1l-0.3-0.9L30,9.3l-0.6,0.1l-0.1,0.3l0.6,0.4
	h0.3l0.1,0.1h-0.4l-0.4,0.1l0.3,0.4l-0.4-0.3V10l-0.1-0.1l-0.1-0.3l-0.3,0.1l-0.1,0.6l0.1,0.3l-0.1,0.4l-0.3-0.1l-0.3,0.1l-0.4,0.6
	h0.1h0.3l0.3,0.3h-0.4l-0.3,0.1l0.3,0.1l-0.1,0.1h-0.3v0.3l0.1,0.1h-0.3L27,12.6l-0.3,0.1l-0.3,0.4l0.1,0.1l-0.1,0.1h-0.4l-0.3,0.4
	l0.4,0.1l1-0.3l0.3,0.1l0.4-0.1h0.3v0.3l-0.3,0.3L27.7,15l-0.1,0.1L27.4,15v-0.3L27,14.8l-0.1-0.1h-0.4l0.1,0.1l-0.1,0.3L26.1,15
	h-0.3l0.3,0.3l0.1,0.3h-0.1l-0.1,0.3v0.3l-0.1,0.3l-0.1-0.3v-0.4l-0.3-0.4L25,15.6l-0.3,0.1l-0.1-0.3l0.1-0.1h-0.3l-0.3,0.4l0.3,0.3
	h0.4l0.4,0.3L25,16.6l-0.9,0.1L24,16.6h-0.3l-0.1,0.4l0.3,0.3l-0.3,0.4h0.3l0.4-0.4h0.3l0.1,0.3h-0.6L24,18.1l0.3,0.3l0.4,0.3V19
	l-0.3-0.3h-0.3l-0.3-0.4h-0.1l-0.3,0.3l0.3,0.3h-0.4l-0.4,0.3v0.3l0.4,0.1l0.3-0.3l0.3,0.3l0.4-0.1l0.1,0.3l0.3,0.1v0.3l-0.6-0.4
	h-0.4l-0.3,0.1l-0.6,0.1v0.3l-0.3,0.1l-0.1-0.1l-0.6,0.3h-0.3v0.1l0.3,0.1l0.3,0.3l-0.3,0.1l-0.1-0.1l-0.1,0.1l0.3,0.3l-0.1,0.1
	h-0.4v-0.1L21,21.9l0.3,0.3l-0.1,0.1v0.3h0.3l-0.3,0.1h-0.3l-0.1-0.1v0.3l-0.1,0.3l0.3,0.1l0.6,0.1l0.1,0.3h0.1l0.3-0.1L21.6,24v0.1
	h-0.4L21,24h-0.6l-0.4,0.4l0.1,0.1h0.4v0.3l0.3,0.1v0.3L20.5,25h-0.1l-0.3,0.4v0.3h-0.1l0.1,0.3v0.3l0,0l-0.3-0.3l-0.1,0.1v0.3
	l0.6,0.1v0.1v0.3l-0.4-0.3l-0.1,0.1v0.3h0.1v0.4l0.1,0.4h0.3l0.1-0.3h0.1l-0.1,0.6h-0.3l-0.4,0.4h-0.3L19,29v0.1l-0.3,0.1l-0.3,0.3
	l0.3,0.1l-0.1,0.1H18l-0.3,0.3v0.1l0.4,0.1l-0.3,0.1l-0.1,0.4h-0.3v-0.3l-0.3-0.1l-0.1,0.1h-0.3l0.1,0.3l-0.1,0.1v0.3l0.1,0.3h-0.6
	L15.9,32v0.4l-0.4,0.3v0.1v0.4l-0.3,0.3l-0.4,0.4l0.1,0.1l0.4-0.3h0.3v0.3l-0.3,0.1v0.4l0.3,0.3l0.4-0.3h0.6l0.7-0.7v-0.3L17.1,34
	l0.3-0.4l0.1-0.4h0.1l0.1-0.1h0.4h0.3L18,33.4v0.3l0.6,0.1l-0.1,0.3h-0.3l-0.6,0.7L18,35l-0.3,0.3v0.4h-0.4l-0.3-0.3h-0.4l-0.3,0.3
	v0.4l-0.3,0.1l-0.3,0.1l0.3-0.3l0.1-0.1l-0.3-0.3v-0.4l-0.3-0.4h-0.3L15,35.2h-0.4v0.1h0.6l-0.6,0.6l-0.4-0.1h-0.3l-0.4,0.4h0.3
	l0.3-0.1l0.1,0.1l-0.4,0.3l-0.1,0.3l-0.1-0.1h-0.3v0.1l0.4,0.3h0.6l-0.1,0.3l0.3,0.1v0.3l-0.6-0.1l-0.1-0.3h-0.4l-0.4-0.3l-0.1-0.3
	h-0.1v0.3l0.4,0.6l0.4,0.3h0.3l0.1,0.1h-0.4l-0.6-0.3L12,37.1l-0.3,0.1L11.4,37H11l-0.3-0.1L10.5,37v0.3l-0.3,0.3l0.3,0.3l0.7-0.3
	l0.1,0.1L11.1,38l0.1,0.1l0.6-0.3h0.3L12,38.2l-0.7,0.3L11,38.9l-0.4-0.1l-0.4-0.4H9.9l-0.3,0.1l-0.3-0.3L9,38.3l-0.1-0.1l-0.3,0.1
	l0.1,0.1l0.7,0.1l0.4,0.3l0.6,0.3l-0.1,0.3l0.1,0.3L10.2,40l-0.1-0.1v-0.6l-0.4-0.1H9.2l0.1,0.3v0.3l-0.4-0.3l-0.4,0.4l0.4,0.3H8.6
	l-0.3,0.1l-0.1-0.4H7.4l0.1,0.4l-0.3,0.1L7.1,40l-0.4-0.3H6.5V40l0.4,0.4l-0.1,0.3l0.1,0.1l0.4-0.1l0.7,0.1l0.4,0.3h0.7L9.5,41h0.3
	l-0.4,0.4l-0.6-0.1l-0.3,0.1l-0.7-0.3l-0.4,0.1l-0.1-0.1l-0.3,0.3H6.3v0.1l0.7,0.3l-0.3,0.3h0.3l0.3-0.1H8l-0.4,0.3H6.9l-0.1,0.1
	H6.6v0.1l0.3,0.1h0.3l-0.4,0.3H6.6v0.1l0.1,0.1l0.1,0.3h0.6l0.3-0.1l0.7-0.1L9,43.6l0.1,0.1l0.3-0.1v-0.3l0.3-0.1l0.1,0.3h0.3
	l0.4-0.3H11l-0.1,0.1l-0.3,0.1l0.4,0.1l0.1-0.1L11,43.1l0.3-0.4l-0.1,0.4l0.3,0.4l-0.3,0.3L10.5,44l-0.3,0.3l0.1,0.1l-0.1,0.3H9.6
	v-0.1l0.3-0.1V44H9.5L9,44.5v0.3l-0.3-0.4l-0.4-0.1l-0.4,0.1l-0.3-0.1l-0.6,0.3H6.6l-0.3-0.1H6.2l0.1,0.4L6.2,45l0.1,0.1L6.6,45
	l0.1-0.1h0.3l-0.3,0.3v0.4l-0.1,0.1l-0.3-0.1l0.1,0.4l0.3,0.3l0.6-0.7l0.4,0.1l-0.1,0.1v0.3l-0.6,0.3l0.1,0.1h0.3L7.4,47l0.3,0.3
	l-0.1,0.4h0.1L8,47.1L8.3,47v-0.4l0.9-0.3h0.4l0.1-0.1l-0.3,0.1L9,46.5v0.6l0.1,0.3l-0.3-0.3v-0.4H8.6l-0.3,0.6L8,47.4l0.4,0.1
	L8.1,48H7.8l-0.1,0.3L8,48.5h0.6l0.1,0.3H8.3l-0.1,0.3v0.3l-0.4-0.3l-0.3,0.1l-0.1,0.4l-0.1-0.4l-0.4,0.1L6.2,50l0.1,0.4L6.9,51
	l0.1-0.3l0.1,0.1l0.3-0.1l-0.1-0.1l0.1-0.4L8,50.4l-0.3,0.1L8,50.9l-0.1,0.4l-0.3,0.1l0.3,0.6L8,51.8l0.6-0.1l0.3,0.3H8.4l-0.1,0.1
	l0.3,0.4v0.1l-0.9-0.6l-0.3,0.1l-0.3-0.1H6.8v0.3l-0.3,0.3l0.6,1l0.4,0.1l0.6,0.6L9,54.8l0.1,0.3L9,55.2l0.3,0.3l0.3-0.1l-0.1-0.4
	h0.3l0.3,0.3v0.1l0.4,0.6l0.1-0.3l0.1,0.1l0.4-0.1l0.4-0.4h0.1l0.1-0.1h0.1l0.1,0.3h0.3l0.7-0.7v-0.3l-0.3-0.4l0.6,0.4l0.4-0.4
	l-0.1-0.1l0.3-0.1v-0.3l0.3-0.3H15l0.1-0.3l-0.3-0.4l0.1-0.3l-0.3-0.4l-0.4-0.3v-0.4l0.3,0.1l0.4,0.4l0.1,0.6l0.1,0.1h0.3v0.3
	l0.1,0.3l0.4-0.1L16,52.2l-0.1-0.1l0.1-0.3l0.4,0.3v0.1l0.6-0.6l0.1-0.4l-0.1-0.4l-0.3-0.1l-0.1-0.3l0.1-0.1V50h0.3l0.1-0.1
	l-0.3-0.3v-0.4l0.3-0.3l0.3,0.3l-0.3,0.4l0.1,0.6l-0.1,0.4l0.3,0.4v0.3l0.4,0.4h0.6l0.3,0.1l-0.1,0.1l0.3,0.1l0.3,0.4l0.3-0.4
	l-0.1-1.5l-0.3-0.6l0.1-0.4l0.3-0.1l-0.3-0.4l0.1-0.3h0.7l0.1-0.3V48l0.3-0.7l-0.3-0.4l-0.1-1l-0.4-0.9v-0.4l1-0.3v-0.7l0.1-0.6
	l-0.7-0.9l-0.7-0.3v-0.9l0.1-0.9l-0.1-0.9l-0.3-0.6l0.1-0.7l-0.1-1.2L19,35.2l0.1-1l0.6-0.9l0.4-0.3l0.6,0.1h0.7l0.4-0.6v-0.9
	l-0.1-0.3v-0.6l0.7-1.9v-1l0.3-1l0.3-0.6v-0.7L22.9,25v-0.4l0.7-0.4l0.7-0.1l0.3-0.3v-0.4l0.6-1.2l0.6-0.9l0.1-0.6l-0.3-0.7
	l-0.3-0.3v-1l0.3-0.1l0.3-0.4l0.1-0.6l0.3-0.1l0.3-0.7l0.4-0.3l0.6,0.3l0.1,0.3h0.3l0.3-0.3l-0.3-0.4l0.3-0.3v-0.3l0.1-0.3l-0.3-0.6
	l0.3-0.1h0.7l0.4-0.3l0.7,0.1l0.4,0.3h0.6l0.3,0.3l0.3-0.1l0.1,0.1v-0.6l-0.3-0.3V13l0.3-0.1l-0.1-0.4L32,12.3v-0.4l0.6,0.1l0.6-0.1
	l0.1-0.1l0,0l0.1-0.1l0.1,0.1l0.1-0.1l-0.1-0.3l0.1-0.4l0.3-0.3h0.4l0.3,0.6l1,0.7l0.1,0.4l0.3,0.4L37,13h1l0.6-0.6l0.3-0.3h0.4
	l0.7,0.6l0.6,0.1l0.3-0.4l0.3-0.1l0.3-0.3h0.4l0.4-0.3l0.1-0.3l-0.1-0.4l-0.1-0.7L42.5,9l0.1-0.3l-0.1-0.3l0.3-0.1l0.3-0.4V7.5
	l0.4-0.1l0.6,0.1l0.3-0.1V7.2l0.4-0.4h1l0.4,0.3L47,7.8l0.3,0.3l0.4,0.1l0.7,0.1l0.1,0.4l0.4,0.4L49,9.7l-0.4,0.6L49.6,10.6
	L49.6,10.6z M7.2,51.3l0.3,0.3l-0.3,0.1V51.3L7.2,51.3z M6.2,48.6l0.3-0.1l0.3,0.3l-0.1,0.3L6.2,48.6L6.2,48.6z M7.1,47.7V48H6.9
	L7.1,47.7L7.1,47.7z M6.6,47.6V48H6.3L6.6,47.6L6.6,47.6z M5.7,45.8l-0.3-0.3l0.3-0.3C5.7,45.2,5.7,45.8,5.7,45.8L5.7,45.8z
	 M5.6,46.1h0.3l-0.1,0.1L5.6,46.1L5.6,46.1z M6.5,46.5L6.8,47l-0.1,0.4L6.5,46.5L6.5,46.5z M5.9,47.1l-0.3-0.3L6,46.7L5.9,47.1
	L5.9,47.1z M5.6,44.5l-0.4,0.3l0.3,0.1l0.3-0.3L5.6,44.5L5.6,44.5z M5.4,41.2L6,41.5l-0.4,0.1L5.4,41.2L5.4,41.2z M5.6,40.4L6,40.7
	L5.9,41L5.6,40.4L5.6,40.4z M6.8,39.4l0.1,0.3H6.5L6.8,39.4L6.8,39.4z M7.2,39.1l0.3,0.1l0.1,0.3l-0.4,0.3L7.2,39.1L7.2,39.1z
	 M11.4,36.2l0.4-0.4l0.1,0.4l-0.3,0.1L11.4,36.2L11.4,36.2z M11.6,35.5l-0.1,0.1L11,35.2h0.4L11.6,35.5L11.6,35.5z M12,34.4l0.7-0.6
	l0.3,0.3l-0.4,0.3H12L12,34.4z M12.2,35.3l0.3-0.6h0.4l0.1-0.3h0.3l0.3,0.3l-0.3,0.4h-0.6l-0.3,0.1L12.2,35.3L12.2,35.3z M18.3,28.7
	l0.1-0.3l0.6-0.1l-0.4,0.6L18.3,28.7L18.3,28.7z M17.7,29.8l-0.1-0.3h-0.4l0.3-0.4l0.6-0.1l0.3-0.1l-0.6,0.6L17.7,29.8L17.7,29.8z
	 M18.9,25.9l0.1,0.1v0.3l-0.3,0.1l-0.1-0.3L18.9,25.9L18.9,25.9z M19.8,25l0.1-0.3h0.4L19.8,25L19.8,25L19.8,25z M19.5,24.1l0.4-0.4
	l0.1,0.4l-0.3,0.6L19.5,24.1L19.5,24.1z M22.3,19.9l0.1-0.3h0.3l-0.1,0.4L22.3,19.9L22.3,19.9z M19.5,17.5l0.1,0.3l-0.1,0.3L19.2,18
	L19.5,17.5L19.5,17.5z M20.4,16.3l-0.6,0.6v-0.4l0.4-0.7L20.4,16.3L20.4,16.3z M20.7,15.9l-0.1-0.3l0.1-0.3l0.1,0.1L20.7,15.9
	L20.7,15.9z M22,14.8v0.4l-0.9,0.6l0.1-0.9L22,14.8L22,14.8z M22.8,13.9l0.3-0.4l0.4,0.3L22.8,13.9L22.8,13.9z M23.4,14.1V15
	l-0.4-0.3l-0.6,0.4v-0.4L23.4,14.1L23.4,14.1z M23.7,11.8l0.1,0.6v0.7l-0.6,0.1l-0.3-0.1l0.6-0.4h-0.3l-0.6,0.4l-0.1-0.3l0.1-0.4
	l0.4,0.1l0.4-0.4L23.4,12L23.7,11.8L23.7,11.8z M24.3,12L24,11.8v-0.7l0.6-0.4v-0.4l0.6-0.3l0.1,0.4l-0.4,0.3v0.4L24.3,12L24.3,12z
	 M25.8,12.3l0.6,0.6l-0.7,0.9L25,14.1l-0.1,0.3l-0.3-0.1v-0.4L24,14.5h-0.3l0.1-0.6l0.3-0.1v-0.4l0.3-0.4v-0.4l0.6-0.9l-0.3,1.2
	l0.1,0.4l0.3-0.6h0.7l-0.3-0.4v-0.3L25.8,12.3L25.8,12.3z M25.6,11.8L25.6,11.8l0.1-0.3l0.4,0.3v0.3L25.6,11.8L25.6,11.8z M27,12.4
	l0.1-0.6l0.3,0.4L27,12.4L27,12.4z M28.6,9.9l-0.1,0.3l0.1,0.4l-0.4,0.1L28,11.1h-0.6l-0.1,0.6h-0.1v-0.4h-0.4l0.4-0.4h-0.4l0.1-0.6
	h0.6l-0.6-0.3l0.3-0.4l0.3,0.3l-0.1-0.4L28,9.4l0.1,0.4l0.3,0.1L28.6,9.9L28.6,9.9z M28.6,8.5h0.6V8.3h0.6L30.1,8l0.3,0.4l-0.3,0.4
	v0.3h-0.6l-0.4,0.1L28.6,8.5L28.6,8.5z M30.4,6l-0.1-0.3l0.4-0.1L30.4,6L30.4,6z M29.7,6.9V6.3l0.6-0.1v0.3L29.7,6.9L29.7,6.9z
	 M31.2,7.8l0.1-0.6l0.1,0.4L31.2,7.8L31.2,7.8z M31,7.7l-0.1,0.1h-0.3L30,7.2l0.7-0.6l0.1,0.3h0.4v0.1L31,7.4L31,7.7L31,7.7z
	 M32.2,6.5L32,6.6l-0.6-0.1V6l-0.1-0.6l0.3-0.1l0.1,0.6l0.4,0.3V6.5L32.2,6.5z M33.5,7.2l-0.3-0.4l-0.3-0.1V5.9l0.3-0.3l0.4,0.3
	l-0.1,0.4l0.3,0.3L33.5,7.2L33.5,7.2z M37,5.4l-0.4-0.1L36.1,5l0.3-0.3h0.4L37,5L37,5.4L37,5.4z M37.6,5.1L37,4.5l0.9-0.7L38,4.4
	l-0.3,0.4L37.6,5.1L37.6,5.1z M36.5,4.2h-0.3l-0.7-0.1l-0.1-0.4l0.4,0.1l0.4-0.3l0.3,0.3l0.3-0.4l0.3,0.1l0.7-0.7L38,3L36.5,4.2
	L36.5,4.2z M38,3.2l0.6-0.3l0.6,0.4l-0.1,0.4l-0.6,0.3V3.6L38,3.2L38,3.2z M39.4,2.1l-0.1,0.3h-0.1L38.8,2l0.4-0.1L39.4,2.1
	L39.4,2.1z M40.3,1.4H40l0.1-0.3h0.3L40.3,1.4L40.3,1.4z M41,1.5V1.2l0.1-0.1l0.3,0.1l0.1-0.1V0.8l0.3,0.1l0.3,0.1l-0.3,0.4h0.6
	l-0.1,0.6l-0.4,0.1l-0.4-0.4L41,1.5z"/>
</svg>
