<?xml version="1.0" encoding="utf-8"?>
<!-- Generator: Adobe Illustrator 19.2.0, SVG Export Plug-In . SVG Version: 6.00 Build 0)  -->
<svg version="1.1" id="Layer_1" xmlns="http://www.w3.org/2000/svg" xmlns:xlink="http://www.w3.org/1999/xlink" x="0px" y="0px"
	 viewBox="0 0 56 56" style="enable-background:new 0 0 56 56;" xml:space="preserve">
<style type="text/css">
	.st0{fill:#FDC414;}
</style>
<polygon id="Nepal" class="st0" points="4.1,14.2 4.1,13.7 6.1,15 6.6,15.8 7.8,15.4 8.6,15.8 9.4,14.6 11.1,14.6 13.2,15.4 
	14,16.2 15.7,16.2 16.5,17.1 18.6,19.1 19.8,19.1 21.5,19.5 21.9,20.4 23.1,22 23.5,23.3 24.4,22.8 24.4,21.2 25.2,20.4 25.6,20.8 
	26.8,20.8 28.5,21.6 28.5,23.7 30.1,24.9 32.2,24.5 33.9,24.5 33.5,27.4 34.3,28.6 35.1,28.6 37.2,29.5 38,28.6 39.3,28.2 40.5,27 
	43,27.4 44.6,28.2 45,29.5 46.7,30.3 47.9,32.4 49.2,32.4 50.8,32 51.7,32 53.3,31.5 54.6,31.5 55,32.8 54.2,36.1 55.4,38.6 
	55,41.5 51.3,42.3 48.8,41.1 47.1,41.9 41.7,39.8 39.3,39.8 38,40.6 34.7,39.8 33,38.2 32.6,36.5 29.3,35.7 26,36.5 25.2,35.7 
	21.9,35.7 19.4,34.4 17.7,34.4 16.5,33.6 14,33.2 11.9,30.7 9,28.6 6.6,27.8 5.7,27 4.5,27 3.2,26.2 2,26.2 1.6,24.5 3.2,22 3.2,20 
	4.1,16.6 "/>
</svg>
