<?xml version="1.0" encoding="utf-8"?>
<!-- Generator: Adobe Illustrator 19.2.0, SVG Export Plug-In . SVG Version: 6.00 Build 0)  -->
<svg version="1.1" id="Layer_1" xmlns="http://www.w3.org/2000/svg" xmlns:xlink="http://www.w3.org/1999/xlink" x="0px" y="0px"
	 viewBox="0 0 56 56" style="enable-background:new 0 0 56 56;" xml:space="preserve">
<style type="text/css">
	.st0{fill:#FDC414;}
</style>
<path id="New_Zealand" class="st0" d="M8.3,48.2l0.3,0.2h0.2V48L8.3,48.2L8.3,48.2L8.3,48.2L8.3,48.2z M42.5,11.9h0.3v0.3h-0.2
	L42.5,11.9L42.5,11.9z M43.5,9.7L43.5,9.7l0.2-0.3L43.5,9.7L43.5,9.7z M44.2,9.9l-0.3-0.3l0.3-0.7v0.3l0.2,0.2l-0.2,0.2V9.9
	L44.2,9.9L44.2,9.9z M35.7,30.8l0.5,0.2l0.2-0.3h0.2V31v0.3h0.2h0.2l0.2,0.2v0.3l0.2,0.2h0.3l1-0.7l0.9-0.7l0.9-0.9l0.7-0.9l0.9-1.2
	l0.5-0.3h0.3l0.2-0.3v-0.3l0.2-0.3l0.5-0.2l0.3-1l0.5-0.9v-0.2l0.3-0.2l-0.3-0.3h-0.5h-0.3l0.3-0.3l0.3-0.2l1.2-1.2l0.5-0.2l0.9,0.2
	h0.5l-0.2,0.3v0.3l0.5-0.5L48,22l-0.7-0.3v-0.5l0.3-0.9l0.3-0.3h0.5l0.2,0.2l0.2-0.2l0.3-0.3l0.7-1.2v-0.3v-0.3L50,17l0.3-0.5
	l0.5-0.3V16l-0.7-0.2L50,15.5h0.2v-0.2l-0.7-0.2L49,15.5l-1,1h-0.7l-0.3,0.2l-0.5-0.2l-1-1.2h-0.3l-0.3-0.5l-0.2-0.3l0.3-0.3
	l0.2-0.7l-0.3-0.9l0,0l-0.2-0.3v-0.5l0.2-0.3h-0.3v-0.7l-0.2-0.3l-0.3,0.2l-0.3-0.2l-0.2,0.2l0.3,0.3v0.5v0.2l-0.3,0.3v0.3l0.3,0.5
	v0.3l-0.3,0.2L43,12.9v-0.5h-0.5v-0.2l-0.3-0.2h-0.3v-0.3l0.3-0.2l0.2-0.3L42,10.9l0.3-0.7l0.3-0.2l0.2-0.5l-0.2-0.3l0.2-0.3
	l-0.2-0.5V7.7l-0.5-0.3V7l0.3,0.2L43,7l0.2-0.5l0.2-0.2V5.8l-0.2-0.7V4.6L43,4.8l-0.7,0.3l-0.5-0.5l0.3-0.2l-0.3-0.3h-0.2l0.2-0.3
	l0.3-0.2V3.3l-0.5-0.2l-0.3-0.3L41,2.9V2.4h0.2l0.2-0.3H41l-0.3,0.2v0.3l-0.2,0.3l-0.3-0.2l0.2-0.5l-0.2-0.3L40,1.2V0.7l0,0h0.2
	L40,0.4l-0.3,0.2h-0.7v0.2L39.3,1l0.5,1.4L40,2.9l-0.2,0.9l-0.2,0.2h-0.2l-0.2,0.2l0.3,1.2l0.2,0.2l0.3-0.3h0.5l-0.3,0.2L40,5.8
	l0.2,0.7l0.3,0.7l0.2,1.4v0.9v0.5L41,9.7l0.2-0.5L41,8.9l0.2-0.2L41.3,9v0.5h0.3V9.4V9.2h0.2v0.3l-0.3,0.5l-0.2,0.3v0.3h-0.2
	L41,10.4h-0.2l0.2,0.9l0.3,1h0.2l0.2-0.2l0.2,0.3v0.2l0.2,0.2l-0.5,0.3v0.2l0.2,0.2l-0.2,0.3l-0.3,0.9v0.5L41,15.3l0.3,0.3l-0.2,0.2
	h-0.3l-0.2,0.3v0.3l0.3,0.3L40.6,17h-0.2l-0.2,0.5L40,19.4v0.5l-0.3,0.3h-0.3l-0.5-0.2h-0.5l-1,0.5l-0.5,0.5l-0.2,0.7l0.2,0.9
	l0.5,0.3l0.7,0.5l0.3,0.7l0.7,0.2l0.3,0.3l0.2,1.2V26l-0.7,0.2v0.7l-0.2,0.5l-1,1.4l-0.7,0.9l-0.9,0.7L35.7,30.8L35.7,30.8
	L35.7,30.8z M34,28.8v-0.3l0.3-0.3l0.3,0.2l-0.2,0.3l-0.3,0.2H34L34,28.8L34,28.8L34,28.8z M33.8,29.4L33.8,29.4l0.3-0.2L34,29.6
	L33.8,29.4L33.8,29.4z M33.3,29.3h0.3l0.2-0.2v-0.2L33.3,29.3L33.3,29.3z M11.6,54.1l0.3-0.2v0.2H11.6L11.6,54.1z M9,55.1l-0.3,0.5
	H8.5v-0.2L9,55.1l0.2-0.3v-0.3h0.3l0.2-0.5v-0.5v-0.3l0.5-0.2l0.5,0.5l0.2,0.5l0.2,0.2v0.2h-0.3l-0.2-0.2l-0.2,0.2h0.2l0.2,0.2
	l0.2,0.2v0.2L10.7,55h-0.2L10,55.1l-0.3,0.2H9.4L9,55.1L9,55.1L9,55.1z M8.5,50.7l-0.3-0.3v-0.5l0.3-0.2H8.3H8L8.7,49h0.5h0.5
	l0.2-0.2l-0.2-0.2l-0.3-0.3V48l0.5-0.9L10,47l0.2-0.3l0.2,0.2l0.2,0.5l0.2-0.3v-0.9l0.2-0.3h0.2l0.9-0.9l0.2,0.2l0.2-0.3v-0.7
	l0.3-0.2l0.3-0.3l0.2,0.2v0.3l0.2-0.7l0.5-0.5l0.3-0.2l0.7-0.5l0.3-0.3l0.9-0.7h0.3l0.2,0.2l0.5-0.2l0.5-0.2l0.2,0.2l0.5,0.3V41
	L18,40.7l0.2-0.3l0.9-0.5l0.5-0.2l0.9-0.9l1-0.5h0.3v-0.3l0.7-0.3H23l1-0.9l1-1.2v-0.3l0.2-0.3v-0.5l0.5-0.5l0.3-0.2v-0.5l0.2-0.5
	l0.5-0.3h0.5l0.5-0.2l0.2-0.3l0.7-0.7l0.2-0.2l0.5-0.7l0.5-1.2l0.2-0.7l0.5-0.3l0.3-0.2l0.7-0.5H32l-0.3,0.5v0.3l0.2,0.3l0.2,0.2
	l0.3-0.2l0.2,0.2v0.2h0.2l-0.2,0.3l-0.3,0.3L32,29.8l0.2,0.7l0.3,0.2l0.3-0.5l0.3-0.2l0.3,0.2h0.2v0.3l0.3,0.3l0.5-0.3h-0.2
	l-0.2-0.2l0.3-0.7l0.3,0.2v0.3H35l-0.3,0.5L34.2,31h0.3l0.3-0.2l-0.5,0.7h-0.2L34,32v0.5l0.2,0.5v0.5l0.3,0.2L34,34l-1.4,1.2v0.3
	l-1,1v0.2h-0.3l-0.5,0.5v0.5l-0.7,0.7l-0.2,0.3l-0.9,0.5l-0.7,0.2l-0.3,0.2l-0.2,0.9v0.7l-0.2,0.2h0.3l0.2,0.3v0.7l-0.2,0.2
	l-0.2-0.2v-0.5l-0.2-0.2l-0.2,0.2v0.3l-0.2,0.2L27,42.2h-0.5L27,42v-0.2l-0.3-0.2l-0.3,0.2V42L26,42.2h-0.2l-0.2-0.5l-0.5-0.2
	l0.3,0.3v0.3l-0.3,0.5h-0.3h-0.5l-0.2,0.3h-0.3l-0.3-0.3l-0.2,0.5L23,43.4l-0.5,0.5v0.5l-0.3,0.3l-0.5,0.9l-0.2,0.5l-0.3,0.5
	l-1.2,0.9L19.6,48l-0.2,0.9l-0.3,0.7l-0.5,0.7h0.2l-0.2,0.2l-0.3,0.2h0.5v0.2l-0.2,0.2h-0.7L17,51.2l-0.3,0.5l-0.2,0.5l-0.7,0.3
	l0.2-0.3l-0.3-0.3l0.2,0.5v0.3l-0.5,0.2l-0.7,0.7l-0.9,0.3l-0.7,0.2l-0.5-0.2v-0.3l-0.7,0.3h-0.3l0.5-0.3l-0.3-0.3l-0.5-0.5v-0.5
	l-0.2-0.2h-0.5l-0.3-0.2l0.2-0.2l-0.2-0.3l-0.3-0.2H9.5v0.3H9.4v-0.2H8.7L8.5,50.7z"/>
</svg>
