<?xml version="1.0" encoding="utf-8"?>
<!-- Generator: Adobe Illustrator 19.2.0, SVG Export Plug-In . SVG Version: 6.00 Build 0)  -->
<svg version="1.1" id="Layer_1" xmlns="http://www.w3.org/2000/svg" xmlns:xlink="http://www.w3.org/1999/xlink" x="0px" y="0px"
	 viewBox="0 0 56 56" style="enable-background:new 0 0 56 56;" xml:space="preserve">
<style type="text/css">
	.st0{fill:#FDC414;}
</style>
<path id="Oman" class="st0" d="M8.7,41.7l15-4.3L24.4,26L23,21.7L27.4,8h1l0.3,3l1.7,2v0.7l3,2.3l1.3,0.3l0.7-0.3h1l2.3,0.3L40,16
	h0.7l1.3,2l0.3,1.3l1,0.7l0.3,1l2,1.7l1,0.3l0.3,0.3v1l-0.7,1V26L46,26.7l-2,3l-1.3,1L42,32l-0.7,0.7l-0.7,2H40l-0.7-0.3v-0.7
	l0.3-0.7l-0.3-0.3L38.7,33L38,34h-0.3l0.3,0.7h-0.7l-1,1.7v1L36,38h0.3l0.3,1h-0.3l0.7,2l0.3,0.3L37,42l-2.7,0.3l-0.7,0.3L33,42.3
	l-1.3,0.3l-2,2.3v1.7L29.4,47l-1,1l-0.7-0.3L26.4,48h-1.7l-0.3,0.3L23.7,49v0.7v0.7l0.3,0.3v0.7h-0.3v0.3l-1.3,2h-0.7L21,53l-1,0.3
	h-1l-2,1h-1l-0.7,1h1L16,55l-0.7,0.3l-3-3.7l0.7-2.3l-4.7-6L8.7,41.7L8.7,41.7z M27.4,5.3V4.7L27.7,4V2.7h-0.3L27.7,2l-0.3-0.3
	l0.3-0.3H28L27.7,1h-0.3H27l-0.3,1.3l-0.3,0.3L26,2.3l-0.3,0.3V3l0.7,0.3v2L27.4,5.3z"/>
</svg>
