<?xml version="1.0" encoding="utf-8"?>
<!-- Generator: Adobe Illustrator 19.2.0, SVG Export Plug-In . SVG Version: 6.00 Build 0)  -->
<svg version="1.1" id="Layer_1" xmlns="http://www.w3.org/2000/svg" xmlns:xlink="http://www.w3.org/1999/xlink" x="0px" y="0px"
	 viewBox="0 0 56 56" style="enable-background:new 0 0 56 56;" xml:space="preserve">
<style type="text/css">
	.st0{fill:#FDC414;}
</style>
<polygon id="Panama" class="st0" points="48.8,38.4 47,36.6 44.5,33.6 43.9,31.2 44.5,30.6 46.4,28.1 47,28.1 48.2,27.5 47.6,25.7 
	46.4,25.7 45.1,27.5 44.5,28.1 43.9,26.9 43.3,25.1 41.5,23.3 40.3,22.7 38.5,21.5 37.3,20.9 34.8,20.9 31.8,22.1 31.8,23.9 
	32.4,24.5 32.4,25.7 30,28.1 27,28.7 25.2,29.3 25.2,30.6 25.8,31.8 27.6,33 28.8,34.2 28.8,36.6 27.6,36.6 25.8,36.6 24.5,37.8 
	23.3,39.6 20.9,39 20.3,37.8 20.3,36.6 20.3,34.8 20.3,33.6 19.7,33 18.5,33 17.9,33.6 18.5,34.2 17.9,35.4 16.7,35.4 14.8,34.8 
	13.6,32.4 13,30 10,29.3 8.8,29.3 8.8,28.1 8.2,27.5 7,28.1 5.2,28.7 3.9,28.1 2.1,28.1 1.5,27.5 1.5,26.3 2.1,25.1 3.9,23.9 
	2.7,22.1 1.5,21.5 1.5,20.3 2.7,19 2.7,17.2 3.9,16.6 5.2,16.6 5.8,17.8 7,19 8.2,19 8.8,19 9.4,19.7 8.8,20.3 8.2,20.3 8.8,20.9 
	10,22.1 11.8,21.5 11.8,20.9 10.6,20.3 11.2,19.7 13.6,20.9 16.7,22.7 19.7,22.7 21.5,22.7 23.3,20.9 28.8,18.4 31.8,17.2 
	34.2,15.4 35.5,15.4 36.7,16 37.3,17.2 39.1,17.2 42.7,17.2 45.1,17.8 49.4,20.3 51.2,22.1 51.2,23.3 52.4,23.9 53.6,24.5 53,26.3 
	53,27.5 54.2,30 53,32.4 52.4,34.8 51.2,35.4 50,35.4 "/>
</svg>
