<?xml version="1.0" encoding="utf-8"?>
<!-- Generator: Adobe Illustrator 19.2.0, SVG Export Plug-In . SVG Version: 6.00 Build 0)  -->
<svg version="1.1" id="Layer_1" xmlns="http://www.w3.org/2000/svg" xmlns:xlink="http://www.w3.org/1999/xlink" x="0px" y="0px"
	 viewBox="0 0 56 56" style="enable-background:new 0 0 56 56;" xml:space="preserve">
<style type="text/css">
	.st0{fill:#FDC414;}
</style>
<polygon id="Peru" class="st0" points="42.7,32.8 42.5,32.8 42.3,32.6 42,32.6 41.3,32.8 40.8,32.8 40.2,33 39.9,32.6 39.9,32.1 
	39.8,30.3 39.8,29.4 40,29.1 40,28.5 39.9,28.1 38.8,28.9 37.6,30 36.3,29.8 35.1,29.8 34.9,28.9 34.2,28 33.5,28 31.7,28 
	32.4,27.1 31,25 30.3,24.2 30.5,23.8 30.3,23.4 30.5,22.9 30.5,22.1 30.3,21.7 30.7,21.5 30.7,20.9 31.5,20.4 31.9,20.5 32.4,20 
	32,19.6 31.9,18.6 32.6,17.8 32.4,17.4 32.8,17 32.6,16.3 33.2,15.9 33.8,15.5 34.4,15.1 34.7,15.1 35.1,14.7 36.5,14.3 38.4,13.6 
	38.6,13.2 38.8,13.2 39.4,13.2 39.8,13.2 40.2,13.6 40.2,13.8 40.8,13.9 41,13.6 40.8,12.7 40.4,12.2 39.8,12.4 39.2,12.4 39,12 
	40.8,8.9 40.8,8.7 40.2,8.9 39.9,8.5 39.4,8.1 39,8.1 38.8,7.7 38.3,7.7 37.2,8.3 36.7,7.9 35.8,7.7 34.9,8.1 34.7,8.5 34,8.5 
	33.5,8.3 33,8.5 32.4,8.3 32.2,7.7 32.4,7.5 32.2,6.8 31.7,6.7 31.5,6.5 31.5,6 31,5 29.7,4.6 29.4,4.6 28.9,3.8 28.9,3.3 28.2,2.4 
	28,2.3 27.2,2.1 26.4,1.7 26,1.5 25.8,1.5 26,1.9 25.8,2.3 26.6,3.3 26.6,3.8 26.4,4.4 26.4,4.7 25.8,4.7 25,6.5 23.1,8.3 21.9,9.1 
	19.1,10.1 18.6,10.4 16.5,15.1 15.9,15.5 15.5,15.5 14.8,14.3 14.3,14.1 13.4,13.9 13.2,13.6 12.5,13.8 12,13.8 12,13.2 12.3,12.7 
	12.8,12.4 12.7,11.6 12.5,11.4 12.3,11.6 11.1,12.2 10.5,12.7 9.7,13.6 9.3,14.3 9.1,14.9 9.1,15.1 9.7,15.3 9.7,15.9 9.3,16.1 
	9.3,16.5 9.9,16.8 10.3,17.7 10.2,18.2 9.9,18.2 9.5,18.4 9.3,19 9.7,19.3 10.2,19.5 11.1,20.2 11.8,20.4 13,21.1 13.6,21.3 
	13.8,21.6 14.3,22.5 14.4,23.4 14.8,23.9 15.9,24.4 16.5,25.4 16.5,26 16.7,26.6 16.9,27.5 17.3,28.1 17.9,28.3 18.2,29.4 18.4,30 
	18.2,30.3 18.7,31.2 19.6,32.2 20,32.8 19.8,33.3 19.8,33.7 20.2,33.9 21.2,34.7 21.4,35.1 21.6,36 21.7,36.4 22.5,36.5 22.7,37.2 
	23.3,38.5 23.7,39.2 24.6,40.5 24.6,40.9 24.4,41.1 24.1,40.9 24.1,41.1 24.3,41.7 24.3,42.1 24.4,42.1 24.8,42.3 25,42.6 
	24.8,42.9 25.6,43.6 26.6,44 26.8,44.4 27.1,44.9 27.6,44.9 27.8,45.2 28,45.8 28.3,46 29.3,46 29.4,45.6 29.3,46 29.7,46.7 
	30.7,47.1 31.2,47.4 31.2,47.9 31.5,48.1 32.2,48.5 32.4,48.3 33,48.5 34,49 34.7,49.3 35.3,49.3 35.6,49.5 35.8,49.9 36.5,50.4 
	36.9,50.8 37.6,51.3 37.9,51.4 38.1,51.8 38.1,52 38.1,52.6 38.6,52.6 39.4,52.9 40,53.6 40.8,54.3 41.3,54.5 41.3,54.5 42,54.1 
	42.7,53.8 43.1,53.9 43.6,53.6 43.8,53.1 43.3,52.6 43.5,52.2 43.8,51.6 44.1,51.8 44,51.4 43.8,51.3 43.5,51.2 44,50.2 44.5,49.7 
	45,49 45.2,48.3 44.3,46.5 44.7,46.1 44.5,45.4 44.3,45 44.3,44.4 44.5,44 44.9,43.1 44.7,41.3 44.5,40.5 44.9,39.6 44.9,37.6 
	45.2,36.9 45.2,36.5 "/>
</svg>
