<?xml version="1.0" encoding="utf-8"?>
<!-- Generator: Adobe Illustrator 19.2.0, SVG Export Plug-In . SVG Version: 6.00 Build 0)  -->
<svg version="1.1" id="Layer_1" xmlns="http://www.w3.org/2000/svg" xmlns:xlink="http://www.w3.org/1999/xlink" x="0px" y="0px"
	 viewBox="0 0 56 56" style="enable-background:new 0 0 56 56;" xml:space="preserve">
<style type="text/css">
	.st0{fill:#FDC414;}
</style>
<path id="Papua_New_Guinea" class="st0" d="M47.8,45.8l0.5-0.5l0.7,0.2l-0.2,0.5H48L47.8,45.8L47.8,45.8L47.8,45.8z M44.8,46.1
	l0.9,0.9h0.5l0.5,0.2l0.2-0.2l-0.2-0.5H46l-0.7-0.5L44.8,46.1L44.8,46.1z M22.3,10.8l0.2-0.2H23l0.7-0.2l0.5,0.2l0.5-0.2l0.5,0.2
	l-0.7,0.7h-0.9l-0.2-0.2h-0.5C22.6,11.3,22.3,10.6,22.3,10.8L22.3,10.8z M51.2,23.6h0.7l0.5,0.5l0.2,0.9l0.9,0.2l1.1,0.9l0.7,0.9
	v0.9l-0.5,0.2l-0.2,0.2h-0.9l-0.5-0.2h-0.5l-0.5-0.5l0.2-0.5l-0.5-0.9l-0.7-0.5v-1.1L51.2,24L51.2,23.6L51.2,23.6z M50.3,21.7
	L50.3,21.7v0.7v0.7l0.5-0.5V22L50.3,21.7L50.3,21.7z M49.4,20.4l0.5-0.2l0.2-0.5l0.5,0.5l-0.5,0.5h-0.5L49.4,20.4L49.4,20.4z
	 M37.3,12.9l1.6,0.9l1.1,0.2l1.4,1.1l0.9,0.2l0.5,0.7l0.9,0.5l0.7,1.1h0.5l0.2,1.6l0.5,0.2v0.7l-0.2,0.7l-0.2,0.9l-0.7-0.9l-0.2-0.7
	l0.2-0.7l-0.5-1.8l-1.4-1.4h-0.9l-1.4-0.7l-2.5-1.4l-0.5-0.5V12.9L37.3,12.9z M32.6,7.7h0.7l0.5,0.7v0.5l-0.9-0.7L32.6,7.7L32.6,7.7
	z M34.4,12.9l0.9-0.2l0.5,0.2v0.7l-0.7,0.2l-0.5-0.2L34.4,12.9L34.4,12.9z M34.4,21.5l0.7,0.7l0.5-0.5l-0.5-0.7h-0.5L34.4,21.5
	L34.4,21.5z M28.5,23.3L28,24.2l0.7,0.7h0.7l1.1,0.9l0.2,0.5l0.5-0.5h1.1l0.5,0.7l0.9,0.2h0.5l1.4-0.2l0.7,0.2l0.7-0.2l0.9,0.5
	l0.2-0.5v-0.5h0.9l1.4-1.6V24l0.5-0.2l0.5,0.5l0.9-0.2l0.5-0.7l-0.7-0.7v-0.5l0.5-0.2l0.5,0.2l0.9-0.9v-1.6L42.8,19l-0.5,0.2
	l-0.2,0.2L41.7,19h-0.9l-0.5,0.5l0.5,1.6l0.2,0.2l-0.5,0.5h-0.7l-1.4,1.1l-0.2,0.7l-0.5,0.2l-0.5-0.2l-0.5,0.2l-0.5-0.5H36L35.5,24
	h-0.5l-0.2-0.9l0.2-0.5l-0.5-0.2l-0.5,0.5v0.5l-0.5,0.5H33L32.1,24h-0.7L31,23.8h-0.7L29.4,24L28.5,23.3L28.5,23.3z M26,24l0.5-0.5
	l0.5,0.5l0.2,0.7l-0.2,0.2l-0.7-0.5L26,24L26,24z M23.9,22.7l-0.2,0.7l0.2,0.5h0.5v-0.7L23.9,22.7L23.9,22.7z M20.5,20.4l-0.9,0.2
	l0.2,0.5l0.5-0.5L20.5,20.4L20.5,20.4z M43,36.7l-0.2,0.5l0.2,0.5h0.2l0.7,0.5v-0.5L43,36.7L43,36.7z M37.8,34.5l-0.2,0.2l0.2,0.5
	H38v0.5v0.2h0.2v-0.7L37.8,34.5L37.8,34.5L37.8,34.5z M36.2,39.7h0.5l0.2,0.2v0.2h0.2v0.2l0.5-0.5h0.2v0.5l-0.2,0.2v0.2l-0.5,0.2
	l-0.5-0.2v-0.5h-0.2L36.2,39.7L36.2,39.7L36.2,39.7L36.2,39.7z M35.5,38.6l0.2,0.7l0.2,0.2h0.5l0.2,0.2l0.2-0.2l-0.2-0.2h-0.2V39
	l-0.2-0.2l0,0L35.5,38.6L35.5,38.6L35.5,38.6z M34.2,37.9l0.2,0.7h0.2l0.2,0.5h0.2v-0.5l-0.5-0.7H34.2L34.2,37.9L34.2,37.9z
	 M16.2,32L16.2,32v0.5C16.2,32.6,16.2,32,16.2,32L16.2,32z M14.8,32.2L14.8,32.2L14.8,32.2L14.8,32.2L14.8,32.2z M13.7,32v0.5h0.5
	v-0.2L13.7,32L13.7,32z M14.6,32.2l-0.5-0.5l0.2-0.5h0.5l-0.2,0.5V32.2L14.6,32.2z M11.7,32.2l0.2,0.7h0.2L11.7,32.2L11.7,32.2
	L11.7,32.2z M10.8,34.9l0.5-0.5h0.5l-0.2,0.2C11.7,34.9,10.8,34.9,10.8,34.9L10.8,34.9z M10.8,35.4l0.2,0.2L10.8,35.4L10.8,35.4
	L10.8,35.4z M9.8,34.9l0.5,0.2l0.2-0.2H9.8L9.8,34.9z M9.4,35.4l0.9,0.5l0.5,0.5L9.4,35.4L9.4,35.4z M10.8,33.6l0.7,0.2L11.2,34
	L10.8,33.6L10.8,33.6L10.8,33.6z M11.4,33.3l-0.2-0.2v-0.2l0.5-0.5l0.2,0.7v0.2C11.7,33.3,11.7,33.3,11.4,33.3L11.4,33.3z M2.1,13.3
	L1.7,26.7l-0.2,0.9v0.7l0.2,0.2l-0.2,8.6h1.1L3,37.4l0.7-0.2h1.8L6,37l0.2,0.5l0.5,0.5l0.5,0.2l0.7-0.5l1.4-0.5V37l0.2,0.2l0.2-0.5
	v-0.9l-0.7-0.5l-1.1-0.5l-0.9-0.2l-0.5-0.2L6,34.2H5.8L5.3,34l-0.2-0.9l-0.7-0.9L3.7,32l-0.2-0.5L3,31.1l0.5,0.2l0.2,0.5h0.5
	l0.9,0.5l0.2,0.7v0.7h0.2l0.9,0.2l0.5,0.5h0.5h0.9L9.2,34h0.7l0.7-0.2l-0.2-0.2l-0.5-0.2l-0.2-0.5H8.9l-0.2-0.5l0.5,0.5l0.7-0.2
	l0.5,0.7l0.7,0.2v-0.5v-0.5l0.2-0.2V32v-0.5l-0.5-0.5v-0.2l0.7,0.2l0.2,0.5l0.7,0.7l0.5,0.2V32l-0.2-0.5l0.2,0.2l0.2,0.7h0.2V32
	L13,31.5l0.2-0.7l0.2,0.5l0.9,0.2l0.2,0.5h0.5h0.5l0.2,0.2l0.2-0.5v0.5v0.5h0.5l0.5,0.5l2,0.5l0.7,0.2l0.5,0.7l0.2,0.9l0.9,1.1
	l0.2,0.5l0.7,0.2l0.5,0.5l0.2,0.5l1.6,1.6v0.5l0.7,0.5l0.9,0.2l0.5-0.2h0.5l0.5,0.2l1.1-0.2l0.7,0.2h0.7l1.1,0.2l0.5,0.2l0.9-0.2
	l0.5,0.5h0.7l0.2,0.2L33.2,42l0.7,0.2l0.9,0.5l0.9-0.2L36,42l-0.9-0.5h-0.2v-0.2l0.7-0.2l0.5,0.2l0.7-0.5l-1.4-0.2l-1.6-0.2
	l-0.9-0.5l-0.2-0.5l0.9-0.5h0.5l0.2-0.2l-0.5-0.2h-1.1l-1.1-0.2L31,37.9v-0.5l0.5-0.5l0.2-0.5l-0.5-0.5h-0.5l-0.2,0.2l-0.5-0.2h-0.5
	l-0.7-0.7l-0.2-0.9l-0.5-0.2l-0.7-1.6l-0.2-0.2L27.1,32h-0.7L26,31.7l-0.5-0.7l-0.7-0.9l-0.2-0.9l-0.5-0.5l-0.5-0.7v-0.2l1.4,0.2
	l1.4-0.7l0.5-0.7v-0.7l-1.1-1.1l-0.7-0.2l-0.2,0.2l-0.9-0.5L22.6,24l-0.7-0.7h-0.7l-1.8-0.7l-0.2-0.5l0.5-0.9v-0.7l-0.5-0.7
	l-1.4-1.4h-0.2l-0.5,0.2l-0.2-0.5l-0.7-0.5L16,17.4l-0.7-0.2l-0.5-0.5h-0.2l-0.7-0.5h-0.5l-0.7-0.5l-0.9-0.2l-1.4-0.9l-1.8-0.2
	L8,14.2l-0.5-0.5H6.7L6.4,14l-1.4-0.7l-0.2-0.2l-0.7-0.2L3,12.4L2.1,13.3z"/>
</svg>
