<?xml version="1.0" encoding="utf-8"?>
<!-- Generator: Adobe Illustrator 19.2.0, SVG Export Plug-In . SVG Version: 6.00 Build 0)  -->
<svg version="1.1" id="Layer_1" xmlns="http://www.w3.org/2000/svg" xmlns:xlink="http://www.w3.org/1999/xlink" x="0px" y="0px"
	 viewBox="0 0 56 56" style="enable-background:new 0 0 56 56;" xml:space="preserve">
<style type="text/css">
	.st0{fill:#FDC414;}
</style>
<path id="Philippines" class="st0" d="M22.2,3.8h0.9L22.6,4L22.2,3.8L22.2,3.8z M21.7,2.5l0.4,0.4l-0.7,0.2L21.7,2.5L21.7,2.5z
	 M23.1,1.3l-0.4,0.4l0.4,0.4V1.3L23.1,1.3z M24.7,3.1l-0.4,0.4l0.4,0.2l0.2-0.4C24.9,3.6,24.7,3.1,24.7,3.1L24.7,3.1z M24.9,21.1
	l0.4,0.4l0.2,0.7l0.9,0.2l0.4-0.2l0.2-0.4l0.9-0.7h0.7l1.1,0.7l0.4,0.9v0.7l0.2,0.4l0.4-0.2v-0.7l0.2-0.2l0.4,0.7h0.9l0.7,0.4
	l0.2,0.2H33l-0.4-0.2L32.1,24l0.2,0.7l0.4,1.1v0.4h0.7l0.4,0.2h0.7l0.2,0.4l-0.2,0.2v0.4l-0.2,1.1l-0.7-0.2L33,27.8l0.4-0.2v-0.4
	l-0.7-0.2v0.2l-0.7,0.2l-0.9-0.9l-0.4-0.2v-0.7l-0.2-0.7l-1.1-0.4l-0.4-0.9l-0.4-0.2L28,22.9h-0.4v0.4l0.7,1.3l0.2,1.1h-0.2
	l-0.7-1.1l-0.9-0.4l-0.2-0.4l-1.3-0.7h-0.9L24,23.6l0.2,0.4l-0.7,0.4l-0.9-0.9L22.2,24l-0.4,0.2l0.2-0.7l-0.2-0.7l-0.4,0.2l-0.2,0.7
	l-0.4-0.9V22v-0.4l0.4-0.4l0.7-0.9l-0.7-0.4h-0.7v0.4l0.4,0.4l-0.4,0.4h-0.4l-0.7-0.9v-0.7h-0.2l-0.2,0.2l-0.2-0.2v-1.3l-0.4-0.9
	l-0.2-1.1l0.2-0.4l-0.2-0.2h-0.7L17,14.8v-0.9l0.4,0.7h0.7l0.4-0.2v-0.4l-0.4-1.1l0.2-0.9l0.4-1.8V8.7l-0.2-0.9l0.7-1.3l0.2-0.9
	l1.1-0.4L22,5.4L22.6,6l0.4,0.2l0.2-0.4h0.9l0.4-0.4V5.1l0.2-0.2l0.4,0.7V6l-0.4,0.4l-0.2,1.3L25.3,9l0.4,0.2l0.2,0.9l0.4,0.4
	l-0.2,1.6l-0.4,1.1l0.2,0.9L25.3,15v-0.4l0.2-0.4l-0.4,0.2L24,15.5l-0.2,0.7V17l-0.4,0.4l-0.2,0.9l0.4,0.2l0.4,0.9l0.4,0.4l-0.2,0.4
	L24.9,21.1L24.9,21.1z M26.2,21.3l0.2,0.7l0.4,0.2l-0.2-0.4L26.2,21.3L26.2,21.3z M25.6,18.6l0.4,0.9v0.2l0.2,0.4l0.4-0.4v-1.1
	l0.4-0.4l-0.4-0.2L25.6,18.6L25.6,18.6z M19.5,23.1v0.4l0.9,0.4l0.2-0.2l-0.7-0.7L19.5,23.1L19.5,23.1z M20.6,24.7l0.2,0.2h0.4
	l0.2,0.9L22,26l0.4,0.7v1.1l0.4,0.2v0.7l0.7,0.9h0.7l0.7-0.4v-0.4l0.2-0.2v-0.7l-0.4-0.4l0.2-0.4v-0.7L24.2,26l-1.6-1.3l-0.9,0.2
	l-0.9-0.2L20.6,24.7L20.6,24.7z M34.5,22.2l-0.4,0.2l0.2,0.9l-0.2,0.4L33.9,24l0.2,0.4l0.9-0.2l0.2-0.7L35,22.9L34.5,22.2L34.5,22.2
	z M26,25.1l0.9,0.4l0.2-0.4l0.2-0.4L26.9,24l-0.7-0.2l-0.4,0.4L26,25.1L26,25.1z M27.4,27.8l-0.2,0.7l-0.4,0.7l0.4,0.9l0.4-0.2
	l0.2-0.9l-0.2-0.7l0.2-0.9L27.4,27.8L27.4,27.8z M29.2,28.3l-0.2,0.2v0.4h0.7v-0.4L29.2,28.3L29.2,28.3z M31.4,26.5l-0.7-0.7h-0.2
	v0.4l0.9,0.9l0.2-0.2L31.4,26.5L31.4,26.5z M32.5,27.8l0.2,0.4l0.7,0.4h0.2L33,28L32.5,27.8L32.5,27.8z M31.4,30.5l0.7-0.9h0.4
	l0.7,0.9l0.9,0.4h0.4v-0.4l-0.4-0.4L33,29.4h-0.4l-0.7-0.7h-0.2v-0.2l-0.4-0.2v0.7l0.2,0.7l-0.2,0.2v0.4L31.4,30.5L31.4,30.5z
	 M28,35.5l-0.2,0.2l-0.2,0.2l-0.2-1.1l0.2-0.9v-1.1l0.2-0.7v-0.7h-0.4l-0.7-0.2l0.2-0.4l0.7-0.2l0.7,0.7l0.4,0.2l-0.2,0.2h0.4h0.7
	l0.4,0.2l0.4,0.7l0.4-0.7l0.4-0.2l0.2,0.4l-0.2,0.7L30.9,33l-0.4,0.7l-0.9,0.7l-0.2,0.4h-0.4V35h-0.4L28,35.5L28,35.5z M29.8,35
	l-0.7,0.2l-0.2,0.7l0.4,0.4l0.7-0.7v-0.4L29.8,35L29.8,35z M35.7,35v0.7V35L35.7,35L35.7,35z M32.7,39.7l0.4-0.7l0.2-1.6l0.9-1.1
	l0.2-0.7V35l0.2-0.4v-1.3l-0.4,0.2l-0.2,1.3l-0.7,1.1v0.9l-0.2,1.1l-0.4,0.7v0.7L32.7,39.7L32.7,39.7z M31.8,39.3v-1.3l0.4-2
	l0.7-0.7v-0.7l-0.4-0.4l-0.2,0.2l-0.4-0.2l-0.4,0.4v0.7l-0.4,0.7l0.2,0.9l-0.4,0.9l-1.1,0.2l-0.2,0.4l0.2,1.1h0.4l0.9,0.4h0.7v0.9
	l0.4,0.2l0.7-0.4v-0.7L31.8,39.3L31.8,39.3z M33.4,40.4L33.4,40.4l0.2,0.7l-0.4,0.2l-0.4-0.2l0.2-0.4L33.4,40.4L33.4,40.4z
	 M35.7,37.3h0.4l0.4,0.4v0.7l-0.2,0.4l-1.1,0.4h-0.9V39l-0.4-0.4l0.4-0.7L35.7,37.3L35.7,37.3z M39,37.3l0.4,0.7v0.4L39,37.9V37.3
	L39,37.3z M37,40.2l0.7,0.4v0.7l-0.4-0.2L37,40.6L37,40.2L37,40.2z M36.6,31.6l-0.2,0.7h-0.4l-0.7-0.4l0.4-0.2H36.6L36.6,31.6z
	 M37.9,32.5l0.7,0.4l0.2,0.4h1.1h0.2l0.2-0.2l0.4,0.2L40.6,33l-0.2-0.7h-0.7v-0.9v-1.3v-0.4l-0.2-0.2l-0.7-0.9l-0.4-0.7h-0.4
	L37.7,28l-0.2-0.2H37L36.8,28h-0.7h-0.4l-0.2-0.2v0.4l0.4,1.1l0.9,0.7l0.9,0.9l0.4,0.2v0.2l-0.7,0.9v0.2l0.2-0.2L37.9,32.5
	L37.9,32.5L37.9,32.5z M37.5,32.8L36.8,33l-0.7-0.2h-0.4l0.2,0.7v0.7l0.4,0.4l0.4-0.4l0.4,0.4v0.9l0.2,0.7l0.2,1.1l0.7,0.4v-0.9
	l0.4,0.4l0.7-0.2v-0.4l-0.7-1.1l-0.4-0.2l-0.2-1.1l-0.4-0.9L37.5,32.8L37.5,32.8z M40.8,34.6h0.2l-0.2-0.2h-0.2L40.8,34.6L40.8,34.6
	z M41.1,35.2L40.6,35v0.4l0.2,0.2L41.1,35.2L41.1,35.2z M40.8,38.6l0.2-0.9L40.6,37v-0.7l0.2-0.2l-0.2-0.4l-0.4,0.2l-0.2,0.7
	l0.4,0.9v0.4l0.2,0.2L40.8,38.6L40.8,38.6z M41.7,38.8v0.4l0.2,0.2l0.2-0.4L41.7,38.8L41.7,38.8z M42.2,37.3l-0.2,0.7l-0.2,0.2
	l0.4,0.4l0.4-0.2l-0.2-0.7L42.2,37.3L42.2,37.3z M28.5,49.6l-0.7-0.9l0.4-0.9l0.2-1.1l-0.2-0.4l0.7-0.7l0.7-0.2l0.4-0.4l0.7,0.2
	l0.9-0.2l-0.2-0.7l0.2-0.7l0.9-0.4l0.4-0.7h0.4l0.9,0.9v1.1l-0.7,1.1l0.7-0.7l0.7-0.2l0.9-0.4l0.4-1.1l0.7-0.2l0.4,0.9l0.4-0.2v-0.4
	l-0.2-0.2l0.4-1.3l0.7,0.2l0.4,0.2l0.2-0.2v-0.9h0.2l0.4,0.7v-0.4l-0.2-1.3v-0.9l0.4,0.2h0.2l0.2,0.7l0.9,0.9l0.7,0.7l0.4-0.4v0.4
	l0.4,0.7v0.9h-0.4v0.4l0.4,0.4h0.2v0.4v0.9l0.2-0.4v0.9v0.9l0.4,0.7l0.4,0.7l0.2,1.1l-0.4,0.9h-0.2v0.4L44,49.8h-0.4l-0.2,0.4
	l0.2,1.1v0.7v0.4l-0.2-0.4l-0.2-1.1v-0.7l-0.2-0.4l-0.2-0.7l-0.4-0.7l-0.4,0.2l-0.9,1.6l-0.2,0.7l0.7,0.4l0.4,0.9l0.2,0.4v0.7
	l-0.9,1.3l-0.4,0.4L40.4,55l-0.2-0.7l0.2-0.4l-0.2-0.2l-0.4,0.2v0.4L39,54.5l-0.7-0.2l-0.7-0.4h-0.9l-0.7-0.7l-0.2-0.7l-0.4-0.7
	l0.2-0.4v-0.4l-0.2-0.4l0.2-0.4v-0.4l0.2-0.2l0.7,0.2l-0.4-0.4l-0.2-0.7L35.2,48l-0.7-0.2l-0.7-0.7h-0.2l-0.2,0.2l0.2,0.2l-0.2,0.2
	l0.4,0.4h-0.2l-0.4-0.4h-0.4l0.2-0.4l-0.4-0.2l-0.2,0.2V48l-0.4-0.2L31.6,48l-0.2-0.2l0.2-0.7l-0.4-0.4l-0.4,0.2l-0.4,0.9l-0.4,0.4
	l-0.4,1.6L28.5,49.6L28.5,49.6z M27.4,50.5v0.4l0.4,0.7l0.4,0.2l0.9-0.9v-0.2l-0.4-0.2l-0.4-0.2l-0.4,0.2H27.4L27.4,50.5z
	 M19.3,30.1l-0.2-0.4l-0.2-0.4l0.2-0.2h0.4l0.4,0.4l0.7,0.2l0.2,0.4l-0.2,0.4l-0.4-0.2L19.3,30.1L19.3,30.1z M18.8,30.5l0.7,0.2
	l0.2,0.4l-0.2,0.2l-0.2,0.2h-0.2l-0.2-0.9L18.8,30.5L18.8,30.5z M19.3,35.7l0.2-0.2l0.2-0.2l0.2,0.2l0.2,0.2v0.4h-0.4h-0.4
	L19.3,35.7L19.3,35.7z M10.7,43.5l0.7-0.4h0.4l0.4-0.4l0.7-0.2l0.9-1.1l0.9-0.2l0.4-0.4v-0.4l0.4-0.7v-1.1l0.4-0.4h1.1l0.2-0.7
	l0.4-0.4h0.4l0.2-0.7l-0.4-0.9l-0.4-0.7v-0.7v-1.1L17.5,33l-0.2,1.1v1.1L16.8,35l0.4,0.7v0.4l-0.7,0.7h-0.4l-0.7,0.7v0.4l-0.7,0.4
	l-0.7,1.6L13,40.8h-0.4l-0.4,0.9L11.6,42l-1.1,1.3l-0.2,0.4L10.7,43.5L10.7,43.5z M10.7,44l-0.4,0.4h0.2L10.7,44L10.7,44z
	 M11.2,44.2L11,44.4l0.4,0.2L11.2,44.2L11.2,44.2z M10.3,44.9l-0.7,0.2v0.4l0.4,0.7h0.4v-0.9l0.2-0.2L10.3,44.9z"/>
</svg>
