<?xml version="1.0" encoding="utf-8"?>
<!-- Generator: Adobe Illustrator 19.2.0, SVG Export Plug-In . SVG Version: 6.00 Build 0)  -->
<svg version="1.1" id="Layer_1" xmlns="http://www.w3.org/2000/svg" xmlns:xlink="http://www.w3.org/1999/xlink" x="0px" y="0px"
	 viewBox="0 0 56 56" style="enable-background:new 0 0 56 56;" xml:space="preserve">
<style type="text/css">
	.st0{fill:#FDC414;}
</style>
<polygon id="Pakistan" class="st0" points="31.8,55.3 31.8,54.4 32.7,54 33.2,53.7 33.4,52.8 34.1,53 34.6,52.8 37.1,52.8 
	38.5,52.3 38.8,52.1 39.7,51.6 39.4,52.3 39.7,52.8 40.6,52.1 41.3,51.9 40.8,51.6 41.1,51.2 40.1,48.9 39.4,47.9 39.7,47.2 
	39.2,47 38.5,47 37.4,46.3 37.1,44.9 37.1,44 36.7,42.9 36,42.9 35.7,43.1 34.8,42.9 34.1,42.9 34.1,41.9 34.8,40.3 35.3,40.3 
	36.2,38.9 36.4,38.2 37.1,37.8 37.6,37.5 38.3,37.8 38.5,38.7 39,38.7 40.4,38 42.2,37.8 43.4,36.6 44.1,34.5 45.9,33.4 46.1,32.4 
	46.4,31.3 47.3,30.1 48.5,29.7 48.7,28.8 48.7,28.1 48.2,27.6 49.4,26.4 49.8,26 50.1,25.3 50.3,23.4 49.8,22 49.6,21.8 50.8,20.7 
	51.5,20.4 52.2,20 52.6,20 53.3,19.3 53.3,18.3 52.4,18.3 51.5,18.6 50.3,18.3 49.8,17.4 48.7,17 47.3,16.5 45.9,15.3 45.7,14.2 
	45.2,11.9 44.5,10.7 44.5,9.6 45,9.3 45.2,8.6 46.1,7.9 46.1,7 45.2,6.8 45,6.1 44.1,5.4 42.9,4.7 42.2,3.8 41.5,4 41.1,4.2 
	40.4,3.8 40.4,2.2 42,1 41.8,0.5 40.8,0.8 39.9,0.3 38.8,0.8 37.8,1.7 36.9,1.7 36.2,2.6 35.5,3.1 37.1,5.4 37.4,7 35.5,9.3 
	36.4,10.3 36.4,11.2 35.5,12.6 34.1,12.6 32.7,12.1 32,12.6 32.3,13.5 33.2,14 33.4,14.9 33.4,15.6 32.5,16 31.8,16.3 31.4,16.7 
	31.4,17.9 31.1,18.8 31.1,19.3 30.7,19.5 31.1,21.1 30.2,22.3 29.5,21.6 29,21.6 29,22 28.1,22 27.9,21.6 27,21.8 26.7,22.3 
	25.3,23.2 26,23.4 25.6,23.9 24.2,24.6 23.7,24.4 22.8,24.4 22.6,25.1 22.6,25.5 21.9,25.7 21.4,26.4 21.4,27.4 21.6,28.5 
	21.6,29.4 21.9,30.1 21.6,30.8 20.3,31.3 19.1,31.3 17.9,31.5 15.9,31.5 14.7,32 14.2,32.2 13.1,32.2 11.9,32.4 7.5,32.7 2.7,31.3 
	2.7,31.3 4.5,33.8 5,34.5 5.9,35.7 6.8,36.1 7.1,36.4 8.2,36.6 8.9,36.8 9.2,37.3 10.1,37.3 10.1,38.5 10.3,39.4 10.5,40.3 10.5,41 
	11.5,41 12.4,41.7 12.6,43.1 11.9,43.5 11,43.1 9.4,43.5 8.9,44 8,44.5 7.5,45.2 7.8,45.9 7.1,46.6 7.5,47.5 7.3,48.9 7.3,49.3 
	7.8,49.3 7.8,49.8 8,50 9.2,49.3 9.9,49.3 10.1,49.6 10.3,49.6 10.8,49.1 11.7,49.1 11.9,49.3 12.6,49.1 13.1,49.1 13.3,49.1 
	13.5,48.9 13.8,48.4 14.5,48.9 14.9,48.9 15.2,48.6 15.4,48.6 15.6,49.1 16.3,49.1 16.8,49.3 17.2,49.3 18.2,48.6 19.1,48.6 
	19.8,48.9 20.3,48.4 20.9,48.4 20.9,48.2 21.2,48.4 22.3,48.4 23.3,48.2 24.2,48.2 24.9,48.6 25.3,49.6 25.1,50.3 25.3,50.3 
	25.1,50.3 25.1,50.7 25.8,50.7 26.7,50.3 26.7,50.9 27.7,51.9 27.9,53 27.9,53.3 27.9,53.7 27.7,54 27.9,54 28.1,54 28.3,54.6 
	29,54.6 30.2,54.6 31.4,55.3 31.4,55.8 "/>
</svg>
