<?xml version="1.0" encoding="utf-8"?>
<!-- Generator: Adobe Illustrator 19.2.0, SVG Export Plug-In . SVG Version: 6.00 Build 0)  -->
<svg version="1.1" id="Layer_1" xmlns="http://www.w3.org/2000/svg" xmlns:xlink="http://www.w3.org/1999/xlink" x="0px" y="0px"
	 viewBox="0 0 56 56" style="enable-background:new 0 0 56 56;" xml:space="preserve">
<style type="text/css">
	.st0{fill:#FDC414;}
</style>
<polygon id="Poland" class="st0" points="33.7,51.3 34,51.3 35.2,51.3 35.6,50.1 36.7,49.7 37.5,49.7 39,49.7 39.8,50.5 40.5,49.7 
	41.7,49.7 42.5,50.1 43.2,49.7 45.5,49.7 48.2,51.3 49.3,51.3 49.3,49.4 49.3,47.8 52.8,43.6 53.5,42.1 54.3,40.9 55.5,40.9 
	55.5,39 55.1,38.3 55.1,37.5 55.5,36.7 53.9,36 53.5,34.1 52.8,33.3 52.4,30.6 52.8,29.1 51.6,27.2 50.9,25.3 52,23.7 53.2,23.3 
	53.2,19.5 52.4,19.1 52,17.6 51.3,16.5 50.5,13.4 49.3,11.9 49.3,10.3 49,8 47.8,8 46.7,6.9 38.6,7.7 31,7.3 30.6,7.7 28.3,9.6 
	26.8,10 26,9.6 27.9,8.4 29.5,6.9 29.1,6.9 27.5,8 25.6,9.2 22.9,8.4 22.2,7.3 22.6,6.1 24.1,6.1 24.9,6.5 24.9,6.1 22.9,5.4 
	19.9,4.6 17.6,5.7 16.1,5.7 14.1,6.5 13,8 11.5,8 10.3,9.2 10.3,10.3 8.4,10.3 5.7,11.9 3.8,11.9 3.1,13.4 2.7,14.9 2.3,14.9 
	2.3,15.7 1.5,15.7 2.3,18.4 2.3,20.3 0.4,21 0.4,22.2 2.3,24.1 1.9,25.3 3.1,26.4 3.1,27.2 3.4,28.7 3.1,29.5 4.2,32.1 5,32.5 
	5.7,33.3 5.7,36.7 5.4,37.1 5.7,37.9 6.1,37.5 7.3,37.5 8,37.5 10.3,37.9 10.3,38.3 11.5,39.4 12.2,39.4 13.4,40.2 12.6,41.3 
	13,42.1 13.4,42.5 13.4,43.6 14.1,44 14.9,43.2 15.7,43.2 14.1,41.3 14.9,40.9 17.6,42.5 19.5,42.5 19.1,43.6 20.3,44.4 22.6,44 
	24.5,44.4 27.9,47.1 29.1,49 30.2,49 30.6,48.6 32.5,48.6 33.3,49.7 "/>
</svg>
