<?xml version="1.0" encoding="utf-8"?>
<!-- Generator: Adobe Illustrator 19.2.0, SVG Export Plug-In . SVG Version: 6.00 Build 0)  -->
<svg version="1.1" id="Layer_1" xmlns="http://www.w3.org/2000/svg" xmlns:xlink="http://www.w3.org/1999/xlink" x="0px" y="0px"
	 viewBox="0 0 56 56" style="enable-background:new 0 0 56 56;" xml:space="preserve">
<style type="text/css">
	.st0{fill:#FDC414;}
</style>
<polygon id="Portugal" class="st0" points="32,53.4 32,51.1 30.9,48.9 32.6,45.6 34.8,43.3 35.4,41.7 33.2,41.7 32,39.4 34.8,36.7 
	34.8,32.8 32.6,31.7 30.4,27.2 32.6,27.2 34.3,27.2 36.5,23.9 34.8,22.7 37.1,20.5 37.1,14.9 36.5,12.7 39.8,9.4 41,9.4 41.5,7.7 
	39.8,5.5 39.8,3.2 35.4,2.7 33.7,4.4 29.3,3.2 25.9,4.9 25.4,3.8 25.9,1.6 24.3,1 20.4,2.1 20.4,3.8 22,6.6 21.5,12.2 21.5,13.3 
	20.9,15.5 22,17.2 21.5,18.3 20.4,20.5 19.8,23.3 18.1,26.1 18.1,27.8 15.9,31.1 14.8,36.1 14.8,37.2 16.5,37.2 17,36.1 19.2,35 
	18.7,36.1 19.2,37.2 16.5,38.3 16.5,40 17.6,41.1 18.7,40 20.9,40 19.8,41.1 20.4,43.3 19.8,45.6 19.8,50 19.2,53.4 18.1,54.5 
	19.2,55 21.5,53.4 25.4,54.5 27,55.6 29.3,53.9 31.5,53.9 "/>
</svg>
