<?xml version="1.0" encoding="utf-8"?>
<!-- Generator: Adobe Illustrator 19.2.0, SVG Export Plug-In . SVG Version: 6.00 Build 0)  -->
<svg version="1.1" id="Layer_1" xmlns="http://www.w3.org/2000/svg" xmlns:xlink="http://www.w3.org/1999/xlink" x="0px" y="0px"
	 viewBox="0 0 56 56" style="enable-background:new 0 0 56 56;" xml:space="preserve">
<style type="text/css">
	.st0{fill:#FDC414;}
</style>
<polygon id="Paraguay" class="st0" points="1.1,19.6 1.5,17.2 3,14.1 3,12.6 3,10.6 2.2,9.8 4.2,7.1 5,4.8 5,3.6 6.5,2.8 14.7,0.5 
	21.7,0.5 25.9,3.6 26.7,3.6 27.9,5.2 27.5,6.3 29.1,7.5 29.4,9.5 30.6,11.4 29.8,14.9 30.2,16.4 29.8,17.6 30.2,19.2 32.6,18.8 
	33.3,19.2 36.4,19.2 38,19.9 40.7,18.8 42.3,19.6 43.4,19.9 43.8,21.5 45.4,28.1 46.5,30.4 47.7,30.8 50,29.3 51.6,30.1 52.4,30.8 
	53.1,30.8 52.8,32 52.4,37.8 52.4,38.2 52,38.6 52,39.4 52,39.8 52,40.5 51.6,40.9 51.2,42.5 51.6,43.3 51.6,45.6 50.4,46.4 
	49.7,47.9 49.3,49.1 46.5,51 45.8,52.6 44.6,54.1 43.4,53.8 43,54.1 41.5,55.7 41.1,54.9 40.3,54.9 38.8,55.7 36.4,54.1 32.6,53 
	28.3,53.8 27.1,53.8 27.5,52.2 29.4,50.3 30.6,47.9 30.2,46.8 30.6,45.6 31.8,44.8 32.6,43.3 32.9,42.1 32.2,40.5 30.6,39 
	29.1,37.4 25.6,37 22.8,35.5 20.1,33.2 19,33.2 16.6,32 12.7,30.8 12,29.3 10.4,28.1 8.8,27.7 5,24.2 3.8,21.5 2.6,21.1 "/>
</svg>
