<?xml version="1.0" encoding="utf-8"?>
<!-- Generator: Adobe Illustrator 19.2.0, SVG Export Plug-In . SVG Version: 6.00 Build 0)  -->
<svg version="1.1" id="Layer_1" xmlns="http://www.w3.org/2000/svg" xmlns:xlink="http://www.w3.org/1999/xlink" x="0px" y="0px"
	 viewBox="0 0 56 56" style="enable-background:new 0 0 56 56;" xml:space="preserve">
<style type="text/css">
	.st0{fill:#FDC414;}
</style>
<polygon id="Qatar" class="st0" points="34.7,55.3 28.5,55.3 18,51.1 15.9,46.9 18,46.9 18,38.6 15.9,36.5 13.9,32.3 15.9,21.9 
	18,21.9 20.1,24 18,13.5 20.1,13.5 18,7.3 20.1,7.3 20.1,3.1 24.3,3.1 24.3,1 26.4,1 32.6,5.2 32.6,9.4 36.8,9.4 36.8,11.4 
	34.7,21.9 32.6,21.9 34.7,32.3 36.8,32.3 41,38.6 36.8,55.3 "/>
</svg>
