<?xml version="1.0" encoding="utf-8"?>
<!-- Generator: Adobe Illustrator 19.2.0, SVG Export Plug-In . SVG Version: 6.00 Build 0)  -->
<svg version="1.1" id="Layer_1" xmlns="http://www.w3.org/2000/svg" xmlns:xlink="http://www.w3.org/1999/xlink" x="0px" y="0px"
	 viewBox="0 0 56 56" style="enable-background:new 0 0 56 56;" xml:space="preserve">
<style type="text/css">
	.st0{fill:#FDC414;}
</style>
<polygon id="Romania" class="st0" points="13.1,12.8 14.3,12.4 15.1,11.7 16.2,11.7 18.6,13.2 20.5,13.2 22.1,14 22.5,14.8 
	23.6,15.5 25.6,14.8 27.1,14.8 27.9,13.6 32.2,12.8 33.3,12.1 37.2,11.3 38,14 40.3,16.3 40.7,17.5 44.2,20.2 44.6,21.8 45.3,23.3 
	45.3,29.1 46.1,31.1 46.9,32.6 48.8,33 51.2,33 51.9,32.2 53.9,32.2 55,33 54.3,33.8 55,34.2 55,34.9 53.9,36.5 52.7,36.9 
	50.8,37.3 50.4,38.4 49.6,39.2 50,40 50,41.9 49.2,43.1 49.6,44.6 48.4,44.3 48.1,43.9 46.5,43.1 45.3,43.5 44.6,42.7 42.6,41.9 
	40.7,41.9 39.1,41.9 35.6,43.9 34.9,44.6 33.3,45 32.9,45.4 30.6,45.4 29.4,45.4 28.3,45 27.1,45.4 25.9,45 24.4,45.8 22.1,45 
	21.7,45 20.9,44.6 19.3,44.3 17.8,45.4 17,44.3 17.4,43.5 17.8,42.7 16.6,41.9 15.1,41.9 14.7,40.8 14.7,39.6 15.5,38.4 13.5,38 
	12.4,39.6 11.6,38.4 10.4,39.2 9.6,38 7.7,37.3 7.3,36.9 8.1,35.3 6.5,34.2 5,33.4 4.6,32.2 2.7,29.9 2.3,29.1 1.1,28.7 2.3,27.6 
	3.4,27.2 3.8,26 5.8,26 6.5,25.2 6.5,24.1 8.9,20.6 10,17.1 11.2,14.8 12.7,14.4 13.5,13.2 "/>
</svg>
