<?xml version="1.0" encoding="utf-8"?>
<!-- Generator: Adobe Illustrator 19.2.0, SVG Export Plug-In . SVG Version: 6.00 Build 0)  -->
<svg version="1.1" id="Layer_1" xmlns="http://www.w3.org/2000/svg" xmlns:xlink="http://www.w3.org/1999/xlink" x="0px" y="0px"
	 viewBox="0 0 56 56" style="enable-background:new 0 0 56 56;" xml:space="preserve">
<style type="text/css">
	.st0{fill:#FDC414;}
</style>
<polygon id="Serbia" class="st0" points="7.6,5.9 8.9,4.6 11.5,3.3 12.8,3.3 13.5,2.7 16.1,0.7 18,0.7 20,1.4 23.2,2.7 23.9,4 
	27.2,7.9 27.8,9.8 30.4,11.2 33,13.1 31.7,15.7 32.4,16.4 35.6,17.7 36.9,19.6 38.9,18.3 40.2,20.3 42.1,17.7 45.4,18.3 44.1,20.3 
	44.1,22.2 45.4,26.1 44.1,27.5 44.8,32 48,34.6 49.3,37.2 48.7,39.8 44.8,43.1 45.4,44.4 46.7,46.4 46.1,48.3 44.1,48.3 41.5,49 
	39.5,49 35.6,49.6 33.7,50.9 31.7,51.6 29.1,52.9 29.1,54.8 28.5,55.5 27.8,54.2 27.8,50.9 27.2,49.6 25.2,48.3 24.5,47.7 
	22.6,45.7 21.9,45.1 22.6,44.4 23.9,43.1 23.9,40.5 21.3,39.8 19.3,38.5 17.4,38.5 16.1,37.2 16.1,35.9 14.1,34 14.8,33.3 
	12.8,30.1 12.8,28.1 13.5,27.5 15.4,28.8 16.1,27.5 14.8,26.1 13.5,26.1 10.2,23.5 10.2,22.2 12.2,19 12.8,16.4 11.5,16.4 10.2,17 
	10.2,16.4 9.6,14.4 11.5,13.8 12.8,13.8 12.8,13.1 10.9,12.5 9.6,11.8 8.9,9.2 "/>
</svg>
