<?xml version="1.0" encoding="utf-8"?>
<!-- Generator: Adobe Illustrator 19.2.0, SVG Export Plug-In . SVG Version: 6.00 Build 0)  -->
<svg version="1.1" id="Layer_1" xmlns="http://www.w3.org/2000/svg" xmlns:xlink="http://www.w3.org/1999/xlink" x="0px" y="0px"
	 viewBox="0 0 56 56" style="enable-background:new 0 0 56 56;" xml:space="preserve">
<style type="text/css">
	.st0{fill:#FEC40D;}
</style>
<path id="Russia" class="st0" d="M43.3,41.1L43.3,41.1L43.3,41.1L43.3,41.1l-0.1-0.1v-0.1l0,0l0-0.1v0l0.1,0h0.1h0v-0.1v-0.1v-0.1
	l0,0v-0.1v-0.1l-0.1,0v-0.1v-0.1V40v-0.1l-0.1-0.1l0-0.1l0-0.1l-0.1-0.2l0-0.1l0,0l0.1,0h0.1l0.1-0.1l0-0.1l0.1-0.1h0l0.1,0l0.1,0
	l0.3,0.1h0.1H44l0-0.1v-0.1l0-0.1v-0.1l0,0l0-0.1V39l0-0.1l0,0l0-0.1l0-0.1v0l0.1,0l0,0v-0.1l0-0.1l0-0.1l0.1,0v0l0-0.1l0-0.1v-0.1
	h0l0,0v0l0,0v-0.1l0,0l0,0l0-0.1v-0.1l0,0l0-0.1v0l0.1-0.1h0.1l0,0v-0.1l0-0.1l-0.1,0l0-0.1v-0.1l-0.1-0.1l0-0.1l0.1,0l-0.1-0.1
	l0-0.1h-0.1l-0.1,0l-0.1,0l-0.1,0.1h-0.1l-0.1,0.1v0.1l-0.1,0h-0.1l0,0.1h-0.1h-0.1l0,0.1v0.1l-0.1,0l0,0.1v0.1l-0.1,0L43,37.6
	l-0.1,0l-0.1,0l-0.1,0l0,0l-0.1,0l0-0.1l0-0.1h-0.1l-0.1,0.1l-0.1,0l0-0.1l-0.1-0.1l0,0l-0.1-0.1v-0.1l0,0l0-0.1l0-0.1l0-0.1h-0.1
	v-0.1V37l0-0.1v-0.1l0,0l0,0l-0.1,0H42l-0.1,0h-0.1l-0.1,0h-0.1l0,0l-0.1-0.1v-0.1l0,0h0l-0.1,0v-0.1h-0.1l-0.1-0.1l0-0.1l0,0h-0.1
	l0,0.1h-0.1l-0.1,0v0l-0.1,0l0,0l-0.1,0H41l0,0l0,0v0H41l-0.1,0h-0.1l0,0l-0.1,0l-0.1,0h-0.1l0-0.1l-0.1,0l-0.1-0.1l-0.1-0.1v-0.1
	l0-0.1h-0.1l-0.1,0V36l0,0l0-0.1l0-0.1L40,35.7l-0.1-0.1v-0.1l0-0.1l-0.1,0l0,0v-0.1v0l-0.1,0l0-0.1l-0.1,0l0-0.1l-0.1-0.1l0-0.1
	L39.4,35V35l0-0.1v-0.1h-0.1l0,0v-0.1l0-0.1v-0.1l0-0.1l-0.1,0v0l0,0h-0.1l-0.1,0l0,0l0-0.1l0,0H39l-0.1,0l0,0h-0.1l0-0.1v-0.1l0,0
	l-0.1,0h-0.1l-0.1-0.1l0,0h-0.1l0,0l0,0v0.1l0,0l-0.1,0l0,0l-0.1,0h-0.1l0,0l-0.1-0.1H38l-0.1-0.1h-0.1h0h0l-0.1,0l0,0.1h0l0,0h-0.1
	h-0.1l-0.1,0l-0.1,0.1h-0.1l0,0.1l-0.1,0h-0.1l0,0h-0.1l-0.1,0h-0.1l-0.1,0v0.1l-0.1,0.1l0,0.1l0,0.1v0.1l0,0v0.1l0,0h0.1l0.1-0.1
	l0.1,0H37l0.1,0.1l0,0.1l0.1,0.1v0.1l0,0.1v0.1l-0.1,0l-0.1,0.1l0,0.1L37,35.6l-0.1,0.1v0.1l0.1,0.1l0,0.1V36L37,36v0.1l-0.1,0
	l0,0.1l0,0.1v0.1l0,0v0.1H37l0,0l0,0l0,0l0,0.1l0,0.1L37,36.8l-0.2,0l-0.1,0.1L36.5,37h-0.1L36.4,37l-0.1,0l-0.1,0l0,0h-0.1l-0.1,0
	l0-0.1l-0.2-0.1l-0.1,0v0.1L35.7,37h-0.1l-0.1,0L35.4,37l-0.1,0l-0.1-0.1l-0.1-0.1h-0.1l-0.1,0l0,0h-0.1l-0.1,0.1l0,0.1l-0.1,0.1
	l-0.1,0l-0.1,0.1v0l0,0.1l-0.1,0.1h-0.2h-0.1l-0.1,0.1h-0.1l-0.2,0.1l-0.1,0.1h-0.1l-0.1-0.1h-0.1l-0.1,0l-0.1,0h-0.2l-0.2-0.1
	l-0.2,0h-0.1l-0.1-0.1h-0.1l-0.1,0l-0.1-0.1l-0.1-0.1l-0.1,0l-0.1,0h-0.1l-0.2-0.1L32,37.1h-0.2h-0.1l-0.1-0.1l-0.1,0h-0.1l-0.1,0.1
	h-0.2l-0.1,0L31,37.2l-0.1,0l-0.1,0h-0.1l-0.1,0h-0.1l0,0h-0.1l-0.1-0.1l-0.1,0l0-0.1l-0.1-0.1h-0.1L30.1,37v-0.1L30,36.8l0-0.1
	v-0.1l-0.1-0.1v-0.1l0-0.1l-0.1,0h-0.2h-0.1l-0.1,0h-0.1l0,0l-0.1,0h-0.2H29l-0.1,0l0,0l-0.1-0.1l-0.1,0l0.3-0.1h-0.1l-0.1,0.1v0.1
	l0,0.1l0,0.1l-0.1,0l-0.1,0l-0.1,0.1v0.1l-0.1,0.1V37l0,0.1l0.1,0l0.1,0.1l0.1,0l0,0.1l0,0.1v0.1l0.1,0.1l0.1,0.1l-0.1,0.1l-0.1,0
	l-0.1,0l0,0h-0.1l-0.1,0h-0.2l-0.1,0l-0.1-0.1l-0.1,0h-0.1L28,37.8l-0.1,0l-0.1,0l-0.2-0.1l-0.1-0.1l-0.2-0.1l0-0.1l0-0.1l0-0.1
	h-0.1l-0.1,0.1H27l-0.1,0h-0.1l-0.1-0.1v-0.1l-0.1-0.1h0l-0.1,0h-0.1h-0.1l-0.1,0l-0.2,0l-0.1,0l-0.1,0.1l-0.1,0l-0.1,0l0,0v0.1
	l0.1,0l0,0l-0.1,0.1l-0.1,0l-0.1,0.1v0.1l-0.1,0.1l0,0.1V38l-0.1,0.1l-0.1,0.1l0,0.1h-0.2l-0.1,0l-0.1,0.2l0,0h0l-0.1,0h-0.1l0,0
	l-0.1-0.1l-0.1-0.1l-0.1,0l0-0.1l0-0.1l-0.1,0L24.5,38l-0.1,0.1l-0.1,0l-0.2,0l-0.1,0l0,0l-0.1,0l-0.1,0h0l0,0l-0.1,0l0-0.1V38
	l0-0.1v-0.1l-0.1,0h0l-0.1,0l-0.1,0h-0.1l-0.1-0.1l-0.1-0.1l-0.1-0.1l-0.1,0h-0.2l-0.1,0l0,0.1l0,0.1l0,0l-0.1,0l-0.1,0l-0.1,0.1
	l-0.1-0.1h-0.1l-0.1,0h-0.1l-0.1-0.1l-0.1,0v-0.1v-0.1l-0.1-0.1l-0.1,0v0.1l0,0l0,0.1l-0.1,0.1l-0.1,0l-1-1.3l-0.8-0.6l0-0.1l0.1,0
	l0.1-0.1v-0.1l-0.1,0l-0.1,0l-0.1,0l-0.1,0.1l-0.1,0l-0.1,0.1v0.1l-0.1,0.1l0,0.1l-0.1,0.1l-0.1,0l-0.1,0l0,0.1l-0.1,0l-0.1,0
	l-0.2-0.1l-0.1,0l-0.1,0.1h-0.1l-0.1-0.1v-0.1l0.1-0.1l0-0.1l-0.1,0L18.7,36h-0.1l-0.2-0.1l-0.1,0l0,0.1l0.1,0L18.4,36h-0.1
	l-0.1-0.1l0-0.1l-0.1-0.1l0,0l0,0.1v0.1h-0.1l0-0.1l-0.1,0l0,0.1l-0.1,0l-0.1-0.1l-0.1,0.1l-0.1,0l0-0.1l0.1,0v0l0-0.1l0-0.1v-0.1
	l-0.1,0l-0.1-0.1l0-0.1l0,0l0-0.1h-0.1l-0.1,0h-0.1l-0.1-0.1h-0.1L17,35.1l-0.1,0h-0.1l-0.1,0.1l0,0.1h-0.1l-0.1,0l0,0.1v0.1l-0.1,0
	l-0.1,0l-0.1,0.1l-0.1,0l0,0h0L16,35.7l-0.1,0l-0.1,0.1h-0.1l-0.1-0.1l-0.1,0.1v0.1h-0.1l-0.1,0.1v0.1l0,0l-0.1,0h-0.1L15.4,36h-0.1
	l-0.1,0.1l0,0H15l-0.1,0.1h-0.1l-0.1,0.1v0.1l0,0.1l-0.1-0.1h-0.1l-0.1,0.1v0.1l0,0.1l-0.1-0.1h-0.1l0-0.1h-0.1l-0.1,0.1H14l0,0
	l0.1,0.1l0,0.1l0.1,0l0.1,0l0,0.1h-0.1l0,0v0.1h0.1l0.1,0l0.1,0h0.1l0.1,0.1l0.1,0v0.1l-0.1,0l-0.1,0l-0.2,0l-0.1,0.1L14,37.1v0.1
	H14l0,0.1L14,37.4l0,0.1h-0.1v0.1l0,0.1v0.1H14l0.1,0.1l0.1,0l0,0.1l0.1,0.1h0.1l0,0l0,0.3l0,0.1l-0.1,0.1h-0.1l-0.1-0.1l-0.1,0v0.1
	L14,38.4l-0.1,0l-0.2-0.1h-0.1l-0.1,0l0,0l-0.1,0l-0.1-0.1l0.1,0l0-0.1l-0.1,0L13.3,38l-0.1,0.1h-0.1l-0.1,0l0,0.1H13l0-0.1L12.8,38
	l-0.1,0l0,0.1l0,0l-0.1,0v0.1h-0.1v0.2l-0.1,0.1l-0.1,0l-0.1-0.1l-0.2,0l-0.1-0.1L12,38.3v0.1l-0.1,0.1l-0.1,0v-0.1l0-0.1h-0.1
	l-0.1-0.1l-0.1-0.1h-0.1L11.4,38h-0.1L11.3,38h-0.1L11.1,38L11,38l-0.1-0.1h-0.1l-0.1,0.1h-0.1V38L10.6,38v-0.1l-0.1,0l0,0.1
	l-0.1,0.1L10.4,38l0.1-0.1v-0.1l-0.1-0.1l-0.1-0.1l0,0.1l0,0.1V38l-0.1,0L10.1,38l0,0.1H10l-0.1,0.1l0,0.1l0.1,0.1v0.1H9.7l-0.1,0
	l0.1,0.3l-0.1,0.1l0,0.1H9.6L9.4,39l0-0.1l-0.2-0.2l-0.1,0.1v0.1L9,39l-0.1,0l0,0.2L9,39.3l0,0.3l-0.1,0.1l0.2,0.1l0.1,0.1l0,0.1
	L9.3,40l0-0.1L9.6,40l0.2,0.2l0.2,0.3H9.8v0.1l0.2,0.1l0.1,0l0.1,0.1l0,0l0,0v0v0.1h-0.1l0,0v0.1h-0.1l0,0V41l-0.1,0h0l-0.1,0H9.9
	L10,41l0,0.1l0,0l0,0l-0.1,0l0,0h0l0.1,0v0l-0.1,0.1H9.8l-0.1,0l0,0l0,0.1l0,0l-0.1,0l-0.1,0v0.1l0,0.1l0,0.1l-0.1,0l0,0.1l0,0.1
	v0.2l-0.1,0l0,0.1l0,0.1h0.1l0.1,0L9.6,42l0.1,0v0.1l0.1,0.1l0.1,0h0.1l0,0.1l0,0.1l-0.1,0v0.1h0.1v0.1l0,0.1v0.1l0.1,0.1l0,0.1
	l0.2,0.2l0.2,0.2l0,0l0,0l-0.1,0.2L10,43.5l0,0.1l-0.2,0l-0.1-0.1l-0.2-0.2H9.4l-0.1,0.2l0.1,0.1l0.1,0.1l0,0.2l-0.2-0.1H9.2
	l-0.2-0.1l-0.2,0.1v0.1l0.1,0.1l-0.1-0.1H8.5H8.5l-0.2,0.1l-0.1,0.1l0,0l-0.1,0l-0.2-0.2l-0.1,0l-0.1,0.1H7.7l-0.1-0.1l0,0.1l-0.1,0
	l0-0.1H7.4l0,0v0l0-0.1l0-0.1l-0.1-0.1l0-0.2l0-0.1l-0.1-0.1H7.1v-0.1L7,42.6l-0.1,0l-0.1,0H6.8l-0.1-0.1H6.7l-0.1,0l0-0.1H6.5
	l-0.1-0.1l0-0.1l-0.1,0l-0.1-0.1L6,42l-0.1,0l-0.2-0.1H5.6l-0.1-0.1v-0.1l-0.1-0.1H5.4H5.3l0.1-0.1l0.1,0l0-0.1v0l0.1,0l0.1,0.1h0
	h0.1l0-0.1l-0.1,0v-0.1l0.1-0.1v0l0,0h0.1l0-0.1h0.1v0l-0.1,0l0-0.1l-0.1,0L5.6,41l-0.1-0.1l0.1,0l0.1,0l0.1-0.1H5.8l-0.1-0.1
	l0.1-0.1L6,40.6l0-0.1l0-0.1l-0.1,0l-0.1,0.1l-0.1,0h0l0,0l0-0.2l0.1,0l0.1-0.1h0.2l0.1-0.1l0-0.1l0.1-0.2l0-0.1L6,39.6l0-0.2l0.1,0
	l0.1-0.1v-0.1l-0.1,0l0-0.1l-0.1,0.1l-0.1,0L5.9,39l-0.1,0L5.7,39H5.6l-0.2,0L5.4,39l0-0.1l-0.1-0.1l-0.1-0.2H5.1l-0.1,0.1l-0.1,0
	l-0.1,0l-0.1-0.1l-0.1,0.1l-0.2-0.2l-0.1-0.1v-0.1H4.2v-0.1l-0.1-0.1l-0.2,0l-0.1-0.2L3.8,38l-0.1-0.1l-0.1-0.2H3.6l-0.1,0.1H3.3
	l-0.2-0.1L3,37.7v0.1l-0.1,0l-0.1,0v-0.1l-0.1-0.1v-0.1l-0.1-0.1v-0.1l0-0.1l0.1,0.1l0.2,0L3,37.1l0.1-0.1L3,37v-0.1l-0.2-0.1
	l-0.1,0l0-0.1l-0.1-0.1l-0.1-0.2l-0.1-0.1l-0.1-0.1V36L2.2,36l0-0.1l0-0.1L2,35.7H2l-0.1-0.1l-0.1,0l-0.1,0.1l-0.1-0.1H1.5l-0.1,0.1
	l-0.1-0.1l-0.1,0.1l-0.1-0.1h0l0-0.1l-0.1-0.1L1,35.2l0,0h0.1v-0.1l0-0.1l0,0l0,0v-0.1H1l0.1-0.1v-0.1l0.1-0.1v-0.1l-0.2-0.3l0-0.3
	l0.1,0l0-0.1l0.1-0.1v0v0l0-0.1l0,0l0-0.1l0-0.1v-0.1h0l0,0.1l0.1,0v-0.1l0.1,0l0.1,0.1l0.1-0.1l0-0.1l0.1,0l0.1,0.1l0.1-0.1
	l-0.1-0.1H1.6l0,0H1.4l-0.1-0.1H1.2L1.1,33l0-0.1L1.2,33v-0.1l0-0.1l0.1-0.1l-0.1,0l-0.1,0.1c0,0,0,0,0,0l0,0l0-0.1l0.2-0.2l0.1-0.1
	l0.1-0.2l0.1-0.2L1.6,32l0.2-0.3l0.1-0.3l0-0.1L1.7,31l-0.1,0l-0.2-0.3l0-0.1l0.1-0.1v-0.1l-0.1-0.1l-0.1-0.1V30l0,0l0-0.1l-0.1,0
	l-0.1-0.1v-0.1l0.1-0.1l-0.1,0v-0.1l0-0.3l0.1,0L1,28.7l-0.2-0.3l0-0.1l-0.1-0.1L0.8,28l0.1-0.1l0-0.1l-0.1-0.1l-0.2-0.1l0-0.1
	l-0.1-0.1l-0.1-0.1H0.4l-0.1-0.2l-0.1-0.1l0-0.1l0-0.1l-0.1,0l0.1-0.1l0.1-0.1l0,0h0.1v-0.2l0.1-0.1l0.1,0l0.1-0.1v-0.1h0.1l0.1,0
	L1,26.2v-0.1l0,0h0.1l0,0v0.1l0,0.1v-0.1l0-0.1h0.1l0,0L1.2,26v0h0.1h0.1v0h0l0-0.1l0,0h0.1l0.1,0L1.5,26l0.1,0l0,0l0.1,0l0,0l0.1,0
	v0.1l-0.1,0.1l-0.1,0H1.4l-0.1-0.1V26l-0.1,0.1v0.1l0,0.1l0.1-0.1l0,0l0,0.1l0.1-0.1l0.1,0v0.1h0l0-0.1l0,0v0v0.1l0.1-0.1l0,0l0,0
	l0,0l0,0.1h0.1l0,0l-0.1,0l-0.1,0.1h0.1l0.1-0.1l0-0.1l0,0h0.1L2,26.4v0l-0.1-0.1v0l0.1,0l0.1,0.1h0.1l0.1,0l0.1,0v-0.1l0.1,0
	l0.1,0.1v0l0.1,0.1l0.4,0.2l0.3,0.2l0.1,0.1l0.1,0l0.1,0.1l0.1,0l0-0.1v0h0.1l0.1,0.1h0.1L4,27.2l0.1,0L4,27.1l0-0.1H4l0.1,0.1v0.1
	l0.2,0.1v0.1l0.1,0.1l0,0l0.1,0l0.1,0.1l0,0.1l0.1,0l0.1,0.1h0l0,0v0.1V28l0,0.1l0,0.1v0.1l-0.1,0.1l0,0.1l-0.2,0.2l-0.1,0.1l-0.1,0
	l-0.1,0.1H4l0,0l-0.2,0l-0.2,0l-0.1,0l-0.1-0.1l-0.1,0.1l-0.1,0H3l0-0.1l-0.1,0l-0.1,0.1l-0.1-0.1v-0.1H2.7H2.6l0,0H2.5l0,0.1H2.4
	v-0.1l0,0l0.1,0l-0.1-0.1l0,0H2.2l-0.1-0.1l0,0H2l-0.2-0.2l0-0.1H1.7l0,0H1.6l0,0l0.1,0.1l0,0.1l0.1,0.1l0,0.1l0.1,0l0,0l-0.1,0.1
	l0,0.1l0,0l0.1,0l0.1,0l0.1,0.1l-0.1,0v0h0.1l0,0.1H2.1l0,0.1l0.1,0l0,0h0.1l0.1,0.1l0.1,0l0.2,0.1L2.6,29h0.1l0,0.1v0.1h0v0.1v0.1
	l-0.1,0l0,0.1l0.1,0v0.1l0.1,0.1v0.1l0.1,0.1v0.1l0,0.1l0,0.1l0,0.1l0,0.1L3,30.2l0.1-0.1h0l0.1,0.1l0.1,0.1v0.1l0,0h0.1l0.1,0.1
	h0.1l0.1,0.1h0.1l0.1-0.1h0.1l0.1,0v-0.1l-0.1-0.1l0-0.1v0l-0.1,0v-0.1l-0.1,0.1H3.8l-0.1,0l-0.1-0.1L3.5,30l0-0.2l0-0.1l-0.1-0.1
	h0.1l0.1-0.1l0-0.1l0-0.1l0-0.1l0-0.1h0.1l0.1,0.1l0.1,0L4,29.5L4,29.6h0.1l0,0.1h0.1l0.3,0.1l0.1,0.1l0.1-0.1l0.1-0.1v-0.1h0.1
	l0.1-0.1l-0.1-0.2l-0.2-0.2l-0.1-0.1V29l0.1-0.1l0.1-0.1l0-0.1l0.1-0.1l0.1,0l0.1-0.1l0.1-0.2l0.1-0.1l0.1,0l0.1,0.1l0.1,0l0.1,0
	l0.1,0.1v0.1l0.1-0.1L6,28.4l0,0.1L6,28.6v-0.2L6,28.3l0-0.1v-0.2L6,28l0,0v-0.1l0-0.1l0-0.1l0-0.1L6,27.7l-0.1-0.1H5.8l0-0.1l0-0.1
	v-0.2l0,0l0-0.1v-0.1l0,0L5.7,27v-0.1l-0.1-0.2l-0.1-0.1l-0.2-0.2v-0.1h0.1l0.2,0.1h0.1l0.1,0h0.2l0.2,0l0.1,0.1v0.1l0.1,0.1h0.1
	l0,0.1L6.6,27l0,0.1H6.4l0,0.1H6.2l-0.1,0.1v0.1l0,0.1l-0.1,0l0,0.1v0.1l0.1,0l0.2,0.1l0.2,0.2h0.1l0.1-0.1l0.1,0.1l0-0.1h0.1l0-0.1
	L7,27.6l0-0.1l0-0.1l0.1-0.1v-0.1L7,27.2l0.1,0l0.2,0l0-0.1l0.1,0.1l0-0.1L7.3,27l0-0.1h0.1l0.1,0.1l0.1,0l0.2-0.2h0.1l0.2-0.2v-0.1
	l0.1,0l0.1,0l0.1-0.1l0-0.1l0.2-0.1v0.1h0l0,0.1l0,0.1l0.1,0l0.1-0.1v-0.1l-0.1,0l-0.1-0.1v0l0.2-0.2h0l0,0.1l0,0l0,0l0.1,0.1l0.1,0
	l0.1-0.1l0-0.1l0-0.1l0,0L8.7,26l0.2-0.1l0.2,0l0,0L9,25.9H8.9L8.8,26l0,0h0.1l0.1,0L9,26.1l-0.1,0l0,0L9,26.2l0,0.1H8.9l-0.1,0.1
	l0,0.1l0.1,0l0.1,0H9l0.1,0l0.1,0v0.1l0.1-0.1l0.1-0.1h0.1l0,0.1l0.1,0.1l0,0l0-0.1l0-0.1l-0.1-0.1v0l0.1-0.1l0.1,0l0-0.1L9.7,26
	l0.1,0h0.1l0,0l0.1,0h0.2l0.1-0.1v-0.1l0.1-0.1h0.1v-0.1l0.1-0.1l0.1,0l0.1-0.1h0.1l0.1,0l0,0l-0.1,0.1l0.1,0l0.1,0.1v0.1l-0.1,0.1
	l0,0.1l0,0.1l0.1,0.1H11L11,26v-0.1l0,0l-0.1-0.1v-0.1l0.1-0.1l0.1,0.1l0.1-0.1l0-0.1h0.1l0,0l0.1,0l-0.1-0.1l-0.1,0v-0.1l-0.1-0.1
	H11l0,0.1l-0.1-0.1l-0.1-0.2l-0.1,0l-0.1-0.1v0l0.1,0v-0.1l-0.1-0.1l0.1-0.1l0.1,0l0,0l0.1,0.1h0.1l0.1,0l0.3-0.1l0.4,0l0.1,0.1
	l0.3,0.1l0,0.1l0,0.1l0.1,0.1l0.1-0.1l0.1-0.1l0.1,0.1h0.1l0,0.1l0.1,0l0.2,0.1l0.2,0l0.1,0.1l0.1,0.1l0.1,0l0.1,0.1l0.1,0.2l0.1,0
	v-0.1l0-0.1h0.1l0-0.1l-0.1-0.1l0-0.1v-0.2l0.1-0.1h-0.1v0h-0.1l-0.1,0.1l-0.1,0L13.6,25h-0.1l-0.1-0.1v-0.2l-0.1-0.1l-0.1,0.1
	l-0.1-0.1h-0.1L13,24.7L12.9,25l0-0.1l-0.1-0.1l-0.1-0.2v-0.1l0.1,0.1l0.1-0.1v-0.1l-0.1-0.1v-0.1l0.1-0.1l0.1,0l-0.1-0.1h-0.1
	L12.6,24l-0.1-0.1l-0.1,0l-0.1-0.1v-0.1l0.1-0.1l-0.1-0.1l0-0.1l0.1,0l0.1-0.2l0.1-0.1l0-0.1l0-0.1v-0.1l0.1-0.1l-0.1-0.1v-0.1
	l0-0.1l0-0.1v-0.1l-0.1-0.1l0.1-0.2l0,0L12.6,22l0-0.1v-0.2l0.1,0l0.1,0l0,0l0,0l0.1-0.1h0.1l0.1-0.1h0.1l0.1,0l0.1-0.1h0.1l0.2,0.1
	h0.1l0.1,0l0,0.1l-0.1,0l0.1,0.1V22l0.1,0.1v0.2l0.1,0.1l0,0.2l0.1,0.1l0,0.1l0,0.1l0,0.1l-0.1,0l0,0.1l0.1,0.1l0.1,0.1l0.1,0v0
	l0.1,0l0.1,0l0,0.2l0.1,0.1l0.1,0.1l0,0.3l0.1,0.1V24l0,0.1l0.1,0.1v0.1l0.1,0.2l0,0.1l0.1,0.1l0.1,0.1l-0.1,0.1l0.1,0.1l0,0.2
	l0.2,0.2l0.1,0.1l0.1,0.1h0.1l0.1,0.1v0.1l-0.1,0v0.1l0,0.1l0.1,0.2l0.1,0.1v0.1l-0.1,0.1v0.1l-0.1,0.1l0,0.1v0.2l-0.1,0.1l0,0
	l0.1,0v0.1l-0.1,0.1v0.2l0,0.1l-0.1-0.1V27l0.1,0.1v0.1l-0.1,0.1l-0.1,0.1h-0.2l-0.1-0.1l0.1-0.1v-0.1h-0.1l0,0.1h-0.1L14.6,27
	l-0.1,0.1l-0.2,0h-0.1l-0.1,0.1h0.1l0,0l0.1-0.1l0.1,0l0,0.1l0.1,0.1l0.3,0.1l0.1,0l0.2,0h0.1l0,0.1l0.2,0l0.1-0.1v-0.1l-0.1-0.1
	v-0.1l0.1-0.1l0.1,0V27l0.1-0.1v-0.1l0.1-0.2l-0.1-0.1l0-0.1l0.1-0.2V26l-0.1-0.3l-0.2-0.1l-0.1-0.1v-0.2l0.1-0.1l0.1-0.1l0.1,0
	l0.2-0.2h0.1l0.1,0.1v0.1l0.1,0.1l0,0.1h0l0.1,0.1l0,0.1l0.1,0.1l0,0.1l0.1,0.1l0,0.1l-0.1,0l0.1,0.1h0.1L17,26l0.1,0l0.1,0h0.1
	l0-0.1l0.1,0l-0.1,0l-0.1,0l0-0.1L17.1,26H17L17,25.9h-0.1l-0.1-0.1l0-0.1l-0.1,0l-0.1-0.1v-0.1l0.1,0l0.1-0.1l-0.1-0.1l0-0.1l0,0
	l0-0.1l-0.1-0.1V25l-0.1-0.1h-0.1l-0.2-0.1l-0.1-0.1l-0.1,0l-0.2-0.1l-0.1,0l-0.1,0l-0.1,0.1l0,0.1l-0.1,0.1l-0.2-0.1l-0.1,0.1
	l-0.1,0L15,24.9v-0.1v-0.1l-0.2-0.2l-0.1-0.1l0-0.2L14.7,24l0-0.1l0-0.3l-0.1-0.2l-0.1-0.1h0.1l-0.1-0.1l-0.2-0.2l-0.2-0.1v-0.1
	l0.1-0.2l0-0.1l-0.1-0.1v-0.1l0.1-0.1l0.1-0.2l0.1-0.2l-0.1-0.2l-0.2-0.3l0.1,0l0.1,0.1l0,0.1l0.1,0l0,0.1v0.1l0.1,0.1v0.2l0.1,0.1
	l0,0.1l0.1,0.1l0.1,0.1v0.1l0.1,0.1v0.1l-0.1,0.1l0.1,0.1l0.1,0l0.1,0.1h0.2l0.1,0l0.1,0.1l0,0.1l0.1-0.1h0.1l0.1-0.1l0.1,0l0.1,0.1
	h0.1l0.1,0.1l0.2,0l0.1-0.1l-0.1,0.1l-0.2,0l0-0.1l-0.1,0l-0.1-0.1H16l0-0.1h0l-0.1,0.1l-0.2,0l-0.1-0.1h-0.1l-0.1-0.1l0-0.1h-0.1
	l-0.1-0.2l0.1,0l0-0.1l0.1-0.1h0.1l0.1,0.1l0.2,0.1l0.1,0l0.1-0.2L15.7,22l-0.2,0L15.4,22L15.4,22l0-0.1l0.1,0l0.1,0v-0.1l0.1-0.2
	l0.1-0.1l0.1,0h0.3l0.1,0.1l0.1,0.1l0.2,0l0,0.1l0.1,0.1l0.2,0.2H17l0.2,0l0.2-0.1l0.1,0.1h0h0.1l0,0.2l0,0.1v0.1l-0.1,0.1v0.1
	l0.1,0.1v0.1l0.1,0.1V23l-0.1,0.1l0,0.3h0.1l0-0.1l0-0.1l0.1-0.1v-0.1l0.1,0l0.1-0.1l0.1,0.1l0.1,0.1v0.2l0,0.1l-0.1,0v0.1l0,0
	l0.2,0.1h0.1l0.1,0l0.1,0.1v0.1l0.1,0.1h0.2l0.2,0.2l0-0.1v-0.1l0.1-0.1H19l0.2,0.1h0.1l0.1,0.1l0.1,0.2l0-0.2l-0.1-0.1h-0.1
	l-0.1-0.1L19,23.8l-0.1,0l-0.1,0.1l-0.1,0l0,0l-0.1-0.1l-0.2-0.2l-0.1-0.1h-0.1l-0.1-0.1l0.1,0h0.1l0.1-0.2l0-0.1l-0.1-0.1l-0.1-0.2
	L18,22.8l-0.1-0.1l-0.1-0.1l0-0.1l0-0.1l0-0.2l-0.1-0.1h-0.1L17.5,22h-0.2l-0.1-0.1l-0.1-0.1v-0.1l0-0.1v-0.1l-0.1,0.1h-0.3h-0.1
	l-0.1-0.1l0-0.1h0l0-0.1v-0.2l-0.1-0.2l-0.2-0.1l0-0.1l0-0.1H16L16,20.7l0-0.1v-0.1l-0.1-0.1l0.1-0.1H16l0.1-0.1h0.1l0.2-0.1
	l0.3-0.1L17,20l0.1,0l0.1,0l0.1-0.1l0.1-0.1l0.2-0.1l0.3-0.1l0,0l-0.1,0.1v0.1l-0.1,0.1L17.6,20v0.1l0.2,0.1H18l-0.1-0.1l-0.1-0.1
	V20l0.1-0.1l0.2-0.1l0.1-0.2L18,19.5h-0.1l-0.1-0.1l0-0.1h-0.1l-0.1,0.1l-0.1-0.1l-0.1-0.1h-0.1l-0.1,0l-0.1-0.1l0.1,0v-0.1l0.1,0
	l0.1,0.1h0.1l0.1-0.1l0-0.1l-0.1,0l-0.1,0l-0.1-0.1l0-0.1h-0.1L17,18.9l-0.1,0l-0.1-0.1l0.1-0.1v-0.1l-0.1-0.1l0,0H17l0.1,0.1l0.1,0
	l0.1,0.1v-0.1l0-0.1l0.1-0.1l0-0.2h-0.1l0,0l0.1,0l0.1-0.1l-0.2-0.1l-0.1,0.1h-0.1v-0.1l0.1-0.1h0.1l0.1,0v-0.1l0.1-0.1v-0.1l0,0V18
	l0.1-0.1h0l0,0.1l0.1,0l0-0.1h0l-0.1-0.1l0-0.1l0.1,0l0.1,0l0-0.1H18l0.1,0l0.1,0l0-0.1v-0.1l0.2,0l0.1-0.1l0.1-0.1l0.2-0.1l0-0.1
	h-0.1l-0.1,0.1l-0.1-0.1l-0.1,0.1l-0.1-0.1V17l0.1,0l0-0.1h0V17l0,0l0.1-0.1l-0.1-0.1l0.1,0l0.1,0.1l0.1,0l0.1-0.1l0.1,0l0.2-0.1
	l0.1,0l0,0.1L19.2,17v0.1l0.1,0.1l0-0.1l0.1-0.1l0-0.1l0,0l0.1,0.1l0,0.1h0.1l0-0.1l0-0.1l0.1-0.1h0l0,0.1l0.1-0.1l0-0.1l-0.1-0.1
	h0.1l0.1-0.1l-0.1,0l0.1-0.1H20l0.1-0.1l0.1,0v0.1l0,0h0.1v0.1l0.1,0.1l-0.1,0.2l0.1-0.1l0.1-0.2l-0.1-0.2l-0.1-0.1l-0.1-0.1
	l-0.1,0.1l-0.1,0l-0.1,0l0-0.1l-0.1,0l0,0l0.1-0.1H20l0.1-0.1h0.1l0.1,0l0.1,0l0.1,0l0.2-0.1l0.1,0.1h0.1l0.1,0l0.1-0.1l0-0.1h-0.1
	L20.6,16l-0.1,0.1h-0.2V16l0-0.1l0.1-0.1l-0.1,0l-0.1-0.1h-0.1L20,15.6v-0.1h0.1v-0.1L20,15.3v-0.4l0.1-0.1l0-0.1l0-0.1l0.1-0.1
	l-0.1-0.1l0.1,0l0-0.1l0.1-0.1h0.1l0.1,0.1l0.1-0.1h0.1l0.1,0.1l0.1,0l0.1-0.1h0v0.1l0,0l0.1,0v0L21,14.5v0L21,14.6l0,0.1l-0.1,0.1
	l-0.1,0L20.8,15l0.1,0l0.2-0.1l0.1-0.2h0.1v0.1l-0.1,0.1v0.1h0.1l0.1-0.1l0.1-0.1l0.1,0h0.1l0-0.1h0.1l0.1,0l0.1,0l0.1,0.1v0.1
	l0.1,0.1l0,0.1v0.1l-0.1,0.1l0.1,0.2v0.1l-0.1,0l-0.1,0.1h0.1l0.2,0l0.1-0.1h0.1l0.1-0.1v-0.2l-0.1-0.1h-0.1l-0.1,0V15l0,0h0.1l0,0
	l0.1,0l0.1,0l0.1-0.1h0.1h0.1l0-0.1l0.1-0.1l0,0l0.1-0.1l0.1,0l0,0l0.1,0l0,0.1l0,0.1l0,0.1l0.2,0l0,0l0.1,0l0.3,0.2l0.1,0l0.1,0.1
	v0.1l0.1,0.2l0,0v-0.1l0.1,0v-0.1l-0.1,0h-0.1v-0.1L24,15h0.1l0.1,0.1l0.1,0.1v0.1l0.1,0.1l0,0.1l0.1,0l0.1,0h0l0.1,0l0.1,0.1v0.1
	l0.1,0.1v0.1h0v-0.1l0-0.1h0l0,0.1l-0.1-0.1l-0.1-0.1h-0.1l0,0l0.1,0.1h0.1l0,0l0,0l0.1,0.1l0.1,0l0,0l0.1-0.1h0l0,0.1l0.1,0l0.1,0
	l0.1,0l0,0.1l0,0.1l0.1,0.1l0,0.1v0.2l-0.1,0.1h0l0,0.1l0,0.1l-0.1,0.1v0l0.1,0.1v0.1l-0.1,0.1l0,0.1l0,0.1l-0.1,0.1l-0.1,0.1v0.1
	l0,0.1l-0.1,0l-0.1,0.1h-0.1l0.1,0h0.1l0.1-0.1h0l0.1,0.1l-0.1,0.1l-0.1,0.1L24.4,18l0.1,0.1v0.1l-0.1,0.2l-0.1,0l0,0h-0.1l0,0.1
	l0,0.1l0.1,0.2l0,0.1l-0.1,0.1l0,0.1l0,0.1v0.1l0,0.1v0.1l0.1,0l-0.1,0.2L24,19.5l0,0.1l0-0.1h0.1l0.1-0.1l0-0.1l0,0l0-0.1h0.1
	l0.1,0l-0.1,0l-0.1-0.1L24.1,19l0.1-0.1h0.1l0.2,0l0.1-0.1h0.1l0.1-0.1l-0.1-0.1l0.1-0.1l0.1-0.1l-0.1-0.1v0l0.1,0.1l0.1,0l0.1-0.1
	L25,18.3l0.2-0.1v-0.1l0-0.1L25,18.1v0.1l-0.1,0.1l-0.1-0.1l-0.1-0.1l0.1-0.1l0-0.1l0.1-0.1h0.1l0.1,0.1l0.1-0.1v-0.1l0.1-0.1v0.1
	l-0.1,0.1v0.1l0.2,0.2h0.1l0.1,0l0.2,0l0.1-0.1v-0.1l-0.1-0.2v-0.1h0.1l0.2,0.2h0.1l0.1,0.1l0,0.1l0,0.1l0.1,0.1l0,0.2l0,0v-0.1
	l0.1-0.1h0.1l0.1-0.1l0,0l-0.1,0l-0.1,0l-0.1-0.1l0.1-0.1l0.1-0.1l0.1-0.1h0.1l0-0.1l0.2,0l0.3-0.1h0.3l0.3-0.1h0.1l0.1,0.1v0.1l0,0
	l-0.1,0.1l0.1,0.2l0.1,0.1l0.4,0l0.1,0l0,0h0.1l0.1,0l0.3-0.1l0.2-0.1l0.1,0h0.1l0.1-0.1l0-0.1l0.1,0l0.1,0l0.1,0l0,0.1h0.1l0.1-0.1
	l0-0.1l-0.1-0.1v-0.1l-0.1-0.1l-0.1,0l-0.1-0.1l-0.1,0l0-0.1L29.1,17v-0.1l0.1-0.1l0,0.1l0,0l0.1-0.1l0,0l0-0.1h0.1l0.1,0.1l0.1,0
	l0-0.1l0,0.1h0.1l0.1,0l0-0.1l0.1,0.1l0.1,0l0.1,0.1l0.1,0v-0.1l0.1,0l0.1,0.1l-0.1,0.1l0,0.1l0,0l0.1,0h0V17l0,0l0.1,0l0-0.1
	l-0.1,0l0,0h0.1l0.1,0l0.1,0l0.1,0h0.1v0.1l0,0.1l0-0.1h0l0.1-0.1l0,0.1h0.1l0.1-0.1l0.1,0.1l0,0.2l0.1-0.1l0.1-0.1l0,0l-0.1,0.1
	l0.1,0.1l0,0h0.1l0,0.1l0,0h0l0,0.1l-0.1,0.1v0.1l0.1-0.1h0.1v0.1l-0.2,0.1v0.1l0.1,0l0-0.1l0.1,0l0.1,0l0,0.1l0.1,0l0.1,0.1l0,0.1
	h0.1l0,0.1l0.1,0V18l-0.1,0.1l-0.1,0l-0.1-0.1l-0.2-0.1h-0.2l0.1,0.1l0,0.1l0.2,0l0,0.1l0.2,0.1l0.2,0.1l0.1-0.1v-0.1L32,18.2l0-0.1
	h0l0.1,0.1l0.1,0.1l0.1,0h-0.1L32,18.5l0,0.1h0.1l0.1-0.1h0.1l0.3,0.2l0.1,0l0.1,0.1l0.2,0l0.1,0.1l0.1,0l0-0.1l0-0.1l0.1,0l0.1,0.1
	l0,0.1l0.1,0.1h0.1l0-0.1l-0.1-0.5l-0.1-0.2l-0.1-0.2l0-0.2l-0.1-0.1v-0.1l0.1,0l0.1,0.1l0.1,0.1l0.1,0l0.1,0.1l0.2,0l0.3,0l0.1,0
	l0.1,0l0.1,0.1l0,0l-0.1-0.1l0-0.1L34.1,18l0-0.1v-0.1l0.3-0.1l0.1,0h0.1l0.1,0.1h0.1l0.1,0.1l0.1,0l0.1,0.1h0.1l0.1,0.1h0.2
	l-0.1-0.1V18l0.1,0l0.1-0.1l-0.1-0.1l0.1-0.1l-0.1-0.1l-0.1,0.1l-0.1,0v-0.1l0-0.1l0.1-0.1l0.1,0.1l0.1-0.1l-0.1-0.1l0.1,0l0.1,0.1
	l0,0.1l0.1,0l0.1,0.1l0.1,0l0-0.1l0.1,0l0.1,0.1l0-0.1l-0.1-0.2h-0.1l-0.1-0.1l0-0.1L35.4,17l-0.1,0l-0.1,0l0.1-0.1l0-0.1l0,0
	l-0.1-0.1h0.1l0-0.2l-0.2,0.1l-0.1,0.1l0,0.1l-0.2-0.1L35,16.6l0.1-0.1l0-0.1l0.1-0.1h0.1l0.1-0.1v-0.1l-0.1-0.1h-0.1l-0.1,0H35
	L35,15.9l0.1-0.1l0.2,0l0.2,0.1l0.2,0h0.3l0.5,0l0.1-0.1h0.3l0.2,0l0.1,0h0.2l-0.1,0L37,16l-0.1-0.1l-0.1,0l-0.1,0l-0.1,0.2l0.1,0.1
	l-0.1,0l0,0.1l0.1,0.1l0.1-0.1v-0.1l0.2-0.2l0.3-0.1l0.1,0.2v0.2l0,0.1l-0.1-0.1l-0.1-0.1v-0.1l-0.1,0.1l-0.1,0l0.1,0.2l0.1,0l0,0.2
	l-0.1,0.1l-0.1,0l-0.1,0.1l0.1,0.1v0.1l0,0.1h0.1l0.1-0.1v-0.1l0.1-0.1l0-0.1v-0.1l0-0.4l0.1-0.1l0.2-0.1l0.2-0.1l0.2,0l0.3,0.1
	l0.1,0.2v0.1l-0.1,0.1L38.5,16l0,0l0,0.1v0.1l0,0.1l-0.1,0.1l0.1,0l0.1-0.1h0.1l0.1-0.1l0,0.1l0.1,0.1v0.1l0.1,0.1l0.1-0.1l0-0.1
	l0.1-0.1l0.1,0.1l0,0.1l0,0.1l0,0.1l0,0.1l0.1,0l0.1-0.1l0.1,0l0,0.1v-0.1l0.1-0.2l0,0l0.1,0l0.2,0.1l0.2,0.1l0.1,0.1l0,0.1
	l-0.1,0.1L39.8,17l0.1-0.1l0.2,0l0.1,0.1l0.1,0l0.1-0.1l0.1-0.1l0.2-0.1l0.1,0l0.1-0.1l0.1,0l0.3-0.2l0.2-0.1l0.1,0v0l0.2-0.1l0.1,0
	h0.2l0.4,0.1l0.2,0.2l0.2,0.1l0.2,0.2l0.1,0.2v0.1l0,0.1v0.1l0.1,0.2v0.1l-0.1,0.1l0.1,0l0.1-0.1h0.1l0.1,0.1v-0.1l0.1,0l0.1,0.1
	l0,0.1l0-0.1l0-0.1h0.1l0.1,0.1l0.1,0.1l0,0.2h0.1l0.1,0.2v-0.1l-0.1-0.1l-0.1,0l0-0.1l0.1,0.1h0.1l0.1,0.1l0.1,0.2l0-0.1l-0.2-0.2
	v-0.2v-0.2l0.1-0.1l0.2,0l0.1-0.1l0.1-0.1v-0.1l0,0h0.1l0.1,0.1l0.1,0l0.1,0l0.1-0.1l0.1,0l0.2-0.1l0.2,0l0.1-0.1h0v0.1l0.1,0.1
	l0-0.1l0.1-0.1l0-0.1v-0.1v-0.1l0.1,0l0.1,0l0.1,0.1l0,0.1h0.1l0.1,0.1v0.1l0.1,0.1l0.1,0.1l0.1,0l0.2,0.1l0,0H47l0.1,0.2v0.1
	l0.1,0.1l0.1,0l0.1-0.1h0.1v-0.1l0.1-0.1l0.1,0l0,0L47.6,17l0,0l0-0.1v-0.1l-0.1-0.1l-0.1-0.1l0-0.1l-0.2-0.2l-0.1,0l0-0.1l-0.2-0.1
	l-0.1,0.1h-0.1v-0.1l0-0.1L46.8,16l0-0.1l-0.1,0l-0.1-0.1l-0.1-0.1l0,0l0.2,0l0.1,0l0.2,0h0.2v-0.1l0.1,0l0.1,0.1l0.1,0h0.1v-0.1
	h0.1l0,0.1h0l0.1-0.1l0.1,0v-0.1l0.3-0.1l0.1,0.1l0-0.1l0.1-0.1l0,0l0.1,0h0.1l0.1,0.1h0.2l0.1,0l0.1,0.1l0.1,0l0.1-0.1l0.1,0
	l0.3,0.1l0.1,0.1l0.1,0l0,0l0.1,0l0.1,0.1l-0.1,0.1l0.1,0l0.1,0l0.3,0l0.2,0.2v0l-0.1,0l-0.1-0.1v0l0.2,0.1h0.1l0-0.1h0.1h0.1l0-0.1
	l0.1,0l0.1,0.1l0.1,0l0.1,0v-0.1v0l0.1,0v0.1l0.1,0.1l0.1,0l0.3,0.1l0-0.1h0.1l0,0.1l0.1,0l0-0.1h0l0.1,0l0,0.1l0.1,0.1l0.1,0v-0.5
	l-0.1,0h0.1l0.1,0l0,0.1l0.1,0.1l0.1,0.1l0.1-0.1l-0.2-0.1l-0.1-0.1l0-0.1l0.1,0h0.1l0.2,0.1l0,0.1l0,0l0-0.1l0,0l0.1,0l0.1,0.1l0,0
	l0.1,0.1l0.1,0.2l0.1,0.1l0,0.1l0.1,0.1l0.1,0.1l0,0.1l0,0.1l0.1,0l0.1-0.1l0.1,0l0.1,0.1l0.1,0l0,0l0,0l0-0.1l0.1-0.1l0.1,0
	l0.1,0.1l0.1,0.1v0L54,16.2v-0.1L53.9,16l-0.1,0.1l-0.1,0l0-0.1l0.1-0.1l0-0.1l-0.2-0.1l-0.1-0.1l0-0.1h-0.1l-0.1,0.1l0-0.1l0.1-0.1
	l0.1-0.1l0.1-0.2l0.1,0v0.1l0.1,0.2l0.1,0l0,0l-0.1-0.1l0-0.1h0.1l0.1-0.1l0-0.1h-0.1l0.1,0l0,0l0.1,0l0.1-0.1H54l0,0.1l0.1,0l0.1,0
	v0l0.1,0.1l0.1,0l0.1,0l0.3,0.1l0,0.1l0,0l0.1,0v-0.1h0.1v0.1l0.1-0.1l0.1-0.1l0.1,0v0.1L55,15.3l0,0.1l0.1,0.2l0,0.1v0.1l0.1,0
	l0.1,0.1l0.1,0.1l0,0.1L55.2,16h-0.1L55,16l0.2,0.1l0.1,0.1l0,0.1l-0.1,0L55,16.4l0-0.1l-0.1,0.1h-0.1l-0.1,0.1l0.1,0l0.1,0l0.1,0.1
	l0.1-0.1h0v0.1l0.1,0.1L55,16.7l0,0.1l0.1-0.1h0.1l0.1,0.1v0.1l0.1,0.1l-0.1,0.1l0.1,0l0,0.1l-0.1,0.1v0.1l0,0.1v-0.1l0.1,0l0.1,0.1
	l0,0.1l0.1,0l0,0.1v-0.1l0.1-0.1l0.1,0h0.1v0.1l-0.1,0l-0.1-0.1l-0.1,0.1l0.1,0.1h0.1l0.1,0.1v0.1l-0.1,0.1l-0.1-0.1l0,0l0.1,0.2
	l-0.1,0.1h-0.1l0,0h-0.1l-0.1,0l-0.2,0l-0.1,0.1H55l0-0.1l0-0.1h-0.1l0,0.1h-0.1l0,0l0,0.1l-0.1,0.1h0V18l0,0l-0.2,0.1l-0.1,0V18
	l0-0.1l0,0l-0.2-0.2l0,0l0,0l-0.1-0.1l0,0.1l-0.2,0l-0.1,0.1h-0.1v-0.1l-0.1-0.1l0,0.1l0,0.2l0,0.1l0,0.1l-0.2,0.2h-0.1v-0.2l-0.1,0
	l-0.1,0.1l-0.2-0.2v-0.1l0-0.2l-0.1,0l0-0.1L53,17.5l-0.1,0.1l0,0.1v0.1l0.1,0.1l0,0.1l-0.1-0.1l-0.1-0.1h0l0.1,0.1l-0.1,0.1l0,0
	h0.1l0.1,0.1l0,0.1h-0.1V18l0.1,0l0.2,0.3l0.2,0.1l0.1,0l0.1,0.1l0,0.1h0l-0.1-0.1h0l0.1,0.1l0.1,0.1l0,0.1l0.1,0.1V19l-0.1,0.3
	l0.1,0.2v0.1l0,0.1l-0.1,0.2v0.1l-0.1,0.1l0-0.1l0,0l-0.2,0.1l-0.1-0.1l-0.1,0.1l-0.1,0L53,19.8h-0.1l-0.1-0.1l-0.1-0.1l-0.1,0
	l-0.1-0.1l-0.1,0l-0.1,0.1h-0.1l0.1,0.1h0.1l0.1-0.1l0.2,0.1l0.1,0.1l-0.1,0.1l-0.1-0.1h-0.1v0.1l-0.1-0.1h-0.1h0l0.1,0.1l0.1,0.1
	l0,0.1l0.1,0.1l0.1,0.1l-0.1-0.1v-0.2l0.1,0l0.1,0V20l0.1-0.1l0.1,0l0.1,0.1V20l0.1,0.2l0.1,0l0.1,0.1l0.1,0l0-0.1l0-0.1h0l0.2,0.2
	l0,0.1h-0.1v0.1l0.2,0.2h0.1v0v-0.1l0.1,0.1l0.2,0.3L54,20.8H54l0,0l0.1,0.1L53.9,21V21l0,0.1l0.1,0l0-0.1l0,0l0.1,0l0-0.1l0.1,0.1
	l0.2,0.1l0.2,0.1l0.1,0.1l-0.1,0.1l0.1,0.2l0.1,0l0.1,0.2V22l-0.1,0V22l0.1,0.1l0.1,0.1l-0.1,0l-0.1-0.1h-0.3l-0.1-0.1l-0.1,0
	l-0.1,0l0-0.1l-0.1,0l0,0l0,0.1l-0.1,0.1h-0.1l0,0l0.1,0L54,22.4h-0.1v0.1l0.1,0l-0.1,0.2l-0.1,0.1v0h-0.1v0.1l0.1,0.1L53.7,23
	l-0.1-0.1l0,0.1l0,0.1l-0.1,0.1l-0.1,0l0.1,0.1l0,0.1l0,0.1l-0.1,0l-0.1,0l0.1,0.1v0.1l-0.1,0.1l0.1,0.1l0,0.1h-0.1l-0.1-0.1l-0.1,0
	l0.1,0.1l0.1,0.1l-0.1,0.1h-0.1v0.1l0.1,0l0.1,0.1l-0.1,0.1l0,0.1l-0.1,0.1l0,0.1l-0.1,0.1l0,0.2l-0.1,0.1v0.1l0.1,0l0,0.1l0,0.1
	l0.1,0.2v0.1l-0.1,0l-0.1,0L53,25.1L53,25.2L52.8,25l0,0l-0.1,0l-0.1,0h-0.1l0-0.1l-0.2-0.1l-0.1,0l-0.1,0.1l-0.1,0l-0.1,0L52,25
	h-0.1l-0.1,0.2l-0.1,0.1l-0.1-0.1l0.1,0.1l-0.1,0.1l0,0.1l0,0.1l0,0.2l-0.1,0l-0.1-0.1l-0.1-0.3v-0.1l-0.1-0.1l-0.1-0.1v0.1
	l-0.1,0.2l-0.1,0.1l0,0.1l0.1,0l-0.1,0.2l-0.1-0.1H51l-0.1-0.1h-0.1l0,0.1l-0.1,0l-0.1-0.1h-0.1v0.1l0.1,0.1l-0.1,0l0,0.1v0.1
	l0.1,0.1l0,0.1l-0.1,0l0,0.1l0.1,0l0.1,0.1l0,0.1h0l0,0.1l0.1,0.1l0.1,0.1v0l-0.1-0.1l-0.1,0v0l0.1,0.1l0.1,0v0.1l0,0.1v0.1
	l-0.1,0.1l0.1,0.1l0,0.1l0.1,0.1v0.1v0.1l0.1,0.2l0,0.1l0.1,0.1l0.1,0.1l0.1,0.2l0.1,0.1l0,0V28l-0.1-0.1v-0.1l0.1-0.1h0.1l0.1,0.1
	l0.1,0l0.1,0V28l0,0.1l0.1,0.1l-0.1,0.1l0,0.1l0,0l0.1,0.2l0.1,0.2l0.1,0.1v0.2l0.1,0.1l0.1,0v-0.1l0.1-0.1l0,0l0,0l0.1,0.1V29
	l0.2,0.2l0.1,0.1l0,0.1v0.1l-0.1,0l-0.1-0.1l-0.1-0.1v-0.1l0-0.1v-0.1l0-0.1L52.1,29l0,0v0.1l-0.1,0L52,29.2l0,0.1l0.1,0v0.1
	L52,29.5l0,0.1l0,0v0.3l0.1,0.1v0.1l0.2,0.3h0.1l0.1,0.2l0.1,0.1l-0.1,0.1v0.1l-0.2,0.1l0,0L52.2,31l-0.1,0l0,0.1l-0.1,0.2l0,0.1
	L52,31.3l0.1,0.1L52,31.6l0.1,0.2l0.1,0.1V32l0.1,0.1l0.1,0.1h-0.1l0,0l-0.1,0.1l-0.1,0.1h0l-0.1,0.1l-0.1-0.1l-0.1,0.1l0.1,0.1h0.1
	l0,0.1l0,0.1l0.1,0.1l0,0.1l-0.1,0l0.1,0.1l0,0.1H52l0.1,0l0.1,0.1L52,33v0.1l0.1,0.1l0,0.2l0,0.1l0,0l0,0.1l-0.1,0.1v0.1l0,0
	l-0.1,0.2l-0.1,0.2l0-0.1l0-0.1v-0.1l0-0.1l-0.2,0l-0.1-0.1l0-0.2l-0.2-0.3L51.2,33h0.1l0.1,0l0-0.1l-0.1,0h-0.1L51,32.8l-0.3-0.6
	l-0.3-0.3v-0.1l-0.1-0.1l-0.2-0.4l-0.2-0.5l-0.2-0.4v-0.1l-0.1-0.2l0-0.3l-0.1-0.1l0-0.2l0.1-0.1l0-0.1l0.1,0l-0.1-0.1l0-0.1v-0.2
	l-0.2-0.2h-0.1v-0.1l0.1-0.1l0.2,0.1l0.1-0.1l0-0.1v-0.2l0.1,0l0.1,0l-0.1-0.1l0.1-0.2l-0.1-0.2v-0.2l-0.1-0.1l0.1-0.1v-0.1l0-0.1
	l0-0.1h0.1l-0.1-0.1l0-0.1l0,0l0-0.2l0,0v-0.1l0.1,0l0-0.1l0-0.1l0-0.2l-0.1,0l0-0.1l0.1-0.1V26l-0.1,0l0-0.1l0.1-0.1v-0.1l0.1,0
	l0-0.1l0.1-0.1v-0.1l0.1-0.1h0l0.1-0.1h0.1l0-0.1l0,0h-0.1l-0.1,0l-0.1-0.1v-0.2l0.1-0.1l0-0.1l-0.1-0.1h0l0,0.1h0l0-0.2l0-0.1v-0.1
	l0-0.1l-0.1,0l0,0l0,0v-0.1L50,24.3v-0.1l-0.1-0.1v-0.1L49.8,24V24l0.1-0.1l0.1,0l0.1,0l-0.1-0.1l0.1-0.1h-0.1h-0.1l-0.1,0h-0.1
	l-0.1-0.1l0,0h-0.1l-0.1,0.1h-0.1l-0.1,0.1l0,0.1V24l0.1,0.1l0,0.1l0,0l0,0.1l0.1,0.1v0.1l0.1,0l0.1,0.2l0.1,0.1l0,0.1l0.1,0.1
	l0,0.1l-0.1-0.1l0-0.1l-0.1,0l-0.1,0.1l-0.1,0.1l0.1,0.1l0,0.1l0,0v0l0,0v0.1l-0.1,0.1l0.1,0.1l-0.1,0.1v0.2l0,0.1v0.1l-0.1,0
	l-0.1,0.1l0-0.1l-0.1-0.1l0.1-0.1l0-0.1h-0.1l-0.1-0.1v0.1l-0.1,0l0-0.2l-0.1,0l0-0.1l-0.1,0.1l0-0.1l0,0l0-0.1l0,0v-0.1h0l0-0.1
	l0,0l0.1-0.1l0-0.1l0-0.1l0,0v-0.1l-0.1-0.1l0-0.1h0l0,0.1l-0.1,0v0.1L48.6,25h0l-0.1-0.1h0l0,0l0-0.1h-0.1l0,0h0l0,0.1l-0.1,0v0H48
	L48,25l-0.1,0l-0.1,0l-0.1,0l-0.1,0.2l-0.1,0v0.1l-0.1,0.1v0.1l0.1,0.1l0,0.1l0.1,0.1l-0.1,0.1L47.6,26l0.1,0.1l-0.1,0l0,0v0.1
	l-0.1,0.1v0.1l-0.1,0.1v0.1l0,0.1l0.1,0.1l-0.1,0.1l0.1,0.2l0,0l0,0.1l0.1,0l0,0h0.1v-0.1h0l0.1,0h0.1v0v0l0.1,0l0.1,0v0.1l0,0
	l0.1,0.1l0,0.1H48l-0.1,0l-0.1,0l-0.1,0.1v0l0.1,0.1l-0.1,0.1l-0.1,0v-0.1l-0.1,0l-0.1,0l-0.1,0l-0.1,0l0,0.1v0.1h0l-0.1,0.1
	l-0.1,0.1l0,0l0,0.1h-0.1l-0.1-0.1h-0.1l0.1,0.1l-0.1,0.1l0,0L47.1,28L47,28l0,0.1l-0.1-0.2h-0.1l0,0l0-0.1h0.1v-0.1l0-0.1H47
	l0.1-0.1l0-0.1h-0.1L47,27.6l-0.1,0v0l-0.1-0.1h-0.1l-0.1,0h-0.1l0,0.1l-0.1,0l-0.1,0v-0.1h-0.1l-0.2,0l-0.1,0L46,27.5h-0.1
	l-0.1,0.1h-0.1v0.1l0.1,0.1l-0.1,0.1l0-0.1l-0.1,0.1l0.1,0.1l0,0l0.1,0v0.1L45.6,28l-0.1-0.1h-0.1l-0.1,0l0,0.1h0l-0.1,0.1h-0.1
	l0-0.1h-0.2L45,28.1l-0.2,0l-0.1,0.1v0.1l0.1,0.1l-0.1,0.1l-0.1,0.1l-0.1-0.1l-0.1,0l0-0.1l-0.1-0.1l0,0.1h-0.1h-0.1l-0.1,0.1h-0.1
	l-0.1,0.1h-0.1l-0.1,0.1l-0.1,0l-0.1-0.1h-0.1l0,0.1l-0.2,0.1l0,0.1l-0.1,0.1l0,0.1l0.1,0.2l0,0.2l-0.1,0.1l-0.1,0.1l0,0.1v0.2
	l0,0.1v0.1h0l-0.1,0V30l-0.1,0l0.1,0.1l-0.1,0.1v0.1L43,30.4l0,0.1l-0.1,0l0,0.2h0l-0.1,0.2v0.2l0,0.1l0,0.1l-0.1,0.1l0,0.1
	l-0.1,0.1v0.1l-0.1,0v0.1l-0.1,0.1V32l-0.1,0.1v0.1l-0.1,0.1l0,0.1l-0.1,0.1l0.1,0.1l0.1,0.1l0.1,0l0.1,0.1h0.1l0.1-0.1l0.1,0
	l0.1-0.1h0l0.1,0v0.2l0.1,0.1l0,0.1l0,0.1l0.1,0.1l0.1-0.1h0l0.1,0l0-0.1l0.1,0l0,0.1l0.1-0.1h0.1l0,0l0,0.1v0.1h-0.1l-0.1,0.1l0,0
	l0.2,0l0.1-0.1l0-0.1l0-0.1l0-0.1l0.1,0.1l0,0.1v0.1l0.1,0l0-0.1l-0.1-0.1l0-0.1l-0.1-0.1l-0.1-0.1h0.1l0.1,0.1v0l0,0h0.1l0-0.1H44
	l0.1-0.1l0.1,0.1h0.1l0.1,0.1l0.1,0.1l0.1,0l0.1,0l0.1,0.1l0.2,0.1l0,0.1H45l0.1,0.1h0.1l0.1,0.1l-0.1,0.1v0.1l-0.1,0l0.1,0.1h0.1
	l0.1,0.1v0.1l-0.1,0.1v0.1l0.1,0.1l0.1,0l0.1-0.1l0,0.1l0,0.1v0.1l0.1,0.1l-0.1,0.1v0.1l0,0.1l-0.1,0.1l0,0v0.1l0,0.1l0.1,0
	l-0.1,0.1l0.1,0.2l0,0.1l0,0.2v0.1v0.1l0.1,0.3h0.1l0.1-0.1v0l-0.1,0.1l0,0.2l0.1,0.1h0l0.1,0.1v0.2l0,0.1v0.1l0,0.2h0.1v0.1h0v0.1
	l0.1,0.1v0.1L45.8,37v0.1l-0.1,0.1l0,0.1h0v0.1l-0.1,0.1v0.1l-0.1,0.1h0v0.1L45.6,38l0.1,0.2l-0.1,0.1l0,0.1h0.1v0.1l-0.1,0.1l0,0.1
	l-0.1,0.1v0.1l-0.1,0.1l-0.1,0.3l-0.1,0l0,0.1l0,0l0,0.1l-0.1,0.1v0.1L45,39.7v0.1H45l0.1,0.1l-0.1,0.1v0l-0.1,0l0,0.1v0.1l-0.1,0.1
	l0,0.1l-0.1,0.2l-0.1,0.1h-0.1l0,0.1l-0.1,0l-0.1,0.1l-0.1-0.1l-0.1,0.1l-0.1-0.1l-0.1,0v-0.2l-0.1-0.1l-0.1,0.1l-0.1-0.1l0,0.1v0.1
	l-0.1,0.1v0.2l-0.1,0l0,0.1l0,0l-0.1,0L43.3,41.1L43.3,41.1L43.3,41.1z M49.5,39.6L49.5,39.6l0.1,0l0-0.1L49.5,39.6L49.5,39.6
	L49.5,39.6z M43.3,15.6L43.3,15.6L43.3,15.6L43.3,15.6L43.3,15.6L43.3,15.6L43.3,15.6z M43,15.5L43,15.5L43,15.5L43,15.5L43,15.5
	L43,15.5L43,15.5z M42.7,15.6L42.7,15.6L42.7,15.6l0-0.1l-0.1,0L42.7,15.6L42.7,15.6L42.7,15.6z M50,24.6L50,24.6v0.1V24.6L50,24.6
	L50,24.6L50,24.6L50,24.6z M49.8,24.4L49.8,24.4l0.1,0.1v0L49.8,24.4L49.8,24.4L49.8,24.4L49.8,24.4z M8.2,19.3L8.2,19.3L8.2,19.3
	l0.2-0.1l0-0.1h0l-0.1,0.1l-0.1,0L8.2,19.3L8.2,19.3L8.2,19.3z M7.7,22h0.1L7.9,22L8,21.9l0.1,0l0,0.1l0.1,0l0.1,0l0-0.1v-0.1h0
	l0,0.1l0.1,0h0.1l0-0.1l0.1,0l0.1-0.1v-0.1l0.1-0.1v-0.1l-0.1-0.1l-0.1-0.1l-0.1,0H8.5l0,0l0.1,0l0.1,0l0.1,0l0.1,0.1v0.1l0.1,0
	l0-0.1l0-0.1l-0.1-0.1L8.6,21l0-0.1L8.6,21v0.1l0.1,0l0.1,0l0-0.1V21l0,0V21l0.1-0.1v-0.1l-0.1-0.1l-0.1-0.1h0.1l0.1,0.1l0.1,0
	l0-0.1l0,0H8.8v-0.1l0.1,0L9,20.5l0.1,0.1l0-0.1l-0.1,0v-0.1h0.1l0.1,0l0.1-0.1v-0.1l0,0l0,0l0.1-0.1l0-0.1L9.3,20l0-0.1l0.1-0.1
	l0,0.1l0.1-0.1l0.1-0.2l0-0.1l0.1-0.1v-0.1l0.1-0.1l0.1-0.1l0.1-0.2h0.1l0.2-0.1l0.2-0.2l0.1-0.1h0.1l0.1-0.1l0.1,0l0.1-0.1l0.1-0.1
	l0.1-0.1h0.1l0.1,0v-0.1l0,0l0-0.1v-0.1V18l0,0h-0.1v-0.1l0.1-0.1l0,0h-0.1l-0.1-0.1h-0.1l-0.1-0.1v-0.1l0-0.1l-0.1,0.1l0,0.1
	l-0.1,0l-0.1,0l-0.1,0l-0.1,0.1l0,0.1l-0.1,0H10L10,17.8v0.1l-0.1,0.1V18l0.1,0.1v0.1H9.9l0,0.1v0.1l-0.1,0l-0.1,0.1l-0.1,0.1
	l-0.1,0.1l0,0H9.5l-0.1,0.1l-0.1,0.1l-0.1,0.1l0,0l0-0.1h0v0.1v0.1l0,0l0-0.1l0-0.1l-0.1,0l-0.2,0.1l0,0H8.8l0,0.1l0.1,0.1l0,0v0
	l0,0L8.7,19h0v-0.1l0,0v-0.1H8.7L8.6,19L8.5,19v0.1l0.1,0l-0.1,0l0,0.1H8.4l-0.1,0.1v0.1l-0.1,0l-0.1,0.1l0,0.1l0,0h0.1l-0.1,0.1
	H8.1l-0.1,0l0,0.1v0.1h0h0.1l0,0l0,0.1v0.1L8,20l-0.1,0l-0.1,0L7.8,20l0,0.1v0.1l0,0.1l-0.1,0.1l-0.1,0l-0.1-0.1l0-0.1l0,0l0,0.1
	l0,0.1l0.1,0.1l0.1,0h0v0.1l0,0.1v0l0.1,0l0.1-0.1h0l0,0h0.1l0.1,0l0,0l0,0.1l-0.1,0H7.8l0,0.1l-0.1,0l0,0.1l0,0.1l0.1,0h0.1l0.1,0
	l0,0l0,0l-0.1,0H7.7l-0.1,0v0.1l0,0h0.1h0.1v0l-0.1,0l-0.1,0V21l0,0l0.1,0l0.1,0.1l0.1,0v0v0.1l-0.1-0.1l-0.1,0H7.8l-0.1-0.1H7.7
	l-0.1,0.1l0,0.1l0,0v0.1l0,0v0l0,0h0l-0.1,0.1l0,0.1l0,0l0,0l-0.1,0v0l0.1,0.1l0.1,0l0,0l0-0.1l0.1,0l0.1-0.1l0.1,0h0.1l0,0v0.1h0
	l-0.1-0.1H7.8l0,0.1l-0.1,0.1l-0.1,0.1l0,0.1l0,0.1L7.7,22C7.7,22,7.7,22,7.7,22L7.7,22z M8,24.3L8,24.3L8,24.3L8,24.3l0-0.1l0-0.1
	l-0.1,0l0-0.1l-0.1,0H7.7L7.7,24v0.1l0.1,0l0.1,0l0.1,0v0.1l0.1,0L8,24.3L8,24.3z M9.6,24.3L9.6,24.3l-0.1,0l-0.1,0l-0.1-0.1H9.2
	L9.1,24L9,23.9H9l-0.1-0.2l-0.1-0.2l-0.1-0.2l-0.1-0.1V23l-0.1-0.1l0-0.2l0-0.1l0-0.1v-0.1l-0.1,0l-0.1,0l-0.1,0l0,0h0.1l0.1-0.1
	l0-0.2l0-0.1l-0.1,0l-0.1,0l0,0l0.1-0.1l0-0.1l0,0H8.3l-0.2,0L8,21.9H8L7.8,22H7.7l-0.1,0.1l-0.1,0.1v0.1l0,0.1l0,0.1h0.1l0,0l0,0.1
	H7.5l-0.1,0l-0.1,0.1v0.1l0,0.1l0.1,0l0.1-0.1l0,0l-0.1,0.1l0,0.1h0.1l0.1-0.1l0.1,0l0,0l-0.1,0.1l0,0.1L7.6,23h0.1l-0.1,0H7.6
	l-0.1,0.1v0.1l0.1,0.1l0,0l-0.1,0l-0.1,0l-0.1,0H7.3l-0.1,0.1v0.1l0,0.1l0,0.1l0,0.1l0.1,0.1v0.1l0.1,0.1l0.1,0l0.1,0l0.1,0l0.1-0.1
	l0-0.1l0-0.1l0.1-0.1l0,0.1v0.1l0,0.1l0,0.1l0.1,0l0.1,0v-0.1L8,23.7l0,0.1v0v0.1L8.1,24l0.1,0.1h0.1l0.1,0l0,0l0,0H8.3l0,0.1
	l-0.1,0l0,0.1l0.1,0.1v0.1H8.2l-0.1,0v0.1l0.1,0.1h0.1l0.1,0l0.1,0l0.1,0.1v-0.1l0.1,0l0,0.1l0,0.1l0.1,0.1h0.1l0.1-0.1l0-0.1
	l-0.1-0.1l0,0l0,0l0.1,0l0.1,0.1l0,0.1l0,0.1h0l0-0.1l0,0L9,24.5l0.1,0.1h0.1v-0.1l-0.1-0.1v0l0,0l0.1,0.1l0,0h0l0,0.1l0.1,0l0,0
	l0-0.1l0-0.1H9.3l-0.1,0l0,0l0.1,0h0.1l0.1-0.1L9.6,24.3L9.6,24.3L9.6,24.3z M3.2,29.5L3.2,29.5v-0.1v-0.1H3.2l-0.1,0.1v0.1
	L3.2,29.5L3.2,29.5L3.2,29.5L3.2,29.5L3.2,29.5z M5.4,28.2L5.4,28.2L5.4,28.2v-0.1H5.3L5.4,28.2L5.4,28.2L5.4,28.2z M7.1,26.3
	L7.1,26.3l0.2-0.1l0.1-0.1V26l0.1-0.1l0,0.1l0,0.1L7.5,26v-0.1l-0.1-0.1l-0.3-0.1l-0.1,0l-0.1,0.1l-0.1,0.2v0.2l0.1,0.1l0,0.1l0,0
	l0.1,0l0,0.1L7.1,26.3L7.1,26.3L7.1,26.3z M7.8,26.5L7.8,26.5L7.8,26.5L8,26.4l0.1,0H7.9L7.8,26.5L7.8,26.5L7.8,26.5z M9.1,26.5
	L9.1,26.5L9.1,26.5l0.1-0.1H9.1L9.1,26.5L9.1,26.5L9.1,26.5z M8.9,26.5L8.9,26.5L8.9,26.5L9,26.4L8.9,26.5L8.9,26.5L8.9,26.5z
	 M9.9,26.1L9.9,26.1L9.9,26.1l0.2-0.1l0-0.1l-0.1,0L9.9,26.1L9.9,26.1L9.9,26.1z M9.5,26L9.5,26L9.5,26L9.5,26L9.5,26L9.5,26L9.5,26
	z M9.2,26L9.2,26L9.2,26L9.4,26l0-0.1L9.2,26L9.2,26L9.2,26z M9.1,26L9.1,26L9.1,26L9.1,26L9.1,26L9.1,26L9.1,26z M18.1,23.2v0.1
	l0.1,0.1L18.1,23.2L18.1,23.2L18.1,23.2L18.1,23.2z M18,23v0.2l0.1,0.1v0.1l0,0l0.1-0.1l0-0.2L18,23L18,23L18,23z M17.8,22.8
	L17.8,22.8l0.1,0.1v-0.1L17.8,22.8L17.8,22.8L17.8,22.8z M10.2,25.4L10.2,25.4L10.2,25.4l0-0.1L10.2,25.4L10.2,25.4z M10.6,25.7
	L10.6,25.7L10.6,25.7L10.6,25.7L10.6,25.7z M10.5,25.6l0-0.1l-0.1-0.1l-0.1-0.1l0,0.1l0.1,0.1L10.5,25.6L10.5,25.6z M10.7,25.1
	L10.7,25.1l0-0.2l-0.2-0.1l-0.1-0.1h-0.1l-0.1-0.1l-0.1-0.1l0-0.1l-0.1-0.1h-0.1l-0.1,0v0.1L10,24.6l0.1,0.1h0.1l0,0l-0.1,0L10,24.6
	h0l0,0.1l0.1,0.2l0.1,0.1l0.1,0.1h0v-0.1l0.1,0h0.1l0,0l0,0.1l0,0l0.1,0.1l0.1,0l0.1-0.1L10.7,25.1L10.7,25.1z M12.7,21.6L12.7,21.6
	L12.7,21.6v-0.1h0.1L12.7,21.6l0.1-0.1l0,0l0.1,0l0-0.1l0.1-0.1l0.1,0v-0.1l-0.1-0.1L13,21.1l0-0.1L12.9,21l-0.1,0l-0.1,0l-0.1,0.1
	h-0.1l-0.1,0.1v0.1l0.1,0.1v0.1v0.1L12.7,21.6L12.7,21.6z M13,25.1L13,25.1L13,25.1l0.1,0v-0.1L13.1,25L13,25.1L13,25.1L13,25.1
	L13,25.1z M14.6,27.1L14.6,27.1L14.6,27.1l0.1,0.1l0.1,0.1l0.1,0l0,0l0-0.1l-0.1,0l-0.1,0L14.6,27.1L14.6,27.1L14.6,27.1z
	 M14.3,21.5L14.3,21.5l-0.1-0.1v-0.1l0.1,0l0-0.1l-0.1,0l-0.1,0l0,0.1l0,0.1h0.1L14.3,21.5L14.3,21.5L14.3,21.5z M14.1,20.9
	L14.1,20.9l0.1-0.1l0.1-0.1l0-0.1l0-0.1l0.1,0l0,0h-0.1l-0.1,0.1L14.1,20.9L14.1,20.9L14.1,20.9z M14.5,21L14.5,21l0.2,0.1l0.1,0V21
	l-0.1,0H14.5L14.5,21L14.5,21z M15.3,21.6L15.3,21.6l-0.1,0.2l-0.1,0l0,0.1l0.1,0.1h0.1l0.1-0.1l0.1,0l0.1-0.1l0.1,0l0.1-0.1v-0.1
	l-0.1,0h-0.1L15.3,21.6L15.3,21.6L15.3,21.6z M15.6,20.9L15.5,21l0,0.1l-0.1,0.1v0.1l0.1,0l0,0.1h0.1l0.1,0l0.1,0v-0.1l-0.1-0.1
	l0-0.1L15.6,21L15.6,20.9L15.6,20.9z M15,19.4L15,19.4l0-0.1l-0.1,0l-0.1,0l0,0l0.1,0l0,0.1L15,19.4L15,19.4L15,19.4z M15.3,18.4
	L15.3,18.4L15.3,18.4l-0.1,0.1l0.1,0l0.1,0l0,0v0.1l0.1,0.1v-0.1l0-0.1l0.1,0v-0.1l-0.1-0.1v-0.1l0-0.1l-0.1,0h0l0,0L15.3,18.4
	L15.3,18.4L15.3,18.4z M15.2,17.9l-0.1,0l0-0.1l-0.1,0l0,0v0.1l0.1,0.1L15.2,17.9L15.2,17.9L15.2,17.9z M15.2,17.8L15.2,17.8h0.1
	h0.1l0.1,0v0h-0.1l-0.1,0L15.2,17.8L15.2,17.8L15.2,17.8z M16.1,19.8l0.1-0.1l0,0h-0.1L16,19.8L16.1,19.8L16.1,19.8L16.1,19.8z
	 M16.4,19.8L16.4,19.8l0.1-0.1l-0.1,0l0,0L16.4,19.8L16.4,19.8L16.4,19.8L16.4,19.8z M16.7,19.8L16.7,19.8L16.7,19.8l-0.2-0.1l0,0
	L16.7,19.8L16.7,19.8z M17.4,19.6l0,0.1l0.1,0l0-0.1L17.4,19.6L17.4,19.6L17.4,19.6z M17,19.6L17,19.6l0.1-0.1L17,19.6L17,19.6
	L17,19.6L17,19.6L17,19.6z M16.7,19.2L16.7,19.2L16.7,19.2l-0.2,0.1v0.1l0.1,0l0,0L16.7,19.2L16.7,19.2L16.7,19.2L16.7,19.2z
	 M17,19.2L17,19.2l-0.1-0.1l0,0l0,0.1L17,19.2L17,19.2L17,19.2L17,19.2z M17,19.2L17,19.2L17,19.2l0.1-0.1v-0.1l0-0.1H17v0.1
	L17,19.2L17,19.2L17,19.2z M16.7,18.9L16.7,18.9l0-0.1l-0.1,0l-0.1,0l-0.1,0v0L16.7,18.9L16.7,18.9L16.7,18.9z M17.1,18.7L17.1,18.7
	L17.1,18.7v-0.1l0.1,0v0l-0.1-0.1l-0.1,0l-0.1,0v0.1h0l-0.1,0l0,0l0.1,0.1l0.1,0L17.1,18.7L17.1,18.7L17.1,18.7z M16.8,15.1
	L16.8,15.1L16.8,15.1L16.8,15.1L16.8,15.1L16.8,15.1L16.8,15.1z M16.4,15.9L16.4,15.9L16.4,15.9l0.2,0l0-0.1v-0.1l-0.1-0.1h-0.1
	l-0.1,0.1L16.4,15.9L16.4,15.9L16.4,15.9z M18.2,15.7L18.2,15.7l0.1,0l0.1-0.1h0v0l0,0.1l0.1-0.1l0.1-0.1v-0.1l0.1,0v-0.1l0,0h-0.1
	l0,0l-0.1,0.1l-0.1,0.1l-0.1,0.1L18.2,15.7L18.2,15.7z M19.1,15.8L19.1,15.8l0.1-0.1l-0.1,0L19.1,15.8L19.1,15.8L19.1,15.8
	L19.1,15.8z M19.2,15.9L19.2,15.9L19.2,15.9L19.2,15.9l0-0.1l0-0.1h0v0L19.2,15.9L19.2,15.9L19.2,15.9z M18.5,16.2L18.5,16.2
	L18.5,16.2l0-0.1L18.5,16.2L18.5,16.2L18.5,16.2L18.5,16.2L18.5,16.2z M18.9,16.2L18.9,16.2l0-0.1l0,0v-0.1h-0.1l0,0l0,0.1l-0.1,0.1
	l0,0l0.1,0l0.1-0.1l0,0L18.9,16.2L18.9,16.2z M18.9,16.6L18.9,16.6l0.1,0h0.1l0.1,0h0.1l0.1,0l0-0.1v0h0l0,0l0-0.1h-0.1l-0.1,0.1
	l0,0.1l0,0h-0.1l0,0h0l0,0.1L18.9,16.6L18.9,16.6L18.9,16.6L18.9,16.6L18.9,16.6z M11.4,14.1L11.4,14.1l0.1,0.1h0.1l0.1-0.1v-0.1
	l-0.1,0l-0.1,0L11.4,14.1L11.4,14.1L11.4,14.1L11.4,14.1L11.4,14.1L11.4,14.1z M13.8,11L13.8,11l0.1-0.2H14l0.1,0l0,0.1v0.1L14,11
	l-0.1,0L13.8,11L13.8,11L13.8,11z M15.6,12.1l0.1-0.1l0.1-0.1v-0.1l0.1-0.1l0.2-0.1l0.1-0.1l0-0.1v-0.1l-0.1-0.1L16,11.3l-0.1-0.1
	V11l0.1-0.1v-0.1l0,0h-0.2l-0.2-0.1l-0.1-0.1l-0.2-0.2l-0.1-0.1L15,10.3h-0.1l0,0l0,0.1l0,0.1v0.1l-0.1,0.1l-0.1,0.1l-0.1,0.1l0,0.1
	l0,0.3l0.1,0.1l0.1,0.1v0.1l0,0.2l-0.1,0.1l0,0.1l0,0.1l0.1,0l0.1-0.1l0.1-0.1l0,0l0,0.1l0.1,0.1h0.1l0-0.1l0.1,0l0.1,0.1l0.1,0
	L15.6,12.1L15.6,12.1z M15.3,12.7L15.3,12.7L15.3,12.7l0.2,0.1l0.1-0.1l0.1-0.1l0.1,0l0-0.1l0.1-0.1l0-0.1l-0.2-0.1l-0.2,0l-0.1,0
	l-0.1,0l-0.1,0H15l-0.1,0.1h-0.1l0,0l0,0.1l0.1,0l0.1,0.1l0.1,0.1l0.1,0.1L15.3,12.7l0.1-0.1l0.1,0l0,0L15.3,12.7L15.3,12.7
	L15.3,12.7z M18.1,13L18.1,13L18,13.2l-0.1,0l-0.1,0.1l-0.1,0.1h-0.1l-0.1-0.1l-0.1-0.1h-0.1l-0.1,0l-0.1,0l-0.2,0l-0.1-0.1l-0.1,0
	l-0.1,0l-0.1,0.1l-0.1,0l-0.1-0.1h-0.1l-0.1-0.1l-0.1-0.2l-0.1-0.1h-0.1l-0.1,0L16,12.8l-0.1,0l0,0.1l0,0.1l-0.1,0l0,0l-0.1-0.1
	l0-0.1l0.1-0.1l0-0.1l0-0.1l0-0.1l0.1-0.1l0-0.1H16l-0.1-0.1v-0.1l0.1-0.1L16,12l0.1,0v-0.1l0-0.1l0.1-0.1l0.1-0.1l0-0.1l0,0l0.2,0
	l0.1,0.1l0.1,0.2l0,0.1l-0.1,0.1l0.1,0l0,0.1l-0.1,0.1v0.1l0.1,0l0.1-0.1l0-0.1V12l0-0.1v-0.1l-0.1-0.1l0-0.1l0-0.1l0.1,0l0.2,0
	l0.3,0.2h0.1l0.1,0V12l0.1,0.1l0,0.1v0.1l0.1,0.1l0.1,0.1v0.1h-0.1l-0.1,0h-0.1v0.1l0.1,0.1l0.1,0l0.1,0.1L18.1,13L18.1,13L18.1,13z
	 M33.5,10.6l0-0.2l0.1-0.1l0,0v0.1l0,0l-0.1,0.1L33.5,10.6L33.5,10.6L33.5,10.6z M34.4,12.1l0,0.2l0.1,0.2l0.1,0.1l0.3,0.1l0.2,0
	l0.2,0.1h0.1l0.1,0l0.1,0l0.1,0l0.2-0.1l0-0.1l0.1-0.1l0-0.1l-0.1,0h-0.1l0-0.1v-0.1l-0.1-0.1h-0.1l-0.1,0l-0.2,0l-0.1,0.1l-0.1,0
	l0-0.1l0-0.1H35l-0.1,0h-0.1l-0.1,0v0.1l-0.1,0.1l-0.2,0L34.4,12.1L34.4,12.1L34.4,12.1L34.4,12.1z M31.2,13.5l-0.1-0.2l0-0.1
	L31,13.2h-0.2L30.7,13L30.7,13l-0.1,0l0,0.1l0.1,0.1l0.1,0.1l0.1,0.2l0.1,0.2l0.1,0L31.2,13.5L31.2,13.5L31.2,13.5z M32.8,13.7
	L32.8,13.7l-0.1,0v-0.1l0-0.1l0.1,0L32.8,13.7L32.8,13.7l0.1,0v0H33l0.1-0.1l0.1-0.2l0.1-0.1l0.1,0l0.1-0.1l0,0l0,0.1h0.1l0.1,0
	l0.1,0v-0.1l0.1-0.1l0.1-0.1l0,0h-0.1l-0.1,0.1l-0.1-0.1l-0.1,0L33.3,13h-0.1l0-0.1L33,12.8l-0.1,0l0-0.1l0-0.1l-0.1-0.1l0-0.1
	l-0.1-0.1v-0.1l0.1,0l-0.1-0.1l0.1,0l0,0v-0.1l0,0l-0.1-0.1h-0.2l-0.1,0L32.4,12h-0.1l-0.1,0l0,0l0.1,0.1l0.1,0l0,0.1h-0.1l0,0h-0.1
	l-0.1,0.1l0,0.1l0.1,0.1l0,0.1l0.1,0.1l0,0.1l0,0l-0.1,0l-0.1-0.1l-0.1-0.1l-0.1,0l-0.1,0l-0.1,0l0,0l-0.1,0v-0.1l0-0.1h-0.1
	l-0.1-0.1h-0.1l-0.1,0v-0.1l-0.1,0l-0.1,0.1v0.1l0,0v0.1l0,0.1l-0.1,0.1v0.1l0.1,0.1h0.1l0.1,0.1l0,0h-0.1l0,0.1l0.1,0l0,0.1v0.1
	l0.1,0.1l0.1,0l0,0.1l0,0l0,0l0,0h0.1l0,0.1l-0.1,0.1l0,0h-0.1l0,0.1l0,0.1l0.2,0.2l0.1,0.1H32l0.1,0.1l0.1,0.1l0,0.1l0.1,0.1h0.1
	l0.1-0.1h0.1l0.1,0.1l0.1,0l0-0.1v-0.1L32.8,13.7L32.8,13.7L32.8,13.7z M32.9,12.1H33h0.1h0.1l0.2,0.1h0.1l0.1,0l0.2,0l0.2,0.1v0.1
	l-0.1,0l-0.1,0.1v0.1l0.1,0.1l0.1,0v0.1l0,0.1L34,12.8l0,0.1L33.9,13l0,0.1L33.8,13h-0.1l-0.1,0.1h-0.1L33.4,13l-0.1-0.1l-0.2-0.2
	l0-0.1l0-0.1v-0.1l0-0.1l-0.1-0.1l-0.1,0l0-0.1l-0.1,0L32.9,12.1L32.9,12.1L32.9,12.1z M18.9,14.3l0.1,0l0.1-0.1l0.1-0.1l0.1,0
	l0-0.1v-0.1l0.2-0.1h0.1l0.1,0.1h0.1l0-0.1l0-0.1l0.1,0l0.1-0.1l0-0.1l0.1,0l0.1-0.2l0-0.1L19.8,13l-0.1-0.1v-0.1l-0.1-0.1h-0.1l0,0
	l-0.1,0l-0.1,0l-0.1-0.1h-0.1l0,0l-0.1,0l0-0.1l0-0.2H19l0,0.1h0l-0.1-0.1l-0.1,0v0.1l0.1,0.1v0.1l-0.1,0.1v0.1h-0.1l0-0.1l0-0.3
	l-0.1,0l-0.1,0l-0.1-0.1h-0.1l-0.1,0.1l0,0.1l0.1,0.1l0.1,0.1l0,0h-0.1l0-0.1l-0.1-0.1h0l0,0.1l0,0.1l0,0v0.1l0.1,0.1l0.1,0l0,0.1
	l0,0.1l0.1,0.2l0.1,0.1h0.1l-0.1,0.1l-0.1,0l-0.1,0.1l0.1,0.2l0,0.1v0.1l0.1,0v0.1l0,0.1l0.1,0.1l0.1,0.1L18.9,14.3L18.9,14.3
	L18.9,14.3L18.9,14.3z M20.5,13.3L20.5,13.3L20.5,13.3l0.1-0.1l0-0.1l0.1,0l0-0.1h-0.1l-0.1,0.1v0.1V13.3L20.5,13.3L20.5,13.3
	L20.5,13.3L20.5,13.3z M20.6,13.3L20.6,13.3l0.1-0.1l0.1-0.1h0.1l0,0l0.1,0l0,0.1l-0.1,0.1l-0.1-0.1l-0.1,0.1l-0.1,0L20.6,13.3
	L20.6,13.3L20.6,13.3z M21.4,14.1L21.4,14.1l0.1,0.2l0,0v0l0.1,0l0-0.1l-0.1-0.1L21.4,14.1L21.4,14.1L21.4,14.1z M29.3,16.7
	L29.3,16.7l0.1-0.1v-0.1l-0.1,0.1l0,0L29.3,16.7L29.3,16.7L29.3,16.7L29.3,16.7z M28.2,17.8h0.1l0,0h0v0l-0.1-0.1l-0.1-0.1h-0.1l0,0
	v0L28.2,17.8C28.2,17.8,28.2,17.8,28.2,17.8L28.2,17.8z M25.3,17.3l0.1,0l0.1,0l0.1,0l0-0.1l0.1,0v-0.1l-0.1-0.1V17L25.5,17l0-0.1
	v-0.1l-0.1,0l-0.2,0.1l-0.2,0.1H25l0,0l0,0.1l0.1,0.1l0,0.1l0,0.1H25l0,0l0,0.1h0.1L25.3,17.3L25.3,17.3z M33.9,14.8L33.9,14.8
	L33.9,14.8l0-0.1l0.1-0.1l0-0.1l-0.1-0.1l0-0.1h-0.1l-0.1,0l-0.1,0.1v0.1l0.1,0.1v0.1l0,0.1l0.1,0L33.9,14.8L33.9,14.8L33.9,14.8z
	 M34.1,15.4L34.1,15.4l0.1-0.1l0.1-0.1l0.1,0h0.2l0.1,0H35l0.1-0.1h0.1l0.1,0l0.1-0.1L35.3,15l0-0.1l-0.1-0.1L35,14.7h-0.1l-0.1,0
	l-0.1-0.1h-0.1l-0.1,0l-0.1-0.1h-0.1l-0.1,0.1l-0.1,0.1l0,0.1V15l-0.1,0.2L34.1,15.4L34.1,15.4L34.1,15.4L34.1,15.4z M32.1,15
	L32.1,15l0.1,0.1h0.1l0.1,0.1h0.1l0.1,0.1h0.1v-0.1l-0.1-0.1l-0.1,0h-0.1L32.1,15L32.1,15L32.1,15L32.1,15z M34.8,17.6l0.1,0.1
	l0.1,0v-0.1l0.1,0l0,0l0-0.1l0-0.1l0,0l0,0.1L34.8,17.6C34.9,17.6,34.8,17.6,34.8,17.6L34.8,17.6z M44.2,16.9L44.2,16.9L44.2,16.9
	l0-0.1h-0.1l0,0L44.2,16.9L44.2,16.9z M44.1,17L44.1,17L44.1,17L44.1,17L44.1,17L44.1,17L44.1,17L44.1,17z M44.1,17L44.1,17l0.1,0.2
	l0,0l0-0.1L44.1,17L44.1,17L44.1,17L44.1,17z M43.9,17L43.9,17l0.1,0.1l0-0.1h0l0-0.1L43.9,17L43.9,17L43.9,17L43.9,17z M46.2,16
	L46.2,16l0.2,0l0.1-0.1l0-0.1l-0.1-0.1l0,0l0-0.1l-0.1-0.1l0,0h-0.1l-0.1,0H46v0H46v0h-0.1l0,0.1v0.1l0,0H46l0.1,0L46.2,16L46.2,16z
	 M46.7,15.8L46.7,15.8l0.1-0.1L46.7,15.8L46.7,15.8L46.7,15.8L46.7,15.8z M47.3,38.4v-0.1l0-0.1l0-0.1l0-0.1l0-0.1l0.1-0.1l0,0v0.1
	l0.1,0l0.2,0l0,0h0l0,0.1l0,0V38l0.1,0.1v0.1l0.1,0.1v-0.1l0-0.1V38v-0.1l-0.1-0.1l0-0.1l0-0.1l-0.1,0h-0.1l-0.1-0.1l0-0.1l-0.1-0.1
	l-0.1-0.1l-0.1,0l-0.1-0.1l0-0.1L47,37l0-0.1v-0.1l0-0.2l-0.1-0.1l0-0.1v-0.1l-0.1-0.1l0-0.1l0-0.1V36h0H47l0.1,0h0.1l0.1,0.1
	l0.1,0.1l0.1,0l0.1,0.1l0.1,0.1l0.1,0l-0.1-0.1l-0.1-0.1l-0.1-0.1L47.4,36l-0.1-0.1v-0.1l-0.1-0.1l-0.1-0.2l0-0.1l-0.1,0v-0.1
	l-0.1-0.2L46.8,35l0-0.1l-0.2-0.2l-0.1-0.1l-0.1-0.1v-0.1l-0.1-0.1l-0.1,0v0h-0.1l0,0l0-0.1l0-0.1l-0.1-0.1l-0.1-0.1l-0.1-0.1
	L46,33.9v-0.1l0-0.1l0,0l0-0.1l0-0.1l0-0.1l-0.1,0l-0.1-0.1v-0.1l-0.1-0.1v-0.1h0l0.1,0.1l0.1,0.1l0-0.1l-0.1-0.1L45.7,33h0l0-0.1
	l-0.2-0.1l-0.1-0.1v-0.1l-0.1-0.1l-0.1-0.1l-0.1-0.1l0,0l0,0.1l0,0v0.1l-0.1,0l-0.1-0.1H45l0.1,0.1l0.1,0.1l0.1,0.1v0.1l0,0h0.1
	l0,0.1l0,0l-0.1,0l0,0.1h0.1l0,0.1l-0.1,0h0l-0.1-0.1l-0.1,0.1L45.2,33l0.1,0.1l0,0.1l0.1,0.1l0.1,0.1v0.2l0,0l0,0.1l0.1,0.2
	l0.1,0.1l0.1,0.1v0l0,0l0.2,0.2l0.1,0l0.1,0.1l0,0.1v0.1l0.1,0.1V35l0.1,0.1l0.1,0.1l0,0v0.1l0.1,0.2l0,0.1l0.1,0.1v0.2l0,0.1v0.1
	l0,0.1l0.1,0.2l0,0.1v0.1l0.1,0.1l0.2,0.2v0.1l0.1,0.1l0,0.2l0,0.1l0.1,0.1l0,0.1l0.1,0.1v0.1l0,0.1v0.2l0,0.1l0.1,0.1l0.1,0.1
	L47.3,38.4L47.3,38.4z M43,32.4L43,32.4L43,32.4L43,32.4L43,32.4l0.1,0l0.1,0l0.1-0.1l0-0.1l0-0.1v-0.1l0.1-0.1l0,0h-0.1l0,0l0,0.1
	l0,0l0-0.1v0l0,0l-0.1,0l-0.1,0L43,32.1l0,0.1l-0.1,0.1v0.1L43,32.4L43,32.4z M42.7,32.4L42.7,32.4L42.7,32.4L42.7,32.4l0.1-0.1l0,0
	l0-0.1l0-0.1l0-0.1h0l-0.1,0.1l-0.1,0L42.7,32.4L42.7,32.4L42.7,32.4z M43.3,32.7L43.3,32.7L43.3,32.7L43.3,32.7l0-0.1L43.3,32.7
	L43.3,32.7L43.3,32.7L43.3,32.7z M43.2,32.5L43.2,32.5l0,0.1L43.2,32.5L43.2,32.5L43.2,32.5L43.2,32.5L43.2,32.5z M43.3,32.9
	L43.3,32.9l0.1-0.1l0-0.1l0,0l0-0.1l-0.1,0L43.3,32.9L43.3,32.9L43.3,32.9L43.3,32.9z M46.5,28L46.5,28L46.5,28l0.1-0.1h-0.1
	L46.5,28L46.5,28L46.5,28z M51.6,27.5L51.6,27.5L51.6,27.5v-0.2l0,0v-0.1l0.1-0.1l0.1-0.1l0.1-0.1l0.1,0l0-0.1l-0.1-0.1l-0.1-0.1
	l-0.1,0l-0.1,0.1v0.1l0,0l-0.1,0.1l-0.1,0L51.4,27h0.1l0.1,0l0,0l0,0.1l0,0.1l0.1,0.1v0.1L51.6,27.5L51.6,27.5L51.6,27.5L51.6,27.5z
	 M54.7,30.1L54.7,30.1l0.1,0.1l0.1,0.1l0.1,0l0.1,0l0.1,0l0,0L55,30.2l-0.1-0.1h-0.1l-0.1-0.1L54.7,30.1L54.7,30.1L54.7,30.1z
	 M53.7,29.9L53.7,29.9l0.1,0l0.1,0.1v0l0.1,0.1h0.1l0.1,0.1h0l0,0l0.1,0.1h0.1l0,0l-0.1-0.1l-0.1,0L54.1,30l0-0.1H54L54,29.8v0l0,0
	h-0.1l-0.1,0h-0.1L53.7,29.9L53.7,29.9L53.7,29.9z M51.7,34.3L51.7,34.3L51.7,34.3l0-0.1l-0.1-0.1l-0.1,0.1L51.7,34.3L51.7,34.3
	L51.7,34.3z M51.3,34.2L51.3,34.2L51.3,34.2l0.1,0.1l0-0.1L51.3,34.2L51.3,34.2L51.3,34.2z M51.5,34.9L51.5,34.9l0-0.1v-0.1l0.1,0
	l0.1-0.1v-0.1v-0.1l0.1-0.1l0-0.1l-0.1-0.1l0,0.1v0.2v0.1l-0.1,0l-0.1,0.1h-0.1v0l0.1,0.1v0.1l-0.1,0l0,0L51.5,34.9L51.5,34.9
	L51.5,34.9z M51.4,35.4L51.4,35.4v-0.1v-0.1h0v0.1L51.4,35.4L51.4,35.4L51.4,35.4z M51.4,35.6L51.4,35.6L51.4,35.6l-0.1-0.1
	L51.4,35.6L51.4,35.6L51.4,35.6L51.4,35.6z M51.3,35.7L51.3,35.7L51.3,35.7L51.3,35.7L51.3,35.7L51.3,35.7L51.3,35.7z M51.3,35.9
	L51.3,35.9L51.3,35.9l0.1-0.2l0,0l0,0.1V35.9L51.3,35.9z M51.2,36.4L51.2,36.4L51.2,36.4L51.2,36.4L51.2,36.4L51.2,36.4z M51.2,36.7
	L51.2,36.7v-0.1V36.7L51.2,36.7L51.2,36.7z M51.2,36.7L51.2,36.7L51.2,36.7L51.2,36.7L51.2,36.7z M51.1,36.9L51.1,36.9L51.1,36.9
	L51.1,36.9L51.1,36.9L51.1,36.9L51.1,36.9z M51,37.2L51,37.2l0-0.2h0v0.1V37.2L51,37.2L51,37.2z M50.3,38.2L50.3,38.2l0.1-0.1
	l0.1-0.1l0.1,0v-0.1l0-0.1l0.1-0.1l-0.1,0l-0.1,0l-0.1,0.1v0l0,0.1l0,0l0,0.1l-0.1,0.1L50.3,38.2L50.3,38.2z M49.5,39.1L49.5,39.1
	l0.1-0.1l0.1-0.1v-0.1l0,0v-0.1l0,0l0.1,0l0.1-0.1l0.1-0.1l0.1-0.1h0.1l0.1-0.1v-0.1l0-0.1l-0.1,0L50,38.4l0,0.1h-0.1l-0.1,0.1
	l-0.1,0l0-0.1h0l0,0.1l0,0.1l0,0.1l-0.1,0.1h0v0.1l0,0.1l-0.1,0v0.1l0,0.1l0,0L49.5,39.1L49.5,39.1L49.5,39.1z M49.2,39.7v-0.1
	l0-0.2l0,0l0.1-0.1l0-0.1h0l-0.1,0l-0.1,0l-0.1,0l0,0l0,0.1l0,0.1l0,0.1l-0.1,0.1L49.2,39.7L49.2,39.7L49.2,39.7z M1.1,32.9
	L1.1,32.9l0.1,0.1L1.1,32.9L1.1,32.9z"/>
</svg>
