<?xml version="1.0" encoding="utf-8"?>
<!-- Generator: Adobe Illustrator 19.2.0, SVG Export Plug-In . SVG Version: 6.00 Build 0)  -->
<svg version="1.1" id="Layer_1" xmlns="http://www.w3.org/2000/svg" xmlns:xlink="http://www.w3.org/1999/xlink" x="0px" y="0px"
	 viewBox="0 0 56 56" style="enable-background:new 0 0 56 56;" xml:space="preserve">
<style type="text/css">
	.st0{fill:#FDC414;}
</style>
<polygon id="Rwanda" class="st0" points="16.2,12.4 17.9,12.4 21.3,12.4 26.4,9 29.8,9 31.5,12.4 34.9,12.4 36.6,9 36.6,5.6 
	41.7,5.6 45.1,10.7 48.5,14.1 48.5,17.5 51.9,20.9 53.6,27.8 55.3,32.9 53.6,38 51.9,41.4 50.2,43.1 46.8,44.8 43.4,44.8 43.4,43.1 
	43.4,41.4 40,39.7 38.3,36.3 34.9,34.6 33.2,32.9 31.5,32.9 31.5,38 28.1,46.5 28.1,48.2 23,49.9 19.6,48.2 17.9,48.2 16.2,49.9 
	12.8,48.2 11.1,44.8 7.7,43.1 2.5,43.1 0.8,43.1 0.8,39.7 4.2,22.7 9.4,17.5 "/>
</svg>
