<?xml version="1.0" encoding="utf-8"?>
<!-- Generator: Adobe Illustrator 19.2.0, SVG Export Plug-In . SVG Version: 6.00 Build 0)  -->
<svg version="1.1" id="Layer_1" xmlns="http://www.w3.org/2000/svg" xmlns:xlink="http://www.w3.org/1999/xlink" x="0px" y="0px"
	 viewBox="0 0 56 56" style="enable-background:new 0 0 56 56;" xml:space="preserve">
<style type="text/css">
	.st0{fill:#FDC414;}
</style>
<polygon id="Saudi_Arabia" class="st0" points="35.8,14.8 34.2,15.5 34,14.6 31.6,13.8 26.2,13.8 13.8,5.1 11.3,4.8 10.3,5.8 6.4,7 
	9.4,10.2 8.2,11.6 8.2,12.4 6.2,12.8 4.2,14.6 1.6,13.8 0.8,13.8 0.6,14.8 0.8,16 0.4,16.7 0.4,17 0.8,16.8 1,17 1.3,16.8 2,17.2 
	1.8,17.3 3,18.5 3,19.2 3.3,19.2 3.5,19.7 4,20.4 4.3,20.4 5,21.6 5,22.1 5.2,22.6 5.7,22.6 5.9,23.3 6,23.6 6.7,23.9 7.2,25.1 
	7.6,25.5 7.7,26.1 7.6,26.5 7.6,27 8.1,27.3 8.1,27.8 8.4,28 8.9,27.7 9.4,28 10.3,28.5 10.9,29.2 11.1,29.7 11.3,29.7 11.5,30.4 
	11.6,30.7 12,31.6 12.5,32.1 12.6,32.9 12.8,33.3 12.6,34.1 12.3,34.3 12.6,34.8 12.8,35.6 13,36.6 13.5,37.2 13.5,37.5 14.8,38.9 
	15.4,39.2 15.9,39.2 16.2,39.7 16.5,39.7 17.2,40.4 17.2,40.7 17.9,40.9 17.9,41.2 18.2,41.4 18.7,43.8 19.4,44.1 19.4,44.8 
	21.4,46.8 21.8,46.8 22,47.8 22.8,48.2 23.3,49.5 23.7,49.5 24.2,49.7 24.3,49.2 25.2,48.7 24.7,47.8 25,46.5 25.7,46.3 26.5,46.8 
	28.2,47 30.4,47.8 32.8,49 33,51.4 37.7,44.9 55.3,39.7 55.7,33.8 55.2,31.7 55.2,31.7 54.3,32.4 46.5,31.2 45.8,29.2 45.2,28.5 
	45.3,27.5 45.2,27.5 45.2,27.7 44.8,27.2 44.8,27 45.2,26.7 44.7,26.7 44.7,26.5 44.1,26.5 43.3,26.1 43.1,25.8 43.1,26 42.6,25.3 
	42.5,24.6 41.1,22.9 40.8,22.3 41.1,22.4 41.1,22.1 40.6,20.7 40.6,20.6 40.3,19.9 40.1,19.9 39.2,18.7 38.9,18.7 38.4,18.2 
	38.6,18 38.7,18 38.9,18.2 38.7,17.8 38.2,17.8 37.4,17.5 36.9,16.2 36.5,15.6 36.2,15.3 36.2,15 36,15 "/>
</svg>
