<?xml version="1.0" encoding="utf-8"?>
<!-- Generator: Adobe Illustrator 19.2.0, SVG Export Plug-In . SVG Version: 6.00 Build 0)  -->
<svg version="1.1" id="Layer_1" xmlns="http://www.w3.org/2000/svg" xmlns:xlink="http://www.w3.org/1999/xlink" x="0px" y="0px"
	 viewBox="0 0 56 56" style="enable-background:new 0 0 56 56;" xml:space="preserve">
<style type="text/css">
	.st0{fill:#FDC414;}
</style>
<path id="Solomon_Islands" class="st0" d="M52.9,38.8l0.7-0.7h1.1l0.4,0.4l-0.7,0.7L52.9,38.8L52.9,38.8L52.9,38.8z M21.4,42.8h1.1
	l1.1,0.7l1.1,0.4l-0.7,0.4l-1.1-0.4h-1.1l-0.4-0.4L21.4,42.8L21.4,42.8z M29.3,35.3h1.1l1.1,1.1l2.2,0.4l0.7,1.1v0.7l0.4,0.4h-1.4
	l-1.8-0.7L30,36.7V36L29.3,35.3L29.3,35.3z M20.7,28.8l1.1,1.1h1.4l1.8,0.7l0.7,0.7h0.7V32L26,33.1H25L23.9,32l-1.4,0.4L21,31.7
	l-1.1-1.8L20.7,28.8L20.7,28.8L20.7,28.8z M25,27.7h-1.1l0.4,0.7l1.1,0.4L25,27.7L25,27.7z M25.3,23.8v0.4l0.7,0.4v0.7l0.7,1.1
	l0.4,1.8l2.2,1.8l0.7,0.4v1.1l0.7,0.4l0.4-1.4L30,29.2l-0.7-0.4l-0.4-0.7l-1.4-1.8l0.4-1.1l-1.1-1.4L25.3,23.8L25.3,23.8z
	 M13.5,18.8l1.8,0.4l1.4,1.4l1.8,0.7l2.2,2.2l-0.4,0.4l0.4,0.7l-0.7-0.7l-0.7,0.7l-0.4-0.7l-0.7-0.7l-1.1-0.7l-2.5-2.5
	C15.3,19.8,14.2,18.8,13.5,18.8L13.5,18.8z M10.6,24.9h1.1v0.7L11,25.9l-0.4-0.7L10.6,24.9L10.6,24.9z M7,24.5l0.4-0.4l0.7,0.4
	l-0.4,0.4L7,24.5L7,24.5z M7.4,23.1h0.7h0.7l0.4,0.7l0.7,0.4h0.7v-1.1l-0.4-0.7L9.2,22l-0.4-0.7l-0.7-0.4l-0.7,0.7L7.4,23.1
	L7.4,23.1z M5.6,20.9l0.7-0.4l1.1,0.7V22H6.3l-0.7-0.4V20.9L5.6,20.9z M3.8,19.1l1.4,1.1l-0.4,0.7l-0.7,0.4v-0.4l-0.4-0.7L3.8,19.1
	L3.8,19.1z M3.8,11.2l-1.4,1.4L3.5,12L3.8,11.2L3.8,11.2z M3.5,13l-0.4,0.7l0.7,1.4l1.8,1.4l1.1,1.1l1.4,0.4h1.1l-0.4-0.7l-1.1-1.1
	L7,15.9v-0.7l-0.7-0.7l-1.8-0.4V13L3.5,13L3.5,13z M1.3,14.1l-0.7,0.4l0.7,0.7V14.1z"/>
</svg>
