<?xml version="1.0" encoding="utf-8"?>
<!-- Generator: Adobe Illustrator 19.2.0, SVG Export Plug-In . SVG Version: 6.00 Build 0)  -->
<svg version="1.1" id="Layer_1" xmlns="http://www.w3.org/2000/svg" xmlns:xlink="http://www.w3.org/1999/xlink" x="0px" y="0px"
	 viewBox="0 0 56 56" style="enable-background:new 0 0 56 56;" xml:space="preserve">
<style type="text/css">
	.st0{fill:#FDC414;}
</style>
<polygon id="Sudan" class="st0" points="11.8,1.1 46.3,0.9 46.1,1.1 46.1,1.5 46.3,1.7 46.1,1.8 46.3,1.8 46.3,2 46.5,2.2 46.7,2.9 
	47.2,3.7 47.2,3.9 47.1,4 47.1,3.7 46.7,3.5 46.7,3.5 46.7,4 47.4,6.2 47.6,7.3 47.4,8.5 47.8,9.6 48.3,10.7 48.7,10.7 50,11.6 
	50,12.1 50.7,12.1 51.3,12.5 51.3,12.9 51.5,12.9 51.1,13.4 50.5,13.8 50.2,13.8 50,14.1 49.3,14.1 48.9,14.3 48.3,14.5 48.3,14.9 
	48.5,15.1 48.3,15.4 47.6,15.4 47.2,15.6 47.2,16.2 47.1,16.9 47.2,17.1 47.4,17.3 47.2,17.6 46.9,18.6 46.7,20 46.1,20.6 
	46.1,21.1 45.8,21.5 45.8,22.2 46.1,23.3 46.3,23.9 46.3,24.1 46.3,24.2 46,25.2 46,26.1 45.2,27.4 44.9,28.3 44.7,28.3 44.1,28.5 
	43.9,28.8 43.2,30.1 43.2,30.5 42.5,31 42.1,32 41.5,34.2 41.2,34 41,34.2 40.8,34.5 40.3,35.3 40.1,35.8 40.3,36.2 40.3,36.7 
	39.7,37.5 39.5,38.4 39.5,39.5 39.5,40.8 39.2,41.1 39,41.3 38.6,41.3 38.2,41.1 37.7,41.3 37.1,41.1 37.1,41.7 36.8,41.9 
	36.4,42.6 36.6,43 37.1,43.2 38.2,43.2 38.6,43.5 39,43.9 39.2,44.4 39.3,44.4 39.9,45.5 40.4,45.7 40.4,45.9 40.6,46.3 41.2,46.3 
	41.5,46.7 41.7,47 42.3,47.6 42.5,48.7 42.6,49 42.8,50 41.9,51.1 41.2,52.2 40.8,52.2 40.4,52.5 40.1,52.9 39.9,53.1 39.5,53.4 
	39.5,53.4 38.8,54 38.4,54.4 37.9,54.7 37.1,54.5 36.2,54.5 35.5,54.9 35.1,54.9 34.7,54.9 34.6,54.9 34.2,55.3 34.2,55.6 
	33.8,55.6 33.1,55.5 33.1,55.1 32.5,54.9 32.2,55.1 31.3,54.7 30.7,54.5 30.5,54.9 30.3,55.3 30.5,55.5 30.5,55.6 30.3,55.5 
	29.6,55.5 29.4,55.5 29.4,55.3 29.2,54.7 29.1,54.5 28.9,54 28.5,53.8 27.8,53.6 27.6,53.3 27.2,52.9 26.9,52.2 26.7,52 26.1,52 
	25.8,52.3 25.6,52.7 24.8,52.9 24.6,52.9 24.6,52.7 24.3,52.7 23.5,52.7 23.2,52.9 23,53.3 22.6,53.3 22.1,53.1 21.5,52.5 
	21.2,52.3 20.8,52.2 20.4,51.8 20.4,51.4 20.2,51.2 20.2,51.2 20.1,50.9 19.5,50.5 19.3,50.3 19.1,49.4 19.1,49 18.8,48.9 
	17.9,48.5 17.5,48.3 17.7,47.8 17.5,47.4 16.8,47.4 16.6,47 16.6,46.1 16.2,45.7 15.3,45.2 15.1,45.4 14.7,45 14.4,45.2 14,45 
	13.4,44.4 13.6,44.3 13.6,44.1 14,43.7 14.2,43.3 14,43 13.4,43 12.9,42.6 12.7,42.2 12.3,42.1 11.8,42.1 11.1,41.7 10.7,41.3 
	10.5,40.8 10.7,40.4 10.5,40.2 9.6,40.2 9.4,40.4 8.7,40.4 8.3,40 8.3,39.1 8.5,38.6 8.7,38.4 8.9,37.8 8.5,37.3 8.1,36.2 7.4,35.3 
	7.2,34.9 6.7,34.3 6.7,34.2 6.7,33.8 6.5,33.4 6.5,33.2 6.5,32.9 6.7,32.5 6.5,32.1 5.4,31.8 5.2,31.2 5.2,30.5 5,29.9 5.2,29.6 
	4.8,29.4 5.2,29.2 5.2,28.7 4.8,28.7 4.1,29.2 3.7,28.7 3.7,28.1 4.6,27.2 5,26.6 4.8,26.1 4.3,25.7 4.4,25.3 5,25 5.4,24.4 5,24.1 
	5,23.7 5.5,23.1 5.7,23.1 6.7,21.9 7,21.3 6.8,20.9 6.8,20.2 7.2,19.8 7.9,19.8 8.5,20 9,19.7 9.4,19.7 9.2,8.1 9.2,8.1 9.2,7.2 
	12,6.8 "/>
</svg>
