<?xml version="1.0" encoding="utf-8"?>
<!-- Generator: Adobe Illustrator 19.2.0, SVG Export Plug-In . SVG Version: 6.00 Build 0)  -->
<svg version="1.1" id="Layer_1" xmlns="http://www.w3.org/2000/svg" xmlns:xlink="http://www.w3.org/1999/xlink" x="0px" y="0px"
	 viewBox="0 0 56 56" style="enable-background:new 0 0 56 56;" xml:space="preserve">
<style type="text/css">
	.st0{fill:#FDC414;}
</style>
<path id="Sweden" class="st0" d="M15.8,42.4l0.3,0.2l0.3,0.5l0.3-0.5L16.6,41l-0.3-0.6l0.2-0.5l0.3-0.2l-0.3-0.5l0.2-0.3h0.8
	l0.2-0.3v-0.5l0.3-0.8L17.5,37l-0.2-1.1l-0.5-0.9v-0.5l1.1-0.3v-0.8l0.2-0.6l-0.8-0.9l-0.8-0.3v-0.9l0.2-0.9l-0.2-0.9l-0.3-0.6
	l0.2-0.8l-0.2-1.2l-0.2-1.2l0.2-1.1l0.6-0.9l0.5-0.3l0.6,0.2h0.8l0.5-0.6v-0.9l-0.2-0.3v-0.6l0.8-2V17l0.3-1.1l0.3-0.6v-0.8
	l-0.3-0.3v-0.5l0.8-0.5l0.8-0.2l0.3-0.3v-0.5l0.6-1.2l0.6-0.9l0.2-0.6l-0.3-0.8l-0.3-0.3V7.4l0.3-0.2l0.3-0.5l0.2-0.6L23.9,6
	l0.3-0.8l0.5-0.3l0.6,0.3l0.2,0.3h0.3l0.3-0.3l-0.3-0.5l0.3-0.3V4.1l0.2-0.3l-0.3-0.6L26.2,3H27l0.5-0.3l0.8,0.2l0.5,0.3h0.6
	l0.3,0.3L30,3.3l0.2,0.2V2.9l-0.3-0.3V1.8l0.3-0.2L30,1.1L29.7,1V0.5l0.6,0.2l0.6-0.2l0.2-0.2l0.5,0.5l0.6,0.3l0.9,0.9l0.6,0.5h0.9
	L35,2.7l0.3,0.2l0.5,0.6l0.2,0.5H36h0.2l0.5,0.6H37l0.2,0.3L37,5.3l0.2,0.8L37,6.7v0.5h0.6l0.2,0.6l-0.2,0.3l0.2,0.6l0.3,0.5
	l0.2,0.9l-0.2,0.5l0.2,0.3v0.9l-0.2,0.3l0.3,0.8l0.5,0.2l0.5,0.9l0.3,0.3v0.5l0,0L39.3,15h-0.5l-0.3-0.3L37.9,15l-0.3-0.2l-0.2,0.5
	L37,15.2l-0.2-0.5l-0.3,0.5l-0.3-0.5l-0.3,0.2v0.5l-0.2,0.3l-0.3,0.2l-0.2-0.3L35,15.3l0.3,0.6l0.3,0.2l-0.5,0.3h-0.5l-0.3,0.2
	l0.5,0.2V17h-0.2l-0.2-0.2l-0.3-0.2L34,16.9l0.2,0.3h0.3l0.3,0.3l-0.2,0.3l-0.3,0.8l0.2,0.3L33.9,19l0.5,0.3h0.3l0.2,0.3l-0.3,0.2
	l0.3,0.3h0.3l-0.5,0.6h-0.3L34,21.2V22l-0.5,0.8h-0.3l-0.5,0.5l-0.3-0.3v0.5l0.2,0.5L32,24.2l-0.3,0.5h-0.3v-0.3h-0.3l-0.2,0.5v0.6
	l-0.3,0.3l-0.2-0.3h-0.2l-0.2,0.5H30l-0.2-0.3l-0.3,0.3l-0.2,0.5h0.2v0.3l-0.6,0.6l-0.5-0.2l-0.2,0.3l0.2,0.5l-0.5,0.6l-0.8,0.2
	l-0.3-0.2l0.6,0.8v0.6l-0.2,0.2l0.2,0.6l-0.2,0.8l0.3,0.3v0.5L27.3,32l-0.2,0.2l0.2,0.8L27,33.4l0.3,0.2v0.3L27.2,34l0.3,0.5
	l-0.3,0.5l0.3,0.3l0.3,0.3h0.3V36l0.3-0.2l0.3,0.5l0.5-0.5l0.3,0.3l0.2,0.5l0.9,0.6l-0.2,0.3l0.8,0.5v0.3l0.5,0.5l-0.3,0.8l-0.6,0.6
	l-0.2,0.5L30,40.8l-0.5-0.2v-0.3l-0.6-0.2l-0.3-0.3v0.3h-0.3l-0.2-0.2l-0.5-0.2l-0.2,0.3l-0.3,0.2L27,40.2l-0.3,0.5l-0.5-0.2
	l-0.3,0.2v0.2h0.8l0.2,0.2v-0.3h0.6l0.3,0.2l0.5,0.2l0.3,0.5l0.3-0.2l0.3,0.2l0.5-0.3l0.6,0.2l0.3,0.3v0.5l-0.3,0.3H30L29.5,43h-0.3
	l0.2-0.5l-0.2-0.2L29,42.7V43h-0.3l-0.3,0.3v0.5l-0.5-0.3v0.3l-0.3,0.3V44h-0.3L27,44.3h0.5l0.5,0.5H27l0.8,0.3v0.3L27.5,46l0.5,0.5
	l-0.6,0.2l-0.5-0.2l0.3,0.5l-0.3,0.5l0.5,0.3L26.9,48l0.3,0.5l-0.5,0.5v0.5l0.5,0.3L27,50l-0.2,1.2l-0.3,0.5l-0.2,0.9l-0.5,0.6
	L25.6,53l-0.5-0.2l-0.5,0.3L23.7,53l-0.2-0.3l-0.2,0.8l-0.8,0.2l-0.3,0.8l0.3,0.3V55l-0.5,0.5l-0.6-0.2l-1.2,0.3h-0.5l-0.3-0.3
	l0.3-0.5l-0.2-1.1l-0.5-0.2v-0.5L18.9,53l0.2-0.3h0.6l0.3-0.6l-0.2-0.6l-0.5,0.3L18.4,51l-0.2-0.5l-0.5-0.2v-0.6l-0.5-0.9l-0.2-0.2
	l-0.3-0.8l-0.5-0.2l-0.3-0.5l0.2-0.2v-0.5l-0.2-0.3l0.2-0.3l0.5-0.5l-0.2-0.3l-0.5-0.3l0.2-0.3h-0.2v0.3l0.3,0.3L16,45.4v-0.5
	l-0.2-0.2l-0.3-0.2v-0.8l-0.2-0.3l-0.2-1.1L15.8,42.4L15.8,42.4L15.8,42.4z M30.1,41l0.3,0.6l0.2,0.2v-0.6l0.5-0.5v-0.5h-0.6
	L30.1,41L30.1,41z M16.1,45.8v0.3h0.3l0.2-0.5L16.1,45.8L16.1,45.8z M32.3,44.3l0.2,0.5l0.3-0.3l-0.3-0.2H32.3L32.3,44.3z
	 M32.5,46.6l0.2,0.2l0.3-0.3l0.5-0.2l-0.2-0.2h-0.5L32.5,46.6L32.5,46.6z M30.8,50.3l0.6-0.2l0.2-0.3l-0.2-0.2l0.2-0.3l0.6-0.5v-0.3
	l0.3-0.5V48l-0.3-0.3l0.2-0.5v-0.3l0.2-0.2l-0.3-0.2l-0.3,0.2h-0.5l-0.3,0.5l-0.2,0.5L30.6,48l0.2,0.6l-0.2,0.2l0.5,0.8h0.2L31.1,50
	L30.8,50.3L30.8,50.3L30.8,50.3z M27.2,51.9v0.5v0.3l0.2,0.2l0.2-0.5l0.3-0.8l0.2-0.8l0.3-0.8l0.2-0.8l-0.3-0.3l-0.3,0.5v0.2
	l-0.2,0.8l-0.3,0.2L27.2,51.9z"/>
</svg>
