<?xml version="1.0" encoding="utf-8"?>
<!-- Generator: Adobe Illustrator 19.2.0, SVG Export Plug-In . SVG Version: 6.00 Build 0)  -->
<svg version="1.1" id="Layer_1" xmlns="http://www.w3.org/2000/svg" xmlns:xlink="http://www.w3.org/1999/xlink" x="0px" y="0px"
	 viewBox="0 0 56 56" style="enable-background:new 0 0 56 56;" xml:space="preserve">
<style type="text/css">
	.st0{fill:#FDC414;}
</style>
<polygon id="Slovenia" class="st0" points="2.1,44 9.2,44 13.9,40.5 17.4,39.3 24.4,42.8 27.9,42.8 29.1,35.8 35,33.4 36.2,28.7 
	46.7,22.9 54.9,22.9 53.7,15.8 49.1,10 45.5,12.3 37.3,15.8 35,15.8 32.6,17 27.9,18.2 24.4,18.2 19.7,20.5 17.4,17 9.2,17 6.8,17 
	2.1,22.9 3.3,26.4 1,29.9 2.1,35.8 2.1,35.8 5.7,38.1 5.7,40.5 2.1,41.6 "/>
</svg>
