<?xml version="1.0" encoding="utf-8"?>
<!-- Generator: Adobe Illustrator 19.2.0, SVG Export Plug-In . SVG Version: 6.00 Build 0)  -->
<svg version="1.1" id="Layer_1" xmlns="http://www.w3.org/2000/svg" xmlns:xlink="http://www.w3.org/1999/xlink" x="0px" y="0px"
	 viewBox="0 0 56 56" style="enable-background:new 0 0 56 56;" xml:space="preserve">
<style type="text/css">
	.st0{fill:#FDC414;}
</style>
<polygon id="Slovakia" class="st0" points="1.4,34.2 9,38.4 12.5,39.1 16,37.7 22.2,37 22.2,34.9 25.7,34.2 29.1,30.8 31.9,34.2 
	31.9,32.2 34,30.8 36.1,28 39.5,27.3 42.3,28 46.5,28 49.9,28.7 52.7,26.6 53.4,23.2 55.5,18.3 55.5,18.3 50.6,15.5 46.5,15.5 
	45.1,16.2 43.7,15.5 41.6,15.5 40.2,16.9 38.8,15.5 36.1,15.5 34.7,15.5 32.6,16.2 31.9,18.3 29.8,18.3 29.1,18.3 29.1,18.3 
	24.3,17.6 21.5,19.7 18.7,19.7 16,23.2 11.8,23.8 7.6,25.2 6.9,24.5 4.2,24.5 1.4,25.9 0.7,25.9 0.7,29.4 "/>
</svg>
