<?xml version="1.0" encoding="utf-8"?>
<!-- Generator: Adobe Illustrator 19.2.0, SVG Export Plug-In . SVG Version: 6.00 Build 0)  -->
<svg version="1.1" id="Layer_1" xmlns="http://www.w3.org/2000/svg" xmlns:xlink="http://www.w3.org/1999/xlink" x="0px" y="0px"
	 viewBox="0 0 56 56" style="enable-background:new 0 0 56 56;" xml:space="preserve">
<style type="text/css">
	.st0{fill:#FDC414;}
</style>
<path id="Sierra_Leone" class="st0" d="M37.4,9.2v2l1,1h2l1-1v-1l-2-1H37.4L37.4,9.2z M47.3,41.9h-2l-4.9,3v2l-4,4l-2,3l-4,2H17.6
	l-2-4l-2-3l-4-6.9v-3l-3-3v-2l2-1v-3l-2-1l1-3l1-20.8l6.9-4.9l2,1h5.9l7.9,4l4,1l-1,2l2,3l2,2l-1,3v1l3-1l3,4v4l2,4.9h3l1,2l-2,4
	l2,1v2L47.3,41.9L47.3,41.9z"/>
</svg>
