<?xml version="1.0" encoding="utf-8"?>
<!-- Generator: Adobe Illustrator 19.2.0, SVG Export Plug-In . SVG Version: 6.00 Build 0)  -->
<svg version="1.1" id="Layer_1" xmlns="http://www.w3.org/2000/svg" xmlns:xlink="http://www.w3.org/1999/xlink" x="0px" y="0px"
	 viewBox="0 0 56 56" style="enable-background:new 0 0 56 56;" xml:space="preserve">
<style type="text/css">
	.st0{fill:#FDC414;}
</style>
<polygon id="Senegal" class="st0" points="8.9,12.9 9.9,11.9 11.5,11.9 13.2,10.3 17.4,9.7 21.7,8.1 23.3,8.1 27.1,9.2 29.2,9.7 
	31.4,11.9 31.4,12.9 32.4,13.5 34,12.9 34.6,12.9 35.6,12.9 36.7,13.5 36.7,15.6 38.3,17.2 38.3,19.4 40.5,19.4 41,21.5 42.6,22 
	44.7,23.1 45.3,24.7 46.4,25.3 46.4,26.9 46.9,28.5 45.8,31.7 46.4,32.8 48,34.4 49,36.5 50.1,37.6 51.2,37.6 51.7,38.1 52.2,39.2 
	53.3,40.8 53.3,41.9 52.8,42.4 52.8,44 54.9,45.1 54.9,46.7 54.4,47.7 54.4,46.1 52.8,46.1 51.7,45.1 50.1,45.1 49,46.1 46.4,45.1 
	43.7,45.1 42.1,44 38.9,42.4 33.5,41.9 31.9,42.4 31.9,42.4 29.8,41.9 22.3,41.9 19,42.9 17.4,45.1 12.1,44.5 9.4,46.1 7.3,45.1 
	7.3,43.5 6.7,42.9 7.8,43.5 8.9,44 10.5,42.9 7.8,41.9 6.2,42.9 5.7,41.9 6.2,41.3 6.2,39.2 7.3,38.6 12.1,38.6 13.7,36.5 
	15.3,36.5 16.9,34.9 18.5,35.4 19,36 20.1,34.9 21.2,34.4 22.8,36 24.9,36 27.1,36.5 29.8,37.6 31.4,37.6 31.9,36.5 31.4,35.4 
	30.8,35.4 27.1,33.3 25.5,33.3 22.8,31.7 20.6,31.7 19,31.1 16.9,32.2 13.7,34.4 12.6,34.4 11.5,34.9 7.8,34.9 7.3,34.4 8.3,33.3 
	6.2,32.2 7.3,32.2 7.3,30.1 5.7,30.1 3.5,26.9 0.8,24.7 6.2,19.9 8.3,15.6 "/>
</svg>
