<?xml version="1.0" encoding="utf-8"?>
<!-- Generator: Adobe Illustrator 19.2.0, SVG Export Plug-In . SVG Version: 6.00 Build 0)  -->
<svg version="1.1" id="Layer_1" xmlns="http://www.w3.org/2000/svg" xmlns:xlink="http://www.w3.org/1999/xlink" x="0px" y="0px"
	 viewBox="0 0 56 56" style="enable-background:new 0 0 56 56;" xml:space="preserve">
<style type="text/css">
	.st0{fill:#FDC414;}
</style>
<polygon id="Somalia" class="st0" points="9.9,33.5 10.2,33.5 10.5,32.7 11.8,32.2 13.1,31.9 14.1,31.4 14.9,30.9 15.1,30.1 
	16.2,29.6 16.9,29.6 17.7,29 20.3,28.8 22.6,29 35.4,16.3 30.2,16.3 18.2,12.7 17.2,11.9 15.6,11.7 15.1,10.4 15.4,9.1 14.3,8.6 
	13.6,6.5 13.3,4.9 13.6,4.1 14.6,2.6 14.9,3.1 15.1,3.1 17.5,5.7 17.7,6.5 18.2,6.5 19.3,7.5 20.3,7.8 21.4,7.5 21.9,7 22.9,6.5 
	23.4,6.5 25,5.4 25.2,5.2 25.5,5.4 26.5,5.4 27.1,5.4 27.8,5.7 29.1,5.7 31.5,4.1 32.2,3.9 33,4.1 33.8,4.1 34.8,4.1 35.9,3.6 
	37.2,3.4 37.7,3.6 37.9,3.6 40,3.4 40.8,2.6 41.8,2.6 42.4,2.9 42.4,2.6 43.7,2.3 44.4,1.6 44.4,1.8 45,1.3 44.7,1 45.2,0.5 
	45.5,0.5 45.5,0.5 46,0.8 47,1 47.5,1 47.8,1.3 47.3,1.8 47,2.6 47,3.1 46.8,3.6 47,3.9 47.5,3.9 47.5,4.1 47,4.4 46.8,5.4 47,6 
	47.3,6.5 47,7.3 47.5,7 47.3,7 47.5,7 47.8,7.5 47.5,7.5 47.5,7.5 47,7.5 46.8,7.5 46,8.6 46.5,9.1 46.2,10.1 46,10.6 46,11.7 
	44.7,13.5 43.7,15.6 43.1,16.3 42.9,16.3 41.8,17.1 41.8,17.6 42.1,18.2 41.6,18.7 39.5,23.1 39.2,24.4 37.9,26.5 37.7,27.2 
	35.1,30.9 34.8,31.6 33.5,32.9 31.2,35.5 26.8,39.7 25,41.2 23.4,41.5 22.4,42.3 20.8,43.6 18.2,46.4 17.5,46.7 15.1,49 14.9,49.3 
	14.6,49.8 13.6,50 12.8,50.8 12.5,51.9 9.2,55.5 9.2,55.8 6.3,53.2 6.3,37.1 "/>
</svg>
