<?xml version="1.0" encoding="utf-8"?>
<!-- Generator: Adobe Illustrator 19.2.0, SVG Export Plug-In . SVG Version: 6.00 Build 0)  -->
<svg version="1.1" id="Layer_1" xmlns="http://www.w3.org/2000/svg" xmlns:xlink="http://www.w3.org/1999/xlink" x="0px" y="0px"
	 viewBox="0 0 56 56" style="enable-background:new 0 0 56 56;" xml:space="preserve">
<style type="text/css">
	.st0{fill:#FDC414;}
</style>
<polygon id="Suriname" class="st0" points="22.1,53.7 22.1,53.7 23.6,53.7 24.4,54.5 27.6,55.3 29.2,55.3 29.9,54.5 28.4,52.1 
	28.4,50.5 26,48.2 26,45.8 28.4,44.2 31.5,45 36.3,45 38.6,43.4 42.6,44.2 44.9,45.8 47.3,46.6 49.7,44.2 51.2,41.9 50.5,40.3 
	49.7,37.1 52,35.6 52,33.2 52,31.6 51.2,29.3 49.7,26.9 48.9,25.3 46.5,23.7 46.5,22.2 47.3,19 45.7,16.6 45.7,13.5 48.1,10.3 
	48.9,9.5 48.9,9.5 51.2,6.4 51.2,4.8 48.9,3.2 44.1,3.2 39.4,0.9 37.8,0.9 35.5,2.4 31.5,1.6 26.8,2.4 22.8,1.6 17.3,1.6 14.2,3.2 
	13.4,5.6 13.4,5.6 13.4,8.7 13.4,10.3 11.8,11.9 9.4,13.5 6.3,13.5 4.7,16.6 4.7,19 2.3,24.5 2.3,26.1 4.7,26.9 6.3,28.5 7.1,30 
	7.9,31.6 7.9,33.2 9.4,34.8 11,34.8 12.6,35.6 12.6,37.1 13.4,41.1 13.4,43.4 15,45 16.5,47.4 17.3,49 19.7,50.5 19.7,51.3 
	20.5,52.9 "/>
</svg>
