<?xml version="1.0" encoding="utf-8"?>
<!-- Generator: Adobe Illustrator 19.2.0, SVG Export Plug-In . SVG Version: 6.00 Build 0)  -->
<svg version="1.1" id="Layer_1" xmlns="http://www.w3.org/2000/svg" xmlns:xlink="http://www.w3.org/1999/xlink" x="0px" y="0px"
	 viewBox="0 0 56 56" style="enable-background:new 0 0 56 56;" xml:space="preserve">
<style type="text/css">
	.st0{fill:#FDC414;}
</style>
<polygon id="El_Salvador" class="st0" points="21.4,12.6 24.1,12.6 25.4,13.9 26.7,15.2 29.4,16.6 33.4,16.6 37.4,17.9 40,20.6 
	40,23.2 42.7,24.6 44,23.2 45.4,20.6 48,20.6 50.7,20.6 53.4,21.9 53.4,24.6 52,28.6 53.4,31.2 52,33.9 52,35.2 50.7,36.5 52,39.2 
	49.4,43.2 40,43.2 37.4,40.5 34.7,36.5 30.7,36.5 29.4,36.5 32.1,39.2 32.1,40.5 25.4,36.5 17.4,33.9 14.8,33.9 10.8,32.6 6.8,29.9 
	2.8,29.9 1.4,28.6 2.8,27.2 2.8,24.6 6.8,20.6 12.1,19.2 16.1,17.9 16.1,15.2 "/>
</svg>
