<?xml version="1.0" encoding="utf-8"?>
<!-- Generator: Adobe Illustrator 19.2.0, SVG Export Plug-In . SVG Version: 6.00 Build 0)  -->
<svg version="1.1" id="Layer_1" xmlns="http://www.w3.org/2000/svg" xmlns:xlink="http://www.w3.org/1999/xlink" x="0px" y="0px"
	 viewBox="0 0 56 56" style="enable-background:new 0 0 56 56;" xml:space="preserve">
<style type="text/css">
	.st0{fill:#FDC414;}
</style>
<polygon id="Syria" class="st0" points="29.1,41.8 44.8,30.6 45.3,29.5 47,27.3 47,25 46.5,23.9 48.1,20.6 48.1,17.8 46.5,14.4 
	46.5,11.6 48.1,8.8 51.5,8.3 53.2,6.6 54.3,6.6 55.4,4.9 54.3,3.8 52,3.8 48.1,4.9 43.7,4.9 42,4.9 39.7,4.9 37,6.1 35.3,7.7 
	33,8.3 33,8.8 29.1,8.8 25.8,8.3 25.2,7.7 23.5,7.2 19.1,7.7 18,8.3 16.8,8.3 12.4,10 10.7,9.4 8.5,8.8 7.9,10.5 7.9,13.9 6.8,14.4 
	6.8,16.1 5.1,16.7 3.4,17.2 1.8,16.7 1.8,17.2 0.6,17.8 0.6,20 2.3,23.4 2.9,25.6 2.3,27.3 2.3,30.6 5.7,30.6 6.8,32.9 8.5,33.4 
	7.9,35.7 8.5,37.3 7.9,37.9 6.8,37.9 5.1,38.5 4.5,41.3 3.4,42.9 2.9,42.9 3.4,43.5 4.5,45.2 5.1,48 4.5,49.6 5.1,49.6 7.9,50.8 
	10.1,52.4 10.7,52.4 11.8,53 29.1,42.4 "/>
</svg>
