<?xml version="1.0" encoding="utf-8"?>
<!-- Generator: Adobe Illustrator 19.2.0, SVG Export Plug-In . SVG Version: 6.00 Build 0)  -->
<svg version="1.1" id="Layer_1" xmlns="http://www.w3.org/2000/svg" xmlns:xlink="http://www.w3.org/1999/xlink" x="0px" y="0px"
	 viewBox="0 0 56 56" style="enable-background:new 0 0 56 56;" xml:space="preserve">
<style type="text/css">
	.st0{fill:#FDC414;}
</style>
<path id="Chad" class="st0" d="M16.2,2.1L20,0.6l26.8,13.5L47,27.2l-0.4,0.2L46,27.8l-0.6-0.4h-0.8l-0.6,0.4v0.8l0.4,0.4l-0.4,0.8
	l-1.1,1.5h-0.4L41.7,32v0.4l0.4,0.4l-0.4,0.6l-0.6,0.4l-0.2,0.4l0.6,0.4v0.6L41.1,36l-1.1,1.1v0.6l0.4,0.4l0.8-0.6h0.4v0.4l-0.4,0.2
	l0.4,0.4L41.5,39l0.4,0.6v0.8l0.2,0.6l1.3,0.4l0.4,0.4l-0.2,0.4v0.4l-0.4,0.6l-0.8,0.4L42,43.6h-0.8L40.5,44l-0.8,0.4l-0.2,0.4v0.4
	L39,45.5l-0.6,1.1h-0.4l-0.2-0.2L37.3,47v0.4l-0.4,0.4l-0.2,0.6v0.4l-0.2,0.4l-0.6,0.2l-0.6,0.4l-1.3,0.2l-0.8,0.2l-0.8-0.2
	l-0.6-0.2h-0.8l-0.4-0.2l-0.4,0.2v0.6l0.6,0.6H31l0.2,0.4l-1.1,0.6l-0.4,0.4h-0.8L27,53.1l-0.8,0.6l-0.8,0.4l-0.8,0.6h-0.6l-0.2-0.2
	l-0.2-0.8L23,53.3l-0.4,0.4v0.6l-0.4,0.8h-0.8l-0.6,0.2H20l-0.2-0.6l-0.4-0.4v-0.6l-0.6-0.8L18.3,52l-0.4-0.4l-1.3-1.3l-1.3-1.1
	l-0.6-0.2v-0.4l-0.4-0.2L14.1,48v-0.6l0.2-0.4v-0.6h0.4h0.6l0.4,0.2h0.6h0.4h0.4h0.6l0.4,0.2h0.4l0.4-0.2L19,46.3l-0.8-0.6l-0.2-0.6
	l-0.4-0.2L16.9,44v-0.6l0.4-0.4l0.2-0.8l-0.4-0.4v-0.2l0.2-0.4v-0.4l-0.4-0.8l-0.2-0.6l-0.2-0.4l-0.2-1.1l-0.8-0.6l-1.7-0.8l0,0
	l-0.4-0.8l-0.8-1.1L12,34.1l-0.2-4.2v-0.4h0.4l0.4-0.2l0.2-0.4l5.5-5.7l-0.2-4.9L19,12l0.4-0.4v-1.3l-2.3-2.7l0.2-0.4V6.3l-1.7-4.6
	L16.2,2.1L16.2,2.1z M9.3,36.2l-0.2,0.4l-0.4,0.2l-0.2-0.2L9.3,36.2z"/>
</svg>
