<?xml version="1.0" encoding="utf-8"?>
<!-- Generator: Adobe Illustrator 19.2.0, SVG Export Plug-In . SVG Version: 6.00 Build 0)  -->
<svg version="1.1" id="Layer_1" xmlns="http://www.w3.org/2000/svg" xmlns:xlink="http://www.w3.org/1999/xlink" x="0px" y="0px"
	 viewBox="0 0 56 56" style="enable-background:new 0 0 56 56;" xml:space="preserve">
<style type="text/css">
	.st0{fill:#FDC414;}
</style>
<polygon id="Togo" class="st0" points="28.3,3.4 18.1,0.8 17.4,0.8 18.1,3.4 18.7,4.6 19.4,5.9 21.3,7.8 21.9,9.1 24.5,11.1 
	23.8,13.6 23.8,17.5 24.5,18.1 25.8,18.1 25.8,22 25.1,23.3 25.1,24.5 25.8,25.8 26.4,27.7 25.1,29 25.8,30.3 25.8,33.5 26.4,35.4 
	27.1,41.2 25.8,43.2 25.8,44.4 25.1,47 25.8,49.6 26.4,52.1 27.7,52.8 29,54.1 29.6,55.3 30.9,55.3 36,52.1 37.3,52.1 37.3,50.2 
	36,47.6 36,45.1 35.4,42.5 35.4,30.3 36,28.4 36.7,27.1 36.7,25.2 36,23.3 36,20.7 35.4,16.2 33.5,11.1 32.2,10.4 30.9,9.1 
	28.3,7.8 27.7,4.6 "/>
</svg>
