<?xml version="1.0" encoding="utf-8"?>
<!-- Generator: Adobe Illustrator 19.2.0, SVG Export Plug-In . SVG Version: 6.00 Build 0)  -->
<svg version="1.1" id="Layer_1" xmlns="http://www.w3.org/2000/svg" xmlns:xlink="http://www.w3.org/1999/xlink" x="0px" y="0px"
	 viewBox="0 0 56 56" style="enable-background:new 0 0 56 56;" xml:space="preserve">
<style type="text/css">
	.st0{fill:#FDC414;}
</style>
<path id="Thailand" class="st0" d="M21.2,0.3l0.4,0.9L22.6,1l0.7,0.9L23.4,3L23,3.4l0.4,0.9l0.4,0.2l0.7-0.4h1.3v0.7l-0.4,0.9
	l0.4,0.7v0.4l-0.4,0.4l0.2,0.9v1.1V11l0.9-0.4l0.9-0.2V9.7l1.1-0.4l1.1,0.7h0.7l0.7,0.7l1.6-0.2l0.7-1.6l1.1-0.2L36,9l0.4,1.1
	l1.6,1.1l0.9,0.7l0.4,0.7l-0.2,0.7l-0.2,0.4l0.4,0.9v0.9L39.1,16l0.7,0.4l0.7,0.9h0.7l0.7,0.2L41.6,18l0.9,0.7l0.2,0.4L42.5,20v0.4
	l-0.2,0.2l0.2,0.4v1.3L42,22.9l-0.9,0.4l-0.7-0.4l-0.9,0.2l-0.7-0.2h-0.7l-0.9,0.4l-0.2-0.2H36l-1.6,0.4h-0.7l-0.7,1.1l-0.2,1.1
	l-0.7,0.9V28l0.2,1.3l0.7,0.2l0.2,0.7v1.3v0.4h-0.2v0.4h-0.2v-0.2l-0.7-0.7h-0.2v-0.2l-0.4-0.2l-0.9-0.9l-0.4-0.2l-0.4,0.2v0.2v0.2
	l-0.2-0.2l-0.7-0.2l-0.7,0.2l-0.4-0.2h-0.4l0.2-0.4l0.2-0.2l-0.2-0.4v-0.9l0.2-0.2l-0.2-0.4l-0.7-0.2h-0.2h-0.2l-0.2-0.2l-0.4,0.2
	h-0.4L25,27.1l-0.2,0.2h-0.4h-0.2v0.2L23.9,28l0.7,0.2v0.7l-0.4,0.7v0.7l-0.2,0.4l0.2,0.2v0.9l-0.4,0.7v0.7l-0.4,0.7L23,36.5
	l-0.9,1.1v0.7L21.9,39h0.4v0.2l-0.2,0.4v0.2l0.2,0.7V41l0.7,0.9l-0.4,0.7l0.2,0.2h0.4v-0.2l0.4-0.4l0.2,0.2h0.4l0.2,0.2v0.7l0.2,0.4
	v0.7l0.4,0.2l0.4,0.7h0.4v-0.4v-0.2l0.2,0.4l0.4,0.7v0.7l0.2,0.2l0.2,1.3L27,48.2l-0.2,0.2l-0.2-0.2l-0.4,0.4v0.4l1.1,0.4l0.2-0.4
	l0.2,0.2V50l0.4,0.4l0.9,0.9l0.4,0.2l0.2-0.2h0.7l0.7,0.2l0.4,1.1l0.4,0.4l0.7,0.4V54l-0.2,0.2v0.7l-0.4,0.4l-0.4-0.4h-0.7l-0.9,0.7
	L29,55.3v-0.4l0.4-0.4v-1.1L29,52.9h-0.7l-0.2-0.4l-0.9-0.2l-0.7-0.7l-0.4,0.7l-0.2,0.9l-0.2-0.4l-1.6-1.1v-0.2l0.2-0.4v-0.4h-0.4
	l-0.2-0.7H23v-0.4l-0.9-1.1h-0.4l-0.4-1.3h-0.7v-0.4l-0.4-0.2v-0.4l-0.7,0.2v0.7H19l-0.2-0.4L18.5,45l0.2-0.2v-1.1l0.4-0.2v-1.3h0.4
	l0.2-0.4h-0.4l0.4-0.7l-0.2-0.2l0.4-0.7h-0.4l0.2-1.1l0.2-0.4l0.2-0.4v-0.9l0.7-0.4l0.9-2.2l0.4-0.2v-1.1l-0.4-0.9v-1.1l-0.2-0.7
	l-0.2-1.1L21,28.9v-0.7l-0.2-0.7l0.2-0.7l-0.4-1.6l-0.9-0.9l-1.1-0.9l-0.9-1.1v-0.7l-0.4-1.1l0.7-0.4v-0.4L17.4,18l0.2-0.4l0.7-0.4
	v-0.7L17.6,16l-0.2-0.7L17,14.4l-0.4-0.2l-0.9-1.8l-0.9-0.7l-0.2-0.4l-0.4-0.4l-0.7-1.1l-0.4-0.2V9l0.9-0.4l0.7-0.4l-0.2-0.7V6.4
	l0.4-0.4l-0.2-1.1L15,4.1l1.3,0.4l0.9-0.7h0.7l0.2-0.4V2.5l0.4-0.4l0.9,0.2l0.2-0.4l-0.4-0.4V1l0.9-0.2L21.2,0.3L21.2,0.3L21.2,0.3z
	 M23.2,52l0.2,0.7h0.2v-0.4L23.2,52L23.2,52L23.2,52z M21,48.6l0.2,0.7v-0.4L21,48.6L21,48.6L21,48.6z M18.5,46.8l-0.2,0.4l0.2,0.2
	v0.7l0.4-0.7v-0.9C19,46.8,18.5,46.8,18.5,46.8L18.5,46.8z M31.3,31.6v0.7l0.4,0.4h0.4L31.3,31.6L31.3,31.6z M24.3,40.3l-0.7,0.2
	l0.4,0.2L24.3,40.3L24.3,40.3z M24.6,41l-0.4,0.2v0.4l0.4,0.4l0.2-0.7L24.6,41z"/>
</svg>
