<?xml version="1.0" encoding="utf-8"?>
<!-- Generator: Adobe Illustrator 19.2.0, SVG Export Plug-In . SVG Version: 6.00 Build 0)  -->
<svg version="1.1" id="Layer_1" xmlns="http://www.w3.org/2000/svg" xmlns:xlink="http://www.w3.org/1999/xlink" x="0px" y="0px"
	 viewBox="0 0 56 56" style="enable-background:new 0 0 56 56;" xml:space="preserve">
<style type="text/css">
	.st0{fill:#FDC414;}
</style>
<polygon id="Turkmenistan" class="st0" points="55.4,35 55.2,33.4 55.2,32.2 54,31.2 53.2,31.4 52.7,31 50.8,30.5 48.2,28.8 
	45.3,27.6 42.9,25.7 40.5,24.2 39,23.5 38.3,22.1 37.8,21.1 37.1,20.4 36.6,18.2 34.9,17 34.2,17 33.5,17.2 31.3,16.3 28.5,14.6 
	28.2,13.9 26,12.4 23.4,11.2 21.7,11 22.4,12 22,12.2 21,11.7 20.3,12.2 19.6,13.2 18.3,13.4 17.6,14.8 17.9,16.3 18.6,17 
	18.1,17.7 16.7,17.5 14.3,17.7 12.8,18.2 10.4,15.3 7.5,13.6 5.1,13.4 3.4,14.1 1,16 1,16.5 1.5,17 1.8,17.5 2.5,18 2.7,18.7 
	3.4,19.9 3.4,21.1 3,21.8 3,23.7 3.4,24.5 3.7,24.9 4.9,26.1 4.9,25.7 4.4,25.2 4.6,24.9 5.8,25.2 6.3,24.7 6.6,24.9 6.6,25.9 
	6.6,26.6 7,26.4 7.5,27.1 7.5,27.4 6.8,27.1 6.3,27.4 6.1,27.1 5.4,27.6 5.4,28.3 5.8,28.8 5.6,28.1 6.1,27.8 6.6,28.1 7,28.3 
	7.5,29 8.5,29.5 8.7,30.2 8.7,31.2 8.7,31.9 8.7,33.8 9,35 9.7,37 10.7,36.5 12.3,36.5 12.8,35.5 13.3,34.8 13.8,34.8 15.5,33.4 
	16.9,33.1 18.3,33.4 18.6,32.6 19.6,32.4 20.3,32.6 21,32.6 22.4,33.6 23.6,34.1 25.8,35.5 26.3,35.3 27,35 28.5,35.5 29.2,35.8 
	29.4,37 29.9,37.2 30.6,37 32.1,37.2 33.5,39.4 35.2,39.6 36.1,39.9 36.9,41.1 36.6,41.5 36.9,42.5 36.9,43 37.1,43.7 37.6,43.5 
	38.3,43.7 39,44.2 39.5,44.2 40,43.7 40.7,43.7 41.7,44.4 41.7,44.9 42.2,45.2 42.4,44.9 43.6,44.7 44.1,43.9 44.3,43.5 44.8,43 
	44.6,42.5 45.8,42 47.2,41.5 47.2,41.3 47.9,40.8 48.4,40.6 48.7,39.6 48.7,38.7 49.6,37.7 49.6,37 49.4,36.7 49.4,36.3 49.6,36 
	50.1,35.8 51.1,35.5 51.3,35.5 52.5,34.8 53.5,34.6 54.2,34.8 54.9,34.8 "/>
</svg>
