<?xml version="1.0" encoding="utf-8"?>
<!-- Generator: Adobe Illustrator 19.2.0, SVG Export Plug-In . SVG Version: 6.00 Build 0)  -->
<svg version="1.1" id="Layer_1" xmlns="http://www.w3.org/2000/svg" xmlns:xlink="http://www.w3.org/1999/xlink" x="0px" y="0px"
	 viewBox="0 0 56 56" style="enable-background:new 0 0 56 56;" xml:space="preserve">
<style type="text/css">
	.st0{fill:#FDC414;}
</style>
<path id="Tunisia" class="st0" d="M27.3,55.7h0.9l0.4-0.4l0.9-0.9l0.9-1.3l0.4-0.4v-0.4l0.4-0.4V50l-0.9-2.2l0.4-0.9V46l0.9-0.9h1.8
	l1.3-1.8v-0.9l3.9-2.6l1.3-2.2l-0.4-0.4l-0.4-2.6l0.4-0.4h-0.9l-2.2-1.3V32v-0.9l-0.9-0.4l-0.4,0.4v0.4L34.7,32l-0.9-0.4l-0.4-0.9
	h-0.9l-2.2-1.3l-0.9-2.2l0.9-2.2l3.5-2.2l2.2-2.2l0.4-0.4l-0.4-0.9l0.9-0.9l-0.4-0.9l-0.4-0.4v-2.2L33.9,14l-1.8-2.2l0.4-1.8
	l1.8-1.3V7.4l1.3-2.2V3.9l-0.4-0.4l-2.6,2.2l-0.9,0.9l-0.9-0.4l-0.9-2.2L29,3.5V2.1l-0.9-0.9l-1.3,0.4v0.9L26,1.7l-1.8,0.4l-2.6,1.3
	l-1.8,1.8l0,0l-0.4,0.9L19.8,7l-0.4,2.2v2.2l-1.3,3.1l0.4,1.8l0.9,0.9v0.4l-0.4,0.4l-0.4,0.9l0.9,0.9l-0.9,0.9l-0.4,2.6l-0.9,0.4
	l-0.4,0.9L15.9,25l-1.8,1.8l-0.9,3.5l0.4,0.4l0.9,1.8l-0.4,0.9l0.9,1.3l0.9,0.4l1.8,1.8l0.4,1.8l1.8,0.9l0.9,0.9l0.9,0.4l1.8,1.8
	L27.3,55.7L27.3,55.7z M33.4,29.8L33.4,29.8l1.3-0.4l0.4,0.4l-0.9,0.9L33.4,29.8z"/>
</svg>
