<?xml version="1.0" encoding="utf-8"?>
<!-- Generator: Adobe Illustrator 19.2.0, SVG Export Plug-In . SVG Version: 6.00 Build 0)  -->
<svg version="1.1" id="Layer_1" xmlns="http://www.w3.org/2000/svg" xmlns:xlink="http://www.w3.org/1999/xlink" x="0px" y="0px"
	 viewBox="0 0 56 56" style="enable-background:new 0 0 56 56;" xml:space="preserve">
<style type="text/css">
	.st0{fill:#FDC414;}
</style>
<path id="Turkey" class="st0" d="M1.6,21.4l0.6-0.2l0.4-0.8l-0.2-0.6l0.8-0.4v-0.8l-0.6-0.2l0.2-0.8l0.4-0.6h0.4l0.4-0.4h0.9
	l0.8,0.6L6,17.1l0.6,0.2v1.1l0.9,0.8H8l0.8,0.8l0.6,0.4v0.4l-0.6,0.6H8L7.7,21H6.9l-0.2,0.2H5.8l-0.6,0.2l-0.4,0.8l-1.5,0.8L2,24
	v-0.4l0.4-0.9h0.4l0.6-0.4H2.8l-0.4-0.2H2l-0.4-0.4V21.4L1.6,21.4L1.6,21.4z M44.9,17.8L44.7,18l-0.4,0.8l-0.8,0.4l-0.9,0.6
	l-0.2,0.4h-0.9l-0.4,0.4L40,20.3l-0.4-0.2h-0.4l-0.2-0.2l-0.6,0.2h-1.1L36,20.6l-0.9-0.2l-0.8-0.4L34,20.3l-1.1-0.6h-0.6l-0.9-0.8
	H31l-0.2,0.4l-0.6-0.2l-0.6-0.8l-0.2-0.8l-0.4-0.4h-0.4L28,18l-0.2-0.2L27.6,18l-1.1-0.9v-0.6h-0.2l-0.8,0.4h-0.9l-0.4-0.2l-0.6,0.2
	h-1.5l-0.8,0.2l-1.3,0.6h-0.6l-1.1,0.2L18,18.2l-0.6,0.2l-0.6,0.6l-0.2,0.2l-0.4,0.8l-0.2,0.2v0.4H15l-1.5-0.6h-0.6l-0.4,0.2
	L12,19.9L11,20.1l-0.4-0.2l-0.8,0.2l-0.2,0.4l0.6,0.9H11l0.8,0.2l-0.2,0.4h-1.1l-1.1,0.4L9,22.9l0.2,0.4l0.6-0.2l0.2,0.4l-0.4,0.2
	H8.2l-0.6-0.4l-0.8,0.4l-0.4-0.6H6.2l-0.6,0.6H5l-0.8-0.6H3.5L2.2,24L2,24.6l-0.2,0.6L2,25.5v0.6l-0.2,0.2L2,26.6l0.8-0.2H3l0.6-0.2
	h0.8l-0.8,0.6v0.4l0.4,0.4V28v0.2l0.2,0.2L4.6,28v0.4l-0.4,0.4l-0.8,0.4l0.2,0.2h0.4l-0.4,0.2L3.5,30H3.1l-0.4-0.8l-0.2-0.2
	l-0.2,0.6l0.2,0.6l-0.2,0.4V31L3,31.3l0.2-0.2l0.6,0.6h0.4l0.8,0.4L5,32.9l-0.4,0.4L5,33.6V34h0.4l0.8,0.8L6,35.1l-0.4-0.2l-0.2,0.4
	l0.4,0.2l0.9-0.2H8v0.2l-0.4,0.4L7.1,36H6.2L6,36.4h0.4l0.6-0.2h0.6L7.8,36v0.4L8,36.6l0.4-0.4l0.4-0.6h0.4L9.5,36h0.4l0.6,0.4
	l0.2-0.4H11v0.4l-0.2,0.2L11,37v0.4l0.6,0.6l0.2-0.2l0.8,0.2l0.8-0.2l0.4-0.2h0.6l0.4-0.4l0.6,0.2l0.4-0.2v-0.8l0.2-0.4l-0.2-0.6
	l1.3-0.2H18l1.5,0.8h0.6l0.9,1.3l0.8,0.6l2.6-0.4l0.8-0.4h0.2l0.2,0.2l0.4-0.2l0.2-0.6l1.3-1.5h0.4l1.1,0.4l0.8,0.4l0.9-0.2v-0.2
	l0.6-0.4l0.6,0.2v0.4l-0.4,0.8l-0.6,0.4v0.4l0.6,0.6l-0.2,0.4l0.6,0.2l0.6-0.2l0.6-0.2v-0.8l0.4-0.2v-1.1l0.2-0.4l0.9,0.2l0.6,0.2
	l1.5-0.6h0.4l0.4-0.2l1.5-0.2l0.6,0.2l0.4,0.2l0.9,0.2h1.3l0.2-0.2l0.8-0.2l0.4-0.6l1.1-0.4h0.8l0.6-0.2h1.5l1.1-0.4H49l0.2,0.2
	L50,33h0.8l0.4-0.2h1.1l0.9,0.2l0.8-0.2l0.4,0.2v0.6l0.6,0.2l0.6-0.2l0.2-0.6l-0.2-0.8l-0.6-1.1l-0.8-0.4v-0.4v-0.9l0.4-0.9
	l-0.2-0.4h-0.8v-0.8v-0.6l-0.2-1.1L53,25.1v-0.4h0.8l0.4-0.8l0.4-0.2l-0.4-0.6l-0.6-0.6h-0.8h-0.9l-0.9-0.6V21l0.2-0.9l-0.4-0.6
	l-0.6-0.2v-0.4l-0.6-0.6L49,18.2l-1.3-1.1l-0.6-0.2l-0.4,0.4h-0.4l-0.8-0.4l-0.2,0.4l-0.4-0.2l-0.2-0.6V17.8L44.9,17.8z M7.3,36.8
	l0.2-0.2h0.2v0.2H7.5H7.3L7.3,36.8z M0.7,23.6l0.4,0.2l0.6-0.2v-0.4l-0.2-0.2l-0.4,0.2H0.7C0.7,23.3,0.7,23.6,0.7,23.6z"/>
</svg>
