<?xml version="1.0" encoding="utf-8"?>
<!-- Generator: Adobe Illustrator 19.2.0, SVG Export Plug-In . SVG Version: 6.00 Build 0)  -->
<svg version="1.1" id="Layer_1" xmlns="http://www.w3.org/2000/svg" xmlns:xlink="http://www.w3.org/1999/xlink" x="0px" y="0px"
	 viewBox="0 0 56 56" style="enable-background:new 0 0 56 56;" xml:space="preserve">
<style type="text/css">
	.st0{fill:#FDC414;}
</style>
<polygon id="Tanzania" class="st0" points="7.1,3.2 7.4,2.6 8,2.9 8.3,2.3 13.9,2.3 23.3,1.7 40.4,11.7 41.3,13.2 41,13.8 
	41.3,14.4 41.6,14.7 47.5,18.8 47.2,18.8 47.5,19.1 47.5,20 47.2,20.3 46.3,23.5 45.4,25.3 45.4,26.5 46.9,27.6 47.7,28.5 
	48.3,28.5 48.9,30.3 48.6,30.9 48.3,30.6 47.7,30.9 47.5,32.1 47.7,33.8 48.3,34.4 48,35.6 47.5,36.2 47.7,37.1 48.3,38.2 48,38.5 
	48.3,39.1 48.3,40 48.9,40.3 48.6,41.2 48.9,41.8 49.5,43 49.2,43.8 51,45.3 52.2,45.6 53.1,46.2 53.1,46.8 53.3,46.8 53.1,46.8 
	52.8,47.4 51.9,47.1 51.3,48 50.7,48.6 49.5,48.6 48.9,49.1 48,49.4 47.5,49.7 46.9,50 46.3,49.7 44.5,50.3 43.9,50.6 43,50.6 
	42.4,50.3 41.9,50.3 41,50 40.7,50.3 41,50.9 40.7,51.8 39.2,51.8 38.3,52.1 37.7,51.8 37.1,51.8 37.1,51.5 36.6,51.2 36.3,51.5 
	35.7,51.8 34.8,52.4 33.3,52.7 33.6,52.4 33,51.8 32.4,51.8 31.8,51.5 31.3,51.2 31.3,50.9 30.7,50.9 30.4,51.2 29.5,51.5 
	25.1,51.5 24.2,54.7 24.5,47.1 24.2,45.3 22.7,43.5 22.1,43 21.5,42.7 21.2,42.4 21,42.4 20.7,42.1 20.1,42.1 19.8,42.4 19.8,42.1 
	19.2,41.8 18.9,41.5 18.3,41.2 18.3,41.5 18.3,41.5 17.7,41.5 16.8,40.6 16.5,39.7 15.9,39.7 15.7,39.1 15.1,39.1 13,38.5 
	12.1,38.5 11.5,37.9 11.5,37.7 10.9,37.1 10.4,37.1 9.8,36.8 9.2,36.8 7.4,36.2 6.5,32.4 3.3,27.9 2.1,22.6 1.5,18.5 3.9,18.5 
	5.3,18.2 6.2,17 7.4,15.9 7.7,15.3 8.6,14.7 9.2,13.8 9.2,13.2 9.2,11.7 8.6,11.7 8.3,11.2 7.7,10.9 7.7,10.3 7.4,9.7 7.4,9.4 
	7.4,9.7 8,9.7 8.6,9.4 8.9,9.1 9.2,8.5 9.5,7.6 9.2,6.7 8.9,5.6 8.3,5 8.3,4.4 7.7,3.8 "/>
</svg>
