<?xml version="1.0" encoding="utf-8"?>
<!-- Generator: Adobe Illustrator 19.2.0, SVG Export Plug-In . SVG Version: 6.00 Build 0)  -->
<svg version="1.1" id="Layer_1" xmlns="http://www.w3.org/2000/svg" xmlns:xlink="http://www.w3.org/1999/xlink" x="0px" y="0px"
	 viewBox="0 0 56 56" style="enable-background:new 0 0 56 56;" xml:space="preserve">
<style type="text/css">
	.st0{fill:#FDC414;}
</style>
<polygon id="Ukraine" class="st0" points="3.7,14 4.2,14 5.3,14.7 5.9,14.2 8.3,14 9.4,13.8 10,13.4 10.4,13.4 11.3,13.8 13.2,14 
	14.1,14.5 14.3,14.9 15.4,14.5 16.1,14.9 16.5,14.9 16.7,14.7 17.8,14.7 18.2,14.9 19.3,14.2 20.2,14.5 20.4,15.1 20.8,15.3 
	21.5,14.5 22.3,14.5 22.7,14.9 23.8,14.7 24.3,15.1 25.1,14.9 25.1,13.8 25.6,12.5 26.6,12.5 28.1,12.1 28.8,12.3 29.4,12.1 
	29.4,11.4 29.9,10.8 31.6,11.4 33.3,11.4 34.2,11 35.1,11 35.5,12.5 36.1,13.2 35.9,14 36.8,15.1 38.7,14.9 39.4,15.5 39.4,16.2 
	40,16.2 40,17.3 40.5,18.3 42,19.9 42.6,19.2 43.5,19.6 44.3,19.4 45,19.6 46.3,18.8 46.7,18.6 47.6,20.3 48.4,20.9 48.9,21.6 
	49.3,21.1 50.6,21.4 51.5,21.4 52.1,21.8 52.8,21.6 53.6,22.2 54.7,22.4 55.1,21.8 55.6,22.7 56,22.9 56,24 55.4,24.6 54.7,24.8 
	54.5,26.1 55.6,27 55.6,27.8 55.1,29.1 55.4,30 54.7,30.4 53.2,30.4 52.3,31.7 51.9,31.9 51.7,33.5 51,33.7 51,33.5 50.6,33.2 
	49.7,33.7 48.9,33.7 48.4,33.9 48.2,34.5 47.6,34.5 47.1,35.2 46.5,35.8 46.3,35.8 45.4,35.8 45,36.3 44.1,36 43.3,36.5 42.8,36.5 
	42.4,35.6 42.2,35.6 42.4,36 42.8,36.7 42.6,37.1 42,38 41.5,38.2 41.3,38 41.5,37.8 42.2,37.1 42.2,36.7 41.7,36.5 41.7,36.9 
	40.7,38 40,38.2 39.8,38.4 39.2,38.4 38.7,38.2 38.3,38.6 37.6,38.4 37.4,38.6 37.9,39.1 38.9,38.9 39.4,39.3 39.8,39.7 40.2,39.5 
	40.5,39.7 40,40.1 40,40.6 40.5,40.4 40.7,40.4 40.7,40.8 41.1,40.6 41.3,40.8 41.5,41.4 42,41.9 42.6,42.1 43,41.9 42,40.8 
	40.7,39.5 40.5,38.6 40.7,38.4 41.1,39.1 41.3,39.9 43,41.9 43.5,41.9 43.9,41.4 44.3,41.2 45,41.7 45.2,41 46.3,41 47.4,41 
	46.9,41.4 46.7,41.7 46.9,42.3 46.5,42.7 45.4,43 44.1,42.7 43.3,43.2 42.6,43.8 41.5,43.8 40,45.1 38.9,45.5 37.6,45.5 37,45.1 
	37.2,44.9 37.6,43.6 37.6,43.2 36.6,42.3 36.1,42.3 35.5,41.9 34.8,42.3 34.4,42.1 35.1,41 36.1,40.4 37.2,40.1 37.4,39.9 
	37.2,39.5 37,38.6 36.6,38.4 36.4,39.1 35.9,38.6 35.1,38.4 34.2,38.4 33.5,38.9 32.9,38.4 32.5,38.4 32,38 32.2,37.8 32.5,37.6 
	31.6,37.1 30.3,37.1 29.9,36.9 30.7,36.9 31.8,36.7 32.5,36.9 32.9,36.7 33.8,36.3 32.7,36.5 32,36.3 31.8,36 31.4,35.6 31.2,36 
	31,36.5 30.3,36.5 30.3,36.3 29.9,35.8 29.2,36.7 28.6,36.7 27.9,37.1 27.9,38 27.3,38.9 26.9,38.9 27.1,39.3 25.8,40.8 25.3,40.8 
	25.1,40.4 25.1,41 25.1,41.2 25.3,41.7 25.3,42.3 25.3,42.3 24.7,41.9 23.6,41.9 23.2,42.3 21.9,42.3 20.8,42.1 20.4,41.2 
	20.8,40.8 21.5,41 21.5,40.4 22.1,39.3 22.3,39.3 22.3,38.4 22.5,37.1 23.2,37.1 24,36.9 24.5,37.3 25.6,37.3 25.8,36.9 25.3,36.5 
	25.3,35.8 25.3,35.2 24.3,34.5 23.4,33.9 23.4,33.5 22.5,33 22.7,32.4 22.5,31.1 21.7,30.6 20.6,29.6 20.2,29.6 20.2,30 18.9,29.8 
	18,28.9 17.1,28.9 16.5,28.1 16.3,28.5 15.6,28.5 15.4,28.7 14.8,28.3 14.5,28.5 13.9,28.3 14.1,29.4 14.1,29.6 14.1,30.4 
	13.2,30.6 12.6,31.1 10.2,31.5 9.8,32.2 8.9,32.2 7.8,32.6 7.2,32.2 7,31.7 6.1,31.3 5,31.3 3.7,30.4 3.1,30.4 2.7,30.9 2,31.1 
	1.8,30.4 0.9,29.8 0.3,29.1 0.3,28.9 0.5,27.8 1.2,26.3 1.8,26.3 1.8,25.3 1.8,24.4 3.7,22 4.2,21.1 4.6,20.5 5.3,20.5 5.3,19.4 
	5,19 5,18.6 5.3,18.1 4.4,17.7 4.2,16.6 3.7,16.2 3.5,14.7 "/>
</svg>
