<?xml version="1.0" encoding="utf-8"?>
<!-- Generator: Adobe Illustrator 19.2.0, SVG Export Plug-In . SVG Version: 6.00 Build 0)  -->
<svg version="1.1" id="Layer_1" xmlns="http://www.w3.org/2000/svg" xmlns:xlink="http://www.w3.org/1999/xlink" x="0px" y="0px"
	 viewBox="0 0 56 56" style="enable-background:new 0 0 56 56;" xml:space="preserve">
<style type="text/css">
	.st0{fill:#FDC414;}
</style>
<polygon id="Uganda" class="st0" points="41.9,39.8 42.5,37.5 44.2,35.8 44.8,34.1 46.5,32.4 47.1,30.6 48.2,30.1 48.2,28.9 
	51.1,28.9 51.6,26.6 51.6,25.5 53.9,23.2 54.5,21.5 53.4,19.2 52.2,18 53.4,16.9 52.2,16.3 51.1,15.7 49.9,12.8 47.6,11.1 47.6,9.4 
	47.1,7.1 45.9,7.1 45.9,5.4 45.3,4.8 44.8,2.5 43.6,1.4 41.3,3.1 40.2,4.2 38.4,5.4 36.1,4.8 33.3,4.8 31,6 29.8,6 28.7,6 28.1,6 
	27,7.1 27,8.3 25.8,8.3 23.5,7.7 23.5,6.5 21.8,6 20.7,6.5 17.8,5.4 16.1,4.8 15.5,6 14.9,7.1 15.5,7.7 15.5,8.3 15.5,8.3 14.9,10 
	13.8,11.1 13.8,13.4 13.8,16.9 13.2,19.2 14.3,19.7 14.9,20.9 16.1,22.6 15.5,23.2 10.9,29.5 8,32.9 7.5,34.1 4,40.4 3.4,41.5 
	3.4,43.8 2.9,47.3 1.7,50.1 2.3,52.4 1.7,53 2.3,53 3.4,53 5.2,51.9 6.3,51.9 6.9,53 8,53 8.6,51.9 8.6,50.7 10.3,50.7 10.3,51.3 
	10.9,50.1 12,50.7 12.6,49.6 20.1,49.6 20.7,49.6 27,49.6 39.6,49 "/>
</svg>
