<?xml version="1.0" encoding="utf-8"?>
<!-- Generator: Adobe Illustrator 19.2.0, SVG Export Plug-In . SVG Version: 6.00 Build 0)  -->
<svg version="1.1" id="Layer_1" xmlns="http://www.w3.org/2000/svg" xmlns:xlink="http://www.w3.org/1999/xlink" x="0px" y="0px"
	 viewBox="0 0 56 56" style="enable-background:new 0 0 56 56;" xml:space="preserve">
<style type="text/css">
	.st0{fill:#FDC414;}
</style>
<path id="United_States_of_America" class="st0" d="M4.8,12.6l25.7,2.6h0.2H31l0.3,0.2v0.1l0.1,0.1l0.1,0.1l0.2,0.1l0.1,0.1l0.2,0.1
	L32,16H32l0.2-0.1l0.1,0.1h0.2l0.3,0.2h0.1l0.1,0.3l0.3,0.1l0.2,0.1l0.1,0.1l0.1,0.1h0.3l0.1-0.1l0.1,0.1l0.1,0.2h0.4L35,17l0.3,0.1
	l0.1,0.1l4,1.8l0.3,0.3l0.6,0.5l0.6,3l-0.1,1.3l-0.1,0.3l-0.1,0.2l-0.1,0.2L40,25.1l-0.2,0.3l0.2,0.3l3.4-0.9l0.4-0.1l0.1-0.5
	l1.9-0.6l0.8-0.6l0.2-0.1l0.3-0.1l0.4-0.4l0.2-0.2L48,22l0.2-0.2l0.3-0.1l2.9,0.1l0.3-0.2h0.1l0.1-0.1h0.1l0.2,0.1l0.1-0.1l0.1-0.1
	l0.3-0.3l0.1-0.1l0.3-0.3l0.1-0.3l0.1-0.3l0.3-0.1v-0.2l0.2-0.3l0.4-0.4l0.1-0.1l0.2-0.2h0.1l0.1,0.1l0.1,0.1l0.2-0.1l0.3,0.1
	l0.1-0.1l0.4,0.4v0.3L55.2,21l-0.1,0.1h0.1l0.1,0.1l0.1,0.1v0.2v0.1v0.1l-0.1,0.1l0.1,0.1l0,0l0,0l0.4,0.2l-0.1,0.3l0.1,0.1l0.1-0.1
	l0.2,0.1l-0.1,0.2h-0.2l-0.1-0.1l-0.3,0.1h-0.1l-0.2,0.1l-0.1,0.1l-0.1-0.1L54.6,23h-0.1l-0.1-0.3h-0.3L54,23h-0.2l-0.1-0.1l0.1-0.2
	L53.5,23l-0.2,0.3l-0.1,0.1l-0.1-0.1L53,23.5h-0.1v-0.2l-0.1,0.2l-0.1,0.1l-0.1-0.1v-0.1l-0.1,0.2h-0.1l-0.1,0.3l-0.4,0.3l-0.1,0.4
	l-0.1,0.1l-0.1,0.1l-0.1,0.1v0.1h0.1v0.1l-0.4,0.3v0.1l0.3,0.1l0.1,0.3v0.2h0.3l0.1-0.3v-0.2H52l0.1,0.3l-0.1,0.2l-0.4,0.3l-0.1-0.1
	v-0.1l-0.1-0.2l-0.2,0.3l-0.2,0.2h-0.1v-0.1v-0.2l-0.2-0.2v0.3v0.3l0.1,0.1l-0.1,0.1h-0.4l-0.3,0.1l-0.2-0.1h-0.4l-0.1-0.1h-0.1
	l-0.3,0.3h-0.2l-0.3,0.2l-0.2,0.1l-0.2,0.1v0.1l-0.3,0.1l0.1,0.1l0.1,0.1V28l-0.1,0.1v0.1l-0.1,0.2v0.1l-0.1,0.1l-0.1,0.2h-0.1
	l-0.1,0.1l-0.1,0.3l-0.1,0.1l-0.1,0.1H47v0.1l-0.1,0.2v-0.1l-0.1,0.1l0.1-0.3l-0.1-0.1l-0.1,0.1l-0.3-0.3l-0.1-0.1l0.1-0.1l0.3-0.4
	l-0.2,0.1l-0.2,0.2l-0.1,0.2v0.2l0.1,0.1v0.3l0.1,0.1l0.1,0.3v0.3l-0.2,0.4l-0.3,0.1l-0.1,0.4L46,31.4v0.1l-0.1,0.1v-0.1v-0.1
	l-0.2,0.4v0.1L45.7,32v-0.2l0.1-0.2l0.1-0.2v-0.1l0.1-0.1L45.8,31l0.2-0.1h-0.3l-0.1-0.1l0.1-0.1v-0.1h-0.1v-0.1l-0.1,0.1l-0.2-0.2
	v-0.2l0.1-0.2l0.1-0.3l-0.1-0.3l0.1-0.2l0.2-0.1l-0.1-0.1l0.1-0.2L45.8,29V29l-0.1,0.2l-0.2,0.1l-0.1,0.1h-0.1l0.1,0.1l-0.1,0.1V30
	l0.1,0.1v0.1v0.2v0.4h-0.1l-0.3-0.3h-0.2l-0.1-0.3h-0.1l-0.1-0.1l0.1-0.2l-0.1,0.2v0.2l0.1,0.1l0.1,0.2l0.3,0.1l0.3,0.3l0.1,0.1v0.2
	l-0.1,0.2h-0.1l-0.1-0.2l-0.1-0.1l0.1,0.3l0.2,0.1l0.1,0.1l-0.1,0.1v0.1l-0.2-0.1l0.3,0.2L45.4,32l-0.1-0.1l-0.1-0.2h-0.3l-0.2-0.1
	l0.1,0.2l0.2,0.1h0.1l0.1,0.3l0.2,0.1l0.1-0.1l0.1,0.1l0.1,0.2l-0.1,0.2l-0.1-0.1v0.1l0.1,0.1l0.1,0.2l-0.1,0.1h-0.1l-0.1,0.1
	l-0.3,0.1L45,33.3l-0.1-0.1L44.7,33l-0.1,0.1v0.3l-0.1,0.1l0.2-0.1l0.4-0.1l0.1,0.1v0.3l0.1,0.1v-0.1l0.1-0.2h0.1l0.1,0.2l-0.1,0.2
	h-0.1l-0.2,0.2l-0.1,0.1l-0.1,0.1L45,34.2h-0.1L44.8,34v0.1l-0.1,0.1l-0.1-0.1h-0.1l0.1,0.1l0.3,0.1l0.1,0.1l-0.1,0.1l0.1,0.1
	l-0.3,0.1l-0.2-0.1l0.1,0.1h0.3l0.2-0.2l0.1,0.1h0.1l-0.2,0.2h-0.2v-0.1h-0.1l-0.1,0.1h-0.3l-0.4,0.3l-0.5,0.4l-0.2,0.3h-0.1
	l-0.1-0.1l-0.3,0.1L42.4,36l-0.4,0.5v0.1l-0.1,0.1h-0.1v0.1L41.6,37L41.5,37h-0.1L41.3,37h-0.2L41,37.2l-0.3,0.1l-0.1,0.1h-0.2
	l-0.1,0.1h-0.3L40,37.5l0.1,0.1v0.2L40,38h-0.1l-0.1,0.1l-0.2,0.1l-0.2,0.3l-0.1,0.3v0.3l-0.1,0.6v0.3l-0.1,0.4l0.1,0.3l0.1,0.4
	l0.1,0.2l0.1,0.5l0.1,0.2l0.1,0.2l-0.1,0.3v0.3l0.1,0.1l0.1,0.6l0.2,0.1l0.1,0.3L40,44l0.1,0.1L40,44.5L40,44.5v0.2l-0.2,0.4
	l-0.1,0.3l-0.1,0.2v0.3l-0.2,0.1l-0.2,0.1L39,45.9l-0.1-0.4l-0.2-0.1l0.1-0.1l-0.3-0.2V45l-0.1-0.1h-0.2l-0.1-0.1v-0.3v-0.2L38,44.2
	V44l0.1-0.1l0.1-0.2l0.1-0.1l-0.2,0.1L38,43.7v0.1L38,43.8l-0.1-0.2h-0.1l-0.1-0.1l-0.1-0.1v-0.2L37.6,43l0.3-0.4v-0.2l-0.1-0.1
	l-0.1,0.1l0.1,0.1l-0.1,0.2l-0.1,0.1l-0.1-0.2v-0.1l0.2-0.4l0.1-0.4v-0.3l-0.1-0.3h-0.1L37.4,41v-0.1h-0.1l-0.1-0.1v-0.2h-0.1
	L37,40.5l-0.1-0.3l-0.3-0.1l-0.1-0.1l-0.2,0.1l-0.1,0.1v0.1l-0.1,0.1l-0.1-0.1l-0.3,0.3h-0.2l-0.3,0.1l-0.1-0.1v-0.1v0.1h0.1
	l-0.1-0.1l-0.1-0.1l-0.3-0.2h0.1l0.1,0.1l0.1-0.1l-0.2-0.1l-0.1-0.1h-0.1V40l0.1,0.1l-0.1-0.1l-0.1-0.1h-0.3l-0.3-0.1l0.1-0.1h0.3
	l0.1-0.1l-0.1-0.1h-0.2l-0.2,0.1l-0.1-0.1l-0.3,0.1l-0.1-0.1l-0.1,0.1h-0.3l-0.1,0.1L33,39.7v-0.1v-0.1h-0.1l-0.1,0.2l-0.1,0.1h-0.1
	l-0.1,0.1l-0.3-0.1l-0.6,0.1L31.5,40l-0.3,0.1L31,40.3v0.1l0.1-0.1l0.1-0.1h0.1l0.1,0.1l0.2,0.1l-0.1,0.1l-0.3,0.1v0.2l0.1,0.1
	l0.3,0.1l0.3,0.2v0.1l-0.1,0.1l-0.1,0.1v-0.2l-0.1-0.1h-0.1l-0.1-0.1L31.1,41L31,40.8h-0.2l0.1,0.2v0.3l-0.1,0.1l-0.1-0.1l-0.2-0.1
	l-0.1,0.1l-0.1,0.1L30,41.3l-0.1-0.1h-0.2l-0.1-0.1l0.1-0.1l0.1-0.1l-0.1-0.1h-0.2l-0.1-0.1v-0.1l-0.1-0.1l-0.1,0.1l-0.1-0.1
	l0.1-0.1L29,40.3l-0.2,0.1v0.1l0.1,0.1h-0.2l-0.6-0.1l-0.1-0.1l-0.4-0.1h-0.3l-0.3,0.1l-0.1,0.1h-0.1l-0.2,0.3h-0.3l0.1-0.2
	l-0.1-0.1l0.1-0.1l-0.1-0.2v0.1l-0.2,0.2h-0.1L26,40.3l0.1,0.3v0.2l0.1,0.2l-0.1,0.1h-0.4l-0.3,0.3l-0.4,0.2h-0.1l-0.2,0.1h-0.1
	l0.2-0.1l-0.1-0.1l-0.1,0.1l-0.1-0.1l-0.2,0.1l0.1,0.1l-0.2,0.1L24,41.8V42l-0.2,0.1L23.7,42l-0.2,0.3l0.1,0.1l-0.2,0.1l-0.1,0.1
	l0.1,0.4l-0.1,0.2l-0.1,0.3l-0.1,0.3l0.1,0.1v0.4l0.1,0.1l-0.1,0.2L23,44.9L23,44.9l-0.1-0.1l-0.2-0.1l-0.2-0.1l-0.3-0.1L22,44.3
	l-0.1-0.1h-0.1l-0.1-0.1l0,0L21.6,44v-0.3l-0.2-0.6v-0.1v-0.1v-0.2v-0.2l-0.2-0.2l-0.1-0.2l-0.1-0.2l-0.1-0.1L20.9,42l-0.1-0.1
	l-0.1-0.4l-0.1-0.1l-0.1-0.1v-0.3v-0.1l-0.1-0.1l-0.1-0.2l-0.1-0.3l-0.2-0.2L20,40.1l-0.1-0.1h-0.1L19.7,40l-0.1-0.1h-0.2h-0.2h-0.2
	L19,40.1h-0.1l0,0h-0.1l-0.1,0.1l-0.1,0.1l-0.1,0.3l-0.1,0.1v0.1v0.1h-0.1l-0.1,0.1v0.1L18.1,41H18L18,40.9l-0.2-0.1l-0.2-0.1v-0.1
	l-0.2-0.1h-0.1l-0.1-0.1v-0.1l-0.1-0.1L17,40.3H17l-0.1-0.1h-0.1v-0.1l-0.1-0.1l-0.1-0.2l-0.2-0.2v-0.1h0.1l0.1-0.1v-0.1l-0.1-0.1
	l-0.1-0.1h-0.1l-0.1-0.1V39l-0.1-0.1l-0.1-0.1L16,38.7l0.1-0.1v-0.1L16,38.5l-0.1-0.1l0.1-0.1l-0.1-0.1h-0.1v-0.1L15.6,38l-0.1-0.3
	l-0.2-0.1l-1.6-0.1v0.4l-2.8-0.1l-3.3-1.5l0.1-0.1l-0.1-0.1l-2.4,0.1v-0.2l0.1-0.3l-0.1-0.3L4.9,35l-0.3-0.3H4.5H4.4l-0.1-0.1v-0.2
	l-0.1-0.1L4,34.3H3.8l-0.3-0.1V34l-0.1-0.1H3.2H3l-0.1-0.1l-0.2-0.1H2.4l-0.1-0.1l-0.1-0.2h0.1l0.1-0.2l0.1-0.3l-0.1-0.2l-0.2-0.2
	v-0.1l0.1-0.1l-0.1-0.1L2,32.2l-0.2-0.4l-0.1-0.3l-0.1-0.1v-0.1V31l-0.1-0.2v-0.1h0.1l0.1-0.1v-0.1l-0.1-0.1l-0.1-0.1l-0.1-0.2
	L1.4,30v-0.1l0.1-0.2v-0.1l0.1-0.1v-0.1l0.1-0.1l0.1,0.1l0.1,0.2l0.2,0.1l-0.1-0.1l-0.1-0.1v-0.3l-0.1-0.1V29h0.1l0.1,0.1L2,29
	L2.2,29H2l-0.1-0.1H1.8v-0.1l-0.1,0.1l-0.1-0.1v0.3v0.2H1.5H1.5l-0.1-0.1L1.1,29l-0.1-0.1l0.1-0.1v-0.2l-0.4-0.6l-0.1-0.1l0.1-0.1
	l0.1-0.1v-0.2l-0.1-0.2v-0.1l0.1-0.2l0.1-0.3v-0.4l-0.1-0.4l-0.2-0.3v-0.3l0.1-0.3L1,24.9l0.1-0.3l-0.1-0.1v-0.1l0.1-0.1l0.1-0.3
	l0.1-0.4l-0.1-0.3v-0.1l0.1-0.1l-0.9-0.4v-0.3l0.1-0.4v-0.4l0.1-0.2l0.3-0.3L1,21.1L1.1,21l0.1-0.3l0.2-0.2l0.1-0.3l0.1-0.5l0.3-0.4
	l0.1-0.4l0.3-0.6L2.3,18l0.1-0.3v-0.1v-0.1l0.2-0.3v-0.1L2.7,17l0.1,0.1h0.3l0.1,0.1h0.1l0.2,0.1l0.1,0.3l-0.1-0.3l-0.1-0.1
	l-0.2-0.1L3,17H2.8L2.5,17v-0.1l0.1-0.1h0.1l0.1-0.1v-0.2l0.1-0.1l-0.1-0.1l-0.1-0.1l0.1-0.1h0.1L2.9,16v-0.1l-0.1-0.1v-0.1l0.1-0.3
	l-0.1-0.3l0.1-0.5l-0.1-0.4v-0.2l0.1-0.4v-0.2H3L3.4,14l0.3,0.1h0.4l0.1,0.1l0.1,0.2l0.1-0.1h0.1l0.1,0.1l-0.1,0.1l-0.2,0.1L4,14.8
	v0.1h0.1l0.1-0.1l0.2-0.2h0.1v0.1l-0.1,0.1l-0.1,0.3v0.3l-0.1,0.1v-0.1l-0.1,0.1L4,15.3l-0.1,0.2L4,15.7l0.2,0.1l0.2-0.1l0.1-0.2
	l0.1-0.1V15l0.1-0.1l0.1-0.3l0.2-0.1l0.2-0.2l-0.1-0.1v-0.1L5,14l0.1-0.1l0.1-0.1l-0.1-0.1v-0.2l0.2-0.1v-0.1l-0.2-0.1L4.8,12.6
	L4.8,12.6z M51.3,26.7L51.3,26.7l0.2,0.1l0.1-0.1h0.1l-0.1-0.1h-0.2L51.3,26.7L51.3,26.7L51.3,26.7z M48.4,27.5L48.4,27.5L48.4,27.5
	l0.1-0.1h0.2l0.2-0.1h0.3l0.1-0.1h0.3l0.1-0.1h0.1l0.3-0.1l0.1-0.1l-0.2,0.1l-0.1-0.1l-0.2,0.1l0.1-0.1l0.1-0.1v-0.1L49.4,27h-0.3
	L49,27.2l-0.2-0.1l-0.3,0.1l-0.2,0.1l-0.1,0.1v0.1L48.4,27.5L48.4,27.5z M4.8,13.6l-0.2,0.2v0.3l0.1,0.3l0.1-0.1L4.7,14l0.1-0.2
	L4.8,13.6L4.8,13.6L4.8,13.6z M23.6,42.5L23.6,42.5l0.3-0.3L24,42l-0.2,0.1L23.6,42.5L23.6,42.5z M23.4,43L23.4,43l0.1-0.3v-0.1
	L23.4,43L23.4,43z M23.3,44.3L23.2,44v-0.4l0.1-0.4l-0.2,0.4V44C23.2,44,23.3,44.3,23.3,44.3z"/>
</svg>
