<?xml version="1.0" encoding="utf-8"?>
<!-- Generator: Adobe Illustrator 19.2.0, SVG Export Plug-In . SVG Version: 6.00 Build 0)  -->
<svg version="1.1" id="Layer_1" xmlns="http://www.w3.org/2000/svg" xmlns:xlink="http://www.w3.org/1999/xlink" x="0px" y="0px"
	 viewBox="0 0 56 56" style="enable-background:new 0 0 56 56;" xml:space="preserve">
<style type="text/css">
	.st0{fill:#FDC414;}
</style>
<polygon id="Uruguay" class="st0" points="8.5,1.2 9.7,1.2 10.9,1.8 15.8,0.6 17.6,1.8 20.1,4.9 21.9,5.5 23.1,7.9 25.5,11.6 
	26.8,11.6 28.6,9.7 29.2,9.7 31.6,13.4 34.1,14.6 36.5,15.2 39,17.7 39,20.1 40.8,19.5 44.5,21.3 46.9,24.4 48.7,27.4 51.2,29.3 
	50.6,31.7 48.7,34.1 49.9,37.2 49.9,37.8 50.6,38.4 51.8,39.6 51.8,40.2 51.2,40.8 49.9,42.7 49.9,45.7 48.1,46.9 46.9,48.8 
	47.5,48.8 46.9,50 44.5,52.4 40.8,53.7 40.2,53 39.6,53.7 39.6,54.9 38.4,55.5 37.1,55.5 35.3,54.9 34.7,54.9 33.5,54.3 31.6,53.7 
	28.6,54.3 26.8,55.5 24.9,55.5 24.9,54.3 24.9,53.7 24.3,53 23.1,53 21.3,52.4 19.4,51.2 17,51.2 12.7,51.2 10.9,51.2 8.5,48.2 
	7.2,48.2 4.8,44.5 3.6,40.8 3.6,36.6 3.6,36.6 3.6,36 5.4,34.7 6,32.9 4.8,29.9 4.2,25.6 5.4,24.4 4.2,21.9 5.4,19.5 5.4,17.7 
	6,16.4 6,12.2 5.4,10.3 6.6,9.1 6,6.1 7.2,3.6 8.5,1.8 "/>
</svg>
