<?xml version="1.0" encoding="utf-8"?>
<!-- Generator: Adobe Illustrator 19.2.0, SVG Export Plug-In . SVG Version: 6.00 Build 0)  -->
<svg version="1.1" id="Layer_1" xmlns="http://www.w3.org/2000/svg" xmlns:xlink="http://www.w3.org/1999/xlink" x="0px" y="0px"
	 viewBox="0 0 56 56" style="enable-background:new 0 0 56 56;" xml:space="preserve">
<style type="text/css">
	.st0{fill:#FDC414;}
</style>
<polygon id="Uzbekistan" class="st0" points="44.2,45.7 44.4,43.5 45.1,41.7 45.5,41.3 45.3,40.4 44.6,40.2 44.2,39.1 44.6,38.5 
	44.4,37.6 43.5,37.8 42.9,38 42,36.7 42,35.6 42.7,35.2 44.2,35.4 44.8,35.2 44.8,34.3 46.2,33.9 45.9,33.4 45.7,33 47.2,32.8 
	48.3,32.3 48.3,31.5 47.2,31 47.2,30.1 48.1,29.9 49.2,29.3 49.9,29.3 51,28.2 51.6,28.8 51.8,29.5 53.6,29.3 54.7,29.3 55.8,28.2 
	55.6,27.5 53.8,26.2 53.4,26 53.4,27.1 52.7,27.7 52.1,27.5 51.6,26.9 50.1,26.4 49.4,26 49.9,25.1 51,23.4 51,22.7 50.3,22.7 
	49.7,23.6 49,23.8 47.7,25.3 47.2,26.4 46.8,26.9 46.2,28.2 44.8,29.5 44.4,29.1 42.9,28.4 41.8,28.2 40.7,28.4 39.2,29.3 
	38.5,29.3 37,25.1 34.6,24.9 34.6,20.1 33.2,20.3 32.4,18.3 30.6,17 24.9,17 19.9,17.7 17.1,15.9 14.9,15.1 9.4,11.1 0.4,12.9 
	3.1,29.3 4.8,29.1 6.1,29.3 6.6,28.6 5.9,28 5.7,26.6 6.3,25.3 7.4,25.1 8.1,24.2 8.7,23.8 9.6,24.2 10.1,24 9.4,23.1 10.9,23.4 
	13.3,24.5 15.3,25.8 15.5,26.4 18.1,28 20.1,28.8 20.8,28.6 21.4,28.6 23,29.7 23.4,31.7 24.1,32.3 24.5,33.2 25.2,34.5 26.5,35.2 
	28.7,36.5 30.8,38.2 33.5,39.3 35.9,40.9 37.6,41.3 38.1,41.7 38.7,41.5 39.8,42.4 39.8,43.5 40,45 41.1,44.6 41.8,45 42.2,45.7 
	42.7,45.7 43.3,45.2 43.7,45.2 "/>
</svg>
