<?xml version="1.0" encoding="utf-8"?>
<!-- Generator: Adobe Illustrator 19.2.0, SVG Export Plug-In . SVG Version: 6.00 Build 0)  -->
<svg version="1.1" id="Layer_1" xmlns="http://www.w3.org/2000/svg" xmlns:xlink="http://www.w3.org/1999/xlink" x="0px" y="0px"
	 viewBox="0 0 56 56" style="enable-background:new 0 0 56 56;" xml:space="preserve">
<style type="text/css">
	.st0{fill:#FDC414;}
</style>
<path id="Venezuela" class="st0" d="M25.2,52.3l1.6,1.1l1.6,1.3l1.1,0.3h1.6l1.1-1.1l1.3-1.1l0.8-0.8l2.2-1.1l0.3-1.1l0.8-0.8
	l1.9-0.3l1.1-0.5v-0.8l-1.3-0.3l-1.3,0.3L36,46.9l0.3-1.3l-0.5-0.8l1.1-1.9L36.5,42l-0.8-0.8L34.9,41l-0.5-1.1l1.3,0.3l1.3,0.3
	l1.3,0.8h1.3l1.9-0.3l0.5,0.3l1.3-0.5l1.3-1.3h1.1l0.8,0.3l1.9-0.8H50l2.2-1.6l0.3-1.1V35l-1.6-1.3l-1.1-1.6L49.4,31l0.8-0.8
	l0.3-1.3l0.5-0.5l0.5,0.3l0.5-0.3l0.8,0.3l1.3-0.5V27l-0.8-0.5h-1.1l-0.3-0.8l-0.3-0.5l1.1-1.3h0.5l0.8-0.5l1.3-1.6v-0.3l-0.3-0.3
	l-1.6-0.8h-0.5l-0.5,0.3l-0.8-0.3h-0.5l-0.8,0.3l-1.3,0.3h-1.1h-0.5l0.8-0.3h0.5l0.5-0.3l0.3-0.5l0.8-0.5l0.3-0.5l-0.5-0.3v-0.3
	L50,17.6L48.9,17l-1.3-0.3L47,16.2L46.5,16h-0.8l-0.3-0.3l-0.8-0.3H44v0.8l-0.5-0.8l-0.3-0.8l-0.8-0.5l-0.3-0.5l0.5-0.3h1.9l0.8-0.5
	h1.1v-0.8l-1.1,0.3l-1.9-0.3l-1.3,0.3h-0.8l-1.9,0.5l-0.5-0.3h-0.8l-1.6,1.1l-0.8,0.3l-1.1,0.5l-0.3,0.5L33,15.2l-0.3,0.3l-0.5-0.3
	l-1.9-1.3L30.1,13h-0.5l-2.2,0.3l-4,0.5h-1.9l-0.8-0.3L20.4,13v-0.8h0.5v-0.8l-0.8-1.1l-0.8-0.3l-1.9,0.3l-0.8-0.5h-0.5l-0.5,0.3
	L14.7,9V7.9l-0.3-1.3l-0.3-0.3l-1.1,0.5l-1.1,1.3L12.3,9l0.3,0.3l0.8-0.5h0.8l0.5,0.8v0.5l-0.8,0.3l-0.8-0.3l-0.3-0.3l-0.3,0.3v0.3
	l-1.1,0.5l-1.9,0.3l-1.9,0.8l-0.5,0.8v0.8l0.5,0.8V16L8,17l0.3,1.1l-0.5,1.3l-1.3,0.8H5.6v-1.3l-0.8-1.1L4.5,17l0.8-0.5V16l1.6-1.6
	V13l-0.5-0.8v-0.3v-0.5l-0.5-0.5l-0.3-0.8l0.3-0.5L6.9,9L8,8.7l0.8-1.1H8.3L8,7.9L5.9,8.7l-1.3,1.9l-0.3,0.5l-0.8,0.3l-0.5,1.1
	L2.4,13L1,14.9l-0.3,0.8L1,16.5v1.3l-0.5,1.3v0.5H1h0.8l1.6,3l0.8,1.1l0.3,0.8L4,25.4v0.5l-0.3,0.5V27l1.1,0.8l1.1,0.5h0.8l0.8,0.5
	l0.8-0.3h1.1l1.1,0.3l0.3-0.3l1.3-0.3l1.3,0.3l0.8,0.3l3.2,3.2l1.1-0.3l0.3,0.3H19l0.8,0.3l0.5,0.3l0.8-0.5H22h1.1l0.3-0.3h0.8
	l0.8,0.3l0.3,1.6L25,34.2V35l-0.3,0.5l-1.1,0.3l-0.5,0.5l0.3,1.6v0.5l-0.3,1.1V41l0.5,0.5V42l0.8,2.2l-1.3,2.4v0.5l0.5,0.3l0.5-0.3
	l0.3,0.3l0.3,0.5l0.5,0.3l0.5,0.8l-0.3,0.5l0.5,1.1l0.8,2.2L25.2,52.3L25.2,52.3L25.2,52.3z M19.6,4.1h0.8l0.8,0.8l-0.3,0.8
	l-0.5-0.5h-0.5L19.6,4.1L19.6,4.1z M16.9,3.9l0.8,0.8h0.8L18,5.2l-1.1-0.3l-0.3-0.8L16.9,3.9L16.9,3.9z M12.9,2.8l0.5,0.8h0.8
	l-0.8-0.5L12.9,2.8L12.9,2.8z M36.5,10.1l0.8-0.5l0.5,0.5L39.2,9l0.3,0.5l-0.5,0.8l-0.8-0.3l-0.8,0.3C37.1,10.3,36.5,10.1,36.5,10.1
	z"/>
</svg>
