<?xml version="1.0" encoding="utf-8"?>
<!-- Generator: Adobe Illustrator 19.2.0, SVG Export Plug-In . SVG Version: 6.00 Build 0)  -->
<svg version="1.1" id="Layer_1" xmlns="http://www.w3.org/2000/svg" xmlns:xlink="http://www.w3.org/1999/xlink" x="0px" y="0px"
	 viewBox="0 0 56 56" style="enable-background:new 0 0 56 56;" xml:space="preserve">
<style type="text/css">
	.st0{fill:#FDC414;}
</style>
<path id="Vietnam" class="st0" d="M13.4,4.8l0.2-0.2h0.2l0.2-0.4l0.4-0.2l0.6-0.2h0.4v0.4l0.2,0.2h0.4l0.2-0.6l0.4-0.4l0.6,0.6
	l0.4-0.4h0.4l0.2,0.4l0.9-0.4l0.2-0.4l0.9-0.2l0.6,0.4l1.1-0.4V1.8l0.6-0.4h0.9l0.4-0.4l0.6,0.6V2l0.9,0.2l0.2,0.4h1.5l0.2,0.4
	l0.9-0.4l0.6,0.4l-0.2,0.6h-0.4L28,5l0.4,0.2l0.2,0.6l1.3,0.4l0.2,0.4l0.6,0.2l0.6,0.4l0.6-0.2l0.2,0.2l0.4-0.2l0.6,0.2l0,0l0.2,0.2
	L33.4,8l-0.4,0.2h-0.2l-0.6,0.4h-0.6l-0.6,0.2l-0.2,0.2l0.2,0.4l-0.4,0.2l-0.2,0.2l-0.2-0.2l-0.4,0.2l-0.2,0.2h-0.2l-0.2-0.2h-0.2
	v0.4l-0.2,0.4l0.2,0.2v0.4v0.4v0.2l0.2,0.4l-0.2,0.2h-0.2L28,13.6h-0.4l-0.2-0.2v0.2l-0.2,0.2l-0.2,0.6l-0.2,0.2v0.6h0.2l0.2,0.4
	l-0.4,1.1l-0.4,0.6l0.6,0.6v0.4l-0.6,0.2l0.6,0.2l1.1,0.6l0.9,0.9h0.4l0.4,0.9v0.4l-0.2,0.2l0.2,0.9l0.2,0.4l1.3,1.1l0.6,0.4v0.2
	l1.7,1.1l1.7,1.3l0.4,0.6l1.5,1.1l0.4,0.9v0.4h0.2v0.4l0.9,0.9V32l0.2,0.2l-0.2,0.2l0.6,0.6l0.2,1.3l0.2,0.2l0.2,1.1l0.2,0.2v0.6
	L40,37l0.2,0.6l-0.4,0.2l0.2,0.9v0.2l0.2,0.2l0.2,0.4l0.4,0.9v0.4h-0.2v-0.2l-0.2-0.2l-0.2,0.2V41l0.2,0.4v0.2L40,41.9v0.4l-0.4,0.4
	l0.4,0.6L39.8,44l0.2,0.2l-0.4,0.4l-0.4,0.2v0.9L38.7,46l-0.9,0.9L37.4,47l-0.6,0.4v0.6h-0.6l-0.4,0.4l-1.5,0.9h-0.9l-0.4-0.2
	l-0.6,0.2l-0.2-0.2v-0.4v-0.4l-0.2,0.4V49l-0.6-0.2l0.4,0.2v0.2l-0.2,0.2h-0.6l0.9,0.4L31.4,50l0.2,0.4l-0.4,0.2L30.6,50l0.6,0.6
	v0.4L31,51.5h-0.2l-0.2-0.4h-0.4l0.2,0.4v0.2l0.2,0.2l-0.2,0.2l-0.2,0.2h-0.4L29.1,53l-0.2,0.2h-0.4l-0.2,0.4v0.6l-0.4,0.4h-0.2V55
	l-1.5,0.6l-0.9-0.2l0.4-0.2l0.6-0.2l0.4-0.4l-0.4,0.2l-0.4-0.2v-1.1l0,0h-0.2l0.2-0.4V52l0.4-0.9l0.9-0.6l0.2-0.4l-0.4,0.2h-0.6
	l-0.4,0.2l-0.2-0.2l-0.2,0.2l-0.6-0.2V50v-0.6l-0.2-0.2l0.6-0.9l0.6-0.2l0.4-1.1h0.6l0.4,0.2l1.5-0.4l0.6,0.4l0.2,0.4h1.1L30.6,47
	l0.2-0.4L30.1,46l-0.9-0.2l-0.2-1.3l0.6-0.4H31l0.4-0.6l1.1-0.6l0.9-0.2l0.2-0.4l0.4-0.2l0.4-1.1L34.2,40l0.2-0.9l-0.2-0.6l0.2-1.1
	l-0.6-1.3l-0.6-0.2l-0.4-1.1h0.2l0.6-0.4v-1.1l-0.2-0.4l-0.2-1.1L34,31v-0.9h-0.4l-0.4-0.4v-0.9l0.4-0.4L33.4,28l-0.6,0.2h-0.4
	l-0.4-0.6h-0.6L31,27.1l0.2-0.6l-0.4-0.2h-0.2l-0.4-0.4v-0.6l-0.4-0.6h-0.6l-0.4-0.2l-0.2-0.9l-1.1-1.1v-0.4l-0.6-1.1l-1.1-0.4
	l-0.9-1.1h-0.6l-1.1-0.4H22l-0.4-0.9h-0.4l-0.2-0.4l0.4-0.4l-0.6-0.9v-0.6h0.4l1.1-0.4l0.6-0.2l0.4-0.4l0.4-1.3l0.4-0.2v-0.4
	l-0.9-0.2v-0.6l-0.2-0.6L22.2,11l-0.4-0.6h-1.3l-0.9,0.4l-0.9-0.2h-1.5l-0.6-1.1l-1.1-1.1l0.2-0.6l-0.2-0.6l-0.6-0.4l-0.6-0.9
	l-1.1-0.4L13.4,4.8L13.4,4.8z M22.6,49l0.4,0.4l-0.2,0.4l0.2,0.6l0.4-0.2l0.2-1.1h-0.2l-0.2-0.4L22.6,49z"/>
</svg>
