<?xml version="1.0" encoding="utf-8"?>
<!-- Generator: Adobe Illustrator 19.2.0, SVG Export Plug-In . SVG Version: 6.00 Build 0)  -->
<svg version="1.1" id="Layer_1" xmlns="http://www.w3.org/2000/svg" xmlns:xlink="http://www.w3.org/1999/xlink" x="0px" y="0px"
	 viewBox="0 0 56 56" style="enable-background:new 0 0 56 56;" xml:space="preserve">
<style type="text/css">
	.st0{fill:#FDC414;}
</style>
<path id="Vanuatu" class="st0" d="M38.3,53.4l0.6,1.2v1.2L38.3,54V53.4L38.3,53.4z M36.5,44.4l1.2,1.2v3l-1.2-1.8V45V44.4L36.5,44.4
	z M30.5,33l2.4-1.2l1.2,1.2v1.8l-1.8,0.6l-1.8-1.2L30.5,33L30.5,33z M32.9,3l1.2,3.6l-1.2,1.8l0.6-1.8L32.9,3L32.9,3z M28.1,9
	l1.2,0.6l1.2-1.2l0.6-0.6l-2.4,0.6C29.3,7.8,28.1,9,28.1,9L28.1,9z M32.3,10.8l0.6,0.6v1.8V15h-0.6l-0.6-1.8
	C32.3,12.6,32.9,10.8,32.3,10.8L32.3,10.8z M30.5,24.6l0.6-1.8l1.8,1.2v1.2h-2.4V24.6L30.5,24.6z M29.3,19.2l2.4-1.8l0.6,1.2
	l0.6,0.6v1.2h-1.2L31.1,21h-1.8l-1.2-0.6L29.3,19.2L29.3,19.2z M22.7,14.4h1.8l1.2,1.2v1.8l1.2,2.4l1.2,1.2l-1.8,0.6l-2.4,1.2v-1.2
	l0.6-3l0.6-1.2l-0.6-1.2h-1.2L22.7,14.4L22.7,14.4L22.7,14.4z M18.5,0.6l-1.2,4.2l0.6,2.4v2.4l1.2,2.4h1.2l0.6-1.2l1.2,0.6l1.2-0.6
	V8.4l-0.6-1.2l0.6-1.8l-1.2-1.2l-0.6,0.6V6l-1.2,0.6L19.7,6V2.4C19.7,1.8,17.9,0.6,18.5,0.6z"/>
</svg>
