<?xml version="1.0" encoding="utf-8"?>
<!-- Generator: Adobe Illustrator 19.2.0, SVG Export Plug-In . SVG Version: 6.00 Build 0)  -->
<svg version="1.1" id="Layer_1" xmlns="http://www.w3.org/2000/svg" xmlns:xlink="http://www.w3.org/1999/xlink" x="0px" y="0px"
	 viewBox="0 0 56 56" style="enable-background:new 0 0 56 56;" xml:space="preserve">
<style type="text/css">
	.st0{fill:#FDC414;}
</style>
<path id="Yemen" class="st0" d="M1.7,25.3h1l0.6,0.3l0.6-1l1.3-1l-1-1.6l0.6-2.3l1.3-0.6l1.6,1.3h3.2l4.2,1.6l4.5,2.3l0.3,4.5
	l9.4-12.6l19.1-5.8L48.4,13l4.5,5.8l-0.6,2.3l2.9,3.6l-1,0.3l-1.9,0.3l-1.6,2.3v1.3l0.3,0.3v0.3l0.3,0.6L49,30.5l-1,1l-1.9,1
	l-3.2,0.6l-0.6,0.6l-5.5,1.6h-0.6l-1,0.3l-1,1.6l-1.6,1.3h-0.6l-0.3-0.3l-0.3,0.3h-1L29.6,38h-0.6L27,39.2v0.6l-0.6,0.6l-1.9,0.3
	l-2.3,1l-1-0.3l-0.3-0.3h-1.6l-0.3-0.3h-0.6l-0.6,0.3l-1.3,0.6l-0.6,1.3H15l-1,1.3l-1,0.3l-0.6-0.6h-1l-1,1l-1,0.3l-1.3-0.3
	l-0.3,0.3h-1l-0.3-1l-0.3-1.3l-1-1.3l-0.6-1.3l0.6-0.3v-1.3L4,37.6l-0.6-4.9L2,31.1v-0.6H1.4L1,29.8l0.6,0.3v-0.6h0.6v-1.6L2,25.3
	L1.7,25.3L1.7,25.3z"/>
</svg>
