<?xml version="1.0" encoding="utf-8"?>
<!-- Generator: Adobe Illustrator 19.2.0, SVG Export Plug-In . SVG Version: 6.00 Build 0)  -->
<svg version="1.1" id="Layer_1" xmlns="http://www.w3.org/2000/svg" xmlns:xlink="http://www.w3.org/1999/xlink" x="0px" y="0px"
	 viewBox="0 0 56 56" style="enable-background:new 0 0 56 56;" xml:space="preserve">
<style type="text/css">
	.st0{fill:#FDC414;}
</style>
<path id="South_Africa" class="st0" d="M0.3,27.3L0.8,27l0.7-0.2v-0.4l-0.2-0.2l0.4-0.7l0.9-0.2l0.4,0.7h0.7l-0.2,0.7l0.4,1.1
	l1.1,0.2l0.7,0.4L6,28.1l0.4,0.2h0.7l0.2-0.2h0.4l0.2,0.4h0.4h0.4v-0.7L9,27.7l0.4-0.2l0.2-0.7l0.9-0.4h1.1H12L12.5,14l1.1,0.9
	l0.4,0.9l0.9,2v0.9l-0.4,1.1v0.7l0.9-0.2l0.9,0.2l0.4-0.2l0.9,0.2l0.4-0.4l0.7-0.2l0.7-0.4l0.2-0.4l1.1-0.4l0.7-0.7l0.4-1.3l0.9-0.9
	h0.9l1.1,0.2l0.4,0.4h0.4l1.3,0.7H27l0.7,0.2l0.7-0.2h0.9h0.4l0.2,0.4l0.4,0.2l0.9-0.4l-0.2-0.2l0.2-0.7v-0.4l0.2-0.4v-0.9l0.2-0.7
	l0.7-0.2l0.4-0.2h0.4l0.2-0.2l0.2-0.2l0.2-0.4l0.4-0.4h0.4l0.2-0.2h0.4v-0.4L35,11.2v-0.9L35.9,9l0.4-0.2h0.4L37,8.6l0.4-0.2
	l0.2-0.2L38,8l0.4-0.4l0.7-0.7l0.7-0.2L40,6.9h0.2h0.7l0.4-0.4h0.4L41.9,6V5.6l0.4-0.2H43l0.2-0.2l1.5-0.2l0.9,0.2l0.2,0.4h0.4
	L46.9,6l0.2,0.2L47.6,6l0.9-0.2L49.5,6l0.7,0.4l0.2,0.9l0.2,0.9L51,9v1.5v0.2v0.7l0.2,0.7l0.2,0.9v2.6l-0.2,1.1v1.1v1.1l-0.7-0.2
	l-0.4-0.4l-0.9-0.4l0.7-0.7l-0.2,0.7l-0.9,1.5l-0.2,0.9l0.2,0.4l0.4,0.4l0.4,0.7l1.1,0.7h1.3l0.4-0.2l0.2-0.7V21l0.4-0.2l0.7-0.2
	l1.1,0.2h0.7V21l-0.4,0.4h0.2l-0.4,1.3v1.1l-0.4,1.1l-0.4,1.3l-0.4,0.7l-0.2,0.7l-0.9,1.1h-0.4l-0.2,0.2L51.3,29L51,29.4L50,30.1
	l-0.4,0.9l-0.7,0.9v0.4l-0.4,0.7h-0.7L47.4,34l-1.5,2.4l-1.1,1.1l-0.2,0.9l-0.7,0.2l-0.7,0.7h-0.4l-0.2,0.2l-3.5,3.5h-0.4v0.2
	L38,43.7l-2.4,1.5l-0.4,0.7l-0.9,0.2v0.2l-1.3,0.4l-0.7,0.4h-0.9L31.1,47H30l-0.9,0.2l-0.4,0.7l0.4,0.4v0.2h-1.1l-0.7-0.4h-0.7
	l-0.4,0.4l0.2,0.4l-0.2,0.2l-1.7-0.4l-0.4-0.4l-1.5-0.4l-1.1,0.2v0.2l-0.4,0.2l-0.9-0.4h-1.7l-0.4,0.2l-0.2,0.7l-0.4-0.2L17,48.9
	l-0.4,0.2l-0.2,0.2h-0.9l-0.4,0.2L14,49.1h-0.9l-0.2,0.2L12,49.1L11.4,50l-0.7,0.2l-0.2,0.4l-0.4-0.2l-0.2,0.2l-1.7-0.9L7.7,50v-0.9
	l-0.7-0.4l-0.4,0.2l-0.2-0.2l0.2-0.2l-0.2-0.7l-0.9-0.2l-0.7,0.4v0.7l-0.4-0.2v-0.7l0.2-0.7l-0.2-0.9l0.4-0.7l-0.7-1.1l-0.7-0.4
	l-0.4-0.9v-0.9L3.6,42L4,42.4h0.2L4.7,42l0.2-1.1l-0.4-1.1v-0.4l-1.1-1.5v-0.7l-0.9-1.3l-0.4-2l0.2-1.7v-0.9l-0.7-2.2l-1.1-0.9
	L0.3,27.3L0.3,27.3L0.3,27.3z M36.5,33.8l0.4,0.4l0.4,0.4l0.9,0.2h0.7l0.2-0.4l0.2-0.2l0.2-0.9l0.7-0.2l0.4-0.2l0.7-0.2l0.4,0.2
	l0.7-0.4l0.2-0.4l-0.2-0.2v-0.4l0.7-0.2l0.7-0.4v-0.9l-0.4-1.3l-0.7-0.7l-0.4,0.2l-0.4-0.4l-0.2,0.2l-0.4-0.2h-0.4l-0.2,0.2L40,28.1
	l-0.2,0.4l-1.3,0.2l-0.9,0.7l-0.2,0.9l-0.9,0.7l-0.4,0.2l0.2,0.7l0.4,0.4v0.4l0.4,0.4L36.5,33.8z"/>
</svg>
