<?xml version="1.0" encoding="utf-8"?>
<!-- Generator: Adobe Illustrator 19.2.0, SVG Export Plug-In . SVG Version: 6.00 Build 0)  -->
<svg version="1.1" id="Layer_1" xmlns="http://www.w3.org/2000/svg" xmlns:xlink="http://www.w3.org/1999/xlink" x="0px" y="0px"
	 viewBox="0 0 56 56" style="enable-background:new 0 0 56 56;" xml:space="preserve">
<style type="text/css">
	.st0{fill:#FDC414;}
</style>
<polygon id="Zambia" class="st0" points="10.7,18.1 11,18.4 11.6,18.4 12.2,18.4 12.5,18.7 12.5,19.6 12.8,19.9 13.1,20.2 
	13.4,19.6 13.9,19.3 14.8,19.3 15.1,19 16.3,18.7 16.6,18.7 16.6,19.6 16.9,20.2 16.9,20.8 16.9,21.1 17.2,21.1 18,21.3 18.6,21.6 
	19.5,22.2 20.7,22.2 21.6,22.5 21.6,22.8 22.4,22.8 23.9,22.5 23.9,21.9 24.2,20.8 24.8,20.5 25.4,20.5 25.7,20.5 25.7,21.9 
	26.5,22.5 26.5,23.1 27.7,23.7 29.2,24.3 30.4,24.9 31.2,26.3 32.1,26.9 33,28.1 34.2,29 34.5,29 35.3,28.7 35.9,28.4 36.5,28.7 
	36.5,29 37.1,29 37.4,28.7 37.1,23.7 36.5,23.4 35.6,23.7 35.6,24.3 35.9,24.6 35.6,24.9 33.9,24.6 33.3,24.3 33.3,23.4 31.8,22.2 
	31.2,21.6 31.2,20.5 31.2,17.8 31.2,17.2 32.1,16.4 32.4,16.1 32.4,15.8 32.7,15.5 32.7,14.6 32.7,13.7 32.7,13.1 32.7,12.6 
	33,12.3 33,11.7 32.7,11.4 32.1,11.1 31.8,9.9 33.9,6.4 41.2,4.6 43.5,5.5 44.1,5.5 44.7,5.8 45.3,5.8 45.9,6.4 45.9,6.7 46.5,7.3 
	47.3,7.3 49.4,7.9 50,7.9 50.3,8.5 50.9,8.5 51.2,9.3 52,10.2 52.6,10.2 52.6,10.8 53.2,11.1 53.2,11.7 53.8,12.3 54.4,12.3 
	54.4,12.6 54.1,13.7 54.1,14.3 55,14.9 55,15.5 55.3,16.4 55,16.7 55,17 53.8,18.1 53.8,19 54.1,19.6 54.1,20.5 54.4,21.1 
	53.8,21.6 54.4,22.2 54.1,22.8 53.8,22.8 54.1,23.4 54.1,24 54.7,24.3 54.7,24.6 54.4,24.9 54.1,25.2 53.5,25.4 52.3,26.3 
	52.3,26.6 52.3,27.2 52.3,27.8 52.3,28.1 52.3,28.7 51.5,29.5 51.2,29.8 51.2,30.4 51.7,31 52.3,31.9 52.3,32.5 52.3,32.5 
	50.9,32.8 48.2,33.9 47.3,34.2 42.7,36 41.8,36 40,36.9 39.4,37.8 40,39.2 40,39.5 39.7,39.5 39.4,39.8 38.3,39.5 38,39.5 
	37.7,39.2 36.5,39.2 35.6,39.8 34.7,40.1 34.2,40.1 33,41 32.4,41.6 32.7,41.9 32.4,42.4 32.4,42.7 32.4,43 32.1,43.6 30.4,43.9 
	27.7,46 25.7,48.6 24.2,50.6 23,50.9 22.2,50.6 21.6,50.1 21.3,50.1 21,50.1 21,50.1 20.4,49.8 19.5,50.1 18.6,50.6 18,50.4 
	17.8,50.1 16.9,49.8 15.7,49.5 15.1,49.5 14.5,48.6 14.2,48.6 14.2,48.6 13.7,48.6 13.4,48.3 13.1,48.3 12.8,48 11.9,48.3 
	11.3,48.3 6.9,49.2 6.6,48.6 6,48.3 5.4,47.7 5.2,47.1 4.6,46.8 4,46.3 3.1,45.1 2.5,44.8 1.9,44.5 1.3,43.9 0.8,43 0.8,42.4 
	1.1,27.2 10.7,27.2 10.4,26.6 10.7,25.4 11,25.2 11,24.3 10.4,23.4 10.4,22.5 10.7,20.8 10.4,19 10.4,18.4 "/>
</svg>
