<?xml version="1.0" encoding="utf-8"?>
<!-- Generator: Adobe Illustrator 19.2.0, SVG Export Plug-In . SVG Version: 6.00 Build 0)  -->
<svg version="1.1" id="Layer_1" xmlns="http://www.w3.org/2000/svg" xmlns:xlink="http://www.w3.org/1999/xlink" x="0px" y="0px"
	 viewBox="0 0 56 56" style="enable-background:new 0 0 56 56;" xml:space="preserve">
<style type="text/css">
	.st0{fill:#FDC414;}
</style>
<polygon id="Zimbabwe" class="st0" points="0.7,18.9 1.6,18.9 3.4,19.3 4.7,19.8 5.1,20.2 6,20.7 7.3,19.8 8.6,19.3 9.5,19.8 
	9.5,19.8 10,19.8 10.4,19.8 11.3,20.7 12.6,21.1 14.4,20.7 16.6,17.6 19.6,13.6 23.6,10.5 26.2,10.1 26.7,9.2 26.7,8.8 26.7,8.3 
	27.1,7.5 26.7,7 27.5,6.1 29.3,4.8 30.2,4.8 31.5,4.4 32.8,3.5 34.6,3.5 35,3.9 35.5,3.9 37.2,4.4 37.7,3.9 38.1,3.9 38.1,6.6 
	40.7,6.6 41.6,7 42.1,7.5 42.5,7.5 42.9,6.6 45.1,7 46.9,8.3 48.2,9.7 49.5,10.1 51.7,10.1 52.6,11.4 53.5,12.3 55.3,12.3 
	55.3,13.6 54.4,14.5 54.8,15.4 54.4,16.7 54.8,17.1 54.8,18 53.9,19.3 53.9,21.1 53.1,22.4 53.9,23.3 54.8,22.9 54.4,23.7 
	53.5,24.6 53.5,25.9 53.1,27.3 52.2,27.7 52.2,28.6 53.5,29.5 53.9,30.8 53.1,31.2 53.1,32.5 53.9,33 54.4,33.8 53.1,35.2 
	51.7,36.5 51.3,36.9 50.4,37.4 50.4,38.2 50.9,39.1 50.4,40 50,42.2 50,43.1 49.5,45.3 42.1,52.8 41.2,51.9 38.5,51.4 36.8,51.9 
	35.9,52.3 35.5,51.9 33.7,51 32.8,51 32.4,50.1 30.6,50.1 28.4,50.1 28,49.7 27.1,48.8 27.1,48.4 26.7,47.9 25.8,47.5 24.5,47 
	23.6,46.6 21.8,46.2 20.9,46.6 19.2,46.2 18.7,44.8 17.4,44 17,43.1 17,41.8 16.6,40 17,39.1 15.7,38.7 14.8,38.2 14.4,37.4 
	14.4,36.9 14.4,36.5 13.5,36 12.6,35.2 11.7,34.3 10.4,33.8 8.2,30.8 7.8,29.9 7.3,29.9 6.4,29 6.4,28.1 5.6,27.3 5.6,26.4 
	4.7,25.1 4.2,24.6 4.2,24.2 3.8,23.3 2.9,22.9 2,22.4 1.2,21.5 1.2,20.7 1.2,20.2 1.2,19.8 1.2,18.9 "/>
</svg>
